<svg xmlns="http://www.w3.org/2000/svg" viewBox="0 0 231.1 73.4">
  <g fill="#FFFFFF">
    <polygon points="24.3,48.8 28.6,48.8 32,40.7 27.7,40.7"/>
    <polygon points="39.8,32.6 33,48.8 37.3,48.8 44.1,32.6"/>
    <polygon points="51.8,24.5 41.6,48.8 46,48.8 56.2,24.5"/>
    <path d="M78.4,24.6h-9v24.1h9c7.6,0,12.8-5.3,12.8-12.1S86,24.6,78.4,24.6z M78.4,44.9h-4.7V28.5h4.7c5.1,0,8.4,3.5,8.4,8.2C86.8,41.5,83.5,44.9,78.4,44.9z"/>
    <path d="M127.9,34.8c-4.6-1.1-5.7-1.9-5.7-3.8c0-1.6,1.4-2.9,3.9-2.9c2.2,0,4.4,0.9,6.5,2.5l2.3-3.2c-2.4-2-5.2-3-8.7-3c-4.8,0-8.2,2.8-8.2,7c0,4.5,2.9,6,8,7.2c4.5,1,5.4,2,5.4,3.7c0,1.9-1.6,3.1-4.3,3.1c-3,0-5.3-1.1-7.6-3.1l-2.5,3c2.9,2.6,6.4,3.9,10,3.9c5.1,0,8.6-2.7,8.6-7.2C135.6,37.8,132.9,36,127.9,34.8z"/>
    <polygon points="137.6,28.6 145.3,28.6 145.3,48.8 149.5,48.8 149.5,28.6 157.2,28.6 157.2,24.6 137.6,24.6"/>
    <path d="M180.2,32.3c0-4.7-3.4-7.7-8.9-7.7h-10.7v24.1h4.2v-8.4h5.3l5.9,8.4h5l-6.5-9.1C177.9,38.7,180.2,36.3,180.2,32.3z M164.8,36.6v-8.1h6.2c3.1,0,5,1.4,5,4c0,2.5-1.9,4.1-5,4.1H164.8z"/>
    <polygon points="55.1,29.7 59.3,39.7 50.9,39.7 49.2,43.6 60.9,43.6 63.1,48.8 67.4,48.8 57.2,24.5"/>
    <path d="M101,24.5L90.8,48.8h4.3l2.2-5.2H109l2.2,5.2h4.3l-10.2-24.3H101z M99,39.7l4.2-10l4.2,10H99z"/>
    <path d="M196.6,24.5h-4.3l-10.2,24.3h4.3l2.2-5.2h11.7l2.2,5.2h4.3L196.6,24.5z M190.2,39.7l4.2-10l4.2,10H190.2z"/>
  </g>
</svg>
