<?xml version="1.0" encoding="utf-8"?>
<!-- Generator: Adobe Illustrator 27.5.0, SVG Export Plug-In . SVG Version: 6.00 Build 0)  -->
<svg version="1.1" id="Layer_1" xmlns="http://www.w3.org/2000/svg" xmlns:xlink="http://www.w3.org/1999/xlink" x="0px" y="0px"
	 viewBox="0 0 500 500" style="enable-background:new 0 0 500 500;" xml:space="preserve">
<style type="text/css">
	.st0{clip-path:url(#SVGID_00000152254798125560139760000011367790065921547700_);}
	.st1{fill:#FFFFFF;}
	.st2{fill:none;stroke:#FFFFFF;stroke-width:12;stroke-linecap:round;stroke-linejoin:round;}
	.st3{display:none;fill:none;stroke:#FFFFFF;stroke-width:12;stroke-linecap:round;stroke-linejoin:round;}
</style>
<g>
	<g>
		<g>
			<g>
				<g>
					<defs>
						<rect id="SVGID_1_" width="500" height="500"/>
					</defs>
					<clipPath id="SVGID_00000042721416525946378300000003763236116588905112_">
						<use xlink:href="#SVGID_1_"  style="overflow:visible;"/>
					</clipPath>
					<g style="clip-path:url(#SVGID_00000042721416525946378300000003763236116588905112_);">
						<g>
							<path class="st1" d="M250,347c-108.1,0-192.8-36.8-192.8-83.8c0-21.5,17.8-41.7,50.1-56.9c3-1.4,6.6-0.1,8,2.9s0.1,6.6-2.9,8
								c-27.9,13.1-43.3,29.5-43.3,46.1C69.2,302.1,152,335,250,335s180.8-32.9,180.8-71.8c0-15.4-13.6-30.9-38.3-43.7
								c-2.9-1.5-4.1-5.1-2.6-8.1c1.5-2.9,5.1-4.1,8.1-2.6c29.3,15.1,44.9,33.9,44.9,54.3C442.8,310.2,358.1,347,250,347z"/>
						</g>
						<g>
							<g>
								<path class="st1" d="M308.2,248.6c-16.4,0-29.8-13.4-29.8-29.8v-31.5c0-16.4,13.4-29.8,29.8-29.8s29.8,13.4,29.8,29.8v31.5
									C338,235.2,324.6,248.6,308.2,248.6z M308.2,169.5c-9.8,0-17.8,8-17.8,17.8v31.5c0,9.8,8,17.8,17.8,17.8s17.8-8,17.8-17.8
									v-31.5C326,177.5,318,169.5,308.2,169.5z M212.2,224.9h-0.1c-3.3-0.1-6-2.8-5.9-6.1l0.2-11.4c0.3-24.3,17.2-44.7,41-49.6
									c3.2-0.7,6.4,1.4,7.1,4.7c0.7,3.2-1.4,6.4-4.7,7.1c-18.2,3.8-31.1,19.4-31.4,38l-0.2,11.4
									C218.1,222.3,215.5,224.9,212.2,224.9z"/>
							</g>
							<g>
								<path class="st1" d="M234.5,248.6c-15.6,0-28.3-13.1-28.3-29.2s12.7-29.2,28.3-29.2s28.3,13.1,28.3,29.2
									S250.1,248.6,234.5,248.6z M234.5,202.2c-9,0-16.3,7.7-16.3,17.2s7.3,17.2,16.3,17.2s16.3-7.7,16.3-17.2
									S243.5,202.2,234.5,202.2z M160.8,248.6c-12.5,0-23.8-6.9-28.1-17.1c-1.3-3.1,0.1-6.6,3.2-7.9c3.1-1.3,6.6,0.1,7.9,3.2
									c2.5,5.8,9.3,9.7,17.1,9.7c9.9,0,18-6.4,18-14.2c0-7.7-8.2-14.2-18-14.2c-3.3,0-6-2.7-6-6s2.7-6,6-6c16.5,0,30,11.8,30,26.2
									S177.3,248.6,160.8,248.6z"/>
							</g>
							<g>
								<path class="st1" d="M160.3,208.3c-0.4,0-0.7,0-1.1-0.1h-3.7c-3.3,0-6-2.7-6-6s2.7-6,6-6h4.8c0.3,0,0.6,0,0.9,0.1
									c8-0.4,14.4-6.2,14.4-13.3c0-7.3-6.9-13.3-15.3-13.3c-6.3,0-12.1,3.5-14.3,8.7c-1.3,3-4.8,4.4-7.9,3.1
									c-3-1.3-4.4-4.8-3.1-7.9c4.2-9.7,14.1-15.9,25.3-15.9c15.1,0,27.3,11.3,27.3,25.3S175.4,208.3,160.3,208.3z M374.4,200.8
									c-12,0-21.7-9.7-21.7-21.7s9.7-21.7,21.7-21.7s21.7,9.7,21.7,21.7S386.4,200.8,374.4,200.8z M374.4,169.4
									c-5.3,0-9.7,4.4-9.7,9.7s4.4,9.7,9.7,9.7s9.7-4.4,9.7-9.7S379.7,169.4,374.4,169.4z"/>
							</g>
						</g>
						<g>
							<path class="st1" d="M235.1,376.6c-1.5,0-3.1-0.6-4.2-1.8c-2.3-2.3-2.3-6.1,0-8.5l25.6-25.6l-25.6-25.6
								c-2.3-2.3-2.3-6.1,0-8.5c2.3-2.3,6.1-2.3,8.5,0l29.8,29.8c1.1,1.1,1.8,2.7,1.8,4.2s-0.6,3.1-1.8,4.2l-29.8,29.8
								C238.2,376,236.6,376.6,235.1,376.6z"/>
						</g>
						<path class="st2" d="M0,500"/>
						<g>
							<g>
								<g>
									<path class="st3" d="M0,500"/>
								</g>
							</g>
							<g>
								<g>
									<path class="st2" d="M0,500"/>
								</g>
							</g>
							<g>
								<g>
									<path class="st2" d="M0,500"/>
								</g>
							</g>
							<g>
								<g>
									<path class="st2" d="M0,500"/>
								</g>
							</g>
							<g>
								<g>
									<path class="st2" d="M0,500"/>
								</g>
							</g>
							<g>
								<g>
									<path class="st2" d="M0,500"/>
								</g>
							</g>
							<g>
								<g>
									<path class="st2" d="M0,500"/>
								</g>
							</g>
							<g>
								<g>
									<path class="st2" d="M0,500"/>
								</g>
							</g>
							<g>
								<g>
									<path class="st2" d="M0,500"/>
								</g>
							</g>
							<g>
								<g>
									<path class="st2" d="M0,500"/>
								</g>
							</g>
							<g>
								<g>
									<path class="st2" d="M0,500"/>
								</g>
							</g>
							<g>
								<g>
									<path class="st2" d="M0,500"/>
								</g>
							</g>
						</g>
					</g>
				</g>
			</g>
		</g>
	</g>
</g>
</svg>
