<?xml version="1.0" encoding="utf-8"?>
<!-- Generator: Adobe Illustrator 27.5.0, SVG Export Plug-In . SVG Version: 6.00 Build 0)  -->
<svg version="1.1" id="Layer_1" xmlns="http://www.w3.org/2000/svg" xmlns:xlink="http://www.w3.org/1999/xlink" x="0px" y="0px"
	 viewBox="0 0 500 500" style="enable-background:new 0 0 500 500;" xml:space="preserve">
<style type="text/css">
	.st0{fill:#FFFFFF;}
	.st1{display:none;fill:#F9423A;stroke:#F84239;stroke-width:12;stroke-linecap:round;stroke-linejoin:round;}
	.st2{fill:#FFFFFF;stroke:#FFFFFF;stroke-width:12;stroke-linecap:round;stroke-linejoin:round;}
</style>
<g>
	<g>
		<g>
			<g>
				<g>
					<path class="st0" d="M388.5,416.1h-45.3c-3.3,0-6-2.7-6-6s2.7-6,6-6h45.3c8.5,0,15.4-6.9,15.4-15.4v-45.3c0-3.3,2.7-6,6-6
						s6,2.7,6,6v45.3C415.9,403.8,403.6,416.1,388.5,416.1z M156.8,416.1h-45.3c-15.1,0-27.4-12.3-27.4-27.4v-45.3c0-3.3,2.7-6,6-6
						s6,2.7,6,6v45.3c0,8.5,6.9,15.4,15.4,15.4h45.3c3.3,0,6,2.7,6,6S160.1,416.1,156.8,416.1z M409.9,162.8c-3.3,0-6-2.7-6-6v-45.3
						c0-8.5-6.9-15.4-15.4-15.4h-45.3c-3.3,0-6-2.7-6-6s2.7-6,6-6h45.3c15.1,0,27.4,12.3,27.4,27.4v45.3
						C415.9,160.1,413.2,162.8,409.9,162.8z M90.1,162.6c-3.3,0-6-2.7-6-6v-45.3c0-15.1,12.3-27.4,27.4-27.4h45.3c3.3,0,6,2.7,6,6
						s-2.7,6-6,6h-45.3c-8.5,0-15.4,6.9-15.4,15.4v45.3C96.1,159.9,93.4,162.6,90.1,162.6z"/>
				</g>
				<g>
					<path class="st0" d="M250,368.2c-0.7,0-1.5-0.1-2.2-0.4l-110.7-43.5c-3.1-1.2-4.6-4.7-3.4-7.8s4.7-4.6,7.8-3.4L250,355.8
						L359,313c3.1-1.2,6.6,0.3,7.8,3.4s-0.3,6.6-3.4,7.8l-111.2,43.7C251.5,368.1,250.7,368.2,250,368.2z M250,228.2
						c-0.7,0-1.5-0.1-2.2-0.4L136.6,184c-2.3-0.9-3.8-3.2-3.8-5.7s1.6-4.7,3.9-5.6l111.2-40.5c1.3-0.5,2.8-0.5,4.1,0l111.2,40.6
						c2.3,0.9,3.9,3.1,3.9,5.6s-1.5,4.7-3.8,5.7l-111.2,43.7C251.5,228.1,250.7,228.2,250,228.2z M155.7,178.6l94.3,37.1l94.3-37
						L250,144.3L155.7,178.6z"/>
				</g>
				<g>
					<path class="st0" d="M361.8,225.7c-3.3,0-6-2.7-6-6v-40.5c0-3.3,2.7-6,6-6s6,2.7,6,6v40.5C367.8,223,365.1,225.7,361.8,225.7z"
						/>
				</g>
				<g>
					<path class="st0" d="M250.1,367.8c-3.3,0-6-2.7-6-6V222c0-3.3,2.7-6,6-6s6,2.7,6,6v139.8C256.1,365.1,253.4,367.8,250.1,367.8z
						"/>
				</g>
				<g>
					<path class="st0" d="M138.5,324.6c-3.3,0-6-2.7-6-6V178.8c0-3.3,2.7-6,6-6s6,2.7,6,6v139.8
						C144.5,321.9,141.8,324.6,138.5,324.6z"/>
				</g>
				<g>
					<g>
						<g>
							<g>
								<path class="st1" d="M0,500"/>
							</g>
						</g>
					</g>
					<g>
						<g>
							<g>
								<g>
									<path class="st2" d="M0,500"/>
								</g>
							</g>
						</g>
					</g>
				</g>
				<g>
					<g>
						<g>
							<g>
								<path class="st2" d="M0,500"/>
							</g>
						</g>
					</g>
				</g>
				<g>
					<g>
						<g>
							<g>
								<path class="st0" d="M345.8,299.7c-2.4,0-4.6-1.4-5.5-3.7l-3.7-9h-25.3l-4.1,9.1c-1.3,3-4.9,4.4-7.9,3.1s-4.4-4.9-3.1-7.9
									l5.1-11.5c0.2-0.8,0.5-1.6,1-2.2L319,240c1-2.2,3.1-3.6,5.5-3.6c0,0,0,0,0.1,0c2.4,0,4.5,1.5,5.5,3.7l21.3,51.4
									c1.3,3.1-0.2,6.6-3.2,7.8C347.3,299.6,346.6,299.7,345.8,299.7z M316.6,275h15l-7.2-17.5L316.6,275z M402.7,299.7
									c-2.1,0-4.2-1.1-5.2-3.1l-11.6-20.9H377v18c0,3.3-2.7,6-6,6s-6-2.7-6-6v-51.4c0-3.3,2.7-6,6-6h17.4
									c11.7,0,21.2,8.8,21.2,19.7c0,5.4-2.3,10.4-6.5,14.2c-1.4,1.3-3,2.4-4.7,3.2l9.7,17.4c1.6,2.9,0.6,6.5-2.3,8.2
									C404.7,299.5,403.7,299.7,402.7,299.7z M376.9,263.7h11.4c2.6,0,4.9-0.9,6.7-2.5c1.1-1,2.5-2.7,2.5-5.2
									c0-4.2-4.2-7.7-9.2-7.7h-11.4V263.7z"/>
							</g>
						</g>
					</g>
				</g>
			</g>
		</g>
	</g>
</g>
</svg>
