<?xml version="1.0" encoding="iso-8859-1"?>
<!-- Generator: Adobe Illustrator 29.6.1, SVG Export Plug-In . SVG Version: 9.03 Build 0)  -->
<svg version="1.1" id="Layer_1" xmlns="http://www.w3.org/2000/svg" xmlns:xlink="http://www.w3.org/1999/xlink" x="0px" y="0px"
	 viewBox="0 0 500 500" style="enable-background:new 0 0 500 500;" xml:space="preserve">
<g>
	<g>
		<path style="fill:#FFFFFF;" d="M415,321c-3.313,0-6-2.687-6-6v-29h-44c-3.313,0-6-2.687-6-6s2.687-6,6-6h50c3.313,0,6,2.687,6,6
			v35C421,318.313,418.313,321,415,321z"/>
	</g>
	<g>
		<path style="fill:#FFFFFF;" d="M415,351c-11.579,0-21-9.421-21-21s9.421-21,21-21s21,9.421,21,21S426.579,351,415,351z M415,321
			c-4.963,0-9,4.037-9,9s4.037,9,9,9s9-4.037,9-9S419.963,321,415,321z"/>
	</g>
	<g>
		<path style="fill:#FFFFFF;" d="M415,226h-50c-3.313,0-6-2.687-6-6s2.687-6,6-6h44v-29c0-3.313,2.687-6,6-6s6,2.687,6,6v35
			C421,223.313,418.313,226,415,226z"/>
	</g>
	<g>
		<path style="fill:#FFFFFF;" d="M415,191c-11.579,0-21-9.42-21-21s9.421-21,21-21s21,9.42,21,21S426.579,191,415,191z M415,161
			c-4.963,0-9,4.038-9,9s4.037,9,9,9s9-4.038,9-9S419.963,161,415,161z"/>
	</g>
	<g>
		<path style="fill:#FFFFFF;" d="M85,321c-3.313,0-6-2.687-6-6v-35c0-3.313,2.687-6,6-6h50c3.313,0,6,2.687,6,6s-2.687,6-6,6H91v29
			C91,318.313,88.313,321,85,321z"/>
	</g>
	<g>
		<path style="fill:#FFFFFF;" d="M85,351c-11.58,0-21-9.421-21-21s9.42-21,21-21s21,9.421,21,21S96.58,351,85,351z M85,321
			c-4.962,0-9,4.037-9,9s4.038,9,9,9s9-4.037,9-9S89.962,321,85,321z"/>
	</g>
	<g>
		<path style="fill:#FFFFFF;" d="M135,226H85c-3.313,0-6-2.687-6-6v-35c0-3.313,2.687-6,6-6s6,2.687,6,6v29h44c3.313,0,6,2.687,6,6
			S138.313,226,135,226z"/>
	</g>
	<g>
		<path style="fill:#FFFFFF;" d="M85,191c-11.58,0-21-9.42-21-21s9.42-21,21-21s21,9.42,21,21S96.58,191,85,191z M85,161
			c-4.962,0-9,4.038-9,9s4.038,9,9,9s9-4.038,9-9S89.962,161,85,161z"/>
	</g>
	<g>
		<path style="fill:#FFFFFF;" d="M220,141c-3.313,0-6-2.687-6-6V91h-29c-3.313,0-6-2.687-6-6s2.687-6,6-6h35c3.313,0,6,2.687,6,6v50
			C226,138.313,223.313,141,220,141z"/>
	</g>
	<g>
		<path style="fill:#FFFFFF;" d="M170,106c-11.58,0-21-9.42-21-21s9.42-21,21-21s21,9.42,21,21S181.58,106,170,106z M170,76
			c-4.962,0-9,4.038-9,9s4.038,9,9,9s9-4.038,9-9S174.962,76,170,76z"/>
	</g>
	<g>
		<path style="fill:#FFFFFF;" d="M280,141c-3.313,0-6-2.687-6-6V85c0-3.313,2.687-6,6-6h35c3.313,0,6,2.687,6,6s-2.687,6-6,6h-29v44
			C286,138.313,283.313,141,280,141z"/>
	</g>
	<g>
		<path style="fill:#FFFFFF;" d="M330,106c-11.579,0-21-9.42-21-21s9.421-21,21-21s21,9.42,21,21S341.579,106,330,106z M330,76
			c-4.963,0-9,4.038-9,9s4.037,9,9,9s9-4.038,9-9S334.963,76,330,76z"/>
	</g>
	<g>
		<path style="fill:#FFFFFF;" d="M315,421h-35c-3.313,0-6-2.687-6-6v-50c0-3.313,2.687-6,6-6s6,2.687,6,6v44h29c3.313,0,6,2.687,6,6
			S318.313,421,315,421z"/>
	</g>
	<g>
		<path style="fill:#FFFFFF;" d="M330,436c-11.579,0-21-9.421-21-21s9.421-21,21-21s21,9.421,21,21S341.579,436,330,436z M330,406
			c-4.963,0-9,4.037-9,9s4.037,9,9,9s9-4.037,9-9S334.963,406,330,406z"/>
	</g>
	<g>
		<path style="fill:#FFFFFF;" d="M220,421h-35c-3.313,0-6-2.687-6-6s2.687-6,6-6h29v-44c0-3.313,2.687-6,6-6s6,2.687,6,6v50
			C226,418.313,223.313,421,220,421z"/>
	</g>
	<g>
		<path style="fill:#FFFFFF;" d="M170,436c-11.58,0-21-9.421-21-21s9.42-21,21-21s21,9.421,21,21S181.58,436,170,436z M170,406
			c-4.962,0-9,4.037-9,9s4.038,9,9,9s9-4.037,9-9S174.962,406,170,406z"/>
	</g>
	<g>
		<path style="fill:#FFFFFF;" d="M345,371H155c-14.336,0-26-11.663-26-26V155c0-14.336,11.664-26,26-26h190
			c14.337,0,26,11.664,26,26v190C371,359.337,359.337,371,345,371z M155,141c-7.72,0-14,6.28-14,14v190c0,7.72,6.28,14,14,14h190
			c7.72,0,14-6.28,14-14V155c0-7.72-6.28-14-14-14H155z"/>
	</g>
	<g>
		<path style="fill:#FFFFFF;" d="M189.998,296.002c-0.764,0-1.541-0.147-2.291-0.457c-3.062-1.267-4.518-4.775-3.251-7.838
			l8.129-19.656c0.033-0.085,0.068-0.17,0.105-0.253l24.851-60.091c0.928-2.244,3.116-3.707,5.544-3.707h8.816
			c2.428,0,4.616,1.463,5.544,3.706l24.864,60.092c0.036,0.083,0.071,0.168,0.104,0.253l8.131,19.655
			c1.268,3.062-0.188,6.571-3.25,7.838c-3.061,1.267-6.572-0.188-7.838-3.25l-6.651-16.078h-50.611l-6.649,16.077
			C194.588,294.605,192.353,296.002,189.998,296.002z M207.156,264.216h40.684L227.89,216h-0.793L207.156,264.216z M297,296
			c-3.313,0-6-2.687-6-6v-80c0-3.313,2.687-6,6-6s6,2.687,6,6v80C303,293.313,300.313,296,297,296z"/>
	</g>
</g>
</svg>
