<?xml version="1.0" encoding="iso-8859-1"?>
<!-- Generator: Adobe Illustrator 29.6.1, SVG Export Plug-In . SVG Version: 9.03 Build 0)  -->
<svg version="1.1" id="Layer_1" xmlns="http://www.w3.org/2000/svg" xmlns:xlink="http://www.w3.org/1999/xlink" x="0px" y="0px"
	 viewBox="0 0 500 500" style="enable-background:new 0 0 500 500;" xml:space="preserve">
<g>
	<path style="fill:#FFFFFF;" d="M379.45,441c-3.313,0-6-2.687-6-6V65c0-3.313,2.687-6,6-6s6,2.687,6,6v370
		C385.45,438.313,382.764,441,379.45,441z M120.55,441c-3.313,0-6-2.687-6-6V65c0-3.313,2.687-6,6-6s6,2.687,6,6v370
		C126.55,438.313,123.863,441,120.55,441z M290.05,418.1c-0.691,0-1.377-0.119-2.027-0.354l-38.07-13.67l-37.97,13.669
		c-0.652,0.234-1.339,0.354-2.032,0.354c-2.081,0-7.151-0.895-9.297-9.176c-1.237-4.773-1.934-14.714,4.283-18.169l23.814-13.367
		v-38.591l-23.7,3.312v3.391c0,3.313-2.687,6-6,6c-3.313,0-6-2.687-6-6v-1.714l-21.87,3.057c-0.275,0.038-0.553,0.058-0.831,0.058
		c-5.859,0-10.763-3.7-12.203-9.208c-1.396-5.336,0.962-10.771,5.866-13.524l64.737-36.283V262.1c0-11.745,9.555-21.3,21.3-21.3
		s21.3,9.555,21.3,21.3v25.842l64.634,36.225c4.907,2.755,7.265,8.189,5.87,13.526c-1.44,5.508-6.345,9.208-12.204,9.208
		c-0.277,0-0.556-0.02-0.83-0.058l-21.97-3.07v1.827c0,3.313-2.687,6-6,6s-6-2.687-6-6v-3.504l-23.6-3.299v38.591l23.836,13.38
		c6.164,3.424,5.46,13.36,4.223,18.135C297.158,417.203,292.117,418.1,290.05,418.1z M211.923,400.594
		c-0.193,1.107-0.12,2.879,0.133,4.371l35.862-12.91c1.312-0.473,2.748-0.474,4.06-0.001l35.928,12.9
		c0.257-1.494,0.339-3.26,0.154-4.369l-25.746-14.452c-1.893-1.062-3.063-3.062-3.063-5.232v-49c0-1.736,0.752-3.387,2.062-4.526
		c1.311-1.14,3.054-1.658,4.769-1.416l63.841,8.922c0.196-0.034,0.278-0.106,0.31-0.174c-0.028-0.021-0.066-0.045-0.117-0.073
		l-67.797-37.998c-2.253-1.264-3.432-3.815-2.967-6.324V262.1c0-5.128-4.172-9.3-9.3-9.3c-5.128,0-9.3,4.172-9.3,9.3v29.3
		c0,2.171-1.173,4.173-3.066,5.234l-67.8,38c-0.049,0.027-0.086,0.052-0.114,0.071c0.031,0.067,0.113,0.14,0.309,0.174l63.841-8.922
		c1.721-0.241,3.459,0.277,4.769,1.416c1.31,1.14,2.062,2.79,2.062,4.526v49c0,2.17-1.171,4.17-3.063,5.232L211.923,400.594z
		 M289.204,401.228c0.011,0.006,0.021,0.012,0.032,0.018L289.204,401.228z M210.816,401.216l-0.029,0.017
		C210.796,401.227,210.806,401.221,210.816,401.216z M330.301,334.766L330.301,334.766L330.301,334.766z M339.45,225.8
		c-3.313,0-6-2.687-6-6v-77.3c0-3.313,2.687-6,6-6s6,2.687,6,6v77.3C345.45,223.113,342.764,225.8,339.45,225.8z M309.051,225.8
		c-3.313,0-6-2.687-6-6v-77.3c0-3.313,2.687-6,6-6s6,2.687,6,6v77.3C315.051,223.113,312.364,225.8,309.051,225.8z M249.949,225.8
		c-3.314,0-6-2.687-6-6v-27c0-3.313,2.686-6,6-6s6,2.687,6,6v27C255.949,223.113,253.263,225.8,249.949,225.8z M191.749,224.2
		c-3.313,0-6-2.687-6-6v-77.4c0-3.313,2.687-6,6-6c3.314,0,6,2.687,6,6v77.4C197.749,221.514,195.063,224.2,191.749,224.2z
		 M160.55,224.2c-3.313,0-6-2.687-6-6v-77.4c0-3.313,2.687-6,6-6c3.313,0,6,2.687,6,6v77.4
		C166.55,221.514,163.863,224.2,160.55,224.2z M249.949,173.8c-3.314,0-6-2.687-6-6v-27c0-3.313,2.686-6,6-6s6,2.687,6,6v27
		C255.949,171.113,253.263,173.8,249.949,173.8z M249.949,121.8c-3.314,0-6-2.687-6-6v-27c0-3.313,2.686-6,6-6s6,2.687,6,6v27
		C255.949,119.113,253.263,121.8,249.949,121.8z"/>
</g>
</svg>
