<?xml version="1.0" encoding="iso-8859-1"?>
<!-- Generator: Adobe Illustrator 29.6.1, SVG Export Plug-In . SVG Version: 9.03 Build 0)  -->
<svg version="1.1" id="Layer_1" xmlns="http://www.w3.org/2000/svg" xmlns:xlink="http://www.w3.org/1999/xlink" x="0px" y="0px"
	 viewBox="0 0 500 500" style="enable-background:new 0 0 500 500;" xml:space="preserve">
<g>
	<g>
		<path style="fill:#FFFFFF;" d="M250,408.5c-3.313,0-6-2.687-6-6v-55c0-3.313,2.687-6,6-6s6,2.687,6,6v55
			C256,405.813,253.313,408.5,250,408.5z M364.5,388.5h-71.109c-3.313,0-6-2.687-6-6v-63c0-3.313,2.687-6,6-6s6,2.687,6,6v57H364.5
			c3.313,0,6,2.687,6,6S367.813,388.5,364.5,388.5z M208.629,388.5h-73.13c-3.314,0-6-2.687-6-6s2.686-6,6-6h67.13v-57
			c0-3.313,2.687-6,6-6s6,2.687,6,6v63C214.629,385.813,211.942,388.5,208.629,388.5z"/>
	</g>
	<g>
		<path style="fill:#FFFFFF;" d="M385,408.5c-14.337,0-26-11.663-26-26s11.663-26,26-26s26,11.663,26,26S399.337,408.5,385,408.5z
			 M385,368.5c-7.72,0-14,6.28-14,14s6.28,14,14,14s14-6.28,14-14S392.72,368.5,385,368.5z"/>
	</g>
	<g>
		<path style="fill:#FFFFFF;" d="M115,408.5c-14.336,0-26-11.663-26-26s11.664-26,26-26s26,11.663,26,26S129.336,408.5,115,408.5z
			 M115,368.5c-7.72,0-14,6.28-14,14s6.28,14,14,14s14-6.28,14-14S122.72,368.5,115,368.5z"/>
	</g>
	<g>
		<path style="fill:#FFFFFF;" d="M250,448.5c-14.336,0-26-11.663-26-26s11.664-26,26-26c14.337,0,26,11.663,26,26
			S264.337,448.5,250,448.5z M250,408.5c-7.72,0-14,6.28-14,14s6.28,14,14,14s14-6.28,14-14S257.72,408.5,250,408.5z"/>
	</g>
	<g>
		<path style="fill:#FFFFFF;" d="M234.998,228.501c-2.589,0-4.978-1.688-5.75-4.297l-3.171-10.705h-22.151l-3.171,10.705
			c-0.942,3.177-4.279,4.987-7.458,4.048c-3.177-0.941-4.99-4.28-4.048-7.458l13.333-45c0.755-2.548,3.096-4.295,5.753-4.295h13.334
			c2.657,0,4.998,1.748,5.753,4.295l13.333,45c0.941,3.177-0.871,6.516-4.048,7.458
			C236.136,228.421,235.562,228.501,234.998,228.501z M207.48,201.5h15.04l-5.333-18h-4.374L207.48,201.5z M300,228.5
			c-3.313,0-6-2.687-6-6v-45c0-3.313,2.687-6,6-6s6,2.687,6,6v45C306,225.813,303.313,228.5,300,228.5z M250,228.5
			c-3.313,0-6-2.687-6-6v-45c0-3.313,2.687-6,6-6h15c11.579,0,21,9.42,21,21s-9.421,21-21,21h-9v9
			C256,225.813,253.313,228.5,250,228.5z M256,201.5h9c4.963,0,9-4.038,9-9s-4.037-9-9-9h-9V201.5z"/>
	</g>
	<g>
		<path style="fill:#FFFFFF;" d="M251.19,294.433c-6.019,0-12.078-0.594-18.115-1.794c-24.079-4.788-44.851-18.668-58.489-39.081
			c-10.133-15.164-15.489-32.82-15.489-51.058c0.006-50.669,41.232-91.896,91.901-91.902l0,0c24.547,0,47.625,9.559,64.983,26.916
			s26.918,40.435,26.918,64.982c0,6.008-0.594,12.042-1.767,17.934c-4.787,24.075-18.664,44.846-39.074,58.484
			C286.768,289.133,269.176,294.433,251.19,294.433z M251.001,122.402c-44.162,0.005-80.094,35.937-80.099,80.099
			c0,15.895,4.668,31.283,13.5,44.5c11.887,17.791,29.99,29.888,50.977,34.062c20.982,4.173,42.336-0.076,60.124-11.963
			c17.789-11.887,29.884-29.989,34.057-50.973c1.021-5.136,1.54-10.395,1.54-15.631c-0.001-21.395-8.333-41.508-23.461-56.636
			C292.51,130.733,272.394,122.402,251.001,122.402L251.001,122.402z"/>
	</g>
	<g>
		<path style="fill:#FFFFFF;" d="M274.029,353.5c-0.004,0-0.007,0-0.01,0h-46.021c-0.003,0-0.007,0-0.01,0
			c-3.34,0-6.601-0.646-9.691-1.922c-3.094-1.278-5.861-3.122-8.229-5.48c-2.37-2.362-4.222-5.125-5.506-8.215
			c-1.283-3.088-1.934-6.35-1.934-9.693v-4.58c-11.717-4.66-22.627-10.955-32.528-18.767l-4.016,2.314
			c-5.872,3.382-12.705,4.281-19.249,2.528c-6.54-1.742-12.013-5.932-15.407-11.793l-23.021-39.756
			c-5.171-8.906-4.449-19.939,1.845-28.101c2.042-2.648,4.547-4.838,7.446-6.507l3.988-2.297c-1.798-12.449-1.798-25.015,0-37.464
			l-3.99-2.298c-2.897-1.664-5.406-3.855-7.448-6.51c-2.041-2.65-3.516-5.634-4.384-8.866c-1.73-6.448-0.802-13.458,2.546-19.233
			l23.008-39.752c3.396-5.862,8.869-10.05,15.411-11.795c6.54-1.75,13.375-0.851,19.244,2.527l4.019,2.317
			c9.9-7.811,20.811-14.105,32.529-18.767v-4.579c0.003-6.77,2.644-13.128,7.436-17.907c4.797-4.776,11.163-7.404,17.926-7.404
			c0.002,0,0.005,0,0.007,0h46.013c0.003,0,0.007,0,0.01,0c3.341,0,6.603,0.646,9.691,1.921c3.093,1.278,5.86,3.121,8.229,5.481
			c4.728,4.71,7.438,11.237,7.438,17.909v4.547c11.718,4.661,22.628,10.956,32.529,18.768l4.015-2.315
			c5.873-3.381,12.709-4.277,19.25-2.528c6.54,1.746,12.013,5.934,15.406,11.792l23.013,39.775
			c5.162,8.904,4.44,19.934-1.841,28.095c-2.044,2.655-4.553,4.847-7.457,6.514l-3.981,2.294c1.798,12.449,1.798,25.015,0,37.464
			l3.99,2.298c2.896,1.666,5.399,3.852,7.442,6.499c6.285,8.155,7.016,19.179,1.864,28.088l-23.012,39.76
			c-3.399,5.86-8.871,10.047-15.411,11.795c-6.541,1.747-13.376,0.851-19.244-2.528l-4.019-2.316
			c-9.901,7.812-20.812,14.106-32.529,18.767v4.611c0,6.673-2.711,13.2-7.438,17.908C287.157,350.871,280.793,353.5,274.029,353.5z
			 M227.996,341.5h46.026c0.002,0,0.004,0,0.005,0c3.57,0,6.927-1.387,9.455-3.904c2.483-2.473,3.907-5.901,3.907-9.406v-8.752
			c0-2.528,1.585-4.785,3.963-5.644c13.217-4.771,25.367-11.78,36.115-20.834c1.932-1.627,4.675-1.871,6.861-0.609l7.598,4.379
			c3.095,1.78,6.7,2.258,10.157,1.333c3.449-0.921,6.334-3.129,8.125-6.217l23.008-39.753c2.705-4.678,2.321-10.469-0.979-14.751
			c-1.075-1.394-2.397-2.548-3.925-3.426c-0.002-0.001-0.003-0.002-0.005-0.002l-7.575-4.364c-2.189-1.261-3.354-3.759-2.913-6.246
			c2.448-13.814,2.448-27.823,0-41.637c-0.44-2.487,0.724-4.985,2.913-6.246l7.575-4.364c1.535-0.881,2.854-2.034,3.929-3.43
			c3.3-4.288,3.68-10.082,0.967-14.762l-23.014-39.776c-1.787-3.084-4.671-5.292-8.118-6.212c-3.456-0.925-7.064-0.451-10.164,1.333
			l-7.593,4.377c-2.188,1.261-4.931,1.018-6.863-0.609c-10.747-9.055-22.897-16.064-36.114-20.835
			c-2.378-0.858-3.963-3.115-3.963-5.644v-8.688c0-3.504-1.425-6.934-3.908-9.408c-1.248-1.244-2.708-2.217-4.339-2.89
			c-1.628-0.672-3.35-1.013-5.113-1.013c-0.002,0-0.004,0-0.006,0H227.99c-0.001,0-0.003,0-0.004,0
			c-3.571,0-6.929,1.387-9.458,3.905c-2.516,2.509-3.905,5.852-3.906,9.409v8.717c0,2.528-1.585,4.785-3.963,5.644
			c-13.217,4.771-25.368,11.781-36.114,20.834c-1.931,1.626-4.674,1.871-6.862,0.609l-7.598-4.38
			c-3.094-1.781-6.702-2.254-10.157-1.332c-3.45,0.921-6.334,3.128-8.123,6.216l-23.009,39.754
			c-1.761,3.037-2.249,6.719-1.34,10.106c0.456,1.697,1.231,3.265,2.304,4.658c1.075,1.397,2.394,2.549,3.921,3.426l7.583,4.368
			c2.189,1.261,3.354,3.759,2.913,6.246c-2.448,13.815-2.448,27.824,0,41.639c0.441,2.488-0.724,4.985-2.913,6.246l-7.575,4.363
			c-1.531,0.881-2.854,2.037-3.931,3.434c-3.304,4.285-3.683,10.076-0.967,14.755l23.023,39.762
			c1.788,3.088,4.671,5.294,8.118,6.213c3.457,0.927,7.065,0.451,10.164-1.333l7.596-4.377c2.187-1.264,4.93-1.019,6.862,0.609
			c10.747,9.054,22.897,16.063,36.113,20.834c2.378,0.858,3.963,3.115,3.963,5.644v8.721c0,1.755,0.342,3.468,1.016,5.089
			c0.675,1.625,1.648,3.077,2.894,4.318c1.248,1.244,2.708,2.217,4.339,2.891c1.627,0.672,3.349,1.013,5.113,1.013
			C227.992,341.5,227.994,341.5,227.996,341.5z"/>
	</g>
</g>
</svg>
