<?xml version="1.0" encoding="utf-8"?>
<!-- Generator: Adobe Illustrator 27.5.0, SVG Export Plug-In . SVG Version: 6.00 Build 0)  -->
<svg version="1.1" id="Layer_1" xmlns="http://www.w3.org/2000/svg" xmlns:xlink="http://www.w3.org/1999/xlink" x="0px" y="0px"
	 viewBox="0 0 500 500" style="enable-background:new 0 0 500 500;" xml:space="preserve">
<style type="text/css">
	.st0{fill:#FFFFFF;}
	.st1{fill:none;stroke:#FFFFFF;stroke-width:12;stroke-linecap:round;stroke-linejoin:round;}
</style>
<g>
	<g>
		<path class="st0" d="M250,416.2c-91.6,0-166.2-74.6-166.2-166.2c0-21.6,4.1-42.5,12-62.3c12.3-30.4,33.1-56.3,60.2-74.8
			c27.7-19,60.2-29.1,94-29.1c91.6,0,166.2,74.6,166.2,166.2S341.6,416.2,250,416.2z M250,95.8c-63.2,0-119.3,37.9-143,96.5l0,0
			C99.6,210.6,95.8,230,95.8,250c0,85,69.2,154.2,154.2,154.2S404.2,335,404.2,250S335,95.8,250,95.8z M101.4,190L101.4,190
			L101.4,190z"/>
		<path class="st0" d="M211.6,325.8c-1.5,0-3-0.6-4.2-1.7c-0.3-0.3-29.2-28.3-57.5-56.5c-2.3-2.3-2.4-6.1,0-8.5
			c2.3-2.3,6.1-2.4,8.5,0c22,21.9,44.3,43.7,53.3,52.4c19-17.7,98.2-91.9,136-131.4l0.1-0.1l0.6-0.6c2.3-2.3,6.1-2.3,8.5,0
			c2.3,2.3,2.3,6.1,0,8.5l-0.6,0.6c-43.1,45.1-139.6,134.8-140.6,135.7C214.5,325.3,213.1,325.8,211.6,325.8z"/>
	</g>
	<path class="st1" d="M0,500"/>
</g>
</svg>
