<?xml version="1.0" encoding="utf-8"?>
<!-- Generator: Adobe Illustrator 27.5.0, SVG Export Plug-In . SVG Version: 6.00 Build 0)  -->
<svg version="1.1" id="Layer_1" xmlns="http://www.w3.org/2000/svg" xmlns:xlink="http://www.w3.org/1999/xlink" x="0px" y="0px"
	 viewBox="0 0 500 500" style="enable-background:new 0 0 500 500;" xml:space="preserve">
<style type="text/css">
	.st0{clip-path:url(#SVGID_00000157988243281911927920000017863769638752885144_);}
	.st1{fill:#FFFFFF;}
</style>
<g>
	<g>
		<g>
			<g>
				<defs>
					<rect id="SVGID_1_" width="500" height="500"/>
				</defs>
				<clipPath id="SVGID_00000032624153426272488460000017474662882318466187_">
					<use xlink:href="#SVGID_1_"  style="overflow:visible;"/>
				</clipPath>
				<g style="clip-path:url(#SVGID_00000032624153426272488460000017474662882318466187_);">
					<g>
						<path class="st1" d="M458.7,468.2c-1.5,0-3.1-0.6-4.2-1.8L283.9,296.3c-2.3-2.3-2.4-6.1,0-8.5c2.3-2.3,6.1-2.4,8.5,0
							L462.9,458c2.3,2.3,2.4,6.1,0,8.5C461.8,467.6,460.2,468.2,458.7,468.2z"/>
					</g>
					<g>
						<path class="st1" d="M284,373.8c-3.3,0-6-2.7-6-6v-79.3c0-3.3,2.7-6,6-6h79.5c3.3,0,6,2.7,6,6s-2.7,6-6,6H290v73.3
							C290,371.1,287.3,373.8,284,373.8z"/>
					</g>
					<g>
						<path class="st1" d="M211.9,213.9c-1.5,0-3.1-0.6-4.2-1.8L37.1,42c-2.3-2.3-2.4-6.1,0-8.5c2.3-2.3,6.1-2.4,8.5,0l170.6,170.1
							c2.3,2.3,2.4,6.1,0,8.5C215,213.3,213.4,213.9,211.9,213.9z"/>
					</g>
					<g>
						<path class="st1" d="M216,217.5h-79.5c-3.3,0-6-2.7-6-6s2.7-6,6-6H210v-73.3c0-3.3,2.7-6,6-6s6,2.7,6,6v79.3
							C222,214.8,219.3,217.5,216,217.5z"/>
					</g>
				</g>
			</g>
		</g>
	</g>
</g>
</svg>
