<?xml version="1.0" encoding="utf-8"?>
<!-- Generator: Adobe Illustrator 27.5.0, SVG Export Plug-In . SVG Version: 6.00 Build 0)  -->
<svg version="1.1" id="Layer_1" xmlns="http://www.w3.org/2000/svg" xmlns:xlink="http://www.w3.org/1999/xlink" x="0px" y="0px"
	 viewBox="0 0 500 500" style="enable-background:new 0 0 500 500;" xml:space="preserve">
<style type="text/css">
	.st0{clip-path:url(#SVGID_00000148648537153380299160000001823191436936259733_);}
	.st1{fill:#FFFFFF;}
	.st2{clip-path:url(#SVGID_00000134928168517804566920000005390940779577136809_);}
</style>
<g>
	<g>
		<g>
			<g>
				<defs>
					<rect id="SVGID_1_" width="500" height="500"/>
				</defs>
				<clipPath id="SVGID_00000134931985935172405240000018000825143421162120_">
					<use xlink:href="#SVGID_1_"  style="overflow:visible;"/>
				</clipPath>
				<g style="clip-path:url(#SVGID_00000134931985935172405240000018000825143421162120_);">
					<g>
						<path class="st1" d="M364.1,334.9c-22.8,0-44.2-8.9-60.3-25L190.7,197.6c-13.7-13.7-32.6-21.5-51.8-21.5
							c-40.5,0-73.4,32.9-73.4,73.4s32.9,73.4,73.4,73.4c19.6,0,38-7.6,51.9-21.4l16.3-16.2c2.4-2.3,6.1-2.3,8.5,0
							c2.3,2.4,2.3,6.1,0,8.5L199.1,310c-16.1,16.1-37.5,24.9-60.3,24.9c-47.1,0-85.4-38.3-85.4-85.4s38.3-85.4,85.4-85.4
							c0.1,0,0.3,0,0.4,0c22.2,0,44.1,9.1,60,25l113.1,112.4c13.8,13.8,32.3,21.5,51.9,21.5c40.5,0,73.4-32.9,73.4-73.4
							s-32.9-73.4-73.4-73.4c-0.1,0-0.2,0-0.3,0c-19.1,0-37.9,7.8-51.5,21.4l-21,20.9c-2.3,2.3-6.1,2.3-8.5,0
							c-2.3-2.3-2.3-6.1,0-8.5l21-20.9c15.9-15.9,37.7-24.9,60-24.9c0.1,0,0.3,0,0.4,0c47.1,0,85.4,38.3,85.4,85.4
							S411.2,334.9,364.1,334.9z"/>
					</g>
					<g>
						<g>
							<g>
								<g>
									<defs>
										<rect id="SVGID_00000085954906089260947950000018338594809728463550_" width="500" height="500"/>
									</defs>
									<clipPath id="SVGID_00000173119374607188248140000018189466088304193193_">
										<use xlink:href="#SVGID_00000085954906089260947950000018338594809728463550_"  style="overflow:visible;"/>
									</clipPath>
									<g style="clip-path:url(#SVGID_00000173119374607188248140000018189466088304193193_);">
										<g>
											<path class="st1" d="M216,343.6c-3.3,0-6-2.7-6-6v-47h-46.9c-3.3,0-6-2.7-6-6s2.7-6,6-6H216c3.3,0,6,2.7,6,6v53
												C222,340.9,219.3,343.6,216,343.6z"/>
										</g>
									</g>
								</g>
							</g>
						</g>
					</g>
				</g>
			</g>
		</g>
	</g>
</g>
</svg>
