<?xml version="1.0" encoding="utf-8"?>
<!-- Generator: Adobe Illustrator 27.5.0, SVG Export Plug-In . SVG Version: 6.00 Build 0)  -->
<svg version="1.1" id="Layer_1" xmlns="http://www.w3.org/2000/svg" xmlns:xlink="http://www.w3.org/1999/xlink" x="0px" y="0px"
	 viewBox="0 0 500 500" style="enable-background:new 0 0 500 500;" xml:space="preserve">
<style type="text/css">
	.st0{clip-path:url(#SVGID_00000088833782614255954350000015880177630623794623_);}
	.st1{fill:#FFFFFF;}
</style>
<g>
	<g>
		<g>
			<g>
				<defs>
					<rect id="SVGID_1_" width="500" height="500"/>
				</defs>
				<clipPath id="SVGID_00000070078756332627724020000001612063784644839586_">
					<use xlink:href="#SVGID_1_"  style="overflow:visible;"/>
				</clipPath>
				<g style="clip-path:url(#SVGID_00000070078756332627724020000001612063784644839586_);">
					<g>
						<path class="st1" d="M79,343.9c-3.3,0-6-2.7-6-6s2.7-6,6-6l351.8-0.4l0,0c3.3,0,6,2.7,6,6s-2.7,6-6,6L79,343.9L79,343.9z"/>
					</g>
					<g>
						<path class="st1" d="M123.6,400.4c-1.5,0-3.1-0.6-4.2-1.8l-56.1-56.1c-2.3-2.3-2.3-6.1,0-8.5l56.2-56.2c2.3-2.3,6.1-2.3,8.5,0
							c2.3,2.3,2.3,6.1,0,8.5l-52,52l51.9,51.9c2.3,2.3,2.3,6.1,0,8.5C126.7,399.8,125.1,400.4,123.6,400.4z"/>
					</g>
					<g>
						<path class="st1" d="M69.2,168.5c-3.3,0-6-2.7-6-6s2.7-6,6-6l351.8-0.4l0,0c3.3,0,6,2.7,6,6s-2.7,6-6,6L69.2,168.5L69.2,168.5
							z"/>
					</g>
					<g>
						<path class="st1" d="M376.3,223.9c-1.5,0-3.1-0.6-4.2-1.8c-2.3-2.3-2.3-6.1,0-8.5l52-52l-51.9-51.9c-2.3-2.3-2.3-6.1,0-8.5
							c2.3-2.3,6.1-2.3,8.5,0l56.1,56.1c2.3,2.3,2.3,6.1,0,8.5L380.6,222C379.4,223.3,377.8,223.9,376.3,223.9z"/>
					</g>
				</g>
			</g>
		</g>
	</g>
</g>
</svg>
