<?xml version="1.0" encoding="utf-8"?>
<!-- Generator: Adobe Illustrator 27.5.0, SVG Export Plug-In . SVG Version: 6.00 Build 0)  -->
<svg version="1.1" id="Layer_1" xmlns="http://www.w3.org/2000/svg" xmlns:xlink="http://www.w3.org/1999/xlink" x="0px" y="0px"
	 viewBox="0 0 500 500" style="enable-background:new 0 0 500 500;" xml:space="preserve">
<style type="text/css">
	.st0{fill:#FFFFFF;}
</style>
<g>
	<g>
		<path class="st0" d="M250,436c-102.6,0-186-83.4-186-186S147.4,64,250,64c54.8,0,106.5,24,142,65.9c2.1,2.5,1.8,6.3-0.7,8.5
			c-2.5,2.1-6.3,1.8-8.5-0.7C349.7,98.5,301.2,76,250,76c-95.9,0-174,78.1-174,174s78.1,174,174,174s174-78.1,174-174
			c0-15.4-2-30.5-5.9-45c-0.9-3.2,1-6.5,4.2-7.4s6.5,1,7.4,4.2c4.2,15.5,6.3,31.7,6.3,48.2C436,352.6,352.6,436,250,436z"/>
	</g>
	<g>
		<path class="st0" d="M396.5,150.2h-53c-3.3,0-6-2.7-6-6s2.7-6,6-6h47V91.4c0-3.3,2.7-6,6-6s6,2.7,6,6v52.8
			C402.5,147.5,399.8,150.2,396.5,150.2z"/>
	</g>
</g>
</svg>
