<?xml version="1.0" encoding="utf-8"?>
<!-- Generator: Adobe Illustrator 27.5.0, SVG Export Plug-In . SVG Version: 6.00 Build 0)  -->
<svg version="1.1" id="Layer_1" xmlns="http://www.w3.org/2000/svg" xmlns:xlink="http://www.w3.org/1999/xlink" x="0px" y="0px"
	 viewBox="0 0 500 500" style="enable-background:new 0 0 500 500;" xml:space="preserve">
<style type="text/css">
	.st0{clip-path:url(#SVGID_00000018958735658652814330000000433647240580799126_);}
	.st1{fill:#FFFFFF;}
	.st2{display:none;fill:none;stroke:#FFFFFF;stroke-width:12;stroke-linecap:round;stroke-linejoin:round;}
	.st3{fill:none;stroke:#FFFFFF;stroke-width:12;stroke-linecap:round;stroke-linejoin:round;}
</style>
<g>
	<g>
		<g>
			<g>
				<defs>
					<rect id="SVGID_1_" width="500" height="500"/>
				</defs>
				<clipPath id="SVGID_00000021108191252098957550000010736626705856391561_">
					<use xlink:href="#SVGID_1_"  style="overflow:visible;"/>
				</clipPath>
				<g style="clip-path:url(#SVGID_00000021108191252098957550000010736626705856391561_);">
					<g>
						<path class="st1" d="M250,416c-47,0-91.9-20-123.4-54.9c-2.2-2.5-2-6.3,0.4-8.5c2.5-2.2,6.3-2,8.5,0.4
							c29.2,32.4,70.9,51,114.5,51c84.9,0,154-69.1,154-154c0.1-21.2-4.5-42.9-13.3-62.7c-1.3-3,0-6.6,3-7.9c3-1.3,6.6,0,7.9,3
							c9.5,21.3,14.4,44.7,14.3,67.6C416,341.5,341.5,416,250,416z"/>
					</g>
					<g>
						<path class="st1" d="M121.5,401.5c-3.3,0-6-2.7-6-6V347c0-3.3,2.7-6,6-6H168c3.3,0,6,2.7,6,6s-2.7,6-6,6h-40.5v42.5
							C127.5,398.8,124.8,401.5,121.5,401.5z"/>
					</g>
					<g>
						<path class="st1" d="M103.8,321.1c-2.3,0-4.5-1.3-5.5-3.6C88.8,296.1,84,273.4,84,250c0-91.5,74.5-166,166-166
							c47,0,91.9,20,123.4,54.9c2.2,2.5,2,6.3-0.4,8.5c-2.5,2.2-6.3,2-8.5-0.4c-29.2-32.4-70.9-51-114.5-51
							c-84.9,0-154,69.1-154,154c0,21.7,4.5,42.8,13.3,62.7c1.3,3,0,6.6-3,7.9C105.4,320.9,104.6,321.1,103.8,321.1z"/>
					</g>
					<g>
						<path class="st1" d="M379,160.2h-46.7c-3.3,0-6-2.7-6-6s2.7-6,6-6H373v-41.9c0-3.3,2.7-6,6-6s6,2.7,6,6v47.9
							C385,157.5,382.3,160.2,379,160.2z"/>
					</g>
					<g>
						<g>
							<g>
								<path class="st2" d="M0,500"/>
							</g>
						</g>
						<g>
							<g>
								<path class="st3" d="M0,500"/>
							</g>
						</g>
						<g>
							<g>
								<path class="st3" d="M0,500"/>
							</g>
						</g>
						<g>
							<g>
								<path class="st3" d="M0,500"/>
							</g>
						</g>
						<g>
							<g>
								<path class="st3" d="M0,500"/>
							</g>
						</g>
						<g>
							<g>
								<path class="st3" d="M0,500"/>
							</g>
						</g>
						<g>
							<g>
								<path class="st3" d="M0,500"/>
							</g>
						</g>
						<g>
							<g>
								<path class="st3" d="M0,500"/>
							</g>
						</g>
						<g>
							<g>
								<path class="st3" d="M0,500"/>
							</g>
						</g>
						<g>
							<g>
								<path class="st3" d="M0,500"/>
							</g>
						</g>
						<g>
							<g>
								<path class="st3" d="M0,500"/>
							</g>
						</g>
						<g>
							<g>
								<path class="st3" d="M0,500"/>
							</g>
						</g>
					</g>
				</g>
			</g>
		</g>
	</g>
</g>
</svg>
