<?xml version="1.0" encoding="utf-8"?>
<!-- Generator: Adobe Illustrator 27.5.0, SVG Export Plug-In . SVG Version: 6.00 Build 0)  -->
<svg version="1.1" id="Layer_1" xmlns="http://www.w3.org/2000/svg" xmlns:xlink="http://www.w3.org/1999/xlink" x="0px" y="0px"
	 viewBox="0 0 500 500" style="enable-background:new 0 0 500 500;" xml:space="preserve">
<style type="text/css">
	.st0{clip-path:url(#SVGID_00000165929403768135816600000015889469317306702262_);}
	.st1{fill:#FFFFFF;}
</style>
<g>
	<g>
		<g>
			<g>
				<defs>
					<rect id="SVGID_1_" width="500" height="500"/>
				</defs>
				<clipPath id="SVGID_00000177469310689950046120000002945352529137075075_">
					<use xlink:href="#SVGID_1_"  style="overflow:visible;"/>
				</clipPath>
				<g style="clip-path:url(#SVGID_00000177469310689950046120000002945352529137075075_);">
					<g>
						<path class="st1" d="M289.1,254.4c-3.3,0-6-2.7-6-6s2.7-6,6-6l146.9-0.2l0,0c3.3,0,6,2.7,6,6s-2.7,6-6,6L289.1,254.4
							L289.1,254.4z"/>
					</g>
					<g>
						<path class="st1" d="M337.7,310.8c-1.5,0-3.1-0.6-4.2-1.8l-56.1-56.1c-1.1-1.1-1.8-2.7-1.8-4.2s0.6-3.1,1.8-4.2l56.2-56.2
							c2.3-2.3,6.1-2.3,8.5,0c2.3,2.3,2.3,6.1,0,8.5l-52,52l51.9,51.9c2.3,2.3,2.3,6.1,0,8.5C340.8,310.2,339.2,310.8,337.7,310.8z"
							/>
					</g>
					<g>
						<path class="st1" d="M64,250c-3.3,0-6-2.7-6-6s2.7-6,6-6l146.9-0.2l0,0c3.3,0,6,2.7,6,6s-2.7,6-6,6L64,250L64,250z"/>
					</g>
					<g>
						<path class="st1" d="M162.2,305.7c-1.5,0-3.1-0.6-4.2-1.8c-2.3-2.3-2.3-6.1,0-8.5l52-52l-51.9-51.9c-2.3-2.3-2.3-6.1,0-8.5
							c2.3-2.3,6.1-2.3,8.5,0l56.1,56.1c2.3,2.3,2.3,6.1,0,8.5l-56.2,56.2C165.3,305.1,163.7,305.7,162.2,305.7z"/>
					</g>
				</g>
			</g>
		</g>
	</g>
</g>
</svg>
