<?xml version="1.0" encoding="utf-8"?>
<!-- Generator: Adobe Illustrator 27.5.0, SVG Export Plug-In . SVG Version: 6.00 Build 0)  -->
<svg version="1.1" id="Layer_1" xmlns="http://www.w3.org/2000/svg" xmlns:xlink="http://www.w3.org/1999/xlink" x="0px" y="0px"
	 viewBox="0 0 500 500" style="enable-background:new 0 0 500 500;" xml:space="preserve">
<style type="text/css">
	.st0{clip-path:url(#SVGID_00000008125470821420770110000007673860006206590381_);}
	.st1{fill:#FFFFFF;}
	.st2{fill:none;stroke:#FFFFFF;stroke-width:22;stroke-linecap:round;stroke-linejoin:round;}
</style>
<g>
	<g>
		<g>
			<g>
				<defs>
					<rect id="SVGID_1_" width="500" height="500"/>
				</defs>
				<clipPath id="SVGID_00000172420023011328922020000014598081750832888752_">
					<use xlink:href="#SVGID_1_"  style="overflow:visible;"/>
				</clipPath>
				<g style="clip-path:url(#SVGID_00000172420023011328922020000014598081750832888752_);">
					<g>
						<path class="st1" d="M322.5,416.1c-3.3,0-6-2.7-6-6V367c0-3.3,2.7-6,6-6s6,2.7,6,6v43.1C328.5,413.4,325.8,416.1,322.5,416.1z
							 M274.2,416.1c-3.3,0-6-2.7-6-6V367c0-3.3,2.7-6,6-6s6,2.7,6,6v43.1C280.2,413.4,277.5,416.1,274.2,416.1z M225.8,416.1
							c-3.3,0-6-2.7-6-6V367c0-3.3,2.7-6,6-6s6,2.7,6,6v43.1C231.8,413.4,229.1,416.1,225.8,416.1z M177.4,416.1c-3.3,0-6-2.7-6-6
							V367c0-3.3,2.7-6,6-6s6,2.7,6,6v43.1C183.4,413.4,180.7,416.1,177.4,416.1z M411.3,328.6h-43.1c-3.3,0-6-2.7-6-6s2.7-6,6-6
							h43.1c3.3,0,6,2.7,6,6S414.6,328.6,411.3,328.6z M132.4,328.6H89.3c-3.3,0-6-2.7-6-6s2.7-6,6-6h43.1c3.3,0,6,2.7,6,6
							S135.7,328.6,132.4,328.6z M411.3,280.2h-43.1c-3.3,0-6-2.7-6-6s2.7-6,6-6h43.1c3.3,0,6,2.7,6,6S414.6,280.2,411.3,280.2z
							 M132.4,280.2H89.3c-3.3,0-6-2.7-6-6s2.7-6,6-6h43.1c3.3,0,6,2.7,6,6S135.7,280.2,132.4,280.2z M411.3,231.8h-43.1
							c-3.3,0-6-2.7-6-6s2.7-6,6-6h43.1c3.3,0,6,2.7,6,6S414.6,231.8,411.3,231.8z M132.4,231.8H89.3c-3.3,0-6-2.7-6-6s2.7-6,6-6
							h43.1c3.3,0,6,2.7,6,6S135.7,231.8,132.4,231.8z M411.3,183.4h-43.1c-3.3,0-6-2.7-6-6s2.7-6,6-6h43.1c3.3,0,6,2.7,6,6
							S414.6,183.4,411.3,183.4z M132.4,183.4H89.3c-3.3,0-6-2.7-6-6s2.7-6,6-6h43.1c3.3,0,6,2.7,6,6S135.7,183.4,132.4,183.4z
							 M322.5,139c-3.3,0-6-2.7-6-6V89.9c0-3.3,2.7-6,6-6s6,2.7,6,6V133C328.5,136.3,325.8,139,322.5,139z M274.2,139
							c-3.3,0-6-2.7-6-6V89.9c0-3.3,2.7-6,6-6s6,2.7,6,6V133C280.2,136.3,277.5,139,274.2,139z M225.8,139c-3.3,0-6-2.7-6-6V89.9
							c0-3.3,2.7-6,6-6s6,2.7,6,6V133C231.8,136.3,229.1,139,225.8,139z M177.4,139c-3.3,0-6-2.7-6-6V89.9c0-3.3,2.7-6,6-6
							s6,2.7,6,6V133C183.4,136.3,180.7,139,177.4,139z"/>
					</g>
					<g>
						<path class="st1" d="M323.3,373.2c-3.3,0-6-2.7-6-6l-0.7-83h-33.4c-1.2,0-2.3-0.3-3.3-1l-63.2-41.8c-2.8-1.8-3.5-5.6-1.7-8.3
							s5.5-3.5,8.3-1.7l61.7,40.8h37.6c3.3,0,6,2.7,6,6l0.7,89C329.3,370.5,326.7,373.2,323.3,373.2L323.3,373.2z"/>
					</g>
					<g>
						<path class="st1" d="M343.7,373H156.2c-16.2,0-29.3-13.1-29.3-29.3V156.2c0-16.2,13.1-29.3,29.3-29.3h187.5
							c16.2,0,29.3,13.1,29.3,29.3v187.5C373,359.9,359.9,373,343.7,373z M156.2,138.9c-9.5,0-17.3,7.8-17.3,17.3v187.5
							c0,9.5,7.8,17.3,17.3,17.3h187.5c9.5,0,17.3-7.8,17.3-17.3V156.2c0-9.5-7.8-17.3-17.3-17.3H156.2z"/>
					</g>
					<g>
						<path class="st1" d="M251.7,322.6c-1.1,0-2.3-0.3-3.3-1l-61.7-40.8H133c-3.3,0-6-2.7-6-6s2.7-6,6-6h55.5c1.2,0,2.3,0.3,3.3,1
							l63.2,41.8c2.8,1.8,3.5,5.6,1.7,8.3C255.6,321.7,253.6,322.6,251.7,322.6z M365.1,232.2h-65.5c-3.3,0-6-2.7-6-6v-47.8
							c0-3.3,2.7-6,6-6s6,2.7,6,6v41.8h59.5c3.3,0,6,2.7,6,6S368.4,232.2,365.1,232.2z M209.5,184h-74.8c-3.3,0-6-2.7-6-6s2.7-6,6-6
							h74.8c3.3,0,6,2.7,6,6S212.8,184,209.5,184z"/>
					</g>
					<g>
						<path class="st1" d="M299.8,188.8h-0.4c-6.1,0-11-4.9-11-11s4.9-11,11-11h0.4c6.1,0,11,4.9,11,11S305.9,188.8,299.8,188.8z"/>
					</g>
					<g>
						<path class="st1" d="M221.3,246.3h-0.4c-6.1,0-11-4.9-11-11s4.9-11,11-11h0.4c6.1,0,11,4.9,11,11S227.4,246.3,221.3,246.3z"/>
					</g>
					<g>
						<path class="st1" d="M251.2,327.6h-0.4c-6.1,0-11-4.9-11-11s4.9-11,11-11h0.4c6.1,0,11,4.9,11,11S257.3,327.6,251.2,327.6z"/>
					</g>
					<g>
						<path class="st1" d="M210.1,188.8h-0.4c-6.1,0-11-4.9-11-11s4.9-11,11-11h0.4c6.1,0,11,4.9,11,11S216.2,188.8,210.1,188.8z"/>
					</g>
					<g>
						<path class="st2" d="M0,500"/>
					</g>
				</g>
			</g>
		</g>
	</g>
</g>
</svg>
