<?xml version="1.0" encoding="utf-8"?>
<!-- Generator: Adobe Illustrator 27.5.0, SVG Export Plug-In . SVG Version: 6.00 Build 0)  -->
<svg version="1.1" id="Layer_1" xmlns="http://www.w3.org/2000/svg" xmlns:xlink="http://www.w3.org/1999/xlink" x="0px" y="0px"
	 viewBox="0 0 500 500" style="enable-background:new 0 0 500 500;" xml:space="preserve">
<style type="text/css">
	.st0{display:none;fill:none;}
	.st1{fill:none;}
	.st2{fill:none;stroke:#FFFFFF;stroke-width:12;stroke-linecap:round;stroke-linejoin:round;}
	.st3{fill:#FFFFFF;}
</style>
<g>
	<g>
		<path class="st0" d="M0,370"/>
		<g>
			<g>
				<path class="st0" d="M0,370"/>
			</g>
		</g>
	</g>
	<g>
		<g>
			<path class="st1" d="M0,370"/>
		</g>
	</g>
	<g>
		<g>
			<path class="st1" d="M0,370"/>
		</g>
	</g>
</g>
<g>
	<g>
		<path class="st2" d="M0,500"/>
	</g>
</g>
<g>
	<g>
		<g>
			<path class="st3" d="M295,422c-3.3,0-6-2.7-6-6V248l-54.9-37.2c-1.6-1.1-2.6-3-2.6-5v-46.6c0-3.3,2.7-6,6-6s6,2.7,6,6v43.4
				l54.9,37.2c1.6,1.1,2.6,3,2.6,5V416C301,419.3,298.4,422,295,422z"/>
		</g>
	</g>
	<g>
		<g>
			<path class="st3" d="M206.1,266.3c-1.5,0-3.1-0.1-4.7-0.4c-7.6-1.2-14.2-5.3-18.7-11.5s-6.3-13.8-5-21.4l0,0
				c2.5-15.6,17.3-26.3,32.9-23.7c15.6,2.5,26.3,17.3,23.7,32.9c-1.2,7.6-5.3,14.2-11.5,18.7C217.9,264.5,212.1,266.3,206.1,266.3z
				 M189.6,235L189.6,235c-0.7,4.4,0.3,8.8,2.9,12.4c2.6,3.6,6.5,6,10.9,6.7s8.8-0.3,12.4-2.9c3.6-2.6,6-6.5,6.7-10.9
				c1.5-9.1-4.7-17.7-13.8-19.2C199.7,219.7,191.1,225.9,189.6,235z"/>
		</g>
	</g>
	<g>
		<g>
			<path class="st3" d="M237.6,163c-3.7,0-7.4-0.7-11-2.2c-7.1-2.9-12.6-8.4-15.5-15.5s-2.9-14.9,0-22c2.9-7.1,8.4-12.6,15.5-15.5
				l0,0c14.6-6.1,31.4,0.9,37.5,15.5s-0.9,31.4-15.5,37.5C245,162.3,241.3,163,237.6,163z M231.2,118.9L231.2,118.9
				c-8.5,3.5-12.6,13.3-9,21.8c1.7,4.1,4.9,7.3,9,9s8.7,1.7,12.8,0c8.5-3.5,12.6-13.3,9-21.8C249.5,119.4,239.7,115.3,231.2,118.9z"
				/>
		</g>
	</g>
	<g>
		<g>
			<path class="st3" d="M295.4,210.6c-0.8,0-1.6,0-2.4-0.1c-15.8-1.3-27.5-15.2-26.2-31c0.6-7.6,4.2-14.6,10.1-19.5
				s13.3-7.3,20.9-6.7s14.6,4.2,19.5,10.1c5,5.8,7.3,13.3,6.7,20.9C322.8,199.3,310.2,210.6,295.4,210.6z M295.4,165.2
				c-3.9,0-7.7,1.4-10.8,4c-3.4,2.9-5.5,6.9-5.8,11.4l0,0c-0.8,9.2,6.1,17.3,15.3,18c9.2,0.8,17.3-6.1,18-15.3
				c0.4-4.4-1-8.8-3.9-12.2s-6.9-5.5-11.4-5.8C296.3,165.2,295.9,165.2,295.4,165.2z M272.8,180.1L272.8,180.1L272.8,180.1z"/>
		</g>
	</g>
	<g>
		<g>
			<path class="st3" d="M355.7,425.1H239.5c-4.1,0-7.5-3.4-7.5-7.5v-17.1c0-6.6-5.3-11.9-11.9-11.9h-40.2c-24,0-43.6-19.6-43.6-43.6
				v-32.8c0-3-2.5-5.5-5.5-5.5h-12.5c-6.2,0-12-3-15.5-8c-3.5-5.1-4.4-11.6-2.3-17.4l23.4-64.1c0-9,1.7-64.3,40.1-103.6
				C189,88,224.1,75,268.2,74.9h0.1c39.9,0,71.6,12.4,94.1,36.9c41.6,45.2,39,117.3,37.2,138.4v0.3c-2.2,25-25.1,63.5-34.9,78.8
				c-0.9,1.5-1.5,3.3-1.5,4.9v83.3C363.3,421.7,359.9,425.1,355.7,425.1z M244,413.1h107.3v-78.9c0-3.9,1.2-7.9,3.3-11.3
				c7.3-11.5,31.1-50.5,33.1-73.4v-0.4c1.7-19.8,4.2-87.6-34.1-129.2c-20.1-21.9-48.8-33-85.3-33h-0.1c-40.7,0-72.9,11.8-95.6,35
				c-37.5,38.3-36.8,95.6-36.7,96.2c0,0.7-0.1,1.5-0.4,2.2l-23.8,65.1c-0.8,2.2-0.5,4.5,0.8,6.4s3.4,2.9,5.7,2.9h12.5
				c9.6,0,17.5,7.9,17.5,17.5V345c0,17.4,14.2,31.6,31.6,31.6H220c13.2,0,23.9,10.7,23.9,23.9v12.6H244z"/>
		</g>
	</g>
	<g>
		<g>
			<path class="st3" d="M292.9,299.1c-1.2,0.1-2.5-0.3-3.7-1l-63.1-41.6c-2.8-1.9-3.5-5.5-1.7-8.3c1.9-2.8,5.5-3.5,8.3-1.7
				l63.1,41.6c2.8,1.9,3.5,5.5,1.7,8.3C296.6,298.1,294.8,299,292.9,299.1z"/>
		</g>
	</g>
	<g>
		<path class="st3" d="M295.1,253.6C295,253.6,295,253.6,295.1,253.6c-3.4-0.1-6.1-2.8-6-6.1l0.6-38.7c0.1-3.3,2.7-5.9,6-5.9h0.1
			c3.3,0.1,6,2.8,5.9,6.1l-0.6,38.7C301,251,298.3,253.6,295.1,253.6z"/>
	</g>
</g>
</svg>
