<?xml version="1.0" encoding="utf-8"?>
<!-- Generator: Adobe Illustrator 27.5.0, SVG Export Plug-In . SVG Version: 6.00 Build 0)  -->
<svg version="1.1" id="Layer_1" xmlns="http://www.w3.org/2000/svg" xmlns:xlink="http://www.w3.org/1999/xlink" x="0px" y="0px"
	 viewBox="0 0 500 500" style="enable-background:new 0 0 500 500;" xml:space="preserve">
<style type="text/css">
	.st0{fill:#FFFFFF;}
</style>
<g>
	<g>
		<path class="st0" d="M406.6,229.8h-50.1c-3.3,0-6-2.7-6-6s2.7-6,6-6h50.1c13.2,0,24-10.8,24-24V147c0-13.2-10.8-24-24-24H93
			c-13.2,0-24,10.8-24,24v46.8c0,13.2,10.8,24,24,24h50.1c3.3,0,6,2.7,6,6s-2.7,6-6,6H93c-19.9,0-36-16.1-36-36V147
			c0-19.9,16.1-36,36-36h313.6c19.9,0,36,16.1,36,36v46.8C442.6,213.7,426.5,229.8,406.6,229.8z"/>
	</g>
	<g>
		<path class="st0" d="M356.6,283.1H143.1c-1.6,0-3.1-0.6-4.2-1.8c-1.1-1.1-1.8-2.7-1.8-4.2v-39.3c0-0.2,0-0.5,0-0.7s0-0.5,0-0.7
			v-38c-0.1-0.3-0.1-0.6-0.1-1c0-0.3,0-0.7,0.1-1v-19c0-3.3,2.7-6,6-6l0,0c3.3,0,6,2.7,6,6V191c10-1.2,22.4-6,25.8-21.9
			c0.7-3.2,3.9-5.3,7.1-4.6c3.2,0.7,5.3,3.9,4.6,7.1c-3.9,18.1-17.8,29.5-37.6,31.4v28.4c20.6,2.7,36.9,19,39.6,39.6h122.2
			c2.7-20.6,19.1-37,39.8-39.6v-28.3c-21.3-1.8-36.4-13.5-40.1-31.6c-0.7-3.2,1.4-6.4,4.7-7.1c3.3-0.7,6.4,1.4,7.1,4.7
			c3.3,16.5,18.7,20.8,28.3,21.9v-13.7c0-3.3,2.7-6,6-6l0,0c3.3,0,6,2.7,6,6l-0.1,99.7C362.6,280.4,359.9,283.1,356.6,283.1z
			 M323,271.1h27.6v-27.5C336.6,246.1,325.5,257.1,323,271.1z M149.1,271.1h27.5c-2.5-13.9-13.5-25-27.4-27.5L149.1,271.1z"/>
	</g>
	<g>
		<path class="st0" d="M249.9,258.3c-3.3,0-6-2.7-6-6v-5.4c-5-1.5-9.6-4.5-12.9-8.7c-2.1-2.6-1.6-6.4,1-8.4c2.6-2.1,6.4-1.6,8.4,1
			c2.8,3.6,7.6,5.6,12.1,5.1c1.9-0.3,3.4-0.9,4.4-1.7c0.8-0.7,1.3-1.6,1.4-2.5c0.1-2.3-1.1-3.4-9.2-5.6c-6.9-1.9-18.5-5.1-17.1-17.8
			c0.6-6.3,5.3-11.9,11.7-13.8c0.1,0,0.2-0.1,0.3-0.1v-5.2c0-3.3,2.7-6,6-6s6,2.7,6,6v5.3c5.4,1.6,10.2,5.3,13.2,10.4
			c1.7,2.9,0.7,6.5-2.2,8.2c-2.9,1.7-6.5,0.7-8.2-2.2c-2.3-4-7.5-6.3-11.5-5c-1.7,0.5-3.2,2.1-3.3,3.6c-0.2,1.9,0.1,2.7,8.4,5
			c6.9,1.9,18.4,5.1,18,17.5c-0.2,4.4-2.3,8.5-5.8,11.4c-2.4,1.9-5.2,3.2-8.6,4v4.9C255.9,255.6,253.2,258.3,249.9,258.3z
			 M296.1,229.2L296.1,229.2c-3.4,0-6.1-2.7-6.1-6s2.7-6,6-6s6,2.7,6,6S299.4,229.2,296.1,229.2z M203.6,229.2h-0.1
			c-3.3,0-6-2.7-6-6s2.7-6,6-6h0.1c3.3,0,6,2.7,6,6S206.9,229.2,203.6,229.2z"/>
	</g>
	<g>
		<path class="st0" d="M383.2,176.4H116.4c-3.3,0-6-2.7-6-6s2.7-6,6-6h266.8c3.3,0,6,2.7,6,6S386.5,176.4,383.2,176.4z"/>
	</g>
	<g>
		<path class="st0" d="M249.8,389.9L249.8,389.9L249.8,389.9c-1.6,0-3.1-0.7-4.2-1.7l0,0l0,0l0,0l0,0l0,0l0,0l-26.7-26.7
			c-2.3-2.3-2.3-6.1,0-8.5c2.3-2.3,6.1-2.3,8.5,0l16.5,16.5v-65.6c0-3.3,2.7-6,6-6s6,2.7,6,6v65.6l16.5-16.5c2.3-2.3,6.1-2.3,8.5,0
			c2.3,2.3,2.3,6.1,0,8.5L254,388.1C253,389.2,251.5,389.9,249.8,389.9L249.8,389.9z"/>
	</g>
</g>
</svg>
