<?xml version="1.0" encoding="utf-8"?>
<!-- Generator: Adobe Illustrator 27.5.0, SVG Export Plug-In . SVG Version: 6.00 Build 0)  -->
<svg version="1.1" id="Layer_1" xmlns="http://www.w3.org/2000/svg" xmlns:xlink="http://www.w3.org/1999/xlink" x="0px" y="0px"
	 viewBox="0 0 500 500" style="enable-background:new 0 0 500 500;" xml:space="preserve">
<style type="text/css">
	.st0{fill:#FFFFFF;}
	.st1{display:none;fill:none;stroke:#FFFFFF;stroke-width:11.288;stroke-linecap:round;stroke-linejoin:round;}
	.st2{fill:none;stroke:#FFFFFF;stroke-width:11.288;stroke-linecap:round;stroke-linejoin:round;}
</style>
<g>
	<g>
		<path class="st0" d="M318.6,336.7h-40.4c-3.3,0-6-2.7-6-6v-27.6c0-3.3,2.7-6,6-6h40.4c10.9,0,19.7,8.8,19.7,19.7v0.1
			c0.1,5.2-1.9,10.2-5.7,13.9C328.9,334.6,323.9,336.7,318.6,336.7z M284.2,324.7h34.4c2.1,0,4-0.8,5.5-2.3c1.4-1.5,2.2-3.4,2.2-5.4
			v-0.2c0-4.2-3.5-7.7-7.7-7.7h-34.4V324.7z M177.9,336.7h-40.4c-5.3,0-10.3-2.1-14-5.9s-5.7-8.7-5.7-14l0,0
			c0-10.9,8.8-19.7,19.7-19.7h40.4c3.3,0,6,2.7,6,6v27.6C183.9,334,181.2,336.7,177.9,336.7z M137.5,309.1c-4.2,0-7.7,3.5-7.7,7.7
			v0.1c0,2.1,0.8,4,2.2,5.5c1.5,1.5,3.4,2.3,5.5,2.3h34.4v-15.6H137.5z M283.8,281.9c-0.5,0-1-0.1-1.5-0.2c-3.2-0.8-5.2-4.1-4.4-7.3
			c0.5-1.9,0.7-3.9,0.7-6c0-13.8-11.3-25.1-25.1-25.1c-13.8,0-25.1,11.3-25.1,25.1c0,2.1,0.2,4.1,0.7,6c0.8,3.2-1.2,6.5-4.4,7.3
			s-6.5-1.2-7.3-4.4c-0.7-2.9-1.1-5.9-1.1-9c0-20.5,16.6-37.1,37.1-37.1s37.1,16.6,37.1,37.1c0,3.1-0.4,6.1-1.1,9
			C288.9,280.1,286.5,281.9,283.8,281.9z"/>
	</g>
	<g>
		<path class="st0" d="M367.1,377H89c-1.8,0-3.4-0.8-4.6-2.1c-1.1-1.3-1.6-3.1-1.4-4.8l12.2-77.7c2.1-13,12.9-22.5,25.8-22.5h214
			c12.8,0,23.6,9.4,25.7,22.5l12.2,77.7c0.3,1.7-0.2,3.5-1.4,4.8C370.5,376.2,368.9,377,367.1,377z M96,365h264.1L349,294.2
			c-1.1-7.1-7-12.3-13.9-12.3h-214c-7,0-12.8,5.2-14,12.3L96,365z"/>
	</g>
	<g>
		<path class="st0" d="M253.1,351.5H203c-3.3,0-6-2.7-6-6s2.7-6,6-6h50.1c3.3,0,6,2.7,6,6S256.4,351.5,253.1,351.5z M326.5,281.9
			c-2.8,0-5.4-2-5.9-4.9l-17.7-96.4c-1.7-9.1-8.9-15.8-17.1-15.8H170.2c-8.2,0-15.4,6.6-17.1,15.8L135.4,277c-0.6,3.3-3.7,5.4-7,4.8
			s-5.4-3.7-4.8-7l17.7-96.4c2.7-14.8,14.9-25.6,28.9-25.6h115.6c14,0,26.2,10.8,28.9,25.6l17.7,96.4c0.6,3.3-1.6,6.4-4.8,7
			C327.2,281.9,326.9,281.9,326.5,281.9z M247.7,193.2h-39.3c-3.3,0-6-2.7-6-6s2.7-6,6-6h39.3c3.3,0,6,2.7,6,6
			S251,193.2,247.7,193.2z"/>
	</g>
</g>
<g>
	<path class="st0" d="M345.5,414.8h-59.9c-3.3,0-6-2.7-6-6v-36.9c0-3.3,2.7-6,6-6s6,2.7,6,6v30.9h47.9v-30.9c0-3.3,2.7-6,6-6
		s6,2.7,6,6v36.9C351.5,412.1,348.8,414.8,345.5,414.8z M170.4,414.8h-59.9c-3.3,0-6-2.7-6-6v-36.9c0-3.3,2.7-6,6-6s6,2.7,6,6v30.9
		h47.9v-30.9c0-3.3,2.7-6,6-6s6,2.7,6,6v36.9C176.4,412.1,173.7,414.8,170.4,414.8z"/>
</g>
<g>
	<path class="st0" d="M354.8,189.1h-0.2c-3.3,0-6-2.7-6-6s2.7-6,6-6h0.2c3.3,0,6,2.7,6,6S358.1,189.1,354.8,189.1z"/>
</g>
<g>
	<path class="st0" d="M335.9,164.8c-1.8,0-3.6-0.8-4.7-2.3c-2-2.6-1.6-6.4,1.1-8.4c6.4-5,14.4-7.8,22.5-7.8c8.2,0,16.2,2.8,22.5,7.8
		c2.6,2.1,3,5.8,1,8.4c-2.1,2.6-5.8,3-8.4,1c-4.2-3.4-9.6-5.2-15.1-5.2c-5.4,0-10.8,1.9-15.1,5.2
		C338.5,164.4,337.2,164.8,335.9,164.8z M317.1,140.8c-1.8,0-3.6-0.8-4.7-2.3c-2-2.6-1.6-6.4,1-8.4c12-9.3,26.3-14.3,41.3-14.3
		c15.1,0,29.7,5.1,41.3,14.3c2.6,2.1,3,5.8,1,8.4c-2.1,2.6-5.8,3-8.4,1c-9.5-7.5-21.5-11.7-33.9-11.7c-12.3,0-24.1,4.1-33.9,11.7
		C319.7,140.4,318.4,140.8,317.1,140.8z M298.3,116.7c-1.8,0-3.5-0.8-4.7-2.3c-2-2.6-1.6-6.4,1-8.4c17.3-13.5,38.1-20.7,60.1-20.7
		c21.7,0,43,7.3,60.1,20.7c2.6,2,3.1,5.8,1,8.4c-2,2.6-5.8,3.1-8.4,1c-15-11.7-33.7-18.1-52.7-18.1c-19.3,0-37.5,6.3-52.7,18.1
		C300.9,116.3,299.6,116.7,298.3,116.7z"/>
</g>
<g>
	<path class="st1" d="M0,500"/>
	<path class="st2" d="M0,500"/>
	<path class="st2" d="M0,500"/>
</g>
<g>
	<path class="st1" d="M0,500"/>
	<path class="st2" d="M0,500"/>
	<path class="st2" d="M0,500"/>
</g>
<g>
	<g>
		<path class="st1" d="M0,500"/>
	</g>
	<g>
		<path class="st2" d="M0,500"/>
	</g>
	<g>
		<path class="st2" d="M0,500"/>
	</g>
	<g>
		<path class="st2" d="M0,500"/>
	</g>
	<g>
		<path class="st2" d="M0,500"/>
	</g>
	<g>
		<path class="st2" d="M0,500"/>
	</g>
	<g>
		<path class="st2" d="M0,500"/>
	</g>
	<g>
		<path class="st2" d="M0,500"/>
	</g>
	<g>
		<path class="st2" d="M0,500"/>
	</g>
	<g>
		<path class="st2" d="M0,500"/>
	</g>
	<g>
		<path class="st2" d="M0,500"/>
	</g>
	<g>
		<path class="st2" d="M0,500"/>
	</g>
</g>
</svg>
