<?xml version="1.0" encoding="iso-8859-1"?>
<!-- Generator: Adobe Illustrator 29.6.1, SVG Export Plug-In . SVG Version: 9.03 Build 0)  -->
<svg version="1.1" id="Layer_1" xmlns="http://www.w3.org/2000/svg" xmlns:xlink="http://www.w3.org/1999/xlink" x="0px" y="0px"
	 viewBox="0 0 500 500" style="enable-background:new 0 0 500 500;" xml:space="preserve">
<g>
	<g>
		<path style="fill:#FFFFFF;" d="M272.65,422.55h-45.2c-3.3,0-6-2.7-6-6v-25.1c-5.9-1.2-11.8-2.8-17.4-4.7l-12.5,21.7
			c-0.8,1.4-2.1,2.4-3.6,2.8c-1.5,0.4-3.2,0.2-4.6-0.6l-39.1-22.6c-2.9-1.7-3.8-5.3-2.2-8.2l12.5-21.6c-2.2-1.9-4.3-3.9-6.5-6.1
			c-2-2-4-4.2-6.2-6.6l-21.7,12.4c-2.9,1.7-6.5,0.7-8.2-2.2l-22.6-39.1c-0.8-1.4-1-3-0.6-4.6c0.4-1.5,1.4-2.8,2.8-3.6l21.7-12.5
			c-1.9-5.6-3.4-11.4-4.7-17.4h-25c-3.3,0-6-2.7-6-6v-45.2c0-3.3,2.7-6,6-6h25c1.2-5.9,2.8-11.8,4.7-17.4l-21.7-12.5
			c-1.4-0.8-2.4-2.1-2.8-3.6s-0.2-3.2,0.6-4.6l22.6-39.1c1.7-2.9,5.3-3.8,8.2-2.2l21.6,12.5c1.9-2.2,3.9-4.3,6.1-6.5
			c2-2,4.2-4,6.6-6.2l-12.5-21.7c-1.7-2.9-0.7-6.5,2.2-8.2l39.1-22.6c1.4-0.8,3-1,4.6-0.6c1.5,0.4,2.8,1.4,3.6,2.8l12.5,21.7
			c5.6-1.9,11.4-3.4,17.4-4.7v-25c0-3.3,2.7-6,6-6h45.2c3.3,0,6,2.7,6,6v25c5.9,1.2,11.8,2.8,17.4,4.7l12.5-21.7
			c0.8-1.4,2.1-2.4,3.6-2.8s3.2-0.2,4.6,0.6l39.1,22.6c2.9,1.7,3.8,5.3,2.2,8.2l-12.5,21.6c2.2,1.9,4.3,3.9,6.5,6.1
			c2,2,4,4.2,6.2,6.6l21.7-12.5c2.9-1.7,6.5-0.7,8.2,2.2l22.6,39.1c0.8,1.4,1,3,0.6,4.6c-0.4,1.5-1.4,2.8-2.8,3.6l-21.7,12.5
			c1.9,5.6,3.4,11.4,4.7,17.4h25c3.3,0,6,2.7,6,6v45.2c0,3.3-2.7,6-6,6c-7.6,0-18.8,0-25,0c-1.2,6-2.8,11.8-4.7,17.5l21.7,12.5
			c1.4,0.8,2.4,2.1,2.8,3.6c0.4,1.5,0.2,3.2-0.6,4.6l-22.5,39.2c-1.7,2.9-5.3,3.8-8.2,2.2l-21.6-12.5c-1.9,2.2-3.9,4.3-6.1,6.5
			c-2,2-4.2,4-6.6,6.2l12.5,21.7c1.7,2.9,0.7,6.5-2.2,8.2l-39.2,22.6c-1.4,0.8-3,1-4.6,0.6c-1.5-0.4-2.8-1.4-3.6-2.8l-12.5-21.7
			c-5.6,1.9-11.4,3.4-17.4,4.7v25C278.65,419.85,275.95,422.55,272.65,422.55z M233.45,410.55h33.2v-24c0-2.9,2.1-5.4,5-5.9
			c8.8-1.5,17.2-3.7,25-6.7c2.8-1.1,5.9,0.1,7.3,2.6l12,20.8l28.7-16.6l-12-20.8c-1.5-2.5-0.9-5.8,1.4-7.6c3.8-3.1,6.9-6,9.7-8.7
			c3.2-3.2,6-6.3,8.6-9.5c1.9-2.3,5.1-2.9,7.7-1.4l20.8,12l16.6-28.7l-20.8-12c-2.5-1.5-3.7-4.6-2.6-7.3c3-7.9,5.2-16.3,6.7-25
			c0.1-0.4,0.2-0.9,0.4-1.3c1.5-3.7,5.1-3.7,6.8-3.7c0.8,0,2,0,3.4,0c2.8,0,6.6,0,10.3,0c3.2,0,6.4,0,9,0v-33.2h-24
			c-2.9,0-5.4-2.1-5.9-5c-1.5-8.8-3.7-17.2-6.7-25c-1-2.8,0.1-5.9,2.6-7.3l20.8-12l-16.6-28.7l-20.8,12c-2.5,1.5-5.8,0.9-7.6-1.4
			c-3.1-3.8-6-6.9-8.7-9.7c-3.2-3.2-6.3-6-9.5-8.6c-2.3-1.9-2.9-5.1-1.4-7.7l12-20.8l-28.7-16.6l-12,20.8c-1.5,2.5-4.6,3.7-7.3,2.6
			c-7.9-3-16.3-5.2-25-6.7c-2.9-0.5-5-3-5-5.9v-24h-33.2v24c0,2.9-2.1,5.4-5,5.9c-8.8,1.5-17.2,3.7-25,6.7c-2.8,1-5.9-0.1-7.3-2.6
			l-12-20.8l-28.7,16.6l12,20.8c1.5,2.5,0.9,5.8-1.4,7.6c-3.8,3.1-6.9,6-9.7,8.7c-3.2,3.2-6,6.3-8.6,9.5c-1.9,2.3-5.1,2.9-7.7,1.4
			l-20.8-12l-16.6,28.7l20.8,12c2.5,1.5,3.7,4.6,2.6,7.3c-3,7.9-5.2,16.3-6.7,25c-0.5,2.9-3,5-5.9,5h-24v33.2h24
			c2.9,0,5.4,2.1,5.9,5c1.5,8.8,3.7,17.2,6.7,25c1,2.8-0.1,5.9-2.6,7.3l-20.8,12l16.6,28.7l20.8-12c2.5-1.5,5.8-0.9,7.6,1.4
			c3.1,3.8,6,7,8.7,9.7c3.2,3.2,6.3,6,9.5,8.6c2.3,1.9,2.9,5.1,1.4,7.7l-12,20.8l28.7,16.6l12-20.8c1.5-2.5,4.6-3.7,7.3-2.6
			c7.9,3,16.3,5.2,25,6.7c2.9,0.5,5,3,5,5.9L233.45,410.55L233.45,410.55z"/>
	</g>
</g>
<g>
	<g>
		<path style="fill:#FFFFFF;" d="M339.8,250c0,49.51-40.29,89.8-89.8,89.8c-21.61,0-42.43-7.83-58.63-21.79v10.18c0,3.32-2.68,6-6,6
			c-3.31,0-6-2.68-6-6v-24.61c0-3.32,2.69-6,6-6h24.67c3.31,0,6,2.68,6,6c0,3.31-2.69,6-6,6h-10.05
			c13.92,11.68,31.64,18.22,50.01,18.22c42.9,0,77.8-34.9,77.8-77.8c0-11.05-2.26-21.7-6.71-31.65c-1.35-3.02,0-6.57,3.03-7.92
			c3.02-1.36,6.57,0,7.93,3.03C337.19,224.96,339.8,237.25,339.8,250z"/>
	</g>
	<g>
		<path style="fill:#FFFFFF;" d="M321.1,172.8v24.62c0,3.31-2.69,6-6,6h-24.67c-3.31,0-6-2.69-6-6c0-3.32,2.69-6,6-6h10.76
			c-14.1-12.31-32.31-19.22-51.19-19.22c-42.9,0-77.8,34.9-77.8,77.8c0,11.05,2.26,21.7,6.71,31.64c1.35,3.03,0,6.58-3.03,7.93
			c-0.79,0.36-1.63,0.53-2.45,0.53c-2.29,0-4.48-1.33-5.48-3.56c-5.14-11.49-7.75-23.79-7.75-36.54c0-49.51,40.29-89.8,89.8-89.8
			c21.81,0,42.83,7.98,59.1,22.2v-9.6c0-3.31,2.69-6,6-6S321.1,169.49,321.1,172.8z"/>
	</g>
</g>
</svg>
