<?xml version="1.0" encoding="utf-8"?>
<!-- Generator: Adobe Illustrator 27.5.0, SVG Export Plug-In . SVG Version: 6.00 Build 0)  -->
<svg version="1.1" id="Layer_1" xmlns="http://www.w3.org/2000/svg" xmlns:xlink="http://www.w3.org/1999/xlink" x="0px" y="0px"
	 viewBox="0 0 500 500" style="enable-background:new 0 0 500 500;" xml:space="preserve">
<style type="text/css">
	.st0{clip-path:url(#SVGID_00000155862239439029232800000003988665027250926775_);}
	.st1{fill:#FFFFFF;}
	.st2{display:none;fill:none;stroke:#FFFFFF;stroke-width:12;stroke-linecap:round;stroke-linejoin:round;}
	.st3{fill:none;stroke:#FFFFFF;stroke-width:12;stroke-linecap:round;stroke-linejoin:round;}
</style>
<g>
	<g>
		<g>
			<g>
				<g>
					<defs>
						<rect id="SVGID_1_" width="500" height="500"/>
					</defs>
					<clipPath id="SVGID_00000073716963064283195540000007068688789734091422_">
						<use xlink:href="#SVGID_1_"  style="overflow:visible;"/>
					</clipPath>
					<g style="clip-path:url(#SVGID_00000073716963064283195540000007068688789734091422_);">
						<g>
							<path class="st1" d="M383.3,384.6H115.8c-1.6,0-3.2-0.7-4.3-1.8s-1.7-2.7-1.7-4.4l0.4-12.4c0.1-50.2,40.9-91,91.1-91h97.3
								c50.2,0,91.1,40.9,91.1,91.1c0,0.1,0,0.1,0,0.2l-0.4,12.5C389.2,382,386.5,384.6,383.3,384.6z M122,372.6h255.5l0.2-6.6
								c-0.1-43.6-35.5-79-79.1-79h-97.3c-43.6,0-79.1,35.5-79.1,79.1c0,0.1,0,0.1,0,0.2L122,372.6z"/>
						</g>
						<g>
							<path class="st1" d="M249.9,253.2c-37.3,0-67.6-30.3-67.6-67.6s30.3-67.6,67.6-67.6c20.1,0,39,8.8,51.8,24.1l0,0
								c10.2,12.2,15.8,27.6,15.8,43.5C317.5,222.9,287.2,253.2,249.9,253.2z M249.9,130c-30.7,0-55.6,24.9-55.6,55.6
								s24.9,55.6,55.6,55.6s55.6-24.9,55.6-55.6c0-13-4.6-25.7-13-35.7l0,0C281.9,137.2,266.4,130,249.9,130z"/>
						</g>
						<g>
							<g>
								<path class="st2" d="M0,500"/>
							</g>
							<g>
								<path class="st3" d="M0,500"/>
							</g>
							<g>
								<path class="st3" d="M0,500"/>
							</g>
							<g>
								<path class="st3" d="M0,500"/>
							</g>
							<g>
								<path class="st3" d="M0,500"/>
							</g>
							<g>
								<path class="st3" d="M0,500"/>
							</g>
							<g>
								<path class="st3" d="M0,500"/>
							</g>
							<g>
								<path class="st3" d="M0,500"/>
							</g>
							<g>
								<path class="st3" d="M0,500"/>
							</g>
							<g>
								<path class="st3" d="M0,500"/>
							</g>
							<g>
								<path class="st3" d="M0,500"/>
							</g>
							<g>
								<path class="st3" d="M0,500"/>
							</g>
						</g>
					</g>
				</g>
			</g>
		</g>
	</g>
</g>
</svg>
