<?xml version="1.0" encoding="utf-8"?>
<!-- Generator: Adobe Illustrator 27.5.0, SVG Export Plug-In . SVG Version: 6.00 Build 0)  -->
<svg version="1.1" id="Layer_1" xmlns="http://www.w3.org/2000/svg" xmlns:xlink="http://www.w3.org/1999/xlink" x="0px" y="0px"
	 viewBox="0 0 500 500" style="enable-background:new 0 0 500 500;" xml:space="preserve">
<style type="text/css">
	.st0{fill:#FFFFFF;}
	.st1{fill:none;stroke:#FFFFFF;stroke-width:12;stroke-linecap:round;stroke-linejoin:round;}
</style>
<g>
	<g>
		<path class="st0" d="M344.6,426.7c-27.2,0-52.6-15.1-65.6-38.8H116.5c-1.6,0-3.2-0.7-4.3-1.8c-1.1-1.2-1.7-2.7-1.7-4.4l0.4-12.4
			c0.1-50.2,40.9-91,91.1-91h97.3c7.1,0,14.3,0.9,21.3,2.5c7.8-2.6,15.8-3.9,24-3.9c41.3,0,74.9,33.6,74.9,74.9
			S385.9,426.7,344.6,426.7z M288.1,379.4c10.5,21.4,32.7,35.3,56.5,35.3c34.7,0,62.9-28.2,62.9-62.9s-28.2-62.9-62.9-62.9
			c-7.4,0-14.6,1.3-21.6,3.8h-0.1c-24.6,9-41.2,32.7-41.2,59c0,9.6,2.1,18.8,6.2,27.4C288,379.2,288,379.3,288.1,379.4z
			 M122.7,375.9h151c-2.6-7.7-4-15.8-4-24.1c0-24.8,12.4-47.7,32.1-61.5c-0.8,0-1.7,0-2.5,0H202c-43.6,0-79.1,35.5-79.1,79.1
			c0,0.1,0,0.1,0,0.2L122.7,375.9z M345.1,391.1c-3.3,0-6-2.7-6-6v-27.8h-27.8c-3.3,0-6-2.7-6-6s2.7-6,6-6h27.8v-27.7
			c0-3.3,2.7-6,6-6s6,2.7,6,6v27.7h27.7c3.3,0,6,2.7,6,6s-2.7,6-6,6h-27.7v27.8C351.1,388.4,348.4,391.1,345.1,391.1z M250.6,256.5
			c-37.3,0-67.6-30.3-67.6-67.6s30.3-67.6,67.6-67.6c20.1,0,39,8.8,51.8,24.1l0,0c10.2,12.2,15.8,27.6,15.8,43.5
			C318.2,226.2,287.9,256.5,250.6,256.5z M250.6,133.3c-30.7,0-55.6,24.9-55.6,55.6s24.9,55.6,55.6,55.6s55.6-24.9,55.6-55.6
			c0-13-4.6-25.7-13-35.7l0,0C282.6,140.5,267.1,133.3,250.6,133.3z"/>
	</g>
	<g>
		<path class="st1" d="M0,500"/>
	</g>
</g>
</svg>
