<?xml version="1.0" encoding="utf-8"?>
<!-- Generator: Adobe Illustrator 27.5.0, SVG Export Plug-In . SVG Version: 6.00 Build 0)  -->
<svg version="1.1" id="Layer_1" xmlns="http://www.w3.org/2000/svg" xmlns:xlink="http://www.w3.org/1999/xlink" x="0px" y="0px"
	 viewBox="0 0 500 500" style="enable-background:new 0 0 500 500;" xml:space="preserve">
<style type="text/css">
	.st0{fill:#FFFFFF;}
	.st1{fill:none;stroke:#FFFFFF;stroke-width:12;stroke-linecap:round;stroke-linejoin:round;}
</style>
<g>
	<g>
		<path class="st0" d="M251.3,274h-1.5c-37.1,0-67.2-30.1-67.2-67.2v-30c0-3.3,2.7-6,6-6s6,2.7,6,6v30c0,30.4,24.8,55.2,55.2,55.2
			h1.5c30.4,0,55.2-24.8,55.2-55.2v-33.6c0-3.3,2.7-6,6-6s6,2.7,6,6v33.6C318.5,243.9,288.4,274,251.3,274z"/>
	</g>
	<g>
		<path class="st0" d="M184.7,183.6c-2.5,0-4.8-1.6-5.7-4.1c-0.3-0.8-6.9-20.4-9.4-42.7c-3.6-31.7,2.7-52.4,18.7-61.6
			c5.7-3.2,14.1-3,19.6,0.6c4,2.5,7.8,6.1,10.9,8.9c1.1,1.1,2.2,2.1,3.1,2.8c0,0,0.1,0,0.1,0.1c1.2,1.1,2.8,1.6,4.4,1.5h0.1
			c2.1-0.1,7.7-0.7,13.9-4c0.2-0.1,0.4-0.2,0.6-0.3c26.6-10.6,50.2-10.1,66.5,1.2c11.7,8.1,18.2,21.2,17.9,35.9
			c-0.1,5.9,0,11.5,0,16.9c0.2,21,0.4,36.1-9.7,42.6c-1.9,1.2-4.3,1.3-6.3,0.1c-1.9-1.1-3.1-3.3-2.9-5.5c0.1-1.4,1.5-32.3-29-51.8
			c-6.9,14.3-29,46.3-91.6,59.3C185.5,183.6,185.1,183.6,184.7,183.6z M197.5,84.9c-1.2,0-2.4,0.2-3.2,0.7
			c-21.9,12.5-12.5,61.5-5.5,84.9c34.7-8.2,54.4-22.6,64.9-33.6c11.9-12.3,15-23,15-23.1c0.5-1.7,1.7-3.2,3.4-3.9
			c1.7-0.7,3.6-0.7,5.2,0.2c20.7,10.8,31,25.9,36.2,39c0-3.3,0-6.8-0.1-10.3c-0.1-5.5-0.1-11.2,0-17.3c0.2-10.8-4.3-19.9-12.7-25.8
			c-12.8-8.9-32.4-8.9-55,0c-5.8,3-12.6,4.9-18.7,5.2c-4.7,0.3-9.3-1.3-12.9-4.4c-1.1-0.9-2.2-2-3.5-3.1c-2.7-2.5-6-5.6-9.1-7.5
			C200.5,85.3,199,84.9,197.5,84.9z"/>
	</g>
	<g>
		<path class="st0" d="M252.5,315.8H250c-20.7,0-37.6-16.9-37.6-37.6v-18.9c0-3.3,2.7-6,6-6s6,2.7,6,6v18.9
			c0,14.1,11.5,25.6,25.6,25.6h2.5c14.1,0,25.6-11.5,25.6-25.6v-19.7c0-3.3,2.7-6,6-6s6,2.7,6,6v19.7
			C290.1,298.9,273.2,315.8,252.5,315.8z"/>
	</g>
	<g>
		<path class="st0" d="M324,291c-0.8,0-1.6-0.2-2.4-0.5c-8.9-3.9-18.5-5.8-28.5-5.8c-0.1,0-0.2,0-0.3,0l-9-0.5
			c-3.3-0.2-5.8-3-5.7-6.3c0.2-3.3,3-5.8,6.3-5.7l8.8,0.5c11.6,0,22.7,2.3,33.1,6.8c3,1.3,4.4,4.8,3.1,7.9
			C328.5,289.6,326.3,291,324,291z"/>
	</g>
	<g>
		<path class="st0" d="M266.9,427h-33.8c-17.4,0-26.1-3.8-35.3-7.8c-8.4-3.7-17.2-7.5-35.2-9h-19.2c-11.7,0-21.3-9.6-21.3-21.3
			v-31.5c0-46.6,37.9-84.6,84.5-84.7l8.8-0.5c3.3-0.2,6.1,2.3,6.3,5.7c0.2,3.3-2.3,6.1-5.7,6.3l-9,0.5c-0.1,0-0.2,0-0.3,0
			c-40.1,0-72.7,32.6-72.7,72.7v31.5c0,5.1,4.2,9.3,9.3,9.3h19.4c0.2,0,0.3,0,0.5,0c20.2,1.6,30.3,6,39.3,10
			c8.7,3.8,15.5,6.8,30.4,6.8h33.8c14.6,0,20.1-2.5,27.1-5.8c4.4-2,9.4-4.3,17-6.3c3.2-0.8,6.5,1.1,7.3,4.3c0.8,3.2-1.1,6.5-4.3,7.3
			c-6.6,1.7-10.9,3.7-15,5.6C291.4,423.7,284.1,427,266.9,427z"/>
	</g>
	<g>
		<g>
			<path class="st0" d="M400,434.8c-1.5,0-3-0.6-4.2-1.7l-37.2-36.6c-2.4-2.3-2.4-6.1-0.1-8.5s6.1-2.4,8.5-0.1l37.2,36.6
				c2.4,2.3,2.4,6.1,0.1,8.5C403.1,434.2,401.6,434.8,400,434.8z"/>
		</g>
		<g>
			<path class="st0" d="M314.7,413.7c-1.2,0-2.4,0-3.7-0.1c-0.1,0-0.2,0-0.2,0c-16-1.1-31.2-8.1-42.6-19.5
				c-12.7-12.7-19.8-29.7-19.8-47.6c0-18,7-34.9,19.8-47.6c13.4-13.4,31.9-20.6,50.8-19.7c16.7,0.8,32.5,7.8,44.4,19.6
				c23,22.9,26.4,58.9,8.1,85.6c-2.3,3.4-5,6.6-8,9.7c-7.3,7.3-15.9,12.7-25.4,15.9l-3.8,1.2c-0.3,0.1-0.5,0.2-0.8,0.2
				C323.5,413.2,319.5,413.7,314.7,413.7z M332.5,405.5L332.5,405.5L332.5,405.5z M311.5,401.6c5.6,0.2,7.9,0.1,19.5-1.9l3.3-1.1
				c7.7-2.6,14.7-7,20.7-13c2.5-2.5,4.7-5.1,6.6-7.9l0,0c15-22,12.2-51.6-6.7-70.4c-9.9-9.8-22.8-15.5-36.6-16.2
				c-15.5-0.7-30.8,5.1-41.8,16.1c-10.5,10.5-16.2,24.4-16.2,39.2c0,14.8,5.8,28.7,16.2,39.2C286,395,298.4,400.7,311.5,401.6z"/>
		</g>
	</g>
	<g>
		<path class="st1" d="M0,500"/>
	</g>
</g>
</svg>
