<?xml version="1.0" encoding="utf-8"?>
<!-- Generator: Adobe Illustrator 27.5.0, SVG Export Plug-In . SVG Version: 6.00 Build 0)  -->
<svg version="1.1" id="Layer_1" xmlns="http://www.w3.org/2000/svg" xmlns:xlink="http://www.w3.org/1999/xlink" x="0px" y="0px"
	 viewBox="0 0 500 500" style="enable-background:new 0 0 500 500;" xml:space="preserve">
<style type="text/css">
	.st0{clip-path:url(#SVGID_00000138564772705274839510000009146226530553098894_);}
	.st1{fill:#FFFFFF;}
	.st2{display:none;fill:none;stroke:#FFFFFF;stroke-width:12;stroke-linecap:round;stroke-linejoin:round;}
	.st3{fill:none;stroke:#FFFFFF;stroke-width:12;stroke-linecap:round;stroke-linejoin:round;}
</style>
<g>
	<g>
		<g>
			<g>
				<defs>
					<rect id="SVGID_1_" width="500" height="500"/>
				</defs>
				<clipPath id="SVGID_00000054223402111399951630000008055813652955785618_">
					<use xlink:href="#SVGID_1_"  style="overflow:visible;"/>
				</clipPath>
				<g style="clip-path:url(#SVGID_00000054223402111399951630000008055813652955785618_);">
					<g>
						<path class="st1" d="M374,394.8h-66.6c-3.3,0-6-2.7-6-6V148.3c0-3.3,2.7-6,6-6H374c3.3,0,6,2.7,6,6v240.5
							C380,392.1,377.3,394.8,374,394.8z M313.4,382.8H368V154.3h-54.6V382.8z M281.5,394.8h-66.6c-3.3,0-6-2.7-6-6V222.3
							c0-3.3,2.7-6,6-6h66.6c3.3,0,6,2.7,6,6v166.5C287.5,392.1,284.8,394.8,281.5,394.8z M220.9,382.8h54.6V228.3h-54.6V382.8z
							 M189,394.8h-66.6c-3.3,0-6-2.7-6-6v-92.5c0-3.3,2.7-6,6-6H189c3.3,0,6,2.7,6,6v92.5C195,392.1,192.3,394.8,189,394.8z
							 M128.4,382.8H183v-80.5h-54.6V382.8z"/>
					</g>
					<g>
						<path class="st1" d="M407.2,394.7H89.1c-3.3,0-6-2.7-6-6V111.2c0-3.3,2.7-6,6-6s6,2.7,6,6v271.5h312.1c3.3,0,6,2.7,6,6
							S410.5,394.7,407.2,394.7z"/>
					</g>
					<g>
						<g>
							<path class="st2" d="M0,500"/>
						</g>
						<g>
							<path class="st3" d="M0,500"/>
						</g>
						<g>
							<path class="st3" d="M0,500"/>
						</g>
						<g>
							<path class="st3" d="M0,500"/>
						</g>
						<g>
							<path class="st3" d="M0,500"/>
						</g>
						<g>
							<path class="st3" d="M0,500"/>
						</g>
						<g>
							<path class="st3" d="M0,500"/>
						</g>
						<g>
							<path class="st3" d="M0,500"/>
						</g>
						<g>
							<path class="st3" d="M0,500"/>
						</g>
						<g>
							<path class="st3" d="M0,500"/>
						</g>
						<g>
							<path class="st3" d="M0,500"/>
						</g>
						<g>
							<path class="st3" d="M0,500"/>
						</g>
					</g>
				</g>
			</g>
		</g>
	</g>
</g>
</svg>
