<?xml version="1.0" encoding="utf-8"?>
<!-- Generator: Adobe Illustrator 27.5.0, SVG Export Plug-In . SVG Version: 6.00 Build 0)  -->
<svg version="1.1" id="Layer_1" xmlns="http://www.w3.org/2000/svg" xmlns:xlink="http://www.w3.org/1999/xlink" x="0px" y="0px"
	 viewBox="0 0 500 500" style="enable-background:new 0 0 500 500;" xml:space="preserve">
<style type="text/css">
	.st0{fill:#FFFFFF;}
	.st1{display:none;fill:none;stroke:#F9423A;stroke-width:12;stroke-linecap:round;stroke-linejoin:round;}
	.st2{fill:none;stroke:#F9423A;stroke-width:12;stroke-linecap:round;stroke-linejoin:round;}
</style>
<g>
	<g>
		<path class="st0" d="M374,414.8h-66.6c-3.3,0-6-2.7-6-6V168.3c0-3.3,2.7-6,6-6H374c3.3,0,6,2.7,6,6v240.5
			C380,412.1,377.3,414.8,374,414.8z M313.4,402.8H368V174.3h-54.6V402.8z M281.5,414.8h-66.6c-3.3,0-6-2.7-6-6V242.3
			c0-3.3,2.7-6,6-6h66.6c3.3,0,6,2.7,6,6v166.5C287.5,412.1,284.8,414.8,281.5,414.8z M220.9,402.8h54.6V248.3h-54.6V402.8z
			 M189,414.8h-66.6c-3.3,0-6-2.7-6-6v-92.5c0-3.3,2.7-6,6-6H189c3.3,0,6,2.7,6,6v92.5C195,412.1,192.3,414.8,189,414.8z
			 M128.4,402.8H183v-80.5h-54.6V402.8z"/>
	</g>
	<g>
		<path class="st0" d="M407.2,414.7H89.1c-3.3,0-6-2.7-6-6V131.2c0-3.3,2.7-6,6-6s6,2.7,6,6v271.5h312.1c3.3,0,6,2.7,6,6
			S410.5,414.7,407.2,414.7z"/>
	</g>
	<g>
		<path class="st0" d="M117.3,257c-1.9,0-3.7-0.9-4.9-2.5c-1.9-2.7-1.3-6.4,1.4-8.4c0.3-0.2,26.2-18.5,39.4-27.4
			c18.6-12.4,37.7-24.9,56.1-36.9c12.3-8,24.9-16.3,37.3-24.4l105.5-69.2c2.8-1.8,6.5-1,8.3,1.7c1.8,2.8,1,6.5-1.7,8.3l-105.5,69.2
			c-12.4,8.2-25.1,16.5-37.4,24.5c-18.4,12-37.4,24.4-56,36.8c-13.1,8.8-38.9,27-39.2,27.2C119.7,256.6,118.5,257,117.3,257z"/>
	</g>
	<g>
		<path class="st0" d="M351.2,136c-0.2,0-0.4,0-0.6,0c-3.3-0.3-5.7-3.3-5.3-6.6l3.4-32.2l-32.2-3.4c-3.3-0.3-5.7-3.3-5.3-6.6
			c0.3-3.3,3.3-5.7,6.6-5.3l38.2,4c3.3,0.3,5.7,3.3,5.3,6.6l-4,38.2C356.8,133.7,354.2,136,351.2,136z"/>
	</g>
	<g>
		<g>
			<path class="st1" d="M0,500"/>
		</g>
		<g>
			<path class="st2" d="M0,500"/>
		</g>
		<g>
			<path class="st2" d="M0,500"/>
		</g>
		<g>
			<path class="st2" d="M0,500"/>
		</g>
		<g>
			<path class="st2" d="M0,500"/>
		</g>
		<g>
			<path class="st2" d="M0,500"/>
		</g>
		<g>
			<path class="st2" d="M0,500"/>
		</g>
		<g>
			<path class="st2" d="M0,500"/>
		</g>
		<g>
			<path class="st2" d="M0,500"/>
		</g>
		<g>
			<path class="st2" d="M0,500"/>
		</g>
		<g>
			<path class="st2" d="M0,500"/>
		</g>
		<g>
			<path class="st2" d="M0,500"/>
		</g>
	</g>
</g>
</svg>
