<?xml version="1.0" encoding="iso-8859-1"?>
<!-- Generator: Adobe Illustrator 29.6.1, SVG Export Plug-In . SVG Version: 9.03 Build 0)  -->
<svg version="1.1" id="Layer_1" xmlns="http://www.w3.org/2000/svg" xmlns:xlink="http://www.w3.org/1999/xlink" x="0px" y="0px"
	 viewBox="0 0 500 500" style="enable-background:new 0 0 500 500;" xml:space="preserve">
<g>
	<g>
		<path style="fill:#FFFFFF;" d="M410,391H90v-12h314v-58H90v-12h320c3.313,0,6,2.687,6,6v70C416,388.313,413.313,391,410,391z
			 M325,291H90v-12h229v-58H90v-12h235c3.313,0,6,2.686,6,6v70C331,288.313,328.313,291,325,291z M220,191H90v-12h124v-58H90v-12
			h130c3.314,0,6,2.686,6,6v70C226,188.314,223.314,191,220,191z"/>
	</g>
	<g>
		<path style="fill:#FFFFFF;" d="M90,416c-3.313,0-6-2.687-6-6V90c0-3.313,2.687-6,6-6s6,2.687,6,6v320
			C96,413.313,93.313,416,90,416z"/>
	</g>
</g>
</svg>
