<?xml version="1.0" encoding="iso-8859-1"?>
<!-- Generator: Adobe Illustrator 29.6.1, SVG Export Plug-In . SVG Version: 9.03 Build 0)  -->
<svg version="1.1" id="Layer_1" xmlns="http://www.w3.org/2000/svg" xmlns:xlink="http://www.w3.org/1999/xlink" x="0px" y="0px"
	 viewBox="0 0 500 500" style="enable-background:new 0 0 500 500;" xml:space="preserve">
<g>
	<path style="fill:#FFFFFF;" d="M388.65,416.1h-45.3c-3.313,0-6-2.687-6-6s2.687-6,6-6h45.3c8.491,0,15.399-6.908,15.399-15.4v-45.3
		c0-3.313,2.687-6,6-6s6,2.687,6,6v45.3C416.05,403.808,403.759,416.1,388.65,416.1z M156.85,416.1h-45.3
		c-15.108,0-27.4-12.292-27.4-27.4v-45.3c0-3.313,2.686-6,6-6c3.313,0,6,2.687,6,6v45.3c0,8.492,6.908,15.4,15.4,15.4h45.3
		c3.314,0,6,2.687,6,6S160.164,416.1,156.85,416.1z M370.15,349.4c-3.313,0-6-2.687-6-6V256h-12v87.4c0,3.313-2.687,6-6,6
		s-6-2.687-6-6V256h-48.1v87.4c0,3.313-2.687,6-6,6s-6-2.687-6-6V256h-36v87.4c0,3.313-2.687,6-6,6s-6-2.687-6-6V256h-12v87.4
		c0,3.313-2.687,6-6,6s-6-2.687-6-6V256h-36v87.4c0,3.313-2.687,6-6,6s-6-2.687-6-6V256h-24.1v87.4c0,3.313-2.687,6-6,6
		s-6-2.687-6-6V256h-34c-3.313,0-6-2.686-6-6s2.687-6,6-6h34v-87.4c0-3.313,2.687-6,6-6s6,2.687,6,6V244h24.1v-87.4
		c0-3.313,2.687-6,6-6s6,2.687,6,6V244h36v-87.4c0-3.313,2.687-6,6-6s6,2.687,6,6V244h12v-87.4c0-3.313,2.687-6,6-6s6,2.687,6,6V244
		h36v-87.4c0-3.313,2.687-6,6-6s6,2.687,6,6V244h48.101v-87.4c0-3.313,2.687-6,6-6s6,2.687,6,6V244h12v-87.4c0-3.313,2.687-6,6-6
		s6,2.687,6,6V244h33.899c3.313,0,6,2.686,6,6s-2.687,6-6,6h-33.9v87.4C376.15,346.713,373.464,349.4,370.15,349.4z M410.05,162.8
		c-3.313,0-6-2.687-6-6v-45.3c0-8.492-6.908-15.4-15.399-15.4h-45.3c-3.313,0-6-2.686-6-6c0-3.313,2.687-6,6-6h45.3
		c15.108,0,27.399,12.292,27.399,27.4v45.3C416.05,160.113,413.363,162.8,410.05,162.8z M90.15,162.6c-3.314,0-6-2.686-6-6v-45.3
		c0-15.108,12.292-27.4,27.4-27.4h45.3c3.314,0,6,2.686,6,6c0,3.313-2.686,6-6,6h-45.3c-8.492,0-15.4,6.908-15.4,15.4v45.3
		C96.15,159.914,93.464,162.6,90.15,162.6z"/>
</g>
</svg>
