<?xml version="1.0" encoding="utf-8"?>
<!-- Generator: Adobe Illustrator 27.5.0, SVG Export Plug-In . SVG Version: 6.00 Build 0)  -->
<svg version="1.1" id="Layer_1" xmlns="http://www.w3.org/2000/svg" xmlns:xlink="http://www.w3.org/1999/xlink" x="0px" y="0px"
	 viewBox="0 0 500 500" style="enable-background:new 0 0 500 500;" xml:space="preserve">
<style type="text/css">
	.st0{fill:#FFFFFF;}
	.st1{display:none;fill:none;stroke:#FFFFFF;stroke-width:12;stroke-linecap:round;stroke-linejoin:round;}
	.st2{fill:none;stroke:#FFFFFF;stroke-width:12;stroke-linecap:round;stroke-linejoin:round;}
</style>
<g>
	<g>
		<path class="st0" d="M374,418.2h-66.6c-3.3,0-6-2.7-6-6v-92.5c0-3.3,2.7-6,6-6H374c3.3,0,6,2.7,6,6v92.5
			C380,415.5,377.3,418.2,374,418.2z M313.4,406.2H368v-80.5h-54.6V406.2z M281.5,418.2h-66.6c-3.3,0-6-2.7-6-6V245.7
			c0-3.3,2.7-6,6-6h66.6c3.3,0,6,2.7,6,6v166.5C287.5,415.5,284.8,418.2,281.5,418.2z M220.9,406.2h54.6V251.7h-54.6V406.2z
			 M189,418.1h-66.6c-3.3,0-6-2.7-6-6V171.9c0-3.3,2.7-6,6-6H189c3.3,0,6,2.7,6,6v240.2C195,415.4,192.3,418.1,189,418.1z
			 M128.4,406.1H183V177.9h-54.6V406.1z"/>
	</g>
	<g>
		<path class="st0" d="M407.2,418.1H89.1c-3.3,0-6-2.7-6-6V134.6c0-3.3,2.7-6,6-6s6,2.7,6,6v271.5h312.1c3.3,0,6,2.7,6,6
			S410.5,418.1,407.2,418.1z"/>
	</g>
	<g>
		<path class="st0" d="M373.2,285.2c-0.6,0-1.3-0.1-1.9-0.3L334.8,273c-3.2-1-4.9-4.4-3.8-7.6c1-3.2,4.4-4.9,7.6-3.8l30.8,10
			l10-30.8c1-3.2,4.4-4.9,7.6-3.8c3.2,1,4.9,4.4,3.8,7.6l-11.9,36.5c-0.5,1.5-1.6,2.8-3,3.5C375.1,285,374.1,285.2,373.2,285.2z"/>
	</g>
	<g>
		<path class="st0" d="M373.1,283.1c-2.2,0-4.3-1.2-5.3-3.2c-28.3-54.3-75.2-95.5-139.4-122.4c-50.9-21.3-95.7-26.1-107.4-26.1
			c-3.3,0-6-2.7-6-6s2.7-6,6-6c12.3,0,59.3,5,112.1,27c29.6,12.4,56.2,28.2,79.1,46.9c27.9,22.8,50.2,50.1,66.3,81
			c1.5,2.9,0.4,6.6-2.5,8.1C375,282.9,374,283.1,373.1,283.1z"/>
	</g>
	<g>
		<g>
			<g>
				<g>
					<g>
						<path class="st1" d="M0,500"/>
					</g>
				</g>
			</g>
		</g>
		<g>
			<g>
				<g>
					<g>
						<path class="st2" d="M0,500"/>
					</g>
				</g>
			</g>
		</g>
		<g>
			<g>
				<g>
					<g>
						<path class="st2" d="M0,500"/>
					</g>
				</g>
			</g>
		</g>
		<g>
			<g>
				<g>
					<g>
						<path class="st2" d="M0,500"/>
					</g>
				</g>
			</g>
		</g>
		<g>
			<g>
				<g>
					<g>
						<path class="st2" d="M0,500"/>
					</g>
				</g>
			</g>
		</g>
		<g>
			<g>
				<g>
					<g>
						<path class="st2" d="M0,500"/>
					</g>
				</g>
			</g>
		</g>
		<g>
			<g>
				<g>
					<g>
						<path class="st2" d="M0,500"/>
					</g>
				</g>
			</g>
		</g>
		<g>
			<g>
				<g>
					<g>
						<path class="st2" d="M0,500"/>
					</g>
				</g>
			</g>
		</g>
		<g>
			<g>
				<g>
					<g>
						<path class="st2" d="M0,500"/>
					</g>
				</g>
			</g>
		</g>
		<g>
			<g>
				<g>
					<g>
						<path class="st2" d="M0,500"/>
					</g>
				</g>
			</g>
		</g>
		<g>
			<g>
				<g>
					<g>
						<path class="st2" d="M0,500"/>
					</g>
				</g>
			</g>
		</g>
		<g>
			<g>
				<g>
					<g>
						<path class="st2" d="M0,500"/>
					</g>
				</g>
			</g>
		</g>
	</g>
</g>
</svg>
