<?xml version="1.0" encoding="utf-8"?>
<!-- Generator: Adobe Illustrator 27.5.0, SVG Export Plug-In . SVG Version: 6.00 Build 0)  -->
<svg version="1.1" id="Layer_1" xmlns="http://www.w3.org/2000/svg" xmlns:xlink="http://www.w3.org/1999/xlink" x="0px" y="0px"
	 viewBox="0 0 500 500" style="enable-background:new 0 0 500 500;" xml:space="preserve">
<style type="text/css">
	.st0{fill:#FFFFFF;}
	.st1{display:none;fill:none;stroke:#FFFFFF;stroke-width:12;stroke-linecap:round;stroke-linejoin:round;}
	.st2{fill:none;stroke:#FFFFFF;stroke-width:12;stroke-linecap:round;stroke-linejoin:round;}
</style>
<g>
	<path class="st0" d="M328.1,192.9c-2,0-4-1-5.2-2.9L277,112.8l-33.5,22c-1.4,0.9-3,1.2-4.5,0.9l29,48c1.7,2.8,0.8,6.5-2,8.2
		s-6.5,0.8-8.2-2l-55.5-91.8l-90.4,58.1l15.6,26.3c1.7,2.8,0.8,6.5-2.1,8.2c-2.8,1.7-6.5,0.8-8.2-2.1l-18.6-31.3
		c-1.7-2.8-0.8-6.4,1.9-8.1L201,84.6c1.4-0.9,3-1.2,4.6-0.8c1.6,0.4,2.9,1.4,3.8,2.7l25.1,41.5c0.4-1.3,1.2-2.5,2.5-3.3l38.7-25.5
		c1.4-0.9,3-1.2,4.6-0.8c1.6,0.4,3,1.4,3.8,2.8l28.3,47.6c0.5-0.7,1.1-1.3,1.8-1.8l40.6-26.2c1.4-0.9,3.1-1.2,4.7-0.8
		c1.6,0.4,3,1.4,3.8,2.8l34.3,59.9c1.6,2.9,0.7,6.5-2.2,8.2c-2.9,1.6-6.5,0.6-8.2-2.2L356,134.3L320.8,157c-0.9,0.6-1.9,0.9-2.9,0.9
		l15.4,25.8c1.7,2.8,0.8,6.5-2.1,8.2C330.2,192.6,329.1,192.9,328.1,192.9z"/>
</g>
<g>
	<g>
		<path class="st0" d="M168.2,375.3c-2.7,0-5.2-1.9-5.8-4.6l-26.1-109.6c-0.8-3.2,1.2-6.5,4.4-7.2c3.2-0.8,6.5,1.2,7.2,4.4
			L174,367.9c0.8,3.2-1.2,6.5-4.4,7.2C169.1,375.2,168.7,375.3,168.2,375.3z M295.3,375.2c-0.2,0-0.5,0-0.7,0
			c-3.3-0.4-5.6-3.4-5.2-6.7l10.9-90.9c0.4-3.3,3.4-5.6,6.7-5.2c3.3,0.4,5.6,3.4,5.2,6.7L301.3,370
			C300.9,373,298.3,375.2,295.3,375.2z M252,375.2L252,375.2c-3.3,0-6-2.7-6-6l0.4-78.8c0-3.3,2.7-6,6-6l0,0c3.3,0,6,2.7,6,6
			l-0.4,78.8C258,372.5,255.3,375.2,252,375.2z M336.2,375.1c-0.5,0-0.9-0.1-1.4-0.2c-3.2-0.8-5.2-4-4.5-7.2l25.9-109.5
			c0.8-3.2,4-5.2,7.2-4.5c3.2,0.8,5.2,4,4.5,7.2L342,370.5C341.4,373.2,338.9,375.1,336.2,375.1z M209.3,374.4c-3,0-5.6-2.2-5.9-5.3
			l-11.1-88.4c-0.4-3.3,1.9-6.3,5.2-6.7c3.3-0.4,6.3,1.9,6.7,5.2l11.1,88.4c0.4,3.3-1.9,6.3-5.2,6.7
			C209.8,374.4,209.5,374.4,209.3,374.4z M250.8,258.2c-9.3,0-16.8-7.5-16.8-16.8c0-7.6,5.1-14,12-16.1l0.3-133.9c0-3.3,2.7-6,6-6
			l0,0c3.3,0,6,2.7,6,6L258,226.2c5.7,2.7,9.6,8.5,9.6,15.2C267.6,250.7,260.1,258.2,250.8,258.2z M246.9,238.6
			c-0.6,0.8-0.9,1.8-0.9,2.8c0,2.7,2.1,4.8,4.8,4.8s4.8-2.1,4.8-4.8c0-0.4,0-0.8-0.1-1.1c-1,0.7-2.2,1.1-3.5,1.1l0,0
			C249.8,241.4,248,240.3,246.9,238.6z"/>
	</g>
	<g>
		<path class="st0" d="M250.8,230.6c5.9,0,10.8,4.8,10.8,10.8s-4.8,10.8-10.8,10.8s-10.8-4.8-10.8-10.8S244.9,230.6,250.8,230.6z
			 M252,235.4l0.3-144"/>
	</g>
	<g>
		<path class="st0" d="M347.5,413.3H154.2c-14.6,0-29.3-10.9-33.4-24.9L75.4,236.5c-9.2-1.3-16.3-9.2-16.3-18.7v-17.2
			c0-10.4,8.5-18.9,18.9-18.9h344c10.4,0,18.9,8.5,18.9,18.9v17.2c0,9.6-7.2,17.5-16.5,18.7l-43.7,151.7
			C376.7,402.3,362.1,413.3,347.5,413.3z M88,236.7L132.2,385c2.6,8.8,12.7,16.3,22,16.3h193.3c9.2,0,19.2-7.5,21.7-16.4l42.7-148.2
			H88z M421,224.7h1c3.8,0,6.9-3.1,6.9-6.9v-17.2c0-3.8-3.1-6.9-6.9-6.9H78c-3.8,0-6.9,3.1-6.9,6.9v17.2c0,3.8,3.1,6.9,6.9,6.9
			h340.8C419.5,224.6,420.3,224.6,421,224.7z"/>
	</g>
</g>
<g>
	<g>
		<path class="st1" d="M0,500"/>
	</g>
	<g>
		<path class="st2" d="M0,500"/>
	</g>
	<g>
		<path class="st2" d="M0,500"/>
	</g>
	<g>
		<path class="st2" d="M0,500"/>
	</g>
	<g>
		<path class="st2" d="M0,500"/>
	</g>
	<g>
		<path class="st2" d="M0,500"/>
	</g>
	<g>
		<path class="st2" d="M0,500"/>
	</g>
	<g>
		<path class="st2" d="M0,500"/>
	</g>
	<g>
		<path class="st2" d="M0,500"/>
	</g>
	<g>
		<path class="st2" d="M0,500"/>
	</g>
	<g>
		<path class="st2" d="M0,500"/>
	</g>
	<g>
		<path class="st2" d="M0,500"/>
	</g>
</g>
</svg>
