<?xml version="1.0" encoding="utf-8"?>
<!-- Generator: Adobe Illustrator 27.5.0, SVG Export Plug-In . SVG Version: 6.00 Build 0)  -->
<svg version="1.1" id="Layer_1" xmlns="http://www.w3.org/2000/svg" xmlns:xlink="http://www.w3.org/1999/xlink" x="0px" y="0px"
	 viewBox="0 0 500 500" style="enable-background:new 0 0 500 500;" xml:space="preserve">
<style type="text/css">
	.st0{clip-path:url(#SVGID_00000030479915072496564280000000773334309943606702_);}
	.st1{fill:#FFFFFF;}
</style>
<g>
	<g>
		<g>
			<g>
				<defs>
					<rect id="SVGID_1_" width="500" height="500"/>
				</defs>
				<clipPath id="SVGID_00000175321661010534292410000009937318139485152898_">
					<use xlink:href="#SVGID_1_"  style="overflow:visible;"/>
				</clipPath>
				<g style="clip-path:url(#SVGID_00000175321661010534292410000009937318139485152898_);">
					<g>
						<path class="st1" d="M333.2,400.4c-18.6,0-33.8-15.2-33.8-33.8c0-8.3,3-15.9,8-21.8H194.9c5,5.9,8,13.5,8,21.8
							c0,18.6-15.2,33.8-33.8,33.8s-33.8-15.2-33.8-33.8c0-9,3.5-17.2,9.3-23.3c-6.7-2-10-5.7-11.6-9c-2.7-5.8-1.5-13,3.3-18.9
							c5.2-6.4,15.1-7.8,16.2-8c3.3-0.4,6.3,1.9,6.7,5.2c0.4,3.3-1.9,6.3-5.2,6.7c-2.6,0.4-6.9,1.7-8.4,3.6
							c-1.8,2.2-2.5,4.7-1.8,6.2c0.8,1.8,4.5,3.6,12.2,3.6h175.3c0.2,0,0.4,0,0.5,0c0.4,0,0.8,0,1.3,0c18.6,0,33.8,15.2,33.8,33.8
							S351.8,400.4,333.2,400.4z M333.2,344.8c-12,0-21.8,9.8-21.8,21.8s9.8,21.8,21.8,21.8s21.8-9.8,21.8-21.8
							S345.2,344.8,333.2,344.8z M169.1,344.8c-12,0-21.8,9.8-21.8,21.8s9.8,21.8,21.8,21.8s21.8-9.8,21.8-21.8
							S181.1,344.8,169.1,344.8z"/>
					</g>
					<g>
						<path class="st1" d="M141,325.2c-1.3,0-2.7-0.4-3.8-1.3c-2.6-2.1-3-5.9-0.9-8.4c3.1-3.9,6.3-5.3,9-5.4l-27-160.2
							c-0.7-1-1.1-2.2-1.1-3.4c0-0.5,0.1-1,0.2-1.5c-3.4-16.2-14.7-29.5-25.3-29.5H66.8c-3.3,0-6-2.7-6-6s2.7-6,6-6h25.4
							c16,0,31.4,15.9,36.6,37h282.6c2.4,0,4.6,1.1,6,3c1.6,2.1,2,5,1.2,7.8L407.4,190l-18.8,64.7c-6.4,22.1-29.3,41.4-52.2,44
							l-145.7,16.6c-21.5,2.4-38.4,5.5-41.1,6.6c-1.1,0.5-2.2,0.7-3.3,0.5c-0.2,0.2-0.4,0.4-0.6,0.7
							C144.5,324.4,142.7,325.2,141,325.2z M143.4,321L143.4,321L143.4,321z M131,152.4l26.1,155.4c9.8-1.8,22.8-3.5,32.2-4.6
							L335,286.6c17.8-2,37-18.2,42-35.4l18.8-64.7l9.9-34.1L131,152.4L131,152.4z M411.4,152.4L411.4,152.4L411.4,152.4z
							 M407,147.8L407,147.8L407,147.8z"/>
					</g>
					<g>
						<path class="st1" d="M263.2,268L263.2,268C263.1,268,263.1,268,263.2,268c-0.9,0-1.6-0.2-2.3-0.5c-0.7-0.3-1.4-0.7-1.9-1.3
							l-34.9-34.8c-2.3-2.3-2.4-6.1,0-8.5c2.3-2.3,6.1-2.4,8.5,0l24.7,24.6v-62.2c0-3.3,2.7-6,6-6s6,2.7,6,6v62.2l24.6-24.5
							c2.3-2.3,6.1-2.3,8.5,0c2.3,2.3,2.3,6.1,0,8.5l-34.8,34.7c-0.6,0.6-1.2,1-1.9,1.3C264.8,267.8,264.1,268,263.2,268
							C263.3,268,263.3,268,263.2,268C263.3,268,263.2,268,263.2,268z"/>
					</g>
				</g>
			</g>
		</g>
	</g>
</g>
</svg>
