<?xml version="1.0" encoding="utf-8"?>
<!-- Generator: Adobe Illustrator 27.5.0, SVG Export Plug-In . SVG Version: 6.00 Build 0)  -->
<svg version="1.1" id="Layer_1" xmlns="http://www.w3.org/2000/svg" xmlns:xlink="http://www.w3.org/1999/xlink" x="0px" y="0px"
	 viewBox="0 0 500 500" style="enable-background:new 0 0 500 500;" xml:space="preserve">
<style type="text/css">
	.st0{fill:#FFFFFF;}
	.st1{display:none;fill:none;stroke:#FFFFFF;stroke-width:12.04;stroke-linecap:round;stroke-linejoin:round;}
	.st2{fill:none;stroke:#FFFFFF;stroke-width:12.04;stroke-linecap:round;stroke-linejoin:round;}
</style>
<g>
	<g>
		<g>
			<path class="st0" d="M250.5,431c-25.5,0-44.5-25.9-44.5-49.1c0-3.3,2.7-6,6-6s6,2.7,6,6c0,17.2,14.2,37.1,32.5,37.1
				s32.5-19.9,32.5-37.1c0-3.3,2.7-6,6-6s6,2.7,6,6C295,405.1,276,431,250.5,431z"/>
		</g>
		<g>
			<path class="st0" d="M294.2,382.5H105.8c-2.2,0-4.2-1.2-5.2-3.1c-1.7-3.1-0.6-4.9,2-9.3c1.3-2.1,3.1-5.1,5.4-8.8
				c4.5-7.4,10.8-17.6,17.7-28.8c13.8-22.6,21.9-36,24.2-39.9l-0.4-87.5c-0.1-23.7,9.4-46.4,26.8-63.9
				c19.2-19.3,46.5-30.3,74.9-30.3c56.3,0,102.1,41.6,102.1,92.7l0,0l-0.1,85.9c2.3,4.3,11.1,20.5,22.7,41.5
				c7.9,14.1,15.8,28.5,23.5,42.5c0.9,1.6,1,3.5,0.3,5.2c-1.5,3.7-4.9,3.7-7.5,3.8c-1.3,0-3.3,0-5.9,0c-5.1,0-12.4,0-21.4,0
				C346.7,382.5,321.8,382.5,294.2,382.5z M116.4,370.5h177.8c38.7,0,73.4,0,89.8,0c-6.1-11.2-12.4-22.5-18.6-33.6
				c-24.2-43.8-24.2-43.9-24.2-45.9l0.1-87.3c0-44.5-40.4-80.7-90.1-80.7c-25.2,0-49.4,9.8-66.4,26.8
				c-15.1,15.2-23.4,34.8-23.3,55.4l0.4,89c0,2,0,2-8.2,15.6c-4,6.7-9.8,16.2-17.7,29.1C127.6,352.3,120.8,363.4,116.4,370.5z
				 M347.3,203.6L347.3,203.6L347.3,203.6z"/>
		</g>
		<g>
			<path class="st0" d="M266.7,122.9c-3.3,0-6-2.7-6-6V90.7c0-2.5-4.1-5.2-9.5-5.2c-5.8,0-9.5,3-9.5,5.1v26.3c0,3.3-2.7,6-6,6
				s-6-2.7-6-6V90.6c0-9.6,9.4-17.1,21.5-17.1s21.5,7.6,21.5,17.2v26.2C272.7,120.2,270,122.9,266.7,122.9z"/>
		</g>
	</g>
	<g>
		<path class="st1" d="M0,500"/>
		<path class="st2" d="M0,500"/>
		<path class="st2" d="M0,500"/>
		<path class="st2" d="M0,500"/>
		<path class="st2" d="M0,500"/>
		<path class="st2" d="M0,500"/>
		<path class="st2" d="M0,500"/>
		<path class="st2" d="M0,500"/>
		<path class="st2" d="M0,500"/>
		<path class="st2" d="M0,500"/>
		<path class="st2" d="M0,500"/>
		<path class="st2" d="M0,500"/>
	</g>
</g>
</svg>
