<?xml version="1.0" encoding="utf-8"?>
<!-- Generator: Adobe Illustrator 27.5.0, SVG Export Plug-In . SVG Version: 6.00 Build 0)  -->
<svg version="1.1" id="Layer_1" xmlns="http://www.w3.org/2000/svg" xmlns:xlink="http://www.w3.org/1999/xlink" x="0px" y="0px"
	 viewBox="0 0 500 500" style="enable-background:new 0 0 500 500;" xml:space="preserve">
<style type="text/css">
	.st0{fill:#FFFFFF;}
</style>
<g>
	<g>
		<path class="st0" d="M235.4,362.8c-10.1,0-20.1-4.8-27.5-13.5c-9.5-11.2-12.4-26.3-7.4-38.6c6.4-15.7,20.5-27.6,34.2-39
			c9.9-8.3,19.3-16.2,25.4-25.1c1.2-1.7,3.2-2.7,5.3-2.6c2.1,0.1,4,1.4,4.9,3.2c11.8,22.9,17.9,61.2,5.9,87.3
			c-6.6,14.4-18.2,23.8-33.4,27.4C240.3,362.5,237.8,362.8,235.4,362.8z M263.5,261.4c-6.3,6.9-13.8,13.3-21.2,19.4
			c-12.5,10.5-25.5,21.4-30.8,34.4c-3.3,8.1-1.2,18.4,5.5,26.2c6.3,7.4,14.9,10.6,23,8.8c11.7-2.7,20.2-9.7,25.3-20.7
			C274.1,310.6,271.4,282.1,263.5,261.4z"/>
	</g>
	<g>
		<path class="st0" d="M199.4,360.6c-1.1,0-2.2-0.1-3.4-0.2c-3.3-0.3-5.7-3.3-5.3-6.6c0.3-3.3,3.3-5.7,6.6-5.3
			c19.1,2,32-25.2,32.1-25.5c1.4-3,5-4.3,8-2.9s4.3,4.9,2.9,8C239.7,329.5,225,360.6,199.4,360.6z"/>
	</g>
	<g>
		<path class="st0" d="M382.3,416.1H91.2c-3.3,0-6-2.7-6-6s2.7-6,6-6h40.2v-279c0-22.7,18.5-41.2,41.2-41.2h128.2
			c22.7,0,41.2,18.5,41.2,41.2v279h40.3c3.3,0,6,2.7,6,6S385.6,416.1,382.3,416.1z M143.4,404.1H330v-279
			c0-16.1-13.1-29.2-29.2-29.2H172.6c-16.1,0-29.2,13.1-29.2,29.2L143.4,404.1L143.4,404.1z"/>
	</g>
	<g>
		<path class="st0" d="M290.7,215.9h-108c-11.4,0-20.6-9.2-20.6-20.6v-58.1c0-11.4,9.2-20.6,20.6-20.6h108
			c11.4,0,20.6,9.2,20.6,20.6v58.1C311.3,206.7,302.1,215.9,290.7,215.9z M182.7,128.6c-4.8,0-8.6,3.8-8.6,8.6v58.1
			c0,4.8,3.8,8.6,8.6,8.6h108c4.8,0,8.6-3.8,8.6-8.6v-58.1c0-4.8-3.8-8.6-8.6-8.6H182.7z"/>
	</g>
	<g>
		<path class="st0" d="M359,351.3c-13.1,0-24.4-4.2-25.1-4.5c-3.1-1.2-4.6-4.7-3.4-7.8c1.2-3.1,4.7-4.6,7.8-3.4
			c0.2,0.1,24.1,9,38.5-0.9c7.7-5.3,11.6-15.6,11.7-30.5l-0.4-21.8c-0.1-3.3,2.6-6,5.9-6.1h0.1c3.3,0,5.9,2.6,6,5.9l0.4,21.9v0.1
			c0,19.1-5.7,32.8-16.9,40.5C375.9,349.7,367.1,351.3,359,351.3z"/>
	</g>
	<g>
		<path class="st0" d="M404.4,286L404.4,286l-23.3-0.1c-3.3,0-6-2.7-6-6l0.2-49.8L360.4,204c-1.6-2.9-0.6-6.5,2.2-8.2l13-7.5
			c-8.7-21.9-43-48.2-43.4-48.5c-2.6-2-3.2-5.8-1.2-8.4c2-2.6,5.8-3.2,8.4-1.2c1.6,1.2,35.7,27.3,46.6,52l13.9-7.9
			c2.9-1.6,6.5-0.6,8.2,2.2l23,40.1c0.8,1.4,1,3,0.6,4.6s-1.4,2.8-2.8,3.6l-18.4,10.5l-0.2,44.6c0,1.6-0.6,3.1-1.8,4.2
			C407.5,285.4,406,286,404.4,286z M387.1,273.9h11.3l0.2-42.1c0-2.1,1.2-4.1,3-5.2l16.2-9.2l-17-29.7l-27,15.4l12.7,22.3
			c0.5,0.9,0.8,1.9,0.8,3L387.1,273.9z M236.9,187.2c-1.5,0-3.1-0.6-4.2-1.8l-0.3-0.3c-0.3-0.3-0.6-0.7-0.8-1L202.5,155
			c-2.3-2.3-2.3-6.1,0-8.5s6.1-2.3,8.5,0l30.3,30.3c2.3,2.3,2.3,6.1,0,8.5c0,0,0,0-0.1,0.1c0,0,0,0-0.1,0.1
			C240,186.6,238.4,187.2,236.9,187.2z"/>
	</g>
</g>
</svg>
