<?xml version="1.0" encoding="utf-8"?>
<!-- Generator: Adobe Illustrator 27.5.0, SVG Export Plug-In . SVG Version: 6.00 Build 0)  -->
<svg version="1.1" id="Layer_1" xmlns="http://www.w3.org/2000/svg" xmlns:xlink="http://www.w3.org/1999/xlink" x="0px" y="0px"
	 viewBox="0 0 500 500" style="enable-background:new 0 0 500 500;" xml:space="preserve">
<style type="text/css">
	.st0{clip-path:url(#SVGID_00000158742711219030349600000003203140010512938168_);}
	.st1{opacity:0;clip-path:url(#SVGID_00000010312275732504899930000008789033937839630506_);}
	.st2{fill:#FFFFFF;}
	.st3{clip-path:url(#SVGID_00000001662058280105378810000007840842269178704310_);}
	.st4{fill:none;stroke:#FFFFFF;stroke-width:12;stroke-linecap:round;stroke-linejoin:round;}
</style>
<g>
	<g>
		<g>
			<g>
				<defs>
					<rect id="SVGID_1_" width="500" height="500"/>
				</defs>
				<clipPath id="SVGID_00000147199473363376613000000016742467925107892100_">
					<use xlink:href="#SVGID_1_"  style="overflow:visible;"/>
				</clipPath>
				<g style="clip-path:url(#SVGID_00000147199473363376613000000016742467925107892100_);">
					<g>
						<g>
							<g>
								<g>
									<defs>
										<rect id="SVGID_00000124124633062007450700000000815955056115952515_" width="500" height="500"/>
									</defs>
									<clipPath id="SVGID_00000013181046078599590330000010410165797494903441_">
										<use xlink:href="#SVGID_00000124124633062007450700000000815955056115952515_"  style="overflow:visible;"/>
									</clipPath>
									<g style="opacity:0;clip-path:url(#SVGID_00000013181046078599590330000010410165797494903441_);">
										<g>
											<g>
												<path class="st2" d="M236.8,336c-14.4,0-28.4-6.8-39.1-19.3C184.2,300.8,180,279.3,187,262
													c9.4-22.8,30.2-40.4,50.4-57.4c15-12.6,29.2-24.5,38.7-38.2c1.2-1.7,3.2-2.7,5.3-2.6c2.1,0.1,4,1.4,4.9,3.2
													c17.4,33.7,26.4,90.2,8.7,128.4c-9.5,20.6-26.2,34.2-48.1,39.3C243.6,335.6,240.2,336,236.8,336z M279.8,181.4
													c-9.9,11.7-22.4,22.2-34.6,32.5c-19.1,16-38.8,32.6-47,52.7c-5.4,13.2-2,29.8,8.7,42.4c10.2,12,24.2,17.3,37.5,14.2
													c18.4-4.3,31.9-15.2,39.9-32.6C298.4,259.9,293.3,213.3,279.8,181.4z"/>
											</g>
											<g>
												<path class="st2" d="M182.6,332.9c-1.5,0-3-0.1-4.6-0.2c-3.3-0.3-5.7-3.3-5.4-6.6c0.3-3.3,3.3-5.7,6.6-5.4
													c31,3.1,51-39.5,51.2-39.9c1.4-3,5-4.3,8-2.9s4.3,5,2.9,8C240.4,287.8,219.2,332.9,182.6,332.9z"/>
											</g>
										</g>
										<g>
											<g>
												<path class="st2" d="M250.4,402.7c-4.3,0-8.7-0.2-13.1-0.6c-69.5-5.8-126.2-57.8-137.9-126.5c-0.6-3.3,1.6-6.4,4.9-6.9
													c3.3-0.6,6.4,1.6,6.9,4.9C122,337,174.3,384.9,238.3,390.2c77.3,6.5,145.5-51.1,152-128.5c0.3-3.3,3.2-5.8,6.5-5.5
													c3.3,0.3,5.8,3.2,5.5,6.5c-3.4,40.7-22.5,77.6-53.6,103.9C320.9,390.1,286.4,402.7,250.4,402.7z M103.7,243.8
													c-0.2,0-0.3,0-0.5,0c-3.3-0.3-5.8-3.2-5.5-6.5c7.1-84,81.1-146.5,165-139.5c69.5,5.8,126.2,57.8,137.9,126.5
													c0.6,3.3-1.6,6.4-4.9,6.9c-3.3,0.6-6.4-1.6-6.9-4.9C378,163,325.7,115.1,261.7,109.8c-77.3-6.5-145.5,51.1-152,128.5
													C109.4,241.4,106.8,243.8,103.7,243.8z"/>
											</g>
											<g>
												<path class="st2" d="M421.1,301.8c-1.8,0-3.7-0.8-4.8-2.4L395,270.7l-28.8,21.2c-2.7,2-6.4,1.4-8.4-1.3
													c-2-2.7-1.4-6.4,1.3-8.4l33.6-24.7c2.7-2,6.4-1.4,8.4,1.3l24.8,33.5c2,2.7,1.4,6.4-1.3,8.4
													C423.6,301.4,422.3,301.8,421.1,301.8z M103.7,243.7c-1.8,0-3.7-0.8-4.8-2.4l-24.8-33.5c-2-2.7-1.4-6.4,1.3-8.4
													c2.7-2,6.4-1.4,8.4,1.3l21.2,28.7l28.7-21.2c2.7-2,6.4-1.4,8.4,1.3s1.4,6.4-1.3,8.4l-33.5,24.8
													C106.2,243.3,104.9,243.7,103.7,243.7z"/>
											</g>
										</g>
									</g>
								</g>
							</g>
						</g>
					</g>
					<g>
						<g>
							<g>
								<g>
									<defs>
										<rect id="SVGID_00000019656967570409425300000003274813621255371176_" width="500" height="500"/>
									</defs>
									<clipPath id="SVGID_00000067236899890761028770000017289819041272222081_">
										<use xlink:href="#SVGID_00000019656967570409425300000003274813621255371176_"  style="overflow:visible;"/>
									</clipPath>
									<g style="clip-path:url(#SVGID_00000067236899890761028770000017289819041272222081_);">
										<g>
											<g>
												<path class="st2" d="M236.8,336c-14.4,0-28.4-6.8-39.1-19.3C184.2,300.8,180,279.3,187,262
													c9.4-22.8,30.2-40.4,50.4-57.4c15-12.6,29.2-24.5,38.7-38.2c1.2-1.7,3.2-2.7,5.3-2.6c2.1,0.1,4,1.4,4.9,3.2
													c17.4,33.7,26.4,90.2,8.7,128.4c-9.5,20.6-26.2,34.2-48.1,39.3C243.6,335.6,240.2,336,236.8,336z M279.8,181.4
													c-9.9,11.7-22.4,22.2-34.6,32.5c-19.1,16-38.8,32.6-47,52.7c-5.4,13.2-2,29.8,8.7,42.4c10.2,12,24.2,17.3,37.5,14.2
													c18.4-4.3,31.9-15.2,39.9-32.6C298.4,259.9,293.3,213.3,279.8,181.4z"/>
											</g>
											<g>
												<path class="st2" d="M182.6,332.9c-1.5,0-3-0.1-4.6-0.2c-3.3-0.3-5.7-3.3-5.4-6.6c0.3-3.3,3.3-5.7,6.6-5.4
													c31,3.1,51-39.5,51.2-39.9c1.4-3,5-4.3,8-2.9s4.3,5,2.9,8C240.4,287.8,219.2,332.9,182.6,332.9z"/>
											</g>
										</g>
										<g>
											<g>
												<path class="st2" d="M250.4,402.7c-4.3,0-8.7-0.2-13.1-0.6c-69.5-5.8-126.2-57.8-137.9-126.5c-0.6-3.3,1.6-6.4,4.9-6.9
													c3.3-0.6,6.4,1.6,6.9,4.9C122,337,174.3,384.9,238.3,390.2c77.3,6.5,145.5-51.1,152-128.5c0.3-3.3,3.2-5.8,6.5-5.5
													c3.3,0.3,5.8,3.2,5.5,6.5c-3.4,40.7-22.5,77.6-53.6,103.9C320.9,390.1,286.4,402.7,250.4,402.7z M103.7,243.8
													c-0.2,0-0.3,0-0.5,0c-3.3-0.3-5.8-3.2-5.5-6.5c7.1-84,81.1-146.5,165-139.5c69.5,5.8,126.2,57.8,137.9,126.5
													c0.6,3.3-1.6,6.4-4.9,6.9c-3.3,0.6-6.4-1.6-6.9-4.9C378,163,325.7,115.1,261.7,109.8c-77.3-6.5-145.5,51.1-152,128.5
													C109.4,241.4,106.8,243.8,103.7,243.8z"/>
											</g>
											<g>
												<path class="st2" d="M421.1,301.8c-1.8,0-3.7-0.8-4.8-2.4L395,270.7l-28.8,21.2c-2.7,2-6.4,1.4-8.4-1.3
													c-2-2.7-1.4-6.4,1.3-8.4l33.6-24.7c2.7-2,6.4-1.4,8.4,1.3l24.8,33.5c2,2.7,1.4,6.4-1.3,8.4
													C423.6,301.4,422.3,301.8,421.1,301.8z M103.7,243.7c-1.8,0-3.7-0.8-4.8-2.4l-24.8-33.5c-2-2.7-1.4-6.4,1.3-8.4
													c2.7-2,6.4-1.4,8.4,1.3l21.2,28.7l28.7-21.2c2.7-2,6.4-1.4,8.4,1.3s1.4,6.4-1.3,8.4l-33.5,24.8
													C106.2,243.3,104.9,243.7,103.7,243.7z"/>
											</g>
										</g>
									</g>
								</g>
							</g>
						</g>
					</g>
					<g>
						<path class="st4" d="M0,500"/>
					</g>
				</g>
			</g>
		</g>
	</g>
</g>
</svg>
