<?xml version="1.0" encoding="utf-8"?>
<!-- Generator: Adobe Illustrator 27.5.0, SVG Export Plug-In . SVG Version: 6.00 Build 0)  -->
<svg version="1.1" id="Layer_1" xmlns="http://www.w3.org/2000/svg" xmlns:xlink="http://www.w3.org/1999/xlink" x="0px" y="0px"
	 viewBox="0 0 500 500" style="enable-background:new 0 0 500 500;" xml:space="preserve">
<style type="text/css">
	.st0{clip-path:url(#SVGID_00000152244036861917632870000006076368980886923697_);}
	.st1{fill:#FFFFFF;}
	.st2{fill:none;stroke:#FFFFFF;stroke-width:12;stroke-linecap:round;stroke-linejoin:round;}
</style>
<g>
	<g>
		<g>
			<g>
				<defs>
					<rect id="SVGID_1_" width="500" height="500"/>
				</defs>
				<clipPath id="SVGID_00000114041382829163950060000011692133871753487034_">
					<use xlink:href="#SVGID_1_"  style="overflow:visible;"/>
				</clipPath>
				<g style="clip-path:url(#SVGID_00000114041382829163950060000011692133871753487034_);">
					<g>
						<path class="st1" d="M345,389.5c-3.3,0-6-2.7-6-6v-31.3h-21c-3.3,0-6-2.7-6-6v-68.6h-21c-3.3,0-6-2.7-6-6v-31.3h-21
							c-3.3,0-6-2.7-6-6V203h-15v31.3c0,3.3-2.7,6-6,6h-21v31.3c0,3.3-2.7,6-6,6h-21v68.6c0,3.3-2.7,6-6,6h-21v31.3
							c0,1.6-0.6,3.1-1.8,4.2c-1.1,1.1-2.6,1.8-4.2,1.8l0,0l-31-0.1c-3.3,0-6-2.7-6-6s2.7-6,6-6l0,0l25,0.1v-31.3c0-3.3,2.7-6,6-6
							h21v-68.6c0-3.3,2.7-6,6-6h21v-31.3c0-3.3,2.7-6,6-6h21V197c0-3.3,2.7-6,6-6h27c3.3,0,6,2.7,6,6v31.3h21c3.3,0,6,2.7,6,6v31.3
							h21c3.3,0,6,2.7,6,6v68.6h21c3.3,0,6,2.7,6,6v37.3C351,386.8,348.3,389.5,345,389.5z"/>
					</g>
					<g>
						<path class="st1" d="M436.8,389.5c-50.7,0-75.3-60.6-99-119.2c-22.2-54.9-45.2-111.8-87.8-111.8c-42.7,0-65.6,56.8-87.8,111.7
							c-23.7,58.6-48.2,119.3-99,119.3c-3.3,0-6-2.7-6-6s2.7-6,6-6c42.7,0,65.6-56.8,87.8-111.7c23.7-58.6,48.2-119.3,99-119.3
							c50.7,0,75.3,60.6,99,119.3c22.2,54.9,45.2,111.7,87.8,111.7c3.3,0,6,2.7,6,6S440.1,389.5,436.8,389.5z"/>
					</g>
					<g>
						<path class="st1" d="M63.2,389.5c-3.3,0-6-2.7-6-6V116.6c0-3.3,2.7-6,6-6s6,2.7,6,6v266.9C69.2,386.8,66.5,389.5,63.2,389.5z"
							/>
					</g>
					<g>
						<path class="st1" d="M436.8,389.4H63.2c-3.3,0-6-2.7-6-6s2.7-6,6-6h373.6c3.3,0,6,2.7,6,6S440.1,389.4,436.8,389.4z"/>
					</g>
					<g>
						<path class="st2" d="M0,500"/>
					</g>
				</g>
			</g>
		</g>
	</g>
</g>
</svg>
