<?xml version="1.0" encoding="utf-8"?>
<!-- Generator: Adobe Illustrator 27.5.0, SVG Export Plug-In . SVG Version: 6.00 Build 0)  -->
<svg version="1.1" id="Layer_1" xmlns="http://www.w3.org/2000/svg" xmlns:xlink="http://www.w3.org/1999/xlink" x="0px" y="0px"
	 viewBox="0 0 500 500" style="enable-background:new 0 0 500 500;" xml:space="preserve">
<style type="text/css">
	.st0{fill:#FFFFFF;}
	.st1{fill:none;stroke:#FFFFFF;stroke-width:12;stroke-linecap:round;stroke-linejoin:round;}
</style>
<g>
	<g>
		<g>
			<path class="st0" d="M250,417.7c-0.7,0-1.4-0.1-2-0.4L87.9,360.9c-2.4-0.8-4-3.1-4-5.7V146.9c0-0.1,0-0.2,0-0.3
				c-0.1-2.6,1.4-5.1,4-6l60.4-21.5c3.1-1.1,6.6,0.5,7.7,3.6c1.1,3.1-0.5,6.6-3.6,7.7l-45.5,16.2L250,198.2l56.6-20.9
				c3.1-1.1,6.6,0.4,7.7,3.5s-0.4,6.6-3.5,7.7L256,208.8v194.4L404.1,351V155.3l-46.5,16.2c-3.1,1.1-6.5-0.6-7.6-3.7
				c-1.1-3.1,0.6-6.5,3.7-7.6l38.4-13.4L250,96.3L196.6,115c-3.1,1.1-6.6-0.6-7.6-3.7c-1.1-3.1,0.6-6.6,3.7-7.6L248,84.2
				c1.3-0.5,2.7-0.4,4,0l160.1,57c0.1,0,0.2,0.1,0.2,0.1c2.4,0.9,3.8,3.3,3.8,5.7v208.2c0,2.5-1.6,4.8-4,5.7L252,417.4
				c-0.1,0-0.1,0-0.2,0.1C251.2,417.6,250.6,417.7,250,417.7z M95.9,351L244,403.2V208.8L95.9,155.4V351z"/>
		</g>
		<g>
			<path class="st0" d="M333.7,295.4c-1.2,0-2.4-0.4-3.5-1.1l-23.9-16.9c-1.6-1.1-2.5-3-2.5-4.9v-85.9l-155.5-56.1
				c-2.4-0.9-4-3.1-4-5.7c0-2.5,1.6-4.8,4-5.6l44.3-15.6c1.3-0.5,2.7-0.5,4,0l160.1,57c2.4,0.9,4,3.1,4,5.7v89.6
				c0,1.1-0.3,2.2-0.9,3.2l-21,33.5c-0.9,1.4-2.3,2.4-3.9,2.7C334.5,295.4,334.1,295.4,333.7,295.4z M315.8,269.4l16.2,11.4
				l16.7-26.7v-83.6l-154.1-54.9l-26.4,9.3l143.7,51.8c2.4,0.9,4,3.1,4,5.6v87.1H315.8z M354.7,255.9L354.7,255.9L354.7,255.9z"/>
		</g>
	</g>
	<g>
		<path class="st1" d="M0,500"/>
	</g>
</g>
</svg>
