<?xml version="1.0" encoding="utf-8"?>
<!-- Generator: Adobe Illustrator 27.5.0, SVG Export Plug-In . SVG Version: 6.00 Build 0)  -->
<svg version="1.1" id="Layer_1" xmlns="http://www.w3.org/2000/svg" xmlns:xlink="http://www.w3.org/1999/xlink" x="0px" y="0px"
	 viewBox="0 0 500 500" style="enable-background:new 0 0 500 500;" xml:space="preserve">
<style type="text/css">
	.st0{clip-path:url(#SVGID_00000154419928161004882700000004957431023097252507_);}
	.st1{opacity:0;clip-path:url(#SVGID_00000029037717886867535080000005745424653252916411_);}
	.st2{clip-path:url(#SVGID_00000137810672312804844420000011348593136818421650_);}
	.st3{fill:#FFFFFF;}
	.st4{clip-path:url(#SVGID_00000136405446969626775920000006872956164101128082_);}
	.st5{clip-path:url(#SVGID_00000166642347161775769660000012870493362714742689_);}
	.st6{fill:none;stroke:#FFFFFF;stroke-width:12;stroke-linecap:round;stroke-linejoin:round;}
</style>
<g>
	<g>
		<g>
			<g>
				<defs>
					<rect id="SVGID_1_" width="500" height="500"/>
				</defs>
				<clipPath id="SVGID_00000145032641333012470810000008692552425121772990_">
					<use xlink:href="#SVGID_1_"  style="overflow:visible;"/>
				</clipPath>
				<g style="clip-path:url(#SVGID_00000145032641333012470810000008692552425121772990_);">
					<g>
						<g>
							<g>
								<g>
									<defs>
										<rect id="SVGID_00000119077844619044562210000012238584146560898748_" width="500" height="500"/>
									</defs>
									<clipPath id="SVGID_00000158749110481881655870000017521394723763977107_">
										<use xlink:href="#SVGID_00000119077844619044562210000012238584146560898748_"  style="overflow:visible;"/>
									</clipPath>
									<g style="opacity:0;clip-path:url(#SVGID_00000158749110481881655870000017521394723763977107_);">
										<g>
											<g>
												<g>
													<g>
														<defs>
															<rect id="SVGID_00000105395707235281562970000006860611639025709222_" width="500" height="500"/>
														</defs>
														<clipPath id="SVGID_00000155121051516924341060000007576363738367016346_">
															<use xlink:href="#SVGID_00000105395707235281562970000006860611639025709222_"  style="overflow:visible;"/>
														</clipPath>
														<g style="clip-path:url(#SVGID_00000155121051516924341060000007576363738367016346_);">
															<g>
																<path class="st3" d="M118.5,210c-1.8,0-3.6-0.8-4.7-2.3c-14.6-18.7-22.3-41-22.3-64.6c0-23.7,7.7-46.1,22.3-64.6
																	c2-2.6,5.8-3.1,8.4-1c2.6,2,3.1,5.8,1,8.4c-12.9,16.4-19.7,36.2-19.7,57.2c0,20.9,6.8,40.7,19.7,57.2
																	c2,2.6,1.6,6.4-1,8.4C121.1,209.6,119.8,210,118.5,210z M155.7,181.8c-1.8,0-3.6-0.8-4.7-2.3
																	c-8.2-10.5-12.5-23-12.5-36.3s4.3-25.8,12.5-36.3c2-2.6,5.8-3.1,8.4-1.1c2.6,2,3.1,5.8,1.1,8.4
																	c-6.5,8.4-9.9,18.4-9.9,28.9s3.4,20.6,9.9,28.9c2,2.6,1.6,6.4-1.1,8.4C158.3,181.4,157,181.8,155.7,181.8z"/>
															</g>
														</g>
													</g>
												</g>
											</g>
										</g>
										<g>
											<g>
												<g>
													<g>
														<defs>
															<rect id="SVGID_00000060737697038571244500000003608681851430384306_" width="500" height="500"/>
														</defs>
														<clipPath id="SVGID_00000128468236289701097690000002131508033303730048_">
															<use xlink:href="#SVGID_00000060737697038571244500000003608681851430384306_"  style="overflow:visible;"/>
														</clipPath>
														
															<g transform="matrix(-1 0 0 1 500 0)" style="clip-path:url(#SVGID_00000128468236289701097690000002131508033303730048_);">
															<g>
																<path class="st3" d="M118.5,210c1.3,0,2.6-0.4,3.7-1.3c2.6-2,3.1-5.8,1-8.4c-12.9-16.6-19.7-36.3-19.7-57.2
																	c0-21,6.8-40.8,19.7-57.2c2-2.6,1.6-6.4-1-8.4s-6.4-1.6-8.4,1C99.2,97,91.5,119.4,91.5,143.1
																	c0,23.6,7.7,45.9,22.3,64.6C115,209.2,116.7,210,118.5,210z M155.7,181.8c1.3,0,2.6-0.4,3.7-1.3
																	c2.6-2,3.1-5.8,1.1-8.4c-6.5-8.4-9.9-18.4-9.9-28.9s3.4-20.6,9.9-28.9c2-2.6,1.6-6.4-1.1-8.4
																	c-2.6-2-6.4-1.6-8.4,1.1c-8.2,10.5-12.5,23-12.5,36.3s4.3,25.8,12.5,36.3C152.1,181,153.9,181.8,155.7,181.8z"/>
															</g>
														</g>
													</g>
												</g>
											</g>
										</g>
										<g>
											<path class="st3" d="M161.4,415.5c-0.6,0-1.3-0.1-1.9-0.3c-3.1-1-4.8-4.4-3.8-7.6l19.3-57.9c0.1-0.9,0.4-1.8,0.8-2.5
												l28.9-86.7c0.1-0.6,0.3-1.1,0.5-1.6l28-84c-11.3-6-19-17.8-19-31.5c0-19.6,16-35.6,35.6-35.6s35.6,16,35.6,35.6
												c0,13.7-7.8,25.6-19.1,31.5l27.8,83.1c0.7,1,1.2,2.2,1.2,3.6l28.8,85.8c0.3,0.6,0.6,1.3,0.7,2l19.5,58.1
												c1.1,3.1-0.6,6.5-3.8,7.6c-3.1,1.1-6.5-0.6-7.6-3.8l-18.4-55h-129l-18.4,55.1C166.3,413.9,163.9,415.5,161.4,415.5z
												 M189.5,344.3h121.1l-25.7-76.7h-69.8L189.5,344.3z M219.1,255.6h61.8l-25.8-77c-3.4,0.5-6.9,0.5-10.3,0L219.1,255.6z
												 M250,119.8c-13,0-23.6,10.6-23.6,23.6S237,167,250,167s23.6-10.6,23.6-23.6S263,119.8,250,119.8z"/>
										</g>
									</g>
								</g>
							</g>
						</g>
					</g>
					<g>
						<g>
							<g>
								<g>
									<defs>
										<rect id="SVGID_00000159442911800789187180000005585286517116936867_" width="500" height="500"/>
									</defs>
									<clipPath id="SVGID_00000130627160559931919020000016992004249855126939_">
										<use xlink:href="#SVGID_00000159442911800789187180000005585286517116936867_"  style="overflow:visible;"/>
									</clipPath>
									<g style="clip-path:url(#SVGID_00000130627160559931919020000016992004249855126939_);">
										<g>
											<path class="st3" d="M360.6,199.1c-1.3,0-2.6-0.4-3.7-1.3c-2.6-2-3.1-5.8-1-8.4c10.4-13.3,15.9-29.3,15.9-46.3
												s-5.5-33-15.9-46.3c-2-2.6-1.6-6.4,1-8.4s6.4-1.6,8.4,1c12.1,15.4,18.5,34,18.5,53.7s-6.4,38.3-18.5,53.7
												C364.1,198.3,362.4,199.1,360.6,199.1z M338.2,182.4c-1.3,0-2.6-0.4-3.7-1.3c-2.6-2.1-3-5.8-1-8.4
												c6.6-8.3,10.2-18.8,10.2-29.6c0-10.7-3.6-21.2-10.2-29.6c-2.1-2.6-1.6-6.4,1-8.4c2.6-2.1,6.4-1.6,8.4,1
												c8.2,10.4,12.8,23.6,12.8,37s-4.5,26.6-12.8,37C341.7,181.6,340,182.4,338.2,182.4z"/>
										</g>
										<g>
											<path class="st3" d="M139.4,199.1c-1.8,0-3.5-0.8-4.7-2.3c-12.1-15.4-18.5-34-18.5-53.7s6.4-38.3,18.5-53.7
												c2-2.6,5.8-3.1,8.4-1s3.1,5.8,1,8.4c-10.4,13.3-15.9,29.3-15.9,46.3s5.5,33,15.9,46.3c2,2.6,1.6,6.4-1,8.4
												C142,198.7,140.7,199.1,139.4,199.1z M161.9,182.5c-1.8,0-3.5-0.8-4.7-2.3c-8.2-10.4-12.8-23.6-12.8-37s4.5-26.6,12.8-37
												c2.1-2.6,5.8-3,8.4-1c2.6,2.1,3,5.8,1,8.4c-6.6,8.3-10.2,18.8-10.2,29.6c0,10.7,3.6,21.2,10.2,29.6
												c2.1,2.6,1.6,6.4-1,8.4C164.5,182.1,163.2,182.5,161.9,182.5z"/>
										</g>
										<g>
											<path class="st3" d="M161.4,415.5c-0.6,0-1.3-0.1-1.9-0.3c-3.1-1-4.8-4.4-3.8-7.6l19.3-57.9c0.1-0.9,0.4-1.8,0.8-2.5
												l28.9-86.7c0.1-0.6,0.3-1.1,0.5-1.6l28-84c-11.3-6-19-17.8-19-31.5c0-19.6,16-35.6,35.6-35.6s35.6,16,35.6,35.6
												c0,13.7-7.8,25.6-19.1,31.5l27.8,83.1c0.7,1,1.2,2.2,1.2,3.6l28.8,85.8c0.3,0.6,0.6,1.3,0.7,2l19.5,58.1
												c1.1,3.1-0.6,6.5-3.8,7.6c-3.1,1.1-6.5-0.6-7.6-3.8l-18.4-55h-129l-18.4,55.1C166.3,413.9,163.9,415.5,161.4,415.5z
												 M189.5,344.3h121.1l-25.7-76.7h-69.8L189.5,344.3z M219.1,255.6h61.8l-25.8-77c-3.4,0.5-6.9,0.5-10.3,0L219.1,255.6z
												 M250,119.8c-13,0-23.6,10.6-23.6,23.6S237,167,250,167s23.6-10.6,23.6-23.6S263,119.8,250,119.8z"/>
										</g>
									</g>
								</g>
							</g>
						</g>
					</g>
					<g>
						<path class="st6" d="M0,500"/>
					</g>
				</g>
			</g>
		</g>
	</g>
</g>
</svg>
