<?xml version="1.0" encoding="iso-8859-1"?>
<!-- Generator: Adobe Illustrator 29.6.1, SVG Export Plug-In . SVG Version: 9.03 Build 0)  -->
<svg version="1.1" id="Layer_1" xmlns="http://www.w3.org/2000/svg" xmlns:xlink="http://www.w3.org/1999/xlink" x="0px" y="0px"
	 viewBox="0 0 500 500" style="enable-background:new 0 0 500 500;" xml:space="preserve">
<g>
	<path style="fill:#FFFFFF;" d="M410.15,389.45h-240.2c-3.314,0-6-2.687-6-6v-80c0-3.313,2.686-6,6-6h176v-20.9c0-3.313,2.687-6,6-6
		h35c3.313,0,6,2.687,6,6v20.9h17.2c3.313,0,6,2.687,6,6v80C416.15,386.764,413.463,389.45,410.15,389.45z M175.95,377.45h228.2v-68
		h-228.2V377.45z M357.95,297.45h23v-14.9h-23V297.45z"/>
</g>
<g>
	<path style="fill:#FFFFFF;" d="M330.05,309.35h-160.1c-3.313,0-6-2.687-6-6v-80c0-3.313,2.687-6,6-6h15.8v-20.8
		c0-3.313,2.687-6,6-6h35c3.313,0,6,2.687,6,6v20.8h97.3c3.313,0,6,2.687,6,6v80C336.05,306.663,333.364,309.35,330.05,309.35z
		 M175.95,297.35h148.1v-68h-148.1L175.95,297.35L175.95,297.35z M197.75,217.35h23v-14.8h-23V217.35z"/>
</g>
<g>
	<path style="fill:#FFFFFF;" d="M330.05,229.35h-80.1c-3.313,0-6-2.687-6-6v-80c0-3.313,2.687-6,6-6h17.2v-20.8c0-3.313,2.687-6,6-6
		h35c3.313,0,6,2.687,6,6v20.8h15.9c3.313,0,6,2.687,6,6v80C336.05,226.663,333.364,229.35,330.05,229.35z M255.95,217.35h68.101
		v-68H255.95V217.35z M279.15,137.35h23v-14.8h-23V137.35z"/>
</g>
<g>
	<path style="fill:#FFFFFF;" d="M169.95,389.45h-80.1c-3.313,0-6-2.687-6-6v-80c0-3.313,2.687-6,6-6h17.2v-20.9c0-3.313,2.687-6,6-6
		h35c3.313,0,6,2.687,6,6v20.9h15.9c3.313,0,6,2.687,6,6v80C175.95,386.764,173.264,389.45,169.95,389.45z M95.85,377.45h68.1v-68
		h-68.1V377.45z M119.05,297.45h23v-14.9h-23V297.45z"/>
</g>
</svg>
