<?xml version="1.0" encoding="utf-8"?>
<!-- Generator: Adobe Illustrator 27.5.0, SVG Export Plug-In . SVG Version: 6.00 Build 0)  -->
<svg version="1.1" id="Layer_1" xmlns="http://www.w3.org/2000/svg" xmlns:xlink="http://www.w3.org/1999/xlink" x="0px" y="0px"
	 viewBox="0 0 500 500" style="enable-background:new 0 0 500 500;" xml:space="preserve">
<style type="text/css">
	.st0{fill:#FFFFFF;}
	.st1{opacity:0;}
	.st2{fill:none;stroke:#FFFFFF;stroke-width:12;stroke-linecap:round;stroke-linejoin:round;}
</style>
<g>
	<g>
		<g>
			<path class="st0" d="M249.9,311.5c-6.5,0-12.9-1.2-18.9-3.7c-0.2-0.1-0.4-0.1-0.6-0.2c-1.7-0.7-3.5-1.2-5.5-1.4l-7.9-0.9h-0.1
				c-5.2-0.7-9.1-5.1-9.1-10.2V287c0.1-16.7,13.7-30.2,30.2-30.2h24c16.6,0,30.1,13.5,30.1,30.1v8.1c0,5.2-4.1,9.7-9.3,10.3l-8.3,1
				c-1.7,0.2-3.5,0.7-5,1.4C263.2,310.2,256.6,311.5,249.9,311.5z M234.3,296.3c0.2,0.1,0.5,0.2,0.7,0.3c9.5,4,20.3,4,29.8,0
				c2.5-1.1,5.3-1.8,8.2-2.2l7.1-0.8V287c0-10-8.1-18.1-18.1-18.1h-24.1c-10,0-18.1,8.2-18.2,18.2v6.6l6.6,0.7
				C229.1,294.7,231.8,295.4,234.3,296.3z M249.9,251.3c-12.7,0-22.9-9.9-23.3-22.5l-0.6-16.2c-0.1-6.5,2.3-12.6,6.7-17.1
				s10.3-7,16.7-7h1.1c6.4,0,12.4,2.5,16.9,7.2c4.4,4.6,6.7,10.6,6.4,17l-0.6,16.2C272.8,241.4,262.6,251.3,249.9,251.3z
				 M249.4,200.5c-3.1,0-5.9,1.2-8.1,3.4c-2.2,2.2-3.4,5.2-3.3,8.4l0.6,16.1c0.2,6,5.3,10.9,11.3,10.9s11.1-4.9,11.3-10.9l0.6-16.2
				c0.1-3.1-1-6-3.1-8.2c-2.2-2.3-5.1-3.5-8.2-3.5H249.4z"/>
		</g>
		<path class="st0" d="M249.9,311.5c-6.5,0-12.9-1.2-18.9-3.7c-0.2-0.1-0.4-0.1-0.6-0.2c-1.7-0.7-3.5-1.2-5.5-1.4l-7.9-0.9h-0.1
			c-5.2-0.7-9.1-5.1-9.1-10.2V287c0.1-16.7,13.7-30.2,30.2-30.2h24c16.6,0,30.1,13.5,30.1,30.1v8.1c0,5.2-4.1,9.7-9.3,10.3l-8.3,1
			c-1.7,0.2-3.5,0.7-5,1.4C263.2,310.2,256.6,311.5,249.9,311.5z M234.3,296.3c0.2,0.1,0.5,0.2,0.7,0.3c9.5,4,20.3,4,29.8,0
			c2.5-1.1,5.3-1.8,8.2-2.2l7.1-0.8V287c0-10-8.1-18.1-18.1-18.1h-24.1c-10,0-18.1,8.2-18.2,18.2v6.6l6.6,0.7
			C229.1,294.7,231.8,295.4,234.3,296.3z M249.9,251.3c-12.7,0-22.9-9.9-23.3-22.5l-0.6-16.2c-0.1-6.5,2.3-12.6,6.7-17.1
			s10.3-7,16.7-7h1.1c6.4,0,12.4,2.5,16.9,7.2c4.4,4.6,6.7,10.6,6.4,17l-0.6,16.2C272.8,241.4,262.6,251.3,249.9,251.3z
			 M249.4,200.5c-3.1,0-5.9,1.2-8.1,3.4c-2.2,2.2-3.4,5.2-3.3,8.4l0.6,16.1c0.2,6,5.3,10.9,11.3,10.9s11.1-4.9,11.3-10.9l0.6-16.2
			c0.1-3.1-1-6-3.1-8.2c-2.2-2.3-5.1-3.5-8.2-3.5H249.4z"/>
		<g>
			<path class="st0" d="M250,343c-51.3,0-93-41.7-93-93s41.7-93,93-93s93,41.7,93,93S301.3,343,250,343z M250,169
				c-44.7,0-81,36.3-81,81s36.3,81,81,81s81-36.3,81-81S294.7,169,250,169z"/>
		</g>
		<g>
			<g class="st1">
				<g>
					<g>
						<path class="st0" d="M250,169L250,169c-3.3,0-6-2.7-6-6s2.7-6,6-6l0,0c3.3,0,6,2.7,6,6S253.3,169,250,169z"/>
					</g>
				</g>
			</g>
			<g>
				<g>
					<path class="st0" d="M250,169c-3.3,0-6-2.7-6-6v-41c-15.2-2.8-26.7-16.2-26.7-32.1c0-18,14.7-32.7,32.7-32.7
						s32.7,14.7,32.7,32.7c0,16-11.5,29.3-26.7,32.1v41C256,166.3,253.3,169,250,169z M250,69.2c-11.4,0-20.7,9.3-20.7,20.7
						s9.3,20.7,20.7,20.7s20.7-9.3,20.7-20.7S261.4,69.2,250,69.2z"/>
				</g>
			</g>
		</g>
		<g>
			<g class="st1">
				<g>
					<g>
						<path class="st0" d="M326,212L326,212c-3.3,0-6-2.7-6-6s2.7-6,6-6l0,0c3.3,0,6,2.7,6,6S329.3,212,326,212z"/>
					</g>
				</g>
			</g>
			<g>
				<g>
					<path class="st0" d="M326,212c-2.1,0-4.1-1.1-5.2-3c-1.7-2.9-0.7-6.5,2.2-8.2l35.5-20.5c-5.1-14.6,0.7-31.2,14.5-39.2
						c15.6-9,35.7-3.6,44.7,12c8.9,15.6,3.5,35.7-12,44.7l0,0c-7.6,4.4-16.4,5.5-24.8,3.3c-6.5-1.7-12.1-5.3-16.4-10.3L329,211.2
						C328.1,211.7,327,212,326,212z M402.7,192.6L402.7,192.6L402.7,192.6z M389.3,148.7c-3.5,0-7.1,0.9-10.3,2.8
						c-4.8,2.8-8.2,7.3-9.7,12.6c-1.4,5.3-0.7,10.9,2.1,15.7c2.8,4.8,7.3,8.2,12.6,9.7c5.3,1.4,10.9,0.7,15.7-2.1
						c9.8-5.7,13.2-18.4,7.6-28.3C403.5,152.4,396.5,148.7,389.3,148.7z"/>
				</g>
			</g>
		</g>
		<g>
			<g class="st1">
				<g>
					<g>
						<path class="st0" d="M326,300L326,300c-3.3,0-6-2.7-6-6s2.7-6,6-6l0,0c3.3,0,6,2.7,6,6S329.3,300,326,300z"/>
					</g>
				</g>
			</g>
			<g>
				<g>
					<path class="st0" d="M389.3,363.2c-5.5,0-11.1-1.4-16.3-4.3l0,0c-13.8-8-19.6-24.6-14.5-39.2L323,299.2
						c-2.9-1.7-3.9-5.3-2.2-8.2c1.7-2.9,5.3-3.9,8.2-2.2l35.5,20.5c10-11.7,27.3-15,41.2-7.1c15.6,9,21,29,12,44.7
						C411.6,357.4,400.6,363.2,389.3,363.2z M379,348.5c9.9,5.7,22.6,2.3,28.3-7.6c5.6-9.9,2.2-22.6-7.6-28.3
						c-9.9-5.6-22.6-2.2-28.3,7.6l0,0l0,0C365.8,330.1,369.2,342.8,379,348.5z"/>
				</g>
			</g>
		</g>
		<g>
			<g class="st1">
				<g>
					<g>
						<path class="st0" d="M250,343L250,343c-3.3,0-6-2.7-6-6s2.7-6,6-6l0,0c3.3,0,6,2.7,6,6S253.3,343,250,343z"/>
					</g>
				</g>
			</g>
			<g>
				<g>
					<path class="st0" d="M250,442.8c-18,0-32.7-14.7-32.7-32.7c0-16,11.5-29.3,26.7-32.1v-41c0-3.3,2.7-6,6-6s6,2.7,6,6v41
						c15.2,2.8,26.7,16.2,26.7,32.1C282.7,428.1,268,442.8,250,442.8z M250,389.4c-11.4,0-20.7,9.3-20.7,20.7s9.3,20.7,20.7,20.7
						s20.7-9.3,20.7-20.7S261.4,389.4,250,389.4z"/>
				</g>
			</g>
		</g>
		<g>
			<g class="st1">
				<g>
					<g>
						<path class="st0" d="M174.5,299.5L174.5,299.5c-3.3,0-6-2.7-6-6s2.7-6,6-6l0,0c3.3,0,6,2.7,6,6S177.8,299.5,174.5,299.5z"/>
					</g>
				</g>
			</g>
			<g>
				<g>
					<path class="st0" d="M111.2,362.8c-11.3,0-22.3-5.9-28.4-16.4c-8.9-15.6-3.5-35.7,12-44.7l0,0c7.6-4.4,16.4-5.5,24.8-3.3
						c6.5,1.7,12.1,5.3,16.4,10.3l35.5-20.5c2.9-1.7,6.5-0.7,8.2,2.2c1.7,2.9,0.7,6.5-2.2,8.2L142,319.2
						c5.1,14.5-0.7,31.2-14.5,39.2C122.4,361.4,116.8,362.8,111.2,362.8z M100.8,312.1c-9.8,5.7-13.2,18.4-7.6,28.3
						c5.7,9.9,18.4,13.3,28.3,7.6c4.8-2.8,8.2-7.3,9.7-12.6c1.4-5.3,0.7-10.9-2.1-15.7c-2.8-4.8-7.3-8.2-12.6-9.7
						C111.2,308.6,105.6,309.3,100.8,312.1z"/>
				</g>
			</g>
		</g>
		<g>
			<g class="st1">
				<g>
					<g>
						<path class="st0" d="M174.5,212.5L174.5,212.5c-3.3,0-6-2.7-6-6s2.7-6,6-6l0,0c3.3,0,6,2.7,6,6S177.8,212.5,174.5,212.5z"/>
					</g>
				</g>
			</g>
			<g>
				<g>
					<path class="st0" d="M174.5,212.5c-1,0-2-0.3-3-0.8L136,191.2c-10,11.7-27.3,15-41.2,7.1c-15.6-9-21-29-12-44.7
						c9-15.6,29.1-21,44.7-12l0,0c13.8,8,19.6,24.6,14.5,39.2l35.5,20.5c2.9,1.7,3.9,5.3,2.2,8.2
						C178.6,211.4,176.6,212.5,174.5,212.5z M111.2,149.2c-7.2,0-14.2,3.7-18,10.4c-5.6,9.9-2.2,22.6,7.6,28.3
						c9.9,5.6,22.6,2.2,28.3-7.6l0,0c5.6-9.9,2.2-22.6-7.6-28.3C118.3,150.1,114.7,149.2,111.2,149.2z"/>
				</g>
			</g>
		</g>
	</g>
	<path class="st2" d="M0,500"/>
</g>
</svg>
