<?xml version="1.0" encoding="utf-8"?>
<!-- Generator: Adobe Illustrator 27.5.0, SVG Export Plug-In . SVG Version: 6.00 Build 0)  -->
<svg version="1.1" id="Layer_1" xmlns="http://www.w3.org/2000/svg" xmlns:xlink="http://www.w3.org/1999/xlink" x="0px" y="0px"
	 viewBox="0 0 500 500" style="enable-background:new 0 0 500 500;" xml:space="preserve">
<style type="text/css">
	.st0{fill:#FFFFFF;}
	.st1{fill:none;stroke:#FFFFFF;stroke-width:12;}
	.st2{fill:none;stroke:#FFFFFF;stroke-width:12;stroke-linecap:round;stroke-linejoin:round;}
</style>
<g>
	<path class="st0" d="M286.2,267.2c-13.8,0-25.1-11.3-25.1-25.1s11.3-25.1,25.1-25.1c13.8,0,25.1,11.3,25.1,25.1
		S300,267.2,286.2,267.2z M286.2,229c-7.2,0-13.1,5.9-13.1,13.1s5.9,13.1,13.1,13.1s13.1-5.9,13.1-13.1S293.4,229,286.2,229z"/>
</g>
<g>
	<path class="st0" d="M335.1,389.4H104c-11.1,0-20.2-9-20.2-20.1v-222c0-11.1,9.1-20.2,20.2-20.2h27.8v-10.5c0-3.3,2.7-6,6-6
		s6,2.7,6,6v10.5H244v-10.5c0-3.3,2.7-6,6-6s6,2.7,6,6v10.5h100.2v-10.5c0-3.3,2.7-6,6-6s6,2.7,6,6v10.5H396
		c5.4,0,10.5,2.1,14.2,5.9c3.8,3.8,5.8,8.9,5.8,14.3v30.3c0.1,0.4,0.1,0.7,0.1,1.1s0,0.7-0.1,1.1V307c0,2.2-1.2,4.2-3,5.2
		c-1.9,1.1-4.2,1-6-0.1c-7.5-4.5-16.2-6.8-25-6.8c-27,0-49,22-49,49.1c0,9.1,2.5,18,7.3,25.7c1.1,1.9,1.2,4.2,0.1,6.1
		C339.3,388.2,337.3,389.4,335.1,389.4z M95.8,184.8v184.5c0,4.5,3.6,8.1,8.2,8.1h221.4c-2.9-7.2-4.5-15-4.5-22.9
		c0-33.7,27.4-61.1,61-61.1c7.6,0,15.1,1.4,22.1,4.1V184.8H95.8z M95.8,172.8H404v-25.5c0-2.3-0.8-4.3-2.3-5.8s-3.5-2.4-5.7-2.4
		h-27.8v11c0,3.3-2.7,6-6,6s-6-2.7-6-6v-11H256v11c0,3.3-2.7,6-6,6s-6-2.7-6-6v-11H143.8v11c0,3.3-2.7,6-6,6s-6-2.7-6-6v-11H104
		c-4.5,0-8.2,3.7-8.2,8.2V172.8z"/>
</g>
<g>
	<path class="st0" d="M213.8,345.2c-13.8,0-25.1-11.3-25.1-25.1c0-13.8,11.3-25.1,25.1-25.1s25.1,11.3,25.1,25.1
		C238.9,333.9,227.6,345.2,213.8,345.2z M213.8,307c-7.2,0-13.1,5.9-13.1,13.1s5.9,13.1,13.1,13.1c7.2,0,13.1-5.9,13.1-13.1
		S221,307,213.8,307z M141.5,345.2c-13.8,0-25.1-11.3-25.1-25.1c0-13.8,11.3-25.1,25.1-25.1s25.1,11.3,25.1,25.1
		C166.6,333.9,155.3,345.2,141.5,345.2z M141.5,307c-7.2,0-13.1,5.9-13.1,13.1s5.9,13.1,13.1,13.1s13.1-5.9,13.1-13.1
		S148.7,307,141.5,307z M358.6,267.2c-13.8,0-25.1-11.3-25.1-25.1s11.2-25.1,25-25.1c13.9,0,25.2,11.3,25.2,25.1
		S372.4,267.2,358.6,267.2z M358.5,229c-7.2,0-13,5.9-13,13.1s5.9,13.1,13.1,13.1s13.1-5.9,13.1-13.1S365.8,229,358.5,229z
		 M213.8,267.2c-13.8,0-25.1-11.3-25.1-25.1S200,217,213.8,217s25.1,11.3,25.1,25.1S227.6,267.2,213.8,267.2z M213.8,229
		c-7.2,0-13.1,5.9-13.1,13.1s5.9,13.1,13.1,13.1c7.2,0,13.1-5.9,13.1-13.1S221,229,213.8,229z M141.5,267.2
		c-13.8,0-25.1-11.3-25.1-25.1s11.3-25.1,25.1-25.1s25.1,11.3,25.1,25.1S155.3,267.2,141.5,267.2z M141.5,229
		c-7.2,0-13.1,5.9-13.1,13.1s5.9,13.1,13.1,13.1s13.1-5.9,13.1-13.1S148.7,229,141.5,229z"/>
</g>
<g>
	<path class="st1" d="M286.2,320.1"/>
</g>
<g>
	<path class="st0" d="M286.2,345.2c-13.8,0-25.1-11.3-25.1-25.1c0-13.8,11.3-25.1,25.1-25.1c13.8,0,25.1,11.3,25.1,25.1
		C311.3,333.9,300,345.2,286.2,345.2z M286.2,307c-7.2,0-13.1,5.9-13.1,13.1s5.9,13.1,13.1,13.1s13.1-5.9,13.1-13.1
		C299.3,312.9,293.4,307,286.2,307z"/>
</g>
<g>
	<path class="st0" d="M382,415.5c-21.3,0-40.8-10.9-52-29c-5.9-9.6-9.1-20.7-9.1-32.1c0-33.7,27.4-61.1,61-61.1
		c11,0,21.8,3,31.2,8.5c18.8,11.3,30,31,30,52.7C443.1,388.1,415.7,415.5,382,415.5z M381.9,305.3c-27,0-49,22-49,49.1
		c0,9.1,2.5,18,7.3,25.7c9,14.6,24.7,23.4,41.8,23.4c27.1,0,49.1-22,49.1-49c0-17.4-9-33.3-24.2-42.4
		C399.4,307.7,390.8,305.3,381.9,305.3z"/>
</g>
<g>
	<path class="st0" d="M382.1,387.2c-3.3,0-6-2.7-6-6v-53.3c0-3.3,2.7-6,6-6s6,2.7,6,6v53.3C388.1,384.5,385.4,387.2,382.1,387.2z"/>
</g>
<g>
	<path class="st0" d="M408.7,360.5h-53.3c-3.3,0-6-2.7-6-6s2.7-6,6-6h53.3c3.3,0,6,2.7,6,6S412,360.5,408.7,360.5z"/>
</g>
<g>
	<path class="st2" d="M0,500"/>
</g>
<g>
	<path class="st2" d="M0,500"/>
</g>
<g>
	<path class="st2" d="M0,500"/>
</g>
<g>
	<path class="st2" d="M0,500"/>
</g>
<g>
	<path class="st2" d="M0,500"/>
</g>
<g>
	<path class="st2" d="M0,500"/>
</g>
<g>
	<path class="st2" d="M0,500"/>
</g>
<g>
	<path class="st2" d="M0,500"/>
</g>
<g>
	<path class="st2" d="M0,500"/>
</g>
<g>
	<path class="st2" d="M0,500"/>
</g>
<g>
	<path class="st2" d="M0,500"/>
</g>
<g>
	<path class="st2" d="M0,500"/>
</g>
</svg>
