<?xml version="1.0" encoding="utf-8"?>
<!-- Generator: Adobe Illustrator 27.5.0, SVG Export Plug-In . SVG Version: 6.00 Build 0)  -->
<svg version="1.1" id="Layer_1" xmlns="http://www.w3.org/2000/svg" xmlns:xlink="http://www.w3.org/1999/xlink" x="0px" y="0px"
	 viewBox="0 0 500 500" style="enable-background:new 0 0 500 500;" xml:space="preserve">
<style type="text/css">
	.st0{clip-path:url(#SVGID_00000163068214245600367920000005523731475186268594_);}
	.st1{fill:#FFFFFF;}
	.st2{fill:none;stroke:#FFFFFF;stroke-width:12;stroke-linecap:round;stroke-linejoin:round;}
	.st3{display:none;fill:none;stroke:#FFFFFF;stroke-width:12;stroke-linecap:round;stroke-linejoin:round;}
</style>
<g>
	<g>
		<g>
			<g>
				<defs>
					<rect id="SVGID_1_" width="500" height="500"/>
				</defs>
				<clipPath id="SVGID_00000154419456672590881530000005571718186730561667_">
					<use xlink:href="#SVGID_1_"  style="overflow:visible;"/>
				</clipPath>
				<g style="clip-path:url(#SVGID_00000154419456672590881530000005571718186730561667_);">
					<g>
						<path class="st1" d="M352.6,372.7c-22,0-39.9-17.9-39.9-39.9s17.9-39.9,39.9-39.9s39.9,17.9,39.9,39.9
							S374.6,372.7,352.6,372.7z M352.6,304.9c-15.4,0-27.9,12.5-27.9,27.9s12.5,27.9,27.9,27.9s27.9-12.5,27.9-27.9
							S368,304.9,352.6,304.9z M352.7,338.8h-0.2c-3.3,0-6-2.7-6-6s2.7-6,6-6h0.2c3.3,0,6,2.7,6,6S356,338.8,352.7,338.8z"/>
					</g>
					<g>
						<path class="st1" d="M318.7,338.8H158.5c-3.3,0-6-2.7-6-6s2.7-6,6-6h160.2c3.3,0,6,2.7,6,6S322,338.8,318.7,338.8z"/>
					</g>
					<g>
						<g>
							<path class="st1" d="M63.2,300.7c-1.7,0-3.3-0.7-4.5-2c-2.2-2.5-1.9-6.3,0.6-8.5l22.1-19.4c0.4-0.3,0.4-0.7,0.3-1
								c-0.1-0.6-0.5-0.7-0.7-0.8l-19.8-7c-3.1-1.1-4.8-4.5-3.7-7.7c1.1-3.1,4.5-4.8,7.7-3.7l19.8,7c4.4,1.6,7.6,5.2,8.5,9.8
								c0.9,4.6-0.7,9.2-4.2,12.3l-22.1,19.4C66,300.2,64.6,300.7,63.2,300.7z M435.5,299h-29.9c-11.6,0-21.1-9.5-21.1-21.1v-3.8
								c0-11.6,9.5-21.1,21.1-21.1h5.4c3.3,0,6,2.7,6,6c0,3.3-2.7,6-6,6h-5.4c-5,0-9.1,4.1-9.1,9.1v3.8c0,5,4.1,9.1,9.1,9.1h29.9
								c3.3,0,6,2.7,6,6S438.8,299,435.5,299z"/>
						</g>
						<g>
							<path class="st1" d="M413.9,338.8h-27.5c-3.3,0-6-2.7-6-6s2.7-6,6-6h27.5c9.3,0,16.8-7.5,16.9-16.7l-1.2-15.9
								c-2.8-12.3-10.5-23.2-21.3-29.8c-5.3-3.2-11.1-5.4-17.5-6.4l-72.1-11.6h-109v86.4c0,3.3-2.7,6-6,6s-6-2.7-6-6v-86.4h-80.8
								c-0.1,0-0.2,0-0.3,0H73.3c-1.9,4.6-3.4,8.7-4.4,11.9c-0.2,0.5-0.4,0.9-0.7,1.4c-11.8,18.1-1.8,29.6-0.7,30.9
								c1.7,1.8,2.1,4.4,1.1,6.7c-0.1,0.1-6.5,14.5-3.7,29.6h25.8c3.3,0,6,2.7,6,6s-2.7,6-6,6H60.2c-2.6,0-5-1.7-5.7-4.3
								c-4.9-16.2-0.6-32,1.9-38.8c-5.5-8.1-10.1-23.7,1.4-41.9c0.7-2,2.7-7.7,5.9-15.4c0.1-0.2,0.2-0.4,0.2-0.6
								c3.1-7.3,7.1-16.4,12-25.5c15.8-29.5,32.1-44.8,48.5-45.4c0.1,0,0.2,0,0.2,0h19.5c0.1,0,0.2,0,0.3,0h51.2c0.1,0,0.1,0,0.2,0
								h43.6c27.5,0,64.7,39,83.5,68l69.9,11.3c7.9,1.2,15.3,3.9,21.9,8c13.6,8.4,23.4,22.2,26.8,37.8c0.1,0.3,0.1,0.6,0.1,0.8
								l1.2,16.6c0,0.1,0,0.3,0,0.4C442.8,325.8,429.8,338.8,413.9,338.8z M209,234.4h99c-19.9-27.8-50.4-55.5-68.7-55.5h-36.9
								L209,234.4z M125.7,234.4h71.2l-6.7-55.5h-42L125.7,234.4z M78.5,234.4h34.3l22.5-55.5h-10.6
								C107.3,179.8,89.6,210,78.5,234.4z M251.6,275.7h-21.3c-3.3,0-6-2.7-6-6s2.7-6,6-6h21.3c3.3,0,6,2.7,6,6
								S254.9,275.7,251.6,275.7z"/>
						</g>
					</g>
					<g>
						<path class="st1" d="M124.6,372.7c-22,0-39.9-17.9-39.9-39.9s17.9-39.9,39.9-39.9s39.9,17.9,39.9,39.9
							S146.6,372.7,124.6,372.7z M124.6,304.9c-15.4,0-27.9,12.5-27.9,27.9s12.5,27.9,27.9,27.9s27.9-12.5,27.9-27.9
							S140,304.9,124.6,304.9z M124.7,338.8h-0.2c-3.3,0-6-2.7-6-6s2.7-6,6-6h0.2c3.3,0,6,2.7,6,6S128,338.8,124.7,338.8z"/>
					</g>
					<path class="st2" d="M18.2,182.8"/>
					<g>
						<g>
							<path class="st3" d="M0,500"/>
						</g>
						<g>
							<path class="st2" d="M0,500"/>
						</g>
						<g>
							<path class="st2" d="M0,500"/>
						</g>
						<g>
							<path class="st2" d="M0,500"/>
						</g>
						<g>
							<path class="st2" d="M0,500"/>
						</g>
						<g>
							<path class="st2" d="M0,500"/>
						</g>
						<g>
							<path class="st2" d="M0,500"/>
						</g>
						<g>
							<path class="st2" d="M0,500"/>
						</g>
						<g>
							<path class="st2" d="M0,500"/>
						</g>
						<g>
							<path class="st2" d="M0,500"/>
						</g>
						<g>
							<path class="st2" d="M0,500"/>
						</g>
						<g>
							<path class="st2" d="M0,500"/>
						</g>
					</g>
				</g>
			</g>
		</g>
	</g>
</g>
</svg>
