<?xml version="1.0" encoding="iso-8859-1"?>
<!-- Generator: Adobe Illustrator 29.6.1, SVG Export Plug-In . SVG Version: 9.03 Build 0)  -->
<svg version="1.1" id="Layer_1" xmlns="http://www.w3.org/2000/svg" xmlns:xlink="http://www.w3.org/1999/xlink" x="0px" y="0px"
	 viewBox="0 0 500 500" style="enable-background:new 0 0 500 500;" xml:space="preserve">
<g>
	<g>
		<path style="fill:#FFFFFF;" d="M235,241h-20c-3.313,0-6-2.687-6-6s2.687-6,6-6h20c3.313,0,6,2.687,6,6S238.313,241,235,241z
			 M205,211c-3.313,0-6-2.687-6-6v-75c0-3.313,2.687-6,6-6s6,2.687,6,6v75C211,208.313,208.313,211,205,211z"/>
	</g>
	<g>
		<path style="fill:#FFFFFF;" d="M250,136c-3.313,0-6-2.687-6-6V80c0-3.313,2.687-6,6-6s6,2.687,6,6v50
			C256,133.313,253.313,136,250,136z"/>
	</g>
	<g>
		<path style="fill:#FFFFFF;" d="M385,426H115c-17.093,0-31-13.906-31-31s13.907-31,31-31h270c17.094,0,31,13.906,31,31
			S402.094,426,385,426z M115,376c-10.477,0-19,8.523-19,19s8.523,19,19,19h270c10.477,0,19-8.523,19-19s-8.523-19-19-19H115z"/>
	</g>
	<g>
		<path style="fill:#FFFFFF;" d="M385,86H115c-3.313,0-6-2.687-6-6s2.687-6,6-6h270c3.313,0,6,2.687,6,6S388.313,86,385,86z"/>
	</g>
	<g>
		<path style="fill:#FFFFFF;" d="M395,286h-35c-3.313,0-6-2.687-6-6c0-13.233-10.767-24-24-24s-24,10.767-24,24c0,3.313-2.687,6-6,6
			H195c-3.313,0-6-2.687-6-6c0-13.233-10.767-24-24-24s-24,10.767-24,24c0,3.313-2.687,6-6,6h-30c-3.313,0-6-2.687-6-6v-60
			c0-11.58,9.42-21,21-21h0.778l20.231-60.6c2.771-8.59,10.772-14.4,19.891-14.4h107.3c6.144,0,11.93,2.667,15.875,7.319
			L342.739,199H365c19.851,0,36,16.149,36,36v45C401,283.313,398.313,286,395,286z M365.5,274H389v-39c0-13.233-10.767-24-24-24H120
			c-4.962,0-9,4.038-9,9v54h18.5c2.865-17.005,17.693-30,35.5-30s32.635,12.995,35.5,30h94c2.865-17.005,17.693-30,35.5-30
			S362.635,256.995,365.5,274z M133.429,199H326.86l-51.894-59.87c-1.678-1.978-4.192-3.13-6.766-3.13H160.9
			c-3.893,0-7.304,2.468-8.489,6.142L133.429,199z"/>
	</g>
	<g>
		<path style="fill:#FFFFFF;" d="M165,376c-19.851,0-36-16.149-36-36s16.149-36,36-36s36,16.149,36,36S184.851,376,165,376z
			 M165,316c-13.233,0-24,10.767-24,24s10.767,24,24,24s24-10.767,24-24S178.233,316,165,316z"/>
	</g>
	<g>
		<path style="fill:#FFFFFF;" d="M330,376c-19.851,0-36-16.149-36-36s16.149-36,36-36s36,16.149,36,36S349.851,376,330,376z
			 M330,316c-13.233,0-24,10.767-24,24s10.767,24,24,24s24-10.767,24-24S343.233,316,330,316z"/>
	</g>
</g>
<g>
	<rect x="50" y="50" style="fill:none;" width="400" height="400"/>
</g>
</svg>
