<?xml version="1.0" encoding="utf-8"?>
<!-- Generator: Adobe Illustrator 27.5.0, SVG Export Plug-In . SVG Version: 6.00 Build 0)  -->
<svg version="1.1" id="Layer_1" xmlns="http://www.w3.org/2000/svg" xmlns:xlink="http://www.w3.org/1999/xlink" x="0px" y="0px"
	 viewBox="0 0 500 500" style="enable-background:new 0 0 500 500;" xml:space="preserve">
<style type="text/css">
	.st0{clip-path:url(#SVGID_00000008151016526668785810000004736482068721098895_);}
	.st1{fill:#FFFFFF;}
	.st2{display:none;fill:none;stroke:#FFFFFF;stroke-width:12;stroke-linecap:round;stroke-linejoin:round;}
	.st3{fill:none;stroke:#FFFFFF;stroke-width:12;stroke-linecap:round;stroke-linejoin:round;}
</style>
<g>
	<g>
		<g>
			<g>
				<defs>
					<rect id="SVGID_1_" width="500" height="500"/>
				</defs>
				<clipPath id="SVGID_00000019636992150399434320000008739393222162572942_">
					<use xlink:href="#SVGID_1_"  style="overflow:visible;"/>
				</clipPath>
				<g style="clip-path:url(#SVGID_00000019636992150399434320000008739393222162572942_);">
					<g>
						<g>
							<path class="st1" d="M134.5,300.6H63.6c-3.3,0-6-2.7-6-6s2.7-6,6-6h70.9c3.3,0,6,2.7,6,6S137.8,300.6,134.5,300.6z"/>
						</g>
						<g>
							<path class="st1" d="M402.2,351.7H114.8c-31.5,0-57.2-25.7-57.2-57.2v-34.1c0-3.3,2.7-6,6-6h36.1v-81.2L74,135.6
								c-1.3-1.8-1.4-4.2-0.3-6.2c1-2,3.1-3.2,5.3-3.2h111c2.2,0,4.3,1.2,5.3,3.2s0.9,4.3-0.3,6.2l-25.7,37.7v81.2h36.2
								c3.3,0,6,2.7,6,6v18.4c0,5.4,4.4,9.8,9.8,9.8h110.9c5.4,0,9.8-4.4,9.8-9.8v-18.4c0-3.3,2.7-6,6-6h108.5
								c2.2,0,4.2,1.2,5.3,3.1c1.1,1.9,1,4.3-0.2,6.1L407.3,349C406.2,350.7,404.3,351.7,402.2,351.7z M69.6,266.4v28.1
								c0,24.9,20.3,45.2,45.2,45.2h284.1l46.7-73.3H354v12.4c0,12-9.8,21.8-21.8,21.8H221.3c-12,0-21.8-9.8-21.8-21.8v-12.4
								L69.6,266.4L69.6,266.4z M111.7,254.4h45.6v-77h-45.6C111.7,177.4,111.7,254.4,111.7,254.4z M108.9,165.4h51.3l18.5-27.2
								H90.3L108.9,165.4z M136.8,234.2h-4.5c-3.3,0-6-2.7-6-6s2.7-6,6-6h4.5c3.3,0,6,2.7,6,6S140.1,234.2,136.8,234.2z M136.8,206
								h-4.5c-3.3,0-6-2.7-6-6s2.7-6,6-6h4.5c3.3,0,6,2.7,6,6S140.1,206,136.8,206z"/>
						</g>
					</g>
					<g>
						<g>
							<path class="st2" d="M0,500"/>
						</g>
						<g>
							<path class="st3" d="M0,500"/>
						</g>
						<g>
							<path class="st3" d="M0,500"/>
						</g>
						<g>
							<path class="st3" d="M0,500"/>
						</g>
						<g>
							<path class="st3" d="M0,500"/>
						</g>
						<g>
							<path class="st3" d="M0,500"/>
						</g>
						<g>
							<path class="st3" d="M0,500"/>
						</g>
						<g>
							<path class="st3" d="M0,500"/>
						</g>
						<g>
							<path class="st3" d="M0,500"/>
						</g>
						<g>
							<path class="st3" d="M0,500"/>
						</g>
						<g>
							<path class="st3" d="M0,500"/>
						</g>
						<g>
							<path class="st3" d="M0,500"/>
						</g>
					</g>
				</g>
			</g>
		</g>
	</g>
</g>
</svg>
