<?xml version="1.0" encoding="utf-8"?>
<!-- Generator: Adobe Illustrator 27.5.0, SVG Export Plug-In . SVG Version: 6.00 Build 0)  -->
<svg version="1.1" id="Layer_1" xmlns="http://www.w3.org/2000/svg" xmlns:xlink="http://www.w3.org/1999/xlink" x="0px" y="0px"
	 viewBox="0 0 500 500" style="enable-background:new 0 0 500 500;" xml:space="preserve">
<style type="text/css">
	.st0{clip-path:url(#SVGID_00000072997921140023349680000011411946107726233732_);}
	.st1{fill:#FFFFFF;}
	.st2{display:none;fill:none;stroke:#FFFFFF;stroke-width:3.5;stroke-linecap:round;stroke-linejoin:round;}
	.st3{fill:none;stroke:#FFFFFF;stroke-width:3.5;stroke-linecap:round;stroke-linejoin:round;}
</style>
<g>
	<g>
		<g>
			<g>
				<defs>
					<rect id="SVGID_1_" width="500" height="500"/>
				</defs>
				<clipPath id="SVGID_00000000941940089423280900000000204782024407830457_">
					<use xlink:href="#SVGID_1_"  style="overflow:visible;"/>
				</clipPath>
				<g style="clip-path:url(#SVGID_00000000941940089423280900000000204782024407830457_);">
					<g>
						<path class="st1" d="M294.2,239.1c-0.3,0-0.7,0-1-0.1s-0.7-0.2-1-0.3s-0.6-0.3-0.9-0.5s-0.5-0.4-0.8-0.6c-1-1-1.5-2.3-1.5-3.7
							c0-0.3,0-0.7,0.1-1s0.2-0.7,0.3-1s0.3-0.6,0.5-0.9c0.2-0.3,0.4-0.5,0.7-0.8c0.2-0.2,0.5-0.5,0.8-0.6c0.3-0.2,0.6-0.3,0.9-0.5
							c0.3-0.1,0.6-0.2,1-0.3c0.7-0.1,1.4-0.1,2,0c0.3,0.1,0.7,0.2,1,0.3s0.6,0.3,0.9,0.5s0.6,0.4,0.8,0.6c0.2,0.2,0.5,0.5,0.7,0.8
							s0.3,0.6,0.5,0.9s0.2,0.6,0.3,1c0.1,0.3,0.1,0.7,0.1,1c0,1.4-0.5,2.7-1.5,3.7c-0.2,0.2-0.5,0.5-0.8,0.6
							c-0.3,0.2-0.6,0.3-0.9,0.5c-0.3,0.1-0.6,0.2-1,0.3C294.9,239,294.5,239.1,294.2,239.1z"/>
					</g>
					<g>
						<path class="st1" d="M286,225c-0.3,0-0.7,0-1-0.1s-0.7-0.2-1-0.3s-0.6-0.3-0.9-0.5s-0.5-0.4-0.8-0.6c-0.2-0.2-0.5-0.5-0.7-0.8
							s-0.3-0.6-0.5-0.9s-0.2-0.6-0.3-1c-0.1-0.3-0.1-0.7-0.1-1c0-1.4,0.6-2.7,1.5-3.7c0.2-0.2,0.5-0.5,0.8-0.6
							c0.3-0.2,0.6-0.3,0.9-0.5c0.3-0.1,0.6-0.2,1-0.3c0.7-0.1,1.3-0.1,2,0c0.3,0.1,0.7,0.2,1,0.3s0.6,0.3,0.9,0.5s0.5,0.4,0.8,0.6
							c1,1,1.5,2.3,1.5,3.7s-0.5,2.7-1.5,3.7c-0.2,0.2-0.5,0.5-0.8,0.6c-0.3,0.2-0.6,0.3-0.9,0.5c-0.3,0.1-0.6,0.2-1,0.3
							S286.3,225,286,225z"/>
					</g>
					<g>
						<path class="st1" d="M273.5,214.5c-1.4,0-2.7-0.6-3.7-1.5c-0.2-0.2-0.5-0.5-0.7-0.8s-0.3-0.6-0.5-0.9s-0.2-0.6-0.3-1
							c-0.1-0.3-0.1-0.7-0.1-1c0-1.4,0.6-2.7,1.5-3.7c1-1,2.3-1.5,3.7-1.5c1.4,0,2.7,0.6,3.7,1.5c1,1,1.5,2.3,1.5,3.7
							c0,0.3,0,0.7-0.1,1s-0.2,0.7-0.3,1c-0.1,0.3-0.3,0.6-0.5,0.9c-0.2,0.3-0.4,0.5-0.6,0.8C276.2,213.9,274.9,214.5,273.5,214.5z"
							/>
					</g>
					<g>
						<path class="st1" d="M258.2,208.9c-0.3,0-0.7,0-1-0.1s-0.7-0.2-1-0.3c-0.3-0.1-0.6-0.3-0.9-0.5c-0.3-0.2-0.5-0.4-0.8-0.6
							c-0.2-0.2-0.5-0.5-0.7-0.8s-0.3-0.6-0.5-0.9s-0.2-0.6-0.3-1c-0.1-0.3-0.1-0.7-0.1-1s0-0.7,0.1-1s0.2-0.7,0.3-1
							s0.3-0.6,0.5-0.9c0.2-0.3,0.4-0.5,0.7-0.8c1-1,2.3-1.5,3.7-1.5s2.7,0.5,3.7,1.5c0.2,0.2,0.5,0.5,0.7,0.8s0.3,0.6,0.5,0.9
							s0.2,0.6,0.3,1c0.1,0.3,0.1,0.7,0.1,1c0,1.4-0.5,2.7-1.5,3.7c-0.2,0.2-0.5,0.5-0.8,0.6c-0.3,0.2-0.6,0.3-0.9,0.5
							c-0.3,0.1-0.6,0.2-1,0.3S258.5,208.9,258.2,208.9z"/>
					</g>
					<g>
						<path class="st1" d="M241.8,208.9c-0.3,0-0.7,0-1-0.1s-0.7-0.2-1-0.3s-0.6-0.3-0.9-0.5c-0.3-0.2-0.5-0.4-0.8-0.6
							c-0.2-0.2-0.5-0.5-0.6-0.8c-0.2-0.3-0.3-0.6-0.5-0.9c-0.1-0.3-0.2-0.6-0.3-1c-0.1-0.3-0.1-0.7-0.1-1s0-0.7,0.1-1
							s0.2-0.7,0.3-1s0.3-0.6,0.5-0.9c0.2-0.3,0.4-0.5,0.6-0.8c1.2-1.2,3-1.8,4.7-1.4c0.3,0.1,0.7,0.2,1,0.3s0.6,0.3,0.9,0.5
							c0.3,0.2,0.5,0.4,0.8,0.7c0.2,0.2,0.5,0.5,0.6,0.8c0.2,0.3,0.3,0.6,0.5,0.9c0.1,0.3,0.2,0.6,0.3,1c0.1,0.3,0.1,0.7,0.1,1
							s0,0.7-0.1,1s-0.2,0.7-0.3,1s-0.3,0.6-0.5,0.9c-0.2,0.3-0.4,0.5-0.6,0.8c-0.2,0.2-0.5,0.5-0.8,0.6c-0.3,0.2-0.6,0.3-0.9,0.5
							c-0.3,0.1-0.6,0.2-1,0.3C242.5,208.8,242.1,208.9,241.8,208.9z"/>
					</g>
					<g>
						<path class="st1" d="M226.5,214.5c-0.3,0-0.7,0-1-0.1s-0.7-0.2-1-0.3s-0.6-0.3-0.9-0.5c-0.3-0.2-0.5-0.4-0.8-0.6
							c-0.2-0.2-0.5-0.5-0.6-0.8c-0.2-0.3-0.3-0.6-0.5-0.9s-0.2-0.6-0.3-1c-0.1-0.3-0.1-0.7-0.1-1s0-0.7,0.1-1s0.2-0.7,0.3-1
							s0.3-0.6,0.5-0.9c0.2-0.3,0.4-0.5,0.6-0.8c0.2-0.2,0.5-0.5,0.8-0.6c0.3-0.2,0.6-0.3,0.9-0.5c0.3-0.1,0.6-0.2,1-0.3
							c1.7-0.3,3.5,0.2,4.7,1.4c0.2,0.2,0.5,0.5,0.7,0.8s0.3,0.6,0.5,0.9s0.2,0.6,0.3,1c0.1,0.3,0.1,0.7,0.1,1s0,0.7-0.1,1
							s-0.2,0.7-0.3,1s-0.3,0.6-0.5,0.9c-0.2,0.3-0.4,0.5-0.7,0.8C229.2,213.9,227.9,214.5,226.5,214.5z"/>
					</g>
					<g>
						<path class="st1" d="M214,225c-0.3,0-0.7,0-1-0.1s-0.7-0.2-1-0.3s-0.6-0.3-0.9-0.5c-0.3-0.2-0.6-0.4-0.8-0.6
							c-1-1-1.5-2.3-1.5-3.7c0-0.3,0-0.7,0.1-1s0.2-0.7,0.3-1s0.3-0.6,0.5-0.9c0.2-0.3,0.4-0.5,0.6-0.8c1-1,2.3-1.5,3.7-1.5
							s2.7,0.6,3.7,1.5c1,1,1.5,2.3,1.5,3.7s-0.5,2.7-1.5,3.7C216.7,224.4,215.4,225,214,225z"/>
					</g>
					<g>
						<path class="st1" d="M205.8,239.1c-1.4,0-2.7-0.5-3.7-1.5c-0.2-0.2-0.5-0.5-0.6-0.8c-0.2-0.3-0.3-0.6-0.5-0.9
							c-0.1-0.3-0.2-0.6-0.3-1c-0.1-0.3-0.1-0.7-0.1-1s0-0.7,0.1-1s0.2-0.7,0.3-1s0.3-0.6,0.5-0.9c0.2-0.3,0.4-0.5,0.6-0.8
							c1-1,2.3-1.5,3.7-1.5s2.7,0.6,3.7,1.5c1,1,1.5,2.3,1.5,3.7c0,0.3,0,0.7-0.1,1s-0.2,0.7-0.3,1s-0.3,0.6-0.5,0.9
							c-0.2,0.3-0.4,0.5-0.6,0.8C208.5,238.5,207.2,239.1,205.8,239.1z"/>
					</g>
					<g>
						<path class="st1" d="M203,255.2c-0.3,0-0.7,0-1-0.1s-0.7-0.2-1-0.3s-0.6-0.3-0.9-0.5c-0.3-0.2-0.5-0.4-0.8-0.6
							c-1-1-1.5-2.3-1.5-3.7s0.5-2.7,1.5-3.7c1.2-1.2,3-1.8,4.7-1.4c0.3,0.1,0.7,0.2,1,0.3s0.6,0.3,0.9,0.5c0.3,0.2,0.6,0.4,0.8,0.6
							c1,1,1.5,2.3,1.5,3.7s-0.5,2.7-1.5,3.7c-0.2,0.2-0.5,0.5-0.8,0.6c-0.3,0.2-0.6,0.3-0.9,0.5c-0.3,0.1-0.6,0.2-1,0.3
							C203.7,255.1,203.3,255.2,203,255.2z"/>
					</g>
					<g>
						<path class="st1" d="M205.8,271.3c-1.4,0-2.7-0.6-3.7-1.5c-0.2-0.2-0.5-0.5-0.6-0.8c-0.2-0.3-0.3-0.6-0.5-0.9
							c-0.1-0.3-0.2-0.6-0.3-1c-0.1-0.3-0.1-0.7-0.1-1s0-0.7,0.1-1s0.2-0.7,0.3-1s0.3-0.6,0.5-0.9s0.4-0.5,0.6-0.8
							c0.2-0.2,0.5-0.5,0.8-0.6c0.3-0.2,0.6-0.3,0.9-0.5c0.3-0.1,0.6-0.2,1-0.3c0.7-0.1,1.3-0.1,2,0c0.3,0.1,0.7,0.2,1,0.3
							c0.3,0.1,0.6,0.3,0.9,0.5c0.3,0.2,0.5,0.4,0.8,0.6c0.2,0.2,0.5,0.5,0.6,0.8c0.2,0.3,0.3,0.6,0.5,0.9c0.1,0.3,0.2,0.6,0.3,1
							c0.1,0.3,0.1,0.7,0.1,1s0,0.7-0.1,1s-0.2,0.7-0.3,1s-0.3,0.6-0.5,0.9s-0.4,0.5-0.6,0.8c-0.2,0.2-0.5,0.5-0.8,0.7
							s-0.6,0.3-0.9,0.5s-0.6,0.2-1,0.3C206.5,271.2,206.1,271.3,205.8,271.3z"/>
					</g>
					<g>
						<path class="st1" d="M214,285.4c-1.4,0-2.7-0.5-3.7-1.5s-1.5-2.3-1.5-3.7c0-1.4,0.5-2.7,1.5-3.7c0.2-0.2,0.5-0.5,0.8-0.7
							s0.6-0.3,0.9-0.5c0.3-0.1,0.6-0.2,1-0.3c0.7-0.1,1.4-0.1,2,0c0.3,0.1,0.7,0.2,1,0.3s0.6,0.3,0.9,0.5c0.3,0.2,0.5,0.4,0.8,0.7
							c1,1,1.5,2.3,1.5,3.7c0,1.4-0.5,2.7-1.5,3.7C216.7,284.8,215.4,285.4,214,285.4z"/>
					</g>
					<g>
						<path class="st1" d="M226.5,295.9c-0.3,0-0.7,0-1-0.1s-0.7-0.2-1-0.3c-0.3-0.1-0.6-0.3-0.9-0.5c-0.3-0.2-0.6-0.4-0.8-0.7
							c-0.2-0.2-0.5-0.5-0.6-0.8c-0.2-0.3-0.3-0.6-0.5-0.9c-0.1-0.3-0.2-0.6-0.3-1c-0.1-0.3-0.1-0.7-0.1-1s0-0.7,0.1-1
							s0.2-0.7,0.3-1s0.3-0.6,0.5-0.9s0.4-0.5,0.6-0.8c1.2-1.2,3-1.8,4.7-1.4c0.3,0.1,0.7,0.2,1,0.3s0.6,0.3,0.9,0.5
							c0.3,0.2,0.5,0.4,0.8,0.7c0.2,0.2,0.5,0.5,0.7,0.8s0.3,0.6,0.5,0.9c0.1,0.3,0.2,0.6,0.3,1c0.1,0.3,0.1,0.7,0.1,1s0,0.7-0.1,1
							s-0.2,0.7-0.3,1s-0.3,0.6-0.5,0.9s-0.4,0.6-0.7,0.8c-0.2,0.2-0.5,0.5-0.8,0.7s-0.6,0.3-0.9,0.5s-0.6,0.2-1,0.3
							C227.2,295.8,226.8,295.9,226.5,295.9z"/>
					</g>
					<g>
						<path class="st1" d="M241.8,301.5c-0.3,0-0.7,0-1-0.1s-0.7-0.2-1-0.3s-0.6-0.3-0.9-0.5c-0.3-0.2-0.5-0.4-0.8-0.6
							c-0.2-0.2-0.5-0.5-0.6-0.8c-0.2-0.3-0.3-0.6-0.5-0.9c-0.1-0.3-0.2-0.6-0.3-1c-0.1-0.3-0.1-0.7-0.1-1s0-0.7,0.1-1
							s0.2-0.7,0.3-1s0.3-0.6,0.5-0.9s0.4-0.5,0.6-0.8c0.2-0.2,0.5-0.5,0.8-0.6c0.3-0.2,0.6-0.3,0.9-0.5s0.6-0.2,1-0.3
							c1.7-0.3,3.5,0.2,4.7,1.4c0.2,0.2,0.5,0.5,0.6,0.8c0.2,0.3,0.3,0.6,0.5,0.9c0.1,0.3,0.2,0.6,0.3,1c0.1,0.3,0.1,0.7,0.1,1
							s0,0.7-0.1,1s-0.2,0.7-0.3,1s-0.3,0.6-0.5,0.9s-0.4,0.5-0.6,0.8c-0.2,0.2-0.5,0.5-0.8,0.6c-0.3,0.2-0.6,0.3-0.9,0.5
							s-0.6,0.2-1,0.3C242.5,301.5,242.1,301.5,241.8,301.5z"/>
					</g>
					<g>
						<path class="st1" d="M258.2,301.5c-0.3,0-0.7,0-1-0.1s-0.7-0.2-1-0.3c-0.3-0.1-0.6-0.3-0.9-0.5c-0.3-0.2-0.5-0.4-0.8-0.6
							c-0.2-0.2-0.5-0.5-0.7-0.8s-0.3-0.6-0.5-0.9c-0.1-0.3-0.2-0.6-0.3-1c-0.1-0.3-0.1-0.7-0.1-1s0-0.7,0.1-1s0.2-0.7,0.3-1
							s0.3-0.6,0.5-0.9s0.4-0.5,0.7-0.8c0.2-0.2,0.5-0.5,0.8-0.6c0.3-0.2,0.6-0.3,0.9-0.5c0.3-0.1,0.6-0.2,1-0.3
							c1.7-0.3,3.5,0.2,4.7,1.4c0.2,0.2,0.5,0.5,0.7,0.8s0.3,0.6,0.5,0.9c0.1,0.3,0.2,0.6,0.3,1c0.1,0.3,0.1,0.7,0.1,1s0,0.7-0.1,1
							s-0.2,0.7-0.3,1c-0.1,0.3-0.3,0.6-0.5,0.9s-0.4,0.5-0.7,0.8C260.9,300.9,259.6,301.5,258.2,301.5z"/>
					</g>
					<g>
						<path class="st1" d="M273.5,295.9c-1.4,0-2.7-0.5-3.7-1.5c-0.2-0.2-0.5-0.5-0.7-0.8s-0.3-0.6-0.5-0.9c-0.1-0.3-0.2-0.6-0.3-1
							s-0.1-0.7-0.1-1s0-0.7,0.1-1s0.2-0.7,0.3-1c0.1-0.3,0.3-0.6,0.5-0.9s0.4-0.5,0.7-0.8c1-1,2.3-1.5,3.7-1.5
							c1.4,0,2.7,0.5,3.7,1.5c0.2,0.2,0.5,0.5,0.6,0.8c0.2,0.3,0.3,0.6,0.5,0.9c0.1,0.3,0.2,0.6,0.3,1c0.1,0.3,0.1,0.7,0.1,1
							s0,0.7-0.1,1s-0.2,0.7-0.3,1c-0.1,0.3-0.3,0.6-0.5,0.9s-0.4,0.6-0.6,0.8C276.2,295.3,274.9,295.9,273.5,295.9z"/>
					</g>
					<g>
						<path class="st1" d="M286,285.4c-0.3,0-0.7,0-1-0.1s-0.7-0.2-1-0.3c-0.3-0.1-0.6-0.3-0.9-0.5s-0.5-0.4-0.8-0.7
							c-0.2-0.2-0.5-0.5-0.7-0.8s-0.3-0.6-0.5-0.9c-0.1-0.3-0.2-0.6-0.3-1s-0.1-0.7-0.1-1s0-0.7,0.1-1s0.2-0.7,0.3-1
							c0.1-0.3,0.3-0.6,0.5-0.9s0.4-0.5,0.7-0.8s0.5-0.5,0.8-0.7s0.6-0.3,0.9-0.5c0.3-0.1,0.6-0.2,1-0.3c0.7-0.1,1.3-0.1,2,0
							c0.3,0.1,0.7,0.2,1,0.3c0.3,0.1,0.6,0.3,0.9,0.5s0.5,0.4,0.8,0.7c0.2,0.2,0.5,0.5,0.6,0.8c0.2,0.3,0.3,0.6,0.5,0.9
							c0.1,0.3,0.2,0.6,0.3,1c0.1,0.3,0.1,0.7,0.1,1c0,1.4-0.5,2.7-1.5,3.7c-0.2,0.2-0.5,0.5-0.8,0.7s-0.6,0.3-0.9,0.5
							c-0.3,0.1-0.6,0.2-1,0.3C286.7,285.3,286.3,285.4,286,285.4z"/>
					</g>
					<g>
						<path class="st1" d="M294.2,271.3c-0.3,0-0.7,0-1-0.1s-0.7-0.2-1-0.3c-0.3-0.1-0.6-0.3-0.9-0.5s-0.5-0.4-0.8-0.7
							c-1-1-1.5-2.3-1.5-3.7c0-0.3,0-0.7,0.1-1s0.2-0.7,0.3-1c0.1-0.3,0.3-0.6,0.5-0.9s0.4-0.5,0.7-0.8c0.2-0.2,0.5-0.5,0.8-0.6
							c0.3-0.2,0.6-0.3,0.9-0.5c0.3-0.1,0.6-0.2,1-0.3c0.7-0.1,1.4-0.1,2,0c0.3,0.1,0.7,0.2,1,0.3c0.3,0.1,0.6,0.3,0.9,0.5
							s0.6,0.4,0.8,0.6c0.2,0.2,0.5,0.5,0.7,0.8s0.3,0.6,0.5,0.9c0.1,0.3,0.2,0.6,0.3,1c0.1,0.3,0.1,0.7,0.1,1
							c0,1.4-0.5,2.7-1.5,3.7c-0.2,0.2-0.5,0.5-0.8,0.7s-0.6,0.3-0.9,0.5c-0.3,0.1-0.6,0.2-1,0.3S294.5,271.3,294.2,271.3z"/>
					</g>
					<g>
						<path class="st1" d="M297,255.2c-0.3,0-0.7,0-1-0.1s-0.7-0.2-1-0.3s-0.6-0.3-0.9-0.5s-0.5-0.4-0.8-0.6
							c-0.2-0.2-0.5-0.5-0.7-0.8s-0.3-0.6-0.5-0.9c-0.1-0.3-0.2-0.6-0.3-1s-0.1-0.7-0.1-1c0-1.4,0.6-2.7,1.5-3.7
							c0.2-0.2,0.5-0.5,0.8-0.6c0.3-0.2,0.6-0.3,0.9-0.5c0.3-0.1,0.6-0.2,1-0.3c0.7-0.1,1.3-0.1,2,0c0.3,0.1,0.7,0.2,1,0.3
							s0.6,0.3,0.9,0.5s0.5,0.4,0.8,0.6c1,1,1.5,2.3,1.5,3.7c0,0.3,0,0.7-0.1,1s-0.2,0.7-0.3,1c-0.1,0.3-0.3,0.6-0.5,0.9
							c-0.2,0.3-0.4,0.5-0.6,0.8c-0.2,0.2-0.5,0.5-0.8,0.6c-0.3,0.2-0.6,0.3-0.9,0.5c-0.3,0.1-0.6,0.2-1,0.3
							C297.7,255.1,297.3,255.2,297,255.2z"/>
					</g>
					<g>
						<path class="st1" d="M316.1,232c-2.4,0-4.7-1.5-5.6-3.9c-1.2-3.1,0.4-6.6,3.5-7.7l3.2-1.2c3.1-1.2,6.6,0.4,7.7,3.5
							c1.2,3.1-0.4,6.6-3.5,7.7l-3.2,1.2C317.5,231.9,316.8,232,316.1,232z"/>
					</g>
					<g>
						<path class="st1" d="M303.9,210.8c-1.7,0-3.4-0.7-4.6-2.2c-2.1-2.5-1.8-6.3,0.8-8.5l11.6-9.7c2.5-2.1,6.3-1.8,8.5,0.8
							c2.1,2.5,1.8,6.3-0.8,8.5l-11.6,9.7C306.6,210.3,305.3,210.8,303.9,210.8z"/>
					</g>
					<g>
						<path class="st1" d="M285.1,195.1c-1,0-2.1-0.3-3-0.8c-2.9-1.7-3.8-5.3-2.2-8.2l17.7-30.6c1.7-2.9,5.3-3.8,8.2-2.2
							c2.9,1.7,3.8,5.3,2.2,8.2l-17.7,30.6C289.2,194,287.2,195.1,285.1,195.1z"/>
					</g>
					<g>
						<path class="st1" d="M262.2,186.8c-0.3,0-0.7,0-1-0.1c-3.3-0.6-5.4-3.7-4.9-7l10.8-61.3c0.6-3.3,3.7-5.4,7-4.9
							c3.3,0.6,5.4,3.7,4.9,7l-10.8,61.3C267.6,184.8,265.1,186.8,262.2,186.8z"/>
					</g>
					<g>
						<path class="st1" d="M237.8,186.8c-2.9,0-5.4-2-5.9-5l-16.1-91.2c-0.6-3.3,1.6-6.4,4.9-7c3.3-0.6,6.4,1.6,7,4.9l16.1,91.2
							c0.6,3.3-1.6,6.4-4.9,7C238.5,186.8,238.1,186.8,237.8,186.8z"/>
					</g>
					<g>
						<path class="st1" d="M214.9,195.1c-2.1,0-4.1-1.1-5.2-3L143.2,76.9c-1.7-2.9-0.7-6.5,2.2-8.2s6.5-0.7,8.2,2.2l66.5,115.2
							c1.7,2.9,0.7,6.5-2.2,8.2C217,194.8,215.9,195.1,214.9,195.1z"/>
					</g>
					<g>
						<path class="st1" d="M196.1,210.8c-1.4,0-2.7-0.5-3.9-1.4L63.3,101.2c-2.5-2.1-2.9-5.9-0.7-8.5c2.1-2.5,5.9-2.9,8.5-0.7
							L200,200.2c2.5,2.1,2.9,5.9,0.7,8.5C199.5,210.1,197.8,210.8,196.1,210.8z"/>
					</g>
					<g>
						<path class="st1" d="M183.9,232c-0.7,0-1.4-0.1-2.1-0.4L75.8,193c-3.1-1.1-4.7-4.6-3.6-7.7c1.1-3.1,4.6-4.7,7.7-3.6l106,38.6
							c3.1,1.1,4.7,4.6,3.6,7.7C188.7,230.5,186.3,232,183.9,232z"/>
					</g>
					<g>
						<path class="st1" d="M179.7,256H51.8c-3.3,0-6-2.7-6-6s2.7-6,6-6h127.9c3.3,0,6,2.7,6,6S183,256,179.7,256z"/>
					</g>
					<g>
						<path class="st1" d="M109.5,307.1c-2.5,0-4.8-1.5-5.6-3.9c-1.1-3.1,0.5-6.6,3.6-7.7l74.4-27.1c3.1-1.1,6.6,0.5,7.7,3.6
							c1.1,3.1-0.5,6.6-3.6,7.7l-74.4,27.1C110.9,307,110.2,307.1,109.5,307.1z"/>
					</g>
					<g>
						<path class="st1" d="M98.1,383.4c-1.7,0-3.4-0.7-4.6-2.1c-2.1-2.5-1.8-6.3,0.7-8.5l98-82.2c2.5-2.1,6.3-1.8,8.5,0.7
							c2.1,2.5,1.8,6.3-0.7,8.5L102,382C100.8,382.9,99.5,383.4,98.1,383.4z"/>
					</g>
					<g>
						<path class="st1" d="M162.6,407.3c-1,0-2-0.3-3-0.8c-2.9-1.7-3.9-5.3-2.2-8.2l52.2-90.4c1.7-2.9,5.3-3.9,8.2-2.2
							c2.9,1.7,3.9,5.3,2.2,8.2l-52.2,90.4C166.7,406.2,164.7,407.3,162.6,407.3z"/>
					</g>
					<g>
						<path class="st1" d="M216.2,447.9c-0.3,0-0.7,0-1-0.1c-3.3-0.6-5.4-3.7-4.9-6.9l21.6-122.7c0.6-3.3,3.7-5.4,6.9-4.9
							c3.3,0.6,5.4,3.7,4.9,6.9l-21.6,122.7C221.6,445.9,219.1,447.9,216.2,447.9z"/>
					</g>
					<g>
						<path class="st1" d="M282.1,438c-2.9,0-5.4-2-5.9-5l-19.9-112.8c-0.6-3.3,1.6-6.4,4.9-7s6.4,1.6,7,4.9L288,431
							c0.6,3.3-1.6,6.4-4.9,7C282.8,438,282.4,438,282.1,438z"/>
					</g>
					<g>
						<path class="st1" d="M360,446.7c-2.1,0-4.1-1.1-5.2-3l-74.9-129.8c-1.7-2.9-0.7-6.5,2.2-8.2c2.9-1.7,6.5-0.7,8.2,2.2
							l74.9,129.8c1.7,2.9,0.7,6.5-2.2,8.2C362.1,446.4,361,446.7,360,446.7z"/>
					</g>
					<g>
						<path class="st1" d="M432.9,409.4c-1.4,0-2.7-0.5-3.9-1.4L300,299.8c-2.5-2.1-2.9-5.9-0.7-8.5c2.1-2.5,5.9-2.9,8.5-0.7
							l129,108.2c2.5,2.1,2.9,5.9,0.7,8.5C436.3,408.7,434.6,409.4,432.9,409.4z"/>
					</g>
					<g>
						<path class="st1" d="M434.8,323.2c-0.7,0-1.4-0.1-2.1-0.4L314,279.6c-3.1-1.1-4.7-4.6-3.6-7.7s4.6-4.7,7.7-3.6l118.7,43.2
							c3.1,1.1,4.7,4.6,3.6,7.7C439.6,321.7,437.2,323.2,434.8,323.2z"/>
					</g>
					<g>
						<path class="st1" d="M439.8,256H320.3c-3.3,0-6-2.7-6-6s2.7-6,6-6h119.5c3.3,0,6,2.7,6,6S443.1,256,439.8,256z"/>
					</g>
					<g>
						<g>
							<g>
								<path class="st2" d="M0,500"/>
							</g>
						</g>
						<g>
							<g>
								<path class="st3" d="M0,500"/>
							</g>
						</g>
						<g>
							<g>
								<path class="st3" d="M0,500"/>
							</g>
						</g>
						<g>
							<g>
								<path class="st3" d="M0,500"/>
							</g>
						</g>
						<g>
							<g>
								<path class="st3" d="M0,500"/>
							</g>
						</g>
						<g>
							<g>
								<path class="st3" d="M0,500"/>
							</g>
						</g>
						<g>
							<g>
								<path class="st3" d="M0,500"/>
							</g>
						</g>
						<g>
							<g>
								<path class="st3" d="M0,500"/>
							</g>
						</g>
						<g>
							<g>
								<path class="st3" d="M0,500"/>
							</g>
						</g>
						<g>
							<g>
								<path class="st3" d="M0,500"/>
							</g>
						</g>
						<g>
							<g>
								<path class="st3" d="M0,500"/>
							</g>
						</g>
						<g>
							<g>
								<path class="st3" d="M0,500"/>
							</g>
						</g>
					</g>
				</g>
			</g>
		</g>
	</g>
</g>
</svg>
