<?xml version="1.0" encoding="utf-8"?>
<!-- Generator: Adobe Illustrator 27.5.0, SVG Export Plug-In . SVG Version: 6.00 Build 0)  -->
<svg version="1.1" id="Layer_1" xmlns="http://www.w3.org/2000/svg" xmlns:xlink="http://www.w3.org/1999/xlink" x="0px" y="0px"
	 viewBox="0 0 500 500" style="enable-background:new 0 0 500 500;" xml:space="preserve">
<style type="text/css">
	.st0{fill:#FFFFFF;}
	.st1{fill:none;stroke:#FFFFFF;stroke-width:12;stroke-linecap:round;stroke-linejoin:round;}
</style>
<g>
	<g>
		<path class="st0" d="M259.8,236.3h-170c-3.3,0-6-2.7-6-6v-70.2c0.1-42,34.3-76.2,76.3-76.2h99.7c42,0,76.2,34.2,76.2,76.2
			S301.8,236.3,259.8,236.3z M95.8,224.3h164c35.4,0,64.2-28.8,64.2-64.2s-28.8-64.2-64.2-64.2h-99.7c-35.4,0-64.2,28.8-64.3,64.2
			L95.8,224.3L95.8,224.3z"/>
		<path class="st0" d="M210,215.8c-9.3,0-16.8-7.5-16.8-16.8s7.5-16.8,16.8-16.8s16.8,7.5,16.8,16.8S219.3,215.8,210,215.8z
			 M210,194.2c-2.7,0-4.8,2.1-4.8,4.8s2.1,4.8,4.8,4.8s4.8-2.1,4.8-4.8S212.7,194.2,210,194.2z M211.8,176.5h-3.7
			c-8.3,0-15.1-6.5-15.4-14.8l-1.9-39.3c-0.2-4.8,1.5-9.3,4.7-12.7c3.2-3.4,7.7-5.3,12.4-5.3h4.1c4.7,0,9.3,2,12.5,5.4
			s4.9,7.9,4.6,12.7l-1.9,39.3C226.9,170,220.1,176.5,211.8,176.5z M207.9,116.4c-1.4,0-2.7,0.6-3.7,1.6s-1.5,2.4-1.4,3.8l1.9,39.4
			c0.1,1.9,1.6,3.3,3.4,3.3h3.7c1.8,0,3.3-1.4,3.4-3.2l1.9-39.4c0.1-1.5-0.4-2.8-1.3-3.8c-1-1-2.3-1.6-3.8-1.6h-4.1L207.9,116.4
			L207.9,116.4z"/>
		<path class="st0" d="M410.2,413.2h-170c-42,0-76.2-34.2-76.2-76.2s34.2-76.2,76.2-76.2h99.7c42,0,76.2,34.2,76.3,76.2v70.2
			C416.2,410.5,413.5,413.2,410.2,413.2z M240.2,272.8c-35.4,0-64.2,28.8-64.2,64.2s28.8,64.2,64.2,64.2h164V337
			c-0.1-35.4-28.9-64.2-64.3-64.2H240.2z"/>
		<path class="st0" d="M358.3,364.3H221.8c-3.3,0-6-2.7-6-6s2.7-6,6-6h136.5c3.3,0,6,2.7,6,6S361.6,364.3,358.3,364.3z"/>
		<path class="st0" d="M358.3,329.7h-33c-3.3,0-6-2.7-6-6s2.7-6,6-6h33c3.3,0,6,2.7,6,6S361.6,329.7,358.3,329.7z"/>
		<path class="st0" d="M296.3,329.7h-74.5c-3.3,0-6-2.7-6-6s2.7-6,6-6h74.5c3.3,0,6,2.7,6,6S299.6,329.7,296.3,329.7z"/>
	</g>
	<path class="st1" d="M0,500"/>
</g>
</svg>
