<?xml version="1.0" encoding="utf-8"?>
<!-- Generator: Adobe Illustrator 27.5.0, SVG Export Plug-In . SVG Version: 6.00 Build 0)  -->
<svg version="1.1" id="Layer_1" xmlns="http://www.w3.org/2000/svg" xmlns:xlink="http://www.w3.org/1999/xlink" x="0px" y="0px"
	 viewBox="0 0 500 500" style="enable-background:new 0 0 500 500;" xml:space="preserve">
<style type="text/css">
	.st0{fill:#FFFFFF;}
	.st1{display:none;fill:none;stroke:#FFFFFF;stroke-width:12;stroke-linecap:round;stroke-linejoin:round;}
	.st2{fill:none;stroke:#FFFFFF;stroke-width:12;stroke-linecap:round;stroke-linejoin:round;}
</style>
<g>
	<g>
		<path class="st0" d="M282,383.2H96.3c-3.3,0-6-2.7-6-6v-84.7c0-33.4,18.3-64,47.7-79.9c13.1-7.1,28-10.8,43-10.8h100.9
			c43.9,0,81.5,31.3,89.3,74.5c1,5.4,1.5,10.8,1.5,16.2c0,24.2-9.4,47-26.6,64.1C329,373.8,306.2,383.2,282,383.2z M102.3,371.2H282
			c21,0,40.8-8.2,55.7-23c14.9-14.9,23-34.6,23-55.7c0-4.6-0.4-9.3-1.3-14c-6.8-37.5-39.4-64.7-77.5-64.7H181
			c-13.1,0-26,3.2-37.3,9.4c-25.5,13.8-41.4,40.3-41.4,69.3C102.3,292.5,102.3,371.2,102.3,371.2z"/>
	</g>
	<g>
		<path class="st0" d="M407.4,283.4h-42c-2.9,0-5.4-2.1-5.9-4.9c-6.8-37.5-39.4-64.7-77.5-64.7H181.1c-12.9,0-25.9,3.2-37.4,9.4
			c-1.6,0.8-3.4,0.9-5.1,0.3s-2.9-2.1-3.5-3.8c-2.7-8.6-4.1-17.8-4.1-27.1c0-50,40.7-90.7,90.7-90.7h100.9c50,0,90.7,40.7,90.7,90.8
			v84.7C413.4,280.7,410.7,283.4,407.4,283.4z M370.3,271.4h31.1v-78.7c0-43.5-35.3-78.8-78.7-78.8H221.8
			c-43.4,0-78.7,35.3-78.7,78.7c0,5.7,0.6,11.3,1.8,16.7c11.5-5,23.8-7.5,36.2-7.5H282C324.2,201.8,360.5,230.8,370.3,271.4z"/>
	</g>
	<g>
		<g>
			<path class="st1" d="M0,500"/>
		</g>
		<g>
			<path class="st2" d="M0,500"/>
		</g>
		<g>
			<path class="st2" d="M0,500"/>
		</g>
		<g>
			<path class="st2" d="M0,500"/>
		</g>
		<g>
			<path class="st2" d="M0,500"/>
		</g>
		<g>
			<path class="st2" d="M0,500"/>
		</g>
		<g>
			<path class="st2" d="M0,500"/>
		</g>
		<g>
			<path class="st2" d="M0,500"/>
		</g>
		<g>
			<path class="st2" d="M0,500"/>
		</g>
		<g>
			<path class="st2" d="M0,500"/>
		</g>
		<g>
			<path class="st2" d="M0,500"/>
		</g>
		<g>
			<path class="st2" d="M0,500"/>
		</g>
	</g>
</g>
</svg>
