<?xml version="1.0" encoding="utf-8"?>
<!-- Generator: Adobe Illustrator 27.5.0, SVG Export Plug-In . SVG Version: 6.00 Build 0)  -->
<svg version="1.1" id="Layer_1" xmlns="http://www.w3.org/2000/svg" xmlns:xlink="http://www.w3.org/1999/xlink" x="0px" y="0px"
	 viewBox="0 0 500 500" style="enable-background:new 0 0 500 500;" xml:space="preserve">
<style type="text/css">
	.st0{clip-path:url(#SVGID_00000066507096947245670450000004513441671342011273_);}
	.st1{fill:#FFFFFF;}
	.st2{display:none;fill:none;stroke:#FFFFFF;stroke-width:12;stroke-linecap:round;stroke-linejoin:round;}
	.st3{fill:none;stroke:#FFFFFF;stroke-width:12;stroke-linecap:round;stroke-linejoin:round;}
</style>
<g>
	<g>
		<g>
			<g>
				<defs>
					<rect id="SVGID_1_" width="500" height="500"/>
				</defs>
				<clipPath id="SVGID_00000010992406620800806560000002193717164720714930_">
					<use xlink:href="#SVGID_1_"  style="overflow:visible;"/>
				</clipPath>
				<g style="clip-path:url(#SVGID_00000010992406620800806560000002193717164720714930_);">
					<g>
						<path class="st1" d="M311.7,354H96.3c-3.3,0-6-2.7-6-6v-98.3c0-57.5,46.8-104.3,104.3-104.3h117.1
							c57.5,0,104.3,46.8,104.3,104.3S369.2,354,311.7,354z M102.3,342h209.4c50.9,0,92.3-41.4,92.3-92.3s-41.4-92.3-92.3-92.3
							H194.6c-50.9,0-92.3,41.4-92.3,92.3V342z"/>
					</g>
					<g>
						<path class="st1" d="M221.7,296.5c-1,0-2.1-0.3-3-0.8c-1.9-1.1-3-3.1-3-5.2v-82.9c0-2.1,1.1-4.1,3-5.2c1.9-1.1,4.1-1.1,6,0
							l71.8,41.5c1.9,1.1,3,3.1,3,5.2c0,2.1-1.1,4.1-3,5.2l-71.8,41.4C223.8,296.2,222.7,296.5,221.7,296.5z M227.7,218v62.1
							l53.8-31L227.7,218z"/>
					</g>
					<g>
						<g>
							<path class="st2" d="M0,500"/>
						</g>
						<g>
							<path class="st3" d="M0,500"/>
						</g>
						<g>
							<path class="st3" d="M0,500"/>
						</g>
						<g>
							<path class="st3" d="M0,500"/>
						</g>
						<g>
							<path class="st3" d="M0,500"/>
						</g>
						<g>
							<path class="st3" d="M0,500"/>
						</g>
						<g>
							<path class="st3" d="M0,500"/>
						</g>
						<g>
							<path class="st3" d="M0,500"/>
						</g>
						<g>
							<path class="st3" d="M0,500"/>
						</g>
						<g>
							<path class="st3" d="M0,500"/>
						</g>
						<g>
							<path class="st3" d="M0,500"/>
						</g>
						<g>
							<path class="st3" d="M0,500"/>
						</g>
					</g>
				</g>
			</g>
		</g>
	</g>
</g>
</svg>
