<?xml version="1.0" encoding="utf-8"?>
<!-- Generator: Adobe Illustrator 27.5.0, SVG Export Plug-In . SVG Version: 6.00 Build 0)  -->
<svg version="1.1" id="Layer_1" xmlns="http://www.w3.org/2000/svg" xmlns:xlink="http://www.w3.org/1999/xlink" x="0px" y="0px"
	 viewBox="0 0 500 500" style="enable-background:new 0 0 500 500;" xml:space="preserve">
<style type="text/css">
	.st0{clip-path:url(#SVGID_00000032611451489414601140000002801223781563174066_);}
	.st1{fill:#FFFFFF;}
	.st2{display:none;fill:none;stroke:#FFFFFF;stroke-width:12;stroke-linecap:round;stroke-linejoin:round;}
	.st3{fill:none;stroke:#FFFFFF;stroke-width:12;stroke-linecap:round;stroke-linejoin:round;}
</style>
<g>
	<g>
		<g>
			<g>
				<defs>
					<rect id="SVGID_1_" width="500" height="500"/>
				</defs>
				<clipPath id="SVGID_00000174594764175867352210000011193985457279288763_">
					<use xlink:href="#SVGID_1_"  style="overflow:visible;"/>
				</clipPath>
				<g style="clip-path:url(#SVGID_00000174594764175867352210000011193985457279288763_);">
					<g>
						<path class="st1" d="M311.7,354H96.3c-3.3,0-6-2.7-6-6v-98.3c0-57.5,46.8-104.3,104.3-104.3h117.1
							c57.5,0,104.3,46.8,104.3,104.3S369.2,354,311.7,354z M102.3,342h209.4c50.9,0,92.3-41.4,92.3-92.3s-41.4-92.3-92.3-92.3
							H194.6c-50.9,0-92.3,41.4-92.3,92.3V342z"/>
					</g>
					<g>
						<path class="st1" d="M324.8,348.2c-0.1,0-0.1,0-0.2,0c-3.3-0.1-5.9-2.9-5.8-6.2l0.2-6.7c0-22.1-18.1-40.1-40.2-40.1H226
							c-22.2,0-40.2,18-40.2,40.2c0,0.1,0,0.1,0,0.2l-0.1,2.4c1.1,1.1,1.8,2.6,1.8,4.3c0,3.3-2.7,6-6,6h-1.9c-1.6,0-3.2-0.7-4.3-1.8
							c-1.1-1.2-1.7-2.7-1.7-4.4l0.2-6.7c0-28.7,23.4-52.1,52.2-52.1h52.8c28.8,0,52.2,23.4,52.2,52.2c0,0.1,0,0.1,0,0.2l-0.2,6.8
							C330.7,345.6,328,348.2,324.8,348.2z"/>
					</g>
					<g>
						<path class="st1" d="M252.4,276.8c-21.7,0-39.4-17.7-39.4-39.4s17.7-39.4,39.4-39.4c11.7,0,22.7,5.1,30.2,14
							c5.9,7,9.2,16,9.2,25.4C291.8,259.1,274.1,276.8,252.4,276.8z M252.4,210c-15.1,0-27.4,12.3-27.4,27.4
							c0,15.1,12.3,27.4,27.4,27.4c15.1,0,27.4-12.3,27.4-27.4c0-6.5-2.3-12.8-6.4-17.6l0,0C268.2,213.6,260.6,210,252.4,210z"/>
					</g>
					<g>
						<g>
							<path class="st2" d="M0,500"/>
						</g>
						<g>
							<path class="st3" d="M0,500"/>
						</g>
						<g>
							<path class="st3" d="M0,500"/>
						</g>
						<g>
							<path class="st3" d="M0,500"/>
						</g>
						<g>
							<path class="st3" d="M0,500"/>
						</g>
						<g>
							<path class="st3" d="M0,500"/>
						</g>
						<g>
							<path class="st3" d="M0,500"/>
						</g>
						<g>
							<path class="st3" d="M0,500"/>
						</g>
						<g>
							<path class="st3" d="M0,500"/>
						</g>
						<g>
							<path class="st3" d="M0,500"/>
						</g>
						<g>
							<path class="st3" d="M0,500"/>
						</g>
						<g>
							<path class="st3" d="M0,500"/>
						</g>
					</g>
				</g>
			</g>
		</g>
	</g>
</g>
</svg>
