<?xml version="1.0" encoding="utf-8"?>
<!-- Generator: Adobe Illustrator 27.5.0, SVG Export Plug-In . SVG Version: 6.00 Build 0)  -->
<svg version="1.1" id="Layer_1" xmlns="http://www.w3.org/2000/svg" xmlns:xlink="http://www.w3.org/1999/xlink" x="0px" y="0px"
	 viewBox="0 0 500 500" style="enable-background:new 0 0 500 500;" xml:space="preserve">
<style type="text/css">
	.st0{clip-path:url(#SVGID_00000120520535808238174400000013133103118153958334_);}
	.st1{fill:#FFFFFF;}
	.st2{display:none;fill:none;stroke:#FFFFFF;stroke-width:12;stroke-linecap:round;stroke-linejoin:round;}
	.st3{fill:none;stroke:#FFFFFF;stroke-width:12;stroke-linecap:round;stroke-linejoin:round;}
</style>
<g>
	<g>
		<g>
			<g>
				<defs>
					<rect id="SVGID_1_" width="500" height="500"/>
				</defs>
				<clipPath id="SVGID_00000100382430217764667430000016252112563411499429_">
					<use xlink:href="#SVGID_1_"  style="overflow:visible;"/>
				</clipPath>
				<g style="clip-path:url(#SVGID_00000100382430217764667430000016252112563411499429_);">
					<g>
						<path class="st1" d="M250.6,432.8c-48.1,0-93.3-18.7-127.3-52.8c-34-34-52.8-79.2-52.8-127.3s18.7-93.3,52.8-127.3
							s79.2-52.8,127.3-52.8s93.3,18.7,127.3,52.8c34.8,34.8,53.5,81.2,52.7,130.4c-0.1,3.3-2.8,6-6.1,5.9c-3.3-0.1-6-2.8-5.9-6.1
							c0.8-46-16.6-89.3-49.1-121.8c-65.5-65.5-172.1-65.5-237.6,0s-65.5,172.1,0,237.6s172.1,65.5,237.6,0
							c5.5-5.5,10.6-11.4,15.4-17.7c2-2.6,5.8-3.2,8.4-1.2s3.2,5.8,1.2,8.4c-5,6.7-10.6,13.1-16.4,18.9
							C343.9,414.1,298.7,432.8,250.6,432.8z"/>
					</g>
					<g>
						<path class="st1" d="M391.9,400.6c-3.3,0-6-2.7-6-6v-34.4h-34.7c-3.3,0-6-2.7-6-6s2.7-6,6-6h40.7c3.3,0,6,2.7,6,6v40.4
							C397.9,397.9,395.2,400.6,391.9,400.6z"/>
					</g>
					<g>
						<path class="st1" d="M250.7,255.4c-3.3,0-6-2.7-6-6V129.8c0-3.3,2.7-6,6-6s6,2.7,6,6v119.6C256.7,252.7,254,255.4,250.7,255.4
							z"/>
					</g>
					<g>
						<path class="st1" d="M250.7,258.8h-87.9c-3.3,0-6-2.7-6-6s2.7-6,6-6h87.9c3.3,0,6,2.7,6,6C256.7,256.1,254,258.8,250.7,258.8z
							"/>
					</g>
					<g>
						<g>
							<path class="st2" d="M0,500"/>
						</g>
						<g>
							<path class="st3" d="M0,500"/>
						</g>
						<g>
							<path class="st3" d="M0,500"/>
						</g>
						<g>
							<path class="st3" d="M0,500"/>
						</g>
						<g>
							<path class="st3" d="M0,500"/>
						</g>
						<g>
							<path class="st3" d="M0,500"/>
						</g>
						<g>
							<path class="st3" d="M0,500"/>
						</g>
						<g>
							<path class="st3" d="M0,500"/>
						</g>
						<g>
							<path class="st3" d="M0,500"/>
						</g>
						<g>
							<path class="st3" d="M0,500"/>
						</g>
						<g>
							<path class="st3" d="M0,500"/>
						</g>
						<g>
							<path class="st3" d="M0,500"/>
						</g>
					</g>
				</g>
			</g>
		</g>
	</g>
</g>
</svg>
