<?xml version="1.0" encoding="utf-8"?>
<!-- Generator: Adobe Illustrator 27.5.0, SVG Export Plug-In . SVG Version: 6.00 Build 0)  -->
<svg version="1.1" id="Layer_1" xmlns="http://www.w3.org/2000/svg" xmlns:xlink="http://www.w3.org/1999/xlink" x="0px" y="0px"
	 viewBox="0 0 500 500" style="enable-background:new 0 0 500 500;" xml:space="preserve">
<style type="text/css">
	.st0{fill:#FFFFFF;}
</style>
<g>
	<g>
		<path class="st0" d="M247.7,322.3c-0.6,0-1.2-0.1-1.9-0.3c-3.2-1-4.9-4.4-3.9-7.6l17.7-54.5c1-3.2,4.4-4.9,7.6-3.9
			s4.9,4.4,3.9,7.6l-17.7,54.5C252.6,320.7,250.2,322.3,247.7,322.3z M302.5,322.2c-1.8,0-3.7-0.8-4.8-2.4c-2-2.7-1.4-6.4,1.3-8.4
			l30.4-22.4L299,266.6c-2.7-2-3.2-5.7-1.3-8.4c2-2.7,5.7-3.2,8.4-1.3l37,27.2c1.5,1.1,2.4,2.9,2.4,4.8s-0.9,3.7-2.4,4.8l-37,27.2
			C305,321.8,303.7,322.2,302.5,322.2z M211.5,322.2c-1.2,0-2.5-0.4-3.5-1.2l-37-27.2c-1.5-1.1-2.4-2.9-2.4-4.8s0.9-3.7,2.4-4.8
			l37-27.2c2.7-2,6.4-1.4,8.4,1.3c2,2.7,1.4,6.4-1.3,8.4L184.6,289l30.4,22.4c2.7,2,3.2,5.7,1.3,8.4
			C215.2,321.4,213.3,322.2,211.5,322.2z"/>
	</g>
	<g>
		<path class="st0" d="M340.2,370.9H143.3c-41.1,0-74.5-33.4-74.5-74.5c0-26.2,13.7-50.2,36.1-63.7c-0.2-1.6-0.3-3.1-0.3-4.8
			c0-23.5,19.1-42.6,42.6-42.6c2.8,0,5.5,0.3,8.3,0.8c22.1-38.7,62.9-62.5,107.5-62.5c48.9,0,92.9,28.6,112.8,73
			c15.8,6.7,29.3,17.7,39.1,31.9c10.6,15.3,16.1,33.1,16,51.7C431,330.2,390.3,370.9,340.2,370.9z M147.2,197.3
			c-16.9,0-30.6,13.7-30.6,30.6c0,2.2,0.2,4.4,0.7,6.6c0.6,2.7-0.6,5.4-3,6.7c-20.7,10.9-33.5,32.1-33.5,55.3
			c0,34.5,28,62.5,62.5,62.5h196.9c43.5,0,78.8-35.3,78.8-78.8c0.2-32-19.9-61.5-49.9-73.3c-1.5-0.6-2.7-1.8-3.3-3.2
			c-17.5-41.3-57.9-67.9-102.8-67.9c-41.7,0-79.8,23.1-99.2,60.3c-1.4,2.6-4.4,3.8-7.2,2.9C153.6,197.8,150.4,197.3,147.2,197.3z"/>
	</g>
	<g>
		<path class="st0" d="M376.8,281c-0.5,0-1.1-0.1-1.6-0.2c-3.2-0.9-5-4.2-4.2-7.4c4-14.2,4.1-26,4.1-26.1c0.1-15-3.1-30.4-9.2-44.5
			c-1.3-3,0.1-6.6,3.1-7.9c3-1.3,6.6,0.1,7.9,3.1c6.8,15.7,10.3,32.7,10.2,49.3c0,0.5-0.1,13.4-4.5,29.3
			C381.8,279.3,379.4,281,376.8,281z M182.1,221.6c-2.5,0-4.8-1.5-5.6-4c-4.4-12.2-16-20.3-28.9-20.3c-3.3,0-6-2.7-6-6s2.7-6,6-6
			c17.9,0,34,11.4,40.1,28.3c1.1,3.1-0.5,6.6-3.6,7.7C183.5,221.5,182.8,221.6,182.1,221.6z"/>
	</g>
</g>
</svg>
