<?xml version="1.0" encoding="utf-8"?>
<!-- Generator: Adobe Illustrator 27.5.0, SVG Export Plug-In . SVG Version: 6.00 Build 0)  -->
<svg version="1.1" id="Layer_1" xmlns="http://www.w3.org/2000/svg" xmlns:xlink="http://www.w3.org/1999/xlink" x="0px" y="0px"
	 viewBox="0 0 500 500" style="enable-background:new 0 0 500 500;" xml:space="preserve">
<style type="text/css">
	.st0{fill:#FFFFFF;}
	.st1{fill:none;stroke:#FFFFFF;stroke-width:12;}
	.st2{fill:none;stroke:#FFFFFF;stroke-width:12;stroke-linecap:round;stroke-linejoin:round;}
</style>
<g>
	<g>
		<g>
			<path class="st0" d="M341.2,366.3h-50.9c-3.3,0-6-2.7-6-6s2.7-6,6-6h50.9c43.5,0,78.8-35.3,78.8-78.8c0-32.6-19.6-61.5-50-73.4
				c-1.5-0.6-2.7-1.8-3.3-3.2c-17.6-41.3-57.9-67.9-102.8-67.9c-41.7,0-79.8,23.1-99.2,60.3c-1.4,2.6-4.4,3.8-7.2,2.9
				c-3.1-1-6.3-1.5-9.4-1.5c-16.9,0-30.6,13.7-30.6,30.6c0,2.2,0.2,4.4,0.7,6.6c0.6,2.7-0.6,5.4-3,6.7
				c-20.7,10.9-33.5,32.1-33.5,55.3c0,34.5,28,62.5,62.5,62.5h88.6c3.3,0,6,2.7,6,6s-2.7,6-6,6h-88.6c-41.1,0-74.5-33.4-74.5-74.5
				c0-26.2,13.7-50.2,36.1-63.7c-0.2-1.6-0.3-3.1-0.3-4.8c0-23.5,19.1-42.6,42.6-42.6c2.8,0,5.5,0.3,8.3,0.8
				c22.1-38.7,62.9-62.5,107.5-62.5c48.9,0,92.9,28.6,112.8,73c15.8,6.7,29.3,17.7,39.1,31.9c10.6,15.2,16.2,33.1,16.2,51.7
				C432,325.6,391.3,366.3,341.2,366.3z"/>
		</g>
		<g>
			<path class="st0" d="M378.2,276.7c-0.5,0-1.1-0.1-1.6-0.2c-3.2-0.9-5-4.2-4.2-7.4c4-14.2,4.1-26,4.1-26.1
				c0.1-15-3.1-30.4-9.2-44.5c-1.3-3,0.1-6.6,3.1-7.9c3-1.3,6.6,0.1,7.9,3.1c6.8,15.7,10.3,32.7,10.2,49.3c0,0.5-0.1,13.4-4.5,29.3
				C383.2,275,380.8,276.7,378.2,276.7z M183.5,217.3c-2.5,0-4.8-1.5-5.6-4c-4.4-12.2-16-20.3-28.9-20.3c-3.3,0-6-2.7-6-6s2.7-6,6-6
				c17.9,0,34,11.4,40.1,28.3c1.1,3.1-0.5,6.6-3.6,7.7C184.9,217.2,184.2,217.3,183.5,217.3z"/>
		</g>
		<g>
			<g>
				<path class="st0" d="M262.2,382.4c-3.3,0-6-2.7-6-6v-133c0-3.3,2.7-6,6-6s6,2.7,6,6v133C268.2,379.7,265.5,382.4,262.2,382.4z"
					/>
			</g>
			<g>
				<path class="st1" d="M250,271.4"/>
			</g>
		</g>
		<g>
			<path class="st0" d="M213.7,295.8c-1.5,0-3.1-0.6-4.2-1.8c-2.3-2.3-2.3-6.1,0-8.5l49-49c1.1-1.1,2.7-1.8,4.2-1.8l0,0
				c1.6,0,3.1,0.7,4.3,1.8l48.1,49c2.3,2.4,2.3,6.2-0.1,8.5s-6.2,2.3-8.5-0.1l-43.9-44.7L217.9,294
				C216.8,295.2,215.2,295.8,213.7,295.8z"/>
		</g>
	</g>
	<g>
		<path class="st2" d="M0,500"/>
	</g>
</g>
</svg>
