<?xml version="1.0" encoding="utf-8"?>
<!-- Generator: Adobe Illustrator 27.5.0, SVG Export Plug-In . SVG Version: 6.00 Build 0)  -->
<svg version="1.1" id="Layer_1" xmlns="http://www.w3.org/2000/svg" xmlns:xlink="http://www.w3.org/1999/xlink" x="0px" y="0px"
	 viewBox="0 0 500 500" style="enable-background:new 0 0 500 500;" xml:space="preserve">
<style type="text/css">
	.st0{clip-path:url(#SVGID_00000154422657483549117080000002047786899626408878_);}
	.st1{fill:#FFFFFF;}
	.st2{display:none;fill:none;stroke:#FFFFFF;stroke-width:17.5;stroke-linecap:round;stroke-linejoin:round;}
	.st3{fill:none;stroke:#FFFFFF;stroke-width:17.5;stroke-linecap:round;stroke-linejoin:round;}
</style>
<g>
	<g>
		<g>
			<g>
				<defs>
					<rect id="SVGID_1_" width="500" height="500"/>
				</defs>
				<clipPath id="SVGID_00000085217881537802663470000017887065285745105086_">
					<use xlink:href="#SVGID_1_"  style="overflow:visible;"/>
				</clipPath>
				<g style="clip-path:url(#SVGID_00000085217881537802663470000017887065285745105086_);">
					<g>
						<path class="st1" d="M179.4,313.7c-1.4,0-2.8-0.5-3.9-1.5l-66.1-57.7c-1.3-1.1-2.1-2.8-2.1-4.5s0.7-3.4,2.1-4.5l66.1-57.7
							c2.5-2.2,6.3-1.9,8.5,0.6s1.9,6.3-0.6,8.5l-61,53.1l60.9,53.2c2.5,2.2,2.8,6,0.6,8.5C182.7,313,181.1,313.7,179.4,313.7z"/>
					</g>
					<g>
						<path class="st1" d="M320,313.7c-1.7,0-3.3-0.7-4.5-2.1c-2.2-2.5-1.9-6.3,0.6-8.5L377,250l-60.9-53.2c-2.5-2.2-2.8-6-0.6-8.5
							c2.2-2.5,6-2.8,8.5-0.6l66.1,57.7c1.3,1.1,2.1,2.8,2.1,4.5s-0.7,3.4-2.1,4.5L324,312.1C322.8,313.2,321.4,313.7,320,313.7z"/>
					</g>
					<g>
						<path class="st1" d="M199.3,261.8h-0.2c-4.8,0-8.8-3.9-8.8-8.8c0-4.8,3.9-8.8,8.8-8.8h0.2c4.8,0,8.8,3.9,8.8,8.8
							C208,257.8,204.1,261.8,199.3,261.8z"/>
					</g>
					<g>
						<path class="st1" d="M250.1,259.8h-0.2c-4.8,0-8.8-3.9-8.8-8.8c0-4.8,3.9-8.8,8.8-8.8h0.2c4.8,0,8.8,3.9,8.8,8.8
							C258.9,255.8,254.9,259.8,250.1,259.8z"/>
					</g>
					<g>
						<path class="st1" d="M300.9,259.8h-0.2c-4.8,0-8.8-3.9-8.8-8.8c0-4.8,3.9-8.8,8.8-8.8h0.2c4.8,0,8.8,3.9,8.8,8.8
							C309.7,255.8,305.7,259.8,300.9,259.8z"/>
					</g>
					<g>
						<g>
							<path class="st2" d="M0,500"/>
						</g>
						<g>
							<path class="st3" d="M0,500"/>
						</g>
						<g>
							<path class="st3" d="M0,500"/>
						</g>
						<g>
							<path class="st3" d="M0,500"/>
						</g>
						<g>
							<path class="st3" d="M0,500"/>
						</g>
						<g>
							<path class="st3" d="M0,500"/>
						</g>
						<g>
							<path class="st3" d="M0,500"/>
						</g>
						<g>
							<path class="st3" d="M0,500"/>
						</g>
						<g>
							<path class="st3" d="M0,500"/>
						</g>
						<g>
							<path class="st3" d="M0,500"/>
						</g>
						<g>
							<path class="st3" d="M0,500"/>
						</g>
						<g>
							<path class="st3" d="M0,500"/>
						</g>
					</g>
				</g>
			</g>
		</g>
	</g>
</g>
</svg>
