<?xml version="1.0" encoding="utf-8"?>
<!-- Generator: Adobe Illustrator 27.5.0, SVG Export Plug-In . SVG Version: 6.00 Build 0)  -->
<svg version="1.1" id="Layer_1" xmlns="http://www.w3.org/2000/svg" xmlns:xlink="http://www.w3.org/1999/xlink" x="0px" y="0px"
	 viewBox="0 0 500 500" style="enable-background:new 0 0 500 500;" xml:space="preserve">
<style type="text/css">
	.st0{fill:#FFFFFF;}
</style>
<g>
	<g>
		<path class="st0" d="M199.6,155.4h-0.2c-4.4,0-8-3.6-8-8s3.6-8,8-8h0.2c4.4,0,8,3.6,8,8S204,155.4,199.6,155.4z M162.7,155.4h-0.2
			c-4.4,0-8-3.6-8-8s3.6-8,8-8h0.2c4.4,0,8,3.6,8,8S167.1,155.4,162.7,155.4z M125.8,155.4h-0.2c-4.4,0-8-3.6-8-8s3.6-8,8-8h0.2
			c4.4,0,8,3.6,8,8S130.2,155.4,125.8,155.4z"/>
	</g>
	<path class="st0" d="M410.1,107.5H89.9c-3.3,0-6,2.7-6,6v67.9c0,0.1,0,0.1,0,0.1v205c0,3.3,2.7,6,6,6h320.2c3.3,0,6-2.7,6-6v-205
		c0-0.1,0-0.1,0-0.1v-67.9C416.1,110.2,413.4,107.5,410.1,107.5z M404.1,380.5H95.9v-193h308.2V380.5z M404.1,175.4H95.9v-55.9
		h308.2V175.4z"/>
	<g>
		<path class="st0" d="M191.3,325.2c-1.2,0-2.5-0.4-3.6-1.2L140,288.8c-1.5-1.1-2.4-2.9-2.4-4.8s0.9-3.7,2.4-4.8l47.7-35.2
			c2.7-2,6.4-1.4,8.4,1.3s1.4,6.4-1.3,8.4L153.7,284l41.2,30.4c2.7,2,3.2,5.7,1.3,8.4C195,324.4,193.1,325.2,191.3,325.2z
			 M308.7,325.2c-1.8,0-3.7-0.8-4.8-2.4c-2-2.7-1.4-6.4,1.3-8.4l41.2-30.4l-41.2-30.4c-2.7-2-3.2-5.7-1.3-8.4c2-2.7,5.7-3.2,8.4-1.3
			l47.7,35.2c1.5,1.1,2.4,2.9,2.4,4.8s-0.9,3.7-2.4,4.8L312.3,324C311.2,324.8,309.9,325.2,308.7,325.2z M238.1,325.1
			c-0.6,0-1.2-0.1-1.9-0.3c-3.2-1-4.9-4.4-3.9-7.6l22.8-70.3c1-3.2,4.4-4.9,7.6-3.9c3.2,1,4.9,4.4,3.9,7.6L243.8,321
			C243,323.5,240.6,325.1,238.1,325.1z"/>
	</g>
</g>
</svg>
