<?xml version="1.0" encoding="utf-8"?>
<!-- Generator: Adobe Illustrator 27.5.0, SVG Export Plug-In . SVG Version: 6.00 Build 0)  -->
<svg version="1.1" id="Layer_1" xmlns="http://www.w3.org/2000/svg" xmlns:xlink="http://www.w3.org/1999/xlink" x="0px" y="0px"
	 viewBox="0 0 500 500" style="enable-background:new 0 0 500 500;" xml:space="preserve">
<style type="text/css">
	.st0{fill:#FFFFFF;}
	.st1{fill:none;stroke:#FFFFFF;stroke-width:12;}
</style>
<g>
	<path class="st0" d="M196.3,197.6c-7.6,9.3-13.9,19.4-18.8,30.3C182.4,217,188.7,206.9,196.3,197.6L196.3,197.6z M171,245.8
		L171,245.8c0.2-0.6,0.4-1.3,0.6-2C171.4,244.5,171.2,245.1,171,245.8z M207.5,185.6l-86.1-0.1c0.6,0.1,1.3,0.1,1.9,0.1h84.3l0,0
		H207.5z M196.3,197.6c-7.6,9.3-13.9,19.4-18.8,30.3C182.4,217,188.7,206.9,196.3,197.6L196.3,197.6z M130,257.8
		c-0.7,0-1.4,0-2.1,0.1h40.3v-0.1H130z M171,245.8L171,245.8c0.2-0.6,0.4-1.3,0.6-2C171.4,244.5,171.2,245.1,171,245.8z M171,245.8
		L171,245.8c0.2-0.6,0.4-1.3,0.6-2C171.4,244.5,171.2,245.1,171,245.8z"/>
	<path class="st0" d="M406.8,207c-14-20.5-33-36.3-55.5-46.3c-0.4-19.5-16.5-35.4-36.1-35.5H123.3c-19.9,0-36,16.2-36,36.2
		c0,9.8,3.8,18.6,10.1,25.1C81.7,190.4,70,204.7,70,221.7c0,19.1,14.6,34.7,33.2,36.1c-5.7,6.4-9.2,14.9-9.2,24.2
		c0,9.3,3.5,17.8,9.2,24.2c-18.6,1.5-33.1,17.1-33.1,36.1c0,20,16.1,36.2,36,36.2h101.3c24.6,23.4,56.7,36.2,90.6,36.2
		c72.8,0,132-59.5,131.9-132.6C429.9,255.1,421.9,229.1,406.8,207z M123.3,137.2h191.9c11.3,0.1,20.9,8,23.4,18.6
		c-0.9-0.3-1.8-0.6-2.8-0.9c-0.5-0.2-1-0.3-1.4-0.4c-0.4-0.1-0.8-0.2-1.2-0.3c-0.6-0.2-1.2-0.3-1.8-0.5c-0.1-0.1-0.3-0.1-0.5-0.1
		c-1.6-0.4-3.1-0.8-4.7-1.1c-0.8-0.2-1.7-0.4-2.5-0.5c-0.7-0.1-1.5-0.3-2.2-0.4c-0.2,0-0.4-0.1-0.6-0.1c-0.5-0.1-1.1-0.2-1.6-0.3
		s-1-0.2-1.5-0.2c-0.4-0.1-0.8-0.1-1.2-0.2c-0.5-0.1-1-0.2-1.6-0.2c-0.5-0.1-0.9-0.1-1.4-0.2c-0.9-0.1-1.7-0.2-2.6-0.3
		c-0.5,0-1-0.1-1.5-0.1c-0.6-0.1-1.1-0.1-1.7-0.1c-0.3,0-0.5-0.1-0.8-0.1c-0.8-0.1-1.6-0.1-2.3-0.1h-0.6c-0.9,0-1.7-0.1-2.6-0.1
		c-1.2,0-2.4,0-3.6,0c-1,0-2,0-3.1,0c-1,0-1.9,0-2.9,0.1c-0.2,0-0.4,0-0.5,0c-31.4,1.5-60.9,14.2-83.9,36l0,0h-84.3
		c-0.6,0-1.3,0-1.9-0.1c-12.3-1-22.1-11.5-22.1-24.1C99.3,148.1,110.1,137.2,123.3,137.2z M82,221.7c0-13.3,10.8-24.2,24-24.2h14.9
		l75.4,0.1l0,0c-7.6,9.3-13.9,19.5-18.8,30.3c-0.7,1.5-1.4,3.1-2,4.7c-0.3,0.8-0.7,1.7-1,2.5c-0.3,0.7-0.5,1.4-0.8,2.1
		c0,0.1-0.1,0.3-0.2,0.4c-0.2,0.6-0.4,1.2-0.6,1.8c-0.2,0.7-0.5,1.4-0.7,2.2c-0.2,0.7-0.5,1.5-0.7,2.2s-0.4,1.3-0.6,2l0,0v0.1h-65
		C92.8,245.9,82,235,82,221.7z M168.3,306.2H130c-0.7,0-1.4,0-2.1-0.1C115.7,305,106,294.6,106,282s9.7-23,21.9-24.1
		c0.7-0.1,1.4-0.1,2.1-0.1h38.2v0.1l0,0c-0.3,1.5-0.5,2.9-0.7,4.4c-0.1,0.5-0.2,1-0.2,1.5c-0.8,6-1.2,12.1-1.2,18.2
		c0,8.2,0.8,16.2,2.2,24.1V306.2z M106.1,366.5c-13.2,0-24-10.9-24-24.2s10.8-24.2,24-24.2H171v0.1c5,17.7,13.6,34,25.3,48.3
		L106.1,366.5L106.1,366.5z M298,402.8c-29.8,0-58-10.9-80.1-30.8c-1.3-1.2-2.6-2.4-3.8-3.6c-14.2-13.9-24.8-31.1-30.7-50.2
		c0,0,0,0,0-0.1c-0.7-2.3-1.4-4.7-2-7.1c-0.4-1.6-0.7-3.2-1.1-4.9c-1.5-7.7-2.3-15.7-2.3-23.9c0-9.6,1.1-19.3,3.4-28.8
		c0.2-0.8,0.4-1.6,0.6-2.3l0,0c5.3-20.1,15.8-38.4,30.4-53.4c0.6-0.6,1.1-1.1,1.7-1.7l0.1-0.1c1.4-1.3,2.8-2.7,4.2-3.9
		c21.9-19.7,50-30.4,79.6-30.4c7.8,0,15.4,0.7,22.9,2.2s14.8,3.7,22,6.7c45.6,18.4,75.1,62.3,75.1,111.9
		C418,348.7,364.2,402.8,298,402.8z"/>
	<path class="st0" d="M168.2,257.9c-0.2,1.5-0.5,2.9-0.7,4.4C167.7,260.8,168,259.4,168.2,257.9L168.2,257.9z M130,245.8
		c-0.9,0-1.8,0-2.6,0.1H171v-0.1H130z M182.7,315.1C182.6,315.1,182.6,315,182.7,315.1l-1.1-4.3c-2.2-9.2-3.4-18.9-3.4-28.8
		c0-9.7,1.1-19.4,3.3-28.8l0.5-2.1c-0.2,0.8-0.4,1.6-0.6,2.3c-2.3,9.5-3.4,19.2-3.4,28.8c0,8.2,0.8,16.2,2.3,23.9
		c0.3,1.7,0.7,3.3,1.1,4.9c0.6,2.4,1.2,4.8,2,7.1L182.7,315.1z M127.4,318.1c0.9,0.1,1.7,0.1,2.6,0.1h41v-0.1H127.4z"/>
	<path class="st0" d="M214.1,368.2c-15-14.8-25.8-33.1-31.4-53.1V315c-0.4-1.4-0.8-2.9-1.1-4.3l-1.1-4.6h-0.1
		c0.3,1.7,0.7,3.3,1.1,4.9c0.6,2.4,1.2,4.8,2,7.1v0.1c5.9,19.1,16.5,36.3,30.7,50.2c1.2,1.2,2.5,2.4,3.8,3.6L214.1,368.2z
		 M127.9,306.1c0.7,0.1,1.4,0.1,2.1,0.1h38.3v-0.1H127.9z"/>
	<path class="st0" d="M212.4,197.6L212.4,197.6l1.7-1.7C213.5,196.5,213,197,212.4,197.6z M120.9,197.5c0.8,0,1.6,0.1,2.4,0.1h73
		L120.9,197.5z"/>
	<g>
		<path class="st0" d="M298.3,372.9c-37.6,0-71.7-23.8-85-59.1c-3.9-10.3-5.8-21.1-5.8-32.1c0-11.1,1.9-21.6,5.8-32.1
			c13.2-35.4,47.4-59.1,85-59.1c6.5,0,13.1,0.7,20,2.2h0.1c40.9,9.5,70.7,46.9,70.7,89c0,42.9-29.1,79.4-70.7,88.9h-0.1
			C311.4,372.1,304.7,372.9,298.3,372.9z M298.3,202.5c-32.6,0-62.2,20.6-73.7,51.3c-3.4,9.1-5.1,18.2-5.1,27.9
			c0,9.5,1.7,18.9,5.1,27.9c11.5,30.7,41.1,51.3,73.7,51.3c5.5,0,11.4-0.7,17.5-2c36.1-8.2,61.3-40,61.3-77.2
			c0-36.6-25.8-69.1-61.3-77.3C309.7,203.1,304,202.5,298.3,202.5z"/>
	</g>
</g>
<path class="st1" d="M0,500"/>
</svg>
