<?xml version="1.0" encoding="iso-8859-1"?>
<!-- Generator: Adobe Illustrator 29.6.1, SVG Export Plug-In . SVG Version: 9.03 Build 0)  -->
<svg version="1.1" id="Layer_1" xmlns="http://www.w3.org/2000/svg" xmlns:xlink="http://www.w3.org/1999/xlink" x="0px" y="0px"
	 viewBox="0 0 500 500" style="enable-background:new 0 0 500 500;" xml:space="preserve">
<g>
	<path style="fill:#FFFFFF;" d="M295.999,339.549c-1.535,0-3.071-0.586-4.242-1.758c-2.188-2.187-2.333-5.642-0.438-7.998
		c0.129-1.956-1.786-9.33-12.323-24.456c-9.586-13.761-23.483-29.934-39.133-45.539c-37.753-37.648-64.224-52.091-70-51.475
		c-2.358,1.901-5.818,1.758-8.006-0.431c-2.343-2.343-2.343-6.142,0-8.485c6.051-6.051,17.428-3.167,35.806,9.074
		c15.018,10.003,33.014,25.21,50.673,42.819c27.355,27.279,54.961,62.094,54.972,78.377c0.003,4.169-1.666,6.714-3.067,8.114
		C299.07,338.963,297.534,339.549,295.999,339.549z"/>
</g>
<g>
	<path style="fill:#FFFFFF;" d="M358.4,346.249c-3.313,0-6-2.687-6-6c0-28.423-16.747-41.964-30.796-48.319
		c-28.02-12.675-64.408-6.681-79.542,6.625c-2.49,2.188-6.28,1.943-8.468-0.544c-2.188-2.489-1.944-6.28,0.544-8.468
		c20.496-18.019,62.815-21.934,92.411-8.547c24.408,11.041,37.851,32.084,37.851,59.253
		C364.4,343.562,361.713,346.249,358.4,346.249z M205.794,274.05c-1.013,0-2.039-0.257-2.979-0.796
		c-2.875-1.649-3.869-5.315-2.22-8.19c14.217-24.789,12.348-76.933-13.067-112.124c-12.884-17.84-36.583-37.407-76.331-29.312
		c-3.244,0.662-6.415-1.435-7.077-4.682c-0.661-3.247,1.435-6.416,4.682-7.077c35.907-7.31,67.318,4.779,88.453,34.044
		c25.834,35.771,32.131,93.069,13.749,125.12C209.895,272.967,207.873,274.05,205.794,274.05z"/>
</g>
<g>
	<path style="fill:#FFFFFF;" d="M99.257,413.252c-3.283,0-6.503-1.289-8.998-3.745c-3.729-3.672-4.909-8.984-3.078-13.865
		l72.005-190.613c1.171-3.1,4.634-4.664,7.733-3.493c3.1,1.171,4.664,4.633,3.493,7.733l-72,190.6
		c-0.148,0.395-0.06,0.765,0.267,1.087c0.416,0.407,0.76,0.271,0.927,0.209l190.774-72.029c3.098-1.171,6.562,0.394,7.732,3.494
		c1.171,3.1-0.394,6.562-3.494,7.732l-190.7,72C102.398,412.96,100.821,413.252,99.257,413.252z"/>
</g>
<g>
	<path style="fill:#FFFFFF;" d="M292.276,340.848c-6.52,0-15.636-4.002-27.841-12.131c-15.018-10.003-33.014-25.21-50.673-42.819
		c-27.355-27.279-54.962-62.094-54.973-78.378c-0.003-4.168,1.667-6.713,3.067-8.114c2.343-2.343,6.143-2.343,8.485,0
		c2.187,2.187,2.333,5.642,0.438,7.998c-0.129,1.956,1.786,9.331,12.323,24.457c9.586,13.76,23.484,29.934,39.134,45.539
		c37.753,37.648,64.228,52.153,69.999,51.475c2.357-1.9,5.816-1.757,8.006,0.431c2.344,2.343,2.344,6.143,0.001,8.485
		C298.21,339.824,295.575,340.848,292.276,340.848z"/>
</g>
<g>
	<path style="fill:#FFFFFF;" d="M285.398,237.949c-1.419,0-2.844-0.5-3.986-1.518c-2.476-2.203-2.697-5.996-0.494-8.471
		c7.126-8.008,17.188-6.039,24.535-4.6c7.265,1.421,10.943,1.806,13.265-0.801c2.331-2.62,1.537-6.237-0.69-13.309
		c-2.246-7.131-5.322-16.897,1.791-24.891c7.127-8.007,17.188-6.037,24.534-4.6c7.267,1.422,10.944,1.808,13.266-0.8
		c2.202-2.476,5.995-2.697,8.472-0.493c2.475,2.203,2.696,5.995,0.493,8.471c-7.127,8.008-17.188,6.037-24.535,4.6
		c-7.268-1.423-10.944-1.808-13.265,0.8c-2.331,2.62-1.537,6.237,0.69,13.309c2.246,7.131,5.322,16.897-1.791,24.891
		c-7.126,8.008-17.188,6.038-24.535,4.6c-7.266-1.422-10.944-1.808-13.265,0.801C288.696,237.27,287.05,237.949,285.398,237.949z
		 M258.996,197.149c-3.238,0-5.905-2.579-5.995-5.836c-0.292-10.688,8.339-16.192,14.641-20.21c6.25-3.985,9.181-6.247,9.062-9.748
		c-0.12-3.507-3.195-5.575-9.694-9.148c-6.558-3.605-15.539-8.543-15.905-19.252c-0.295-10.73,8.336-16.233,14.639-20.252
		c6.25-3.985,9.181-6.246,9.062-9.748c-0.114-3.312,2.479-6.089,5.791-6.202c3.29-0.115,6.089,2.48,6.201,5.791
		c0.368,10.731-8.284,16.248-14.603,20.277c-6.256,3.989-9.192,6.253-9.096,9.764c0.118,3.466,3.193,5.534,9.692,9.107
		c6.558,3.605,15.539,8.543,15.905,19.252c0.368,10.731-8.284,16.249-14.602,20.277c-6.256,3.989-9.193,6.253-9.097,9.765
		c0.09,3.312-2.521,6.071-5.834,6.162C259.108,197.148,259.052,197.149,258.996,197.149z"/>
</g>
<g>
	<path style="fill:#FFFFFF;" d="M340.705,403.75c-2.026,0-4.004-1.026-5.133-2.885c-1.722-2.831-0.821-6.522,2.011-8.243l15.3-9.3
		c2.832-1.721,6.522-0.82,8.243,2.011c1.722,2.831,0.821,6.522-2.011,8.243l-15.3,9.3
		C342.842,403.468,341.767,403.75,340.705,403.75z M213.193,110.95c-1.048,0-2.11-0.275-3.075-0.853
		c-2.843-1.701-3.769-5.386-2.067-8.229l7.3-12.2c1.702-2.842,5.387-3.769,8.229-2.067c2.844,1.701,3.77,5.386,2.068,8.229
		l-7.3,12.2C217.224,109.908,215.234,110.95,213.193,110.95z"/>
</g>
<g>
	<path style="fill:#FFFFFF;" d="M400.894,333.75c-1.036,0-2.086-0.269-3.044-0.834c-2.854-1.684-3.802-5.362-2.117-8.217l7.2-12.2
		c1.684-2.854,5.359-3.803,8.217-2.117c2.854,1.684,3.802,5.362,2.117,8.217l-7.2,12.2
		C404.947,332.695,402.947,333.75,400.894,333.75z M91.899,272.149c-1.536,0-3.071-0.586-4.243-1.757
		c-2.343-2.344-2.343-6.143,0-8.485l10.1-10.101c2.343-2.344,6.142-2.343,8.485-0.001c2.343,2.344,2.343,6.143,0,8.485l-10.1,10.101
		C94.971,271.563,93.435,272.149,91.899,272.149z"/>
</g>
<g>
	<path style="fill:#FFFFFF;" d="M373.1,124.549c-1.546,0-3.09-0.593-4.264-1.778l-10-10.1c-2.331-2.355-2.312-6.154,0.042-8.485
		c2.355-2.332,6.153-2.312,8.485,0.042l10,10.1c2.331,2.355,2.312,6.154-0.042,8.485C376.151,123.971,374.625,124.549,373.1,124.549
		z"/>
</g>
<g>
	<path style="fill:#FFFFFF;" d="M248.901,403.751c-2.407,0-4.679-1.459-5.598-3.84l-5.1-13.2c-1.194-3.091,0.343-6.564,3.434-7.759
		s6.565,0.343,7.759,3.435l5.1,13.2c1.194,3.091-0.343,6.564-3.435,7.759C250.351,403.62,249.62,403.751,248.901,403.751z"/>
</g>
<g>
	<path style="fill:#FFFFFF;" d="M384.797,253.251c-2.613,0-5.017-1.721-5.768-4.359l-3.9-13.7c-0.907-3.187,0.94-6.506,4.128-7.414
		c3.186-0.908,6.506,0.94,7.413,4.127l3.9,13.7c0.907,3.187-0.94,6.506-4.128,7.414
		C385.894,253.176,385.341,253.251,384.797,253.251z M130.497,185.449c-1.386,0-2.779-0.478-3.912-1.454l-10.8-9.3
		c-2.511-2.162-2.794-5.951-0.631-8.461c2.162-2.51,5.951-2.795,8.461-0.631l10.8,9.3c2.511,2.162,2.794,5.951,0.631,8.461
		C133.859,184.742,132.183,185.449,130.497,185.449z"/>
</g>
</svg>
