<?xml version="1.0" encoding="utf-8"?>
<!-- Generator: Adobe Illustrator 27.5.0, SVG Export Plug-In . SVG Version: 6.00 Build 0)  -->
<svg version="1.1" id="Layer_1" xmlns="http://www.w3.org/2000/svg" xmlns:xlink="http://www.w3.org/1999/xlink" x="0px" y="0px"
	 viewBox="0 0 500 500" style="enable-background:new 0 0 500 500;" xml:space="preserve">
<style type="text/css">
	.st0{fill:#FFFFFF;}
	.st1{display:none;fill:none;stroke:#FFFFFF;stroke-width:12;stroke-linecap:round;stroke-linejoin:round;}
	.st2{fill:none;stroke:#FFFFFF;stroke-width:12;stroke-linecap:round;stroke-linejoin:round;}
</style>
<g>
	<g>
		<path class="st0" d="M159.8,419.9c-9.2,0-18.4-1.8-27.1-5.3c-0.2-0.1-0.5-0.2-0.7-0.3c-2.7-1.2-5.6-1.9-8.6-2.3l-11.8-1.4
			c-6.3-0.8-11-6.1-11-12.4v-11.9c0-23,18.7-41.7,41.6-41.7h35.7c23,0,41.7,18.7,41.7,41.7v11.9c0,6.3-4.7,11.6-11,12.4L196,412
			c-2.8,0.3-5.6,1.1-8.2,2.2C178.8,418.1,169.3,419.9,159.8,419.9z M136.1,403.1c0.2,0.1,0.4,0.1,0.6,0.2
			c15.1,6.2,31.5,6.1,46.4-0.1c3.6-1.5,7.6-2.6,11.5-3l12.5-1.4c0.1,0,0.4-0.2,0.4-0.4v-11.9c0-16.4-13.3-29.7-29.7-29.7h-35.7
			c-16.3,0-29.6,13.3-29.6,29.7v11.9c0,0.2,0,0.4,0.4,0.4l11.8,1.4C128.6,400.7,132.4,401.7,136.1,403.1z M160,336.8
			c-17.1,0-31-13.4-31.6-30.5l-0.8-24c-0.4-8.6,2.7-16.7,8.7-23c6-6.3,14.1-9.7,22.8-9.7h1.7c8.7,0,16.7,3.4,22.7,9.6
			c6,6.2,9.2,14.4,8.9,23.1l-0.8,24C191,323.4,177.1,336.8,160,336.8z M159.1,261.6c-5.4,0-10.4,2.1-14.1,6
			c-3.7,3.9-5.6,8.9-5.4,14.2l0.8,24c0.4,10.6,9,18.9,19.6,18.9s19.2-8.3,19.6-18.9l0.8-24c0.2-5.4-1.8-10.5-5.5-14.3
			c-3.7-3.9-8.7-6-14.1-6L159.1,261.6L159.1,261.6z"/>
	</g>
	<g>
		<path class="st0" d="M339,416.5c-9.2,0-18.4-1.8-27.2-5.3c-0.2-0.1-0.5-0.1-0.7-0.2c-2.7-1.2-5.6-1.9-8.6-2.3l-11.8-1.4
			c-6.4-0.8-11-6-11-12.4V383c-0.1-11.1,4.2-21.5,12.1-29.4s18.4-12.3,29.5-12.3H357c23,0,41.7,18.7,41.7,41.7v12
			c0,6.3-4.7,11.6-11,12.4l-12.6,1.4c-2.8,0.3-5.6,1.1-8.2,2.2C358,414.7,348.5,416.5,339,416.5z M315.3,399.8
			c0.2,0.1,0.4,0.1,0.6,0.2c15.1,6.2,31.5,6.1,46.4-0.1c3.6-1.5,7.6-2.6,11.5-3l12.5-1.4c0.1,0,0.4-0.2,0.4-0.4v-11.9
			c0-16.4-13.3-29.7-29.7-29.7h-35.7c-7.9,0-15.4,3.1-21,8.7s-8.6,13-8.6,20.9V395c0,0.2,0,0.4,0.4,0.4l11.8,1.4
			C307.8,397.3,311.7,398.3,315.3,399.8z M339.2,333.4c-17.1,0-31-13.4-31.6-30.5l-0.8-24c-0.4-8.6,2.7-16.8,8.7-23
			c6-6.3,14.1-9.7,22.8-9.7h1.7c8.7,0,16.7,3.4,22.7,9.6c6,6.2,9.2,14.4,8.9,23.1l-0.8,24C370.2,320,356.3,333.4,339.2,333.4z
			 M338.3,258.2c-5.4,0-10.4,2.1-14.1,6c-3.7,3.8-5.6,8.9-5.4,14.2l0.8,24c0.4,10.6,9,18.9,19.6,18.9s19.2-8.3,19.6-18.9l0.8-24
			c0.2-5.4-1.8-10.5-5.5-14.3c-3.7-3.9-8.7-6-14.1-6L338.3,258.2L338.3,258.2z"/>
	</g>
	<g>
		<g>
			<path class="st0" d="M211.3,256.3c-1.5,0-3.1-0.6-4.3-1.8l-32.5-32.8h-42.2c-8.9,0-16.2-7.3-16.2-16.2v-72.1
				c0-8.9,7.3-16.2,16.2-16.2h64.5c3.3,0,6,2.7,6,6V175c0,2.5,2.1,4.6,4.6,4.6h46.2c0.9,0,1.8,0.2,2.7,0.6l47.5,23.6
				c2.8,1.4,4.1,4.7,2.9,7.6c-2.5,6.3-8.4,10.3-15.1,10.3h-42.7l-33.3,32.9C214.3,255.7,212.8,256.3,211.3,256.3z M132.3,129.2
				c-2.3,0-4.2,1.9-4.2,4.2v72.1c0,2.4,1.8,4.2,4.2,4.2H177c1.6,0,3.1,0.6,4.3,1.8l30.1,30.4l30.8-30.4c1.1-1.1,2.6-1.7,4.2-1.7
				h42.2l-36.4-18.1h-44.8c-9.2,0-16.6-7.4-16.6-16.6v-45.8L132.3,129.2L132.3,129.2z"/>
		</g>
		<g>
			<path class="st0" d="M325.8,227.5c-0.9,0-1.8-0.2-2.7-0.6l-70.8-35.3h-44.8c-9.2,0-16.6-7.4-16.6-16.6v-74.6
				c0-9.2,7.4-16.6,16.6-16.6h164.7h0.1c9.3,0.2,16.5,7.5,16.5,16.7V175c0,9.2-7.4,16.6-16.6,16.6h-40.7l0.3,29.8c0,2.1-1,4-2.8,5.2
				C328,227.2,326.9,227.5,325.8,227.5z M207.5,95.8c-2.5,0-4.6,2.1-4.6,4.6V175c0,2.6,2,4.6,4.6,4.6h46.2c0.9,0,1.8,0.2,2.7,0.6
				l63.3,31.5l-0.3-26.1c0-1.6,0.6-3.1,1.7-4.3c1.1-1.1,2.7-1.8,4.3-1.8h46.8c2.5,0,4.6-2.1,4.6-4.6v-74.5c0-2.6-2-4.6-4.7-4.7
				H207.5V95.8z"/>
		</g>
	</g>
	<g>
		<g>
			<path class="st1" d="M0,500"/>
		</g>
		<g>
			<path class="st2" d="M0,500"/>
		</g>
		<g>
			<path class="st2" d="M0,500"/>
		</g>
		<g>
			<path class="st2" d="M0,500"/>
		</g>
		<g>
			<path class="st2" d="M0,500"/>
		</g>
		<g>
			<path class="st2" d="M0,500"/>
		</g>
		<g>
			<path class="st2" d="M0,500"/>
		</g>
		<g>
			<path class="st2" d="M0,500"/>
		</g>
		<g>
			<path class="st2" d="M0,500"/>
		</g>
		<g>
			<path class="st2" d="M0,500"/>
		</g>
		<g>
			<path class="st2" d="M0,500"/>
		</g>
		<g>
			<path class="st2" d="M0,500"/>
		</g>
	</g>
</g>
</svg>
