<?xml version="1.0" encoding="utf-8"?>
<!-- Generator: Adobe Illustrator 27.5.0, SVG Export Plug-In . SVG Version: 6.00 Build 0)  -->
<svg version="1.1" id="Layer_1" xmlns="http://www.w3.org/2000/svg" xmlns:xlink="http://www.w3.org/1999/xlink" x="0px" y="0px"
	 viewBox="0 0 500 500" style="enable-background:new 0 0 500 500;" xml:space="preserve">
<style type="text/css">
	.st0{clip-path:url(#SVGID_00000107548243042424715410000003675972096327874748_);}
	.st1{display:none;fill:none;}
	.st2{fill:none;}
	.st3{fill:#FFFFFF;}
</style>
<g>
	<g>
		<g>
			<g>
				<defs>
					<rect id="SVGID_1_" width="500" height="500"/>
				</defs>
				<clipPath id="SVGID_00000076568936939410576240000004887928205069612980_">
					<use xlink:href="#SVGID_1_"  style="overflow:visible;"/>
				</clipPath>
				<g style="clip-path:url(#SVGID_00000076568936939410576240000004887928205069612980_);">
					<g>
						<path class="st1" d="M0,500"/>
						<path class="st2" d="M0,500"/>
						<path class="st2" d="M0,500"/>
					</g>
					<g>
						<g>
							<path class="st1" d="M0,500"/>
						</g>
						<g>
							<path class="st2" d="M0,500"/>
						</g>
						<g>
							<path class="st2" d="M0,500"/>
						</g>
					</g>
					<g>
						<path class="st3" d="M372.5,417.3H127.4c-3.3,0-6-2.7-6-6V88.8c0-3.3,2.7-6,6-6h245.1c3.3,0,6,2.7,6,6v322.5
							C378.5,414.6,375.8,417.3,372.5,417.3z M133.4,405.3h233.1V94.8H133.4V405.3z M250.2,291.5c-3.3,0-6-2.7-6-6v-31.3h-32.3
							c-3.3,0-6-2.7-6-6s2.7-6,6-6h32.3v-30.3c0-3.3,2.7-6,6-6s6,2.7,6,6v30.3h29.3c3.3,0,6,2.7,6,6s-2.7,6-6,6h-29.3v31.3
							C256.2,288.8,253.5,291.5,250.2,291.5z"/>
					</g>
				</g>
			</g>
		</g>
	</g>
</g>
</svg>
