<?xml version="1.0" encoding="utf-8"?>
<!-- Generator: Adobe Illustrator 27.5.0, SVG Export Plug-In . SVG Version: 6.00 Build 0)  -->
<svg version="1.1" id="Layer_1" xmlns="http://www.w3.org/2000/svg" xmlns:xlink="http://www.w3.org/1999/xlink" x="0px" y="0px"
	 viewBox="0 0 500 500" style="enable-background:new 0 0 500 500;" xml:space="preserve">
<style type="text/css">
	.st0{fill:#FFFFFF;}
	.st1{fill:none;stroke:#FFFFFF;stroke-width:12;stroke-linecap:round;stroke-linejoin:round;}
</style>
<g>
	<g>
		<path class="st0" d="M371.8,396.6c-1.6,0-3.3-0.2-4.9-0.5l-253.1-53.8c-3.2-0.7-6-1.9-8.5-3.7c-2.3-1.6-3.1-4.6-2-7.2
			s3.8-4.1,6.6-3.6c0.7,0.1,1.5,0.2,2.2,0.2h208.3c1.8,0,3.5,0.8,4.7,2.2c1.1,1.4,1.6,3.2,1.2,5l-0.7,3.4l29.7,6.3l2.6-12.1
			c0.6-2.8,3-4.8,5.9-4.8h7.2c6.1,0,11-4.9,11-11v-78.9c0-0.1,0-0.2,0-0.2v-32.5c0-0.1,0-0.2,0-0.2v-29.1c0-1.8,0.8-3.5,2.2-4.7
			c1.4-1.1,3.2-1.6,5-1.2l24.6,5.2l0,0c12.4,2.7,20.4,15,17.7,27.4l-37.3,175.5c-1.2,6-4.8,11.2-9.9,14.5
			C380.5,395.3,376.2,396.6,371.8,396.6z M160.9,340l208.6,44.3c2.9,0.6,5.9,0.1,8.3-1.5c2.5-1.6,4.1-4.1,4.7-6.9l27-127.2
			l-15.5-3.3V317c0,12.7-10.3,23-23,23h-2.3l-2.8,13.2c-0.3,1.6-1.3,2.9-2.6,3.8c-1.3,0.9-3,1.2-4.5,0.8l-41.4-8.8
			c-3.2-0.7-5.3-3.9-4.6-7.1l0.4-2H160.9V340z M394,233.1l18,3.8l4.2-19.6l-22.2-4.7V233.1z M394,200.4l24.7,5.2l1.1-5.3
			c1.3-6-2.5-11.9-8.5-13.2l-17.3-3.7L394,200.4L394,200.4z"/>
	</g>
	<g>
		<g>
			<path class="st0" d="M125.2,303c-3.3,0-6-2.7-6-6s2.7-6,6-6l27.5-0.1l0,0c3.3,0,6,2.7,6,6s-2.7,6-6,6L125.2,303L125.2,303z
				 M233.7,302.8c-3.3,0-6-2.7-6-6s2.7-6,6-6l27.5-0.1l0,0c3.3,0,6,2.7,6,6s-2.7,6-6,6L233.7,302.8L233.7,302.8z M202.6,302.8h-26.5
				c-3.3,0-6-2.7-6-6s2.7-6,6-6h26.5c3.3,0,6,2.7,6,6S205.9,302.8,202.6,302.8z M311.1,302.7h-26.5c-3.3,0-6-2.7-6-6s2.7-6,6-6h26.5
				c3.3,0,6,2.7,6,6S314.4,302.7,311.1,302.7z M260.1,272.9h-26.5c-3.3,0-6-2.7-6-6s2.7-6,6-6h26.5c3.3,0,6,2.7,6,6
				S263.4,272.9,260.1,272.9z M125.2,272.8c-3.3,0-6-2.7-6-6s2.7-6,6-6l27.5-0.1c3.3,0,6,2.7,6,6s-2.7,6-6,6L125.2,272.8
				L125.2,272.8z M352,153.4L352,153.4l-69-0.1c-3.3,0-6-2.7-6-6s2.7-6,6-6l0,0l69,0.1c3.3,0,6,2.7,6,6S355.3,153.4,352,153.4z"/>
		</g>
		<g>
			<path class="st0" d="M371,340H112.2c-1.5,0-2.9-0.1-4.4-0.4C97,337.5,89.2,328,89.2,317V137.6c0-12.7,10.3-23,23-23H371
				c6.1-0.1,11.8,2.3,16.2,6.6c4.4,4.4,6.8,10.2,6.8,16.4V317C394,329.7,383.7,340,371,340z M371.2,126.6h-0.1H112.2
				c-6.1,0-11,4.9-11,11V317c0,5.3,3.7,9.8,8.8,10.8c0.7,0.1,1.4,0.2,2.2,0.2H371c6.1,0,11-4.9,11-11V137.6c0-3-1.2-5.8-3.3-7.9
				C376.7,127.7,374,126.6,371.2,126.6z"/>
		</g>
		<g>
			<path class="st0" d="M172,197h-42.3c-3.3,0-6-2.7-6-6l-0.2-43.4c0-1.6,0.6-3.1,1.7-4.3c1.1-1.1,2.6-1.8,4.2-1.8l42.4-0.1l0,0
				c1.6,0,3.1,0.6,4.2,1.7c1.1,1.1,1.8,2.6,1.8,4.2L178,191c0,1.6-0.6,3.1-1.8,4.3C175.1,196.4,173.6,197,172,197z M135.7,185H166
				l-0.1-31.5l-30.4,0.1L135.7,185z"/>
		</g>
	</g>
	<g>
		<path class="st1" d="M0,500"/>
	</g>
</g>
</svg>
