<?xml version="1.0" encoding="iso-8859-1"?>
<!-- Generator: Adobe Illustrator 29.6.1, SVG Export Plug-In . SVG Version: 9.03 Build 0)  -->
<svg version="1.1" id="Layer_1" xmlns="http://www.w3.org/2000/svg" xmlns:xlink="http://www.w3.org/1999/xlink" x="0px" y="0px"
	 viewBox="0 0 500 500" style="enable-background:new 0 0 500 500;" xml:space="preserve">
<g>
	<g>
		<path style="fill:#FFFFFF;" d="M415,391H85c-14.336,0-26-11.663-26-26V135c0-14.336,11.664-26,26-26h330c14.337,0,26,11.664,26,26
			v230C441,379.337,429.337,391,415,391z M85,121c-7.72,0-14,6.28-14,14v230c0,7.72,6.28,14,14,14h330c7.72,0,14-6.28,14-14V135
			c0-7.72-6.28-14-14-14H85z"/>
	</g>
	<g>
		<path style="fill:#FFFFFF;" d="M175,231h-70c-3.313,0-6-2.687-6-6v-70c0-3.313,2.687-6,6-6h70c3.313,0,6,2.687,6,6v70
			C181,228.313,178.313,231,175,231z M111,219h58v-58h-58V219z"/>
	</g>
	<g>
		<path style="fill:#FFFFFF;" d="M235,351H105c-3.313,0-6-2.687-6-6s2.687-6,6-6h130c3.313,0,6,2.687,6,6S238.313,351,235,351z
			 M395,311h-50c-3.313,0-6-2.687-6-6s2.687-6,6-6h50c3.313,0,6,2.687,6,6S398.313,311,395,311z M315,311h-50c-3.313,0-6-2.687-6-6
			s2.687-6,6-6h50c3.313,0,6,2.687,6,6S318.313,311,315,311z M235,311h-50c-3.313,0-6-2.687-6-6s2.687-6,6-6h50c3.313,0,6,2.687,6,6
			S238.313,311,235,311z M155,311h-50c-3.313,0-6-2.687-6-6s2.687-6,6-6h50c3.313,0,6,2.687,6,6S158.313,311,155,311z"/>
	</g>
	<g>
		<path style="fill:#FFFFFF;" d="M381.304,231c-1.535,0-3.071-0.586-4.242-1.757c-2.344-2.343-2.344-6.142,0-8.485
			c16.959-16.959,16.959-44.555,0-61.515c-2.344-2.343-2.344-6.142,0-8.485c2.342-2.343,6.143-2.343,8.484,0
			c10.482,10.482,16.255,24.419,16.255,39.243s-5.772,28.761-16.255,39.243C384.375,230.414,382.839,231,381.304,231z M360,209.696
			c-1.536,0-3.071-0.586-4.243-1.757c-2.343-2.343-2.343-6.143,0.001-8.485c2.524-2.525,3.915-5.882,3.915-9.453
			s-1.391-6.928-3.915-9.453c-2.344-2.343-2.344-6.142-0.001-8.485c2.344-2.343,6.144-2.343,8.485,0
			c4.792,4.792,7.431,11.162,7.431,17.938s-2.639,13.147-7.431,17.938C363.071,209.11,361.535,209.696,360,209.696z"/>
	</g>
</g>
</svg>
