<?xml version="1.0" encoding="utf-8"?>
<!-- Generator: Adobe Illustrator 27.5.0, SVG Export Plug-In . SVG Version: 6.00 Build 0)  -->
<svg version="1.1" id="Layer_1" xmlns="http://www.w3.org/2000/svg" xmlns:xlink="http://www.w3.org/1999/xlink" x="0px" y="0px"
	 viewBox="0 0 500 500" style="enable-background:new 0 0 500 500;" xml:space="preserve">
<style type="text/css">
	.st0{clip-path:url(#SVGID_00000159436705843154487610000011967272247809949086_);}
	.st1{fill:#FFFFFF;}
	.st2{display:none;fill:none;stroke:#FFFFFF;stroke-width:12;stroke-linecap:round;stroke-linejoin:round;}
	.st3{fill:none;stroke:#FFFFFF;stroke-width:12;stroke-linecap:round;stroke-linejoin:round;}
</style>
<g>
	<g>
		<g>
			<g>
				<defs>
					<rect id="SVGID_1_" width="500" height="500"/>
				</defs>
				<clipPath id="SVGID_00000169555013584381819280000006638421434026196396_">
					<use xlink:href="#SVGID_1_"  style="overflow:visible;"/>
				</clipPath>
				<g style="clip-path:url(#SVGID_00000169555013584381819280000006638421434026196396_);">
					<g>
						<g>
							<path class="st1" d="M324.2,422.6H175.5c-3.3,0-6-2.7-6-6V335c0-3.3,2.7-6,6-6h32.7c2.8-13.5,14.7-23.6,29-23.6h6.6v-11.7
								h-12.6c-3.3,0-6-2.7-6-6v-10.9c-14.9-3.3-27.9-9.6-39.2-18.9c-51.9-9.2-73.2-43.4-81.9-70.7c-9.4-29.4-6.4-56.3-6.3-57.5
								c0.3-3,2.9-5.3,6-5.3h35.8c0-8.4,0.4-15.4,0.7-20.1h-2.1c-3.3,0-6-2.7-6-6v-19c0-3.3,2.7-6,6-6h224c0.4-0.1,0.7-0.1,1.1-0.1
								c3.3,0,6,2.7,6,6v19c0,3.3-2.7,6-6,6h-2.2c0.3,4.7,0.7,11.7,0.7,20.2h36c3,0,5.6,2.3,6,5.3c0.1,1.1,3.1,28.1-6.3,57.5
								c-8.7,27.3-30.1,61.6-82.2,70.7c-11.9,9.9-25.8,16.4-41.8,19.4v10.3c0,3.3-2.7,6-6,6h-11.7v11.7h5.5
								c14.3,0,26.2,10.1,29,23.6h33.9c3.3,0,6,2.7,6,6v81.6C330.2,419.9,327.5,422.6,324.2,422.6z M181.5,410.6h136.7V341H181.5
								V410.6z M220.7,329h57.2c-2.5-6.8-8.9-11.6-16.5-11.6h-24.1C229.6,317.4,223.1,322.2,220.7,329z M237.2,281.7h24.3v-2.6
								c-3.5,0.3-7.1,0.4-10.8,0.4c-4.6,0-9.1-0.2-13.5-0.7V281.7z M193.3,248.3c15.2,12.7,34.4,19.2,57.4,19.2
								c27.5,0,49.6-9.2,65.8-27.3c42.2-47.3,32.3-140.3,32.2-141.2c-0.2-1.7,0.3-3.4,1.5-4.7c1.1-1.3,2.8-2,4.5-2h2.7v-6.9H144.2v7
								h2.7c1.7,0,3.3,0.7,4.5,2c1.1,1.3,1.7,3,1.5,4.7c-0.1,0.9-10.1,93.9,32.1,141.1c2.3,2.5,4.6,4.9,7.1,7.1
								C192.5,247.6,192.9,247.9,193.3,248.3z M361.6,136.5c-1.2,31-7.5,74.3-30.9,105.2c27.4-9.4,45.9-28.9,55.3-58.1
								c6.3-19.6,6.5-38.3,6.2-47.1H361.6z M109.4,136.5c-0.3,8.9-0.1,27.8,6.3,47.5c9.3,28.9,27.8,48.2,54.9,57.6
								c-23.3-30.9-29.6-74.1-30.7-105.1H109.4z"/>
						</g>
						<g>
							<path class="st1" d="M268.5,394.1h-37.8c-3.3,0-6-2.7-6-6s2.7-6,6-6h37.8c3.3,0,6,2.7,6,6S271.8,394.1,268.5,394.1z
								 M285.5,370.6h-71.8c-3.3,0-6-2.7-6-6s2.7-6,6-6h71.8c3.3,0,6,2.7,6,6S288.8,370.6,285.5,370.6z M279.7,207
								c-1,0-1.9-0.2-2.8-0.7l-25.7-13.5l-25.7,13.5c-2,1.1-4.5,0.9-6.3-0.5c-1.8-1.3-2.8-3.6-2.4-5.9l4.9-28.7L200.8,151
								c-1.6-1.6-2.2-4-1.5-6.2s2.6-3.8,4.8-4.1l28.8-4.1l12.9-26.1c1-2,3.1-3.3,5.4-3.3l0,0c2.3,0,4.4,1.3,5.4,3.4l12.8,26.1
								l28.8,4.1c2.3,0.3,4.1,1.9,4.8,4.1s0.1,4.6-1.5,6.2l-20.8,20.3l5,28.7c0.4,2.3-0.5,4.5-2.4,5.9
								C282.2,206.6,280.9,207,279.7,207z M217.9,150.9l14.4,14c1.4,1.4,2.1,3.4,1.7,5.3l-3.4,19.8l17.8-9.3c1.7-0.9,3.8-0.9,5.6,0
								l17.7,9.3l-3.4-19.8c-0.3-1.9,0.3-3.9,1.7-5.3l14.4-14l-19.8-2.9c-2-0.3-3.7-1.5-4.5-3.3l-8.8-18l-8.9,18
								c-0.9,1.8-2.6,3-4.5,3.3L217.9,150.9z"/>
						</g>
					</g>
					<g>
						<g>
							<path class="st2" d="M0,500"/>
						</g>
						<g>
							<path class="st3" d="M0,500"/>
						</g>
						<g>
							<path class="st3" d="M0,500"/>
						</g>
						<g>
							<path class="st3" d="M0,500"/>
						</g>
						<g>
							<path class="st3" d="M0,500"/>
						</g>
						<g>
							<path class="st3" d="M0,500"/>
						</g>
						<g>
							<path class="st3" d="M0,500"/>
						</g>
						<g>
							<path class="st3" d="M0,500"/>
						</g>
						<g>
							<path class="st3" d="M0,500"/>
						</g>
						<g>
							<path class="st3" d="M0,500"/>
						</g>
						<g>
							<path class="st3" d="M0,500"/>
						</g>
						<g>
							<path class="st3" d="M0,500"/>
						</g>
					</g>
				</g>
			</g>
		</g>
	</g>
</g>
</svg>
