<?xml version="1.0" encoding="iso-8859-1"?>
<!-- Generator: Adobe Illustrator 29.6.1, SVG Export Plug-In . SVG Version: 9.03 Build 0)  -->
<svg version="1.1" id="Layer_1" xmlns="http://www.w3.org/2000/svg" xmlns:xlink="http://www.w3.org/1999/xlink" x="0px" y="0px"
	 viewBox="0 0 500 500" style="enable-background:new 0 0 500 500;" xml:space="preserve">
<g>
	<g>
		<path style="fill:#FFFFFF;" d="M387.7,416.1H112.3c-15.66,0-28.4-12.74-28.4-28.4V112.3c0-15.66,12.74-28.4,28.4-28.4h275.4
			c15.66,0,28.4,12.74,28.4,28.4v275.4C416.1,403.36,403.36,416.1,387.7,416.1z M95.9,147.3v240.4c0,9.043,7.357,16.4,16.4,16.4
			h275.4c9.043,0,16.4-7.357,16.4-16.4V147.3H95.9z M95.9,135.3h308.2v-23c0-9.043-7.357-16.4-16.4-16.4H112.3
			c-9.043,0-16.4,7.357-16.4,16.4V135.3z"/>
	</g>
	<g>
		<path style="fill:#FFFFFF;" d="M178,123.1h-0.1c-4.142,0-7.5-3.358-7.5-7.5s3.358-7.5,7.5-7.5h0.1c4.142,0,7.5,3.358,7.5,7.5
			S182.142,123.1,178,123.1z M149.9,123.1h-0.2c-4.142,0-7.5-3.358-7.5-7.5s3.358-7.5,7.5-7.5h0.2c4.142,0,7.5,3.358,7.5,7.5
			S154.042,123.1,149.9,123.1z M121.7,123.1c-4.142,0-7.55-3.358-7.55-7.5s3.308-7.5,7.45-7.5h0.1c4.142,0,7.5,3.358,7.5,7.5
			S125.842,123.1,121.7,123.1z"/>
	</g>
	<g>
		<path style="fill:#FFFFFF;" d="M238.261,312.525c-1.591,0-3.117-0.632-4.243-1.758l-21.316-21.316
			c-2.343-2.343-2.343-6.142,0-8.485c2.343-2.342,6.142-2.343,8.485,0.001l17.066,17.066l46.29-46.441
			c2.339-2.347,6.137-2.353,8.485-0.013c2.347,2.339,2.353,6.138,0.013,8.485L242.51,310.76c-1.125,1.129-2.651,1.764-4.245,1.765
			C238.264,312.525,238.262,312.525,238.261,312.525z"/>
	</g>
	<g>
		<path style="fill:#FFFFFF;" d="M250,372.8c-0.89,0-1.78-0.198-2.602-0.594c-85.151-40.981-84.102-102.004-83.407-142.384
			c0.059-3.427,0.115-6.664,0.115-9.737c0-2.984,2.192-5.514,5.146-5.939c24.702-3.552,78.173-22.796,78.71-22.991
			c1.316-0.475,2.759-0.475,4.075,0c0.537,0.194,54.008,19.438,78.712,22.996c2.952,0.425,5.145,2.956,5.145,5.939
			c0,3.072,0.056,6.309,0.114,9.736c0.695,40.378,1.745,101.398-83.406,142.38C251.78,372.602,250.89,372.8,250,372.8z
			 M176.067,225.164c-0.021,1.583-0.049,3.203-0.078,4.865c-0.673,39.106-1.588,92.504,74.01,130.091
			c75.598-37.587,74.683-90.982,74.01-130.087c-0.028-1.663-0.057-3.282-0.077-4.865c-24.337-4.622-64.347-18.589-73.933-21.996
			C240.414,206.579,200.403,220.546,176.067,225.164z"/>
	</g>
</g>
</svg>
