<?xml version="1.0" encoding="utf-8"?>
<!-- Generator: Adobe Illustrator 27.5.0, SVG Export Plug-In . SVG Version: 6.00 Build 0)  -->
<svg version="1.1" id="Layer_1" xmlns="http://www.w3.org/2000/svg" xmlns:xlink="http://www.w3.org/1999/xlink" x="0px" y="0px"
	 viewBox="0 0 500 500" style="enable-background:new 0 0 500 500;" xml:space="preserve">
<style type="text/css">
	.st0{clip-path:url(#SVGID_00000165918816726272110550000013939089080915084455_);}
	.st1{fill:#FFFFFF;}
</style>
<g>
	<g>
		<g>
			<g>
				<defs>
					<rect id="SVGID_1_" width="500" height="500"/>
				</defs>
				<clipPath id="SVGID_00000178924119105419388390000003234622673041440921_">
					<use xlink:href="#SVGID_1_"  style="overflow:visible;"/>
				</clipPath>
				<g style="clip-path:url(#SVGID_00000178924119105419388390000003234622673041440921_);">
					<g>
						<path class="st1" d="M369.1,432.4c-21.9,0-39.8-17.9-39.8-39.8c0-10.1,3.8-19.3,9.9-26.3l-59.5-71.2c-8.5,5.7-18.8,9-29.8,9
							c-5.6,0-11-0.9-16.1-2.4l-15,34.2c7.6,5.4,12.6,14.2,12.6,24.2c0,16.3-13.3,29.6-29.6,29.6c-16.4,0-29.7-13.3-29.7-29.6
							s13.3-29.6,29.6-29.6c2.1,0,4.2,0.2,6.1,0.6l15-34.2c-15.6-9-26.3-25.6-27-44.7l-77.3-6.7c-2.9,10.8-12.7,18.8-24.4,18.8
							c-14,0-25.3-11.3-25.3-25.3c0-13.9,11.3-25.2,25.2-25.2c12,0,22.1,8.4,24.7,19.6l77.9,6.8c4.7-25.1,26.7-44.2,53.2-44.2
							c9.1,0,17.6,2.2,25.2,6.2l51.4-76.2c-6.2-6-10-14.5-10-23.7c0-18.3,14.9-33.2,33.2-33.2s33.2,14.9,33.2,33.2
							s-14.9,33.2-33.2,33.2c-4.7,0-9.2-1-13.2-2.7L285,209c11.6,9.9,19,24.7,19,41.2c0,14.5-5.8,27.7-15.1,37.5l59.4,71.1
							c6-3.7,13.1-5.8,20.7-5.8c21.9,0,39.8,17.9,39.8,39.8C408.9,414.5,391,432.4,369.1,432.4z M369.1,364.8
							c-15.3,0-27.8,12.5-27.8,27.8s12.5,27.8,27.8,27.8s27.8-12.5,27.8-27.8S384.4,364.8,369.1,364.8z M201.8,342.4
							c-9.7,0-17.6,7.9-17.6,17.6s7.9,17.6,17.7,17.6c9.7,0,17.6-7.9,17.6-17.6S211.6,342.4,201.8,342.4z M250,207.9
							c-23.2,0-42.1,18.9-42.1,42.1s18.9,42.1,42.1,42.1s42.1-18.9,42.1-42.1S273.2,207.9,250,207.9z M94.2,225.7
							c-7.3,0-13.2,5.9-13.2,13.2s6,13.3,13.3,13.3s13.2-5.9,13.2-13.2v-0.1C107.5,231.6,101.5,225.7,94.2,225.7z M338.7,120.3
							c3.2,2,7,3.1,11,3.1c11.7,0,21.2-9.5,21.2-21.2S361.4,81,349.7,81s-21.2,9.5-21.2,21.2c0,7,3.4,13.2,8.6,17.1
							c0.3,0.1,0.6,0.3,0.8,0.5C338.2,119.9,338.5,120.1,338.7,120.3z"/>
					</g>
				</g>
			</g>
		</g>
	</g>
</g>
</svg>
