<?xml version="1.0" encoding="iso-8859-1"?>
<!-- Generator: Adobe Illustrator 29.6.1, SVG Export Plug-In . SVG Version: 9.03 Build 0)  -->
<svg version="1.1" id="Layer_1" xmlns="http://www.w3.org/2000/svg" xmlns:xlink="http://www.w3.org/1999/xlink" x="0px" y="0px"
	 viewBox="0 0 500 500" style="enable-background:new 0 0 500 500;" xml:space="preserve">
<g>
	<g>
		<path style="fill:#FFFFFF;" d="M250,384.419c-0.862,0-1.725-0.186-2.526-0.558l-181.1-84.05c-2.099-0.974-3.45-3.068-3.474-5.382
			s1.285-4.435,3.364-5.45l46.6-22.788c2.978-1.456,6.57-0.223,8.026,2.754s0.223,6.57-2.754,8.025l-35.288,17.257L250,371.805
			l166.891-77.456l-34.932-16.332c-3.002-1.403-4.298-4.975-2.895-7.977c1.405-3.003,4.979-4.294,7.977-2.895l46.6,21.788
			c2.113,0.988,3.462,3.111,3.459,5.444c-0.003,2.332-1.358,4.452-3.475,5.434l-181.1,84.05
			C251.725,384.233,250.863,384.419,250,384.419z"/>
	</g>
	<g>
		<path style="fill:#FFFFFF;" d="M250,339.681c-0.862,0-1.725-0.186-2.526-0.558l-181.1-84.05c-2.099-0.974-3.45-3.068-3.474-5.382
			s1.285-4.434,3.364-5.451l46.6-22.788c2.975-1.455,6.57-0.223,8.026,2.754s0.223,6.57-2.754,8.026l-35.288,17.256L250,327.066
			l166.891-77.456l-34.932-16.332c-3.002-1.403-4.298-4.975-2.895-7.977c1.405-3.001,4.979-4.296,7.977-2.894l46.6,21.788
			c2.113,0.988,3.462,3.111,3.459,5.444c-0.003,2.332-1.358,4.452-3.475,5.434l-181.1,84.05
			C251.725,339.495,250.863,339.681,250,339.681z"/>
	</g>
	<g>
		<path style="fill:#FFFFFF;" d="M250,295.681c-0.862,0-1.725-0.186-2.526-0.558l-181.1-84.05c-2.119-0.983-3.474-3.106-3.474-5.442
			s1.355-4.459,3.474-5.442l181.1-84.05c1.602-0.743,3.45-0.743,5.051,0l181.1,84.05c2.119,0.983,3.475,3.106,3.475,5.442
			s-1.355,4.459-3.475,5.442l-181.1,84.05C251.725,295.495,250.863,295.681,250,295.681z M83.153,205.631L250,283.066
			l166.847-77.436L250,128.196L83.153,205.631z"/>
	</g>
</g>
</svg>
