<?xml version="1.0" encoding="iso-8859-1"?>
<!-- Generator: Adobe Illustrator 29.6.1, SVG Export Plug-In . SVG Version: 9.03 Build 0)  -->
<svg version="1.1" id="Layer_1" xmlns="http://www.w3.org/2000/svg" xmlns:xlink="http://www.w3.org/1999/xlink" x="0px" y="0px"
	 viewBox="0 0 500 500" style="enable-background:new 0 0 500 500;" xml:space="preserve">
<g>
	<g>
		<path style="fill:#FFFFFF;" d="M250,384.418c-0.862,0-1.725-0.186-2.526-0.558l-181.1-84.05c-2.099-0.974-3.45-3.068-3.474-5.382
			s1.285-4.435,3.364-5.45l46.6-22.788c2.978-1.456,6.57-0.223,8.026,2.754s0.223,6.57-2.754,8.025l-35.288,17.257L250,371.804
			l166.891-77.456l-34.932-16.332c-3.002-1.403-4.298-4.975-2.895-7.977c1.405-3.003,4.979-4.294,7.977-2.895l46.6,21.788
			c2.113,0.988,3.462,3.111,3.459,5.444c-0.003,2.332-1.358,4.452-3.475,5.434l-181.1,84.05
			C251.725,384.232,250.862,384.418,250,384.418z"/>
	</g>
	<g>
		<path style="fill:#FFFFFF;" d="M250,339.68c-0.862,0-1.725-0.186-2.526-0.558l-181.1-84.05c-2.099-0.974-3.45-3.068-3.474-5.382
			s1.285-4.434,3.364-5.451l46.6-22.788c2.975-1.455,6.57-0.223,8.026,2.754s0.223,6.57-2.754,8.026l-35.288,17.256L250,327.065
			l166.891-77.456l-34.932-16.332c-3.002-1.403-4.298-4.975-2.895-7.977c1.405-3.001,4.979-4.296,7.977-2.894l46.6,21.788
			c2.113,0.988,3.462,3.111,3.459,5.444c-0.003,2.332-1.358,4.452-3.475,5.434l-181.1,84.05
			C251.725,339.494,250.862,339.68,250,339.68z"/>
	</g>
	<g>
		<path style="fill:#FFFFFF;" d="M250,295.68c-0.862,0-1.725-0.186-2.526-0.558l-60.327-27.998
			c-0.029-0.013-0.057-0.025-0.085-0.039l-60.28-27.977c-0.029-0.013-0.059-0.027-0.088-0.041l-60.32-27.995
			c-2.119-0.983-3.474-3.106-3.474-5.442s1.355-4.459,3.474-5.442l60.331-27.999c0.022-0.011,0.045-0.021,0.067-0.031l60.297-27.985
			c0.024-0.011,0.048-0.022,0.072-0.033l60.333-28.001c1.602-0.743,3.45-0.743,5.051,0l60.325,27.997
			c0.03,0.014,0.061,0.027,0.09,0.042l60.318,27.995c2.119,0.983,3.475,3.106,3.475,5.442c0,2.335-1.355,4.459-3.474,5.442
			l-48.641,22.575l48.641,22.574c2.118,0.983,3.474,3.107,3.474,5.442c0,2.336-1.355,4.459-3.475,5.442l-60.331,28
			c-0.021,0.01-0.044,0.021-0.065,0.03l-60.337,28.002C251.725,295.494,250.862,295.68,250,295.68z M203.887,261.664L250,283.065
			l46.115-21.402l-46.113-21.402L203.887,261.664z M143.521,233.647l46.114,21.403l46.115-21.403l-46.114-21.402L143.521,233.647z
			 M264.254,233.646l46.114,21.402l46.113-21.402l-46.114-21.402L264.254,233.646z M83.153,205.63l46.115,21.402l46.115-21.402
			l-46.115-21.402L83.153,205.63z M203.888,205.63l46.114,21.402l46.113-21.401l-46.114-21.402L203.888,205.63z M264.254,177.614
			l46.113,21.402l46.114-21.402l-46.113-21.401L264.254,177.614z M143.521,177.613l46.115,21.402l46.114-21.402l-46.115-21.403
			L143.521,177.613z M203.886,149.596l46.116,21.403l46.114-21.402L250,128.195L203.886,149.596z"/>
	</g>
	<g>
		<path style="fill:#FFFFFF;" d="M370.732,239.647c-0.886,0-1.777-0.196-2.605-0.596c-2.075-1.001-3.394-3.101-3.394-5.404v-56.034
			c0-1.729,0.746-3.374,2.047-4.513c1.3-1.14,3.027-1.665,4.743-1.435l60.367,8.017c2.386,0.317,4.351,2.028,4.992,4.348
			c0.643,2.319-0.164,4.798-2.047,6.296l-60.367,48.017C373.385,239.203,372.064,239.647,370.732,239.647z M376.733,184.463v36.745
			l39.587-31.488L376.733,184.463z"/>
	</g>
</g>
</svg>
