<?xml version="1.0" encoding="iso-8859-1"?>
<!-- Generator: Adobe Illustrator 29.6.1, SVG Export Plug-In . SVG Version: 9.03 Build 0)  -->
<svg version="1.1" id="Layer_1" xmlns="http://www.w3.org/2000/svg" xmlns:xlink="http://www.w3.org/1999/xlink" x="0px" y="0px"
	 viewBox="0 0 500 500" style="enable-background:new 0 0 500 500;" xml:space="preserve">
<g>
	<g>
		<path style="fill:#FFFFFF;" d="M382.649,416.3H117.25c-3.313,0-6-2.687-6-6V214.5c0-3.313,2.687-6,6-6s6,2.687,6,6v189.8h253.399
			V214.5c0-3.313,2.687-6,6-6s6,2.687,6,6v195.8C388.649,413.613,385.964,416.3,382.649,416.3z M353.35,192.9c-3.313,0-6-2.687-6-6
			v-75.8h-34.8v31.8c0,3.313-2.687,6-6,6s-6-2.687-6-6v-37.8c0-3.313,2.687-6,6-6h46.8c3.313,0,6,2.687,6,6v81.8
			C359.35,190.214,356.663,192.9,353.35,192.9z"/>
	</g>
	<g>
		<path style="fill:#FFFFFF;" d="M409.449,245.7c-1.475,0-2.952-0.54-4.111-1.63L250.048,97.938L94.66,244.071
			c-2.414,2.269-6.212,2.154-8.481-0.26c-2.271-2.414-2.154-6.211,0.26-8.481l159.5-150c2.31-2.173,5.913-2.172,8.223,0.001
			l159.4,150c2.413,2.271,2.528,6.068,0.257,8.481C412.639,245.067,411.046,245.7,409.449,245.7z"/>
	</g>
	<g>
		<path style="fill:#FFFFFF;" d="M282.75,362.9h-65.5c-15.936,0-28.9-12.965-28.9-28.9v-57.2c0-3.313,2.686-6,6-6h9.5v-9.6
			c0-24.151,18.617-43.8,41.5-43.8h9.2c22.883,0,41.5,19.648,41.5,43.8v9.6h9.5c3.313,0,6,2.687,6,6V334
			c0.061,7.682-2.888,14.943-8.303,20.4C297.809,359.882,290.529,362.9,282.75,362.9z M200.35,282.8V334
			c0,9.319,7.582,16.9,16.9,16.9h65.5c4.557,0,8.811-1.759,11.979-4.952c3.145-3.169,4.856-7.396,4.821-11.901V282.8H200.35z
			 M215.85,270.8h68.2v-9.6c0-17.535-13.233-31.8-29.5-31.8h-9.2c-16.266,0-29.5,14.265-29.5,31.8L215.85,270.8L215.85,270.8z
			 M266.75,324h-33.3c-3.313,0-6-2.687-6-6s2.687-6,6-6h33.3c3.313,0,6,2.687,6,6S270.063,324,266.75,324z"/>
	</g>
</g>
</svg>
