<?xml version="1.0" encoding="iso-8859-1"?>
<!-- Generator: Adobe Illustrator 29.6.1, SVG Export Plug-In . SVG Version: 9.03 Build 0)  -->
<svg version="1.1" id="Layer_1" xmlns="http://www.w3.org/2000/svg" xmlns:xlink="http://www.w3.org/1999/xlink" x="0px" y="0px"
	 viewBox="0 0 500 500" style="enable-background:new 0 0 500 500;" xml:space="preserve">
<g>
	<g>
		<g>
			<path style="fill:#FFFFFF;" d="M192.973,416.001h-96c-3.314,0-6-2.687-6-6v-100c0-3.313,2.686-6,6-6h22v-148h-24
				c-3.314,0-6-2.686-6-6s2.686-6,6-6h24v-54c0-3.314,2.686-6,6-6h39.875c0.241-0.006,0.486,0.005,0.73,0.03
				c0.248,0.025,0.49,0.064,0.728,0.119l169.876,34.974c2.789,0.574,4.79,3.03,4.79,5.877v60c0,3.314-2.687,6-6,6s-6-2.686-6-6v-29
				h-158v148h22c3.314,0,6,2.687,6,6v100C198.973,413.314,196.287,416.001,192.973,416.001z M102.973,404.001h84v-88h-84V404.001z
				 M130.973,304.001h28v-208h-28V304.001z M170.973,144.001h158v-14.109l-158-32.529V144.001z"/>
		</g>
	</g>
	<g>
		<path style="fill:#FFFFFF;" d="M359.974,241.001h-50c-3.313,0-6-2.687-6-6v-50c0-3.313,2.687-6,6-6h50c3.313,0,6,2.687,6,6v50
			C365.974,238.314,363.286,241.001,359.974,241.001z M315.974,229.001h38v-38h-38V229.001z"/>
	</g>
	<g>
		<g>
			<path style="fill:#FFFFFF;" d="M395.221,381.106H274.726c-8.715,0-15.805-7.09-15.805-15.805V244.805
				c0-8.714,7.09-15.804,15.805-15.804h120.496c8.715,0,15.805,7.09,15.805,15.804v120.497
				C411.026,374.017,403.937,381.106,395.221,381.106z M274.726,241.001c-2.098,0-3.805,1.707-3.805,3.804v120.497
				c0,2.098,1.707,3.805,3.805,3.805h120.496c2.098,0,3.805-1.707,3.805-3.805V244.805c0-2.098-1.707-3.804-3.805-3.804H274.726z"/>
		</g>
		<g>
			<path style="fill:#FFFFFF;" d="M328.354,331.486c-0.612,0-1.235-0.095-1.851-0.294c-3.152-1.021-4.88-4.405-3.858-7.558
				l13.238-40.862c1.021-3.15,4.398-4.88,7.558-3.858c3.152,1.021,4.88,4.405,3.858,7.558l-13.238,40.862
				C333.24,329.871,330.886,331.486,328.354,331.486z M359.789,331.484c-1.842,0.001-3.659-0.845-4.835-2.44
				c-1.966-2.668-1.396-6.425,1.271-8.39l21.173-15.601l-21.173-15.602c-2.667-1.966-3.236-5.722-1.271-8.39
				c1.966-2.666,5.721-3.236,8.39-1.271l27.729,20.432c1.534,1.131,2.44,2.924,2.44,4.83s-0.906,3.699-2.44,4.83l-27.729,20.431
				C362.271,331.105,361.023,331.484,359.789,331.484z M310.157,331.484c-1.236,0-2.482-0.38-3.555-1.17l-27.729-20.431
				c-1.534-1.131-2.44-2.924-2.44-4.83s0.906-3.699,2.44-4.83l27.729-20.432c2.668-1.966,6.425-1.396,8.39,1.271
				c1.966,2.668,1.396,6.424-1.271,8.39l-21.173,15.602l21.173,15.601c2.667,1.965,3.236,5.722,1.271,8.39
				C313.816,330.64,312,331.484,310.157,331.484z"/>
		</g>
	</g>
</g>
</svg>
