<?xml version="1.0" encoding="iso-8859-1"?>
<!-- Generator: Adobe Illustrator 29.6.1, SVG Export Plug-In . SVG Version: 9.03 Build 0)  -->
<svg version="1.1" id="Layer_1" xmlns="http://www.w3.org/2000/svg" xmlns:xlink="http://www.w3.org/1999/xlink" x="0px" y="0px"
	 viewBox="0 0 500 500" style="enable-background:new 0 0 500 500;" xml:space="preserve">
<defs>
	<filter id="Adobe_OpacityMaskFilter" filterUnits="userSpaceOnUse" x="59" y="94" width="382" height="237.469">
		<feColorMatrix  type="matrix" values="1 0 0 0 0  0 1 0 0 0  0 0 1 0 0  0 0 0 1 0"/>
	</filter>
</defs>
<mask maskUnits="userSpaceOnUse" x="59" y="94" width="382" height="237.469" id="rT9Q9XhyCea_00000005224438694850502720000004567235079287301024_">
	<path style="fill-rule:evenodd;clip-rule:evenodd;fill:#FFFFFF;filter:url(#Adobe_OpacityMaskFilter);" d="M56.314,86.615H450V375
		H56.314V86.615z M65,325.47V146.25c0,13.929,24.63,26.419,63.594,34.899v179.218C89.629,351.888,65,339.397,65,325.469
		 M435,325.469V146.25c0,13.929-24.629,26.419-63.594,34.899v179.218C410.371,351.888,435,339.397,435,325.469 M295,250
		c0,24.853-20.147,45-45,45s-45-20.147-45-45s20.147-45,45-45S295,225.147,295,250"/>
</mask>
<g style="mask:url(#rT9Q9XhyCea_00000005224438694850502720000004567235079287301024_);">
	<g>
		<path style="fill:#FFFFFF;" d="M435,331.469c-3.313,0-6-2.687-6-6c0-6.677-13.001-17.723-49.641-26.883
			c-34.479-8.62-80.421-13.367-129.359-13.367c-48.939,0-94.88,4.747-129.359,13.367C84,307.746,71,318.792,71,325.469
			c0,3.313-2.687,6-6,6s-6-2.687-6-6c0-15.82,19.76-28.782,58.73-38.524c35.404-8.852,82.378-13.726,132.27-13.726
			s96.866,4.874,132.271,13.726C421.24,296.687,441,309.648,441,325.469C441,328.782,438.313,331.469,435,331.469z M435,152.25
			c-3.313,0-6-2.687-6-6c0-6.676-13.001-17.723-49.641-26.883C344.88,110.747,298.938,106,250,106
			c-48.939,0-94.88,4.747-129.359,13.367C84,128.527,71,139.574,71,146.25c0,3.313-2.687,6-6,6s-6-2.687-6-6
			c0-15.82,19.76-28.782,58.73-38.524C153.134,98.875,200.108,94,250,94s96.866,4.875,132.271,13.726
			C421.24,117.468,441,130.43,441,146.25C441,149.563,438.313,152.25,435,152.25z"/>
	</g>
	<g>
		<path style="fill:#FFFFFF;" d="M342.508,227.188c-0.286,0-0.575-0.021-0.866-0.062c-18.834-2.723-39.248-4.565-60.678-5.475
			c-3.311-0.141-5.88-2.938-5.739-6.249s2.935-5.856,6.249-5.74c21.831,0.927,42.652,2.807,61.885,5.587
			c3.279,0.474,5.554,3.518,5.08,6.797C348.006,225.034,345.44,227.188,342.508,227.188z M342.508,192.188
			c-0.286,0-0.575-0.021-0.866-0.062c-18.834-2.723-39.248-4.565-60.678-5.475c-3.311-0.141-5.88-2.938-5.739-6.249
			s2.935-5.86,6.249-5.74c21.831,0.927,42.652,2.807,61.885,5.587c3.279,0.474,5.554,3.518,5.08,6.797
			C348.006,190.034,345.44,192.188,342.508,192.188z M342.508,157.188c-0.286,0-0.575-0.021-0.866-0.062
			C313.932,153.118,282.242,151,250,151c-3.313,0-6-2.687-6-6s2.687-6,6-6c32.808,0,65.09,2.161,93.358,6.249
			c3.28,0.474,5.554,3.517,5.08,6.797C348.006,155.034,345.44,157.188,342.508,157.188z M157.493,157.188
			c-2.934,0-5.499-2.154-5.931-5.143c-0.474-3.279,1.8-6.323,5.08-6.797c18.183-2.628,37.827-4.456,58.386-5.43
			c3.32-0.158,6.121,2.399,6.277,5.709s-2.399,6.121-5.709,6.277c-20.177,0.957-39.434,2.746-57.238,5.32
			C158.067,157.167,157.778,157.188,157.493,157.188z"/>
	</g>
	<g>
		<path style="fill:#FFFFFF;" d="M157.5,250c-1.433,0-2.83-0.514-3.927-1.464c-1.316-1.14-2.073-2.795-2.073-4.536v-57.813
			c0-2.982,2.19-5.511,5.141-5.938C184.91,176.161,217.193,174,250,174c3.313,0,6,2.687,6,6v57.812c0,3.314-2.687,6-6,6
			c-32.238,0-63.927,2.118-91.641,6.126C158.072,249.979,157.785,250,157.5,250z M163.5,191.41v45.708
			c24.818-3.246,52.388-5.056,80.5-5.282v-45.812C215.811,186.254,188.205,188.101,163.5,191.41z"/>
	</g>
</g>
<g>
	<path style="fill:#FFFFFF;" d="M371.406,366.367c-1.357,0-2.688-0.461-3.765-1.328c-1.413-1.139-2.235-2.856-2.235-4.672V181.149
		c0-2.822,1.967-5.263,4.724-5.863C413.582,165.83,429,153.734,429,146.25c0-3.314,2.687-6,6-6s6,2.686,6,6v179.219
		c0,21.401-37.151,33.979-68.318,40.761C372.259,366.322,371.831,366.367,371.406,366.367z M377.406,185.948v166.887
		C415.316,343.662,429,332.52,429,325.469V165.755C416.552,175.033,396.298,181.549,377.406,185.948z M128.594,366.367
		c-0.425,0-0.853-0.045-1.276-0.138C96.152,359.447,59,346.87,59,325.469V146.25c0-3.314,2.687-6,6-6c3.313,0,6,2.686,6,6
		c0,7.484,15.418,19.58,58.87,29.036c2.757,0.6,4.724,3.041,4.724,5.863v179.218c0,1.815-0.822,3.533-2.235,4.672
		C131.283,365.906,129.951,366.367,128.594,366.367z M71,165.755v159.713c0,7.051,13.684,18.193,51.594,27.366V185.948
		C103.703,181.549,83.448,175.033,71,165.755z"/>
</g>
<g>
	<path style="fill:#FFFFFF;" d="M250,301c-28.122,0-51-22.879-51-51c0-28.122,22.878-51,51-51c28.121,0,51,22.878,51,51
		C301,278.121,278.121,301,250,301z M250,211c-21.505,0-39,17.495-39,39s17.495,39,39,39s39-17.495,39-39S271.505,211,250,211z"/>
</g>
<g>
	<path style="fill:#FFFFFF;" d="M340,406H160c-3.314,0-6-2.687-6-6v-25c0-33.636,27.364-61,61-61h70c33.636,0,61,27.364,61,61v25
		C346,403.313,343.313,406,340,406z M166,394h168v-19c0-27.019-21.981-49-49-49h-70c-27.019,0-49,21.981-49,49V394z"/>
</g>
</svg>
