<?xml version="1.0" encoding="iso-8859-1"?>
<!-- Generator: Adobe Illustrator 29.6.1, SVG Export Plug-In . SVG Version: 9.03 Build 0)  -->
<svg version="1.1" id="Layer_1" xmlns="http://www.w3.org/2000/svg" xmlns:xlink="http://www.w3.org/1999/xlink" x="0px" y="0px"
	 viewBox="0 0 500 500" style="enable-background:new 0 0 500 500;" xml:space="preserve">
<g>
	<g>
		<path style="fill:#FFFFFF;" d="M106.527,381h-0.01c-4.142,0-7.5-3.357-7.5-7.5s3.358-7.5,7.5-7.5s7.505,3.357,7.505,7.5
			S110.669,381,106.527,381z M136.527,323h-0.01c-4.142,0-7.5-3.357-7.5-7.5s3.358-7.5,7.5-7.5s7.505,3.357,7.505,7.5
			S140.669,323,136.527,323z M106.537,308h-0.01c-4.142,0-7.5-3.357-7.5-7.5s3.358-7.5,7.5-7.5s7.505,3.357,7.505,7.5
			S110.679,308,106.537,308z M136.537,250h-0.01c-4.142,0-7.5-3.358-7.5-7.5s3.358-7.5,7.5-7.5s7.505,3.358,7.505,7.5
			S140.679,250,136.537,250z M106.547,235h-0.01c-4.142,0-7.5-3.358-7.5-7.5s3.358-7.5,7.5-7.5s7.505,3.358,7.505,7.5
			S110.689,235,106.547,235z"/>
	</g>
	<path style="fill:#FFFFFF;" d="M334.539,371.072c-0.988,0-1.966-0.038-2.945-0.074c-3.986,15.069-16.12,29.13-35.161,40.412
		c-24.58,14.57-57.4,22.59-92.39,22.59c-35,0-67.82-8.02-92.4-22.59c-23.61-13.99-36.6-32.25-36.6-51.41v-38.91
		c7.17,9.88,17.42,18.91,30.48,26.64c26.41,15.65,61.4,24.27,98.52,24.27c30.58,0,59.707-5.866,83.794-16.683
		c-3.507-2.672-6.775-5.639-9.774-8.862C256.497,355.252,230.918,360,204.042,360c-35,0-67.82-8.02-92.4-22.59
		c-23.61-13.99-36.6-32.25-36.6-51.41v-37.91c7.17,9.88,17.42,18.91,30.48,26.64c26.41,15.65,61.4,24.27,98.52,24.27
		c18.599,0,36.664-2.167,53.384-6.297c0.068-4.338,0.495-8.586,1.251-12.722C241.785,284.57,223.246,287,204.042,287
		c-35,0-67.82-8.02-92.4-22.59c-23.61-13.99-36.6-32.25-36.6-51.41v-37.91c7.17,9.88,17.42,18.91,30.48,26.64
		c26.41,15.65,61.4,24.27,98.52,24.27c37.11,0,72.1-8.62,98.51-24.27c13.06-7.73,23.33-16.77,30.49-26.66V213
		c0,1.281-0.063,2.557-0.178,3.828c0.559-0.012,1.113-0.042,1.674-0.042c3.565,0,7.067,0.263,10.504,0.731V140
		c0-23.57-15.09-45.5-42.49-61.73C276.143,62.62,241.162,54,204.042,54c-37.13,0-72.11,8.62-98.52,24.27
		c-27.4,16.23-42.49,38.16-42.49,61.73v220c0,23.57,15.09,45.5,42.49,61.73c26.41,15.65,61.4,24.27,98.52,24.27
		c37.11,0,72.1-8.62,98.51-24.27c23.294-13.798,37.684-31.717,41.476-51.26C340.916,370.852,337.754,371.072,334.539,371.072z
		 M111.643,88.59c24.58-14.57,57.4-22.59,92.4-22.59c34.99,0,67.81,8.02,92.39,22.59c23.61,13.99,36.61,32.25,36.61,51.41
		s-13,37.42-36.61,51.41c-24.58,14.57-57.4,22.59-92.39,22.59c-35,0-67.82-8.02-92.4-22.59c-23.61-13.99-36.6-32.25-36.6-51.41
		S88.033,102.58,111.643,88.59z"/>
	<g>
		<path style="fill:#FFFFFF;" d="M430.967,402.786c-1.535,0-3.071-0.586-4.242-1.758l-45-45c-2.344-2.343-2.344-6.142,0-8.484
			c2.342-2.344,6.143-2.344,8.484,0l45,45c2.344,2.343,2.344,6.142,0,8.484C434.039,402.2,432.503,402.786,430.967,402.786z"/>
	</g>
	<g>
		<path style="fill:#FFFFFF;" d="M334.539,377.071c-45.845,0-83.143-37.298-83.143-83.143s37.298-83.143,83.143-83.143
			s83.143,37.298,83.143,83.143C417.681,339.773,380.383,377.071,334.539,377.071z M334.539,222.786
			c-39.229,0-71.143,31.915-71.143,71.143s31.914,71.143,71.143,71.143s71.143-31.914,71.143-71.143
			S373.768,222.786,334.539,222.786z"/>
	</g>
	<g>
		<path style="fill:#FFFFFF;" d="M289.539,299.929c-3.313,0-6-2.687-6-6c0-28.121,22.879-51,51-51c3.313,0,6,2.687,6,6s-2.687,6-6,6
			c-21.505,0-39,17.495-39,39C295.539,297.242,292.852,299.929,289.539,299.929z"/>
	</g>
</g>
</svg>
