<?xml version="1.0" encoding="iso-8859-1"?>
<!-- Generator: Adobe Illustrator 29.6.1, SVG Export Plug-In . SVG Version: 9.03 Build 0)  -->
<svg version="1.1" id="Layer_1" xmlns="http://www.w3.org/2000/svg" xmlns:xlink="http://www.w3.org/1999/xlink" x="0px" y="0px"
	 viewBox="0 0 500 500" style="enable-background:new 0 0 500 500;" xml:space="preserve">
<g>
	<g>
		<path style="fill:#FFFFFF;" d="M250,446c-37.12,0-72.108-8.619-98.518-24.27C124.087,405.496,109,383.573,109,360V140
			c0-23.574,15.087-45.497,42.482-61.73C177.892,62.619,212.88,54,250,54s72.107,8.619,98.518,24.27
			C375.913,94.503,391,116.426,391,140v220c0,23.573-15.087,45.496-42.482,61.73C322.107,437.381,287.12,446,250,446z M250,66
			c-35,0-67.814,8.024-92.4,22.593C133.998,102.579,121,120.836,121,140v220c0,19.164,12.998,37.421,36.6,51.406
			C182.186,425.977,215,434,250,434c34.999,0,67.814-8.023,92.4-22.594C366.002,397.421,379,379.164,379,360V140
			c0-19.164-12.998-37.421-36.6-51.407C317.814,74.024,284.999,66,250,66z"/>
	</g>
	<g>
		<path style="fill:#FFFFFF;" d="M250,372c-37.12,0-72.108-8.619-98.518-24.27C124.087,331.496,109,309.573,109,286
			c0-3.313,2.687-6,6-6s6,2.687,6,6c0,19.164,12.998,37.421,36.6,51.406C182.186,351.977,215,360,250,360
			c34.999,0,67.814-8.023,92.4-22.594C366.002,323.421,379,305.164,379,286c0-3.313,2.687-6,6-6s6,2.687,6,6
			c0,23.573-15.087,45.496-42.482,61.73C322.107,363.381,287.12,372,250,372z M250,226c-37.12,0-72.108-8.619-98.518-24.27
			C124.087,185.497,109,163.574,109,140c0-3.313,2.687-6,6-6s6,2.687,6,6c0,19.164,12.998,37.421,36.6,51.407
			C182.186,205.976,215,214,250,214c34.999,0,67.814-8.024,92.4-22.593C366.002,177.421,379,159.164,379,140c0-3.313,2.687-6,6-6
			s6,2.687,6,6c0,23.574-15.087,45.497-42.482,61.73C322.107,217.381,287.12,226,250,226z"/>
	</g>
	<g>
		<path style="fill:#FFFFFF;" d="M250,299c-37.12,0-72.108-8.619-98.518-24.27C124.087,258.496,109,236.573,109,213
			c0-3.313,2.687-6,6-6s6,2.687,6,6c0,19.164,12.998,37.42,36.6,51.406C182.186,278.977,215,287,250,287
			c34.999,0,67.814-8.023,92.4-22.594C366.002,250.42,379,232.164,379,213c0-3.313,2.687-6,6-6s6,2.687,6,6
			c0,23.573-15.087,45.496-42.482,61.73C322.107,290.381,287.12,299,250,299z"/>
	</g>
	<g>
		<path style="fill:#FFFFFF;" d="M152.49,381h-0.01c-4.142,0-7.5-3.357-7.5-7.5s3.358-7.5,7.5-7.5s7.505,3.357,7.505,7.5
			S156.632,381,152.49,381z M182.49,323h-0.01c-4.142,0-7.5-3.357-7.5-7.5s3.358-7.5,7.5-7.5s7.505,3.357,7.505,7.5
			S186.632,323,182.49,323z M152.5,308h-0.01c-4.142,0-7.5-3.357-7.5-7.5s3.358-7.5,7.5-7.5s7.505,3.357,7.505,7.5
			S156.642,308,152.5,308z M182.5,250h-0.01c-4.142,0-7.5-3.358-7.5-7.5s3.358-7.5,7.5-7.5s7.505,3.358,7.505,7.5
			S186.642,250,182.5,250z M152.51,235h-0.01c-4.142,0-7.5-3.358-7.5-7.5s3.358-7.5,7.5-7.5s7.505,3.358,7.505,7.5
			S156.652,235,152.51,235z"/>
	</g>
</g>
<g>
	<g>
		<path style="fill:#FFFFFF;" d="M345.48,146.879c-0.9-0.48-1.86-0.71-2.81-0.71c-2.15,0-4.23,1.16-5.31,3.19
			c-0.74,1.39-7.65,13.67-21.56,15.57c-11.53,1.58-23.37-4.63-29.55-15.45c-0.04-0.07-0.09-0.15-0.13-0.23
			c-0.07-0.12-0.14-0.24-0.22-0.36c-0.25-0.39-0.55-0.75-0.87-1.06c-0.18-0.17-0.38-0.34-0.59-0.49c-1.23-0.91-2.78-1.31-4.3-1.12
			c-0.12,0.01-0.25,0.03-0.37,0.06c-0.13,0.02-0.25,0.05-0.37,0.08s-0.25,0.07-0.37,0.11s-0.24,0.08-0.36,0.13s-0.24,0.1-0.36,0.16
			c-0.12,0.05-0.23,0.12-0.35,0.18c-0.12,0.07-0.24,0.14-0.36,0.22c-0.1,0.06-0.19,0.13-0.28,0.2c-0.24,0.17-0.46,0.36-0.67,0.57
			c-0.09,0.09-0.18,0.19-0.27,0.29c-0.09,0.1-0.18,0.2-0.25,0.31c-0.08,0.1-0.16,0.21-0.23,0.32c-0.07,0.1-0.13,0.2-0.19,0.3
			c-0.05,0.07-0.08,0.14-0.12,0.21c-0.74,1.39-7.65,13.67-21.56,15.57c-11.54,1.58-23.38-4.63-29.55-15.45
			c-0.04-0.07-0.09-0.15-0.13-0.23c-0.07-0.12-0.14-0.24-0.22-0.36c-0.04-0.07-0.09-0.13-0.14-0.2c-0.05-0.08-0.1-0.15-0.16-0.22
			c-0.08-0.11-0.17-0.21-0.26-0.31c-0.1-0.12-0.21-0.23-0.33-0.34c-0.08-0.08-0.17-0.16-0.26-0.23c-0.58-0.49-1.24-0.86-1.95-1.1
			c-0.11-0.04-0.22-0.07-0.33-0.11c-0.02,0-0.04,0-0.06-0.01c-0.12-0.03-0.24-0.06-0.36-0.08c-0.62-0.13-1.27-0.15-1.91-0.07
			c-0.13,0.01-0.25,0.03-0.38,0.06c-0.37,0.07-0.74,0.18-1.1,0.32c-0.12,0.05-0.24,0.1-0.36,0.16c-0.12,0.05-0.23,0.12-0.35,0.18
			c-0.12,0.07-0.24,0.14-0.36,0.22c-0.11,0.07-0.23,0.15-0.33,0.23c-0.71,0.54-1.27,1.21-1.67,1.96
			c-0.74,1.4-7.66,13.68-21.56,15.58c-11.62,1.59-23.55-4.72-29.68-15.68c-1.62-2.9-5.28-3.93-8.17-2.31s-3.92,5.27-2.31,8.16
			c8.53,15.24,25.32,23.97,41.78,21.72c12.15-1.66,20.39-8.56,25.27-14.26c9.19,10.53,22.96,16.11,36.5,14.26
			c12.15-1.66,20.39-8.55,25.28-14.25c9.19,10.52,22.95,16.1,36.5,14.25c19.41-2.65,28.83-18.65,30.53-21.83
			C349.51,152.069,348.41,148.439,345.48,146.879z"/>
	</g>
</g>
<g>
	<g>
		<path style="fill:#FFFFFF;" d="M345.48,106.289c-0.9-0.48-1.86-0.71-2.81-0.71c-2.15,0-4.23,1.16-5.31,3.19
			c-0.74,1.39-7.65,13.67-21.56,15.57c-11.53,1.58-23.37-4.63-29.55-15.45c-0.04-0.07-0.09-0.15-0.13-0.23
			c-0.07-0.12-0.14-0.24-0.22-0.36c-0.25-0.39-0.55-0.75-0.87-1.06c-0.18-0.17-0.38-0.34-0.59-0.49c-0.56-0.41-1.18-0.72-1.84-0.92
			c-0.09-0.03-0.19-0.05-0.28-0.07c-0.71-0.18-1.45-0.22-2.18-0.13c-0.12,0.01-0.25,0.03-0.37,0.06c-0.13,0.02-0.25,0.05-0.37,0.08
			s-0.25,0.07-0.37,0.11s-0.24,0.08-0.36,0.13s-0.24,0.1-0.36,0.16c-0.12,0.05-0.23,0.11-0.35,0.18s-0.24,0.14-0.36,0.22
			c-0.1,0.06-0.19,0.13-0.28,0.2c-0.46,0.34-0.86,0.73-1.19,1.17c-0.08,0.1-0.16,0.21-0.23,0.32c-0.08,0.11-0.14,0.22-0.21,0.34
			c-0.04,0.05-0.07,0.11-0.1,0.17c-0.74,1.39-7.65,13.67-21.56,15.57c-11.54,1.57-23.38-4.63-29.55-15.45
			c-0.04-0.07-0.09-0.15-0.13-0.23c-0.07-0.12-0.14-0.24-0.22-0.36c-0.04-0.07-0.09-0.13-0.14-0.2c-0.05-0.08-0.1-0.15-0.16-0.22
			c-0.08-0.11-0.17-0.21-0.26-0.31c-0.1-0.12-0.21-0.23-0.33-0.34c-0.08-0.08-0.17-0.16-0.26-0.23c-0.58-0.49-1.24-0.86-1.95-1.1
			c-0.08-0.03-0.16-0.06-0.25-0.08c-0.08-0.02-0.15-0.05-0.23-0.06c-0.71-0.18-1.45-0.22-2.19-0.13c-0.12,0.01-0.25,0.03-0.37,0.06
			c-0.37,0.07-0.74,0.18-1.1,0.32c-0.12,0.05-0.24,0.1-0.36,0.16c-0.12,0.05-0.23,0.12-0.35,0.18c-0.17,0.1-0.34,0.2-0.5,0.32
			c-0.09,0.06-0.18,0.13-0.27,0.2c-0.11,0.08-0.21,0.17-0.31,0.26c-0.53,0.47-0.96,1.02-1.28,1.63c-0.74,1.4-7.66,13.68-21.56,15.58
			c-11.62,1.58-23.55-4.72-29.68-15.68c-1.62-2.9-5.28-3.93-8.17-2.31s-3.92,5.27-2.31,8.16c8.53,15.24,25.32,23.96,41.78,21.72
			c12.15-1.66,20.38-8.55,25.27-14.25c9.2,10.52,22.96,16.09,36.5,14.25c12.15-1.66,20.38-8.54,25.27-14.25
			c9.2,10.52,22.96,16.09,36.51,14.25c19.41-2.65,28.83-18.65,30.53-21.83C349.51,111.479,348.41,107.849,345.48,106.289z"/>
	</g>
</g>
</svg>
