<?xml version="1.0" encoding="iso-8859-1"?>
<!-- Generator: Adobe Illustrator 29.6.1, SVG Export Plug-In . SVG Version: 9.03 Build 0)  -->
<svg version="1.1" id="Layer_1" xmlns="http://www.w3.org/2000/svg" xmlns:xlink="http://www.w3.org/1999/xlink" x="0px" y="0px"
	 viewBox="0 0 500 500" style="enable-background:new 0 0 500 500;" xml:space="preserve">
<g>
	<g>
		<path style="fill:#FFFFFF;" d="M307.5,416.698c-1.036,0-2.071-0.268-3-0.804l-112-64.664l-112,64.664
			c-1.856,1.072-4.144,1.072-6,0s-3-3.053-3-5.196V155.71c0-2.144,1.144-4.124,3-5.196l115-66.408
			c1.312-0.758,2.79-0.964,4.169-0.689c0.272,0.054,0.542,0.127,0.807,0.22c0.392,0.136,0.77,0.313,1.127,0.528l114.898,66.35
			c1.856,1.072,3,3.052,3,5.196v254.988c0,2.144-1.144,4.124-3,5.196C309.572,416.431,308.536,416.698,307.5,416.698z
			 M198.5,340.838l103,59.468V159.174l-103-59.479V340.838z M83.5,159.174v241.132l103-59.468V99.695L83.5,159.174z"/>
	</g>
	<g>
		<path style="fill:#FFFFFF;" d="M102.5,257.264c-1.036,0-2.072-0.268-3-0.804c-1.856-1.072-3-3.053-3-5.196v-69.991
			c0-2.144,1.144-4.124,3-5.196l65-37.534c1.856-1.072,4.144-1.072,6,0s3,3.053,3,5.196v69.997c0,2.144-1.144,4.125-3,5.196
			l-65,37.528C104.572,256.996,103.536,257.264,102.5,257.264z M108.5,184.737v56.135l53-30.6v-56.14L108.5,184.737z"/>
	</g>
	<g>
		<path style="fill:#FFFFFF;" d="M307.506,416.699c-2.074,0-4.091-1.076-5.202-3.001c-1.656-2.87-0.674-6.539,2.196-8.196
			l112-64.664V99.695l-106,61.211c-2.869,1.659-6.539,0.674-8.196-2.195c-1.656-2.87-0.674-6.54,2.196-8.196l115-66.408
			c1.855-1.072,4.143-1.072,6,0c1.856,1.072,3,3.053,3,5.196v255c0,2.144-1.144,4.124-3,5.196l-115,66.396
			C309.556,416.44,308.523,416.699,307.506,416.699z M102.505,362.264c-2.074,0-4.09-1.076-5.202-3.001
			c-1.657-2.87-0.673-6.539,2.196-8.196l32.5-18.763c2.87-1.655,6.539-0.674,8.196,2.196c1.657,2.87,0.673,6.539-2.196,8.196
			l-32.5,18.763C104.555,362.004,103.523,362.264,102.505,362.264z M102.505,327.264c-2.074,0-4.09-1.076-5.202-3.001
			c-1.657-2.87-0.673-6.539,2.196-8.196l65-37.527c2.869-1.655,6.539-0.673,8.196,2.196c1.657,2.87,0.673,6.539-2.196,8.196
			l-65,37.527C104.555,327.004,103.523,327.264,102.505,327.264z M282.494,309.765c-1.018,0-2.049-0.259-2.994-0.805l-65-37.528
			c-2.87-1.657-3.853-5.326-2.196-8.196c1.657-2.87,5.328-3.854,8.196-2.196l65,37.528c2.87,1.657,3.853,5.326,2.196,8.196
			C286.585,308.689,284.568,309.765,282.494,309.765z M102.505,292.264c-2.074,0-4.09-1.076-5.202-3.001
			c-1.657-2.87-0.673-6.539,2.196-8.196l65-37.527c2.87-1.657,6.54-0.673,8.196,2.196c1.657,2.87,0.673,6.54-2.196,8.196l-65,37.527
			C104.555,292.004,103.523,292.264,102.505,292.264z M282.494,274.765c-1.018,0-2.049-0.259-2.994-0.805l-65-37.528
			c-2.87-1.657-3.853-5.327-2.196-8.196c1.657-2.87,5.328-3.852,8.196-2.196l65,37.528c2.87,1.657,3.853,5.326,2.196,8.196
			C286.585,273.689,284.568,274.765,282.494,274.765z M282.494,239.764c-1.018,0-2.049-0.259-2.994-0.805l-65-37.527
			c-2.87-1.657-3.853-5.327-2.196-8.196s5.326-3.853,8.196-2.196l65,37.527c2.87,1.657,3.853,5.327,2.196,8.196
			C286.585,238.688,284.568,239.764,282.494,239.764z"/>
	</g>
	<g>
		<path style="fill:#FFFFFF;" d="M332.5,362.264c-1.036,0-2.071-0.268-3-0.804c-1.856-1.072-3-3.053-3-5.196v-69.991
			c0-2.144,1.144-4.124,3-5.196l65-37.533c1.855-1.072,4.143-1.072,6,0c1.856,1.072,3,3.053,3,5.196v69.997
			c0,2.144-1.144,4.124-3,5.196l-65,37.528C334.572,361.996,333.536,362.264,332.5,362.264z M338.5,289.736v56.135l53-30.6v-56.14
			L338.5,289.736z"/>
	</g>
	<g>
		<path style="fill:#FFFFFF;" d="M332.506,257.264c-2.074,0-4.091-1.076-5.202-3.001c-1.656-2.87-0.674-6.54,2.196-8.196
			l32.5-18.763c2.873-1.657,6.54-0.672,8.196,2.196c1.656,2.87,0.674,6.54-2.196,8.196l-32.5,18.763
			C334.555,257.004,333.523,257.264,332.506,257.264z M332.506,222.264c-2.074,0-4.091-1.076-5.202-3.001
			c-1.656-2.87-0.674-6.54,2.196-8.196l65-37.527c2.873-1.657,6.54-0.672,8.196,2.196c1.656,2.87,0.674,6.54-2.196,8.196l-65,37.527
			C334.555,222.005,333.523,222.264,332.506,222.264z M332.506,187.264c-2.074,0-4.091-1.076-5.202-3.001
			c-1.656-2.87-0.674-6.54,2.196-8.196l65-37.527c2.873-1.656,6.54-0.672,8.196,2.196c1.656,2.87,0.674,6.54-2.196,8.196l-65,37.527
			C334.555,187.005,333.523,187.264,332.506,187.264z"/>
	</g>
</g>
</svg>
