<?xml version="1.0" encoding="utf-8"?>
<!-- Generator: Adobe Illustrator 27.5.0, SVG Export Plug-In . SVG Version: 6.00 Build 0)  -->
<svg version="1.1" id="Layer_1" xmlns="http://www.w3.org/2000/svg" xmlns:xlink="http://www.w3.org/1999/xlink" x="0px" y="0px"
	 viewBox="0 0 500 500" style="enable-background:new 0 0 500 500;" xml:space="preserve">
<style type="text/css">
	.st0{fill:#FFFFFF;}
</style>
<g>
	<g>
		<path class="st0" d="M224,305.4h-47.3c-3.3,0-6-2.7-6-6s2.7-6,6-6H224c3.3,0,6,2.7,6,6S227.3,305.4,224,305.4z M138.2,283.3
			c-2.1,0-4.1-1.1-5.2-3l-23.8-41.1c-1.7-2.9-0.7-6.5,2.2-8.2c2.9-1.7,6.5-0.7,8.2,2.2l23.8,41.1c1.7,2.9,0.7,6.5-2.2,8.2
			C140.3,283,139.2,283.3,138.2,283.3z M262.3,283.2c-1,0-2-0.3-3-0.8c-2.9-1.7-3.9-5.3-2.2-8.2l23.7-41.1c1.7-2.9,5.3-3.9,8.2-2.2
			c2.9,1.7,3.9,5.3,2.2,8.2l-23.7,41.1C266.4,282.1,264.4,283.2,262.3,283.2z M372.7,220h-48.4c-3.3,0-6-2.7-6-6s2.7-6,6-6h48.4
			c3.3,0,6,2.7,6,6S376,220,372.7,220z M286,197.9c-2.1,0-4.1-1.1-5.2-3L257.3,154c-1.7-2.9-0.7-6.5,2.2-8.2
			c2.9-1.7,6.5-0.7,8.2,2.2l23.5,40.9c1.7,2.9,0.7,6.5-2.2,8.2C288,197.6,287,197.9,286,197.9z M114.5,197.9c-1,0-2.1-0.3-3-0.8
			c-2.9-1.7-3.9-5.3-2.2-8.2l23.7-41c1.7-2.9,5.3-3.8,8.2-2.2s3.9,5.3,2.2,8.2l-23.7,41C118.6,196.8,116.6,197.9,114.5,197.9z
			 M224.3,134.6h-47.6c-3.3,0-6-2.7-6-6s2.7-6,6-6h47.6c3.3,0,6,2.7,6,6S227.6,134.6,224.3,134.6z"/>
	</g>
	<g>
		<path class="st0" d="M298.8,416.3c-17.4,0-31.6-14.2-31.6-31.6c0-9.5,4.2-18,10.9-23.8l-18.3-31.7c-3.2,1.1-6.7,1.7-10.3,1.7
			c-17.4,0-31.5-14.2-31.5-31.6s14.2-31.6,31.6-31.6s31.5,14.2,31.5,31.6c0,9.5-4.2,18.1-10.9,23.9l18.3,31.7
			c3.2-1.1,6.7-1.7,10.3-1.7c17.4,0,31.6,14.2,31.6,31.6C330.4,402.1,316.2,416.3,298.8,416.3z M288.4,368.1
			c-5.5,3.5-9.2,9.6-9.2,16.6c0,10.8,8.8,19.6,19.6,19.6s19.6-8.8,19.6-19.6s-8.8-19.6-19.6-19.6c-3.3,0-6.4,0.8-9.2,2.3
			c-0.2,0.1-0.4,0.3-0.6,0.4C288.8,367.9,288.6,368,288.4,368.1z M249.6,279.7c-10.8,0-19.6,8.8-19.6,19.6c0,11,8.6,19.6,19.5,19.6
			c10.8,0,19.6-8.8,19.6-19.6S260.4,279.7,249.6,279.7z M151.1,330.9c-17.4,0-31.6-14.2-31.6-31.6s14.2-31.6,31.6-31.6
			s31.6,14.2,31.6,31.6C182.7,316.7,168.5,330.9,151.1,330.9z M151.1,279.7c-10.8,0-19.6,8.8-19.6,19.6s8.8,19.6,19.6,19.6
			s19.6-8.8,19.6-19.6S161.9,279.7,151.1,279.7z M398.3,245.6c-17.4,0-31.6-14.2-31.6-31.6s14.2-31.6,31.6-31.6s31.6,14.2,31.6,31.6
			S415.7,245.6,398.3,245.6z M398.3,194.4c-10.8,0-19.6,8.8-19.6,19.6s8.8,19.6,19.6,19.6s19.6-8.8,19.6-19.6
			S409.1,194.4,398.3,194.4z M298.8,245.6c-17.4,0-31.6-14.2-31.6-31.6s14.2-31.6,31.6-31.6s31.6,14.2,31.6,31.6
			S316.2,245.6,298.8,245.6z M298.8,194.4c-10.8,0-19.6,8.8-19.6,19.6s8.8,19.6,19.6,19.6s19.6-8.8,19.6-19.6
			S309.6,194.4,298.8,194.4z M101.7,245.6c-17.4,0-31.6-14.2-31.6-31.6s14.2-31.6,31.6-31.6s31.6,14.2,31.6,31.6
			S119.1,245.6,101.7,245.6z M101.7,194.4c-10.8,0-19.6,8.8-19.6,19.6s8.8,19.6,19.6,19.6s19.6-8.8,19.6-19.6
			S112.5,194.4,101.7,194.4z M249.8,160.4c-17.4,0-31.6-14.2-31.6-31.6s14.2-31.6,31.6-31.6c17.4,0.1,31.6,14.3,31.6,31.6
			C281.4,146.2,267.2,160.4,249.8,160.4z M249.8,109.2c-10.8,0-19.6,8.8-19.6,19.6s8.8,19.6,19.6,19.6s19.6-8.8,19.6-19.6
			C269.4,118.1,260.6,109.3,249.8,109.2z M151.1,160.4c-17.4,0-31.6-14.2-31.6-31.6s14.2-31.6,31.6-31.6s31.6,14.2,31.6,31.6
			S168.5,160.4,151.1,160.4z M151.1,109.2c-10.8,0-19.6,8.8-19.6,19.6s8.8,19.6,19.6,19.6s19.6-8.8,19.6-19.6
			C170.7,118,161.9,109.2,151.1,109.2z"/>
	</g>
</g>
</svg>
