<?xml version="1.0" encoding="utf-8"?>
<!-- Generator: Adobe Illustrator 27.5.0, SVG Export Plug-In . SVG Version: 6.00 Build 0)  -->
<svg version="1.1" id="Layer_1" xmlns="http://www.w3.org/2000/svg" xmlns:xlink="http://www.w3.org/1999/xlink" x="0px" y="0px"
	 viewBox="0 0 500 500" style="enable-background:new 0 0 500 500;" xml:space="preserve">
<style type="text/css">
	.st0{fill:#FFFFFF;}
	.st1{fill:none;stroke:#FFFFFF;stroke-width:12;stroke-linecap:round;stroke-linejoin:round;}
</style>
<g>
	<g>
		<g>
			<path class="st0" d="M376.2,333.8c-1.5,0-3.1-0.6-4.3-1.8L264.4,223.9l-45.1,44.4c-2.3,2.3-6.1,2.3-8.5,0l-92.1-92.1
				c-2.3-2.3-2.3-6.1,0-8.5c2.3-2.3,6.1-2.3,8.5,0l87.9,87.9l45.2-44.4c2.4-2.3,6.1-2.3,8.5,0l111.8,112.4c2.3,2.3,2.3,6.1,0,8.5
				C379.3,333.2,377.7,333.8,376.2,333.8z"/>
		</g>
		<g>
			<path class="st0" d="M381.4,338.3h-35c-3.3,0-6-2.7-6-6s2.7-6,6-6h29v-28.9c0-3.3,2.7-6,6-6s6,2.7,6,6v34.9
				C387.4,335.6,384.7,338.3,381.4,338.3z"/>
		</g>
		<g>
			<path class="st0" d="M433.8,390.8L433.8,390.8l-367.6-0.1c-3.3,0-6-2.7-6-6V115.2c0-3.3,2.7-6,6-6h367.6c3.3,0,6,2.7,6,6v269.6
				c0,1.6-0.6,3.1-1.8,4.2S435.4,390.8,433.8,390.8z M72.2,378.7l355.6,0.1V121.2H72.2V378.7z"/>
		</g>
	</g>
	<path class="st1" d="M0,500"/>
</g>
</svg>
