<?xml version="1.0" encoding="iso-8859-1"?>
<!-- Generator: Adobe Illustrator 29.6.1, SVG Export Plug-In . SVG Version: 9.03 Build 0)  -->
<svg version="1.1" id="Layer_1" xmlns="http://www.w3.org/2000/svg" xmlns:xlink="http://www.w3.org/1999/xlink" x="0px" y="0px"
	 viewBox="0 0 500 500" style="enable-background:new 0 0 500 500;" xml:space="preserve">
<defs>
	<filter id="Adobe_OpacityMaskFilter" filterUnits="userSpaceOnUse" x="64" y="151.5" width="372" height="272">
		<feColorMatrix  type="matrix" values="1 0 0 0 0  0 1 0 0 0  0 0 1 0 0  0 0 0 1 0"/>
	</filter>
</defs>
<mask maskUnits="userSpaceOnUse" x="64" y="151.5" width="372" height="272" id="jnmYH3mkMTa_00000058589340913322282920000012866267144764061091_">
	<path style="fill:#FFFFFF;filter:url(#Adobe_OpacityMaskFilter);" d="M330,172.5c0,44.183-35.817,80-80,80s-80-35.817-80-80
		c0-16.686,5.108-32.179,13.847-45H64v300h380v-300H316.153C324.892,140.321,330,155.814,330,172.5"/>
</mask>
<g style="mask:url(#jnmYH3mkMTa_00000058589340913322282920000012866267144764061091_);">
	<g>
		<path style="fill:#FFFFFF;" d="M400,423.5H100c-19.851,0-36-16.149-36-36v-25c0-3.313,2.687-6,6-6h19v-179
			c0-14.336,11.664-26,26-26h270c14.337,0,26,11.664,26,26v179h19c3.313,0,6,2.687,6,6v25C436,407.35,419.851,423.5,400,423.5z
			 M76,368.5v19c0,13.233,10.766,24,24,24h300c13.233,0,24-10.767,24-24v-19H311v4c0,8.822-7.178,16-16,16h-90
			c-8.822,0-16-7.178-16-16v-4H76z M101,356.5h94c3.313,0,6,2.687,6,6v10c0,2.206,1.794,4,4,4h90c2.206,0,4-1.794,4-4v-10
			c0-3.313,2.687-6,6-6h94v-179c0-7.72-6.28-14-14-14H115c-7.72,0-14,6.28-14,14V356.5z"/>
	</g>
</g>
<g>
	<path style="fill:#FFFFFF;" d="M250,353.5c-3.313,0-6-2.687-6-6v-48.799l-18.042,18.041c-2.343,2.344-6.143,2.344-8.485,0
		c-2.343-2.343-2.343-6.142,0-8.484l28.284-28.284c0.002-0.003,0.004-0.005,0.007-0.007c0-0.001,0-0.001,0-0.001
		c0.002-0.002,0.004-0.004,0.006-0.006c0.001,0,0.004-0.005,0.006-0.006c0.002-0.002,0.003-0.004,0.005-0.006
		c0.569-0.562,1.223-0.988,1.919-1.276c0.706-0.293,1.479-0.455,2.289-0.456l0,0c0.006,0,0.012,0,0.018,0l0,0
		c0.811,0.001,1.583,0.163,2.289,0.456c0.697,0.288,1.351,0.714,1.92,1.276c0.002,0.002,0.004,0.004,0.006,0.006
		s0.006,0.006,0.006,0.006c0.002,0.002,0.004,0.004,0.006,0.006c0,0,0,0,0.001,0.001c0.002,0.002,0.004,0.004,0.006,0.007
		l28.284,28.284c2.344,2.343,2.344,6.142,0,8.484c-2.342,2.344-6.143,2.344-8.484,0L256,298.701V347.5
		C256,350.813,253.313,353.5,250,353.5z"/>
</g>
<g>
	<path style="fill:#FFFFFF;" d="M250,258.5c-47.42,0-86-38.58-86-86s38.58-86,86-86c47.421,0,86,38.58,86,86
		S297.421,258.5,250,258.5z M250,98.5c-40.804,0-74,33.196-74,74s33.196,74,74,74s74-33.196,74-74S290.804,98.5,250,98.5z"/>
</g>
<defs>
	
		<filter id="Adobe_OpacityMaskFilter_00000046322836447293054220000008190544406141656205_" filterUnits="userSpaceOnUse" x="198.5" y="76.5" width="118.001" height="202.501">
		<feColorMatrix  type="matrix" values="1 0 0 0 0  0 1 0 0 0  0 0 1 0 0  0 0 0 1 0"/>
	</filter>
</defs>
<mask maskUnits="userSpaceOnUse" x="198.5" y="76.5" width="118.001" height="202.501" id="lKBcicIQNTb_00000095302742506719357270000009508975881725236609_">
	<path style="fill:#FFFFFF;filter:url(#Adobe_OpacityMaskFilter_00000046322836447293054220000008190544406141656205_);" d="
		M250,252.5c44.183,0,80-35.817,80-80s-35.817-80-80-80s-80,35.817-80,80S205.817,252.5,250,252.5"/>
</mask>
<g style="mask:url(#lKBcicIQNTb_00000095302742506719357270000009508975881725236609_);">
	<g>
		<path style="fill:#FFFFFF;" d="M283.505,279.001c-1.896,0-3.76-0.896-4.927-2.569l-38-54.5c-1.856-2.662-1.259-6.317,1.347-8.25
			l31-23c2.046-1.52,4.827-1.578,6.938-0.151l34,23c2.077,1.406,3.062,3.956,2.467,6.393l-10.5,43
			c-0.347,1.419-1.199,2.664-2.398,3.499l-16.5,11.5C285.886,278.65,284.689,279.001,283.505,279.001z M253.754,219.847l31.236,44.8
			l9.719-6.773l8.973-36.743l-27.021-18.279L253.754,219.847z M238,192c-0.833,0-1.668-0.173-2.452-0.524l-33.5-15
			c-2.158-0.966-3.548-3.111-3.548-5.476v-28.5c0-0.56,0.078-1.117,0.233-1.655l16.5-57.5c0.693-2.417,2.82-4.145,5.327-4.329
			l34-2.5c1.669-0.121,3.304,0.453,4.524,1.588C260.306,79.24,261,80.832,261,82.5v31.526l23.987,13.771
			c1.863,1.07,3.013,3.055,3.013,5.204v26.5c0,1.709-0.729,3.337-2.004,4.476c-1.275,1.138-2.971,1.682-4.674,1.486L244,161.22V186
			c0,2.034-1.03,3.93-2.737,5.036C240.276,191.675,239.141,192,238,192z M210.5,167.112l21.5,9.627V154.5
			c0-1.709,0.729-3.337,2.004-4.476c1.275-1.139,2.978-1.681,4.673-1.486L276,152.78v-16.306l-23.987-13.771
			c-1.863-1.07-3.013-3.055-3.013-5.204V88.957l-23.387,1.72L210.5,143.344V167.112z"/>
	</g>
</g>
</svg>
