<?xml version="1.0" encoding="iso-8859-1"?>
<!-- Generator: Adobe Illustrator 29.6.1, SVG Export Plug-In . SVG Version: 9.03 Build 0)  -->
<svg version="1.1" id="Layer_1" xmlns="http://www.w3.org/2000/svg" xmlns:xlink="http://www.w3.org/1999/xlink" x="0px" y="0px"
	 viewBox="0 0 500 500" style="enable-background:new 0 0 500 500;" xml:space="preserve">
<g>
	<g>
		<path style="fill:#FFFFFF;" d="M180.147,276c-14.336,0-26-11.663-26-26c0-14.336,11.664-26,26-26s26,11.664,26,26
			C206.147,264.338,194.483,276,180.147,276z M180.147,236.001c-7.72,0-14,6.28-14,14c0,7.72,6.28,14,14,14s14-6.28,14-14
			C194.147,242.281,187.867,236.001,180.147,236.001z"/>
	</g>
	<g>
		<path style="fill:#FFFFFF;" d="M250.147,276c-14.336,0-26-11.663-26-26c0-14.336,11.664-26,26-26c14.337,0,26,11.664,26,26
			C276.147,264.338,264.484,276,250.147,276z M250.147,236.001c-7.72,0-14,6.28-14,14c0,7.72,6.28,14,14,14s14-6.28,14-14
			C264.147,242.281,257.867,236.001,250.147,236.001z"/>
	</g>
	<g>
		<path style="fill:#FFFFFF;" d="M320.147,276c-14.337,0-26-11.663-26-26c0-14.336,11.663-26,26-26s26,11.664,26,26
			C346.147,264.338,334.484,276,320.147,276z M320.147,236.001c-7.72,0-14,6.28-14,14c0,7.72,6.28,14,14,14s14-6.28,14-14
			C334.147,242.281,327.867,236.001,320.147,236.001z"/>
	</g>
	<g>
		<path style="fill:#FFFFFF;" d="M317.631,441c-3.313,0-6-2.687-6-6s2.687-6,6-6c30.705,0,55.686-24.98,55.686-55.686v-80.746
			c0-11.328,4.877-22.071,13.38-29.477l15.023-13.048L386.688,236.9c-8.494-7.398-13.371-18.142-13.371-29.469v-80.746
			c0-30.706-24.98-55.686-55.686-55.686c-3.313,0-6-2.687-6-6s2.687-6,6-6c37.322,0,67.686,30.364,67.686,67.686v80.746
			c0,7.856,3.375,15.301,9.261,20.427l20.225,17.682c1.306,1.142,2.054,2.792,2.051,4.527c-0.003,1.735-0.756,3.383-2.065,4.52
			l-20.216,17.559c-5.88,5.12-9.255,12.565-9.255,20.422v80.746C385.316,410.638,354.954,441,317.631,441z M182.368,441
			c-37.322,0-67.686-30.363-67.686-67.686v-80.746c0-7.856-3.375-15.302-9.261-20.428l-20.209-17.553
			c-1.31-1.138-2.062-2.785-2.065-4.52c-0.003-1.734,0.745-3.385,2.051-4.527l20.216-17.674c5.894-5.134,9.27-12.58,9.27-20.435
			v-80.746c0-37.322,30.363-67.686,67.685-67.686c3.313,0,6,2.687,6,6c0,3.313-2.687,6-6,6c-30.705,0-55.685,24.98-55.685,55.686
			v80.746c0,11.326-4.876,22.069-13.379,29.476L98.28,250.044l15.017,13.042c8.509,7.411,13.386,18.154,13.386,29.482v80.746
			c0,30.705,24.98,55.686,55.686,55.686c3.313,0,6,2.687,6,6S185.682,441,182.368,441z"/>
	</g>
</g>
</svg>
