<?xml version="1.0" encoding="iso-8859-1"?>
<!-- Generator: Adobe Illustrator 29.6.1, SVG Export Plug-In . SVG Version: 9.03 Build 0)  -->
<svg version="1.1" id="Layer_1" xmlns="http://www.w3.org/2000/svg" xmlns:xlink="http://www.w3.org/1999/xlink" x="0px" y="0px"
	 viewBox="0 0 500 500" style="enable-background:new 0 0 500 500;" xml:space="preserve">
<g>
	<path style="fill:#FFFFFF;" d="M181.9,235.95c-2.301,0-4.496-1.331-5.488-3.569c-6.533-14.734-8.493-30.942-5.668-46.872
		c2.892-16.305,10.631-31.134,22.38-42.884c31.449-31.448,82.621-31.45,114.071,0c11.75,11.75,19.489,26.579,22.381,42.884
		c2.825,15.93,0.865,32.138-5.668,46.872c-1.345,3.03-4.892,4.394-7.918,3.053c-3.028-1.343-4.396-4.888-3.053-7.917
		c11.426-25.766,5.708-56.471-14.227-76.406c-26.772-26.771-70.331-26.77-97.101,0c-19.935,19.935-25.652,50.641-14.228,76.406
		c1.343,3.029-0.023,6.574-3.053,7.917C183.539,235.784,182.712,235.95,181.9,235.95z"/>
</g>
<g>
	<path style="fill:#FFFFFF;" d="M209.677,210.148c-3.02,0-5.618-2.272-5.957-5.343c-1.563-14.186,3.322-28.103,13.402-38.183
		c18.218-18.217,47.861-18.217,66.077,0c10.082,10.082,14.967,23.999,13.403,38.183c-0.363,3.294-3.323,5.667-6.621,5.307
		c-3.294-0.363-5.67-3.328-5.307-6.621c1.162-10.545-2.468-20.891-9.96-28.383c-13.539-13.54-35.569-13.539-49.107,0
		c-7.492,7.491-11.122,17.836-9.96,28.383c0.363,3.294-2.013,6.258-5.307,6.621C210.118,210.136,209.896,210.148,209.677,210.148z"
		/>
</g>
<g>
	<path style="fill:#FFFFFF;" d="M344.987,416.24c-3.313,0-6-2.687-6-6v-17.11c0-0.764,0.146-1.52,0.429-2.229l4.13-10.325
		c7.344-18.356,11.066-37.688,11.066-57.459v-31.55c0-3.313,2.687-6,6-6s6,2.687,6,6v31.55c0,21.305-4.012,42.136-11.924,61.916
		l-3.701,9.252v15.955C350.987,413.554,348.301,416.24,344.987,416.24z M247.33,416.24c-3.313,0-6-2.687-6-6v-14.312l-5.503-4.614
		c-19.776-16.583-33.759-38.524-40.438-63.453l-9.921-37.026c-1.09-4.067-0.531-8.315,1.575-11.963s5.505-6.256,9.573-7.346
		c9.107-2.438,18.619-1.188,26.784,3.526c4.631,2.674,8.515,6.28,11.455,10.562c0.248-0.031,0.5-0.047,0.757-0.047
		c3.313,0,6,2.687,6,6v12.296c0,3.011-2.231,5.556-5.217,5.948c-2.989,0.398-5.799-1.486-6.579-4.396l-1.561-5.826
		c-1.611-6.011-5.466-11.034-10.855-14.146c-5.389-3.113-11.668-3.939-17.678-2.327c-0.972,0.26-1.783,0.883-2.286,1.754
		s-0.637,1.886-0.376,2.857l9.921,37.026c6.039,22.536,18.68,42.372,36.558,57.363l7.648,6.413c1.359,1.14,2.145,2.823,2.145,4.598
		v17.111C253.33,413.554,250.644,416.24,247.33,416.24z"/>
</g>
<g>
	<path style="fill:#FFFFFF;" d="M243.097,337.788c-2.649,0-5.073-1.769-5.792-4.449l-8.314-31.026
		c-0.675-2.52,0.358-5.095,2.39-6.495c-1.093-1.086-1.769-2.591-1.769-4.254v-85.938c0-11.924,9.701-21.625,21.625-21.625
		c11.925,0,21.626,9.701,21.626,21.625v39.231c2.9-1.447,6.17-2.262,9.625-2.262c8.283,0,15.495,4.683,19.126,11.539
		c3.46-2.351,7.635-3.727,12.124-3.727c9.47,0,17.537,6.118,20.457,14.609c3.179-1.838,6.865-2.891,10.793-2.891
		c11.924,0,21.625,9.701,21.625,21.625v7.813c0,3.313-2.687,6-6,6s-6-2.687-6-6v-7.813c0-5.308-4.317-9.625-9.625-9.625
		s-9.625,4.317-9.625,9.625v7.813c0,3.313-2.687,6-6,6s-6-2.687-6-6v-19.532c0-5.308-4.317-9.625-9.625-9.625
		s-9.625,4.317-9.625,9.625v19.532c0,3.313-2.687,6-6,6s-6-2.687-6-6v-27.345c0-5.307-4.317-9.625-9.625-9.625
		s-9.625,4.318-9.625,9.625v27.345c0,3.313-2.687,6-6,6s-6-2.687-6-6v-85.938c0-5.307-4.318-9.625-9.626-9.625
		s-9.625,4.318-9.625,9.625v85.938c0,2.049-1.027,3.858-2.595,4.94c0.728,0.723,1.28,1.642,1.564,2.703l8.314,31.026
		c0.858,3.2-1.042,6.49-4.242,7.349C244.134,337.721,243.611,337.788,243.097,337.788z"/>
</g>
<g>
	<path style="fill:#FFFFFF;" d="M349.581,446H242.438c-3.313,0-6-2.687-6-6v-29.762c0-3.313,2.687-6,6-6h107.143
		c3.313,0,6,2.687,6,6V440C355.581,443.313,352.895,446,349.581,446z M248.438,434h95.143v-17.762h-95.143L248.438,434L248.438,434z
		"/>
</g>
<g>
	<path style="fill:#FFFFFF;" d="M411,200c0-11.598-9.402-21-21-21v12c4.971,0,9,4.029,9,9H411z M390,179c-11.598,0-21,9.402-21,21
		h12c0-4.971,4.029-9,9-9V179z M369,200c0,11.598,9.402,21,21,21v-12c-4.971,0-9-4.029-9-9H369z M390,221c11.598,0,21-9.402,21-21
		h-12c0,4.971-4.029,9-9,9V221z M324.82,206H375v-12h-50.18V206z M175.5,206c3.314,0,6-2.686,6-6s-2.686-6-6-6V206z M175.5,194H125
		v12h50.5V194z M131,200c0-11.598-9.402-21-21-21v12c4.971,0,9,4.029,9,9H131z M110,179c-11.598,0-21,9.402-21,21h12
		c0-4.971,4.029-9,9-9V179z M89,200c0,11.598,9.402,21,21,21v-12c-4.971,0-9-4.029-9-9H89z M110,221c11.598,0,21-9.402,21-21h-12
		c0,4.971-4.029,9-9,9V221z M244,125c0,3.314,2.686,6,6,6s6-2.686,6-6H244z M256,125V90h-12v35H256z M271,75
		c0-11.598-9.402-21-21-21v12c4.971,0,9,4.029,9,9H271z M250,54c-11.598,0-21,9.402-21,21h12c0-4.971,4.029-9,9-9V54z M229,75
		c0,11.598,9.402,21,21,21V84c-4.971,0-9-4.029-9-9H229z M250,96c11.598,0,21-9.402,21-21h-12c0,4.971-4.029,9-9,9V96z
		 M305.118,151.513c-1.925,2.696-1.301,6.443,1.395,8.369c2.696,1.925,6.443,1.301,8.369-1.395L305.118,151.513z M335,120v-6
		c-1.938,0-3.756,0.936-4.882,2.513L335,120z M314.882,158.487l25-35l-9.764-6.974l-25,35L314.882,158.487z M335,126h40v-12h-40V126
		z M411,120c0-11.598-9.402-21-21-21v12c4.971,0,9,4.029,9,9H411z M390,99c-11.598,0-21,9.402-21,21h12c0-4.971,4.029-9,9-9V99z
		 M369,120c0,11.598,9.402,21,21,21v-12c-4.971,0-9-4.029-9-9H369z M390,141c11.598,0,21-9.402,21-21h-12c0,4.971-4.029,9-9,9V141z
		 M185.118,158.487c1.926,2.696,5.673,3.32,8.369,1.395c2.696-1.926,3.32-5.673,1.395-8.369L185.118,158.487z M165,120l4.882-3.487
		C168.756,114.936,166.938,114,165,114V120z M194.882,151.513l-25-35l-9.764,6.974l25,35L194.882,151.513z M165,114h-40v12h40V114z
		 M101,120c0-4.971,4.029-9,9-9V99c-11.598,0-21,9.402-21,21H101z M110,111c4.971,0,9,4.029,9,9h12c0-11.598-9.402-21-21-21V111z
		 M119,120c0,4.971-4.029,9-9,9v12c11.598,0,21-9.402,21-21H119z M110,129c-4.971,0-9-4.029-9-9H89c0,11.598,9.402,21,21,21V129z"/>
</g>
</svg>
