<?xml version="1.0" encoding="iso-8859-1"?>
<!-- Generator: Adobe Illustrator 29.6.1, SVG Export Plug-In . SVG Version: 9.03 Build 0)  -->
<svg version="1.1" id="Layer_1" xmlns="http://www.w3.org/2000/svg" xmlns:xlink="http://www.w3.org/1999/xlink" x="0px" y="0px"
	 viewBox="0 0 500 500" style="enable-background:new 0 0 500 500;" xml:space="preserve">
<g>
	<g>
		<path style="fill:#FFFFFF;" d="M383.43,442.57H116.57c-3.313,0-6-2.687-6-6V63.43c0-3.313,2.687-6,6-6h160.121
			c1.592,0,3.117,0.632,4.243,1.757l106.739,106.75c1.125,1.125,1.757,2.651,1.757,4.243v266.39
			C389.43,439.884,386.743,442.57,383.43,442.57z M122.57,430.57h254.86V172.665L274.205,69.43H122.57V430.57z"/>
	</g>
	<g>
		<path style="fill:#FFFFFF;" d="M330,389.67H170c-3.313,0-6-2.687-6-6v-11.71c0.001-33.634,27.366-60.998,61-61h50
			c33.634,0.002,60.998,27.366,61,61v11.71C336,386.983,333.314,389.67,330,389.67z M176,377.67h148v-5.71
			c-0.002-27.017-21.983-48.998-49-49h-50c-27.017,0.002-48.999,21.983-49,49V377.67z M250.001,296.14
			c-3.007,0-6.027-0.298-8.976-0.885c-12.05-2.396-22.446-9.344-29.272-19.56c-6.826-10.217-9.265-22.479-6.868-34.53
			c0.586-2.951,1.468-5.857,2.62-8.638c9.708-23.43,36.667-34.596,60.099-24.886C284.854,214.787,296,231.469,296,250.14
			c0,12.287-4.785,23.838-13.474,32.526C273.839,291.354,262.288,296.139,250.001,296.14z M250.042,216.138
			c-13.347,0-26.033,7.906-31.451,20.983c-0.851,2.055-1.503,4.203-1.937,6.384c-1.772,8.908,0.031,17.973,5.076,25.523
			s12.729,12.686,21.637,14.457c2.181,0.435,4.412,0.654,6.633,0.654c9.082-0.001,17.62-3.538,24.042-9.959
			c6.421-6.422,9.958-14.96,9.958-24.042c0-13.8-8.239-26.13-20.989-31.412C258.77,216.971,254.369,216.138,250.042,216.138z
			 M383.43,176.18H276.691c-3.313,0-6-2.687-6-6V63.43c0-3.313,2.687-6,6-6s6,2.687,6,6v100.75H383.43c3.313,0,6,2.687,6,6
			S386.743,176.18,383.43,176.18z"/>
	</g>
</g>
</svg>
