<?xml version="1.0" encoding="utf-8"?>
<!-- Generator: Adobe Illustrator 27.5.0, SVG Export Plug-In . SVG Version: 6.00 Build 0)  -->
<svg version="1.1" id="Layer_1" xmlns="http://www.w3.org/2000/svg" xmlns:xlink="http://www.w3.org/1999/xlink" x="0px" y="0px"
	 viewBox="0 0 500 500" style="enable-background:new 0 0 500 500;" xml:space="preserve">
<style type="text/css">
	.st0{fill:none;stroke:#FFFFFF;stroke-width:12;stroke-linecap:round;stroke-linejoin:round;stroke-opacity:0;}
	.st1{fill:#FFFFFF;}
	.st2{opacity:0;}
</style>
<g>
	<path class="st0" d="M0,500"/>
	<g>
		<g>
			<path class="st1" d="M156,402.8h-39.4c-3.3,0-6-2.7-6-6V63.2c0-3.3,2.7-6,6-6h240.2c3.3,0,6,2.7,6,6v105.9c0,3.3-2.7,6-6,6
				s-6-2.7-6-6V69.2H122.6v321.6H156c3.3,0,6,2.7,6,6S159.3,402.8,156,402.8z"/>
		</g>
		<g>
			<g>
				<path class="st1" d="M343.4,389.4H196.6c-3.3,0-6-2.7-6-6s2.7-6,6-6h146.8c3.3,0,6,2.7,6,6S346.7,389.4,343.4,389.4z
					 M343.4,349.4H196.6c-3.3,0-6-2.7-6-6s2.7-6,6-6h146.8c3.3,0,6,2.7,6,6S346.7,349.4,343.4,349.4z M343.4,309.4H196.6
					c-3.3,0-6-2.7-6-6s2.7-6,6-6h146.8c3.3,0,6,2.7,6,6S346.7,309.4,343.4,309.4z"/>
			</g>
		</g>
		<g>
			<g>
				<g>
					<path class="st1" d="M383.4,442.8H156.6c-3.3,0-6-2.7-6-6V103.2c0-3.3,2.7-6,6-6H290c1.6,0,3.1,0.6,4.2,1.8l93.4,93.4
						c1.1,1.1,1.8,2.7,1.8,4.2v240.2C389.4,440.1,386.7,442.8,383.4,442.8z M162.6,430.8h214.8V199.1l-89.9-89.9H162.6V430.8z"/>
				</g>
			</g>
			<g>
				<g>
					<path class="st1" d="M383.4,202.6H290c-3.3,0-6-2.7-6-6v-93.4c0-3.3,2.7-6,6-6s6,2.7,6,6v87.4h87.4c3.3,0,6,2.7,6,6
						S386.7,202.6,383.4,202.6z"/>
				</g>
			</g>
			<g>
				<g class="st2">
					<path class="st1" d="M383.1,202.6c-2.5,0-4.2-1.6-10.2-7.3c-8.1-7.6-21.8-21.2-40.9-40.4c-20.7-20.8-45.6-46.1-47.1-48.5
						l10.2-6.4c0,0,0-0.1-0.3-0.5c0.4,0.5,4.9,5.8,45.8,46.9c37.9,38.1,44.9,44.2,46,45c1.4,0.9,2.5,2.4,2.8,4.2
						c0.5,3.3-1.7,6.3-5,6.8C383.9,202.6,383.5,202.6,383.1,202.6z M382.5,190.7L382.5,190.7L382.5,190.7z M382.5,190.7L382.5,190.7
						L382.5,190.7z M383.4,190.6c-0.3,0-0.6,0-0.9,0.1c0.4-0.1,0.7-0.1,1.1-0.1C383.5,190.6,383.5,190.6,383.4,190.6z"/>
				</g>
			</g>
		</g>
	</g>
	<g>
		<path class="st0" d="M0,500"/>
	</g>
</g>
</svg>
