<?xml version="1.0" encoding="utf-8"?>
<!-- Generator: Adobe Illustrator 27.5.0, SVG Export Plug-In . SVG Version: 6.00 Build 0)  -->
<svg version="1.1" id="Layer_1" xmlns="http://www.w3.org/2000/svg" xmlns:xlink="http://www.w3.org/1999/xlink" x="0px" y="0px"
	 viewBox="0 0 500 500" style="enable-background:new 0 0 500 500;" xml:space="preserve">
<style type="text/css">
	.st0{clip-path:url(#SVGID_00000022546453934417874780000007501935664256937383_);}
	.st1{fill:#FFFFFF;}
	.st2{display:none;fill:none;stroke:#FFFFFF;stroke-width:12;stroke-linecap:round;stroke-linejoin:round;}
	.st3{fill:none;stroke:#FFFFFF;stroke-width:12;stroke-linecap:round;stroke-linejoin:round;}
</style>
<g>
	<g>
		<g>
			<g>
				<defs>
					<rect id="SVGID_1_" width="500" height="500"/>
				</defs>
				<clipPath id="SVGID_00000060747292020381737040000007270518932921581697_">
					<use xlink:href="#SVGID_1_"  style="overflow:visible;"/>
				</clipPath>
				<g style="clip-path:url(#SVGID_00000060747292020381737040000007270518932921581697_);">
					<g>
						<path class="st1" d="M242.3,383.6c-0.6,0-1.1-0.1-1.7-0.2c-2.6-0.7-4.3-3.1-4.3-5.8v-60.3h-40c-2.2,0-4.2-1.2-5.2-3
							c-1.1-1.9-1-4.2,0.1-6L252.5,206c1.4-2.3,4.1-3.4,6.7-2.7s4.4,3.1,4.4,5.8v65.6c16.6,0,37.4,0,39.7-0.1c0.7,0,1.4,0,2.1,0.2
							c2.6,0.7,4.3,3.1,4.3,5.8c0,0.9-0.2,2.1-0.9,3.2l0,0l-61.4,97C246.2,382.6,244.3,383.6,242.3,383.6z M206.9,305.3h35.4
							c3.3,0,6,2.7,6,6v45.6l44.5-70.2c-3.7,0-7.9,0-12.1,0c-11.5,0-23.1,0-23.1,0c-3.3,0-6-2.7-6-6v-49.9L206.9,305.3z
							 M299.4,276.4c-0.4,0.4-0.7,0.8-0.9,1.2l0.2-0.3C298.9,277,299.1,276.7,299.4,276.4z M303.1,274.6c-0.6,0-1.1,0.2-1.7,0.4
							C302,274.8,302.6,274.7,303.1,274.6z"/>
					</g>
					<g>
						<path class="st1" d="M253,418.1c-36.1,0-69.2-13.8-93.1-38.7c-23.4-24.4-35.5-56.9-34-91.3c0.2-4.6,0.5-9.9,1.5-15.3
							c1.5-18.9,9.3-35.8,16.9-52.1c9.1-19.6,17.6-38.2,12.2-56.1c-0.7-2.4,0.1-5,2.1-6.5s4.7-1.6,6.8-0.3c0.2,0.1,14.3,9,35.5,24.1
							c23.9-32.8,40.7-59.3,43-91.9c0.2-2.4,1.7-4.4,3.9-5.2c2.2-0.8,4.7-0.3,6.4,1.4c0.3,0.3,30.2,30.6,59.6,70.8
							c40,54.6,60.2,100.7,60.2,137c0,34.3-13.2,66.1-37.2,89.5C314.2,405.5,283.7,418.1,253,418.1z M170.2,175.2
							c0.3,17.3-7.4,34.1-15,50.5c-7.1,15.5-14.5,31.4-15.8,48.4c0,0.2-0.1,0.5-0.1,0.7c-0.9,4.6-1.2,9.5-1.4,13.7
							c-1.3,31.2,9.6,60.5,30.7,82.5c21.6,22.6,51.6,35,84.4,35c52.5,0,109.1-42.9,109.1-112.2c0-67.8-80.8-161-107.7-190.2
							c-5.6,31.3-23.4,57.6-47.1,90c-1.9,2.6-5.7,3.2-8.3,1.3C187.1,186.6,177.2,179.8,170.2,175.2z"/>
					</g>
					<g>
						<g>
							<path class="st2" d="M0,500"/>
						</g>
						<g>
							<path class="st3" d="M0,500"/>
						</g>
						<g>
							<path class="st3" d="M0,500"/>
						</g>
						<g>
							<path class="st3" d="M0,500"/>
						</g>
						<g>
							<path class="st3" d="M0,500"/>
						</g>
						<g>
							<path class="st3" d="M0,500"/>
						</g>
						<g>
							<path class="st3" d="M0,500"/>
						</g>
						<g>
							<path class="st3" d="M0,500"/>
						</g>
						<g>
							<path class="st3" d="M0,500"/>
						</g>
						<g>
							<path class="st3" d="M0,500"/>
						</g>
						<g>
							<path class="st3" d="M0,500"/>
						</g>
						<g>
							<path class="st3" d="M0,500"/>
						</g>
					</g>
				</g>
			</g>
		</g>
	</g>
</g>
</svg>
