<?xml version="1.0" encoding="utf-8"?>
<!-- Generator: Adobe Illustrator 27.5.0, SVG Export Plug-In . SVG Version: 6.00 Build 0)  -->
<svg version="1.1" id="Layer_1" xmlns="http://www.w3.org/2000/svg" xmlns:xlink="http://www.w3.org/1999/xlink" x="0px" y="0px"
	 viewBox="0 0 500 500" style="enable-background:new 0 0 500 500;" xml:space="preserve">
<style type="text/css">
	.st0{display:none;fill:none;stroke:#F84239;stroke-width:12;stroke-linecap:round;stroke-linejoin:round;}
	.st1{fill:#FFFFFF;}
</style>
<g>
	<path class="st0" d="M0,500"/>
</g>
<g>
	<g>
		<g>
			<path class="st1" d="M343.4,416.1H116.6c-3.3,0-6-2.7-6-6V89.9c0-3.3,2.7-6,6-6H250c3.3,0,6,2.7,6,6s-2.7,6-6,6H122.6v308.2
				h214.8V264.6c0-3.3,2.7-6,6-6s6,2.7,6,6v145.5C349.4,413.4,346.7,416.1,343.4,416.1z"/>
		</g>
		<g>
			<path class="st1" d="M343.4,214c-3.3,0-6-2.7-6-6v-24.7c0-3.3,2.7-6,6-6s6,2.7,6,6V208C349.4,211.3,346.7,214,343.4,214z"/>
		</g>
		<g>
			<path class="st1" d="M343.4,189.3H250c-3.3,0-6-2.7-6-6V89.9c0-2.4,1.5-4.6,3.7-5.5s4.8-0.4,6.5,1.3l93.4,93.4
				c1.7,1.7,2.2,4.3,1.3,6.5C348,187.8,345.8,189.3,343.4,189.3z M256,177.3h72.9L256,104.4V177.3z"/>
		</g>
		<g>
			<g>
				<path class="st1" d="M223.3,362.4c-1.6,0-3.1-0.6-4.2-1.8c-1.3-1.3-2-3.2-1.7-5.1l4.7-33c0.2-1.3,0.8-2.5,1.7-3.4l141.5-141.5
					c2.3-2.3,6.1-2.3,8.4,0l4.8,4.7l23.6,23.7c2.3,2.3,2.3,6.1,0,8.5L260.5,355.9c-0.9,0.9-2.1,1.5-3.4,1.7l-33,4.7
					C223.9,362.4,223.6,362.4,223.3,362.4z M233.7,326.2l-3.3,23.1l23.1-3.3l135.9-135.9l-19.8-19.9L233.7,326.2z"/>
			</g>
			<g>
				<path class="st1" d="M393.1,205.5l-18.9-18.9l14.8-14.8c2.2-2.2,5.8-2.2,8,0l0,0l10.8,10.8c2.2,2.2,2.2,5.8,0,8l0,0L393.1,205.5
					z"/>
			</g>
		</g>
	</g>
	<g>
		<path class="st1" d="M0,500"/>
	</g>
</g>
</svg>
