<?xml version="1.0" encoding="utf-8"?>
<!-- Generator: Adobe Illustrator 27.5.0, SVG Export Plug-In . SVG Version: 6.00 Build 0)  -->
<svg version="1.1" id="Layer_1" xmlns="http://www.w3.org/2000/svg" xmlns:xlink="http://www.w3.org/1999/xlink" x="0px" y="0px"
	 viewBox="0 0 500 500" style="enable-background:new 0 0 500 500;" xml:space="preserve">
<style type="text/css">
	.st0{clip-path:url(#SVGID_00000069394854173686939620000007554536254209364897_);}
	.st1{fill:#FFFFFF;}
	.st2{opacity:0;}
</style>
<g>
	<g>
		<g>
			<g>
				<defs>
					<rect id="SVGID_1_" width="500" height="500"/>
				</defs>
				<clipPath id="SVGID_00000160186413245488187860000005614522930970825869_">
					<use xlink:href="#SVGID_1_"  style="overflow:visible;"/>
				</clipPath>
				<g style="clip-path:url(#SVGID_00000160186413245488187860000005614522930970825869_);">
					<g>
						<path class="st1" d="M371.9,214.3L371.9,214.3c-3.3,0-6-2.7-6-6l0.1-40.6c0-3.3,2.7-6,6-6l0,0c3.3,0,6,2.7,6,6l-0.1,40.6
							C377.9,211.6,375.2,214.3,371.9,214.3z"/>
					</g>
					<g>
						<path class="st1" d="M344.8,249.2H114.4c-1.9,0-3.7-0.9-4.8-2.4c-1.1-1.5-1.5-3.5-0.9-5.3l23.1-75.6
							c2.2-8.4,10.1-14.6,20.1-16.2c0.5-0.1,1-0.2,1.5-0.2c1.2-0.1,2.4-0.2,3.6-0.2h114.5c0.9,0,1.7,0,2.5,0.1c0.4,0,0.9,0,1.3,0.1
							c8,1,15,4.9,18.9,10.7l55.5,79.6c1.3,1.8,1.4,4.2,0.4,6.2C349.1,248,347,249.2,344.8,249.2z M280.1,237.2h53.2L284.4,167
							c0,0,0-0.1-0.1-0.1c-1-1.4-2.4-2.7-4.2-3.6L280.1,237.2L280.1,237.2z M159.4,237.2h108.7v-75.9H159.4V237.2z M122.5,237.2
							h24.9v-73.3c-2.1,1.3-3.6,3.1-4.1,5.1c0,0.1,0,0.2-0.1,0.3L122.5,237.2z"/>
					</g>
					<g class="st2">
						<g>
							<path class="st1" d="M344.8,249.2H114.4c-1.9,0-3.7-0.9-4.8-2.4c-1.1-1.5-1.5-3.5-0.9-5.3l23.1-75.6
								c2.2-8.4,10.1-14.6,20.1-16.2c0.5-0.1,1-0.2,1.5-0.2c1.2-0.1,2.4-0.2,3.6-0.2h114.5c0.9,0,1.7,0,2.5,0.1c0.4,0,0.9,0,1.3,0.1
								c8,1,15,4.9,18.9,10.7l55.5,79.6c1.3,1.8,1.4,4.2,0.4,6.2C349.1,248,347,249.2,344.8,249.2z M280.1,237.2h53.2L284.4,167
								c0,0,0-0.1-0.1-0.1c-1-1.4-2.4-2.7-4.2-3.6L280.1,237.2L280.1,237.2z M159.4,237.2h108.7v-75.9H159.4V237.2z M122.5,237.2
								h24.9v-73.3c-2.1,1.3-3.6,3.1-4.1,5.1c0,0.1,0,0.2-0.1,0.3L122.5,237.2z"/>
						</g>
					</g>
					<g>
						<g>
							<path class="st1" d="M311.4,343.5H182.2c-3.3,0-6-2.7-6-6s2.7-6,6-6h129.2c3.3,0,6,2.7,6,6S314.7,343.5,311.4,343.5z
								 M429.1,307.9h-32.2c-12.6,0-22.9-10.3-22.9-22.9c0-6.1,2.4-11.9,6.8-16.2c4.4-4.4,10.1-6.8,16.2-6.8h14.8c3.3,0,6,2.7,6,6
								s-2.7,6-6,6H397c-2.9,0-5.7,1.2-7.8,3.2c-2.1,2.1-3.2,4.8-3.2,7.8c0,6,4.9,10.9,10.9,10.9h32.2c3.3,0,6,2.7,6,6
								S432.4,307.9,429.1,307.9z M90.6,305.9H64c-3.3,0-6-2.7-6-6s2.7-6,6-6h26.6c3.3,0,6,2.7,6,6S93.9,305.9,90.6,305.9z"/>
						</g>
						<g>
							<path class="st1" d="M431,343.5h-55.7c-3.3,0-6-2.7-6-6s2.7-6,6-6H425v-13.6c0-37.9-30.9-68.8-68.8-68.8H116.4
								c-25.6,0-46.4,20.8-46.4,46.4v36h48.3c3.3,0,6,2.7,6,6s-2.7,6-6,6H64c-3.3,0-6-2.7-6-6v-42c0-32.2,26.2-58.4,58.4-58.4h239.8
								c44.6,0,80.8,36.2,80.8,80.8v19.6C437,340.8,434.3,343.5,431,343.5z M252.1,287h-22.5c-3.3,0-6-2.7-6-6s2.7-6,6-6h22.5
								c3.3,0,6,2.7,6,6S255.4,287,252.1,287z"/>
						</g>
					</g>
					<g>
						<path class="st1" d="M343.3,375.4c-20.9,0-37.9-17-37.9-37.9s17-37.9,37.9-37.9s37.9,17,37.9,37.9S364.2,375.4,343.3,375.4z
							 M343.3,311.6c-14.3,0-25.9,11.6-25.9,25.9s11.6,25.9,25.9,25.9s25.9-11.6,25.9-25.9S357.6,311.6,343.3,311.6z M150.2,375.4
							c-20.9,0-37.9-17-37.9-37.9s17-37.9,37.9-37.9s37.9,17,37.9,37.9S171.1,375.4,150.2,375.4z M150.2,311.6
							c-14.3,0-25.9,11.6-25.9,25.9s11.6,25.9,25.9,25.9s25.9-11.6,25.9-25.9S164.5,311.6,150.2,311.6z M372,173.7
							c-22.1,0-40.1-18-40.1-40.2V108h-6.3c-3.3,0-6-2.7-6-6s2.7-6,6-6l0,0h11.9c0.1,0,0.3,0,0.4,0h8.4V74.9c0-3.3,2.7-6,6-6
							s6,2.7,6,6V96h27.4V74.9c0-3.3,2.7-6,6-6s6,2.7,6,6V96h8.5c0.4,0,0.7,0,1,0.1h11.3c3.3,0,6,2.7,6,6s-2.7,6-6,6l0,0h-6.3v25.4
							C412.1,155.7,394,173.7,372,173.7z M343.9,108v25.5c0,15.5,12.6,28.2,28.1,28.2s28.1-12.7,28.2-28.2v-25.4L343.9,108z"/>
					</g>
				</g>
			</g>
		</g>
	</g>
</g>
</svg>
