<?xml version="1.0" encoding="utf-8"?>
<!-- Generator: Adobe Illustrator 27.5.0, SVG Export Plug-In . SVG Version: 6.00 Build 0)  -->
<svg version="1.1" id="Layer_1" xmlns="http://www.w3.org/2000/svg" xmlns:xlink="http://www.w3.org/1999/xlink" x="0px" y="0px"
	 viewBox="0 0 500 500" style="enable-background:new 0 0 500 500;" xml:space="preserve">
<style type="text/css">
	.st0{clip-path:url(#SVGID_00000051380560765011639300000001232702716516791183_);}
	.st1{fill:#FFFFFF;}
	.st2{display:none;fill:none;stroke:#FFFFFF;stroke-width:12;stroke-linecap:round;stroke-linejoin:round;}
	.st3{fill:none;stroke:#FFFFFF;stroke-width:12;stroke-linecap:round;stroke-linejoin:round;}
</style>
<g>
	<g>
		<g>
			<g>
				<defs>
					<rect id="SVGID_1_" width="500" height="500"/>
				</defs>
				<clipPath id="SVGID_00000060731587108736192250000012488596842830501532_">
					<use xlink:href="#SVGID_1_"  style="overflow:visible;"/>
				</clipPath>
				<g style="clip-path:url(#SVGID_00000060731587108736192250000012488596842830501532_);">
					<g>
						<g>
							<path class="st1" d="M311.5,315.7h-70c-30.5,0-55.3-24.8-55.3-55.3v-20.7c0-30.5,24.8-55.3,55.3-55.3h20.7
								c30.5,0,55.3,24.8,55.3,55.3v70C317.5,313,314.8,315.7,311.5,315.7z M241.5,196.4c-23.9,0-43.3,19.4-43.3,43.3v20.7
								c0,23.9,19.4,43.3,43.3,43.3h64v-64c0-23.9-19.4-43.3-43.3-43.3L241.5,196.4L241.5,196.4z"/>
						</g>
						<g>
							<path class="st1" d="M251.9,397.4c-81.3,0-147.4-66.1-147.4-147.4c0-39.4,15.3-76.4,43.1-104.2s64.8-43.1,104.2-43.1
								s75.8,14.5,102.4,40.7c26.6,26.3,41.3,62.5,41.3,101.8c0.1,2.2,0.2,26.7-18.5,46.3c-14.7,15.5-36.7,23.6-65.4,24
								c-3.3,0.1-6-2.6-6.1-5.9s2.6-6,5.9-6.1c25.3-0.4,44.4-7.2,56.8-20.2c15.7-16.5,15.3-37.7,15.3-37.9c0-0.1,0-0.1,0-0.2
								c0-74.5-56.6-130.6-131.7-130.6c-74.6,0-135.3,60.7-135.3,135.3c0,74.7,60.7,135.4,135.4,135.4c31.1,0,60.5-10.3,84.8-29.9
								c2.6-2.1,6.4-1.7,8.4,0.9c2.1,2.6,1.7,6.4-0.9,8.4C318.1,385.9,285.3,397.4,251.9,397.4z"/>
						</g>
					</g>
					<g>
						<g>
							<path class="st2" d="M0,500"/>
						</g>
						<g>
							<path class="st3" d="M0,500"/>
						</g>
						<g>
							<path class="st3" d="M0,500"/>
						</g>
						<g>
							<path class="st3" d="M0,500"/>
						</g>
						<g>
							<path class="st3" d="M0,500"/>
						</g>
						<g>
							<path class="st3" d="M0,500"/>
						</g>
						<g>
							<path class="st3" d="M0,500"/>
						</g>
						<g>
							<path class="st3" d="M0,500"/>
						</g>
						<g>
							<path class="st3" d="M0,500"/>
						</g>
						<g>
							<path class="st3" d="M0,500"/>
						</g>
						<g>
							<path class="st3" d="M0,500"/>
						</g>
						<g>
							<path class="st3" d="M0,500"/>
						</g>
					</g>
				</g>
			</g>
		</g>
	</g>
</g>
</svg>
