<?xml version="1.0" encoding="utf-8"?>
<!-- Generator: Adobe Illustrator 27.5.0, SVG Export Plug-In . SVG Version: 6.00 Build 0)  -->
<svg version="1.1" id="Layer_1" xmlns="http://www.w3.org/2000/svg" xmlns:xlink="http://www.w3.org/1999/xlink" x="0px" y="0px"
	 viewBox="0 0 500 500" style="enable-background:new 0 0 500 500;" xml:space="preserve">
<style type="text/css">
	.st0{fill:#FFFFFF;}
	.st1{display:none;fill:none;stroke:#FFFFFF;stroke-width:12;stroke-linecap:round;stroke-linejoin:round;}
	.st2{fill:none;stroke:#FFFFFF;stroke-width:12;stroke-linecap:round;stroke-linejoin:round;}
</style>
<g>
	<g>
		<g>
			<path class="st0" d="M250,419.2c-93.3,0-169.2-75.9-169.2-169.2S156.7,80.8,250,80.8S419.2,156.7,419.2,250
				S343.3,419.2,250,419.2z M250,92.8c-86.7,0-157.2,70.5-157.2,157.2S163.3,407.2,250,407.2S407.2,336.7,407.2,250
				S336.7,92.8,250,92.8z"/>
		</g>
		<g>
			<path class="st0" d="M251.4,354.3c-0.2,0-0.3,0-0.5,0c-18.8,0-36.8-5.9-52.2-16.9c-2.7-1.9-3.3-5.7-1.3-8.4
				c1.9-2.7,5.7-3.3,8.4-1.3c13.3,9.6,28.9,14.7,45.2,14.7c0.1,0,0.3,0,0.4,0c16.1,0,31.5-5.1,44.7-14.7c2.7-1.9,6.4-1.3,8.4,1.3
				s1.3,6.4-1.3,8.4C287.8,348.4,269.9,354.3,251.4,354.3z"/>
		</g>
		<g>
			<path class="st0" d="M311.7,211c-8.8,0-15.9,7.1-15.9,15.9s7.1,15.9,15.9,15.9s15.9-7.1,15.9-15.9S320.4,211,311.7,211z"/>
		</g>
		<g>
			<path class="st0" d="M345.7,196.9c-1.6,0-3.2-0.6-4.3-1.9c-19.5-20.4-44.3-17.1-44.5-17.1c-3.3,0.5-6.3-1.8-6.8-5.1
				s1.8-6.3,5.1-6.8c1.3-0.2,31.1-4.2,54.9,20.7c2.3,2.4,2.2,6.2-0.2,8.5C348.7,196.3,347.2,196.9,345.7,196.9z"/>
		</g>
		<g>
			<path class="st0" d="M191,211c8.8,0,15.9,7.1,15.9,15.9s-7.1,15.9-15.9,15.9c-8.8,0-15.9-7.1-15.9-15.9S182.2,211,191,211z"/>
		</g>
		<g>
			<path class="st0" d="M156.9,196.9c-1.5,0-3-0.6-4.1-1.7c-2.4-2.3-2.5-6.1-0.2-8.5c23.8-24.8,53.6-20.9,54.9-20.7
				c3.3,0.5,5.6,3.5,5.1,6.8s-3.5,5.6-6.8,5.1c-1.1-0.1-25.2-3.1-44.5,17.1C160.1,196.3,158.5,196.9,156.9,196.9z"/>
		</g>
	</g>
	<g>
		<g>
			<path class="st1" d="M0,500"/>
		</g>
		<g>
			<path class="st2" d="M0,500"/>
		</g>
		<g>
			<path class="st2" d="M0,500"/>
		</g>
		<g>
			<path class="st2" d="M0,500"/>
		</g>
		<g>
			<path class="st2" d="M0,500"/>
		</g>
		<g>
			<path class="st2" d="M0,500"/>
		</g>
		<g>
			<path class="st2" d="M0,500"/>
		</g>
		<g>
			<path class="st2" d="M0,500"/>
		</g>
		<g>
			<path class="st2" d="M0,500"/>
		</g>
		<g>
			<path class="st2" d="M0,500"/>
		</g>
		<g>
			<path class="st2" d="M0,500"/>
		</g>
		<g>
			<path class="st2" d="M0,500"/>
		</g>
	</g>
</g>
</svg>
