<?xml version="1.0" encoding="utf-8"?>
<!-- Generator: Adobe Illustrator 27.5.0, SVG Export Plug-In . SVG Version: 6.00 Build 0)  -->
<svg version="1.1" id="Layer_1" xmlns="http://www.w3.org/2000/svg" xmlns:xlink="http://www.w3.org/1999/xlink" x="0px" y="0px"
	 viewBox="0 0 500 500" style="enable-background:new 0 0 500 500;" xml:space="preserve">
<style type="text/css">
	.st0{fill:#FFFFFF;}
	.st1{fill:none;stroke:#FFFFFF;stroke-width:12;stroke-linecap:round;stroke-linejoin:round;}
</style>
<g>
	<g>
		<path class="st0" d="M352.4,415.7c-27.4,0-48.8-23.9-48.8-54.4c0-2.2,0.2-4.4,0.6-6.5c0.5-6,2-12.3,3.5-18.4
			c2.5-10.5,5.1-21.3,2.2-29c-0.9-2.4-0.2-5.1,1.7-6.7c2-1.7,4.7-1.9,6.9-0.6c0.3,0.2,5.5,3.3,12.5,8.1
			c8.2-11.5,14.9-22.7,15.3-33.6c0.1-2.6,1.8-4.8,4.2-5.5c2.4-0.7,5.1,0.1,6.6,2.2c1.8,2.5,44,60.6,44,90
			C401.2,391.8,379.8,415.7,352.4,415.7z M323.2,317.3c-0.3,7.2-2.1,14.6-3.8,21.8c-1.5,6.1-2.8,11.8-3.2,16.9
			c0,0.3-0.1,0.5-0.1,0.8c-0.3,1.5-0.5,3-0.5,4.5c0,23.8,16.2,42.4,36.8,42.4s36.8-18.6,36.8-42.4c0-17.3-20.1-51.2-33.8-71.7
			c-3.8,10.4-10.7,20.4-18.1,30.4c-1.9,2.7-5.7,3.2-8.3,1.3C327,319.9,325,318.5,323.2,317.3z"/>
	</g>
	<g>
		<path class="st0" d="M352.4,415.7c-16.6,0-29.2-13.4-29.2-31.1c0-9.4,6.3-18,12.4-26.3c5.2-7.1,10.6-14.4,10.8-20.9
			c0.1-2.6,1.8-4.8,4.2-5.6c2.5-0.8,5.1,0.1,6.6,2.2c2.5,3.4,24.3,34,24.3,50.5C381.6,402.3,369,415.7,352.4,415.7z M354.5,351.4
			c-2.5,4.9-5.9,9.5-9.3,14.1c-4.9,6.7-10,13.7-10,19.1c0,11.2,7.1,19.1,17.2,19.1s17.2-7.9,17.2-19.1
			C369.6,377.4,361.9,363.1,354.5,351.4z"/>
	</g>
	<g>
		<g>
			<path class="st0" d="M146.3,390.4c-0.8,0-1.6,0-2.3-0.1c-16.1-1.1-29.4-8.8-38.5-22.4c-16.6-24.7-16.7-65-8.4-90.3
				c0.7-2,2.3-3.5,4.4-4s4.2,0.2,5.7,1.7c6.7,7,15.7,12.8,24.5,18.1l0,0c1.8,1.1,3.6,2.2,5.4,3.2c16,9.5,32.5,19.4,41.7,34.5
				c7.1,11.6,6.6,27.5-1.3,40.5C170.2,383.5,158.7,390.4,146.3,390.4z M106,290.6c-4.8,22.6-2.8,52.5,9.4,70.7
				c7.1,10.5,17,16.2,29.4,17.1c8.7,0.6,17.1-4.2,22.4-12.9c5.6-9.2,6.1-20.2,1.3-28c-7.6-12.5-22.9-21.6-37.6-30.4
				c-1.8-1.1-3.6-2.2-5.5-3.3l0,0C118.8,299.8,112.1,295.5,106,290.6z"/>
		</g>
		<g>
			<path class="st0" d="M176,415.8c-3,0-5.6-2.3-6-5.4l-0.3-2.7c-2.7-21.9-13.5-41.8-30.2-56.1c-2.5-2.2-2.8-5.9-0.7-8.5
				c2.2-2.5,5.9-2.8,8.5-0.7c19.1,16.3,31.3,39,34.4,63.8v0.1l0.3,2.8c0.4,3.3-2,6.3-5.3,6.6C176.4,415.8,176.2,415.8,176,415.8z"/>
		</g>
	</g>
	<g>
		<path class="st0" d="M334.2,191.2c-1,0-2-0.2-2.9-0.7c-2.9-1.6-4-5.3-2.4-8.2c3.2-5.9,5-12.5,5-19.1c0-21.6-17.6-39.2-39.2-39.2
			c-2.1,0-3.9,0.1-5.5,0.3c-3.3,0.5-6.3-1.8-6.8-5.1c-0.5-3.3,1.8-6.3,5.1-6.8c2.2-0.3,4.5-0.5,7.1-0.5c28.2,0,51.2,23,51.2,51.2
			c0,8.7-2.2,17.3-6.4,24.9C338.4,190.1,336.3,191.2,334.2,191.2z M395.3,169.2h-24.2c-3.3,0-6-2.7-6-6s2.7-6,6-6h24.2
			c3.3,0,6,2.7,6,6S398.6,169.2,395.3,169.2z M348.8,115.2c-1.5,0-3.1-0.6-4.2-1.8c-2.3-2.3-2.3-6.1,0-8.5L373.5,76
			c2.3-2.3,6.1-2.3,8.5,0c2.3,2.3,2.3,6.1,0,8.5l-29,28.9C351.9,114.6,350.3,115.2,348.8,115.2z M294.8,92.8c-3.3,0-6-2.7-6-6V62.7
			c0-3.3,2.7-6,6-6s6,2.7,6,6v24.1C300.8,90.1,298.1,92.8,294.8,92.8z"/>
	</g>
	<g>
		<path class="st0" d="M272,416.1h-44.4c-1.6,0-3.2-0.7-4.3-1.9c-1.1-1.2-1.7-2.8-1.7-4.4l9-196c0.2-3.3,3-5.9,6.3-5.7
			s5.9,3,5.7,6.3l-8.7,189.7h31.8L257,214.4c-0.2-3.3,2.4-6.1,5.7-6.3c3.3-0.1,6.1,2.4,6.3,5.7l9,196c0.1,1.6-0.5,3.2-1.7,4.4
			C275.2,415.4,273.6,416.1,272,416.1z"/>
	</g>
	<g>
		<path class="st0" d="M410.8,416.1H90.6c-3.3,0-6-2.7-6-6s2.7-6,6-6h320.2c3.3,0,6,2.7,6,6S414.1,416.1,410.8,416.1z"/>
	</g>
	<g>
		<g>
			<path class="st0" d="M123.2,195.7c-21.7,0-39.4-17.7-39.4-39.4c0-19.7,30.9-67.4,34.4-72.8c1.1-1.7,3-2.7,5-2.7l0,0
				c2,0,3.9,1,5,2.7c3.5,5.4,34.4,53.2,34.4,72.8C162.6,178,144.9,195.7,123.2,195.7z M123.2,98c-12.2,19.7-27.4,47.7-27.4,58.3
				c0,15.1,12.3,27.4,27.4,27.4s27.4-12.3,27.4-27.4C150.6,145.7,135.4,117.7,123.2,98z"/>
		</g>
		<g>
			<path class="st0" d="M128.3,176.1c-2.3,0-4.5-1.3-5.5-3.6c-1.3-3,0-6.6,3.1-7.9c4.1-1.8,6.8-6,6.8-10.5c0-3.3,2.7-6,6-6
				s6,2.7,6,6c0,9.3-5.5,17.7-14,21.5C129.9,175.9,129.1,176.1,128.3,176.1z"/>
		</g>
	</g>
	<g>
		<path class="st1" d="M0,500"/>
	</g>
	<g>
		<path class="st0" d="M366.7,258.3c-0.6,0-1.3-0.1-1.9-0.3l-92.5-30.5c-2.4-0.7-4.4-1.5-6.1-2.6c-0.1,0-0.2-0.1-0.2-0.2l-0.1-0.1
			c-0.3-0.2-0.6-0.3-0.9-0.5c-3-1.9-5.5-4.5-7.5-7.5c-2.4,0.7-4.9,1.1-7.6,1.1s-5.2-0.4-7.6-1.1c-2,3-4.6,5.6-7.6,7.5
			c-0.3,0.2-0.7,0.5-1.4,0.8c-1.7,1-3.6,1.8-5.9,2.5L135,258c-2.7,0.9-5.7-0.2-7.1-2.7c-1.4-2.5-0.9-5.6,1.2-7.5l72.7-64.8
			c1.4-1.4,3-2.6,5-3.8c0.2-0.1,0.5-0.3,0.7-0.4l0.2-0.1c0.2-0.1,0.3-0.2,0.5-0.3c5.6-2.9,11.9-3.6,17.9-2.2
			c-1.6-3.2-2.6-6.8-2.7-10.4c0-0.1,0-0.2,0-0.3v-1.2c0-2.2,0.3-4.4,0.7-6.4l19.8-95.4c0.6-2.8,3-4.8,5.9-4.8l0,0
			c2.8,0,5.3,2,5.9,4.8l19.9,95.4c0.5,2,0.7,4.2,0.7,6.4v1.2c0,0.1,0,0.2,0,0.3c-0.2,3.6-1.1,7.2-2.8,10.4c6.1-1.4,12.4-0.7,18,2.2
			c0.6,0.3,1.1,0.6,1.5,0.9c2,1.2,3.6,2.4,5,3.8l72.7,64.8c2.1,1.9,2.6,5,1.2,7.5C370.8,257.2,368.8,258.3,366.7,258.3z
			 M272.5,214.7c0.9,0.5,1.9,0.9,3.3,1.3c0.1,0,0.1,0,0.2,0.1l65.2,21.5l-51.3-45.7c-0.1-0.1-0.2-0.2-0.2-0.2
			c-0.7-0.7-1.7-1.4-2.9-2.2c-0.1,0-0.2-0.1-0.2-0.2c-0.2-0.1-0.3-0.2-0.4-0.2c-3-1.5-6.4-1.9-9.6-1.2c0.1,1,0.2,2.1,0.2,3.2
			c0,7.8-3.4,14.9-8.7,19.8c1,1.3,2.2,2.5,3.6,3.4l0.2,0.1C272,214.4,272.2,214.6,272.5,214.7z M214,188.9c-0.2,0.1-0.3,0.2-0.5,0.3
			l-0.2,0.1c-0.1,0.1-0.1,0.1-0.2,0.1c-1.3,0.8-2.2,1.5-2.9,2.2c-0.1,0.1-0.2,0.2-0.2,0.2l-51.3,45.7l65.2-21.5c0.1,0,0.1,0,0.2-0.1
			c1.5-0.4,2.5-0.9,3.4-1.4c0.1-0.1,0.3-0.2,0.4-0.2c0.1,0,0.2-0.1,0.4-0.2c1.4-0.9,2.7-2.1,3.7-3.4c-5.4-4.9-8.7-12-8.7-19.8
			c0-1.1,0.1-2.1,0.2-3.2C220.1,187.1,216.8,187.5,214,188.9z M249.9,176.2c-8.2,0-14.8,6.6-14.8,14.8s6.6,14.8,14.8,14.8
			c8.2,0,14.8-6.6,14.8-14.8c0-3.5-1.3-6.8-3.3-9.3c-0.2-0.2-0.4-0.4-0.6-0.7C258.1,178,254.2,176.2,249.9,176.2z M235.4,165.4
			c0.1,1,0.2,1.9,0.5,2.8c4.1-2.5,8.9-4,14-4s9.9,1.4,13.9,3.9c0.2-0.9,0.4-1.8,0.5-2.8v-1.1c0-1.3-0.1-2.5-0.4-3.6
			c0-0.1,0-0.2-0.1-0.2l-14-67.2l-13.9,67.2c0,0.1,0,0.2-0.1,0.2c-0.3,1.1-0.4,2.4-0.4,3.6V165.4z"/>
	</g>
</g>
</svg>
