<?xml version="1.0" encoding="utf-8"?>
<!-- Generator: Adobe Illustrator 27.5.0, SVG Export Plug-In . SVG Version: 6.00 Build 0)  -->
<svg version="1.1" id="Layer_1" xmlns="http://www.w3.org/2000/svg" xmlns:xlink="http://www.w3.org/1999/xlink" x="0px" y="0px"
	 viewBox="0 0 500 500" style="enable-background:new 0 0 500 500;" xml:space="preserve">
<style type="text/css">
	.st0{fill:#FFFFFF;}
	.st1{display:none;fill:none;stroke:#FFFFFF;stroke-width:12.6;stroke-linecap:round;stroke-linejoin:round;}
	.st2{fill:none;stroke:#FFFFFF;stroke-width:12.6;stroke-linecap:round;stroke-linejoin:round;}
</style>
<g>
	<g>
		<g>
			<path class="st0" d="M275.5,443H221c-1.7,0-3.3-0.7-4.4-1.9c-1.1-1.2-1.7-2.9-1.6-4.5L231.4,212c0.1-1.9,1.1-3.5,2.7-4.6
				c1.6-1,3.5-1.3,5.3-0.7c2.8,1,5.8,1.5,8.9,1.5c3.1-0.1,6.2-0.6,9.1-1.5c1.7-0.6,3.7-0.3,5.2,0.8s2.5,2.7,2.6,4.5l16.4,224.6
				c0.1,1.7-0.5,3.3-1.6,4.5C278.8,442.3,277.2,443,275.5,443z M227.5,431H269l-15.4-211.2c-1.7,0.2-3.4,0.4-5.2,0.4
				c-1.9,0.1-3.8-0.1-5.6-0.4L227.5,431z"/>
		</g>
		<g>
			<path class="st0" d="M248.2,206.1c-14.6,0-26.4-11.8-26.4-26.4s11.8-26.4,26.4-26.4s26.4,11.8,26.4,26.4S262.8,206.1,248.2,206.1
				z M248.2,165.3c-7.9,0-14.4,6.5-14.4,14.4s6.5,14.4,14.4,14.4c7.9,0,14.4-6.5,14.4-14.4S256.1,165.3,248.2,165.3z"/>
		</g>
		<g>
			<path class="st0" d="M362.7,257.1c-1,0-2-0.2-3-0.6l-91.8-34.4c-7.7-2.9-13.5-9.3-16.5-17.9l-0.7-2c-1.1-3.1,0.6-6.6,3.7-7.6
				c3.1-1.1,6.6,0.6,7.6,3.7l0.7,2c1.8,5.3,5,8.9,9.4,10.6l84.7,31.7l-69.3-58.1c-3.5-3-8.3-4-13.7-2.9l-2.1,0.4
				c-3.3,0.6-6.4-1.5-7-4.8s1.5-6.4,4.8-7l2.1-0.4c8.9-1.7,17.4,0.2,23.7,5.5l75.1,63c3.5,2.9,4.1,8.2,1.4,13c0,0,0,0.1-0.1,0.1
				C369.5,255,366.1,257.1,362.7,257.1z M362.6,247.5C362.6,247.5,362.7,247.5,362.6,247.5L362.6,247.5z M364,245.3L364,245.3
				L364,245.3z M133.9,257.1c-3.4,0-6.9-2.1-9.1-5.7c0,0,0-0.1-0.1-0.1c-2.7-4.7-2.1-10.1,1.4-13l75.7-63.1
				c6.4-5.3,14.9-7.2,23.9-5.5l2.1,0.4c3.3,0.6,5.4,3.7,4.8,7s-3.7,5.4-7,4.8l-2.2-0.4c-5.6-1.1-10.4,0-14,2.9l-69.9,58.3l85.7-31.8
				c4.4-1.7,7.6-5.2,9.4-10.5l0.6-1.8c1-3.2,4.4-4.9,7.5-3.9c3.2,1,4.9,4.4,3.9,7.5l-0.6,1.9v0.1c-3,8.7-8.7,14.9-16.6,17.9
				l-92.6,34.4C135.9,256.9,134.9,257.1,133.9,257.1z M132.7,245.3L132.7,245.3L132.7,245.3z M234.2,168.7c-1.7,0-3.3-0.7-4.5-2
				l-1.4-1.6c-6-6.9-8.6-15.2-7.2-23.3l16.6-96.7c0.9-4.5,5.3-7.8,10.5-7.8c5.5,0,9.9,3.3,10.5,7.9l16.6,96.6
				c1.4,8.2-1.1,16.5-7.2,23.3l-1.4,1.6c-2.2,2.5-6,2.7-8.5,0.6c-2.5-2.2-2.7-6-0.6-8.5l1.4-1.6c3.6-4.1,5.2-8.8,4.4-13.3
				l-15.3-89.1l-15.3,89c-1,5.7,1.9,10.4,4.4,13.3l1.4,1.6c2.2,2.5,1.9,6.3-0.6,8.5C237,168.2,235.6,168.7,234.2,168.7z"/>
		</g>
	</g>
	<g>
		<g>
			<path class="st1" d="M0,500"/>
		</g>
		<g>
			<path class="st2" d="M0,500"/>
		</g>
		<g>
			<path class="st2" d="M0,500"/>
		</g>
		<g>
			<path class="st2" d="M0,500"/>
		</g>
		<g>
			<path class="st2" d="M0,500"/>
		</g>
		<g>
			<path class="st2" d="M0,500"/>
		</g>
		<g>
			<path class="st2" d="M0,500"/>
		</g>
		<g>
			<path class="st2" d="M0,500"/>
		</g>
		<g>
			<path class="st2" d="M0,500"/>
		</g>
		<g>
			<path class="st2" d="M0,500"/>
		</g>
		<g>
			<path class="st2" d="M0,500"/>
		</g>
		<g>
			<path class="st2" d="M0,500"/>
		</g>
	</g>
</g>
</svg>
