<?xml version="1.0" encoding="utf-8"?>
<!-- Generator: Adobe Illustrator 27.5.0, SVG Export Plug-In . SVG Version: 6.00 Build 0)  -->
<svg version="1.1" id="Layer_1" xmlns="http://www.w3.org/2000/svg" xmlns:xlink="http://www.w3.org/1999/xlink" x="0px" y="0px"
	 viewBox="0 0 500 500" style="enable-background:new 0 0 500 500;" xml:space="preserve">
<style type="text/css">
	.st0{clip-path:url(#SVGID_00000117649912955737757310000018230031864820972420_);}
	.st1{fill:#FFFFFF;}
</style>
<g>
	<g>
		<g>
			<g>
				<defs>
					<rect id="SVGID_1_" width="500" height="500"/>
				</defs>
				<clipPath id="SVGID_00000030461935710467246570000001382491287526781071_">
					<use xlink:href="#SVGID_1_"  style="overflow:visible;"/>
				</clipPath>
				<g style="clip-path:url(#SVGID_00000030461935710467246570000001382491287526781071_);">
					<g>
						<path class="st1" d="M250,416.1c-91.6,0-166.1-74.5-166.1-166.1S158.4,83.9,250,83.9S416.1,158.4,416.1,250
							S341.6,416.1,250,416.1z M250,95.9C165,95.9,95.9,165,95.9,250S165,404.1,250,404.1S404.1,335,404.1,250S335,95.9,250,95.9z"
							/>
					</g>
					<g>
						<path class="st1" d="M250,281.5c-13.7,0-24.8-11.1-24.8-24.8c0-1.8,0.2-3.6,0.6-5.5l18.3-86.1c0.6-2.8,3-4.8,5.9-4.8
							s5.3,2,5.9,4.8l18.3,85.9c0.6,2.2,0.7,4.3,0.7,5.6C274.8,270.4,263.7,281.5,250,281.5z M250,195.3l-12.4,58.5v0.1
							c-0.2,1-0.3,1.9-0.3,2.8c0,7.1,5.7,12.8,12.8,12.8s12.8-5.7,12.8-12.8c0-1.1-0.1-1.9-0.3-2.6c0-0.1-0.1-0.3-0.1-0.4L250,195.3
							z"/>
					</g>
					<g>
						<path class="st1" d="M239.3,395.1c-1.5,0-3.1-0.6-4.2-1.8c-2.3-2.3-2.3-6.1,0-8.5l16.3-16.3h-17c-2.3,0-4.4-1.3-5.4-3.4
							s-0.8-4.5,0.6-6.3l20.5-26.5c2-2.6,5.8-3.1,8.4-1.1s3.1,5.8,1.1,8.4l-13,16.8h19.3c2.4,0,4.6,1.5,5.5,3.7s0.4,4.8-1.3,6.5
							l-26.5,26.5C242.4,394.5,240.8,395.1,239.3,395.1z"/>
					</g>
					<g>
						<path class="st1" d="M309,404.9c-0.8,0-1.6-0.2-2.3-0.5c-3.1-1.3-4.5-4.8-3.2-7.9c3.1-7.4,4.7-15.1,4.7-23
							c0-32.1-26.1-58.2-58.2-58.2s-58.2,26.1-58.2,58.2c0,8,1.6,15.7,4.7,22.9c1.3,3-0.1,6.6-3.1,7.9s-6.6-0.1-7.9-3.1
							c-3.8-8.7-5.7-18-5.7-27.7c0-38.7,31.5-70.2,70.2-70.2s70.2,31.5,70.2,70.2c0,9.4-1.9,18.7-5.7,27.6
							C313.6,403.5,311.3,404.9,309,404.9z M388.7,336c-1,0-2-0.3-3-0.8l-34.7-20c-2.9-1.7-3.9-5.3-2.2-8.2c1.7-2.9,5.3-3.9,8.2-2.2
							l34.7,20c2.9,1.7,3.9,5.3,2.2,8.2C392.8,334.9,390.8,336,388.7,336z M111.3,336c-2.1,0-4.1-1.1-5.2-3
							c-1.7-2.9-0.7-6.5,2.2-8.2l34.7-20c2.9-1.7,6.5-0.7,8.2,2.2c1.7,2.9,0.7,6.5-2.2,8.2l-34.7,20
							C113.4,335.7,112.3,336,111.3,336z M410.1,256h-40c-3.3,0-6-2.7-6-6s2.7-6,6-6h40c3.3,0,6,2.7,6,6S413.4,256,410.1,256z
							 M129.9,256h-40c-3.3,0-6-2.7-6-6s2.7-6,6-6h40c3.3,0,6,2.7,6,6S133.2,256,129.9,256z M354,196c-2.1,0-4.1-1.1-5.2-3
							c-1.7-2.9-0.7-6.5,2.2-8.2l34.7-20c2.9-1.7,6.5-0.7,8.2,2.2s0.7,6.5-2.2,8.2l-34.7,20C356.1,195.7,355,196,354,196z M146,196
							c-1,0-2-0.3-3-0.8l-34.7-20c-2.9-1.7-3.9-5.3-2.2-8.2c1.7-2.9,5.3-3.9,8.2-2.2l34.7,20c2.9,1.7,3.9,5.3,2.2,8.2
							C150.1,194.9,148.1,196,146,196z M310,152c-1,0-2-0.3-3-0.8c-2.9-1.7-3.9-5.3-2.2-8.2l20-34.7c1.7-2.9,5.3-3.9,8.2-2.2
							c2.9,1.7,3.9,5.3,2.2,8.2l-20,34.7C314.1,150.9,312.1,152,310,152z M190,152c-2.1,0-4.1-1.1-5.2-3l-20-34.7
							c-1.7-2.9-0.7-6.5,2.2-8.2s6.5-0.7,8.2,2.2l20,34.7c1.7,2.9,0.7,6.5-2.2,8.2C192.1,151.7,191,152,190,152z M250,135.9
							c-3.3,0-6-2.7-6-6v-40c0-3.3,2.7-6,6-6s6,2.7,6,6v40C256,133.2,253.3,135.9,250,135.9z"/>
					</g>
				</g>
			</g>
		</g>
	</g>
</g>
</svg>
