<?xml version="1.0" encoding="utf-8"?>
<!-- Generator: Adobe Illustrator 27.5.0, SVG Export Plug-In . SVG Version: 6.00 Build 0)  -->
<svg version="1.1" id="Layer_1" xmlns="http://www.w3.org/2000/svg" xmlns:xlink="http://www.w3.org/1999/xlink" x="0px" y="0px"
	 viewBox="0 0 500 500" style="enable-background:new 0 0 500 500;" xml:space="preserve">
<style type="text/css">
	.st0{fill:#FFFFFF;}
	.st1{fill:none;stroke:#FFFFFF;stroke-width:12;stroke-linecap:round;stroke-linejoin:round;}
</style>
<g>
	<g>
		<g>
			<path class="st0" d="M306.3,218.8c-1.5,0-3.1-0.6-4.2-1.8c-2.3-2.3-2.3-6.1,0-8.5c1.5-1.5,2.9-2.9,4.3-4.4
				c2.8-2.8,5.4-5.4,8.1-8.1l86.1-86.3c2.3-2.3,6.1-2.4,8.5,0c2.3,2.3,2.4,6.1,0,8.5l-86.2,86.4c-2.7,2.7-5.3,5.3-8,8
				c-1.4,1.4-2.9,2.9-4.4,4.4C309.4,218.2,307.8,218.8,306.3,218.8z M186.1,214.9c-1.5,0-3.1-0.6-4.2-1.8l-8.5-8.5l-86.2-86.4
				c-2.3-2.3-2.3-6.1,0-8.5s6.1-2.3,8.5,0l86.2,86.4l8.5,8.5c2.3,2.3,2.3,6.1,0,8.5C189.2,214.3,187.6,214.9,186.1,214.9z"/>
		</g>
		<g>
			<path class="st0" d="M248.2,261.8c-11.5,0-22.3-4.5-30.4-12.6L87.2,118.3c-2.3-2.3-2.3-6.1,0-8.5c2.3-2.3,6.1-2.3,8.5,0
				l130.6,130.8c5.8,5.9,13.6,9.1,21.9,9.1c8.3,0,16.1-3.2,21.9-9.1l130.7-130.9c2.3-2.3,6.1-2.3,8.5,0c2.3,2.3,2.3,6.1,0,8.5
				L278.5,249.1C270.5,257.3,259.7,261.8,248.2,261.8z"/>
		</g>
		<g>
			<path class="st0" d="M407.2,328.1H88.9c-3.3,0-6-2.7-6-6V111.3c0-3.3,2.7-6,6-6h318.3c3.3,0,6,2.7,6,6v210.8
				C413.2,325.4,410.5,328.1,407.2,328.1z M94.9,316.1h306.3V117.3H94.9V316.1z"/>
		</g>
	</g>
	<g>
		<path class="st0" d="M93.7,303c-1.7,0-3.3-0.7-4.5-2c-2.2-2.5-2-6.3,0.5-8.5l91.3-81.1c2.5-2.2,6.3-2,8.5,0.5s2,6.3-0.5,8.5
			l-91.3,81.1C96.5,302.5,95.1,303,93.7,303z M400.8,301.6c-1.4,0-2.8-0.5-4-1.5l-90.1-79.8c-2.5-2.2-2.7-6-0.5-8.5s6-2.7,8.5-0.5
			l90.1,79.8c2.5,2.2,2.7,6,0.5,8.5C404.1,300.9,402.5,301.6,400.8,301.6z"/>
	</g>
	<g>
		<g>
			<path class="st0" d="M352.7,391H145.5c-3.3,0-6-2.7-6-6s2.7-6,6-6h207.2c3.3,0,6,2.7,6,6S356,391,352.7,391z"/>
		</g>
		<g>
			<path class="st0" d="M166.2,412c-1.5,0-3.1-0.6-4.2-1.8l-20.8-20.8c-1.1-1.1-1.8-2.7-1.8-4.2s0.6-3.1,1.8-4.2l20.8-20.8
				c2.3-2.3,6.1-2.3,8.5,0s2.3,6.1,0,8.5l-16.6,16.6l16.6,16.6c2.3,2.3,2.3,6.1,0,8.5C169.3,411.4,167.7,412,166.2,412z"/>
		</g>
	</g>
	<g>
		<path class="st1" d="M0,500"/>
	</g>
</g>
</svg>
