<?xml version="1.0" encoding="utf-8"?>
<!-- Generator: Adobe Illustrator 27.5.0, SVG Export Plug-In . SVG Version: 6.00 Build 0)  -->
<svg version="1.1" id="Layer_1" xmlns="http://www.w3.org/2000/svg" xmlns:xlink="http://www.w3.org/1999/xlink" x="0px" y="0px"
	 viewBox="0 0 500 500" style="enable-background:new 0 0 500 500;" xml:space="preserve">
<style type="text/css">
	.st0{fill:#FFFFFF;}
	.st1{fill:none;stroke:#FFFFFF;stroke-width:12;stroke-linecap:round;stroke-linejoin:round;}
</style>
<g>
	<g>
		<g>
			<path class="st0" d="M193.5,218.7c-1.6,0-3.1-0.6-4.3-1.8c-2-2.1-4.1-4.1-6.1-6.1c-2.1-2.1-4.1-4.1-6.1-6.2l-86.2-86.4
				c-2.3-2.3-2.3-6.1,0-8.5c2.3-2.3,6.1-2.3,8.5,0l86.2,86.4c2,2.1,4,4.1,6.1,6.1c2.1,2.1,4.1,4.1,6.2,6.2c2.3,2.4,2.3,6.2-0.1,8.5
				C196.5,218.1,195,218.7,193.5,218.7z M314.5,214.3c-1.6,0-3.3-0.7-4.4-2c-2.2-2.4-2.1-6.2,0.4-8.5c2.1-1.9,3.6-3.4,5.1-5
				c0.8-0.9,1.7-1.7,2.6-2.7l86.2-86.4c2.3-2.3,6.1-2.4,8.5,0c2.3,2.3,2.4,6.1,0,8.5l-86.2,86.4c-0.9,0.9-1.7,1.7-2.4,2.5
				c-1.6,1.7-3.3,3.4-5.7,5.6C317.4,213.8,315.9,214.3,314.5,214.3z"/>
		</g>
		<g>
			<path class="st0" d="M251.8,261.8C251.8,261.8,251.9,261.8,251.8,261.8c-11.5,0-22.3-4.5-30.4-12.6l-130.6-131
				c-2.3-2.3-2.3-6.1,0-8.5c2.3-2.3,6.1-2.3,8.5,0L230,240.6c5.8,5.9,13.6,9.1,21.9,9.1s16.1-3.2,21.9-9.1l130.6-130.9
				c2.3-2.3,6.1-2.4,8.5,0c2.3,2.3,2.4,6.1,0,8.5L282.2,249.1C274.2,257.3,263.4,261.8,251.8,261.8z"/>
		</g>
		<g>
			<path class="st0" d="M411.1,328.1H273.5c-3.3,0-6-2.7-6-6s2.7-6,6-6h131.6V117.3H98.8v198.8h123.9c3.3,0,6,2.7,6,6s-2.7,6-6,6
				H92.8c-3.3,0-6-2.7-6-6V111.3c0-3.3,2.7-6,6-6h318.3c3.3,0,6,2.7,6,6v210.8C417.1,325.4,414.4,328.1,411.1,328.1z"/>
		</g>
	</g>
	<g>
		<path class="st0" d="M406.3,302.9c-1.4,0-2.7-0.5-3.8-1.4l-96.4-80.2c-2.5-2.1-2.9-5.9-0.8-8.4s5.9-2.9,8.4-0.8l96.4,80.2
			c2.5,2.1,2.9,5.9,0.8,8.4C409.7,302.2,408,302.9,406.3,302.9z"/>
	</g>
	<g>
		<path class="st0" d="M99.2,301.6c-1.7,0-3.3-0.7-4.5-2.1c-2.2-2.5-1.9-6.3,0.6-8.5l91-78.9c2.5-2.2,6.3-1.9,8.5,0.6
			s1.9,6.3-0.6,8.5l-91,78.9C102,301.1,100.6,301.6,99.2,301.6z"/>
	</g>
	<g>
		<path class="st0" d="M247.8,430.8c-1.5,0-3.1-0.6-4.2-1.8l-30.1-30.1c-2.3-2.3-2.3-6.1,0-8.5c2.3-2.3,6.1-2.3,8.5,0l20.1,20.1
			l0.1-118.6c0-3.3,2.7-6,6-6l0,0c3.3,0,6,2.7,6,6L254,410.1l19.6-19.6c2.3-2.3,6.1-2.3,8.5,0c2.3,2.3,2.3,6.1,0,8.5l-29.3,29.3
			c-0.6,0.8-1.4,1.5-2.3,1.9C249.7,430.6,248.8,430.8,247.8,430.8z"/>
	</g>
	<g>
		<path class="st1" d="M0,500"/>
	</g>
</g>
</svg>
