<?xml version="1.0" encoding="utf-8"?>
<!-- Generator: Adobe Illustrator 27.5.0, SVG Export Plug-In . SVG Version: 6.00 Build 0)  -->
<svg version="1.1" id="Layer_1" xmlns="http://www.w3.org/2000/svg" xmlns:xlink="http://www.w3.org/1999/xlink" x="0px" y="0px"
	 viewBox="0 0 500 500" style="enable-background:new 0 0 500 500;" xml:space="preserve">
<style type="text/css">
	.st0{fill:none;}
	.st1{fill:#FFFFFF;}
	.st2{fill:none;stroke:#FFFFFF;stroke-width:12;stroke-linecap:round;stroke-linejoin:round;}
</style>
<g>
	<g>
		<g>
			<path class="st0" d="M194.4,211.5c-4.7-3.3-9-7-13.1-11.1L95.1,114 M408.6,114l-86.2,86.4c-2.7,2.7-5.5,5.2-8.5,7.6"/>
		</g>
		<g>
			<path class="st1" d="M251.8,261.8C251.8,261.8,251.9,261.8,251.8,261.8c-11.5,0-22.3-4.5-30.4-12.6l-130.6-131
				c-2.3-2.3-2.3-6.1,0-8.5c2.3-2.3,6.1-2.3,8.5,0L230,240.6c5.8,5.9,13.6,9.1,21.9,9.1s16.1-3.2,21.9-9.1l130.6-130.9
				c2.3-2.3,6.1-2.4,8.5,0c2.3,2.3,2.4,6.1,0,8.5L282.2,249.1C274.2,257.3,263.4,261.8,251.8,261.8z"/>
		</g>
		<g>
			<path class="st1" d="M411.1,328.1H92.8c-3.3,0-6-2.7-6-6V111.3c0-3.3,2.7-6,6-6h318.3c3.3,0,6,2.7,6,6v210.8
				C417.1,325.4,414.4,328.1,411.1,328.1z M98.8,316.1h306.3V117.3H98.8V316.1z"/>
		</g>
	</g>
	<g>
		<path class="st1" d="M406.3,303c-1.4,0-2.8-0.5-4-1.5l-91.5-81.3c-2.5-2.2-2.7-6-0.5-8.5s6-2.7,8.5-0.5l91.5,81.3
			c2.5,2.2,2.7,6,0.5,8.5C409.6,302.3,408,303,406.3,303z M99.2,301.6c-1.7,0-3.3-0.7-4.5-2c-2.2-2.5-2-6.3,0.5-8.5l89.2-78.9
			c2.5-2.2,6.3-2,8.5,0.5s2,6.3-0.5,8.5l-89.2,78.9C102,301.1,100.6,301.6,99.2,301.6z"/>
	</g>
	<g>
		<path class="st1" d="M333.8,412c-1.5,0-3.1-0.6-4.2-1.8c-2.3-2.3-2.3-6.1,0-8.5l10.8-10.8h-193c-3.3,0-6-2.7-6-6s2.7-6,6-6H340
			l-10.4-10.4c-2.3-2.3-2.3-6.1,0-8.5c2.3-2.3,6.1-2.3,8.5,0l20,20c0.8,0.6,1.5,1.4,1.9,2.3c1.2,2.3,0.8,5.1-1.1,7L338,410.2
			C336.9,411.4,335.3,412,333.8,412z"/>
	</g>
	<g>
		<path class="st2" d="M0,500"/>
	</g>
</g>
</svg>
