<?xml version="1.0" encoding="utf-8"?>
<!-- Generator: Adobe Illustrator 27.5.0, SVG Export Plug-In . SVG Version: 6.00 Build 0)  -->
<svg version="1.1" id="Layer_1" xmlns="http://www.w3.org/2000/svg" xmlns:xlink="http://www.w3.org/1999/xlink" x="0px" y="0px"
	 viewBox="0 0 500 500" style="enable-background:new 0 0 500 500;" xml:space="preserve">
<style type="text/css">
	.st0{fill:#FFFFFF;}
	.st1{fill:none;stroke:#FFFFFF;stroke-width:12;stroke-linecap:round;}
</style>
<g>
	<path class="st0" d="M93.2,337.2c-1.7,0-3.3-0.7-4.5-2c-2.2-2.5-1.9-6.3,0.6-8.5l83.6-73.3c6.2-5.3,13-10,20.2-14
		c2.9-1.6,6.6-0.5,8.1,2.4c1.6,2.9,0.5,6.6-2.4,8.1c-6.5,3.5-12.6,7.7-18,12.5l-83.6,73.3C96,336.7,94.6,337.2,93.2,337.2z"/>
	<path class="st0" d="M346.1,280.2c-1.4,0-2.8-0.5-3.9-1.5l-18.4-16.1c-5.6-4.8-11.8-9.2-18.6-12.8c-2.9-1.6-4-5.2-2.4-8.1
		c1.6-2.9,5.2-4,8.1-2.4c7.5,4.1,14.5,8.9,20.8,14.3l18.4,16.1c2.5,2.2,2.7,6,0.6,8.5C349.4,279.5,347.8,280.2,346.1,280.2z"/>
	<g>
		<g>
			<g>
				<path class="st0" d="M373.5,412.3c-35.2,0-66-25-73.3-59.4c-1.1-5-1.6-10.2-1.6-15.5c0-41.3,33.6-74.9,74.9-74.9
					c14.6,0,28.8,4.2,41,12.2c21.2,13.9,33.9,37.3,33.9,62.7C448.4,378.7,414.8,412.3,373.5,412.3z M373.5,274.5
					c-34.7,0-62.9,28.2-62.9,62.9c0,4.5,0.5,8.9,1.4,13c6.1,28.9,32,49.9,61.5,49.9c34.7,0,62.9-28.2,62.9-62.9
					c0-21.3-10.6-41-28.5-52.7C397.7,278,385.8,274.5,373.5,274.5z"/>
			</g>
		</g>
	</g>
	<g>
		<g>
			<g>
				<path class="st0" d="M350.1,366.8c-1.5,0-3.1-0.6-4.2-1.8c-2.3-2.3-2.3-6.1,0-8.5l47.7-47.7c2.3-2.3,6.1-2.3,8.5,0
					c2.3,2.3,2.3,6.1,0,8.5L354.3,365C353.2,366.2,351.6,366.8,350.1,366.8z"/>
			</g>
		</g>
	</g>
	<g>
		<g>
			<g>
				<path class="st0" d="M397.8,366.8c-1.5,0-3.1-0.6-4.2-1.8l-47.7-47.7c-2.3-2.3-2.3-6.1,0-8.5c2.3-2.3,6.1-2.3,8.5,0l47.7,47.7
					c2.3,2.3,2.3,6.1,0,8.5C400.9,366.2,399.3,366.8,397.8,366.8z"/>
			</g>
		</g>
	</g>
	<g>
		<g>
			<path class="st0" d="M307.9,250.6c-1.5,0-3.1-0.6-4.2-1.8c-2.3-2.3-2.3-6.1,0-8.5l100.7-100.9c2.3-2.3,6.1-2.4,8.5,0
				c2.3,2.3,2.3,6.1,0,8.5L312.1,248.8C311,250,309.4,250.6,307.9,250.6z"/>
			<path class="st0" d="M196,250.8c-1.5,0-3.1-0.6-4.2-1.8l-101-101.2c-2.3-2.3-2.3-6.1,0-8.5c2.3-2.3,6.1-2.3,8.5,0l101,101.2
				c2.3,2.3,2.3,6.1,0,8.5C199.1,250.2,197.5,250.8,196,250.8z"/>
			<g>
				<g>
					<g>
						<path class="st0" d="M306.1,357.7H92.8c-3.3,0-6-2.7-6-6V140.9c0-3.3,2.7-6,6-6h318.4c3.3,0,6,2.7,6,6v138.8
							c0,2.2-1.2,4.2-3.1,5.3c-1.9,1-4.3,1-6.1-0.2c-10.3-6.7-22.2-10.2-34.4-10.2c-8.5,0-17,1.8-25,5.2c-23,10-37.9,32.6-37.9,57.7
							c0,4.5,0.5,8.9,1.4,13c0.4,1.8-0.1,3.6-1.2,5C309.6,356.9,307.9,357.7,306.1,357.7z M98.8,345.7h200.3
							c-0.3-2.7-0.5-5.5-0.5-8.3c0-29.8,17.7-56.8,45.1-68.7c9.6-4.1,19.6-6.2,29.8-6.2c11,0,21.8,2.4,31.7,7V146.9H98.8V345.7z
							 M251.9,291.4c-11.5,0-22.3-4.5-30.4-12.6L191.8,249c-2.3-2.3-2.3-6.1,0-8.5c2.3-2.3,6.1-2.3,8.5,0l29.7,29.7
							c5.9,5.9,13.7,9.1,21.9,9.1c0,0,0,0,0.1,0c8.2,0,16-3.2,21.8-9.1l29.9-30c2.3-2.3,6.1-2.4,8.5,0c2.3,2.3,2.4,6.1,0,8.5
							l-29.9,30C274.2,286.9,263.4,291.4,251.9,291.4L251.9,291.4z"/>
					</g>
				</g>
			</g>
		</g>
	</g>
	<g>
		<path class="st1" d="M0,500"/>
	</g>
</g>
</svg>
