<?xml version="1.0" encoding="utf-8"?>
<!-- Generator: Adobe Illustrator 27.5.0, SVG Export Plug-In . SVG Version: 6.00 Build 0)  -->
<svg version="1.1" id="Layer_1" xmlns="http://www.w3.org/2000/svg" xmlns:xlink="http://www.w3.org/1999/xlink" x="0px" y="0px"
	 viewBox="0 0 500 500" style="enable-background:new 0 0 500 500;" xml:space="preserve">
<style type="text/css">
	.st0{fill:#FFFFFF;}
	.st1{fill:none;stroke:#FFFFFF;stroke-width:12;stroke-linecap:round;stroke-linejoin:round;}
</style>
<g>
	<g>
		<path class="st0" d="M389,389.4H111c-6.9,0-13-3.6-16.5-9.6c-3.4-6-3.4-13,0-19l139-240.8c3.4-6,9.6-9.5,16.5-9.5
			s13.1,3.6,16.5,9.5l139,240.8c3.4,6,3.4,13.1,0,19C402,385.8,395.9,389.4,389,389.4z M250,122.6c-1.2,0-4.3,0.3-6.1,3.5
			l-139,240.8c-1.8,3.1-0.6,5.9,0,7c1.3,2.2,3.6,3.5,6.1,3.5h278c3.7,0,5.5-2.5,6.1-3.5s1.8-3.8,0-7l-139-240.8l0,0
			C254.3,122.9,251.2,122.6,250,122.6z"/>
	</g>
	<g>
		<path class="st0" d="M250,357.4c-12.1,0-21.9-9.8-21.9-21.9s9.8-21.9,21.9-21.9c12.1,0,21.9,9.8,21.9,21.9S262.1,357.4,250,357.4z
			 M250,325.6c-5.5,0-9.9,4.4-9.9,9.9s4.4,9.9,9.9,9.9s9.9-4.4,9.9-9.9S255.5,325.6,250,325.6z M252.7,299.6h-5.4
			c-10.7,0-19.4-8.3-19.8-19l-2.8-57.9c-0.3-6.1,1.8-12,6.1-16.5c4.2-4.4,10.2-7,16.3-7h6c6.2,0,11.9,2.4,16.2,6.9
			c4.3,4.5,6.5,10.4,6.2,16.6l-2.8,57.9v0.1C272,291.3,263.2,299.6,252.7,299.6z M247.1,211.3c-2.9,0-5.6,1.2-7.6,3.3
			s-3,4.8-2.8,7.6l2.8,57.9c0.2,4.2,3.6,7.5,7.8,7.5h5.4c4.2,0,7.7-3.3,8-7.6l2.8-57.8c0.1-2.9-0.9-5.6-2.9-7.7
			c-2-2.1-4.6-3.2-7.5-3.2H247.1z"/>
	</g>
	<g>
		<path class="st1" d="M0,500"/>
	</g>
</g>
</svg>
