<?xml version="1.0" encoding="utf-8"?>
<!-- Generator: Adobe Illustrator 27.5.0, SVG Export Plug-In . SVG Version: 6.00 Build 0)  -->
<svg version="1.1" id="Layer_1" xmlns="http://www.w3.org/2000/svg" xmlns:xlink="http://www.w3.org/1999/xlink" x="0px" y="0px"
	 viewBox="0 0 500 500" style="enable-background:new 0 0 500 500;" xml:space="preserve">
<style type="text/css">
	.st0{fill:#FFFFFF;}
	.st1{fill:none;stroke:#FFFFFF;stroke-width:12;stroke-linecap:round;stroke-linejoin:round;}
</style>
<g>
	<g>
		<g>
			<path class="st0" d="M249.6,256.2c-1.5,0-3.1-0.6-4.2-1.8l-68.6-68.6c-2.3-2.3-2.3-6.1,0-8.5c2.3-2.3,6.1-2.3,8.5,0l68.6,68.6
				c2.3,2.3,2.3,6.1,0,8.5C252.7,255.6,251.1,256.2,249.6,256.2z"/>
		</g>
		<g>
			<path class="st0" d="M318.2,324.7c-1.5,0-3.1-0.6-4.2-1.8l-68.6-68.6c-2.3-2.3-2.3-6.1,0-8.5c2.3-2.3,6.1-2.3,8.5,0l68.6,68.6
				c2.3,2.3,2.3,6.1,0,8.5C321.3,324.1,319.7,324.7,318.2,324.7z"/>
		</g>
		<g>
			<path class="st0" d="M181.1,324.3c-1.5,0-3.1-0.6-4.2-1.8c-2.3-2.3-2.3-6.1,0-8.5l68.6-68.6c2.3-2.3,6.1-2.3,8.5,0
				c2.3,2.3,2.3,6.1,0,8.5l-68.6,68.6C184.2,323.7,182.6,324.3,181.1,324.3z"/>
		</g>
		<g>
			<path class="st0" d="M250,256.2c-1.5,0-3.1-0.6-4.2-1.8c-2.3-2.3-2.3-6.1,0-8.5l68.6-68.6c2.3-2.3,6.1-2.3,8.5,0
				c2.3,2.3,2.3,6.1,0,8.5l-68.6,68.6C253.1,255.6,251.5,256.2,250,256.2z"/>
		</g>
		<g>
			<path class="st0" d="M363.1,142.9c-1.5,0-3.1-0.6-4.2-1.8C329.8,112,291.2,96,250,96c-41.1,0-79.7,16-108.9,45.1
				c-2.3,2.3-6.1,2.3-8.5,0c-2.3-2.3-2.3-6.1,0-8.5C164,101.3,205.7,84,250,84c44.4,0,86.1,17.3,117.3,48.7c2.3,2.3,2.3,6.1,0,8.5
				C366.2,142.3,364.6,142.9,363.1,142.9z"/>
		</g>
		<g>
			<path class="st0" d="M363.1,369.1c-1.5,0-3.1-0.6-4.2-1.8c-2.3-2.3-2.3-6.1,0-8.5C388,329.8,404,291.2,404,250
				c0-41.1-16-79.7-45.1-108.9c-2.3-2.3-2.3-6.1,0-8.5c2.3-2.3,6.1-2.3,8.5,0C398.7,164,416,205.7,416,250
				c0,44.4-17.3,86.1-48.7,117.3C366.2,368.5,364.6,369.1,363.1,369.1z"/>
		</g>
		<g>
			<path class="st0" d="M250,416c-44.4,0-86.1-17.3-117.4-48.7c-2.3-2.3-2.3-6.1,0-8.5c2.3-2.3,6.1-2.3,8.5,0
				C170.2,388,208.8,404,250,404c41.1,0,79.7-16,108.9-45.1c2.3-2.3,6.1-2.3,8.5,0c2.3,2.3,2.3,6.1,0,8.5
				C336,398.7,294.3,416,250,416z"/>
		</g>
		<g>
			<path class="st0" d="M136.9,369.1c-1.5,0-3.1-0.6-4.2-1.8C101.3,336,84,294.3,84,250c0-44.4,17.3-86.1,48.7-117.4
				c2.3-2.3,6.1-2.3,8.5,0c2.3,2.3,2.3,6.1,0,8.5C112,170.2,96,208.8,96,250c0,41.1,16,79.7,45.1,108.9c2.3,2.3,2.3,6.1,0,8.5
				C140,368.5,138.4,369.1,136.9,369.1z"/>
		</g>
	</g>
	<path class="st1" d="M0,500"/>
</g>
</svg>
