<?xml version="1.0" encoding="utf-8"?>
<!-- Generator: Adobe Illustrator 27.5.0, SVG Export Plug-In . SVG Version: 6.00 Build 0)  -->
<svg version="1.1" id="Layer_1" xmlns="http://www.w3.org/2000/svg" xmlns:xlink="http://www.w3.org/1999/xlink" x="0px" y="0px"
	 viewBox="0 0 500 500" style="enable-background:new 0 0 500 500;" xml:space="preserve">
<style type="text/css">
	.st0{clip-path:url(#SVGID_00000065783806252419765290000004261576013758668968_);}
	.st1{fill:#FFFFFF;}
	.st2{display:none;fill:#FFFFFF;}
</style>
<g>
	<g>
		<g>
			<g>
				<defs>
					<rect id="SVGID_1_" width="500" height="500"/>
				</defs>
				<clipPath id="SVGID_00000023966092154271522710000008263375491601920700_">
					<use xlink:href="#SVGID_1_"  style="overflow:visible;"/>
				</clipPath>
				<g style="clip-path:url(#SVGID_00000023966092154271522710000008263375491601920700_);">
					<g>
						<path class="st1" d="M415,421H250c-94.3,0-171-76.7-171-171S155.7,79,250,79s171,76.7,171,171v165
							C421,418.3,418.3,421,415,421z M250,91c-87.7,0-159,71.3-159,159s71.3,159,159,159h159V250C409,162.3,337.7,91,250,91z"/>
					</g>
					<g>
						<g>
							<path class="st1" d="M250.1,293.7c-3.3,0-6-2.7-6-6v-33.2c0-5,0-9.8,0-15.5c0-8.3-0.1-18.4-0.1-33.8c0-11.2,0-20.6,0-27.3
								c0-3.3,0-6,0-7.8c0-0.9,0-1.7,0-2.1c0.1-6.5,5.8-6.6,6-6.6c3.3,0,6,2.7,6,6c0,0.2,0,0.4,0,0.6c-0.1,2.2-0.1,18.5-0.1,37.2
								c0,15.4,0,25.5,0.1,33.8c0,5.7,0,10.5,0,15.5v33.2C256.1,291,253.4,293.7,250.1,293.7z M256,168.2c-0.4,2.9-2.9,5.2-5.9,5.2
								C253.5,173.4,255.7,170.8,256,168.2z"/>
						</g>
						<g>
							<path class="st1" d="M262.6,329c0,6.3-5.1,11.5-11.5,11.5s-11.5-5.1-11.5-11.5s5.1-11.5,11.5-11.5S262.6,322.7,262.6,329z"/>
						</g>
					</g>
					<g>
						<g>
							<path class="st2" d="M0,500"/>
						</g>
						<g>
							<path class="st1" d="M0,500"/>
						</g>
						<g>
							<path class="st1" d="M0,500"/>
						</g>
						<g>
							<path class="st1" d="M0,500"/>
						</g>
						<g>
							<path class="st1" d="M0,500"/>
						</g>
						<g>
							<path class="st1" d="M0,500"/>
						</g>
						<g>
							<path class="st1" d="M0,500"/>
						</g>
						<g>
							<path class="st1" d="M0,500"/>
						</g>
						<g>
							<path class="st1" d="M0,500"/>
						</g>
						<g>
							<path class="st1" d="M0,500"/>
						</g>
						<g>
							<path class="st1" d="M0,500"/>
						</g>
						<g>
							<path class="st1" d="M0,500"/>
						</g>
					</g>
				</g>
			</g>
		</g>
	</g>
</g>
</svg>
