<?xml version="1.0" encoding="utf-8"?>
<!-- Generator: Adobe Illustrator 27.5.0, SVG Export Plug-In . SVG Version: 6.00 Build 0)  -->
<svg version="1.1" id="Layer_1" xmlns="http://www.w3.org/2000/svg" xmlns:xlink="http://www.w3.org/1999/xlink" x="0px" y="0px"
	 viewBox="0 0 500 500" style="enable-background:new 0 0 500 500;" xml:space="preserve">
<style type="text/css">
	.st0{fill:#FFFFFF;}
	.st1{fill:none;stroke:#FFFFFF;stroke-width:12;stroke-linecap:round;stroke-linejoin:round;}
</style>
<g>
	<g>
		<path class="st0" d="M259.8,236.3h-170c-3.3,0-6-2.7-6-6v-70.2c0.1-42,34.3-76.2,76.3-76.2h99.7c42,0,76.2,34.2,76.2,76.2
			S301.8,236.3,259.8,236.3z M95.8,224.3h164c35.4,0,64.2-28.8,64.2-64.2s-28.8-64.2-64.2-64.2h-99.7c-35.4,0-64.2,28.8-64.3,64.2
			L95.8,224.3L95.8,224.3z"/>
		<path class="st0" d="M207,197.6c-19.9,0-36-16.8-36-37.5s16.1-37.5,36-37.5s36,16.8,36,37.5c0,7.8-2.3,15.1-6.3,21.1l6.3,5.8
			c2.4,2.2,2.6,6,0.4,8.5c-2.2,2.4-6,2.6-8.5,0.4l-6.3-5.8C222.6,194.8,215.1,197.6,207,197.6z M207,134.6c-13.2,0-24,11.4-24,25.5
			s10.8,25.5,24,25.5c4.6,0,8.9-1.4,12.6-3.8l-5.6-5.2c-2.4-2.2-2.6-6-0.4-8.5c2.2-2.4,6-2.6,8.5-0.4l5.7,5.2
			c2.1-3.8,3.3-8.2,3.3-12.9C231,146,220.2,134.6,207,134.6z"/>
		<path class="st0" d="M410.2,413.2h-170c-42,0-76.2-34.2-76.2-76.2s34.2-76.2,76.2-76.2h99.7c42,0,76.2,34.2,76.3,76.2v70.2
			C416.2,410.5,413.5,413.2,410.2,413.2z M240.2,272.8c-35.4,0-64.2,28.8-64.2,64.2s28.8,64.2,64.2,64.2h164V337
			c-0.1-35.4-28.9-64.2-64.3-64.2H240.2z"/>
		<path class="st0" d="M319.6,374.4c-2.3,0-4.6-1.4-5.5-3.7l-5-11.9h-33.7l-5.4,12c-1.4,3-4.9,4.4-7.9,3s-4.4-4.9-3-7.9l28.5-62.7
			c1-2.1,3.1-3.5,5.5-3.5c0,0,0,0,0.1,0c2.4,0,4.5,1.5,5.4,3.6l19.7,46.3c0.4,0.6,0.7,1.2,0.8,1.9l6.2,14.5c1.3,3-0.1,6.6-3.2,7.9
			C321.2,374.2,320.4,374.4,319.6,374.4z M280.8,346.9H304l-11.2-26.3L280.8,346.9z"/>
	</g>
	<g>
		<path class="st1" d="M0,500"/>
	</g>
</g>
</svg>
