<?xml version="1.0" encoding="utf-8"?>
<!-- Generator: Adobe Illustrator 27.5.0, SVG Export Plug-In . SVG Version: 6.00 Build 0)  -->
<svg version="1.1" id="Layer_1" xmlns="http://www.w3.org/2000/svg" xmlns:xlink="http://www.w3.org/1999/xlink" x="0px" y="0px"
	 viewBox="0 0 500 500" style="enable-background:new 0 0 500 500;" xml:space="preserve">
<style type="text/css">
	.st0{fill:#FFFFFF;}
	.st1{fill:none;stroke:#FFFFFF;stroke-width:12;stroke-linecap:round;stroke-linejoin:round;}
</style>
<g>
	<g>
		<g>
			<path class="st0" d="M168.3,275.6H149c-28.3,0-51.3-23-51.3-51.3v-22.2c0-3.3,2.7-6,6-6s6,2.7,6,6v22.2
				c0,21.7,17.6,39.3,39.3,39.3h19.3c3.3,0,6,2.7,6,6S171.6,275.6,168.3,275.6z"/>
		</g>
		<g>
			<path class="st0" d="M100.8,208.8c-2.5,0-4.8-1.6-5.7-4.1c-0.2-0.6-5.2-15.3-7.1-32c-2.8-24.1,2.2-40,14.7-47.1
				c4.7-2.7,11.6-2.5,16.2,0.5c3,1.9,5.8,4.5,8.1,6.6c0.9,0.8,1.7,1.6,2.4,2.1c0.7,0.6,1.5,0.8,2.4,0.8c1.6-0.1,5.6-0.6,9.6-2.8
				c0.2-0.1,0.4-0.2,0.7-0.3c21.5-8.5,40.9-7.5,53.2,3c2.5,2.1,2.8,5.9,0.7,8.5c-2.1,2.5-5.9,2.8-8.5,0.7
				c-8.7-7.4-23.6-7.8-40.7-1.1c-5.8,3.1-11.5,3.9-14.4,4h-0.1c-3.9,0.2-7.6-1.1-10.6-3.6c-0.8-0.7-1.8-1.6-2.8-2.5
				c-2-1.8-4.4-4-6.6-5.4c-0.8-0.5-2.9-0.6-3.7-0.1c-14.9,8.5-8.6,42.7-3.8,59.6c47.8-11.6,56.3-39.2,56.6-40.4
				c0.5-1.7,1.8-3.2,3.4-3.9c1.7-0.7,3.5-0.7,5.1,0.2c5.5,2.9,10.5,6.4,14.6,10.4c2.4,2.3,2.4,6.1,0.1,8.5s-6.1,2.4-8.5,0.1
				c-1.9-1.8-4-3.5-6.2-5.1c-6.1,11.5-23.4,33.9-68.1,43.1C101.6,208.8,101.2,208.8,100.8,208.8z"/>
		</g>
	</g>
	<g>
		<g>
			<path class="st0" d="M160.5,306.6H150c-16.2,0-29.4-13.2-29.4-29.4v-10.6c0-3.3,2.7-6,6-6c3.3,0,6,2.7,6,6v10.6
				c0,9.6,7.8,17.4,17.4,17.4h10.5c3.3,0,6,2.7,6,6S163.8,306.6,160.5,306.6z"/>
		</g>
		<g>
			<path class="st1" d="M175.3,277.2"/>
		</g>
		<g>
			<path class="st0" d="M142.2,388.9c-13.1,0-20.8-2.8-29-5.9c-7.3-2.7-14.9-5.5-28-6.5H71.1c-9.5,0-17.3-7.8-17.3-17.3v-23.3
				c0-35.4,28.7-64.2,64.1-64.3l6.4-0.4c3.3-0.2,6.2,2.3,6.4,5.6c0.2,3.3-2.3,6.2-5.6,6.4l-6.6,0.4c-0.1,0-0.2,0-0.4,0
				c-28.8,0-52.3,23.5-52.3,52.3v23.3c0,2.9,2.4,5.3,5.3,5.3h14.4c0.2,0,0.3,0,0.5,0c14.9,1.2,23.7,4.4,31.4,7.3
				c7.4,2.7,13.8,5.1,24.8,5.1c3.3,0,6,2.7,6,6S145.5,388.9,142.2,388.9z"/>
		</g>
	</g>
	<g>
		<g>
			<path class="st0" d="M351.1,275.7H350c-6.9,0-13.7-1.2-20.1-3.5c-3.1-1.1-4.7-4.5-3.6-7.7c1.1-3.1,4.5-4.7,7.7-3.6
				c5.1,1.8,10.5,2.8,16.1,2.8h1.1c21.7,0,39.3-17.6,39.3-39.3v-24.9c0-3.3,2.7-6,6-6s6,2.7,6,6v24.9
				C402.4,252.7,379.4,275.7,351.1,275.7z"/>
		</g>
		<g>
			<path class="st0" d="M396.4,207.7c-1.1,0-2.1-0.3-3-0.8c-2-1.1-3.1-3.3-2.9-5.6c0.1-0.9,0.9-22-19.3-36
				c-4.6,8.8-15.7,23.8-40.4,34.5c-3,1.3-6.6-0.1-7.9-3.1s0.1-6.6,3.1-7.9c30.4-13.3,36.4-33,36.6-33.8c0.5-1.7,1.8-3.2,3.4-3.9
				c1.7-0.7,3.5-0.7,5.1,0.2c12.5,6.5,20,15.1,24.5,23.4c0-0.3,0-0.5,0-0.8c0-4.1-0.1-8.3,0-12.8c0.2-7.4-2.9-13.7-8.7-17.7
				c-8.9-6.2-23.2-6.2-39.2,0.1c-5.8,3.1-11.5,3.9-14.4,4h-0.1c-3.9,0.2-7.6-1.1-10.6-3.6c-0.8-0.7-1.8-1.6-2.8-2.5
				c-2-1.8-4.4-4-6.6-5.4c-0.8-0.5-2.9-0.6-3.7-0.1c-2.9,1.6-6.5,0.6-8.2-2.2c-1.6-2.9-0.6-6.5,2.2-8.2c4.7-2.7,11.6-2.5,16.2,0.5
				c3,1.9,5.8,4.5,8.1,6.6c0.9,0.8,1.7,1.6,2.4,2.1c0.7,0.6,1.5,0.8,2.4,0.8c1.6-0.1,5.6-0.6,9.6-2.8c0.2-0.1,0.4-0.2,0.7-0.3
				c20.2-8,38.3-7.6,50.8,1.1c9,6.3,14.1,16.4,13.8,27.8c-0.1,4.3,0,8.4,0,12.4c0.2,15.4,0.3,27.6-7.9,32.9
				C398.7,207.4,397.5,207.7,396.4,207.7z"/>
		</g>
	</g>
	<g>
		<g>
			<path class="st0" d="M351,306.6h-9.5c-3.3,0-6-2.7-6-6s2.7-6,6-6h9.5c9.6,0,17.4-7.8,17.4-17.4v-14c0-3.3,2.7-6,6-6s6,2.7,6,6v14
				C380.4,293.4,367.2,306.6,351,306.6z"/>
		</g>
		<g>
			<path class="st0" d="M359.5,388.9c-3.3,0-6-2.7-6-6s2.7-6,6-6c10.9,0,17.2-2.4,24.4-5.1c7.6-2.9,16.2-6.1,31.2-7.3
				c0.2,0,0.3,0,0.5,0H430c2.9,0,5.3-2.4,5.3-5.3v-23.3c0-28.8-23.5-52.3-52.3-52.3c-0.1,0-0.2,0-0.4,0l-6.6-0.4
				c-3.3-0.2-5.8-3-5.6-6.4c0.2-3.3,3.1-5.8,6.4-5.6l6.4,0.4c35.4,0.1,64.1,28.9,64.1,64.3v23.3c0,9.5-7.8,17.3-17.3,17.3h-14.2
				c-13.1,1-20.5,3.8-27.6,6.5C380.5,385.9,372.6,388.9,359.5,388.9z"/>
		</g>
	</g>
	<g>
		<path class="st0" d="M172.5,292.5c-3.2,0-5.8-2.5-6-5.7c0-0.8-0.1-1.9-0.2-3.2c-0.6-11.2-2.2-41,1.3-72.6
			c4.5-40.3,15.5-70,32.7-88.2c13.3-14,30.1-21.1,50.1-21.1h0.9c20,0,36.9,7.1,50.2,21.1c17.2,18.2,28.2,47.8,32.7,88.1
			c3.5,31.6,1.9,61.4,1.3,72.7c-0.1,1.3-0.1,2.4-0.2,3.2c-0.1,3.3-3,5.9-6.3,5.7c-3.3-0.1-5.9-2.9-5.7-6.3c0-0.9,0.1-2,0.2-3.3
			c5-93.5-14-134.2-30.7-151.9c-11.1-11.7-24.6-17.4-41.5-17.4h-0.9c-16.8,0-30.4,5.7-41.4,17.3c-16.7,17.7-35.7,58.3-30.7,151.9
			c0.1,1.3,0.1,2.4,0.2,3.3c0.1,3.3-2.4,6.1-5.7,6.3C172.7,292.5,172.6,292.5,172.5,292.5z"/>
	</g>
	<g>
		<g>
			<path class="st0" d="M251.7,272.6h-1.3c-33.6,0-61-27.4-61-61v-27c0-3.3,2.7-6,6-6s6,2.7,6,6v27c0,27,22,49,49,49h1.3
				c27,0,49-22,49-49v-30.2c0-3.3,2.7-6,6-6s6,2.7,6,6v30.2C312.7,245.2,285.3,272.6,251.7,272.6z"/>
		</g>
		<g>
			<path class="st0" d="M191.8,191.3c-1.3,0-2.7-0.5-3.7-1.3c-1.3-1.1-2.1-2.6-2.3-4.3c-0.1-1.3-1.9-31.2,1.8-44.9
				c0.9-3.2,4.2-5.1,7.4-4.2c3.2,0.9,5.1,4.2,4.2,7.4c-2.1,7.7-2.1,23.5-1.7,34c30.2-7.5,47.3-20.3,56.4-29.9
				c10.2-10.7,12.8-19.9,12.8-20c0.5-1.8,1.8-3.2,3.5-3.9c1.7-0.7,3.6-0.6,5.2,0.2c11.3,6.2,20.8,16.5,27.4,27.4
				c0-0.9-0.1-1.8-0.1-2.7c-0.1-2.1-0.1-4.2-0.2-6.5c-0.1-3.3,2.5-6.1,5.8-6.2c3.4-0.1,6.1,2.5,6.2,5.8c0.1,2.2,0.1,4.4,0.2,6.5
				c0.7,21.3,1,32.1-3,38.6c-1.5,2.4-4.4,3.5-7,2.6c-2.7-0.9-4.3-3.5-4.1-6.3l0,0c0,0,0-0.7,0-1.9c0-0.1,0-0.2,0-0.3
				c0-12.2-10.7-31.9-25.3-42.9c-6.6,13.1-26.1,40-78.5,51.9c-1.1,0.3-2.5,0.6-4,0.9C192.5,191.3,192.1,191.3,191.8,191.3z"/>
		</g>
	</g>
	<g>
		<g>
			<path class="st0" d="M266,410.1h-30.1c-15.6,0-23.7-3.6-31.6-7c-7.5-3.3-15.2-6.7-31.1-8h-17.1c-10.8,0-19.6-8.8-19.6-19.6v-28
				c0-41.9,34.1-76,76-76.1l2.3-0.1v-11.6c0-3.3,2.7-6,6-6s6,2.7,6,6V277c0,3.2-2.5,5.8-5.7,6l-8.2,0.4c-0.1,0-0.2,0-0.3,0
				c-35.3,0-64.1,28.8-64.1,64.1v28c0,4.2,3.4,7.6,7.6,7.6h17.3c0.2,0,0.3,0,0.5,0c18.1,1.4,27.2,5.4,35.2,9c7.6,3.4,13.6,6,26.7,6
				H266c13.1,0,19.1-2.7,26.8-6c8-3.5,17.1-7.5,35.1-9c0.2,0,0.3,0,0.5,0h17.3c4.2,0,7.6-3.4,7.6-7.6v-28
				c0-35.3-28.8-64.1-64.1-64.1c-0.1,0-0.2,0-0.3,0l-8.2-0.4c-3.2-0.2-5.7-2.8-5.7-6v-17c0-3.3,2.7-6,6-6s6,2.7,6,6v11.3l2.3,0.1
				c41.9,0.1,76,34.2,76,76.1v28c0,10.8-8.8,19.6-19.6,19.6h-17.1c-15.8,1.3-23.6,4.7-31,8C289.8,406.5,281.6,410.1,266,410.1z"/>
		</g>
		<g>
			<path class="st0" d="M249.4,322.2c-30.2,0-54.8-19-56.1-43.2c-0.2-3.3,2.4-6.1,5.7-6.3c3.3-0.1,6.1,2.4,6.3,5.7
				c0.9,17.8,20.3,31.8,44.1,31.8c23.6,0,43.4-14.5,44.1-32.2c0.1-3.3,2.9-5.9,6.2-5.8c3.3,0.1,5.9,2.9,5.8,6.2
				C304.6,303,279.9,322.2,249.4,322.2z"/>
		</g>
		<g>
			<path class="st0" d="M250.4,345.9c-1.6,0-3.1-0.6-4.2-1.8c-1.1-1.1-1.8-2.7-1.8-4.2c0-0.4,0-0.8,0.1-1.2c0.1-0.4,0.2-0.8,0.3-1.1
				c0.1-0.4,0.3-0.7,0.5-1s0.5-0.6,0.8-0.9s0.6-0.5,0.9-0.8c0.3-0.2,0.7-0.4,1-0.6c0.4-0.1,0.7-0.3,1.1-0.3c0.8-0.2,1.6-0.2,2.3,0
				c0.4,0.1,0.8,0.2,1.1,0.3c0.4,0.2,0.7,0.3,1,0.6c0.3,0.2,0.6,0.5,0.9,0.8c0.3,0.3,0.5,0.6,0.8,0.9c0.2,0.3,0.4,0.7,0.5,1
				c0.2,0.4,0.3,0.8,0.3,1.1c0.1,0.4,0.1,0.8,0.1,1.2c0,1.6-0.6,3.1-1.8,4.2c-0.3,0.3-0.6,0.5-0.9,0.8c-0.3,0.2-0.7,0.4-1,0.5
				c-0.4,0.2-0.7,0.3-1.1,0.3C251.2,345.9,250.8,345.9,250.4,345.9z"/>
		</g>
		<g>
			<path class="st0" d="M250.4,368.4c-0.4,0-0.8,0-1.2-0.1s-0.8-0.2-1.1-0.3c-0.4-0.1-0.7-0.3-1-0.5s-0.6-0.5-0.9-0.8
				c-1.1-1.1-1.8-2.7-1.8-4.2c0-0.4,0-0.8,0.1-1.2c0.1-0.4,0.2-0.8,0.3-1.1c0.1-0.4,0.3-0.7,0.5-1s0.5-0.6,0.8-0.9s0.6-0.5,0.9-0.8
				c0.3-0.2,0.7-0.4,1-0.6c0.4-0.1,0.8-0.3,1.1-0.3c0.8-0.2,1.6-0.2,2.3,0c0.4,0.1,0.8,0.2,1.1,0.3c0.4,0.2,0.7,0.3,1,0.6
				c0.3,0.2,0.6,0.5,0.9,0.8c0.3,0.3,0.5,0.6,0.8,0.9c0.2,0.3,0.4,0.7,0.5,1c0.2,0.4,0.3,0.7,0.3,1.1c0.1,0.4,0.1,0.8,0.1,1.2
				c0,0.4,0,0.8-0.1,1.2c-0.1,0.4-0.2,0.8-0.3,1.1c-0.1,0.4-0.3,0.7-0.5,1s-0.5,0.6-0.8,0.9s-0.6,0.5-0.9,0.8
				c-0.3,0.2-0.7,0.4-1,0.5c-0.4,0.2-0.7,0.3-1.1,0.3C251.2,368.4,250.8,368.4,250.4,368.4z"/>
		</g>
		<g>
			<path class="st0" d="M250.4,390.9c-0.4,0-0.8,0-1.2-0.1s-0.8-0.2-1.1-0.3c-0.4-0.1-0.7-0.3-1-0.5s-0.6-0.5-0.9-0.8
				c-0.3-0.3-0.5-0.6-0.8-0.9c-0.2-0.3-0.4-0.7-0.5-1c-0.1-0.4-0.3-0.7-0.3-1.1c-0.1-0.4-0.1-0.8-0.1-1.2c0-1.6,0.6-3.1,1.8-4.2
				c1.1-1.1,2.7-1.8,4.2-1.8c1.6,0,3.1,0.6,4.2,1.8c1.1,1.1,1.8,2.7,1.8,4.2c0,0.4,0,0.8-0.1,1.2c-0.1,0.4-0.2,0.8-0.3,1.1
				c-0.1,0.4-0.3,0.7-0.5,1s-0.5,0.6-0.8,0.9s-0.6,0.5-0.9,0.8c-0.3,0.2-0.7,0.4-1,0.5c-0.4,0.2-0.7,0.3-1.1,0.3
				C251.2,390.9,250.8,390.9,250.4,390.9z"/>
		</g>
	</g>
	<g>
		<path class="st1" d="M0,500"/>
	</g>
</g>
</svg>
