<?xml version="1.0" encoding="utf-8"?>
<!-- Generator: Adobe Illustrator 27.5.0, SVG Export Plug-In . SVG Version: 6.00 Build 0)  -->
<svg version="1.1" id="Layer_1" xmlns="http://www.w3.org/2000/svg" xmlns:xlink="http://www.w3.org/1999/xlink" x="0px" y="0px"
	 viewBox="0 0 500 500" style="enable-background:new 0 0 500 500;" xml:space="preserve">
<style type="text/css">
	.st0{fill:#FFFFFF;}
	.st1{display:none;fill:none;stroke:#FFFFFF;stroke-width:12;stroke-linecap:round;stroke-linejoin:round;}
	.st2{fill:none;stroke:#FFFFFF;stroke-width:12;stroke-linecap:round;stroke-linejoin:round;}
</style>
<g>
	<g>
		<path class="st0" d="M404.1,400.6H134.7c-24.7,0-44.8-20.1-44.8-44.8S110,311,134.7,311s44.8,20.1,44.8,44.8c0,3.3-2.7,6-6,6
			s-6-2.7-6-6c0-18.1-14.7-32.8-32.8-32.8s-32.8,14.7-32.8,32.8s14.7,32.8,32.8,32.8h263.4V122H173.5c-3.3,0-6-2.7-6-6s2.7-6,6-6
			h230.6c3.3,0,6,2.7,6,6v278.6C410.1,397.9,407.4,400.6,404.1,400.6z"/>
	</g>
	<g>
		<path class="st0" d="M330.7,366.8h-90.6c-3.3,0-6-2.7-6-6s2.7-6,6-6h90.6c3.3,0,6,2.7,6,6S334,366.8,330.7,366.8z M352.3,335.4
			h-26.8c-3.3,0-6-2.7-6-6V213.9c0-3.3,2.7-6,6-6h26.8c3.3,0,6,2.7,6,6v115.5C358.3,332.7,355.6,335.4,352.3,335.4z M331.5,323.4
			h14.8V219.9h-14.8V323.4z M298.8,335.4H272c-3.3,0-6-2.7-6-6v-75.9c0-3.3,2.7-6,6-6h26.8c3.3,0,6,2.7,6,6v75.9
			C304.8,332.7,302.1,335.4,298.8,335.4z M278,323.4h14.8v-63.9H278V323.4z M245.3,335.4h-26.8c-3.3,0-6-2.7-6-6v-38
			c0-3.3,2.7-6,6-6h26.8c3.3,0,6,2.7,6,6v38C251.3,332.7,248.6,335.4,245.3,335.4z M224.5,323.4h14.8v-26h-14.8V323.4z M216.4,253.5
			c-0.1,0-0.1,0-0.2,0c-1.5,0-3.1-0.6-4.2-1.7c-2.3-2.3-2.4-6.1,0-8.5l0.1-0.1c0.6-0.6,1.3-1.1,2-1.3l121-81.9l-5.4-0.9
			c-3.3-0.6-5.5-3.7-4.9-6.9c0.6-3.3,3.6-5.5,6.9-4.9l20,3.4c1.6,0.3,3,1.1,3.9,2.4c0.7,1,1.1,2.2,1.1,3.5c0,0.5-0.1,1-0.2,1.5
			l-3.3,19.5c-0.6,3.3-3.6,5.5-6.9,4.9s-5.5-3.7-4.9-6.9l1-6l-122.6,83C218.7,253.2,217.6,253.5,216.4,253.5z"/>
	</g>
	<g>
		<g>
			<path class="st0" d="M173.5,359.3c-3.3,0-6-2.7-6-6V237.2c0-0.4,0-0.7,0-1.1c0-3.3,2.7-5.9,6-5.9l0,0c1.5,0,2.9,0.6,3.9,1.5
				c1.2,0.9,1.9,2.2,2.2,3.4c0.2,1,0.2,2.2-0.1,3.3l0.2,114.2c0.1,1.4-0.2,2.9-1.4,4.3C177.2,358.3,175.5,359.3,173.5,359.3z
				 M179.5,353.4L179.5,353.4L179.5,353.4z M179.5,353.4L179.5,353.4L179.5,353.4z M179.5,353.4L179.5,353.4L179.5,353.4z
				 M179.5,353.4L179.5,353.4L179.5,353.4z M179.5,353.4L179.5,353.4L179.5,353.4z M179.5,353.4L179.5,353.4L179.5,353.4z
				 M179.5,353.4L179.5,353.4L179.5,353.4z M179.5,353.4L179.5,353.4L179.5,353.4z M179.5,353.3
				C179.5,353.4,179.5,353.4,179.5,353.3C179.5,353.4,179.5,353.4,179.5,353.3z M179.5,353.3L179.5,353.3L179.5,353.3z M179.5,353.3
				L179.5,353.3L179.5,353.3z M179.5,353.3L179.5,353.3L179.5,353.3z M179.5,353.3L179.5,353.3L179.5,353.3z M179.5,353.3
				L179.5,353.3L179.5,353.3z"/>
		</g>
	</g>
	<g>
		<path class="st0" d="M173.5,361.8c-3.3,0-6-2.7-6-6c0-18.1-14.7-32.8-32.8-32.8s-32.8,14.7-32.8,32.8c0,3.3-2.7,6-6,6s-6-2.7-6-6
			V114.2c0-24.7,20.1-44.8,44.8-44.8s44.8,20.1,44.8,44.8v241.6C179.5,359.1,176.8,361.8,173.5,361.8z M134.7,81.4
			c-18.1,0-32.8,14.7-32.8,32.8v211.1c8.2-8.8,19.9-14.3,32.8-14.3s24.6,5.5,32.8,14.3V114.2C167.5,96.1,152.8,81.4,134.7,81.4z"/>
	</g>
	<g>
		<g>
			<path class="st1" d="M0,500"/>
		</g>
		<g>
			<path class="st2" d="M0,500"/>
		</g>
		<g>
			<path class="st2" d="M0,500"/>
		</g>
		<g>
			<path class="st2" d="M0,500"/>
		</g>
		<g>
			<path class="st2" d="M0,500"/>
		</g>
		<g>
			<path class="st2" d="M0,500"/>
		</g>
		<g>
			<path class="st2" d="M0,500"/>
		</g>
		<g>
			<path class="st2" d="M0,500"/>
		</g>
		<g>
			<path class="st2" d="M0,500"/>
		</g>
		<g>
			<path class="st2" d="M0,500"/>
		</g>
		<g>
			<path class="st2" d="M0,500"/>
		</g>
		<g>
			<path class="st2" d="M0,500"/>
		</g>
	</g>
</g>
</svg>
