<?xml version="1.0" encoding="utf-8"?>
<!-- Generator: Adobe Illustrator 27.5.0, SVG Export Plug-In . SVG Version: 6.00 Build 0)  -->
<svg version="1.1" id="Layer_1" xmlns="http://www.w3.org/2000/svg" xmlns:xlink="http://www.w3.org/1999/xlink" x="0px" y="0px"
	 viewBox="0 0 500 500" style="enable-background:new 0 0 500 500;" xml:space="preserve">
<style type="text/css">
	.st0{display:none;fill:none;stroke:#F84239;stroke-width:12;stroke-linecap:round;stroke-linejoin:round;}
	.st1{fill:#FFFFFF;}
	.st2{fill:none;stroke:#FFFFFF;stroke-width:12;stroke-linecap:round;stroke-linejoin:round;}
</style>
<path class="st0" d="M267.3,140.6c-4.5-7.7-14.3-12.3-23-9.5c-4.8,1.5-8.8,5.8-9.3,10.8c-2,19,33.2,9.2,32.7,28.6
	c-0.1,3.3-1.9,6.5-4.4,8.6s-5.8,3.3-9.1,3.7c-8.3,1.1-16.7-2.6-21.9-9.1 M250,195.7v-12.9 M250,130.3v-12.8 M316.7,156.6
	c0,36.8-29.9,66.7-66.7,66.7s-66.7-29.9-66.7-66.7s29.9-66.7,66.7-66.7S316.7,119.8,316.7,156.6z"/>
<g>
	<path class="st0" d="M0,500"/>
</g>
<g>
	<g>
		<g>
			<path class="st1" d="M250,229.3c-40.1,0-72.7-32.6-72.7-72.7s32.6-72.7,72.7-72.7s72.7,32.6,72.7,72.7S290.1,229.3,250,229.3z
				 M250,95.9c-33.5,0-60.7,27.2-60.7,60.7s27.2,60.7,60.7,60.7s60.7-27.2,60.7-60.7S283.5,95.9,250,95.9z M250,201.7
				c-3.3,0-6-2.7-6-6v-7.6c-6.3-1.6-12.1-5.3-16.4-10.6c-2.1-2.6-1.7-6.4,0.9-8.4s6.4-1.6,8.4,0.9c3.1,3.8,7.6,6.3,12.2,6.9
				c0.8-0.1,1.6-0.1,2.3,0.1c0.6,0,1.3-0.1,1.9-0.1c2.5-0.3,4.6-1.1,6-2.3c1.3-1.1,2.2-2.8,2.3-4.2c0.1-4.1-2.1-5.6-12.5-8.5
				c-8.6-2.4-21.7-6-20.2-20.6c0.7-7.2,6.1-13.6,13.5-15.9c0.5-0.2,1-0.3,1.5-0.4v-7.5c0-3.3,2.7-6,6-6s6,2.7,6,6v7.6
				c6.7,1.8,12.8,6.2,16.5,12.5c1.7,2.9,0.7,6.5-2.2,8.2s-6.5,0.7-8.2-2.2c-2.5-4.3-7.2-7.1-11.9-7.3c-0.2,0-0.5,0-0.8,0
				c-1.1,0-2.3,0.2-3.4,0.5c-2.7,0.9-4.9,3.3-5.2,5.7c-0.4,3.5,1,4.9,11.4,7.8c8.6,2.4,21.7,6,21.3,20.4c-0.1,4.9-2.6,9.7-6.5,13
				c-3,2.5-6.8,4.2-11.2,4.9v7.1C256,199,253.3,201.7,250,201.7z"/>
		</g>
		<g>
			<path class="st1" d="M348.2,349.4c-15.4,0-27.8-12-28.3-27.3l-0.7-20.9c-0.3-7.7,2.5-15,7.9-20.6s12.6-8.7,20.3-8.7h1.5
				c7.7,0,14.9,3.1,20.3,8.6c5.4,5.6,8.2,12.9,8,20.7l-0.7,20.9C376,337.4,363.6,349.4,348.2,349.4z M347.4,283.9
				c-4.4,0-8.6,1.8-11.7,5s-4.7,7.4-4.5,11.9l0.7,20.9c0.3,8.8,7.5,15.7,16.3,15.7s16-6.9,16.3-15.7l0.7-20.9
				c0.1-4.5-1.5-8.7-4.6-11.9c-3.1-3.2-7.2-5-11.7-5H347.4z"/>
		</g>
		<g>
			<path class="st1" d="M249,443.9c-10.6,0-21.2-2-31.3-6.1c-0.2-0.1-0.5-0.1-0.7-0.2c-3.4-1.4-6.9-2.3-10.3-2.7h-0.1l-13.8-1.6
				c-6.8-0.7-11.9-6.5-11.9-13.5v-13.9c-0.1-12.7,4.8-24.7,13.8-33.7c8.9-9,20.9-13.9,33.6-13.9h41.5c26.2,0,47.5,21.3,47.5,47.5
				v13.9c0,6.8-5.1,12.5-11.8,13.4h-0.1l-14.5,1.7c-3.5,0.4-6.8,1.3-9.9,2.6C270.7,441.7,259.8,443.9,249,443.9z M221.1,426.2
				c0.2,0.1,0.4,0.1,0.6,0.2c17.7,7.3,37.1,7.2,54.7-0.1c4-1.7,8.4-2.8,13.1-3.4l14.5-1.7c0.8-0.1,1.4-0.8,1.4-1.5v-13.9
				c0-19.6-15.9-35.5-35.5-35.5h-41.5c-9.5,0-18.4,3.7-25.1,10.4c-6.7,6.7-10.3,15.7-10.3,25.2v13.9c0,0.8,0.5,1.5,1.2,1.5l13.8,1.6
				C212.3,423.4,216.7,424.5,221.1,426.2z M304.7,427.2L304.7,427.2L304.7,427.2z M248.9,347.1c-19.3,0-35.1-15.2-35.8-34.6l-1-27.9
				c-0.2-9.9,3.4-19.2,10.3-26.2c6.8-7,15.9-10.8,25.6-10.8h1.9c9.8,0,19,3.9,25.8,11c6.8,7,10.3,16.3,10,26.1l-1,27.9
				C284,331.9,268.2,347.1,248.9,347.1z M248,259.6c-6.4,0-12.5,2.6-17,7.2c-4.6,4.7-7,10.9-6.9,17.5l1,27.8
				c0.5,12.9,10.9,23,23.8,23s23.3-10.1,23.8-23l1-27.9c0.2-6.5-2.1-12.6-6.6-17.3c-4.5-4.7-10.6-7.3-17.2-7.3L248,259.6L248,259.6z
				"/>
		</g>
		<g>
			<path class="st1" d="M348.2,349.4c-15.4,0-27.8-12-28.3-27.3l-0.7-20.9c-0.3-7.7,2.5-15,7.9-20.6s12.6-8.7,20.3-8.7h1.5
				c7.7,0,14.9,3.1,20.3,8.6c5.4,5.6,8.2,12.9,8,20.7l-0.7,20.9C376,337.4,363.6,349.4,348.2,349.4z M347.4,283.9
				c-4.4,0-8.6,1.8-11.7,5s-4.7,7.4-4.5,11.9l0.7,20.9c0.3,8.8,7.5,15.7,16.3,15.7s16-6.9,16.3-15.7l0.7-20.9
				c0.1-4.5-1.5-8.7-4.6-11.9c-3.1-3.2-7.2-5-11.7-5H347.4z"/>
		</g>
		<g>
			<path class="st1" d="M347.9,429.3c-8.5,0-17-1.7-25.1-4.9c-0.2-0.1-0.5-0.2-0.7-0.2c-2.3-1-5-1.7-7.8-2l-3.5-0.4
				c-3.1-0.3-5.5-2.9-5.5-6v-10c0-7.5-2.3-14.6-6.7-20.7c-1.4-1.9-1.5-4.5-0.3-6.5c6.9-11.8,19.8-19.2,33.5-19.2h32.8
				c10.4,0,20.2,4.1,27.5,11.4s11.3,17,11.2,27.3v11c0,6.2-4.6,11.3-10.6,11.9l-11.4,1.3c-2.6,0.3-5.1,1-7.5,2
				C365.3,427.6,356.6,429.3,347.9,429.3z M326.3,412.9c0.2,0.1,0.4,0.1,0.6,0.2c13.7,5.6,28.4,5.6,42.2,0c3.3-1.4,6.9-2.3,10.6-2.8
				l11.5-1.3v-11l0,0c0-7.1-2.7-13.7-7.7-18.8c-5.1-5.1-11.8-7.9-19-7.9h-32.8c-8.4,0-16,3.8-21.1,10.3c4.3,7.3,6.6,15.6,6.6,24.1
				v4.6C320.5,410.9,323.5,411.7,326.3,412.9z M391.3,408.9L391.3,408.9L391.3,408.9z"/>
		</g>
		<g>
			<path class="st1" d="M151.9,349.4c-15.4,0-27.8-12-28.3-27.3l-0.7-20.9c-0.3-7.7,2.5-15,7.9-20.6s12.6-8.7,20.3-8.7h1.5
				c7.7,0,14.9,3.1,20.3,8.6c5.4,5.6,8.2,12.9,8,20.7l-0.7,20.9C179.7,337.4,167.3,349.4,151.9,349.4z M151.1,283.9
				c-4.4,0-8.6,1.8-11.7,5c-3.1,3.2-4.7,7.4-4.5,11.9l0.7,20.9c0.3,8.8,7.5,15.7,16.3,15.7s16-6.9,16.3-15.7l0.7-20.9
				c0.1-4.5-1.5-8.7-4.6-11.9c-3.1-3.2-7.2-5-11.7-5H151.1z"/>
		</g>
		<g>
			<path class="st1" d="M248.9,347.1c-19.3,0-35.1-15.2-35.8-34.6l-1-27.9c-0.2-9.9,3.4-19.2,10.3-26.2c6.8-7,15.9-10.8,25.6-10.8
				h1.9c9.8,0,19,3.9,25.8,11c6.8,7,10.3,16.3,10,26.1l-1,27.9C284,331.9,268.2,347.1,248.9,347.1z M248,259.6
				c-6.4,0-12.5,2.6-17,7.2c-4.6,4.7-7,10.9-6.9,17.5l1,27.8c0.5,12.9,10.9,23,23.8,23s23.3-10.1,23.8-23l1-27.9
				c0.2-6.5-2.1-12.6-6.6-17.3c-4.5-4.7-10.6-7.3-17.2-7.3L248,259.6L248,259.6z"/>
		</g>
		<g>
			<path class="st1" d="M249,443.9c-10.7,0-21.2-2.1-31.3-6.1c-0.2-0.1-0.5-0.1-0.7-0.2c-3.1-1.3-6.6-2.2-10.4-2.7l-13.8-1.6
				c-6.8-0.7-11.9-6.5-11.9-13.5v-13.9c0-10.8,3.5-21,10.2-29.4c9.1-11.5,22.7-18.1,37.3-18.1h41.5c15.2,0,29.5,7.3,38.4,19.6
				c5.8,8.1,8.9,17.7,8.9,27.7l0.1,9.9c0,0,0,0,0,0.1v4c0,6.8-5.1,12.5-11.8,13.4h-0.1l-14.5,1.7c-3.4,0.4-6.7,1.3-9.9,2.6
				C270.8,441.7,260.1,443.9,249,443.9z M221,426.2c0.2,0.1,0.4,0.1,0.6,0.2c8.7,3.6,18.1,5.5,27.3,5.5c9.4,0,18.7-1.9,27.4-5.5
				c4.3-1.7,8.6-2.9,13.1-3.4l14.5-1.7c0.8-0.1,1.4-0.8,1.4-1.5v-4l-0.1-10c0-7.5-2.3-14.7-6.7-20.8c-6.6-9.1-17.3-14.6-28.6-14.6
				h-41.5c-10.9,0-21.1,4.9-27.9,13.5c-5,6.3-7.6,13.9-7.6,22v13.9c0,0.8,0.5,1.5,1.2,1.5l13.9,1.6
				C212.7,423.5,217.1,424.6,221,426.2z"/>
		</g>
		<g>
			<path class="st1" d="M151.6,429.5c-8.5,0-17-1.7-25.1-4.9c-0.2-0.1-0.5-0.2-0.7-0.2c-2.3-1-5-1.7-7.8-2l-10.9-1.3
				c-6-0.8-10.5-5.9-10.5-11.9v-11c0-21.4,17.4-38.8,38.8-38.8h32.8c13.2,0,25.3,6.6,32.4,17.7c1.4,2.2,1.3,5-0.3,7
				c-5,6.3-7.6,13.9-7.6,22v10.2c0,3-2.3,5.6-5.3,6l-2.5,0.3c-2.6,0.3-5.2,1-7.5,2C169.1,427.8,160.4,429.5,151.6,429.5z M130,413.1
				c0.2,0.1,0.4,0.1,0.6,0.2c6.8,2.8,13.9,4.2,21,4.2c7.3,0,14.4-1.4,21.2-4.2c2.5-1,5.2-1.8,7.9-2.4v-5c0-9.2,2.6-18,7.5-25.6
				c-5-5.7-12.2-9-20-9h-32.8c-14.8,0-26.8,12-26.8,26.8v11l10.8,1.3C123.2,410.8,126.8,411.7,130,413.1z"/>
		</g>
	</g>
	<g>
		<path class="st2" d="M0,500"/>
	</g>
</g>
</svg>
