<?xml version="1.0" encoding="utf-8"?>
<!-- Generator: Adobe Illustrator 27.5.0, SVG Export Plug-In . SVG Version: 6.00 Build 0)  -->
<svg version="1.1" id="Layer_1" xmlns="http://www.w3.org/2000/svg" xmlns:xlink="http://www.w3.org/1999/xlink" x="0px" y="0px"
	 viewBox="0 0 500 500" style="enable-background:new 0 0 500 500;" xml:space="preserve">
<style type="text/css">
	.st0{clip-path:url(#SVGID_00000009577894454915838450000007562782872912096148_);}
	.st1{fill:#FFFFFF;}
	.st2{clip-path:url(#SVGID_00000131367470142382682650000014162084289871953544_);}
	.st3{fill:none;stroke:#FFFFFF;stroke-width:12.6;stroke-linecap:round;stroke-linejoin:round;}
	.st4{display:none;fill:none;stroke:#FFFFFF;stroke-width:12.6;stroke-linecap:round;stroke-linejoin:round;}
</style>
<g>
	<g>
		<g>
			<defs>
				<rect id="SVGID_1_" width="500" height="500"/>
			</defs>
			<clipPath id="SVGID_00000059268903036720321640000003705146129900336553_">
				<use xlink:href="#SVGID_1_"  style="overflow:visible;"/>
			</clipPath>
			<g style="clip-path:url(#SVGID_00000059268903036720321640000003705146129900336553_);">
				<g>
					<path class="st1" d="M134,422.6L134,422.6c-3.5,0-6.3-2.8-6.3-6.3l0.2-180.6c0-3.5,2.8-6.3,6.3-6.3l0,0c3.5,0,6.3,2.8,6.3,6.3
						l-0.2,180.6C140.3,419.8,137.5,422.6,134,422.6z"/>
				</g>
				<g>
					<g>
						<g>
							<defs>
								<rect id="SVGID_00000062175743108370393980000003839274568080512950_" width="500" height="500"/>
							</defs>
							<clipPath id="SVGID_00000062155751856957327800000017722391884475772093_">
								<use xlink:href="#SVGID_00000062175743108370393980000003839274568080512950_"  style="overflow:visible;"/>
							</clipPath>
							<g style="clip-path:url(#SVGID_00000062155751856957327800000017722391884475772093_);">
								<g>
									<path class="st1" d="M274.7,259.5c-0.1,0-0.1,0-0.2,0c-19.9,0-42.8-5.5-65-10.9c-28.8-6.9-58.5-14.1-72.3-5.6
										c-1.9,1.2-4.4,1.2-6.4,0.1c-2-1.1-3.2-3.2-3.2-5.5V75c0-3,2.2-5.6,5.2-6.2c32.5-5.9,59-0.7,84.7,4.4
										c17.6,3.5,35.8,7.1,56,7.1c37,0,98-15.9,98.7-16.1c2.4-0.6,5,0.2,6.6,2.3c1.5,2,1.7,4.7,0.5,6.9l-49.8,87.8l48.9,68.5
										c1.2,1.7,1.5,3.8,0.8,5.7s-2.2,3.4-4.1,4C372.3,240.2,308.1,259.5,274.7,259.5z M155.1,226.5c16.5,0,36.5,4.8,57.3,9.8
										c21.4,5.1,43.6,10.5,62.1,10.5c0.1,0,0.1,0,0.2,0c24.7,0,69.6-11.8,88.3-17.1l-46.1-64.5c-1.4-2-1.6-4.6-0.4-6.8l44.6-78.6
										c-20.8,4.8-59.9,13-87.6,13c-21.4,0-40.3-3.7-58.4-7.3c-24.1-4.8-47-9.3-74.8-5.2v147.9C144.8,227,149.8,226.5,155.1,226.5
										z"/>
								</g>
								<g>
									<path class="st3" d="M0,500"/>
								</g>
								<g>
									<path class="st3" d="M0,500"/>
								</g>
							</g>
						</g>
					</g>
				</g>
				<g>
					<g>
						<path class="st4" d="M0,500"/>
					</g>
					<g>
						<path class="st3" d="M0,500"/>
					</g>
					<g>
						<path class="st3" d="M0,500"/>
					</g>
					<g>
						<path class="st3" d="M0,500"/>
					</g>
					<g>
						<path class="st3" d="M0,500"/>
					</g>
					<g>
						<path class="st3" d="M0,500"/>
					</g>
					<g>
						<path class="st3" d="M0,500"/>
					</g>
					<g>
						<path class="st3" d="M0,500"/>
					</g>
					<g>
						<path class="st3" d="M0,500"/>
					</g>
					<g>
						<path class="st3" d="M0,500"/>
					</g>
					<g>
						<path class="st3" d="M0,500"/>
					</g>
					<g>
						<path class="st3" d="M0,500"/>
					</g>
				</g>
			</g>
		</g>
	</g>
</g>
</svg>
