<?xml version="1.0" encoding="utf-8"?>
<!-- Generator: Adobe Illustrator 27.5.0, SVG Export Plug-In . SVG Version: 6.00 Build 0)  -->
<svg version="1.1" id="Layer_1" xmlns="http://www.w3.org/2000/svg" xmlns:xlink="http://www.w3.org/1999/xlink" x="0px" y="0px"
	 viewBox="0 0 500 500" style="enable-background:new 0 0 500 500;" xml:space="preserve">
<style type="text/css">
	.st0{clip-path:url(#SVGID_00000072263376683154201520000017708431002903681434_);}
	.st1{fill:#FFFFFF;}
	.st2{display:none;fill:none;stroke:#FFFFFF;stroke-width:12;stroke-linecap:round;stroke-linejoin:round;}
	.st3{fill:none;stroke:#FFFFFF;stroke-width:12;stroke-linecap:round;stroke-linejoin:round;}
</style>
<g>
	<g>
		<g>
			<g>
				<defs>
					<rect id="SVGID_1_" width="500" height="500"/>
				</defs>
				<clipPath id="SVGID_00000074415063193295624060000012248080946428469641_">
					<use xlink:href="#SVGID_1_"  style="overflow:visible;"/>
				</clipPath>
				<g style="clip-path:url(#SVGID_00000074415063193295624060000012248080946428469641_);">
					<g>
						<g>
							<path class="st1" d="M254.4,348.6c-0.4,0-0.7,0-1.1-0.1c-1.9-0.4-3.5-1.6-4.3-3.3l-22.2-46.8c-1.4-3-0.1-6.6,2.8-8
								c3-1.4,6.6-0.1,8,2.8l15.6,32.8l22.8-75c1-3.2,4.3-5,7.5-4s5,4.3,4,7.5l-20.7,68.1l34-32.1c2.4-2.3,6.2-2.2,8.5,0.2
								c2.3,2.4,2.2,6.2-0.2,8.5L258.5,347C257.4,348,255.9,348.6,254.4,348.6z"/>
						</g>
						<g>
							<path class="st1" d="M362.3,376.3L362.3,376.3l-295-0.5c-3.3,0-6-2.7-6-6l-0.5-240.4c0-1.6,0.6-3.1,1.8-4.3
								c1.1-1.1,2.7-1.8,4.2-1.8l0,0l79.7,0.1c1.8,0,3.5,0.8,4.7,2.3l22.2,27.8l189.5,0.3c3.3,0,6,2.7,6,6c0,0.2,0,22.9,0.1,52.9
								c0,3.3-2.7,6-6,6l0,0c-3.3,0-6-2.7-6-6c-0.1-20.9-0.1-38.2-0.1-46.9l-186.4-0.3c-1.8,0-3.5-0.8-4.7-2.3l-22.2-27.8l-70.8-0.1
								l0.5,228.4l289,0.5c3.3,0,6,2.7,6,6C368.3,373.6,365.6,376.3,362.3,376.3z"/>
						</g>
						<g>
							<path class="st1" d="M362.8,376.4c-0.8,0-1.6-0.2-2.4-0.5c-3-1.3-4.4-4.9-3.1-7.9l63.8-146.2H138.2L72.3,371.9
								c-1.3,3-4.9,4.4-7.9,3.1s-4.4-4.9-3.1-7.9l67.5-153.7c1-2.2,3.1-3.6,5.5-3.6h296c2,0,3.9,1,5,2.7s1.3,3.8,0.5,5.7
								l-67.5,154.6C367.3,375.1,365.1,376.4,362.8,376.4z"/>
						</g>
					</g>
					<g>
						<g>
							<g>
								<path class="st2" d="M0,500"/>
							</g>
						</g>
						<g>
							<g>
								<path class="st3" d="M0,500"/>
							</g>
						</g>
						<g>
							<g>
								<path class="st3" d="M0,500"/>
							</g>
						</g>
						<g>
							<g>
								<path class="st3" d="M0,500"/>
							</g>
						</g>
						<g>
							<g>
								<path class="st3" d="M0,500"/>
							</g>
						</g>
						<g>
							<g>
								<path class="st3" d="M0,500"/>
							</g>
						</g>
						<g>
							<g>
								<path class="st3" d="M0,500"/>
							</g>
						</g>
						<g>
							<g>
								<path class="st3" d="M0,500"/>
							</g>
						</g>
						<g>
							<g>
								<path class="st3" d="M0,500"/>
							</g>
						</g>
						<g>
							<g>
								<path class="st3" d="M0,500"/>
							</g>
						</g>
						<g>
							<g>
								<path class="st3" d="M0,500"/>
							</g>
						</g>
						<g>
							<g>
								<path class="st3" d="M0,500"/>
							</g>
						</g>
					</g>
				</g>
			</g>
		</g>
	</g>
</g>
</svg>
