<?xml version="1.0" encoding="utf-8"?>
<!-- Generator: Adobe Illustrator 27.5.0, SVG Export Plug-In . SVG Version: 6.00 Build 0)  -->
<svg version="1.1" id="Layer_1" xmlns="http://www.w3.org/2000/svg" xmlns:xlink="http://www.w3.org/1999/xlink" x="0px" y="0px"
	 viewBox="0 0 500 500" style="enable-background:new 0 0 500 500;" xml:space="preserve">
<style type="text/css">
	.st0{clip-path:url(#SVGID_00000049194116822313898300000008658566189365957798_);}
	.st1{fill:#FFFFFF;}
</style>
<g>
	<g>
		<g>
			<g>
				<defs>
					<rect id="SVGID_1_" width="500" height="500"/>
				</defs>
				<clipPath id="SVGID_00000154414406404991540150000007643458528256966575_">
					<use xlink:href="#SVGID_1_"  style="overflow:visible;"/>
				</clipPath>
				<g style="clip-path:url(#SVGID_00000154414406404991540150000007643458528256966575_);">
					<g>
						<path class="st1" d="M402.2,351.7H114.8c-31.5,0-57.1-25.6-57.2-57.1l0,0l0,0c0,0,0,0,0-0.1v-34.1c0-3.3,2.7-6,6-6h36.1v-81.2
							L74,135.6c-1.3-1.8-1.4-4.2-0.3-6.2c1-2,3.1-3.2,5.3-3.2h111c2.2,0,4.3,1.2,5.3,3.2s0.9,4.3-0.3,6.2l-25.7,37.7v81.2h30.2
							v-62.3c0-3.3,2.7-6,6-6h30l-0.1-28.2c0-1.6,0.6-3.1,1.8-4.3c1.1-1.1,2.7-1.8,4.2-1.8h71.3c3.3,0,6,2.7,6,6v28.2H348
							c3.3,0,6,2.7,6,6v28.2h65.2c3.3,0,6,2.7,6,6v28.1h31.3c2.2,0,4.2,1.2,5.3,3.1c1.1,1.9,1,4.3-0.2,6.1l-54.3,85.3
							C406.2,350.7,404.3,351.7,402.2,351.7z M70,300.6c3,22,21.9,39.1,44.8,39.1h284.1l46.7-73.3h-25.3c-0.4,0.1-0.7,0.1-1.1,0.1
							H354v12.3c0,12-9.8,21.8-21.8,21.8H221.3c-12,0-21.8-9.8-21.8-21.8v-12.4H69.6v22.2h64.9c3.3,0,6,2.7,6,6s-2.7,6-6,6L70,300.6
							L70,300.6z M282.7,288.6h49.5c5.4,0,9.8-4.4,9.8-9.8v-12.4h-59.3V288.6z M211.5,266.4v12.4c0,5.4,4.4,9.8,9.8,9.8h49.4v-22.2
							L211.5,266.4L211.5,266.4z M354,254.4h59.2v-22.1H354V254.4z M282.7,254.4H342v-22.1h-59.3V254.4z M211.5,254.4h59.2v-22.1
							h-59.2L211.5,254.4L211.5,254.4z M111.7,254.4h45.6v-77h-45.6C111.7,177.4,111.7,254.4,111.7,254.4z M282.7,220.3H342v-22.2
							h-59.3V220.3z M211.5,220.3h59.2v-22.2h-59.2L211.5,220.3L211.5,220.3z M277.8,186.1h28.9v-22.2h-59.3l0.1,22.2h28.1
							C276.3,186,277.1,186,277.8,186.1z M108.9,165.4h51.3l18.5-27.2H90.3L108.9,165.4z M136.8,234.2h-4.5c-3.3,0-6-2.7-6-6
							s2.7-6,6-6h4.5c3.3,0,6,2.7,6,6S140.1,234.2,136.8,234.2z M136.8,206h-4.5c-3.3,0-6-2.7-6-6s2.7-6,6-6h4.5c3.3,0,6,2.7,6,6
							S140.1,206,136.8,206z"/>
					</g>
				</g>
			</g>
		</g>
	</g>
</g>
</svg>
