<?xml version="1.0" encoding="utf-8"?>
<!-- Generator: Adobe Illustrator 27.5.0, SVG Export Plug-In . SVG Version: 6.00 Build 0)  -->
<svg version="1.1" id="Layer_1" xmlns="http://www.w3.org/2000/svg" xmlns:xlink="http://www.w3.org/1999/xlink" x="0px" y="0px"
	 viewBox="0 0 500 500" style="enable-background:new 0 0 500 500;" xml:space="preserve">
<style type="text/css">
	.st0{fill:#FFFFFF;}
	.st1{display:none;fill:none;stroke:#FFFFFF;stroke-width:12;stroke-linecap:round;stroke-linejoin:round;}
	.st2{fill:none;stroke:#FFFFFF;stroke-width:12;stroke-linecap:round;stroke-linejoin:round;}
</style>
<g>
	<g>
		<g>
			<g>
				<path class="st0" d="M329.2,416.1c-4.3,0-8.5-0.3-12.7-1c-2.2-0.3-4-1.8-4.7-3.9l-7.7-21.5l-20.6,9.8c-2,0.9-4.4,0.7-6.2-0.6
					c-7-5.2-13-11.3-17.9-18c-1.3-1.8-1.5-4.1-0.6-6.1l9.8-20.6l-21.5-7.7c-2.1-0.7-3.6-2.5-3.9-4.7c-0.6-4.1-1-8.4-1-12.7
					c0-4.3,0.3-8.5,1-12.7c0.3-2.2,1.8-4,3.9-4.7l21.5-7.7l-9.8-20.6c-1-2-0.7-4.4,0.6-6.2c5.2-7,11.3-13,18-17.9
					c1.8-1.3,4.1-1.5,6.1-0.6l20.6,9.8l7.7-21.5c0.7-2.1,2.5-3.6,4.7-3.9c8.1-1.3,17-1.3,25.4,0c2.2,0.3,4,1.8,4.7,3.9l7.6,21.3
					l20.6-9.8c2-1,4.4-0.7,6.2,0.6c7,5.2,13,11.3,17.9,18c1.3,1.8,1.5,4.1,0.6,6.1l-9.8,20.6l21.5,7.7c2.1,0.7,3.6,2.5,3.9,4.7
					c0.6,4.1,1,8.4,1,12.7c0,4.1-0.3,8.2-0.8,12.7c-0.3,2.2-1.8,4.1-3.9,4.9l-21.5,7.7l9.8,20.6c1,2,0.7,4.4-0.6,6.2
					c-5.2,7-11.3,13-18,17.9c-1.8,1.3-4.1,1.5-6.1,0.6l-20.6-9.8l-7.7,21.5c-0.7,2.1-2.6,3.6-4.7,3.9
					C337.7,415.8,333.5,416.1,329.2,416.1z M321.8,403.7c4.9,0.5,9.9,0.5,14.8,0l8.7-24.2c0.6-1.6,1.8-2.9,3.4-3.5s3.3-0.6,4.9,0.1
					l23.3,11c3.8-3.1,7.3-6.6,10.5-10.5l-11-23.3c-0.7-1.5-0.8-3.3-0.1-4.9c0.6-1.6,1.9-2.8,3.5-3.4l24.2-8.6
					c0.2-2.6,0.4-5.1,0.4-7.5c0-2.5-0.1-5-0.4-7.4l-24.2-8.7c-1.6-0.6-2.9-1.8-3.5-3.4s-0.6-3.3,0.1-4.9l11-23.3
					c-3.1-3.8-6.6-7.3-10.5-10.5l-23.3,11c-1.5,0.7-3.3,0.8-4.9,0.1c-1.6-0.7-2.8-1.9-3.4-3.5l-8.6-24.1c-4.9-0.5-10-0.5-14.8,0
					l-8.7,24.2c-0.6,1.6-1.8,2.9-3.4,3.5s-3.3,0.6-4.9-0.1l-23.3-11c-3.8,3.1-7.3,6.6-10.5,10.5l11,23.3c0.7,1.5,0.8,3.3,0.1,4.9
					c-0.6,1.6-1.9,2.8-3.5,3.4l-24.2,8.7c-0.3,2.5-0.4,4.9-0.4,7.4s0.1,5,0.4,7.4l24.2,8.7c1.6,0.6,2.9,1.8,3.5,3.4s0.6,3.3-0.1,4.9
					l-11,23.3c3.1,3.8,6.6,7.3,10.5,10.5l23.3-11c1.5-0.7,3.3-0.8,4.9-0.1c1.6,0.6,2.8,1.9,3.4,3.5L321.8,403.7z M409.3,340.9
					L409.3,340.9L409.3,340.9z"/>
			</g>
			<g>
				<path class="st0" d="M329.2,361.9c-18.1,0-32.9-14.8-32.9-32.9s14.8-32.9,32.9-32.9s32.9,14.8,32.9,32.9
					S347.3,361.9,329.2,361.9z M329.2,308.1c-11.5,0-20.9,9.4-20.9,20.9s9.4,20.9,20.9,20.9s20.9-9.4,20.9-20.9
					S340.7,308.1,329.2,308.1z"/>
			</g>
		</g>
		<g>
			<g>
				<path class="st0" d="M196.4,309.5c-6.2,0-12.3-0.5-18.1-1.4c-6.4-0.9-13.1-2.5-19.7-4.9c-2.1-0.7-3.7-2.6-4-4.9l-2.2-16.6
					l-14.7,8c-2,1.1-4.4,1-6.3-0.3c-11-7.7-20.6-17.3-28.4-28.5c-1.3-1.9-1.4-4.3-0.3-6.3l8-14.8l-16.6-2.2c-2.3-0.3-4.2-1.8-4.9-4
					c-4.4-12.9-6.5-26.3-6.2-39.8c0.1-2.3,1.4-4.3,3.4-5.3l15.1-7.2l-12.2-11.5c-1.6-1.6-2.3-3.9-1.6-6.1
					c4-13.1,10.1-25.2,18.3-35.9c1.4-1.8,3.6-2.7,5.9-2.3l16.5,3.1l-3.1-16.5c-0.4-2.2,0.5-4.5,2.3-5.9c10.9-8.3,23-14.4,35.8-18.3
					c2.2-0.7,4.5,0,6.1,1.6l11.6,12.2l7.2-15.2c1-2.1,3-3.4,5.3-3.4c6.9-0.1,13.7,0.4,20.1,1.4c6.5,1,13.2,2.7,19.6,5
					c2.1,0.7,3.7,2.6,4,4.9l2.2,16.6l14.7-8c2-1.1,4.5-1,6.3,0.4c11.2,7.9,20.7,17.4,28.4,28.5c1.3,1.9,1.4,4.3,0.3,6.3l-8,14.7
					l16.6,2.2c2.3,0.3,4.1,1.8,4.9,4c4.5,12.8,6.5,26.2,6.2,39.8c-0.1,2.3-1.4,4.3-3.4,5.3l-15.1,7.2l12.2,11.5
					c1.6,1.6,2.3,3.9,1.6,6.1c-4,13.1-10.1,25.2-18.3,35.9c-1.4,1.8-3.6,2.7-5.9,2.3l-16.5-3.1l3.1,16.5c0.4,2.2-0.5,4.5-2.3,5.9
					c-10.8,8.2-22.8,14.4-35.8,18.3c-2.2,0.7-4.5,0-6.1-1.6L211,290.9l-7.2,15.2c-1,2.1-3,3.4-5.3,3.4
					C197.7,309.5,197.1,309.5,196.4,309.5z M166.1,293.1c4.7,1.5,9.4,2.5,14,3.2h0.1c4.6,0.7,9.4,1.1,14.4,1.2l9.4-19.7
					c0.9-1.8,2.5-3,4.5-3.3s3.9,0.4,5.3,1.8l15,15.9c9.1-3.1,17.7-7.5,25.5-13l-4-21.4c-0.4-1.9,0.3-3.9,1.7-5.3
					c1.4-1.4,3.4-2,5.3-1.7l21.4,4c5.5-7.8,9.9-16.4,13-25.6l-15.8-14.9c-1.4-1.4-2.1-3.3-1.8-5.3s1.6-3.6,3.3-4.5L297,195
					c-0.1-9.7-1.6-19.2-4.4-28.4l-21.6-2.8c-2-0.3-3.7-1.5-4.6-3.2c-0.9-1.8-0.9-3.9,0.1-5.6l10.4-19.1
					c-5.8-7.7-12.6-14.5-20.3-20.4l-19.1,10.4c-1.7,0.9-3.8,1-5.6,0.1s-3-2.6-3.2-4.6l-2.8-21.6c-4.7-1.5-9.4-2.6-14.1-3.3
					c-4.6-0.7-9.4-1.1-14.4-1.2L188,115c-0.9,1.8-2.5,3-4.5,3.3s-3.9-0.4-5.3-1.8l-15-15.9c-9,3.1-17.6,7.5-25.5,13.1l4,21.4
					c0.4,1.9-0.3,3.9-1.7,5.3c-1.4,1.4-3.4,2-5.3,1.7l-21.4-4c-5.5,7.8-9.9,16.4-13,25.6l15.8,14.9c1.4,1.4,2.1,3.3,1.8,5.3
					s-1.6,3.6-3.3,4.5L95,197.8c0.1,9.6,1.6,19.2,4.5,28.5l21.5,2.8c2,0.3,3.7,1.5,4.6,3.2c0.9,1.8,0.9,3.9-0.1,5.6L115.1,257
					c5.8,7.8,12.6,14.6,20.3,20.4l19.1-10.4c1.7-0.9,3.8-1,5.6-0.1s3,2.6,3.2,4.6L166.1,293.1z M303,198.8L303,198.8L303,198.8z"/>
			</g>
			<g>
				<path class="st0" d="M195.9,238c-2.1,0-4.2-0.2-6.4-0.5l0,0c-11-1.8-20.6-7.7-27.1-16.6c-6.5-9-9.1-19.9-7.4-30.9
					c1.8-11,7.7-20.6,16.6-27.1c9-6.5,20-9.1,30.9-7.4c11,1.8,20.6,7.7,27.1,16.6c6.5,9,9.1,19.9,7.4,30.9
					C233.8,223.4,216,238,195.9,238z M191.3,225.7c16.1,2.5,31.3-8.5,33.8-24.5c1.2-7.8-0.6-15.5-5.2-21.9
					c-4.6-6.4-11.5-10.6-19.3-11.8c-16.1-2.6-31.3,8.4-33.8,24.5c-1.2,7.8,0.6,15.5,5.2,21.9C176.7,220.2,183.5,224.4,191.3,225.7z"
					/>
			</g>
		</g>
	</g>
	<g>
		<g>
			<path class="st1" d="M0,500"/>
		</g>
		<g>
			<path class="st2" d="M0,500"/>
		</g>
		<g>
			<path class="st2" d="M0,500"/>
		</g>
		<g>
			<path class="st2" d="M0,500"/>
		</g>
		<g>
			<path class="st2" d="M0,500"/>
		</g>
		<g>
			<path class="st2" d="M0,500"/>
		</g>
		<g>
			<path class="st2" d="M0,500"/>
		</g>
		<g>
			<path class="st2" d="M0,500"/>
		</g>
		<g>
			<path class="st2" d="M0,500"/>
		</g>
		<g>
			<path class="st2" d="M0,500"/>
		</g>
		<g>
			<path class="st2" d="M0,500"/>
		</g>
		<g>
			<path class="st2" d="M0,500"/>
		</g>
	</g>
</g>
</svg>
