<?xml version="1.0" encoding="iso-8859-1"?>
<!-- Generator: Adobe Illustrator 29.6.1, SVG Export Plug-In . SVG Version: 9.03 Build 0)  -->
<svg version="1.1" id="Layer_1" xmlns="http://www.w3.org/2000/svg" xmlns:xlink="http://www.w3.org/1999/xlink" x="0px" y="0px"
	 viewBox="0 0 500 500" style="enable-background:new 0 0 500 500;" xml:space="preserve">
<defs>
	<filter id="Adobe_OpacityMaskFilter" filterUnits="userSpaceOnUse" x="88.147" y="85.672" width="348.207" height="350.955">
		<feColorMatrix  type="matrix" values="1 0 0 0 0  0 1 0 0 0  0 0 1 0 0  0 0 0 1 0"/>
	</filter>
</defs>
<mask maskUnits="userSpaceOnUse" x="88.147" y="85.672" width="348.207" height="350.955" id="MnP9Zbpcjoa_00000018933584620226090410000008634388681552727460_">
	<circle style="fill:#FFFFFF;filter:url(#Adobe_OpacityMaskFilter);" cx="244.646" cy="244.372" r="175"/>
</mask>
<g style="mask:url(#MnP9Zbpcjoa_00000018933584620226090410000008634388681552727460_);">
	<g>
		<path style="fill:#FFFFFF;" d="M229.861,436.628c-1.536,0-3.071-0.586-4.243-1.758c-2.343-2.343-2.343-6.142,0-8.484
			l200.493-200.492c2.343-2.343,6.144-2.343,8.484,0c2.344,2.343,2.344,6.142,0,8.485L234.105,434.87
			C232.934,436.042,231.398,436.628,229.861,436.628z M133.161,397.42c-1.536,0-3.071-0.586-4.243-1.758
			c-2.343-2.343-2.343-6.142,0-8.484l86.773-86.773c2.343-2.344,6.143-2.344,8.485,0c2.343,2.343,2.343,6.142,0,8.484
			l-86.773,86.773C136.232,396.834,134.697,397.42,133.161,397.42z M179.713,223.341c-1.535,0-3.071-0.585-4.242-1.757l-4.72-4.719
			l-80.844-80.748c-2.344-2.342-2.347-6.141-0.005-8.485c2.342-2.344,6.141-2.346,8.485-0.005l85.568,85.471
			c2.343,2.343,2.344,6.142,0.001,8.485C182.785,222.755,181.249,223.341,179.713,223.341z M309.645,220.936
			c-1.535,0-3.07-0.585-4.242-1.757c-2.344-2.343-2.344-6.142-0.001-8.485l86.977-86.978c2.342-2.343,6.143-2.343,8.484,0
			c2.344,2.343,2.344,6.142,0,8.485l-86.975,86.977C312.716,220.35,311.18,220.936,309.645,220.936z M207.977,166.697
			c-1.537,0-3.074-0.587-4.246-1.76l-68.929-69.025c-2.341-2.345-2.339-6.144,0.006-8.485s6.144-2.339,8.485,0.006l68.929,69.025
			c2.341,2.345,2.339,6.144-0.006,8.485C211.045,166.112,209.51,166.697,207.977,166.697z"/>
	</g>
</g>
<g>
	<path style="fill:#FFFFFF;" d="M244.646,345.372c-1.933,0-3.747-0.931-4.874-2.501l-3.977-5.535
		c-34.723-48.311-62.149-86.468-62.149-122.964c0-39.149,31.851-71,71-71s71,31.851,71,71c0,36.497-27.428,74.656-62.151,122.968
		l-3.975,5.531C248.395,344.441,246.579,345.372,244.646,345.372z M244.646,155.371c-32.533,0-59,26.467-59,59
		c0,32.34,25.961,68.749,59,114.718c33.037-45.967,59-82.379,59-114.718C303.646,181.839,277.179,155.371,244.646,155.371z"/>
</g>
<g>
	<path style="fill:#FFFFFF;" d="M244.646,250.371c-19.851,0-36-16.149-36-36c0-19.851,16.149-36,36-36s36,16.149,36,36
		C280.646,234.223,264.497,250.371,244.646,250.371z M244.646,190.371c-13.233,0-24,10.767-24,24s10.767,24,24,24
		c13.233,0,24-10.767,24-24S257.88,190.371,244.646,190.371z"/>
</g>
<g>
	<path style="fill:#FFFFFF;" d="M234.669,425.092c-0.113,0-0.228-0.003-0.342-0.01c-13.801-0.776-27.485-3.129-40.672-6.994
		c-3.18-0.932-5.002-4.266-4.07-7.445s4.264-5.004,7.445-4.07c12.308,3.607,25.083,5.804,37.971,6.529
		c3.309,0.186,5.84,3.019,5.654,6.327C240.475,422.622,237.829,425.092,234.669,425.092z M274.494,422.837
		c-2.868,0-5.404-2.062-5.906-4.984c-0.562-3.266,1.631-6.368,4.896-6.93c12.686-2.181,25.123-5.827,36.967-10.839
		c3.051-1.294,6.573,0.136,7.863,3.188c1.292,3.052-0.136,6.572-3.188,7.863c-12.69,5.37-26.017,9.278-39.609,11.614
		C275.174,422.809,274.831,422.837,274.494,422.837z M158.577,402.782c-1.001,0-2.016-0.251-2.95-0.779
		c-11.98-6.779-23.208-14.949-33.373-24.284c-2.441-2.241-2.603-6.036-0.361-8.478c2.242-2.44,6.037-2.602,8.478-0.36
		c9.494,8.718,19.979,16.348,31.167,22.679c2.884,1.632,3.899,5.293,2.267,8.177C162.702,401.687,160.669,402.782,158.577,402.782z
		 M347.511,391.967c-1.854,0-3.682-0.855-4.856-2.47c-1.949-2.68-1.358-6.432,1.321-8.382c10.401-7.569,19.953-16.339,28.391-26.066
		c2.17-2.501,5.96-2.772,8.464-0.601c2.503,2.171,2.772,5.96,0.601,8.464c-9.031,10.413-19.258,19.803-30.395,27.906
		C349.971,391.595,348.735,391.967,347.511,391.967z M100.178,349.155c-1.913,0-3.792-0.913-4.955-2.61
		c-7.799-11.384-14.287-23.656-19.281-36.474c-1.203-3.088,0.324-6.566,3.412-7.77c3.087-1.2,6.566,0.324,7.769,3.412
		c4.663,11.965,10.719,23.421,18,34.05c1.873,2.733,1.175,6.468-1.559,8.341C102.527,348.814,101.348,349.155,100.178,349.155z
		 M399.448,332.057c-0.946,0-1.905-0.224-2.8-0.696c-2.93-1.55-4.049-5.18-2.5-8.109c6.021-11.388,10.728-23.469,13.988-35.907
		c0.84-3.205,4.123-5.122,7.325-4.282c3.205,0.84,5.123,4.119,4.282,7.325c-3.493,13.328-8.536,26.272-14.986,38.474
		C403.682,330.896,401.602,332.057,399.448,332.057z M71.402,275.299c-2.938,0-5.506-2.16-5.933-5.154
		c-1.208-8.474-1.822-17.145-1.823-25.773c0-5.154,0.219-10.357,0.652-15.464c0.28-3.302,3.184-5.751,6.485-5.472
		c3.302,0.279,5.752,3.183,5.472,6.485c-0.404,4.772-0.609,9.634-0.609,14.451c0.001,8.062,0.574,16.165,1.703,24.08
		c0.468,3.28-1.812,6.318-5.093,6.786C71.969,275.279,71.684,275.299,71.402,275.299z M419.579,255.367
		c-0.058,0-0.114-0.001-0.173-0.002c-3.312-0.094-5.921-2.855-5.828-6.168c0.046-1.595,0.068-3.219,0.068-4.825
		c0-11.3-1.122-22.596-3.334-33.575c-0.654-3.249,1.448-6.412,4.696-7.067c3.246-0.654,6.412,1.447,7.067,4.697
		c2.369,11.758,3.57,23.852,3.57,35.945c0,1.72-0.024,3.457-0.072,5.165C425.481,252.79,422.814,255.367,419.579,255.367z
		 M78.161,196.302c-0.614,0-1.238-0.095-1.853-0.294c-3.152-1.023-4.878-4.407-3.855-7.559c4.251-13.097,10.026-25.73,17.166-37.548
		c1.714-2.836,5.403-3.746,8.238-2.033c2.836,1.714,3.747,5.402,2.033,8.238c-6.666,11.032-12.056,22.824-16.023,35.047
		C83.044,194.69,80.691,196.302,78.161,196.302z M403.876,177.661c-2.276,0-4.452-1.301-5.46-3.506
		c-5.342-11.678-12.043-22.771-19.919-32.973c-2.025-2.623-1.541-6.391,1.082-8.416s6.392-1.541,8.416,1.082
		c8.435,10.925,15.612,22.806,21.333,35.315c1.379,3.014,0.053,6.574-2.961,7.952C405.559,177.487,404.711,177.661,403.876,177.661z
		 M119.143,128.414c-1.507,0-3.015-0.564-4.181-1.697c-2.376-2.31-2.431-6.108-0.121-8.484c9.612-9.889,20.354-18.683,31.927-26.138
		c2.787-1.794,6.5-0.989,8.293,1.795c1.794,2.786,0.99,6.499-1.795,8.293c-10.81,6.962-20.842,15.175-29.82,24.412
		C122.27,127.807,120.706,128.414,119.143,128.414z M355.434,114.901c-1.337,0-2.682-0.444-3.797-1.357
		c-9.975-8.167-20.878-15.188-32.405-20.867c-2.973-1.464-4.195-5.062-2.73-8.034c1.464-2.971,5.06-4.195,8.033-2.73
		c12.348,6.083,24.023,13.601,34.704,22.346c2.564,2.1,2.94,5.88,0.842,8.444C358.893,114.15,357.171,114.901,355.434,114.901z
		 M185.812,85.509c-2.465,0-4.775-1.53-5.651-3.985c-1.114-3.121,0.513-6.554,3.634-7.667c12.963-4.627,26.491-7.762,40.209-9.32
		c3.281-0.38,6.264,1.992,6.639,5.285c0.374,3.292-1.992,6.265-5.285,6.639c-12.804,1.454-25.431,4.38-37.529,8.698
		C187.163,85.396,186.482,85.509,185.812,85.509z M284.294,79.883c-0.448,0-0.903-0.051-1.358-0.156
		c-12.476-2.889-25.357-4.354-38.289-4.354c-3.313,0-6-2.687-6-6s2.687-6,6-6c13.842,0,27.635,1.569,40.996,4.664
		c3.229,0.748,5.239,3.971,4.492,7.199C289.492,78.008,287.023,79.883,284.294,79.883z"/>
</g>
</svg>
