<?xml version="1.0" encoding="utf-8"?>
<!-- Generator: Adobe Illustrator 27.5.0, SVG Export Plug-In . SVG Version: 6.00 Build 0)  -->
<svg version="1.1" id="Layer_1" xmlns="http://www.w3.org/2000/svg" xmlns:xlink="http://www.w3.org/1999/xlink" x="0px" y="0px"
	 viewBox="0 0 500 500" style="enable-background:new 0 0 500 500;" xml:space="preserve">
<style type="text/css">
	.st0{fill:#FFFFFF;}
	.st1{fill:none;stroke:#FFFFFF;stroke-width:12;stroke-linecap:round;stroke-linejoin:round;}
</style>
<g>
	<g>
		<path class="st0" d="M249.9,440.5c-32.5,0-62.9-20.2-85.6-56.9c-22.1-35.8-34.2-83.2-34.2-133.6s12.2-97.8,34.2-133.6
			c22.6-36.7,53-56.9,85.5-56.9c0.6,0,1.3,0.1,1.9,0.3l0,0l0,0l0,0l0,0l0,0l0,0l0,0l0,0l0,0l0,0l0,0l0,0l0,0l0,0l0,0l0,0l0,0l0,0
			l0,0l0,0l0,0l0,0l0,0l0,0l0,0l0,0l0,0l0,0l0,0l0,0c0.7,0.3,1.4,0.7,1.9,1.2l0,0l0,0l0,0l0,0l0,0l0,0l0,0l0,0l0,0l0,0l0,0l0,0l0,0
			l0,0c0.7,0.7,1.2,1.5,1.5,2.4l0,0l0,0l0,0l0,0l0,0l0,0l0,0l0,0l0,0l0,0l0,0l0,0l0,0l0,0l0,0l0,0l0,0l0,0l0,0l0,0l0,0l0,0l0,0l0,0
			l0,0l0,0l0,0l0,0l0,0l0,0l0,0l0,0l0,0l0,0l0,0l0,0c0.1,0.4,0.2,0.8,0.2,1.3l0,0l0,0l0,0l0,0l0,0l0,0l0,0l0,0l0,0l0,0l0,0l0,0l0,0
			l0,0l0,0l0,0l0,0l0,0l0,0c0.1,12.1,0.1,22.7,0.2,32.8c0.2,38.1,0.4,70.9,0.4,151.7c0,107.4-0.3,156.8-0.6,184.6c0,0.1,0,0.2,0,0.3
			l0,0l0,0l0,0l0,0l0,0l0,0l0,0l0,0c0,0.4-0.1,0.8-0.2,1.2l0,0l0,0l0,0l0,0l0,0l0,0l0,0l0,0l0,0l0,0l0,0l0,0l0,0l0,0l0,0l0,0l0,0
			l0,0l0,0l0,0l0,0l0,0l0,0l0,0l0,0l0,0c-0.2,0.7-0.6,1.4-1.1,2l0,0l0,0l0,0l0,0l0,0l0,0l0,0l0,0l0,0l0,0l0,0l0,0l0,0l0,0l0,0l0,0
			c-0.7,0.8-1.7,1.4-2.7,1.8l0,0l0,0l0,0l0,0l0,0l0,0l0,0l0,0l0,0l0,0C251,440.4,250.5,440.5,249.9,440.5L249.9,440.5z M243.9,71.8
			c-26,2.4-50.5,20.2-69.4,50.9C153.6,156.6,142,201.8,142,250s11.5,93.4,32.5,127.3c18.9,30.7,43.4,48.6,69.4,50.9
			c0.2-28.8,0.5-78.4,0.5-178.2c0-80.7-0.2-113.6-0.4-151.6C244,90,244,81.3,243.9,71.8z"/>
		<path class="st0" d="M249.9,440.5c-3.3,0-6-2.7-6-6s2.7-6,6-6c60.2,0,109.5-76.8,111.4-172.5H65.4c-3.3,0-6-2.7-6-6s2.7-6,6-6
			h295.9c-2-95.7-51.2-172.5-111.4-172.5c-3.3,0-6-2.7-6-6c0-3.3,2.7-6,6-6c33.5,0,64.8,20.2,88.1,56.8
			c21.9,34.4,34.3,79.5,35.3,127.7h61.1c3.3,0,6,2.7,6,6s-2.7,6-6,6h-61.1c-1,48.2-13.4,93.3-35.3,127.7
			C314.7,420.3,283.4,440.5,249.9,440.5z"/>
		<g>
			<path class="st0" d="M130.6,396.7c-2.2,0-4.2-1.2-5.3-3.2c-1.5-2.9-0.4-6.6,2.5-8.1c34.1-17.9,77.5-27.7,122.1-27.7
				c44.7,0,88.1,9.8,122.1,27.7c2.9,1.5,4.1,5.2,2.5,8.1c-1.5,2.9-5.2,4.1-8.1,2.5c-32.3-17-73.7-26.3-116.5-26.3
				c-42.7,0-84.1,9.3-116.5,26.3C132.5,396.5,131.5,396.7,130.6,396.7z M249.9,142.3c-44.7,0-88.1-9.8-122.1-27.7
				c-2.9-1.5-4.1-5.2-2.5-8.1c1.5-2.9,5.2-4.1,8.1-2.5c32.3,17,73.7,26.3,116.5,26.3c42.7,0,84.1-9.3,116.5-26.3
				c2.9-1.5,6.6-0.4,8.1,2.5s0.4,6.6-2.5,8.1C337.9,132.5,294.5,142.3,249.9,142.3z"/>
		</g>
		<path class="st0" d="M250,441.1c-51.1,0-99-19.9-135.1-56s-56-84-56-135.1s19.9-99,56-135.1s84-56,135.1-56s99,19.9,135.1,56
			s56,84,56,135.1s-19.9,99-56,135.1S301.1,441.1,250,441.1z M250,72.2C152,72.2,72.2,152,72.2,250S152,427.8,250,427.8
			S427.8,348,427.8,250S348,72.2,250,72.2z"/>
	</g>
	<path class="st1" d="M0,500"/>
</g>
</svg>
