<?xml version="1.0" encoding="utf-8"?>
<!-- Generator: Adobe Illustrator 27.5.0, SVG Export Plug-In . SVG Version: 6.00 Build 0)  -->
<svg version="1.1" id="Layer_1" xmlns="http://www.w3.org/2000/svg" xmlns:xlink="http://www.w3.org/1999/xlink" x="0px" y="0px"
	 viewBox="0 0 500 500" style="enable-background:new 0 0 500 500;" xml:space="preserve">
<style type="text/css">
	.st0{fill:#FFFFFF;}
	.st1{fill:none;stroke:#FFFFFF;stroke-width:12;stroke-linecap:round;stroke-linejoin:round;}
</style>
<g>
	<g transform="translate(250 250)">
		<g>
			<path class="st0" d="M36.8,188.3c-3.3,0-6-2.7-6-6l0,0c0-0.3-0.3-28.9-10.2-49.6c-1.3-2.7-5.6-8.6-19.2-21.4
				c-2.4-2.3-2.5-6.1-0.2-8.5s6.1-2.5,8.5-0.2c12.3,11.7,19.2,19.6,21.8,25c11,23.1,11.4,53.4,11.4,54.6
				C42.8,185.6,40.2,188.3,36.8,188.3L36.8,188.3z M64.8,180.2c-1.2,0-2.4-0.4-3.4-1.1c-2.7-1.9-3.4-5.6-1.5-8.4l47.3-67.5
				c1.9-2.7,5.6-3.4,8.4-1.5c2.7,1.9,3.4,5.6,1.5,8.4l-47.3,67.5C68.5,179.3,66.7,180.2,64.8,180.2z M-3,43.7c-1,0-1.9-0.2-2.8-0.7
				L-76.2,5.3c-2.9-1.6-4-5.2-2.5-8.1c1.6-2.9,5.2-4,8.1-2.5l70.4,37.7c2.9,1.6,4,5.2,2.5,8.1C1.2,42.6-0.9,43.7-3,43.7z M8,6
				C6.2,6,4.4,5.2,3.2,3.6l-21.3-28c-0.6-0.7-1-1.6-1.1-2.5c-4.3-23.1,3.6-39.2,3.9-39.9c0.8-1.6,2.3-2.7,4-3.1s3.5,0,5,1l29.7,22.2
				l12.9-25.5c1-1.9,2.9-3.2,5.1-3.3l47.9-1.8c2.2-6.8,5.2-18.1,4.5-24.5c-0.6-2-4.4-7.9-8.2-13.3l-28.3,2.4
				c-1.5,0.1-2.9-0.3-4.1-1.2l-23.5-17.5c-1.6-1.2-2.5-3.1-2.4-5s1.1-3.8,2.8-4.8l42.6-27.3c2.8-1.8,6.5-1,8.3,1.8s1,6.5-1.8,8.3
				l-35.3,22.6l14.7,11l29.4-2.5c2.1-0.2,4.1,0.7,5.3,2.4c5.3,7.3,11.8,16.9,12.4,21.4c1.4,12-5.6,31.9-6.4,34.1
				c-0.8,2.3-3,3.9-5.4,3.9l-48.5,1.9L30.9-34.9c-0.8,1.6-2.3,2.7-4,3.1s-3.5,0-5-1L-6.9-54.3c-1.3,5.5-2.4,13.8-0.8,23.9L12.8-3.6
				c2,2.6,1.5,6.4-1.1,8.4C10.5,5.6,9.3,6,8,6z"/>
		</g>
	</g>
	<path class="st0" d="M250,442.8c-51.5,0-99.9-20-136.3-56.5C77.3,349.9,57.2,301.5,57.2,250s20.1-99.9,56.5-136.3
		S198.5,57.2,250,57.2s99.9,20.1,136.3,56.5s56.5,84.8,56.5,136.3s-20,99.9-56.5,136.3S301.5,442.8,250,442.8z M250,69.2
		c-99.7,0-180.8,81.1-180.8,180.8S150.3,430.8,250,430.8S430.8,349.7,430.8,250S349.7,69.2,250,69.2z"/>
	<g>
		<g>
			<g>
				<g>
					<path class="st0" d="M310,389.4c-1.9,0-3.7-0.9-4.8-2.4L287,362.7h-29c-7.7,0-14-6.3-14-14V258c0-7.7,6.3-14,14-14h104
						c7.7,0,14,6.3,14,14v90.7c0,7.7-6.3,14-14,14h-29L314.8,387C313.7,388.5,311.9,389.4,310,389.4z M258,256c-1.1,0-2,0.9-2,2
						v90.7c0,1.1,0.9,2,2,2h32c1.9,0,3.7,0.9,4.8,2.4l15.2,20.3l15.2-20.3c1.1-1.5,2.9-2.4,4.8-2.4h32c1.1,0,2-0.9,2-2V258
						c0-1.1-0.9-2-2-2H258z M337.2,336.1h-54.4c-3.3,0-6-2.7-6-6s2.7-6,6-6h7.2v-25c0-3.3,2.7-6,6-6s6,2.7,6,6v25h16V299
						c0-3.3,2.7-6,6-6s6,2.7,6,6v25.1h7.2c3.3,0,6,2.7,6,6S340.5,336.1,337.2,336.1z"/>
				</g>
			</g>
			<g>
				<g>
					<path class="st0" d="M283.4,299v-7.4l26.7-15.1l26.7,15.1v7.4H283.4z"/>
				</g>
			</g>
			<g>
				<g>
					<path class="st0" d="M336.8,305h-53.4c-3.3,0-6-2.7-6-6v-7.4c0-2.2,1.2-4.2,3-5.2l26.7-15.1c1.8-1,4.1-1,5.9,0l26.7,15.1
						c1.9,1.1,3,3.1,3,5.2v7.4C342.8,302.3,340.1,305,336.8,305z"/>
				</g>
			</g>
		</g>
		<g>
			<g>
				<g>
					<path class="st0" d="M176.6,256c-1.9,0-3.7-0.9-4.8-2.4l-18.2-24.3h-29c-7.7,0-14-6.3-14-14v-90.7c0-7.7,6.3-14,14-14h104
						c7.7,0,14,6.3,14,14v90.7c0,7.7-6.3,14-14,14h-29l-18.2,24.3C180.3,255.1,178.5,256,176.6,256z M124.6,122.6c-1.1,0-2,0.9-2,2
						v90.7c0,1.1,0.9,2,2,2h32c1.9,0,3.7,0.9,4.8,2.4l15.2,20.3l15.2-20.3c1.1-1.5,2.9-2.4,4.8-2.4h32c1.1,0,2-0.9,2-2v-90.7
						c0-1.1-0.9-2-2-2C228.6,122.6,124.6,122.6,124.6,122.6z M203.8,202.6h-54.4c-3.3,0-6-2.7-6-6s2.7-6,6-6h7.2v-25
						c0-3.3,2.7-6,6-6s6,2.7,6,6v25h16v-25.1c0-3.3,2.7-6,6-6s6,2.7,6,6v25.1h7.2c3.3,0,6,2.7,6,6S207.1,202.6,203.8,202.6z"/>
				</g>
			</g>
			<g>
				<g>
					<path class="st0" d="M149.9,165.5v-7.4l26.7-15.1l26.7,15.1v7.4H149.9z"/>
				</g>
			</g>
			<g>
				<g>
					<path class="st0" d="M203.3,171.5h-53.4c-3.3,0-6-2.7-6-6v-7.4c0-2.2,1.2-4.2,3-5.2l26.7-15.1c1.8-1,4.1-1,5.9,0l26.7,15.1
						c1.9,1.1,3,3.1,3,5.2v7.4C209.3,168.8,206.6,171.5,203.3,171.5z M159.6,159.5h34l-17-9.6L159.6,159.5z"/>
				</g>
			</g>
		</g>
	</g>
	<path class="st1" d="M0,500"/>
</g>
</svg>
