<?xml version="1.0" encoding="utf-8"?>
<!-- Generator: Adobe Illustrator 27.5.0, SVG Export Plug-In . SVG Version: 6.00 Build 0)  -->
<svg version="1.1" id="Layer_1" xmlns="http://www.w3.org/2000/svg" xmlns:xlink="http://www.w3.org/1999/xlink" x="0px" y="0px"
	 viewBox="0 0 500 500" style="enable-background:new 0 0 500 500;" xml:space="preserve">
<style type="text/css">
	.st0{fill:#FFFFFF;}
</style>
<g transform="translate(115 65)">
	<g>
		<path class="st0" d="M215.2,321h-80.1c-0.1,0-0.1,0-0.2,0H55.8c-3.3,0-6-2.7-6-6v-63.8v-0.1V251v-63.8c0-3.3,2.7-6,6-6l79.1-0.2
			c0.5,0,1,0.1,1.5,0.2l78.8-0.2l0,0c1.6,0,3.1,0.6,4.2,1.8c1.1,1.1,1.8,2.7,1.8,4.2v128C221.2,318.3,218.5,321,215.2,321z
			 M141.1,309h68.1v-52l-68.1,0.2V309z M61.8,309h67.1v-52l-67.1,0.2C61.8,257.2,61.8,309,61.8,309z M141.1,245h68.1v-52l-68.1,0.2
			V245z M61.8,245h67.1v-52l-67.1,0.2C61.8,193.2,61.8,245,61.8,245z"/>
	</g>
</g>
<g>
	<g>
		<path class="st0" d="M383.5,442.3H116.6c-3.3,0-6-2.7-6-6V63.2c0-3.3,2.7-6,6-6h160.1c1.6,0,3.1,0.6,4.2,1.8l106.8,106.7
			c1.1,1.1,1.8,2.7,1.8,4.2v266.4C389.5,439.6,386.8,442.3,383.5,442.3z M122.6,430.3h254.9V172.4L274.2,69.2H122.6V430.3z"/>
	</g>
	<g>
		<path class="st0" d="M383.4,175.9H276.7c-3.3,0-6-2.7-6-6V63.2c0-3.3,2.7-6,6-6s6,2.7,6,6v100.7h100.7c3.3,0,6,2.7,6,6
			S386.7,175.9,383.4,175.9z"/>
	</g>
</g>
<g>
	<path class="st0" d="M383.4,175.9c-1.4,0-2.8-0.5-3.9-1.4c-0.4-0.3-5-4.5-54.1-54.4c-45.8-46.5-51.9-51.8-52.5-52.2
		c0.2,0.2,0.3,0.2,0.3,0.2l6.9-9.8c2.4,1.6,22.5,21.6,53.8,53.4c47.5,48.2,53.1,53.4,53.4,53.7c2.5,2.2,2.7,5.9,0.6,8.4
		C386.8,175.2,385.1,175.9,383.4,175.9z"/>
</g>
</svg>
