<?xml version="1.0" encoding="utf-8"?>
<!-- Generator: Adobe Illustrator 27.5.0, SVG Export Plug-In . SVG Version: 6.00 Build 0)  -->
<svg version="1.1" id="Layer_1" xmlns="http://www.w3.org/2000/svg" xmlns:xlink="http://www.w3.org/1999/xlink" x="0px" y="0px"
	 viewBox="0 0 500 500" style="enable-background:new 0 0 500 500;" xml:space="preserve">
<style type="text/css">
	.st0{clip-path:url(#SVGID_00000173864744870720918260000000344282973761510319_);}
	.st1{fill:#FFFFFF;}
</style>
<g>
	<g>
		<g>
			<g>
				<defs>
					<rect id="SVGID_1_" width="500" height="500"/>
				</defs>
				<clipPath id="SVGID_00000091731244864465549700000006914697921569319599_">
					<use xlink:href="#SVGID_1_"  style="overflow:visible;"/>
				</clipPath>
				<g style="clip-path:url(#SVGID_00000091731244864465549700000006914697921569319599_);">
					<g>
						<path class="st1" d="M407.2,402.1H89.1c-3.3,0-6-2.7-6-6V118.6c0-3.3,2.7-6,6-6s6,2.7,6,6v271.5h312.1c3.3,0,6,2.7,6,6
							S410.5,402.1,407.2,402.1z"/>
					</g>
					<g>
						<path class="st1" d="M146,341.5c-12.5,0-22.6-10.1-22.6-22.6c-0.1-6,2.2-11.6,6.4-15.9c4.3-4.3,10-6.7,16.2-6.7
							c12.5,0,22.6,10.1,22.6,22.6S158.5,341.5,146,341.5z M146,308.3c-2.9,0-5.6,1.1-7.6,3.1s-3,4.6-3,7.4
							c0,5.9,4.8,10.7,10.6,10.7s10.6-4.8,10.6-10.6S151.8,308.3,146,308.3z M289.8,283.2c-12.5,0-22.6-10.1-22.6-22.6
							c-0.1-5.9,2.2-11.6,6.5-15.9c4.3-4.3,10-6.7,16.1-6.7c12.5,0,22.6,10.1,22.6,22.6C312.4,273.1,302.3,283.2,289.8,283.2z
							 M289.8,250c-2.9,0-5.6,1.1-7.6,3.2c-2,2-3,4.6-3,7.4c0,5.8,4.9,10.7,10.6,10.7c5.8,0,10.6-4.8,10.6-10.6S295.6,250,289.8,250
							z M240.8,241.1c-12.5,0-22.6-10.1-22.6-22.6s10.1-22.6,22.6-22.6s22.6,10.1,22.6,22.6S253.3,241.1,240.8,241.1z M240.8,207.9
							c-5.8,0-10.6,4.8-10.6,10.6c0,5.7,4.9,10.6,10.6,10.6c5.7,0,10.6-4.9,10.6-10.6C251.4,212.7,246.6,207.9,240.8,207.9z
							 M382.3,183.8c-12.5,0-22.6-10.1-22.6-22.6s10.1-22.6,22.6-22.6s22.6,10.1,22.6,22.6S394.8,183.8,382.3,183.8z M382.3,150.6
							c-5.8,0-10.6,4.8-10.6,10.6c0,5.7,4.9,10.6,10.6,10.6s10.6-4.9,10.6-10.6C392.9,155.4,388.1,150.6,382.3,150.6z"/>
					</g>
					<g>
						<path class="st1" d="M160,309.6l-8.8-8.1l72.2-78.2l8.8,8.1L160,309.6z M271.9,254.9l-21.3-23.6l8.9-8l21.3,23.6L271.9,254.9z
							 M304.3,251.4l-8.5-8.4l71.2-72.1l8.5,8.4L304.3,251.4z"/>
					</g>
				</g>
			</g>
		</g>
	</g>
</g>
</svg>
