<?xml version="1.0" encoding="utf-8"?>
<!-- Generator: Adobe Illustrator 27.5.0, SVG Export Plug-In . SVG Version: 6.00 Build 0)  -->
<svg version="1.1" id="Layer_1" xmlns="http://www.w3.org/2000/svg" xmlns:xlink="http://www.w3.org/1999/xlink" x="0px" y="0px"
	 viewBox="0 0 500 500" style="enable-background:new 0 0 500 500;" xml:space="preserve">
<style type="text/css">
	.st0{clip-path:url(#SVGID_00000118378868961029600560000005124822410653232002_);}
	.st1{fill:#FFFFFF;}
</style>
<g>
	<g>
		<g>
			<g>
				<defs>
					<rect id="SVGID_1_" width="500" height="500"/>
				</defs>
				<clipPath id="SVGID_00000021841959791740899680000004061896738897749674_">
					<use xlink:href="#SVGID_1_"  style="overflow:visible;"/>
				</clipPath>
				<g style="clip-path:url(#SVGID_00000021841959791740899680000004061896738897749674_);">
					<g>
						<g>
							<path class="st1" d="M358.4,357.9h-6.8c-12,0-21.8-9.8-21.8-21.8v-82c0-12,9.8-21.8,21.8-21.8h6.8c3.5,0,6.8,0.8,9.7,2.3
								l-0.1-17.9c0-65.3-52.9-118.3-118-118.3c-65.2,0-118.3,53.1-118.3,118.3v18c2.9-1.5,6.3-2.3,9.8-2.3h6.8
								c12,0,21.8,9.8,21.8,21.8v82c0.1,5.7-2.1,11.2-6.2,15.3c-4.1,4.2-9.7,6.5-15.6,6.5h-6.8c-12,0-21.8-9.8-21.8-21.8V216.6
								c0-71.8,58.5-130.3,130.3-130.3c34.8,0,67.4,13.5,92,38.2c24.5,24.6,38,57.3,38,92.1l0.2,32.5c0,0.6-0.1,1.2-0.2,1.7
								c0.2,1.1,0.2,2.2,0.2,3.3v82C380.2,348.1,370.4,357.9,358.4,357.9z M351.6,244.3c-5.4,0-9.8,4.4-9.8,9.8v82
								c0,5.4,4.4,9.8,9.8,9.8h6.8c5.4,0,9.8-4.4,9.8-9.8v-82c0-5.4-4.4-9.8-9.8-9.8H351.6z M131.7,295.1v41c0,5.4,4.4,9.8,9.8,9.8
								h6.8c2.7,0,5.2-1,7-2.9c1.8-1.8,2.8-4.3,2.8-6.8v-82.1c0-5.4-4.4-9.8-9.8-9.8h-6.8c-5.4,0-9.8,4.4-9.8,9.8V295.1z"/>
						</g>
						<g>
							<path class="st1" d="M394.7,320c-2.3,0-4.2-1.9-4.2-4.2v-41.6c0-2.3,1.9-4.2,4.2-4.2c13.8,0,25,11.2,25,25
								S408.5,320,394.7,320z M398.9,278.9V311c7.1-1.9,12.4-8.4,12.4-16.1S406,280.8,398.9,278.9z M105.8,320
								c-13.8,0-25-11.2-25-25s11.2-25,25-25c2.3,0,4.2,1.9,4.2,4.2v41.6C110,318.1,108.1,320,105.8,320z M101.6,278.9
								c-7.1,1.9-12.4,8.4-12.4,16.1s5.3,14.2,12.4,16.1V278.9z"/>
						</g>
						<g>
							<path class="st1" d="M394.7,274.2c11.5,0,20.8,9.3,20.8,20.8s-9.3,20.8-20.8,20.8V274.2z M105.8,315.8
								c-11.5,0-20.8-9.3-20.8-20.8s9.3-20.8,20.8-20.8V315.8z"/>
						</g>
					</g>
					<g>
						<path class="st1" d="M309.1,432H286c-8.7,0-15.7-7-15.7-15.6v-4.1c0-8.6,7-15.6,15.6-15.6h23.2c7.3,0,13.4,5,15.1,11.7h15.3
							c7.8,0,20.6-12.3,26.6-30l24.5-72c1.1-3.1,4.5-4.8,7.6-3.7c3.1,1.1,4.8,4.5,3.7,7.6l-24.5,72c-7.3,21.4-24,38.2-38,38.2h-15.3
							C322.4,427.1,316.3,432,309.1,432z M285.9,408.7c-2,0-3.6,1.6-3.6,3.6v4.1c0,2,1.6,3.6,3.7,3.6h23.1c2,0,3.6-1.6,3.6-3.6v-4.1
							c0-2-1.6-3.6-3.6-3.6H285.9z"/>
					</g>
				</g>
			</g>
		</g>
	</g>
</g>
</svg>
