<?xml version="1.0" encoding="utf-8"?>
<!-- Generator: Adobe Illustrator 27.5.0, SVG Export Plug-In . SVG Version: 6.00 Build 0)  -->
<svg version="1.1" id="Layer_1" xmlns="http://www.w3.org/2000/svg" xmlns:xlink="http://www.w3.org/1999/xlink" x="0px" y="0px"
	 viewBox="0 0 500 500" style="enable-background:new 0 0 500 500;" xml:space="preserve">
<style type="text/css">
	.st0{clip-path:url(#SVGID_00000021840608795714324930000012347381988665185191_);}
	.st1{fill:#FFFFFF;}
	.st2{fill:none;stroke:#FFFFFF;stroke-width:12;stroke-linecap:round;stroke-linejoin:round;}
</style>
<g>
	<g>
		<g>
			<g>
				<defs>
					<rect id="SVGID_1_" width="500" height="500"/>
				</defs>
				<clipPath id="SVGID_00000047060213243572059410000004743835016661899144_">
					<use xlink:href="#SVGID_1_"  style="overflow:visible;"/>
				</clipPath>
				<g style="clip-path:url(#SVGID_00000047060213243572059410000004743835016661899144_);">
					<g>
						<g>
							<path class="st1" d="M398,378.1H101.8c-9.9,0-18-8.1-18-18V154.6c0-9.9,8.1-18,18-18h41.4c3.3,0,6,2.7,6,6s-2.7,6-6,6h-41.4
								c-3.3,0-6,2.7-6,6v205.5c0,3.3,2.7,6,6,6H398c3.3,0,6-2.7,6-6V154.6c0-3.3-2.7-6-6-6h-41.4c-3.3,0-6-2.7-6-6s2.7-6,6-6H398
								c9.9,0,18,8.1,18,18v205.5C416,370,407.9,378.1,398,378.1z"/>
						</g>
						<g>
							<path class="st1" d="M291.7,415.5h-83.4c-2.8,0-5.2-1.9-5.8-4.6s0.7-5.5,3.2-6.7c7.7-3.8,16.5-22.8,20.3-33.9
								c1.1-3.1,4.5-4.8,7.6-3.8c3.1,1.1,4.8,4.5,3.8,7.6c-0.8,2.4-6.2,17.9-14.4,29.5h54.3c-8.2-11.6-13.6-27.1-14.4-29.5
								c-1.1-3.1,0.6-6.5,3.8-7.6c3.1-1.1,6.5,0.6,7.6,3.8c3.8,11.1,12.6,30.1,20.3,34c2.5,1.2,3.8,4,3.2,6.7
								C296.9,413.6,294.5,415.5,291.7,415.5z M383.4,329H116.5c-3.3,0-6-2.7-6-6V169.3c0-3.3,2.7-6,6-6h26.7c3.3,0,6,2.7,6,6
								s-2.7,6-6,6h-20.7V317h254.9V175.3h-20.7c-3.3,0-6-2.7-6-6s2.7-6,6-6h26.7c3.3,0,6,2.7,6,6V323
								C389.4,326.3,386.7,329,383.4,329z"/>
						</g>
						<g>
							<path class="st1" d="M250,356.6h-0.1c-5,0-9-4-9-9s4-9,9-9h0.1c5,0,9,4,9,9S255,356.6,250,356.6z"/>
						</g>
					</g>
					<g>
						<g>
							<path class="st1" d="M356.7,329c-3.3,0-6-2.7-6-6V95.9H149.3V323c0,3.3-2.7,6-6,6s-6-2.7-6-6V89.9c0-3.3,2.7-6,6-6h213.4
								c3.3,0,6,2.7,6,6V323C362.7,326.3,360,329,356.7,329z"/>
						</g>
						<g>
							<path class="st1" d="M295,287.1h-90c-3.3,0-6-2.7-6-6s2.7-6,6-6h90c3.3,0,6,2.7,6,6S298.3,287.1,295,287.1z M295,255.4h-90
								c-3.3,0-6-2.7-6-6s2.7-6,6-6h90c3.3,0,6,2.7,6,6S298.3,255.4,295,255.4z M262.7,211.3h-25.2c-3.3,0-6-2.7-6-6v-20.8h-20.8
								c-3.3,0-6-2.7-6-6v-25.2c0-3.3,2.7-6,6-6h20.8v-20.8c0-3.3,2.7-6,6-6h25.2c3.3,0,6,2.7,6,6v20.8h20.8c3.3,0,6,2.7,6,6v25.2
								c0,3.3-2.7,6-6,6h-20.8v20.8C268.7,208.6,266,211.3,262.7,211.3z M243.5,199.3h13.2v-20.8c0-3.3,2.7-6,6-6h20.8v-13.2h-20.8
								c-3.3,0-6-2.7-6-6v-20.8h-13.2v20.8c0,3.3-2.7,6-6,6h-20.8v13.2h20.8c3.3,0,6,2.7,6,6L243.5,199.3L243.5,199.3z"/>
						</g>
					</g>
					<g>
						<path class="st2" d="M0,500"/>
					</g>
				</g>
			</g>
		</g>
	</g>
</g>
</svg>
