<?xml version="1.0" encoding="utf-8"?>
<!-- Generator: Adobe Illustrator 27.5.0, SVG Export Plug-In . SVG Version: 6.00 Build 0)  -->
<svg version="1.1" id="Layer_1" xmlns="http://www.w3.org/2000/svg" xmlns:xlink="http://www.w3.org/1999/xlink" x="0px" y="0px"
	 viewBox="0 0 500 500" style="enable-background:new 0 0 500 500;" xml:space="preserve">
<style type="text/css">
	.st0{fill:#FFFFFF;}
	.st1{fill:none;stroke:#FFFFFF;stroke-width:12;stroke-linecap:round;stroke-linejoin:round;}
</style>
<g>
	<g>
		<g>
			<path class="st0" d="M178.2,278.1c-2.3,0-4.4-1.3-5.4-3.3l-12.7-25.5l-43.3,0.1l0,0c-3.3,0-6-2.7-6-6s2.7-6,6-6l47-0.2
				c2.2,0,4.4,1.3,5.4,3.3l9,18.1l23.4-47c1-2,3.1-3.3,5.4-3.3l0,0c2.3,0,4.4,1.3,5.4,3.3l12.7,25.5h53.7c2.3,0,4.4,1.3,5.4,3.3
				l9,18.1l23.4-47c1-2,3.1-3.3,5.4-3.3s4.4,1.3,5.4,3.3l12.7,25.5l43.3-0.1l0,0c3.3,0,6,2.7,6,6s-2.7,6-6,6l-47,0.1l0,0
				c-2.3,0-4.3-1.3-5.4-3.3l-9-18.1l-23.4,47c-1,2-3.1,3.3-5.4,3.3l0,0c-2.3,0-4.4-1.3-5.4-3.3l-12.7-25.5h-53.7
				c-2.3,0-4.4-1.3-5.4-3.3l-9-18.1l-23.4,47C182.6,276.8,180.5,278.1,178.2,278.1L178.2,278.1z"/>
		</g>
		<g>
			<path class="st0" d="M250,389.4c-2.1,0-4.2-1.1-5.3-3.2c-1.6-2.9-0.5-6.6,2.4-8.1c30.4-16.4,65-45.8,92.5-78.8
				c30-36,47.5-70.8,49.2-98c3.6-56.2-42.3-72.7-44.3-73.3c-0.1,0-0.3-0.1-0.4-0.2c-38.2-16.3-72.9,7.6-89,36.7
				c-1.6,2.9-5.3,4-8.2,2.4s-4-5.3-2.4-8.2c10.4-18.8,25.9-33.5,43.8-41.5c19.6-8.7,40.4-8.9,60.2-0.5c2,0.7,15,5.7,27.6,17.8
				c12.4,12,26.7,33.4,24.5,67.5c-1.9,29.7-20.3,67-52,105c-28.4,34.1-64.3,64.6-96,81.6C251.9,389.2,251,389.4,250,389.4z"/>
		</g>
		<g>
			<path class="st0" d="M250,389.4c-1,0-1.9-0.2-2.8-0.7c-31.7-17-67.6-47.6-96-81.7c-31.7-38-50.1-75.2-52-104.9
				c-2.2-34.2,12.1-55.6,24.5-67.5c12.6-12.1,25.6-17.1,27.6-17.8c19.8-8.4,40.6-8.2,60.2,0.5c17.9,8,33.5,22.7,43.8,41.5
				c1.6,2.9,0.5,6.6-2.4,8.2c-2.9,1.6-6.6,0.5-8.2-2.4c-16.1-29.1-50.8-53-89-36.7c-0.1,0.1-0.3,0.1-0.4,0.2
				c-1.9,0.7-47.8,17.2-44.2,73.3c1.7,27.2,19.2,62,49.2,98c27.5,33,62.1,62.4,92.5,78.8c2.9,1.6,4,5.2,2.4,8.1
				C254.2,388.3,252.1,389.4,250,389.4z"/>
		</g>
	</g>
	<path class="st1" d="M0,500"/>
</g>
</svg>
