<?xml version="1.0" encoding="utf-8"?>
<!-- Generator: Adobe Illustrator 27.5.0, SVG Export Plug-In . SVG Version: 6.00 Build 0)  -->
<svg version="1.1" id="Layer_1" xmlns="http://www.w3.org/2000/svg" xmlns:xlink="http://www.w3.org/1999/xlink" x="0px" y="0px"
	 viewBox="0 0 500 500" style="enable-background:new 0 0 500 500;" xml:space="preserve">
<style type="text/css">
	.st0{clip-path:url(#SVGID_00000022531749191721378090000006446788454919818890_);}
	.st1{fill:#FFFFFF;}
	.st2{display:none;fill:none;stroke:#FFFFFF;stroke-width:12;stroke-linecap:round;stroke-linejoin:round;}
	.st3{fill:none;stroke:#FFFFFF;stroke-width:12;stroke-linecap:round;stroke-linejoin:round;}
</style>
<g>
	<g>
		<g>
			<g>
				<defs>
					<rect id="SVGID_1_" width="500" height="500"/>
				</defs>
				<clipPath id="SVGID_00000152958866111569552310000011460871651908860600_">
					<use xlink:href="#SVGID_1_"  style="overflow:visible;"/>
				</clipPath>
				<g style="clip-path:url(#SVGID_00000152958866111569552310000011460871651908860600_);">
					<g>
						<g>
							<path class="st1" d="M296.7,416.1h-93.4c-3.3,0-6-2.7-6-6v-74.7h-8.7c-13.2,0-24-10.8-24-24v-35.3h-9.9
								c-10.2,0-18.5-8.3-18.5-18.5v-15.3c0-10.2,8.3-18.5,18.5-18.5h9.9v-35.3c0-13.2,10.8-24,24-24h8.7V89.9c0-3.3,2.7-6,6-6h93.4
								c3.3,0,6,2.7,6,6v74.6h8.8c13.2,0,24,10.8,24,24v122.9c-0.1,13.3-10.9,24-24.1,24h-8.7v74.7
								C302.7,413.4,300,416.1,296.7,416.1z M209.3,404.1h81.4v-68.7h-81.4L209.3,404.1L209.3,404.1z M188.6,176.5
								c-6.6,0-12,5.4-12,12v122.9c0,6.6,5.4,12,12,12h122.8c6.6,0,12-5.4,12.1-12.1V188.5c0-6.6-5.4-12-12-12H188.6z M154.7,235.8
								c-3.6,0-6.5,2.9-6.5,6.5v15.3c0,3.6,2.9,6.5,6.5,6.5h9.9v-28.3H154.7z M209.3,164.5h81.4V95.9h-81.4L209.3,164.5L209.3,164.5
								z"/>
						</g>
						<g>
							<path class="st1" d="M262.8,295.6h-25.4c-3.3,0-6-2.7-6-6v-21h-21c-3.3,0-6-2.7-6-6v-25.4c0-3.3,2.7-6,6-6h21v-21
								c0-3.3,2.7-6,6-6h25.4c3.3,0,6,2.7,6,6v21h21c3.3,0,6,2.7,6,6v25.4c0,3.3-2.7,6-6,6h-21v21
								C268.8,292.9,266.1,295.6,262.8,295.6z M243.4,283.6h13.4v-21c0-3.3,2.7-6,6-6h21v-13.4h-21c-3.3,0-6-2.7-6-6v-21h-13.4v21
								c0,3.3-2.7,6-6,6h-21v13.4h21c3.3,0,6,2.7,6,6V283.6z"/>
						</g>
					</g>
					<g>
						<g>
							<path class="st2" d="M0,500"/>
						</g>
						<g>
							<path class="st3" d="M0,500"/>
						</g>
					</g>
					<g>
						<path class="st3" d="M0,500"/>
					</g>
					<g>
						<path class="st3" d="M0,500"/>
					</g>
					<g>
						<path class="st3" d="M0,500"/>
					</g>
					<g>
						<path class="st3" d="M0,500"/>
					</g>
					<g>
						<path class="st3" d="M0,500"/>
					</g>
					<g>
						<path class="st3" d="M0,500"/>
					</g>
					<g>
						<path class="st3" d="M0,500"/>
					</g>
					<g>
						<path class="st3" d="M0,500"/>
					</g>
					<g>
						<g>
							<path class="st1" d="M385.2,290.5c-1.3,0-2.6-0.4-3.7-1.3c-2.6-2-3.1-5.8-1-8.4c6.9-8.9,10.7-20,10.7-31.2
								c0-11.4-3.7-22.2-10.7-31.2c-2-2.6-1.6-6.4,1-8.4s6.4-1.6,8.4,1c8.7,11.1,13.3,24.5,13.3,38.6c0,13.9-4.7,27.6-13.3,38.6
								C388.7,289.7,387,290.5,385.2,290.5z M363.1,271.9c-1.3,0-2.6-0.4-3.7-1.3c-2.6-2-3.1-5.8-1-8.4c2.8-3.6,4.3-8,4.3-12.6
								s-1.5-8.9-4.4-12.7c-2-2.6-1.5-6.4,1.1-8.4s6.4-1.5,8.4,1.1c4.4,5.8,6.8,12.8,6.8,19.9c0,7.2-2.4,14.3-6.9,20
								C366.6,271.1,364.9,271.9,363.1,271.9z"/>
						</g>
					</g>
				</g>
			</g>
		</g>
	</g>
</g>
</svg>
