<?xml version="1.0" encoding="utf-8"?>
<!-- Generator: Adobe Illustrator 27.5.0, SVG Export Plug-In . SVG Version: 6.00 Build 0)  -->
<svg version="1.1" id="Layer_1" xmlns="http://www.w3.org/2000/svg" xmlns:xlink="http://www.w3.org/1999/xlink" x="0px" y="0px"
	 viewBox="0 0 500 500" style="enable-background:new 0 0 500 500;" xml:space="preserve">
<style type="text/css">
	.st0{clip-path:url(#SVGID_00000012469573688381020020000017724944178218879396_);}
	.st1{fill:#FFFFFF;}
	.st2{fill:none;stroke:#FFFFFF;stroke-width:12;stroke-linecap:round;stroke-linejoin:round;}
</style>
<g>
	<g>
		<g>
			<g>
				<defs>
					<rect id="SVGID_1_" width="500" height="500"/>
				</defs>
				<clipPath id="SVGID_00000015344344051445517820000010077022150582929307_">
					<use xlink:href="#SVGID_1_"  style="overflow:visible;"/>
				</clipPath>
				<g style="clip-path:url(#SVGID_00000015344344051445517820000010077022150582929307_);">
					<g>
						<path class="st1" d="M250,416.1L250,416.1c-0.8,0-1.6-0.2-2.4-0.5c-0.2-0.1-0.3-0.2-0.5-0.2c-33.9-18-62.9-43.8-86.2-76.5
							c-18.6-26.1-33.6-56.7-44.6-90.8C97.6,190,96.8,142.2,96.8,140.2c0-2.2,1.1-4.1,3-5.2c2.9-1.7,72.3-42,149.1-42
							c0.4,0,0.7,0,1.1,0c0.4,0,0.7,0,1.1,0c76.8,0,146.2,40.3,149.1,42c1.9,1.1,3,3.1,3,5.2c0,2-0.8,49.8-19.5,107.9
							c-11,34.2-26,64.7-44.6,90.8c-23.3,32.7-52.3,58.5-86.2,76.5c-0.2,0.1-0.3,0.2-0.5,0.2C251.6,415.9,250.8,416.1,250,416.1z
							 M108.9,143.6c0.6,12.1,3.5,53.5,18.9,101.1c16.5,51,51,119.5,122.2,158.6c71.1-39.1,105.7-107.6,122.2-158.6
							c15.4-47.6,18.4-89.1,18.9-101.1c-14.2-7.7-75.3-38.7-140-38.7c-0.4,0-0.7,0-1,0l0,0l0,0l0,0l0,0l0,0
							C184.9,104.6,123.2,135.8,108.9,143.6z"/>
					</g>
					<g>
						<path class="st1" d="M270.1,309.3h-40.2c-3.3,0-6-2.7-6-6v-36.8h-36.8c-3.3,0-6-2.7-6-6v-40.2c0-3.3,2.7-6,6-6h36.8v-36.8
							c0-3.3,2.7-6,6-6h40.2c3.3,0,6,2.7,6,6v36.8h36.8c3.3,0,6,2.7,6,6v40.2c0,3.3-2.7,6-6,6h-36.8v36.8
							C276.1,306.6,273.4,309.3,270.1,309.3z M235.9,297.3h28.2v-36.8c0-3.3,2.7-6,6-6h36.8v-28.2h-36.8c-3.3,0-6-2.7-6-6v-36.8
							h-28.2v36.8c0,3.3-2.7,6-6,6h-36.8v28.2h36.8c3.3,0,6,2.7,6,6L235.9,297.3L235.9,297.3z"/>
					</g>
					<g>
						<path class="st2" d="M0,500"/>
					</g>
				</g>
			</g>
		</g>
	</g>
</g>
</svg>
