<?xml version="1.0" encoding="utf-8"?>
<!-- Generator: Adobe Illustrator 27.5.0, SVG Export Plug-In . SVG Version: 6.00 Build 0)  -->
<svg version="1.1" id="Layer_1" xmlns="http://www.w3.org/2000/svg" xmlns:xlink="http://www.w3.org/1999/xlink" x="0px" y="0px"
	 viewBox="0 0 500 500" style="enable-background:new 0 0 500 500;" xml:space="preserve">
<style type="text/css">
	.st0{fill:#FFFFFF;}
	.st1{display:none;fill:none;stroke:#FFFFFF;stroke-width:12;stroke-linecap:round;stroke-linejoin:round;}
	.st2{fill:none;stroke:#FFFFFF;stroke-width:12;stroke-linecap:round;stroke-linejoin:round;}
</style>
<g>
	<g>
		<path class="st0" d="M382.7,416.1H117.3c-3.3,0-6-2.7-6-6V228.3L94.6,244c-2.4,2.3-6.2,2.2-8.5-0.3c-2.3-2.4-2.2-6.2,0.3-8.5
			l159.5-150c2.3-2.2,5.9-2.2,8.2,0l46.4,43.6V105c0-3.3,2.7-6,6-6h46.8c3.3,0,6,2.7,6,6v79.2l26.8,25.2c0.5,0.3,1,0.8,1.3,1.3
			l26.2,24.6c2.4,2.3,2.5,6.1,0.3,8.5c-2.3,2.4-6.1,2.5-8.5,0.3l-16.7-15.7v181.8C388.7,413.4,386,416.1,382.7,416.1z M123.3,404.1
			h253.4V217l-27-25.4c-0.4-0.3-0.7-0.6-1-0.9L250,97.8L123.3,217V404.1z M312.5,140.1l34.8,32.7V111h-34.8V140.1z"/>
	</g>
	<g>
		<g>
			<path class="st0" d="M237.5,315.4c-1.5,0-3-0.6-4.2-1.7l-15.5-15.2c-2.4-2.3-2.4-6.1-0.1-8.5c2.3-2.4,6.1-2.4,8.5-0.1l11.3,11.1
				l42.8-42.5c2.4-2.3,6.1-2.3,8.5,0c2.3,2.4,2.3,6.2,0,8.5l-47,46.7C240.6,314.8,239,315.4,237.5,315.4z"/>
		</g>
		<g>
			<path class="st0" d="M250,376.1c-1.3,0-2.6-0.4-3.7-1.3l-33.8-26.5c-15.7-12.5-26.9-30.1-31.6-49.7c0-0.1-0.1-0.3-0.1-0.4
				L170,231.4c-0.5-3.2,1.6-6.2,4.7-6.8c23.5-4.9,63.5-15.9,70.9-24.1c1.1-1.3,2.8-2,4.5-2s3.3,0.7,4.5,2
				c7.3,8.2,47.4,19.2,70.9,24.1c3.1,0.7,5.2,3.7,4.7,6.8l-10.8,66.8c0,0.1-0.1,0.3-0.1,0.4c-4.7,19.6-15.9,37.2-31.6,49.7
				l-33.8,26.5C252.6,375.7,251.3,376.1,250,376.1z M192.6,296c4.1,16.9,13.8,32.1,27.4,42.9l30.1,23.6l30.1-23.6
				c13.5-10.7,23.2-26,27.3-42.9l9.9-61c-15.7-3.5-52.1-12.5-67.3-22.9c-15.2,10.4-51.5,19.3-67.3,22.9L192.6,296z"/>
		</g>
	</g>
	<g>
		<g>
			<path class="st1" d="M0,500"/>
		</g>
		<g>
			<path class="st2" d="M0,500"/>
		</g>
		<g>
			<path class="st2" d="M0,500"/>
		</g>
		<g>
			<path class="st2" d="M0,500"/>
		</g>
		<g>
			<path class="st2" d="M0,500"/>
		</g>
		<g>
			<path class="st2" d="M0,500"/>
		</g>
		<g>
			<path class="st2" d="M0,500"/>
		</g>
		<g>
			<path class="st2" d="M0,500"/>
		</g>
		<g>
			<path class="st2" d="M0,500"/>
		</g>
		<g>
			<path class="st2" d="M0,500"/>
		</g>
		<g>
			<path class="st2" d="M0,500"/>
		</g>
		<g>
			<path class="st2" d="M0,500"/>
		</g>
	</g>
</g>
</svg>
