<?xml version="1.0" encoding="utf-8"?>
<!-- Generator: Adobe Illustrator 27.5.0, SVG Export Plug-In . SVG Version: 6.00 Build 0)  -->
<svg version="1.1" id="Layer_1" xmlns="http://www.w3.org/2000/svg" xmlns:xlink="http://www.w3.org/1999/xlink" x="0px" y="0px"
	 viewBox="0 0 500 500" style="enable-background:new 0 0 500 500;" xml:space="preserve">
<style type="text/css">
	.st0{fill:#FFFFFF;}
</style>
<g>
	<g>
		<path class="st0" d="M382.7,416.1H117.3c-3.3,0-6-2.7-6-6V228.3L94.6,244c-2.4,2.3-6.2,2.2-8.5-0.3c-2.3-2.4-2.2-6.2,0.3-8.5
			l159.5-150c2.3-2.2,5.9-2.2,8.2,0l46.4,43.6V105c0-3.3,2.7-6,6-6h46.8c3.3,0,6,2.7,6,6v79.2l26.8,25.2c0.5,0.3,1,0.8,1.3,1.3
			l26.2,24.6c2.4,2.3,2.5,6.1,0.3,8.5c-2.3,2.4-6.1,2.5-8.5,0.3l-16.7-15.7v181.8C388.7,413.4,386,416.1,382.7,416.1z M123.3,404.1
			h253.4V217l-27-25.4c-0.4-0.3-0.7-0.6-1-0.9L250,97.8L123.3,217V404.1z M312.5,140.1l34.8,32.7V111h-34.8V140.1z"/>
	</g>
	<g>
		<path class="st0" d="M303.3,376.1H196.8c-19,0-34.4-15.4-34.4-34.4v-68.9c0-19,15.4-34.4,34.4-34.4h17.8v-7.7
			c0-7.6,6.1-13.7,13.7-13.7h43.4c7.6,0,13.7,6.1,13.7,13.7v7.7h17.9c19,0,34.4,15.4,34.4,34.4v68.9
			C337.7,360.7,322.3,376.1,303.3,376.1z M174.4,300.6v41.1c0,12.4,10,22.4,22.4,22.4h106.5c12.4,0,22.4-10,22.4-22.4v-41.1h-51.9
			v16.1c0,3.3-2.7,6-6,6h-35.6c-3.3,0-6-2.7-6-6v-16.1H174.4z M238.2,310.7h23.6v-10.1h-23.6L238.2,310.7L238.2,310.7z M174.4,288.6
			h151.3v-15.8c0-12.4-10-22.4-22.4-22.4H196.8c-12.4,0-22.4,10-22.4,22.4L174.4,288.6L174.4,288.6z M226.6,238.4h46.8v-7.7
			c0-0.9-0.8-1.7-1.7-1.7h-43.4c-0.9,0-1.7,0.8-1.7,1.7L226.6,238.4L226.6,238.4z"/>
	</g>
</g>
</svg>
