<?xml version="1.0" encoding="utf-8"?>
<!-- Generator: Adobe Illustrator 27.5.0, SVG Export Plug-In . SVG Version: 6.00 Build 0)  -->
<svg version="1.1" id="Layer_1" xmlns="http://www.w3.org/2000/svg" xmlns:xlink="http://www.w3.org/1999/xlink" x="0px" y="0px"
	 viewBox="0 0 500 500" style="enable-background:new 0 0 500 500;" xml:space="preserve">
<style type="text/css">
	.st0{fill:#FFFFFF;}
	.st1{fill:none;}
</style>
<g transform="translate(35 35)">
	<g>
		<path class="st0" d="M349.2,385.5c-3,0-5.6-2.3-6-5.3c-0.2-1.4,0.2-2.7,0.9-3.8v-169c0-3.3,2.7-6,6-6s6,2.7,6,6v172.1
			c0,3.1-2.3,5.6-5.3,6l-0.9,0.1C349.6,385.5,349.4,385.5,349.2,385.5z M381.6,213.3c-1.5,0-3.1-0.6-4.2-1.6
			c0,0-31.9-29.6-67.5-62.6c-2.4-2.3-2.6-6-0.3-8.5c1.3-1.4,3.1-2,4.8-1.9c-0.2-0.6-0.3-1.3-0.3-2L314,79.3c-2.7-0.6-4.7-3.1-4.6-6
			c0.1-3.3,2.8-6,6.1-5.9l4.6,0.1c3.3,0.1,5.9,2.7,5.9,6l0.1,63.1c0,3.1-2.4,5.7-5.5,6c32.6,30.2,61.5,57,64.7,60
			c1.4,1.1,2.3,2.8,2.3,4.7C387.5,210.6,384.9,213.3,381.6,213.3z M251.8,93.1c-1.5,0-2.9-0.5-4.1-1.6C228.4,73.6,214.8,61,214.8,61
			c-1.6-1.5-2.3-3.8-1.7-5.9c0.5-2.1,2.2-3.8,4.4-4.3l1.2-0.3c3.2-0.8,6.5,1.1,7.3,4.4V55c5,4.6,16,14.8,29.9,27.8
			c2.4,2.3,2.6,6,0.3,8.5C255,92.5,253.4,93.1,251.8,93.1z"/>
	</g>
	<g>
		<path class="st0" d="M319.8,153.2c-3.3,0-6-2.7-6-6V78.7h-35.1v24.6c0,3.3-2.7,6-6,6s-6-2.7-6-6V72.7c0-3.3,2.7-6,6-6h47.1
			c3.3,0,6,2.7,6,6v74.5C325.8,150.5,323.1,153.2,319.8,153.2z"/>
	</g>
	<g>
		<g>
			<path class="st0" d="M259.7,385.5c-3.3,0-6-2.7-6-6V247.3h-71.6v132.2c0,3.3-2.7,6-6,6s-6-2.7-6-6V241.3c0-3.3,2.7-6,6-6h83.6
				c3.3,0,6,2.7,6,6v138.2C265.7,382.8,263,385.5,259.7,385.5z M380.5,213.4c-1.5,0-2.9-0.5-4.1-1.6l-158.5-147L57,211.7
				c-2.4,2.2-6.2,2.1-8.5-0.4c-2.2-2.4-2.1-6.2,0.4-8.5l165-150.6c2.3-2.1,5.8-2.1,8.1,0L384.6,203c2.4,2.3,2.6,6,0.3,8.5
				C383.7,212.8,382.1,213.4,380.5,213.4z"/>
		</g>
		<g>
			<path class="st0" d="M350.2,385.5H83.9c-3.3,0-6-2.7-6-6V183.2c0-3.3,2.7-6,6-6s6,2.7,6,6v190.3h254.3v-194c0-3.3,2.7-6,6-6
				s6,2.7,6,6v200C356.2,382.8,353.5,385.5,350.2,385.5z"/>
		</g>
	</g>
</g>
<g>
	<path class="st1" d="M0,500"/>
</g>
</svg>
