<?xml version="1.0" encoding="utf-8"?>
<!-- Generator: Adobe Illustrator 27.5.0, SVG Export Plug-In . SVG Version: 6.00 Build 0)  -->
<svg version="1.1" id="Layer_1" xmlns="http://www.w3.org/2000/svg" xmlns:xlink="http://www.w3.org/1999/xlink" x="0px" y="0px"
	 viewBox="0 0 500 500" style="enable-background:new 0 0 500 500;" xml:space="preserve">
<style type="text/css">
	.st0{fill:#FFFFFF;}
	.st1{display:none;fill:none;stroke:#FFFFFF;stroke-width:12;stroke-linecap:round;stroke-linejoin:round;}
	.st2{fill:none;stroke:#FFFFFF;stroke-width:12;stroke-linecap:round;stroke-linejoin:round;}
</style>
<g>
	<g>
		<path class="st0" d="M122.9,334.1c-1.5,0-3.1-0.6-4.2-1.8c-2.3-2.3-2.3-6.1,0-8.5l92.1-92.1c2.3-2.3,6.1-2.3,8.5,0l45.1,44.4
			L371.9,168c2.3-2.3,6.1-2.4,8.5,0c2.3,2.3,2.4,6.1,0,8.5L268.7,288.8c-2.3,2.3-6.1,2.4-8.5,0L215,244.5l-87.9,87.9
			C126,333.5,124.4,334.1,122.9,334.1z"/>
	</g>
	<g>
		<path class="st0" d="M381.4,208.6c-3.3,0-6-2.7-6-6v-28.9h-29c-3.3,0-6-2.7-6-6s2.7-6,6-6h35c3.3,0,6,2.7,6,6v34.9
			C387.4,205.9,384.7,208.6,381.4,208.6z"/>
	</g>
	<g>
		<path class="st0" d="M433.8,390.7H66.2c-3.3,0-6-2.7-6-6V115.2c0-3.3,2.7-6,6-6h367.6c3.3,0,6,2.7,6,6v269.5
			C439.8,388,437.1,390.7,433.8,390.7z M72.2,378.7h355.6V121.2H72.2V378.7z"/>
	</g>
	<g>
		<g>
			<g>
				<path class="st1" d="M0,500"/>
			</g>
		</g>
		<g>
			<g>
				<path class="st2" d="M0,500"/>
			</g>
		</g>
		<g>
			<g>
				<path class="st2" d="M0,500"/>
			</g>
		</g>
		<g>
			<g>
				<path class="st2" d="M0,500"/>
			</g>
		</g>
		<g>
			<g>
				<path class="st2" d="M0,500"/>
			</g>
		</g>
		<g>
			<g>
				<path class="st2" d="M0,500"/>
			</g>
		</g>
		<g>
			<g>
				<path class="st2" d="M0,500"/>
			</g>
		</g>
		<g>
			<g>
				<path class="st2" d="M0,500"/>
			</g>
		</g>
		<g>
			<g>
				<path class="st2" d="M0,500"/>
			</g>
		</g>
		<g>
			<g>
				<path class="st2" d="M0,500"/>
			</g>
		</g>
		<g>
			<g>
				<path class="st2" d="M0,500"/>
			</g>
		</g>
		<g>
			<g>
				<path class="st2" d="M0,500"/>
			</g>
		</g>
	</g>
</g>
</svg>
