<?xml version="1.0" encoding="utf-8"?>
<!-- Generator: Adobe Illustrator 27.5.0, SVG Export Plug-In . SVG Version: 6.00 Build 0)  -->
<svg version="1.1" id="Layer_1" xmlns="http://www.w3.org/2000/svg" xmlns:xlink="http://www.w3.org/1999/xlink" x="0px" y="0px"
	 viewBox="0 0 500 500" style="enable-background:new 0 0 500 500;" xml:space="preserve">
<style type="text/css">
	.st0{fill:#FFFFFF;}
	.st1{display:none;fill:none;stroke:#FFFFFF;stroke-width:12.04;stroke-linecap:round;stroke-linejoin:round;}
	.st2{fill:none;stroke:#FFFFFF;stroke-width:12.04;stroke-linecap:round;stroke-linejoin:round;}
</style>
<g>
	<g>
		<g>
			<path class="st0" d="M199.6,155.2h-0.2c-4.3,0-7.8-3.5-7.8-7.8s3.5-7.8,7.8-7.8h0.2c4.3,0,7.8,3.5,7.8,7.8
				S203.9,155.2,199.6,155.2z M162.6,155.2h-0.2c-4.3,0-7.8-3.5-7.8-7.8s3.5-7.8,7.8-7.8h0.2c4.3,0,7.8,3.5,7.8,7.8
				S166.9,155.2,162.6,155.2z M125.7,155.2h-0.2c-4.3,0-7.8-3.5-7.8-7.8s3.5-7.8,7.8-7.8h0.2c4.3,0,7.8,3.5,7.8,7.8
				S130,155.2,125.7,155.2z"/>
		</g>
	</g>
	<g>
		<path class="st0" d="M298.7,392.5h-11.4c-3.3,0-6-2.6-6-5.9s2.6-6,5.8-6.1l11.5-0.3c1.9,0,3.8,0.9,5,2.4c1.2,1.6,1.5,3.6,0.9,5.5
			l-0.1,0.3C303.6,390.8,301.3,392.5,298.7,392.5z"/>
	</g>
	<g>
		<path class="st0" d="M278.6,392.5H89.9c-3.3,0-6-2.7-6-6v-205c0-3.3,2.7-6,6-6h320.2c3.3,0,6,2.7,6,6v104.2c0,2.4-1.4,4.6-3.6,5.5
			c-2.2,1-4.7,0.5-6.5-1.1c-4.9-4.6-10.3-8.5-16.1-11.6l-12.9,9.9c-1.6,1.2-3.6,1.6-5.5,0.9c-1.9-0.6-3.3-2.1-3.9-4l-4.6-15.6
			c-6.2-0.8-12.9-0.9-20.7,0.1l-4.6,15.5c-0.6,1.9-2,3.4-3.9,4s-3.9,0.3-5.5-0.9l-12.9-9.9c-6.1,3.3-11.7,7.4-16.6,12.1l5.4,15.3
			c0.7,1.9,0.4,3.9-0.8,5.5c-1.2,1.6-3,2.5-5,2.5l-16.3-0.5c-3,6.2-5.1,12.8-6.3,19.5l13.6,9.1c1.7,1.1,2.7,3,2.7,5s-1,3.9-2.6,5
			l-13.4,9.2c1.4,7.8,4.1,15.4,7.9,22.6c1,1.9,0.9,4.1-0.1,5.9C282.7,391.4,280.7,392.5,278.6,392.5z M95.9,380.5h173.3
			c-2.8-6.9-4.7-14.1-5.6-21.4c-0.3-2.2,0.7-4.5,2.6-5.7l9.2-6.3l-9.4-6.3c-1.9-1.3-2.9-3.5-2.6-5.8c1.4-10.7,4.7-21,9.9-30.6
			c1.1-2,3.2-3.2,5.5-3.1l11.3,0.3l-3.8-10.6c-0.8-2.1-0.2-4.5,1.3-6.2c7.4-7.7,16.1-14.1,25.9-18.8c2-1,4.5-0.8,6.3,0.6l9,6.9
			l3.2-10.8c0.7-2.2,2.5-3.9,4.8-4.2c5.8-0.9,11-1.4,15.9-1.4c5.6,0,11,0.5,16.1,1.4c2.2,0.4,4,2,4.7,4.2l3.2,10.8l9-6.9
			c1.8-1.4,4.2-1.6,6.3-0.6c4.3,2.1,8.4,4.5,12.3,7.2v-85.7H95.9V380.5z"/>
	</g>
	<g>
		<path class="st0" d="M406.7,313.8c-1.9,0-3.7-0.9-4.8-2.5c-1.2-1.6-1.5-3.7-0.8-5.5l3.4-9.6c1-2.8,3.8-4.4,6.7-3.9s5,3,5,5.9v9.5
			c0,3.2-2.6,5.9-5.8,6l-3.4,0.1C406.8,313.8,406.8,313.8,406.7,313.8z"/>
	</g>
	<g>
		<path class="st0" d="M410.1,392.5h-3.3c-2.6,0-4.9-1.7-5.7-4.1l-0.1-0.3c-0.6-1.9-0.3-3.9,0.9-5.5c1.2-1.6,3-2.5,5-2.4l3.4,0.1
			c3.2,0.1,5.8,2.8,5.8,6v0.2C416.1,389.8,413.4,392.5,410.1,392.5z"/>
	</g>
	<g>
		<path class="st0" d="M410.1,187.4H89.9c-3.3,0-6-2.7-6-6v-67.9c0-3.3,2.7-6,6-6h320.2c3.3,0,6,2.7,6,6v67.9
			C416.1,184.7,413.4,187.4,410.1,187.4z M95.9,175.4h308.2v-55.9H95.9V175.4z"/>
	</g>
	<g>
		<g>
			<path class="st0" d="M352.7,437c-5.1,0-10.3-0.5-16-1.4c-2.3-0.4-4.1-2-4.8-4.2l-3.2-10.8l-9,6.9c-1.8,1.4-4.2,1.6-6.3,0.6
				c-9.8-4.8-18.5-11.1-25.9-18.8c-1.6-1.6-2.1-4-1.3-6.2l3.8-10.7l-2.8,0.1c-0.1,0-0.1,0-0.2,0h-8.7c-2.2,0-4.2-1.2-5.3-3.2
				c-5.1-9.5-8.4-19.7-9.8-30.2c-0.3-2.3,0.7-4.5,2.6-5.8l9.4-6.4l-9.2-6.3c-1.9-1.3-2.9-3.5-2.6-5.7c1.4-10.5,4.7-20.7,9.8-30.5
				c1.1-2,3.2-3.3,5.5-3.2l11.3,0.3l-3.8-10.6c-0.8-2.2-0.2-4.6,1.4-6.2c7.7-7.9,16.4-14.2,25.9-18.8c2-1,4.5-0.7,6.3,0.6l9,6.9
				l3.2-10.8c0.6-2.2,2.4-3.8,4.7-4.2c5.1-0.9,10.5-1.4,16.1-1.4c5.1,0,10.3,0.5,16,1.4c2.3,0.4,4.1,2,4.8,4.2l3.2,10.8l9-6.9
				c1.8-1.4,4.2-1.6,6.3-0.6c8.3,4,15.8,9.2,22.4,15.3c1.2,1.1,1.9,2.7,1.9,4.4v12.6c0,0.7-0.1,1.4-0.4,2l-0.4,1.2l11.3-0.3
				c2.3-0.1,4.4,1.1,5.5,3.1c5.2,9.6,8.5,19.8,9.9,30.6c0.3,2.2-0.7,4.5-2.6,5.7l-9.5,6.5l9.2,6.3c1.9,1.3,2.9,3.5,2.6,5.7
				c-1.4,10.5-4.7,20.7-9.8,30.5c-1.1,2-3.2,3.3-5.5,3.2l-11.2-0.3l3.8,10.6c0.8,2.1,0.3,4.5-1.3,6.1c-7.3,7.7-16,14.1-25.9,18.9
				c-2,1-4.5,0.7-6.3-0.6l-9-6.9l-3.2,10.8c-0.6,2.2-2.4,3.8-4.7,4.2C363.7,436.5,358.3,437,352.7,437z M342.4,424.3
				c7.6,1,14.4,0.9,20.7,0l4.6-15.6c0.6-1.9,2-3.4,3.9-4s3.9-0.3,5.5,0.9l12.9,9.9c6.2-3.3,11.7-7.4,16.6-12.1l-5.3-15v-0.1
				l-0.1-0.3c-0.6-1.9-0.3-3.9,0.9-5.5c1.2-1.6,3.1-2.5,5-2.4l16.2,0.5c3-6.4,5.1-12.9,6.3-19.6l-13.4-9.2c-1.6-1.1-2.6-3-2.6-5
				s1-3.8,2.6-5l13.7-9.3c-1.2-6.8-3.3-13.3-6.3-19.6l-16.3,0.5c-2,0.1-3.9-0.9-5-2.5s-1.5-3.7-0.8-5.5l3-8.5V288
				c-4.3-3.8-9.1-7.1-14.3-9.9l-12.9,9.9c-1.6,1.2-3.6,1.6-5.5,0.9c-1.9-0.6-3.3-2.1-3.9-4l-4.6-15.5c-7.6-1-14.4-0.9-20.7,0
				L338,285c-0.6,1.9-2,3.4-3.9,4s-3.9,0.3-5.5-0.9l-12.9-9.9c-6,3.2-11.5,7.3-16.6,12.1l5.4,15.3c0.7,1.9,0.4,3.9-0.8,5.5
				c-1.2,1.6-3.1,2.5-5,2.5l-16.3-0.5c-3,6.4-5.1,12.9-6.3,19.6l13.4,9.2c1.6,1.1,2.6,3,2.6,5s-1,3.8-2.6,5l-13.5,9.2
				c1.2,6.7,3.3,13.2,6.3,19.4h4.9l11.4-0.3c1.9,0,3.8,0.9,5,2.4c1.2,1.6,1.5,3.6,0.9,5.5l-0.1,0.3v0.1l-5.3,15
				c5,4.7,10.5,8.8,16.6,12.1l12.9-9.9c1.6-1.2,3.6-1.6,5.5-0.9c1.9,0.6,3.3,2.1,3.9,4L342.4,424.3z"/>
		</g>
		<g>
			<path class="st0" d="M278.7,392.7c-1.6,0-3.1-0.6-4.2-1.7c-0.5-0.5-0.9-1.1-1.2-1.7c-0.8-1.5-0.9-3.4-0.2-5.1
				c0.9-2.2,3.1-3.7,5.5-3.7h8.7c3.3,0,6,2.6,6,5.9s-2.6,6-5.9,6.1L278.7,392.7C278.8,392.7,278.7,392.7,278.7,392.7z M274.4,390.8
				L274.4,390.8L274.4,390.8z M274.4,390.8L274.4,390.8L274.4,390.8z M272.7,386.7c0,0.1,0,0.2,0,0.3
				C272.7,387,272.7,386.8,272.7,386.7z M272.7,386.7L272.7,386.7L272.7,386.7z M272.7,386.7L272.7,386.7L272.7,386.7z M272.7,386.7
				L272.7,386.7L272.7,386.7z M272.7,386.7L272.7,386.7L272.7,386.7z M272.7,386.7L272.7,386.7L272.7,386.7z M272.7,386.7
				L272.7,386.7L272.7,386.7z"/>
		</g>
		<g>
			<path class="st0" d="M410.1,304.2c-0.3,0-0.7,0-1-0.1c-2.9-0.5-5-3-5-5.9v-12.6c0-2.4,1.4-4.5,3.6-5.5s4.7-0.5,6.5,1.1
				c1.3,1.2,2.6,2.5,3.7,3.7c1.5,1.6,2,4,1.2,6l-3.3,9.3C414.9,302.6,412.6,304.2,410.1,304.2z"/>
		</g>
		<g>
			<path class="st0" d="M352.8,377.6c-16.9,0-30.6-13.7-30.6-30.6s13.7-30.6,30.6-30.6s30.6,13.7,30.6,30.6S369.7,377.6,352.8,377.6
				z M352.8,328.4c-10.3,0-18.6,8.3-18.6,18.6s8.3,18.6,18.6,18.6c10.3,0,18.6-8.3,18.6-18.6S363.1,328.4,352.8,328.4z"/>
		</g>
	</g>
	<g>
		<g>
			<path class="st1" d="M0,500"/>
		</g>
		<g>
			<path class="st2" d="M0,500"/>
		</g>
		<g>
			<path class="st2" d="M0,500"/>
		</g>
		<g>
			<path class="st2" d="M0,500"/>
		</g>
		<g>
			<path class="st2" d="M0,500"/>
		</g>
		<g>
			<path class="st2" d="M0,500"/>
		</g>
		<g>
			<path class="st2" d="M0,500"/>
		</g>
		<g>
			<path class="st2" d="M0,500"/>
		</g>
		<g>
			<path class="st2" d="M0,500"/>
		</g>
		<g>
			<path class="st2" d="M0,500"/>
		</g>
		<g>
			<path class="st2" d="M0,500"/>
		</g>
		<g>
			<path class="st2" d="M0,500"/>
		</g>
	</g>
</g>
</svg>
