<?xml version="1.0" encoding="iso-8859-1"?>
<!-- Generator: Adobe Illustrator 29.6.1, SVG Export Plug-In . SVG Version: 9.03 Build 0)  -->
<svg version="1.1" id="Layer_1" xmlns="http://www.w3.org/2000/svg" xmlns:xlink="http://www.w3.org/1999/xlink" x="0px" y="0px"
	 viewBox="0 0 500 500" style="enable-background:new 0 0 500 500;" xml:space="preserve">
<g>
	<g>
		<path style="fill:#FFFFFF;" d="M430,411H70c-3.313,0-6-2.687-6-6v-40c0-3.313,2.687-6,6-6s6,2.687,6,6v34h348v-34
			c0-3.313,2.687-6,6-6s6,2.687,6,6v40C436,408.313,433.313,411,430,411z M430,291c-3.313,0-6-2.687-6-6v-54h-24
			c-3.313,0-6-2.687-6-6s2.687-6,6-6h24v-23H322.304c-3.313,0-6-2.687-6-6s2.687-6,6-6H424v-38H318.759c-3.313,0-6-2.687-6-6
			s2.687-6,6-6H430c3.313,0,6,2.687,6,6v145C436,288.313,433.313,291,430,291z M70,291c-3.313,0-6-2.687-6-6V140
			c0-3.313,2.687-6,6-6h111.241c3.314,0,6,2.687,6,6s-2.686,6-6,6H76v38h101.696c3.314,0,6,2.687,6,6s-2.686,6-6,6H76v23h24
			c3.313,0,6,2.687,6,6s-2.687,6-6,6H76v54C76,288.313,73.313,291,70,291z M360,251h-30c-3.313,0-6-2.687-6-6s2.687-6,6-6h30
			c3.313,0,6,2.687,6,6S363.313,251,360,251z M160,251h-30c-3.313,0-6-2.687-6-6s2.687-6,6-6h30c3.313,0,6,2.687,6,6
			S163.313,251,160,251z"/>
	</g>
	<g>
		<path style="fill:#FFFFFF;" d="M370,376c-2.973,0-5.44-2.162-5.917-5H125.917c-0.476,2.838-2.944,5-5.917,5s-5.441-2.162-5.917-5
			H70c-3.313,0-6-2.687-6-6v-40c0-3.313,2.687-6,6-6s6,2.687,6,6v34h38v-79c0-3.313,2.687-6,6-6s6,2.687,6,6v79h238v-79
			c0-3.313,2.687-6,6-6s6,2.687,6,6v79h48v-34c0-3.313,2.687-6,6-6s6,2.687,6,6v40c0,3.313-2.687,6-6,6h-54.083
			C375.44,373.838,372.973,376,370,376z"/>
	</g>
	<g>
		<path style="fill:#FFFFFF;" d="M430,331H270c-8.033,0-15.227-3.662-20-9.404c-4.773,5.742-11.967,9.404-20,9.404H70
			c-3.313,0-6-2.687-6-6v-40c0-3.313,2.687-6,6-6h134v-45.546c0-3.313,2.687-6,6-6s6,2.687,6,6V285c0,3.313-2.687,6-6,6H76v28h154
			c7.72,0,14-6.28,14-14v-60c0-3.314,2.687-6,6-6s6,2.686,6,6v60c0,7.72,6.28,14,14,14h154v-28H290c-3.313,0-6-2.687-6-6v-51.546
			c0-3.313,2.687-6,6-6s6,2.687,6,6V279h134c3.313,0,6,2.687,6,6v40C436,328.313,433.313,331,430,331z"/>
	</g>
	<g>
		<path style="fill:#FFFFFF;" d="M250,251c-44.664,0-81-36.336-81-81s36.336-81,81-81c44.663,0,81,36.336,81,81S294.663,251,250,251
			z M250,101c-38.047,0-69,30.953-69,69s30.953,69,69,69s69-30.953,69-69S288.047,101,250,101z"/>
	</g>
	<g>
		<path style="fill:#FFFFFF;" d="M242.999,223c-0.737,0-1.481-0.136-2.195-0.417C238.509,221.681,237,219.466,237,217v-30.818h-27
			c-2.388,0-4.548-1.416-5.501-3.605s-0.517-4.735,1.109-6.483l49.5-53.182c1.68-1.806,4.294-2.397,6.588-1.496
			c2.295,0.903,3.804,3.118,3.804,5.583v30.818h27c2.388,0,4.548,1.416,5.501,3.605s0.518,4.735-1.109,6.483l-49.5,53.182
			C246.234,222.332,244.633,223,242.999,223z M223.781,174.182H243c3.313,0,6,2.687,6,6v21.565l29.719-31.929H259.5
			c-3.313,0-6-2.687-6-6v-21.565L223.781,174.182z"/>
	</g>
</g>
</svg>
