<?xml version="1.0" encoding="utf-8"?>
<!-- Generator: Adobe Illustrator 27.5.0, SVG Export Plug-In . SVG Version: 6.00 Build 0)  -->
<svg version="1.1" id="Layer_1" xmlns="http://www.w3.org/2000/svg" xmlns:xlink="http://www.w3.org/1999/xlink" x="0px" y="0px"
	 viewBox="0 0 500 500" style="enable-background:new 0 0 500 500;" xml:space="preserve">
<style type="text/css">
	.st0{clip-path:url(#SVGID_00000126296393036986267680000017557234157246171306_);}
	.st1{fill:#FFFFFF;}
</style>
<g>
	<g>
		<g>
			<g>
				<defs>
					<rect id="SVGID_1_" width="500" height="500"/>
				</defs>
				<clipPath id="SVGID_00000129172552572279109750000013565713677346105218_">
					<use xlink:href="#SVGID_1_"  style="overflow:visible;"/>
				</clipPath>
				<g style="clip-path:url(#SVGID_00000129172552572279109750000013565713677346105218_);">
					<g>
						<g>
							<path class="st1" d="M221.7,159c-3.3,0-6-2.7-6-6v-6.1c-5.3-1.5-10.2-4.7-13.6-9.1c-2-2.6-1.6-6.4,1-8.4s6.4-1.6,8.4,1
								c3.1,3.9,8.2,6.1,13,5.4h0.1c1.8-0.2,3.4-0.8,4.5-1.8c0.9-0.8,1.6-1.9,1.6-2.9c0.1-2.7-1.2-3.8-10-6.2
								c-7.2-2-19.2-5.3-17.8-18.4c0.6-6.4,5.5-12.1,12.1-14.2c0.2-0.1,0.4-0.1,0.6-0.2v-5.6c0-3.3,2.7-6,6-6s6,2.7,6,6v5.7
								c5.6,1.7,10.7,5.5,13.9,10.8c1.7,2.9,0.7,6.5-2.2,8.2s-6.5,0.7-8.2-2.2c-1.9-3.2-5.4-5.4-8.9-5.8c-0.5,0.1-1.1,0-1.6,0
								c-0.7,0-1.4,0.2-2,0.4c-2,0.6-3.6,2.3-3.8,4c-0.2,2.2,0,3.2,9.1,5.6c7.6,2.1,19.1,5.3,18.8,18.1c-0.2,4.5-2.4,8.9-6,11.8
								c-2.6,2.1-5.7,3.5-9.1,4.2v5.5C227.7,156.3,225,159,221.7,159z"/>
						</g>
						<g>
							<path class="st1" d="M221.7,182.4c-34.5,0-62.6-28.1-62.6-62.6s28.1-62.6,62.6-62.6s62.6,28.1,62.6,62.6
								S256.2,182.4,221.7,182.4z M221.7,69.2c-27.9,0-50.6,22.7-50.6,50.6s22.7,50.6,50.6,50.6s50.6-22.7,50.6-50.6
								S249.6,69.2,221.7,69.2z"/>
						</g>
						<g>
							<path class="st1" d="M251.1,286.8c-3.3,0-6-2.7-6-6v-1.2c0-35.2-4.8-70.1-14.2-103.6c-0.9-3.2,1-6.5,4.2-7.4s6.5,1,7.4,4.2
								c9.7,34.6,14.6,70.5,14.6,106.8v1.2C257.1,284.1,254.4,286.8,251.1,286.8z"/>
						</g>
					</g>
					<g>
						<path class="st1" d="M251.1,291.6c-2.9,0-5.5-2.1-5.9-5.1c-0.2-1.1-4.5-26.3-36.2-35.5c-15.1,7.9-32.6,8.9-48.5,2.8
							c-16.8-6.4-29.5-19.9-35-37c-0.9-2.7,0.3-5.6,2.7-7c15.5-8.9,33.9-10.4,50.7-4l0,0c15.7,6.1,27.9,18.3,33.9,33.9
							c38.8,11.5,44,43.7,44.2,45.1c0.5,3.3-1.8,6.3-5.1,6.8C251.7,291.6,251.4,291.6,251.1,291.6z M138.7,217.9
							c5,11.3,14.3,20.2,26,24.7s24.5,4.1,35.9-0.9c-5-11.3-14.3-20.2-26-24.7C162.9,212.6,150,212.9,138.7,217.9z"/>
					</g>
					<g>
						<path class="st1" d="M256.3,443.3c-4.7,0-9.4-0.5-14-1.4l-35.9-7.3c-20.7-4.2-41.8-6.4-62.8-6.4h-6.7c-3.3,0-6-2.7-6-6V380
							c0-2.6,1.6-4.8,4.1-5.7c24.2-8.3,43.9-12.4,60.9-12.5l-4.9-39.3h-3c-3.3,0-6-2.7-6-6v-30.8c0-3.3,2.7-6,6-6h57.1
							c0.9-12,7.1-37.3,41.2-55.8c1.1-17.5,9.6-33.7,23.5-44.9c14.8-11.8,34-16.2,52.7-12.1c2.8,0.6,4.7,3.1,4.7,5.9
							c-0.1,19.1-8.7,36.8-23.7,48.6c-14.2,11.4-32.5,15.9-50.5,12.5c-29.2,15.4-34.9,36.2-35.9,45.8h57c3.3,0,6,2.7,6,6v30.8
							c0,3.3-2.7,6-6,6h-3l-7.1,57.6l38.5-24.8c0.1-0.1,0.3-0.2,0.4-0.2c5.7-3.1,12.2-3.7,18.4-1.9c6.2,1.9,11.3,6,14.3,11.7
							c1.4,2.6,1.8,5.8,1,8.8c-0.8,3.1-2.8,5.8-5.7,7.4l-80.2,53c-0.1,0.1-0.2,0.2-0.4,0.2C279.9,440.3,268.2,443.3,256.3,443.3z
							 M142.9,416.2h0.7c21.8,0,43.7,2.2,65.2,6.6l35.9,7.3c13.5,2.8,27.6,0.6,39.7-6.1l80.2-53c0.2-0.1,0.3-0.2,0.5-0.3l5.8-1.7
							l-5.8,1.6c-1.5-2.8-4.1-4.9-7.2-5.9c-3-0.9-6.3-0.6-9.1,0.8l-42.4,27.3c-0.8,5.7-5.7,10.2-11.7,10.2h-52.6c-3.3,0-6-2.7-6-6
							s2.7-6,6-6h52.4c-0.2-0.6-0.2-1.3-0.1-1.9c-0.2-1.2-0.6-2.3-1.1-3.3c-0.5-0.5-0.8-1.2-1.1-1.8c-0.4-0.5-0.8-1.1-1.3-1.6
							c-2.3-2.3-5.5-3.6-8.9-3.6h-44.2c-7.4,0-14.7-0.9-21.6-2.7c-4.1-1-8.4-1.7-12.9-2c-0.7,0.1-1.4,0-2-0.1
							c-15.9-0.8-34.6,2.6-58.4,10.4L142.9,416.2L142.9,416.2z M208,362.5c3.8,0.4,7.5,1.1,11.1,2c6,1.5,12.3,2.3,18.6,2.3H282
							c4,0,7.8,0.9,11.3,2.7l5.8-47h-96L208,362.5z M306,310.5h2.2v-18.8h-57c-0.1,0-0.1,0-0.2,0h-57v18.8h2.2c0.1,0,0.1,0,0.2,0
							h109.4C305.9,310.5,305.9,310.5,306,310.5z M298.5,222.6c13.5,1.7,26.9-2.1,37.6-10.6l0,0c10.7-8.4,17.4-20.7,18.8-34.2
							c-13.5-1.7-26.9,2.1-37.6,10.6C306.6,197,299.9,209.2,298.5,222.6z"/>
					</g>
				</g>
			</g>
		</g>
	</g>
</g>
</svg>
