<?xml version="1.0" encoding="utf-8"?>
<!-- Generator: Adobe Illustrator 27.5.0, SVG Export Plug-In . SVG Version: 6.00 Build 0)  -->
<svg version="1.1" id="Layer_1" xmlns="http://www.w3.org/2000/svg" xmlns:xlink="http://www.w3.org/1999/xlink" x="0px" y="0px"
	 viewBox="0 0 500 500" style="enable-background:new 0 0 500 500;" xml:space="preserve">
<style type="text/css">
	.st0{clip-path:url(#SVGID_00000025424326066830427770000007593635402807508872_);}
	.st1{fill:#FFFFFF;}
</style>
<g>
	<g>
		<g>
			<g>
				<g>
					<g>
						<defs>
							<rect id="SVGID_1_" width="500" height="500"/>
						</defs>
						<clipPath id="SVGID_00000150820746784906242260000006427425465432306837_">
							<use xlink:href="#SVGID_1_"  style="overflow:visible;"/>
						</clipPath>
						<g style="clip-path:url(#SVGID_00000150820746784906242260000006427425465432306837_);">
							<g>
								<path class="st1" d="M250,442.8c-16.8,0-30.7-12.7-32.5-29.1c-36-7.1-68.7-26-93-53.7c-15.1,6.6-33.1,1-41.5-13.6
									c-8.3-14.6-4.2-33,8.9-42.7c-5.9-17.2-8.8-35.2-8.8-53.6s3-36.4,8.9-53.8c-13.2-9.7-17.3-28.1-9-42.7
									c4.3-7.6,11.4-13,19.9-15.3c7.3-1.9,14.8-1.4,21.6,1.6c24.2-27.7,57-46.6,93-53.7c1.8-16.3,15.7-29.1,32.5-29.1
									s30.7,12.7,32.5,29.1c35.9,7,68.6,25.9,93,53.7c6.8-3,14.4-3.6,21.6-1.6c8.4,2.3,15.5,7.7,19.9,15.3c8.3,14.6,4.2,33-9,42.7
									c5.9,17.3,8.9,35.3,8.9,53.7s-3,36.5-8.9,53.7c13.2,9.7,17.3,28.1,9,42.7c-8.4,14.5-26.4,20.2-41.5,13.6
									c-24.3,27.8-57,46.7-93,53.7C280.7,430.1,266.8,442.8,250,442.8z M250,389.4c-11.4,0-20.7,9.3-20.7,20.7s9.3,20.7,20.7,20.7
									s20.7-9.3,20.7-20.7S261.4,389.4,250,389.4z M250,377.4c15.1,0,27.9,10.3,31.6,24.3c32.4-6.7,61.8-23.7,83.9-48.5
									c-10.1-10.2-12.7-26.4-5.2-39.5c7.6-13.1,22.9-19,36.9-15.3c5.2-15.6,7.8-31.9,7.8-48.5c0-16.5-2.6-32.8-7.8-48.4
									c-13.9,3.7-29.3-2.2-36.8-15.3c-7.6-13.1-5-29.3,5.2-39.5c-22.2-24.8-51.7-41.8-83.9-48.5c-3.7,14-16.5,24.3-31.6,24.3
									s-27.9-10.3-31.6-24.3c-32.4,6.7-61.9,23.7-83.9,48.5c10.2,10.2,12.7,26.4,5.2,39.5c-4.3,7.6-11.4,13-19.9,15.3
									c-5.6,1.5-11.5,1.5-17,0c-5.2,15.7-7.8,32-7.8,48.5c0,16.6,2.6,32.8,7.7,48.3c5.5-1.5,11.4-1.5,17,0
									c8.4,2.3,15.5,7.7,19.9,15.3c7.6,13.1,5,29.3-5.2,39.5c22.1,24.8,51.5,41.8,83.9,48.5C222.1,387.7,234.9,377.4,250,377.4z
									 M111.3,309.3c-3.6,0-7.1,0.9-10.3,2.8l0,0c-9.8,5.7-13.3,18.4-7.6,28.3c5.5,9.5,17.4,13,27,8.2c0.3-0.5,0.8-1,1.3-1.4
									c0.9-0.7,1.9-1.1,2.9-1.3c7.6-6.3,9.8-17.4,4.7-26.3c-2.8-4.8-7.3-8.2-12.6-9.7C114.9,309.5,113.1,309.3,111.3,309.3z
									 M379.6,348.7c9.7,4.7,21.6,1.2,27.1-8.3c5.6-9.9,2.2-22.6-7.6-28.3c-9.9-5.6-22.6-2.2-28.3,7.6c-5,8.8-2.9,19.9,4.7,26.3
									c1,0.2,2,0.6,2.9,1.3C378.8,347.7,379.2,348.1,379.6,348.7z M388.6,149.2c-3.6,0-7.1,0.9-10.3,2.8
									c-4.8,2.8-8.2,7.3-9.7,12.6c-1.4,5.3-0.7,10.9,2.1,15.7c5.1,8.9,15.8,12.5,25.1,9.1c0.7-0.8,1.5-1.5,2.6-1.9
									c0.6-0.2,1.3-0.4,1.9-0.4c8.9-6,11.7-18,6.3-27.5c-2.8-4.8-7.2-8.2-12.6-9.7C392.2,149.4,390.4,149.2,388.6,149.2z
									 M104.1,189.4c4,1.5,8.4,1.7,12.7,0.6c5.4-1.4,9.8-4.8,12.5-9.6c5.7-9.9,2.3-22.6-7.6-28.3c-10-5.7-22.7-2.3-28.3,7.6
									c-5.4,9.5-2.5,21.7,6.5,27.6c0.6,0,1.2,0.2,1.7,0.4C102.6,188,103.5,188.6,104.1,189.4z M229.4,91.8
									c0.9,10.5,9.8,18.8,20.6,18.8c10.8,0,19.7-8.3,20.6-18.8c0-0.5,0-1,0.1-1.4v-0.1c0-0.1,0-0.2,0-0.3
									c0-11.4-9.3-20.7-20.7-20.7s-20.7,9.3-20.7,20.7c0,0.1,0,0.2,0,0.3v0.1C229.4,90.8,229.4,91.3,229.4,91.8z"/>
							</g>
							<g>
								<g>
									<path class="st1" d="M351.5,240c-1.5,0-3.1-0.6-4.2-1.8c-26-26-60.5-40.3-97.3-40.3c-36.7,0-71.3,14.3-97.3,40.3
										c-2.3,2.3-6.1,2.3-8.5,0c-2.3-2.3-2.3-6.1,0-8.5c28.3-28.3,65.8-43.8,105.7-43.8s77.5,15.6,105.7,43.8
										c2.3,2.3,2.3,6.1,0,8.5C354.6,239.4,353,240,351.5,240z"/>
								</g>
								<g>
									<path class="st1" d="M329.1,260.4c-1.5,0-3.1-0.6-4.2-1.8c-20-20-46.6-31-74.9-31s-54.9,11-74.9,31c-2.3,2.3-6.1,2.3-8.5,0
										c-2.3-2.3-2.3-6.1,0-8.5c22.3-22.3,51.9-34.5,83.3-34.5s61.1,12.3,83.3,34.5c2.3,2.3,2.3,6.1,0,8.5
										C332.2,259.8,330.6,260.4,329.1,260.4z"/>
								</g>
								<g>
									<path class="st1" d="M250,337.4c-18,0-32.7-14.7-32.7-32.7S232,272,250,272s32.7,14.7,32.7,32.7S268,337.4,250,337.4z
										 M250,284c-11.4,0-20.7,9.3-20.7,20.7s9.3,20.7,20.7,20.7s20.7-9.3,20.7-20.7S261.4,284,250,284z M192.7,280.2
										c-1.5,0-3.1-0.6-4.2-1.8c-2.3-2.3-2.3-6.1,0-8.5c33.9-33.9,89.1-33.9,123.1,0c2.3,2.3,2.4,6.1,0,8.5
										c-2.3,2.3-6.1,2.4-8.5,0c-29.3-29.2-76.9-29.2-106.1,0C195.8,279.6,194.2,280.2,192.7,280.2z"/>
								</g>
							</g>
						</g>
					</g>
				</g>
			</g>
		</g>
	</g>
</g>
</svg>
