<?xml version="1.0" encoding="utf-8"?>
<!-- Generator: Adobe Illustrator 27.5.0, SVG Export Plug-In . SVG Version: 6.00 Build 0)  -->
<svg version="1.1" id="Layer_1" xmlns="http://www.w3.org/2000/svg" xmlns:xlink="http://www.w3.org/1999/xlink" x="0px" y="0px"
	 viewBox="0 0 500 500" style="enable-background:new 0 0 500 500;" xml:space="preserve">
<style type="text/css">
	.st0{clip-path:url(#SVGID_00000028293025835550089600000006998523641164244925_);}
	.st1{clip-path:url(#SVGID_00000031178866326561178100000007090500955306280320_);}
	.st2{fill:#FFFFFF;}
	.st3{opacity:0;}
	.st4{clip-path:url(#SVGID_00000124129709045442667440000005898477079880841387_);}
	.st5{clip-path:url(#SVGID_00000156573174934150125970000002345395930542716831_);}
	.st6{fill:none;stroke:#FFFFFF;stroke-width:7;stroke-linecap:round;stroke-linejoin:round;}
</style>
<g>
	<g>
		<g>
			<defs>
				<rect id="SVGID_1_" width="500" height="500"/>
			</defs>
			<clipPath id="SVGID_00000069362419920716223280000011693238434559256230_">
				<use xlink:href="#SVGID_1_"  style="overflow:visible;"/>
			</clipPath>
			<g style="clip-path:url(#SVGID_00000069362419920716223280000011693238434559256230_);">
				<g>
					<g>
						<g>
							<defs>
								<rect id="SVGID_00000018942867023776777020000001092160769354448526_" width="500" height="500"/>
							</defs>
							<clipPath id="SVGID_00000141451196243882525140000007311988751541679262_">
								<use xlink:href="#SVGID_00000018942867023776777020000001092160769354448526_"  style="overflow:visible;"/>
							</clipPath>
							<g style="clip-path:url(#SVGID_00000141451196243882525140000007311988751541679262_);">
								<g>
									<path class="st2" d="M327,120.7c-11.6,0-21-9.4-21-21s9.4-21,21-21l0,0c11.6,0,21,9.4,21,21S338.6,120.7,327,120.7z"/>
								</g>
								<g>
									<path class="st2" d="M378.3,177.2c-9.7,0-17.5-7.8-17.5-17.5s7.8-17.5,17.5-17.5l0,0c9.7,0,17.5,7.8,17.5,17.5
										S388,177.2,378.3,177.2z"/>
								</g>
								<g>
									<path class="st2" d="M409.5,233.9c-8,0-14.5-6.5-14.5-14.5s6.5-14.5,14.5-14.5l0,0c8,0,14.5,6.5,14.5,14.5
										S417.5,233.9,409.5,233.9z"/>
								</g>
								<g>
									<path class="st2" d="M333,171.6c-9.7,0-17.5-7.8-17.5-17.5s7.8-17.5,17.5-17.5l0,0c9.7,0,17.5,7.8,17.5,17.5
										S342.7,171.6,333,171.6z"/>
								</g>
								<g class="st3">
									<g>
										<path class="st2" d="M333,171.6c-9.7,0-17.5-7.8-17.5-17.5s7.8-17.5,17.5-17.5l0,0c9.7,0,17.5,7.8,17.5,17.5
											S342.7,171.6,333,171.6z"/>
									</g>
								</g>
								<g>
									<path class="st2" d="M373,219.8c-8,0-14.5-6.5-14.5-14.5s6.5-14.5,14.5-14.5l0,0c8,0,14.5,6.5,14.5,14.5
										S381,219.8,373,219.8z"/>
								</g>
								<g>
									<path class="st2" d="M395.8,269.3c-7.2,0-13-5.8-13-13s5.8-13,13-13l0,0c7.2,0,13,5.8,13,13
										C408.8,263.5,403,269.3,395.8,269.3z"/>
								</g>
								<g>
									<path class="st2" d="M327.7,213.8c-8,0-14.5-6.5-14.5-14.5s6.5-14.5,14.5-14.5l0,0c8,0,14.5,6.5,14.5,14.5
										S335.7,213.8,327.7,213.8z"/>
								</g>
								<g>
									<path class="st2" d="M359.2,255.2c-7.2,0-13-5.8-13-13s5.8-13,13-13l0,0c7.2,0,13,5.8,13,13S366.4,255.2,359.2,255.2z"/>
								</g>
								<g>
									<path class="st2" d="M378.3,295.2c-6.1,0-11-4.9-11-11s4.9-11,11-11l0,0c6.1,0,11,4.9,11,11S384.4,295.2,378.3,295.2z"/>
								</g>
								<g>
									<path class="st2" d="M314.3,249.1c-7.2,0-13-5.8-13-13s5.8-13,13-13l0,0c7.2,0,13,5.8,13,13S321.4,249.1,314.3,249.1z"/>
								</g>
								<g>
									<path class="st2" d="M341.8,280.7c-6.1,0-11-4.9-11-11s4.9-11,11-11l0,0c6.1,0,11,4.9,11,11S347.8,280.7,341.8,280.7z"/>
								</g>
								<g>
									<path class="st2" d="M357.3,313.5c-5.2,0-9.5-4.3-9.5-9.5s4.2-9.5,9.5-9.5l0,0c5.2,0,9.5,4.3,9.5,9.5
										S362.5,313.5,357.3,313.5z"/>
								</g>
								<g>
									<path class="st2" d="M296.2,275c-6.1,0-11-4.9-11-11s4.9-11,11-11l0,0c6.1,0,11,4.9,11,11S302.2,275,296.2,275z"/>
								</g>
								<g>
									<path class="st2" d="M321.6,299.3c-5.2,0-9.5-4.3-9.5-9.5s4.2-9.5,9.5-9.5l0,0c5.2,0,9.5,4.3,9.5,9.5
										S326.9,299.3,321.6,299.3z"/>
								</g>
								<g>
									<path class="st2" d="M337.4,323.6c-4.4,0-8-3.6-8-8s3.6-8,8-8l0,0c4.4,0,8,3.6,8,8S341.8,323.6,337.4,323.6z"/>
								</g>
								<g>
									<path class="st2" d="M276.3,292.7c-5.2,0-9.5-4.3-9.5-9.5s4.2-9.5,9.5-9.5l0,0c5.2,0,9.5,4.3,9.5,9.5
										S281.6,292.7,276.3,292.7z"/>
								</g>
								<g>
									<path class="st2" d="M300.2,310c-4.4,0-8-3.6-8-8s3.6-8,8-8l0,0c4.4,0,8,3.6,8,8S304.6,310,300.2,310z"/>
								</g>
								<g>
									<path class="st2" d="M317.6,329.1c-3.9,0-7-3.1-7-7s3.1-7,7-7l0,0c3.9,0,7,3.1,7,7S321.5,329.1,317.6,329.1z"/>
								</g>
								<g class="st3">
									<g>
										<path class="st2" d="M246.3,299.9c-2.6,0-4.8-2.1-4.8-4.8s2.1-4.8,4.7-4.8l0,0c2.6,0,4.8,2.1,4.8,4.8
											S249,299.9,246.3,299.9z"/>
									</g>
								</g>
								<g class="st3">
									<g>
										<path class="st2" d="M270.2,318c-2.2,0-4-1.8-4-4s1.8-4,4-4l0,0c2.2,0,4,1.8,4,4S272.4,318,270.2,318z"/>
									</g>
								</g>
								<g class="st3">
									<g>
										<path class="st2" d="M287.6,337.6c-1.9,0-3.5-1.6-3.5-3.5s1.6-3.5,3.5-3.5l0,0c1.9,0,3.5,1.6,3.5,3.5
											S289.5,337.6,287.6,337.6z"/>
									</g>
								</g>
							</g>
						</g>
					</g>
				</g>
				<g>
					<g>
						<g>
							<defs>
								<rect id="SVGID_00000099622441589604571770000000008737275206366594_" x="0" y="0" width="500" height="500"/>
							</defs>
							<clipPath id="SVGID_00000054978140783943880360000018107369839997578916_">
								<use xlink:href="#SVGID_00000099622441589604571770000000008737275206366594_"  style="overflow:visible;"/>
							</clipPath>
							
								<g transform="rotate(-120 255.799 249.652)" style="clip-path:url(#SVGID_00000054978140783943880360000018107369839997578916_);">
								<g>
									<path class="st2" d="M308.8,89.2c3.7-6.4,10.6-10.6,18.5-10.5l0,0c11.6,0.2,20.8,9.7,20.7,21.3
										c-0.2,11.6-9.7,20.8-21.3,20.7c-11.6-0.2-20.8-9.7-20.7-21.3C306.1,95.7,307.1,92.2,308.8,89.2z"/>
								</g>
								<g>
									<path class="st2" d="M363.2,151c3-5.2,8.6-8.7,15-8.8l0,0c9.7-0.1,17.6,7.7,17.6,17.4c0.1,9.7-7.7,17.6-17.4,17.6
										c-9.7,0.1-17.6-7.7-17.6-17.4C360.8,156.6,361.7,153.6,363.2,151z"/>
								</g>
								<g>
									<path class="st2" d="M397,212.2c2.5-4.3,7.1-7.2,12.4-7.3l0,0c8-0.1,14.6,6.4,14.6,14.4c0.1,8-6.4,14.6-14.4,14.6
										c-8,0.1-14.6-6.4-14.6-14.4C395,216.9,395.7,214.3,397,212.2z"/>
								</g>
								<g>
									<path class="st2" d="M317.9,145.3c2.9-5.1,8.4-8.6,14.7-8.8l0,0c9.7-0.2,17.7,7.4,17.9,17.1c0.2,9.7-7.4,17.7-17.1,17.9
										s-17.7-7.4-17.9-17.1C315.5,151.2,316.3,148,317.9,145.3z"/>
								</g>
								<g class="st3">
									<g>
										<path class="st2" d="M317.9,145.3c2.9-5.1,8.4-8.6,14.7-8.8l0,0c9.7-0.2,17.7,7.4,17.9,17.1c0.2,9.7-7.4,17.7-17.1,17.9
											s-17.7-7.4-17.9-17.1C315.5,151.2,316.3,148,317.9,145.3z"/>
									</g>
								</g>
								<g>
									<path class="st2" d="M360.4,198.1c2.5-4.4,7.3-7.3,12.8-7.3l0,0c8,0.1,14.4,6.7,14.3,14.7c-0.1,8-6.7,14.4-14.7,14.3
										c-8-0.1-14.4-6.7-14.3-14.7C358.5,202.5,359.2,200.2,360.4,198.1z"/>
								</g>
								<g>
									<path class="st2" d="M384.5,249.8c2.3-4,6.6-6.6,11.5-6.5l0,0c7.2,0.1,12.9,6,12.8,13.2s-6,12.9-13.2,12.8
										s-12.9-6-12.8-13.2C382.8,253.8,383.4,251.7,384.5,249.8z"/>
								</g>
								<g>
									<path class="st2" d="M315.1,192.1c2.4-4.2,7-7.1,12.2-7.3l0,0c8-0.2,14.7,6.1,14.9,14.1c0.2,8-6.1,14.7-14.1,14.9
										c-8,0.2-14.7-6.1-14.9-14.1C313.1,196.9,313.8,194.3,315.1,192.1z"/>
								</g>
								<g>
									<path class="st2" d="M347.9,235.7c2.2-3.8,6.2-6.4,10.9-6.5l0,0c7.2-0.2,13.1,5.5,13.3,12.7c0.2,7.2-5.5,13.1-12.7,13.3
										s-13.1-5.5-13.3-12.7C346.2,240.1,346.8,237.7,347.9,235.7z"/>
								</g>
								<g>
									<path class="st2" d="M368.8,278.7c1.9-3.3,5.6-5.6,9.7-5.5l0,0c6.1,0.1,10.9,5.1,10.8,11.2s-5.1,10.9-11.2,10.8
										s-10.9-5.1-10.8-11.2C367.4,282.1,367.9,280.2,368.8,278.7z"/>
								</g>
								<g>
									<path class="st2" d="M303,229.6c2.3-4,6.6-6.6,11.5-6.5l0,0c7.2,0.1,12.9,6,12.8,13.2s-6,12.9-13.2,12.8
										c-7.2-0.1-12.9-6-12.8-13.2C301.3,233.5,301.9,231.4,303,229.6z"/>
								</g>
								<g>
									<path class="st2" d="M332.2,264.2c1.9-3.3,5.4-5.5,9.4-5.5l0,0c6.1,0,11,4.8,11.1,10.9c0.1,6.1-4.8,11-10.9,11.1
										c-6.1,0-11-4.8-11.1-10.9C330.7,267.8,331.3,265.9,332.2,264.2z"/>
								</g>
								<g>
									<path class="st2" d="M349,299.2c1.7-2.9,4.8-4.8,8.4-4.8l0,0c5.2,0.1,9.4,4.4,9.3,9.7c-0.1,5.2-4.4,9.4-9.7,9.3
										c-5.2-0.1-9.4-4.4-9.3-9.7C347.8,302.1,348.3,300.6,349,299.2z"/>
								</g>
								<g>
									<path class="st2" d="M286.6,258.6c1.9-3.3,5.6-5.6,9.7-5.5l0,0c6.1,0.1,10.9,5.1,10.8,11.2s-5.1,10.9-11.2,10.8
										s-10.9-5.1-10.8-11.2C285.2,261.9,285.7,260.1,286.6,258.6z"/>
								</g>
								<g>
									<path class="st2" d="M313.4,285c1.7-2.9,4.8-4.8,8.4-4.8l0,0c5.2,0.1,9.4,4.4,9.3,9.7c-0.1,5.2-4.4,9.4-9.7,9.3
										c-5.2-0.1-9.4-4.4-9.3-9.7C312.2,287.9,312.6,286.4,313.4,285z"/>
								</g>
								<g>
									<path class="st2" d="M330.5,311.6c1.4-2.4,4.1-4.1,7.1-4l0,0c4.4,0.1,7.9,3.7,7.9,8.1c-0.1,4.4-3.7,7.9-8.1,7.9
										c-4.4-0.1-7.9-3.7-7.9-8.1C329.4,314.1,329.8,312.8,330.5,311.6z"/>
								</g>
								<g>
									<path class="st2" d="M268.1,278.4c1.7-2.9,4.8-4.8,8.4-4.8l0,0c5.2,0.1,9.4,4.4,9.3,9.7c-0.1,5.2-4.4,9.4-9.7,9.3
										c-5.2-0.1-9.4-4.4-9.3-9.7C266.9,281.3,267.3,279.8,268.1,278.4z"/>
								</g>
								<g>
									<path class="st2" d="M293.2,298c1.4-2.4,4-4.1,7.1-4l0,0c4.4,0.1,7.9,3.7,7.9,8.1c0,4.4-3.7,7.9-8.1,7.9
										c-4.4-0.1-7.9-3.7-7.9-8.1C292.2,300.4,292.6,299.1,293.2,298z"/>
								</g>
								<g>
									<path class="st2" d="M311.5,318.6c1.2-2.1,3.4-3.5,6-3.5l0,0c3.9,0,7,3.1,7.1,6.9c0,3.9-3.1,7-6.9,7.1
										c-3.9,0-7-3.1-7.1-6.9C310.6,320.9,310.9,319.6,311.5,318.6z"/>
								</g>
								<g class="st3">
									<g>
										<path class="st2" d="M242.2,292.8c0.9-1.6,2.7-2.6,4.6-2.3l0,0c2.6,0.3,4.5,2.6,4.2,5.2s-2.6,4.5-5.2,4.2
											c-2.6-0.3-4.5-2.6-4.2-5.2C241.7,294,241.9,293.4,242.2,292.8z"/>
									</g>
								</g>
								<g class="st3">
									<g>
										<path class="st2" d="M266.7,312c0.8-1.3,2.3-2.2,3.9-2l0,0c2.2,0.2,3.8,2.2,3.6,4.4c-0.2,2.2-2.2,3.8-4.4,3.6
											c-2.2-0.2-3.8-2.2-3.6-4.4C266.2,313,266.4,312.4,266.7,312z"/>
									</g>
								</g>
								<g class="st3">
									<g>
										<path class="st2" d="M284.6,332.3c0.6-1,1.6-1.7,2.8-1.7l0,0c1.9-0.1,3.6,1.3,3.7,3.3c0.1,1.9-1.3,3.6-3.3,3.7
											c-1.9,0.1-3.6-1.3-3.7-3.3C284.1,333.6,284.2,332.9,284.6,332.3z"/>
									</g>
								</g>
							</g>
						</g>
					</g>
				</g>
				<g>
					<g>
						<g>
							<defs>
								<rect id="SVGID_00000129168197870248705040000001345352581170034365_" x="0" y="0" width="500" height="500"/>
							</defs>
							<clipPath id="SVGID_00000067958703870244535880000004020448877224950192_">
								<use xlink:href="#SVGID_00000129168197870248705040000001345352581170034365_"  style="overflow:visible;"/>
							</clipPath>
							
								<g transform="rotate(120 256.338 249.992)" style="clip-path:url(#SVGID_00000067958703870244535880000004020448877224950192_);">
								<g>
									<path class="st2" d="M345.2,89.3c1.9,3.3,2.9,7.1,2.8,11.2c-0.4,11.6-10.1,20.7-21.7,20.3c-11.6-0.4-20.7-10.1-20.3-21.7
										c0.4-11.6,10.1-20.7,21.7-20.3l0,0C335.3,79,341.7,83.2,345.2,89.3z"/>
								</g>
								<g>
									<path class="st2" d="M393.5,151c1.6,2.7,2.4,5.9,2.3,9.3c-0.3,9.7-8.4,17.2-18.1,16.9c-9.7-0.3-17.2-8.4-16.9-18.1
										c0.3-9.7,8.4-17.2,18.1-16.9l0,0C385.2,142.4,390.6,145.9,393.5,151z"/>
								</g>
								<g>
									<path class="st2" d="M422.1,212.2c1.3,2.2,2,4.8,1.9,7.6c-0.2,8-6.9,14.3-14.9,14.1S394.8,227,395,219
										c0.2-8,6.8-14.3,14.9-14.1l0,0C415.1,205.1,419.7,208,422.1,212.2z"/>
								</g>
								<g>
									<path class="st2" d="M348.2,145.3c1.4,2.5,2.3,5.4,2.3,8.4c0.2,9.7-7.5,17.6-17.2,17.8s-17.6-7.5-17.8-17.2
										c-0.2-9.7,7.5-17.6,17.2-17.8l0,0C339.3,136.5,345.1,140,348.2,145.3z"/>
								</g>
								<g class="st3">
									<g>
										<path class="st2" d="M348.2,145.3c1.4,2.5,2.3,5.4,2.3,8.4c0.2,9.7-7.5,17.6-17.2,17.8s-17.6-7.5-17.8-17.2
											c-0.2-9.7,7.5-17.6,17.2-17.8l0,0C339.3,136.5,345.1,140,348.2,145.3z"/>
									</g>
								</g>
								<g>
									<path class="st2" d="M385.5,198.1c1.2,2.1,1.9,4.4,1.9,7c0.1,8-6.3,14.6-14.3,14.7c-8,0.1-14.6-6.3-14.7-14.3
										s6.2-14.6,14.3-14.7l0,0C378.2,190.7,383,193.7,385.5,198.1z"/>
								</g>
								<g>
									<path class="st2" d="M407.1,249.8c1.1,1.9,1.7,4,1.7,6.3c0.1,7.2-5.6,13.1-12.8,13.2c-7.2,0.1-13.1-5.6-13.2-12.8
										c-0.1-7.2,5.6-13.1,12.8-13.2l0,0C400.5,243.3,404.8,245.9,407.1,249.8z"/>
								</g>
								<g>
									<path class="st2" d="M340.2,192.1c1.3,2.3,2,4.9,1.9,7.7c-0.3,8-7,14.3-15,14s-14.3-7-14-15s7-14.3,15-14l0,0
										C333.4,185,337.8,187.9,340.2,192.1z"/>
								</g>
								<g>
									<path class="st2" d="M370.5,235.7c1.2,2,1.8,4.3,1.7,6.8c-0.2,7.2-6.1,12.9-13.3,12.7c-7.2-0.2-12.9-6.1-12.7-13.3
										c0.2-7.2,6.1-12.9,13.3-12.7l0,0C364.2,229.4,368.3,232,370.5,235.7z"/>
								</g>
								<g>
									<path class="st2" d="M387.9,278.7c1,1.7,1.5,3.7,1.5,5.8c-0.2,6.1-5.2,10.9-11.3,10.7c-6.1-0.2-10.9-5.2-10.7-11.3
										c0.2-6.1,5.2-10.9,11.3-10.7l0,0C382.6,273.3,386,275.5,387.9,278.7z"/>
								</g>
								<g>
									<path class="st2" d="M325.5,229.6c1.1,1.9,1.7,4,1.7,6.3c0.1,7.2-5.6,13.1-12.8,13.2c-7.2,0.1-13.1-5.6-13.2-12.8
										s5.6-13.1,12.8-13.2l0,0C318.9,223,323.2,225.6,325.5,229.6z"/>
								</g>
								<g>
									<path class="st2" d="M351.3,264.2c0.9,1.6,1.4,3.4,1.5,5.3c0.1,6.1-4.7,11.1-10.8,11.2c-6.1,0.1-11.1-4.7-11.2-10.8
										c-0.1-6.1,4.7-11.1,10.8-11.2l0,0C345.7,258.6,349.4,260.9,351.3,264.2z"/>
								</g>
								<g>
									<path class="st2" d="M365.5,299.2c0.8,1.4,1.2,2.9,1.3,4.6c0.1,5.2-4.1,9.6-9.3,9.7c-5.2,0.1-9.6-4.1-9.7-9.3
										c-0.1-5.2,4.1-9.6,9.3-9.7l0,0C360.7,294.4,363.9,296.3,365.5,299.2z"/>
								</g>
								<g>
									<path class="st2" d="M305.7,258.6c0.9,1.6,1.4,3.4,1.5,5.3c0.1,6.1-4.7,11.1-10.8,11.2c-6.1,0.1-11.1-4.7-11.2-10.8
										c-0.1-6.1,4.7-11.1,10.8-11.2l0,0C300.1,253,303.8,255.2,305.7,258.6z"/>
								</g>
								<g>
									<path class="st2" d="M329.9,285c0.8,1.4,1.2,2.9,1.3,4.6c0.1,5.2-4.1,9.6-9.3,9.7c-5.2,0.1-9.6-4.1-9.7-9.3
										c-0.1-5.2,4.1-9.6,9.3-9.7l0,0C325.1,280.2,328.2,282.1,329.9,285z"/>
								</g>
								<g>
									<path class="st2" d="M344.3,311.6c0.7,1.2,1.1,2.7,1.1,4.2c-0.1,4.4-3.8,7.9-8.2,7.8c-4.4-0.1-7.9-3.8-7.8-8.2
										c0.1-4.4,3.8-7.9,8.2-7.8l0,0C340.5,307.7,343,309.3,344.3,311.6z"/>
								</g>
								<g>
									<path class="st2" d="M284.6,278.4c0.9,1.5,1.4,3.3,1.3,5.2c-0.3,5.2-4.7,9.3-10,9c-5.2-0.3-9.3-4.7-9-10
										c0.3-5.2,4.7-9.3,10-9l0,0C280.2,273.9,283,275.7,284.6,278.4z"/>
								</g>
								<g>
									<path class="st2" d="M307.1,298c0.7,1.1,1,2.5,1.1,3.9c0.1,4.4-3.4,8.1-7.9,8.1c-4.4,0.1-8.1-3.4-8.1-7.9
										c-0.1-4.4,3.4-8.1,7.9-8.1l0,0C303,293.9,305.7,295.5,307.1,298z"/>
								</g>
								<g>
									<path class="st2" d="M323.7,318.6c0.6,1,0.9,2.1,0.9,3.4c0.1,3.9-3,7.1-6.9,7.1s-7.1-3-7.1-6.9c-0.1-3.9,3-7.1,6.9-7.1l0,0
										C320.1,315,322.4,316.5,323.7,318.6z"/>
								</g>
								<g class="st3">
									<g>
										<path class="st2" d="M250.5,292.8c0.4,0.7,0.6,1.5,0.6,2.3c0,2.6-2,4.8-4.7,4.8c-2.6,0-4.8-2-4.8-4.7c0-2.6,2-4.8,4.7-4.8
											l0,0C248.1,290.4,249.6,291.4,250.5,292.8z"/>
									</g>
								</g>
								<g class="st3">
									<g>
										<path class="st2" d="M273.6,312c0.3,0.6,0.5,1.2,0.5,1.9c0,2.2-1.7,4-3.9,4.1c-2.2,0-4-1.7-4.1-3.9c0-2.2,1.7-4,3.9-4.1
											l0,0C271.6,309.9,272.9,310.7,273.6,312z"/>
									</g>
								</g>
								<g class="st3">
									<g>
										<path class="st2" d="M290.6,332.3c0.3,0.5,0.5,1.1,0.5,1.7c0,1.9-1.5,3.5-3.4,3.6c-1.9,0-3.5-1.5-3.6-3.4
											c0-1.9,1.5-3.5,3.4-3.6l0,0C288.9,330.6,290,331.3,290.6,332.3z"/>
									</g>
								</g>
							</g>
						</g>
					</g>
				</g>
				<g>
					<path class="st6" d="M0,500"/>
				</g>
			</g>
		</g>
	</g>
</g>
</svg>
