<?xml version="1.0" encoding="utf-8"?>
<!-- Generator: Adobe Illustrator 27.5.0, SVG Export Plug-In . SVG Version: 6.00 Build 0)  -->
<svg version="1.1" id="Layer_1" xmlns="http://www.w3.org/2000/svg" xmlns:xlink="http://www.w3.org/1999/xlink" x="0px" y="0px"
	 viewBox="0 0 500 500" style="enable-background:new 0 0 500 500;" xml:space="preserve">
<style type="text/css">
	.st0{clip-path:url(#SVGID_00000098183762442438763950000015217353456710959505_);}
	.st1{fill:#FFFFFF;}
	.st2{fill:none;stroke:#FFFFFF;stroke-width:16;stroke-linecap:round;stroke-linejoin:round;}
</style>
<g>
	<g>
		<g>
			<defs>
				<rect id="SVGID_1_" width="500" height="500"/>
			</defs>
			<clipPath id="SVGID_00000098908859477376101220000016324147577497549483_">
				<use xlink:href="#SVGID_1_"  style="overflow:visible;"/>
			</clipPath>
			<g style="clip-path:url(#SVGID_00000098908859477376101220000016324147577497549483_);">
				<g>
					<g>
						<path class="st1" d="M250,171.8c-3.3,0-6-2.7-6-6v-39.2c0-3.3,2.7-6,6-6s6,2.7,6,6v39.2C256,169.1,253.3,171.8,250,171.8z"/>
					</g>
					<g>
						<path class="st1" d="M249.9,167.1c-3.3,0-6-2.7-6-6v-0.2c0-3.3,2.7-6,6-6s6,2.7,6,6v0.2C255.9,164.4,253.2,167.1,249.9,167.1z
							"/>
					</g>
				</g>
				<g>
					<g>
						<path class="st1" d="M393.1,359.3H106.9c-12.7,0-23-10.3-23-23V183.6c0-12.7,10.3-23,23-23h286.2c12.7,0,23,10.3,23,23v152.7
							C416.1,348.9,405.8,359.3,393.1,359.3z M106.9,172.6c-6.1,0-11,4.9-11,11v152.7c0,6.1,4.9,11,11,11h286.2c6.1,0,11-4.9,11-11
							V183.6c0-6.1-4.9-11-11-11H106.9z M370,326h-40c-3.3,0-6-2.7-6-6s2.7-6,6-6h34v-34.1c0-3.3,2.7-6,6-6s6,2.7,6,6v39.9v0.1v0.1
							C376,323.3,373.3,326,370,326z M290,325.8H169.9c-3.3,0-6-2.7-6-6s2.7-6,6-6H290c3.3,0,6,2.7,6,6S293.3,325.8,290,325.8z
							 M370.1,205.7H129.9c-3.3,0-6-2.7-6-6s2.7-6,6-6h240.2c3.3,0,6,2.7,6,6C376.1,203,373.4,205.7,370.1,205.7z"/>
					</g>
					<g>
						<path class="st1" d="M129.9,327.8c-4.4,0-8-3.6-8-8v-0.2c0-4.4,3.6-8,8-8c4.4,0,8,3.6,8,8v0.2
							C137.9,324.2,134.3,327.8,129.9,327.8z M330,288c-4.4,0-8-3.6-8-8v-0.2c0-4.4,3.6-8,8-8s8,3.6,8,8v0.2
							C338,284.5,334.4,288,330,288z M290,288c-4.4,0-8-3.6-8-8v-0.2c0-4.4,3.6-8,8-8s8,3.6,8,8v0.2C298,284.5,294.4,288,290,288z
							 M250,288c-4.4,0-8-3.6-8-8v-0.2c0-4.4,3.6-8,8-8s8,3.6,8,8v0.2C258,284.5,254.4,288,250,288z M210,287.9c-4.4,0-8-3.6-8-8
							v-0.2c0-4.4,3.6-8,8-8s8,3.6,8,8v0.2C218,284.4,214.4,287.9,210,287.9z M129.9,287.9c-4.4,0-8-3.6-8-8v-0.2c0-4.4,3.6-8,8-8
							c4.4,0,8,3.6,8,8v0.2C137.9,284.3,134.3,287.9,129.9,287.9z M169.9,287.8c-4.4,0-8-3.6-8-8v-0.2c0-4.4,3.6-8,8-8s8,3.6,8,8
							v0.2C177.9,284.2,174.4,287.8,169.9,287.8z M370,248.1c-4.4,0-8-3.6-8-8v-0.2c0-4.4,3.6-8,8-8s8,3.6,8,8v0.2
							C378,244.5,374.4,248.1,370,248.1z M330,248.1c-4.4,0-8-3.6-8-8v-0.2c0-4.4,3.6-8,8-8s8,3.6,8,8v0.2
							C338,244.5,334.4,248.1,330,248.1z M290,248.1c-4.4,0-8-3.6-8-8v-0.2c0-4.4,3.6-8,8-8s8,3.6,8,8v0.2
							C298,244.5,294.4,248.1,290,248.1z M250,248.1c-4.4,0-8-3.6-8-8v-0.2c0-4.4,3.6-8,8-8s8,3.6,8,8v0.2
							C258,244.5,254.4,248.1,250,248.1z M210,248c-4.4,0-8-3.6-8-8v-0.2c0-4.4,3.6-8,8-8s8,3.6,8,8v0.2
							C218,244.4,214.4,248,210,248z M129.9,247.9c-4.4,0-8-3.6-8-8v-0.2c0-4.4,3.6-8,8-8c4.4,0,8,3.6,8,8v0.2
							C137.9,244.3,134.3,247.9,129.9,247.9z M169.9,247.8c-4.4,0-8-3.6-8-8v-0.2c0-4.4,3.6-8,8-8s8,3.6,8,8v0.2
							C177.9,244.3,174.4,247.8,169.9,247.8z"/>
					</g>
				</g>
				<g>
					<path class="st2" d="M0,500"/>
				</g>
			</g>
		</g>
	</g>
</g>
</svg>
