<?xml version="1.0" encoding="utf-8"?>
<!-- Generator: Adobe Illustrator 27.5.0, SVG Export Plug-In . SVG Version: 6.00 Build 0)  -->
<svg version="1.1" id="Layer_1" xmlns="http://www.w3.org/2000/svg" xmlns:xlink="http://www.w3.org/1999/xlink" x="0px" y="0px"
	 viewBox="0 0 500 500" style="enable-background:new 0 0 500 500;" xml:space="preserve">
<style type="text/css">
	.st0{clip-path:url(#SVGID_00000112609861469018428460000014320201895188432286_);}
	.st1{fill:#FFFFFF;}
	.st2{display:none;fill:none;stroke:#FFFFFF;stroke-width:12;stroke-linecap:round;stroke-linejoin:round;}
	.st3{fill:none;stroke:#FFFFFF;stroke-width:12;stroke-linecap:round;stroke-linejoin:round;}
</style>
<g>
	<g>
		<g>
			<g>
				<defs>
					<rect id="SVGID_1_" width="500" height="500"/>
				</defs>
				<clipPath id="SVGID_00000057829719385492650510000013721571508397952658_">
					<use xlink:href="#SVGID_1_"  style="overflow:visible;"/>
				</clipPath>
				<g style="clip-path:url(#SVGID_00000057829719385492650510000013721571508397952658_);">
					<g>
						<path class="st1" d="M253.5,253.1c-0.9,0-1.7-0.2-2.5-0.6c-1.4-0.7-2.6-1.9-3.1-3.4l-45.7-125.9c-1.1-3.1,0.5-6.5,3.6-7.7
							l74.1-27.2c1.5-0.6,3.2-0.5,4.6,0.2s2.6,1.9,3.1,3.4l45.7,125.9c1.1,3.1-0.5,6.5-3.6,7.7l-74.1,27.2
							C254.9,253,254.2,253.1,253.5,253.1z M215.5,124.8l41.6,114.6l62.8-23.1l-41.6-114.6L215.5,124.8z"/>
					</g>
					<g>
						<path class="st1" d="M276.6,371.5c-2.4,0-4.7-1.5-5.6-3.9l-41-111.8c-1.1-3.1,0.5-6.6,3.6-7.7l113.9-41.8
							c3.1-1.1,6.6,0.5,7.7,3.6l41.1,111.9c0.5,1.5,0.5,3.1-0.2,4.6s-1.9,2.6-3.4,3.1l-114,41.7C278,371.4,277.3,371.5,276.6,371.5z
							 M243.3,257.3l36.9,100.5l102.7-37.6l-37-100.6L243.3,257.3z"/>
					</g>
					<g>
						<g>
							<path class="st1" d="M267,375c-2.4,0-4.7-1.5-5.6-3.9c-1.1-3.1,0.5-6.6,3.6-7.7l142.2-52c3.1-1.1,6.6,0.5,7.7,3.6
								s-0.5,6.6-3.6,7.7l-142.2,52C268.4,374.9,267.7,375,267,375z M227.7,357.1c-2.5,0-4.8-1.5-5.6-3.9l-87.4-239.7l-41.5,17.3
								c-3.1,1.3-6.6-0.2-7.8-3.2c-1.3-3.1,0.2-6.6,3.2-7.8l47.3-19.7c1.5-0.6,3.2-0.6,4.7,0c1.5,0.7,2.7,1.9,3.2,3.4L233.3,349
								c1.1,3.1-0.5,6.6-3.6,7.7C229.1,357,228.4,357.1,227.7,357.1z"/>
						</g>
						<g>
							<path class="st1" d="M238.4,416.1c-14.9,0-29-9.2-34.4-24l0,0c-3.4-9.2-2.9-19.1,1.2-28c4.1-8.8,11.4-15.6,20.6-18.9
								c9.2-3.4,19.1-2.9,28,1.2c8.8,4.1,15.6,11.4,18.9,20.6c3.4,9.2,2.9,19.1-1.2,28c-4.1,8.8-11.4,15.6-20.6,18.9
								C246.7,415.3,242.5,416.1,238.4,416.1z M215.2,387.9c4.7,12.7,18.8,19.3,31.5,14.6c6.2-2.3,11.1-6.8,13.9-12.7
								c2.8-5.9,3-12.6,0.8-18.8c-2.3-6.2-6.8-11.1-12.7-13.9s-12.6-3-18.8-0.8c-6.2,2.3-11.1,6.8-13.9,12.7
								C213.3,375.1,213,381.7,215.2,387.9z"/>
						</g>
					</g>
					<g>
						<g>
							<path class="st2" d="M0,500"/>
						</g>
						<g>
							<path class="st3" d="M0,500"/>
						</g>
						<g>
							<path class="st3" d="M0,500"/>
						</g>
						<g>
							<path class="st3" d="M0,500"/>
						</g>
						<g>
							<path class="st3" d="M0,500"/>
						</g>
						<g>
							<path class="st3" d="M0,500"/>
						</g>
						<g>
							<path class="st3" d="M0,500"/>
						</g>
						<g>
							<path class="st3" d="M0,500"/>
						</g>
						<g>
							<path class="st3" d="M0,500"/>
						</g>
						<g>
							<path class="st3" d="M0,500"/>
						</g>
						<g>
							<path class="st3" d="M0,500"/>
						</g>
						<g>
							<path class="st3" d="M0,500"/>
						</g>
					</g>
				</g>
			</g>
		</g>
	</g>
</g>
</svg>
