<?xml version="1.0" encoding="utf-8"?>
<!-- Generator: Adobe Illustrator 27.5.0, SVG Export Plug-In . SVG Version: 6.00 Build 0)  -->
<svg version="1.1" id="Layer_1" xmlns="http://www.w3.org/2000/svg" xmlns:xlink="http://www.w3.org/1999/xlink" x="0px" y="0px"
	 viewBox="0 0 500 500" style="enable-background:new 0 0 500 500;" xml:space="preserve">
<style type="text/css">
	.st0{fill:#FFFFFF;}
	.st1{fill:none;stroke:#FFFFFF;stroke-width:12.04;stroke-linecap:round;stroke-linejoin:round;}
</style>
<g>
	<g>
		<g>
			<path class="st0" d="M401.1,175c-2,0-3.9-1-5-2.7l-0.7-1.1c-17.9-26.7-36.5-54.4-35.2-76.2c1.2-21.2,18.6-38.3,39.7-38.8
				c11.2-0.4,21.9,3.7,29.9,11.5c8.1,7.8,12.5,18.3,12.4,29.6c0,20.9-18,47.9-35.5,73.9l-0.7,1.1C405,174,403.1,175,401.1,175
				L401.1,175z M401.4,68.2c-0.4,0-0.7,0-1.1,0c-15,0.4-27.3,12.5-28.1,27.5c-1,16.3,14.1,40.2,28.9,62.5
				c14.5-21.7,29.2-45.2,29.2-60.9l0,0c0-8-3.1-15.4-8.8-20.9C416.1,71.1,409,68.2,401.4,68.2z"/>
		</g>
		<g>
			<path class="st0" d="M401.3,116.3c-11,0-20-9-20-20s9-20,20-20s20,9,20,20S412.3,116.3,401.3,116.3z M401.3,88.3
				c-4.4,0-8,3.6-8,8s3.6,8,8,8s8-3.6,8-8S405.7,88.3,401.3,88.3z"/>
		</g>
	</g>
	<g>
		<g>
			<path class="st0" d="M97.1,442.8c-2,0-3.9-1-5-2.7l-0.7-1.1c-17.9-26.7-36.5-54.4-35.2-76.2c1.2-21.2,18.6-38.3,39.7-38.8
				c11.3-0.3,22,3.8,30,11.7c8,7.8,12.4,18.3,12.3,29.5c0,20.9-18,47.9-35.5,73.9l-0.7,1.1C101,441.8,99.1,442.8,97.1,442.8
				L97.1,442.8z M97.2,336c-0.3,0-0.6,0-0.9,0c-14.9,0.4-27.3,12.5-28.1,27.5c-1,16.3,14.1,40.2,28.9,62.5
				c14.5-21.7,29.2-45.2,29.2-60.9l0,0c0-7.9-3.1-15.3-8.7-20.8C112.1,338.9,104.9,336,97.2,336z"/>
		</g>
		<g>
			<path class="st0" d="M97.3,384.1c-11,0-20-9-20-20s9-20,20-20s20,9,20,20S108.3,384.1,97.3,384.1z M97.3,356.1c-4.4,0-8,3.6-8,8
				s3.6,8,8,8s8-3.6,8-8S101.7,356.1,97.3,356.1z"/>
		</g>
	</g>
	<g>
		<g>
			<path class="st0" d="M339.9,123.6c-0.5,0-0.9,0-1.4-0.1c-0.4-0.1-0.9-0.2-1.3-0.4c-0.4-0.2-0.8-0.4-1.2-0.6s-0.7-0.6-1.1-0.9
				c-0.3-0.3-0.6-0.7-0.9-1.1s-0.5-0.8-0.6-1.2c-0.2-0.4-0.3-0.9-0.4-1.3s-0.1-0.9-0.1-1.4s0.1-0.9,0.1-1.4c0.1-0.4,0.2-0.9,0.4-1.3
				c0.2-0.4,0.4-0.8,0.6-1.2c0.2-0.4,0.5-0.7,0.9-1.1c0.3-0.3,0.7-0.6,1.1-0.9s0.8-0.5,1.2-0.6c0.4-0.2,0.9-0.3,1.3-0.4
				c2.3-0.5,4.7,0.3,6.3,1.9c0.3,0.3,0.6,0.7,0.9,1.1c0.2,0.4,0.5,0.8,0.6,1.2c0.2,0.4,0.3,0.9,0.4,1.3s0.1,0.9,0.1,1.4
				s0,0.9-0.1,1.4c-0.1,0.4-0.2,0.9-0.4,1.3c-0.2,0.4-0.4,0.8-0.6,1.2s-0.5,0.7-0.9,1.1C343.5,122.8,341.7,123.6,339.9,123.6z"/>
		</g>
		<g>
			<path class="st0" d="M309.7,123.6c-0.5,0-0.9,0-1.4-0.1c-0.4-0.1-0.9-0.2-1.3-0.4c-0.4-0.2-0.8-0.4-1.2-0.6s-0.7-0.6-1.1-0.9
				c-0.3-0.3-0.6-0.7-0.9-1.1s-0.5-0.8-0.6-1.2c-0.2-0.4-0.3-0.9-0.4-1.3s-0.1-0.9-0.1-1.4s0-0.9,0.1-1.4c0.1-0.4,0.2-0.9,0.4-1.3
				c0.2-0.4,0.4-0.8,0.6-1.2c0.2-0.4,0.5-0.7,0.9-1.1c1.6-1.6,4-2.4,6.3-1.9c0.4,0.1,0.9,0.2,1.3,0.4c0.4,0.2,0.8,0.4,1.2,0.6
				s0.7,0.5,1.1,0.9c0.3,0.3,0.6,0.7,0.9,1.1c0.2,0.4,0.5,0.8,0.6,1.2c0.2,0.4,0.3,0.9,0.4,1.3s0.1,0.9,0.1,1.4c0,1.8-0.8,3.7-2.1,5
				c-0.3,0.3-0.7,0.6-1.1,0.9s-0.8,0.5-1.2,0.6c-0.4,0.2-0.9,0.3-1.3,0.4C310.6,123.5,310.2,123.6,309.7,123.6z"/>
		</g>
		<g>
			<path class="st0" d="M279.6,123.6c-0.5,0-0.9,0-1.4-0.1c-0.4-0.1-0.9-0.2-1.3-0.4c-0.4-0.2-0.8-0.4-1.2-0.6s-0.7-0.6-1.1-0.9
				c-1.3-1.3-2-3.1-2-5c0-0.5,0-0.9,0.1-1.4c0.1-0.4,0.2-0.9,0.4-1.3c0.2-0.4,0.4-0.8,0.6-1.2c0.2-0.4,0.5-0.7,0.9-1.1
				c0.3-0.3,0.7-0.6,1.1-0.9c0.4-0.2,0.8-0.5,1.2-0.6c0.4-0.2,0.9-0.3,1.3-0.4c0.9-0.2,1.8-0.2,2.7,0c0.4,0.1,0.9,0.2,1.3,0.4
				c0.4,0.2,0.8,0.4,1.2,0.6c0.4,0.3,0.8,0.5,1.1,0.9c0.3,0.3,0.6,0.7,0.9,1.1c0.2,0.4,0.5,0.8,0.6,1.2c0.2,0.4,0.3,0.9,0.4,1.3
				s0.1,0.9,0.1,1.4c0,1.8-0.8,3.7-2,5c-0.3,0.3-0.7,0.6-1.1,0.9c-0.4,0.2-0.8,0.5-1.2,0.6c-0.4,0.2-0.9,0.3-1.3,0.4
				C280.5,123.5,280.1,123.6,279.6,123.6z"/>
		</g>
		<g>
			<path class="st0" d="M249.4,123.6c-0.5,0-0.9,0-1.4-0.1c-0.4-0.1-0.9-0.2-1.3-0.4c-0.4-0.2-0.8-0.4-1.2-0.6s-0.7-0.6-1.1-0.9
				c-0.3-0.3-0.6-0.7-0.9-1.1s-0.5-0.8-0.6-1.2c-0.2-0.4-0.3-0.9-0.4-1.3c-0.1-0.4-0.1-0.9-0.1-1.4c0-1.8,0.8-3.6,2-4.9
				c0.3-0.3,0.7-0.6,1.1-0.9c0.4-0.2,0.8-0.5,1.2-0.6c0.4-0.2,0.9-0.3,1.3-0.4c0.9-0.2,1.8-0.2,2.7,0c0.4,0.1,0.9,0.2,1.3,0.4
				c0.4,0.2,0.8,0.4,1.2,0.6c0.4,0.3,0.7,0.5,1.1,0.9c1.3,1.3,2,3.1,2,4.9c0,0.5,0,0.9-0.1,1.4c-0.1,0.4-0.2,0.9-0.4,1.3
				s-0.4,0.8-0.6,1.2c-0.3,0.4-0.5,0.7-0.9,1.1c-0.3,0.3-0.7,0.6-1.1,0.9s-0.8,0.5-1.2,0.6c-0.4,0.2-0.9,0.3-1.3,0.4
				C250.3,123.5,249.9,123.6,249.4,123.6z"/>
		</g>
		<g>
			<path class="st0" d="M219.2,123.6c-0.5,0-0.9,0-1.4-0.1c-0.4-0.1-0.9-0.2-1.3-0.4c-0.4-0.2-0.8-0.4-1.2-0.6s-0.7-0.6-1.1-0.9
				c-1.3-1.3-2.1-3.1-2.1-5c0-1.8,0.8-3.6,2.1-4.9c0.3-0.3,0.7-0.6,1.1-0.9c0.4-0.2,0.8-0.5,1.2-0.6c0.4-0.2,0.9-0.3,1.3-0.4
				c0.9-0.2,1.8-0.2,2.7,0c0.4,0.1,0.9,0.2,1.3,0.4c0.4,0.2,0.8,0.4,1.2,0.6c0.4,0.3,0.7,0.5,1.1,0.9c1.3,1.3,2,3.1,2,4.9
				s-0.8,3.7-2,5c-0.3,0.3-0.7,0.6-1.1,0.9s-0.8,0.5-1.2,0.6c-0.4,0.2-0.9,0.3-1.3,0.4C220.1,123.5,219.7,123.6,219.2,123.6z"/>
		</g>
		<g>
			<path class="st0" d="M189.1,123.6c-1.8,0-3.6-0.8-4.9-2c-0.3-0.3-0.6-0.7-0.9-1.1s-0.5-0.8-0.6-1.2c-0.2-0.4-0.3-0.9-0.4-1.3
				c-0.1-0.4-0.1-0.9-0.1-1.4s0.1-0.9,0.1-1.4c0.1-0.4,0.2-0.9,0.4-1.3s0.4-0.8,0.6-1.2c0.2-0.4,0.5-0.7,0.9-1.1
				c0.3-0.3,0.7-0.6,1.1-0.9c0.4-0.2,0.8-0.5,1.2-0.6c0.4-0.2,0.9-0.3,1.3-0.4c0.9-0.2,1.8-0.2,2.7,0c0.4,0.1,0.9,0.2,1.3,0.4
				c0.4,0.2,0.8,0.4,1.2,0.6s0.7,0.5,1.1,0.9c0.3,0.3,0.6,0.7,0.9,1.1c0.2,0.4,0.5,0.8,0.6,1.2c0.2,0.4,0.3,0.9,0.4,1.3
				c0.1,0.4,0.1,0.9,0.1,1.4s0,0.9-0.1,1.4c-0.1,0.4-0.2,0.9-0.4,1.3s-0.4,0.8-0.6,1.2s-0.6,0.7-0.9,1.1s-0.7,0.6-1.1,0.9
				s-0.8,0.5-1.2,0.6c-0.4,0.2-0.9,0.3-1.3,0.4C190,123.5,189.6,123.6,189.1,123.6z"/>
		</g>
		<g>
			<path class="st0" d="M339.9,257c-0.5,0-0.9,0-1.4-0.1c-0.4-0.1-0.9-0.2-1.3-0.4c-0.4-0.2-0.8-0.4-1.2-0.6
				c-0.4-0.3-0.7-0.5-1.1-0.9c-0.3-0.3-0.6-0.7-0.9-1.1s-0.5-0.8-0.6-1.2c-0.2-0.4-0.3-0.9-0.4-1.3c-0.1-0.5-0.1-0.9-0.1-1.4
				s0.1-0.9,0.1-1.4c0.1-0.4,0.2-0.9,0.4-1.3c0.2-0.4,0.4-0.8,0.6-1.2s0.5-0.7,0.9-1.1c0.3-0.3,0.7-0.6,1.1-0.9s0.8-0.5,1.2-0.6
				c0.4-0.2,0.9-0.3,1.3-0.4c2.3-0.5,4.7,0.3,6.3,1.9c0.3,0.3,0.6,0.7,0.9,1.1s0.5,0.8,0.6,1.2c0.2,0.4,0.3,0.9,0.4,1.3
				c0.1,0.4,0.1,0.9,0.1,1.4s0,0.9-0.1,1.4c-0.1,0.4-0.2,0.9-0.4,1.3c-0.2,0.4-0.4,0.8-0.6,1.2s-0.5,0.7-0.9,1.1
				C343.5,256.2,341.7,257,339.9,257z"/>
		</g>
		<g>
			<path class="st0" d="M309.7,257c-0.5,0-0.9,0-1.4-0.1c-0.4-0.1-0.9-0.2-1.3-0.4c-0.4-0.2-0.8-0.4-1.2-0.6
				c-0.4-0.3-0.7-0.5-1.1-0.9c-0.3-0.3-0.6-0.7-0.9-1.1s-0.5-0.8-0.6-1.2c-0.2-0.4-0.3-0.9-0.4-1.3c-0.1-0.5-0.1-0.9-0.1-1.4
				s0-0.9,0.1-1.4c0.1-0.4,0.2-0.9,0.4-1.3c0.2-0.4,0.4-0.8,0.6-1.2s0.5-0.7,0.9-1.1c0.3-0.3,0.7-0.6,1.1-0.9
				c0.4-0.2,0.8-0.5,1.2-0.6c0.4-0.2,0.9-0.3,1.3-0.4c0.9-0.2,1.8-0.2,2.7,0c0.4,0.1,0.9,0.2,1.3,0.4s0.8,0.4,1.2,0.6
				c0.4,0.3,0.7,0.6,1.1,0.9c1.3,1.3,2.1,3.1,2.1,5c0,1.8-0.8,3.6-2.1,5c-0.3,0.3-0.7,0.6-1.1,0.9c-0.4,0.2-0.8,0.5-1.2,0.6
				c-0.4,0.2-0.9,0.3-1.3,0.4C310.6,257,310.2,257,309.7,257z"/>
		</g>
		<g>
			<path class="st0" d="M279.6,257c-0.5,0-0.9,0-1.4-0.1c-0.4-0.1-0.9-0.2-1.3-0.4c-0.4-0.2-0.8-0.4-1.2-0.6
				c-0.4-0.3-0.7-0.5-1.1-0.9c-0.3-0.3-0.6-0.7-0.9-1.1s-0.5-0.8-0.6-1.2c-0.2-0.4-0.3-0.9-0.4-1.3c-0.1-0.5-0.1-0.9-0.1-1.4
				s0-0.9,0.1-1.4c0.1-0.4,0.2-0.9,0.4-1.3c0.2-0.4,0.4-0.8,0.6-1.2s0.5-0.7,0.9-1.1c0.3-0.3,0.7-0.6,1.1-0.9
				c0.4-0.2,0.8-0.5,1.2-0.6c0.4-0.2,0.9-0.3,1.3-0.4c0.9-0.2,1.8-0.2,2.7,0c0.4,0.1,0.9,0.2,1.3,0.4s0.8,0.4,1.2,0.6
				c0.4,0.3,0.8,0.6,1.1,0.9s0.6,0.7,0.9,1.1c0.2,0.4,0.5,0.8,0.6,1.2c0.2,0.4,0.3,0.9,0.4,1.3c0.1,0.4,0.1,0.9,0.1,1.4
				s0,0.9-0.1,1.4c-0.1,0.4-0.2,0.9-0.4,1.3c-0.2,0.4-0.4,0.8-0.6,1.2c-0.3,0.4-0.5,0.7-0.9,1.1c-0.3,0.3-0.7,0.6-1.1,0.9
				c-0.4,0.2-0.8,0.5-1.2,0.6c-0.4,0.2-0.9,0.3-1.3,0.4C280.5,257,280.1,257,279.6,257z"/>
		</g>
		<g>
			<path class="st0" d="M249.4,257c-0.5,0-0.9,0-1.4-0.1c-0.4-0.1-0.9-0.2-1.3-0.4c-0.4-0.2-0.8-0.4-1.2-0.6
				c-0.4-0.3-0.7-0.5-1.1-0.9c-1.3-1.3-2-3.1-2-5c0-1.8,0.8-3.7,2-5c0.3-0.3,0.7-0.6,1.1-0.9c0.4-0.2,0.8-0.5,1.2-0.6
				c0.4-0.2,0.9-0.3,1.3-0.4c2.3-0.5,4.7,0.3,6.3,1.9c1.3,1.3,2,3.1,2,5c0,1.8-0.8,3.6-2,5C253,256.2,251.2,257,249.4,257z"/>
		</g>
		<g>
			<path class="st0" d="M219.2,257c-0.4,0-0.9,0-1.4-0.1c-0.4-0.1-0.9-0.2-1.3-0.4c-0.4-0.2-0.8-0.4-1.2-0.6
				c-0.4-0.3-0.7-0.5-1.1-0.9c-1.3-1.3-2.1-3.1-2.1-5c0-1.8,0.8-3.7,2.1-5c1.6-1.6,4-2.4,6.3-1.9c0.4,0.1,0.9,0.2,1.3,0.4
				c0.4,0.2,0.8,0.4,1.2,0.6c0.4,0.3,0.7,0.6,1.1,0.9c0.3,0.3,0.6,0.7,0.9,1.1s0.5,0.8,0.6,1.2c0.2,0.4,0.3,0.9,0.4,1.3
				c0.1,0.4,0.1,0.9,0.1,1.4c0,1.8-0.8,3.6-2,5c-0.3,0.3-0.7,0.6-1.1,0.9c-0.4,0.2-0.8,0.5-1.2,0.6c-0.4,0.2-0.9,0.3-1.3,0.4
				C220.1,257,219.7,257,219.2,257z"/>
		</g>
		<g>
			<path class="st0" d="M189.1,257c-0.4,0-0.9,0-1.4-0.1c-0.4-0.1-0.9-0.2-1.3-0.4c-0.4-0.2-0.8-0.4-1.2-0.6
				c-0.4-0.3-0.7-0.5-1.1-0.9c-1.3-1.3-2.1-3.1-2.1-5c0-0.5,0.1-0.9,0.1-1.4c0.1-0.4,0.2-0.9,0.4-1.3c0.2-0.4,0.4-0.8,0.6-1.2
				s0.5-0.7,0.9-1.1c1.3-1.3,3.1-2,4.9-2c1.8,0,3.7,0.8,5,2s2,3.1,2,5c0,1.8-0.8,3.6-2,5c-0.3,0.3-0.7,0.6-1.1,0.9
				c-0.4,0.2-0.8,0.5-1.2,0.6c-0.4,0.2-0.9,0.3-1.3,0.4C190,257,189.6,257,189.1,257z"/>
		</g>
		<g>
			<path class="st0" d="M158.9,123.6c-0.5,0-0.9,0-1.4-0.1c-0.4-0.1-0.9-0.2-1.3-0.4c-0.4-0.2-0.8-0.4-1.2-0.6s-0.7-0.6-1.1-0.9
				c-0.3-0.3-0.6-0.7-0.9-1.1s-0.5-0.8-0.6-1.2c-0.2-0.4-0.3-0.9-0.4-1.3c-0.1-0.4-0.1-0.9-0.1-1.4s0-0.9,0.1-1.4
				c0.1-0.4,0.2-0.9,0.4-1.3s0.4-0.8,0.6-1.2c0.2-0.4,0.6-0.7,0.9-1.1c0.3-0.3,0.7-0.6,1.1-0.9c0.4-0.2,0.8-0.5,1.2-0.6
				c0.4-0.2,0.9-0.3,1.3-0.4c0.9-0.2,1.8-0.2,2.7,0c0.4,0.1,0.9,0.2,1.3,0.4c0.4,0.2,0.8,0.4,1.2,0.6c0.4,0.3,0.7,0.5,1.1,0.9
				c0.3,0.3,0.6,0.7,0.9,1.1c0.2,0.4,0.5,0.8,0.6,1.2c0.2,0.4,0.3,0.9,0.4,1.3c0.1,0.4,0.1,0.9,0.1,1.4s-0.1,0.9-0.1,1.4
				c-0.1,0.4-0.2,0.9-0.4,1.3s-0.4,0.8-0.6,1.2s-0.5,0.7-0.9,1.1c-0.3,0.3-0.7,0.6-1.1,0.9c-0.4,0.2-0.8,0.5-1.2,0.6
				c-0.4,0.2-0.9,0.3-1.3,0.4C159.8,123.6,159.4,123.6,158.9,123.6z"/>
		</g>
		<g>
			<path class="st0" d="M158.9,257c-0.5,0-0.9,0-1.4-0.1c-0.4-0.1-0.9-0.2-1.3-0.4c-0.4-0.2-0.8-0.4-1.2-0.6
				c-0.4-0.3-0.7-0.5-1.1-0.9c-1.3-1.3-2-3.1-2-5c0-1.8,0.8-3.7,2-5c0.3-0.3,0.7-0.6,1.1-0.9c0.4-0.2,0.8-0.5,1.2-0.6
				c0.4-0.2,0.9-0.3,1.3-0.4c0.9-0.2,1.8-0.2,2.7,0c0.4,0.1,0.9,0.2,1.3,0.4c0.4,0.2,0.8,0.4,1.2,0.6c0.4,0.3,0.7,0.6,1.1,0.9
				c1.3,1.3,2.1,3.1,2.1,5c0,1.8-0.8,3.6-2.1,5c-0.3,0.3-0.7,0.6-1.1,0.9c-0.4,0.2-0.8,0.5-1.2,0.6c-0.4,0.2-0.9,0.3-1.3,0.4
				C159.8,257,159.4,257,158.9,257z"/>
		</g>
		<g>
			<path class="st0" d="M309.7,390.4c-0.5,0-0.9,0-1.4-0.1s-0.9-0.2-1.3-0.4c-0.4-0.2-0.8-0.4-1.2-0.6c-0.4-0.3-0.7-0.5-1.1-0.9
				c-0.3-0.3-0.6-0.7-0.9-1.1c-0.2-0.4-0.5-0.8-0.6-1.2c-0.2-0.4-0.3-0.9-0.4-1.3c-0.1-0.5-0.1-0.9-0.1-1.4s0-0.9,0.1-1.4
				c0.1-0.4,0.2-0.9,0.4-1.3c0.2-0.4,0.4-0.8,0.6-1.2c0.3-0.4,0.5-0.7,0.9-1.1c0.3-0.3,0.7-0.6,1.1-0.9c0.4-0.2,0.8-0.5,1.2-0.6
				c0.4-0.2,0.9-0.3,1.3-0.4c0.9-0.2,1.8-0.2,2.7,0c0.4,0.1,0.9,0.2,1.3,0.4c0.4,0.2,0.8,0.4,1.2,0.6c0.4,0.3,0.7,0.5,1.1,0.9
				c0.3,0.3,0.6,0.7,0.9,1.1c0.2,0.4,0.5,0.8,0.6,1.2c0.2,0.4,0.3,0.9,0.4,1.3s0.1,0.9,0.1,1.4s-0.1,0.9-0.1,1.4
				c-0.1,0.4-0.2,0.9-0.4,1.3c-0.2,0.4-0.4,0.8-0.6,1.2c-0.3,0.4-0.5,0.7-0.9,1.1c-0.3,0.3-0.7,0.6-1.1,0.9
				c-0.4,0.2-0.8,0.5-1.2,0.6c-0.4,0.2-0.9,0.3-1.3,0.4C310.6,390.3,310.2,390.4,309.7,390.4z"/>
		</g>
		<g>
			<path class="st0" d="M279.6,390.4c-1.8,0-3.6-0.8-5-2c-0.3-0.3-0.6-0.7-0.9-1.1s-0.5-0.8-0.6-1.2c-0.2-0.4-0.3-0.9-0.4-1.3
				c-0.1-0.5-0.1-0.9-0.1-1.4s0-0.9,0.1-1.4c0.1-0.4,0.2-0.9,0.4-1.3c0.2-0.4,0.4-0.8,0.6-1.2s0.5-0.7,0.9-1.1
				c1.6-1.6,4-2.4,6.3-1.9c0.4,0.1,0.9,0.2,1.3,0.4c0.4,0.2,0.8,0.4,1.2,0.6c0.4,0.3,0.8,0.5,1.1,0.9c0.3,0.3,0.6,0.7,0.9,1.1
				c0.2,0.4,0.5,0.8,0.6,1.2c0.2,0.4,0.3,0.9,0.4,1.3s0.1,0.9,0.1,1.4s0,0.9-0.1,1.4c-0.1,0.4-0.2,0.9-0.4,1.3
				c-0.2,0.4-0.4,0.8-0.6,1.2c-0.3,0.4-0.5,0.7-0.9,1.1c-0.3,0.3-0.7,0.6-1.1,0.9c-0.4,0.2-0.8,0.5-1.2,0.6
				c-0.4,0.2-0.9,0.3-1.3,0.4C280.5,390.3,280.1,390.4,279.6,390.4z"/>
		</g>
		<g>
			<path class="st0" d="M249.4,390.4c-0.5,0-0.9,0-1.4-0.1c-0.4-0.1-0.9-0.2-1.3-0.4c-0.4-0.2-0.8-0.4-1.2-0.6
				c-0.4-0.3-0.7-0.5-1.1-0.9c-0.3-0.3-0.6-0.7-0.9-1.1s-0.5-0.8-0.6-1.2c-0.2-0.4-0.3-0.9-0.4-1.3c-0.1-0.5-0.1-0.9-0.1-1.4
				s0-0.9,0.1-1.4c0.1-0.4,0.2-0.9,0.4-1.3s0.4-0.8,0.6-1.2s0.6-0.7,0.9-1.1c0.3-0.3,0.7-0.6,1.1-0.9c0.4-0.2,0.8-0.5,1.2-0.6
				c0.4-0.2,0.9-0.3,1.3-0.4c2.3-0.5,4.7,0.3,6.3,1.9c0.3,0.3,0.6,0.7,0.9,1.1c0.2,0.4,0.5,0.8,0.6,1.2c0.2,0.4,0.3,0.9,0.4,1.3
				s0.1,0.9,0.1,1.4s0,0.9-0.1,1.4c-0.1,0.4-0.2,0.9-0.4,1.3c-0.2,0.4-0.4,0.8-0.6,1.2c-0.3,0.4-0.5,0.7-0.9,1.1
				C253,389.6,251.2,390.4,249.4,390.4z"/>
		</g>
		<g>
			<path class="st0" d="M219.2,390.4c-0.5,0-0.9,0-1.4-0.1c-0.4-0.1-0.9-0.2-1.3-0.4c-0.4-0.2-0.8-0.4-1.2-0.6
				c-0.4-0.3-0.7-0.5-1.1-0.9c-0.3-0.3-0.6-0.7-0.9-1.1s-0.5-0.8-0.6-1.2c-0.2-0.4-0.3-0.9-0.4-1.3c-0.1-0.5-0.1-0.9-0.1-1.4
				s0.1-0.9,0.1-1.4c0.1-0.4,0.2-0.9,0.4-1.3s0.4-0.8,0.6-1.2s0.5-0.7,0.9-1.1c0.3-0.3,0.7-0.6,1.1-0.9c0.4-0.2,0.8-0.5,1.2-0.6
				c0.4-0.2,0.9-0.3,1.3-0.4c0.9-0.2,1.8-0.2,2.7,0c0.4,0.1,0.9,0.2,1.3,0.4c0.4,0.2,0.8,0.4,1.2,0.6c0.4,0.3,0.7,0.5,1.1,0.9
				c0.3,0.3,0.6,0.7,0.9,1.1s0.5,0.8,0.6,1.2c0.2,0.4,0.3,0.9,0.4,1.3c0.1,0.4,0.1,0.9,0.1,1.4s0,0.9-0.1,1.4
				c-0.1,0.4-0.2,0.9-0.4,1.3s-0.4,0.8-0.6,1.2s-0.6,0.7-0.9,1.1c-0.3,0.3-0.7,0.6-1.1,0.9c-0.4,0.2-0.8,0.5-1.2,0.6
				c-0.4,0.2-0.9,0.3-1.3,0.4C220.1,390.3,219.7,390.4,219.2,390.4z"/>
		</g>
		<g>
			<path class="st0" d="M189.1,390.4c-0.5,0-0.9,0-1.4-0.1c-0.4-0.1-0.9-0.2-1.3-0.4c-0.4-0.2-0.8-0.4-1.2-0.6
				c-0.4-0.3-0.7-0.5-1.1-0.9c-0.3-0.3-0.6-0.7-0.9-1.1c-0.2-0.4-0.5-0.8-0.6-1.2c-0.2-0.4-0.3-0.9-0.4-1.3
				c-0.1-0.5-0.1-0.9-0.1-1.4s0.1-0.9,0.1-1.4c0.1-0.4,0.2-0.9,0.4-1.3s0.4-0.8,0.6-1.2c0.3-0.4,0.5-0.7,0.9-1.1
				c0.3-0.3,0.7-0.6,1.1-0.9c0.4-0.2,0.8-0.5,1.2-0.6c0.4-0.2,0.9-0.3,1.3-0.4c0.9-0.2,1.8-0.2,2.7,0c0.4,0.1,0.9,0.2,1.3,0.4
				c0.4,0.2,0.8,0.4,1.2,0.6c0.4,0.3,0.7,0.5,1.1,0.9c1.3,1.3,2,3.1,2,4.9s-0.8,3.7-2,5c-0.3,0.3-0.7,0.6-1.1,0.9
				c-0.4,0.2-0.8,0.5-1.2,0.6c-0.4,0.2-0.9,0.3-1.3,0.4S189.6,390.4,189.1,390.4z"/>
		</g>
		<g>
			<path class="st0" d="M158.9,390.4c-0.5,0-0.9,0-1.4-0.1c-0.4-0.1-0.9-0.2-1.3-0.4c-0.4-0.2-0.8-0.4-1.2-0.6
				c-0.4-0.3-0.7-0.5-1.1-0.9c-0.3-0.3-0.6-0.7-0.9-1.1s-0.5-0.8-0.6-1.2c-0.2-0.4-0.3-0.9-0.4-1.3c-0.1-0.5-0.1-0.9-0.1-1.4
				s0-0.9,0.1-1.4c0.1-0.4,0.2-0.9,0.4-1.3s0.4-0.8,0.6-1.2s0.6-0.7,0.9-1.1c0.3-0.3,0.7-0.6,1.1-0.9c0.4-0.2,0.8-0.5,1.2-0.6
				c0.4-0.2,0.9-0.3,1.3-0.4c0.9-0.2,1.8-0.2,2.7,0c0.4,0.1,0.9,0.2,1.3,0.4c0.4,0.2,0.8,0.4,1.2,0.6c0.4,0.3,0.7,0.5,1.1,0.9
				c0.3,0.3,0.6,0.7,0.9,1.1c0.2,0.4,0.5,0.8,0.6,1.2c0.2,0.4,0.3,0.9,0.4,1.3c0.1,0.4,0.1,0.9,0.1,1.4s-0.1,0.9-0.1,1.4
				c-0.1,0.4-0.2,0.9-0.4,1.3s-0.4,0.8-0.6,1.2c-0.3,0.4-0.5,0.7-0.9,1.1c-0.3,0.3-0.7,0.6-1.1,0.9c-0.4,0.2-0.8,0.5-1.2,0.6
				c-0.4,0.2-0.9,0.3-1.3,0.4C159.8,390.3,159.4,390.4,158.9,390.4z"/>
		</g>
		<g>
			<path class="st0" d="M134.7,137.4c-0.5,0-0.9-0.1-1.4-0.1c-0.4-0.1-0.9-0.2-1.3-0.4c-0.4-0.2-0.8-0.4-1.2-0.6
				c-0.4-0.3-0.7-0.5-1.1-0.9c-1.3-1.3-2.1-3.1-2.1-4.9s0.8-3.6,2.1-5c0.3-0.3,0.7-0.6,1.1-0.9c0.4-0.2,0.8-0.5,1.2-0.6
				c0.4-0.2,0.9-0.3,1.3-0.4c2.3-0.5,4.7,0.3,6.3,1.9c1.3,1.3,2,3.1,2,5s-0.8,3.6-2,4.9C138.3,136.6,136.5,137.4,134.7,137.4z"/>
		</g>
		<g>
			<path class="st0" d="M134.7,243.2c-1.8,0-3.6-0.8-4.9-2c-1.3-1.3-2.1-3.1-2.1-5c0-1.8,0.8-3.6,2.1-4.9c0.3-0.3,0.7-0.6,1.1-0.9
				c0.4-0.2,0.8-0.5,1.2-0.6c0.4-0.2,0.9-0.3,1.3-0.4c0.9-0.2,1.8-0.2,2.7,0c0.4,0.1,0.9,0.2,1.3,0.4c0.4,0.2,0.8,0.4,1.2,0.6
				c0.4,0.3,0.7,0.5,1.1,0.9c1.3,1.3,2,3.1,2,4.9c0,1.8-0.8,3.6-2,5C138.3,242.4,136.5,243.2,134.7,243.2z"/>
		</g>
		<g>
			<path class="st0" d="M121.3,220.4c-0.5,0-0.9-0.1-1.4-0.1c-0.4-0.1-0.9-0.2-1.3-0.4s-0.8-0.4-1.2-0.6c-0.4-0.2-0.7-0.5-1.1-0.9
				c-0.3-0.3-0.6-0.7-0.9-1.1c-0.2-0.4-0.5-0.8-0.6-1.2c-0.2-0.4-0.3-0.9-0.4-1.3c-0.1-0.5-0.1-0.9-0.1-1.4s0-0.9,0.1-1.4
				c0.1-0.4,0.2-0.9,0.4-1.3c0.2-0.4,0.4-0.8,0.6-1.2s0.5-0.7,0.9-1.1c0.3-0.3,0.7-0.6,1.1-0.9c0.4-0.2,0.8-0.5,1.2-0.6
				c0.4-0.2,0.9-0.3,1.3-0.4c2.3-0.5,4.7,0.3,6.3,1.9c0.3,0.3,0.6,0.7,0.9,1.1c0.2,0.4,0.5,0.8,0.6,1.2c0.2,0.4,0.3,0.9,0.4,1.3
				c0.1,0.5,0.1,0.9,0.1,1.4s0,0.9-0.1,1.4c-0.1,0.4-0.2,0.9-0.4,1.3c-0.2,0.4-0.4,0.8-0.6,1.2c-0.3,0.4-0.5,0.7-0.9,1.1
				c-0.3,0.3-0.7,0.6-1.1,0.9s-0.8,0.5-1.2,0.6c-0.4,0.2-0.9,0.3-1.3,0.4C122.2,220.3,121.8,220.4,121.3,220.4z"/>
		</g>
		<g>
			<path class="st0" d="M121.3,190.3c-0.5,0-0.9,0-1.4-0.1c-0.4-0.1-0.9-0.2-1.3-0.4s-0.8-0.4-1.2-0.6c-0.4-0.3-0.7-0.5-1.1-0.9
				c-0.3-0.3-0.6-0.7-0.9-1.1s-0.5-0.8-0.6-1.2c-0.2-0.4-0.3-0.9-0.4-1.3c-0.1-0.5-0.1-0.9-0.1-1.4s0-0.9,0.1-1.4
				c0.1-0.4,0.2-0.9,0.4-1.3c0.2-0.4,0.4-0.8,0.6-1.2s0.5-0.7,0.9-1.1c0.3-0.3,0.7-0.6,1.1-0.9c0.4-0.2,0.8-0.5,1.2-0.6
				c0.4-0.2,0.9-0.3,1.3-0.4c0.9-0.2,1.8-0.2,2.7,0c0.4,0.1,0.9,0.2,1.3,0.4s0.8,0.4,1.2,0.6s0.7,0.5,1.1,0.9
				c0.3,0.3,0.6,0.7,0.9,1.1c0.2,0.4,0.5,0.8,0.6,1.2c0.2,0.4,0.3,0.9,0.4,1.3c0.1,0.5,0.1,0.9,0.1,1.4s0,0.9-0.1,1.4
				c-0.1,0.4-0.2,0.9-0.4,1.3c-0.2,0.4-0.4,0.8-0.6,1.2s-0.5,0.7-0.9,1.1c-0.3,0.3-0.7,0.6-1.1,0.9c-0.4,0.2-0.8,0.5-1.2,0.6
				c-0.4,0.2-0.9,0.3-1.3,0.4C122.2,190.2,121.8,190.3,121.3,190.3z"/>
		</g>
		<g>
			<path class="st0" d="M121.3,160.1c-0.5,0-0.9,0-1.4-0.1c-0.4-0.1-0.9-0.2-1.3-0.4s-0.8-0.4-1.2-0.6c-0.4-0.2-0.7-0.6-1.1-0.9
				c-1.3-1.3-2-3.1-2-5c0-0.5,0-0.9,0.1-1.4c0.1-0.4,0.2-0.9,0.4-1.3c0.2-0.4,0.4-0.8,0.6-1.2s0.5-0.7,0.9-1.1
				c0.3-0.3,0.7-0.6,1.1-0.9c0.4-0.2,0.8-0.5,1.2-0.6c0.4-0.2,0.9-0.3,1.3-0.4c0.9-0.2,1.8-0.2,2.7,0c0.4,0.1,0.9,0.2,1.3,0.4
				s0.8,0.4,1.2,0.6s0.7,0.5,1.1,0.9c0.3,0.3,0.6,0.7,0.9,1.1c0.2,0.4,0.5,0.8,0.6,1.2c0.2,0.4,0.3,0.9,0.4,1.3
				c0.1,0.4,0.1,0.9,0.1,1.4c0,1.8-0.8,3.7-2,5c-0.3,0.3-0.7,0.6-1.1,0.9s-0.8,0.5-1.2,0.6c-0.4,0.2-0.9,0.3-1.3,0.4
				C122.2,160,121.8,160.1,121.3,160.1z"/>
		</g>
		<g>
			<path class="st0" d="M339.5,390.4c-1.8,0-3.7-0.8-5-2c-0.3-0.3-0.6-0.7-0.9-1.1c-0.2-0.4-0.5-0.8-0.6-1.2
				c-0.2-0.4-0.3-0.9-0.4-1.3c-0.1-0.5-0.1-0.9-0.1-1.4s0-0.9,0.1-1.4c0.1-0.4,0.2-0.9,0.4-1.3c0.2-0.4,0.4-0.8,0.6-1.2
				c0.3-0.4,0.5-0.7,0.9-1.1c1.6-1.6,4-2.4,6.3-1.9c0.4,0.1,0.9,0.2,1.3,0.4c0.4,0.2,0.8,0.4,1.2,0.6c0.4,0.3,0.7,0.5,1.1,0.9
				c0.3,0.3,0.6,0.7,0.9,1.1c0.2,0.4,0.5,0.8,0.6,1.2c0.2,0.4,0.3,0.9,0.4,1.3s0.1,0.9,0.1,1.4s0,0.9-0.1,1.4
				c-0.1,0.4-0.2,0.9-0.4,1.3c-0.2,0.4-0.4,0.8-0.6,1.2c-0.3,0.4-0.5,0.7-0.9,1.1c-0.3,0.3-0.7,0.6-1.1,0.9
				c-0.4,0.2-0.8,0.5-1.2,0.6c-0.4,0.2-0.9,0.3-1.3,0.4C340.4,390.3,340,390.4,339.5,390.4z"/>
		</g>
		<g>
			<path class="st0" d="M363.7,376.6c-0.5,0-0.9,0-1.4-0.1c-0.4-0.1-0.9-0.2-1.3-0.4c-0.4-0.2-0.8-0.4-1.2-0.6
				c-0.4-0.3-0.7-0.5-1.1-0.9c-0.3-0.3-0.6-0.7-0.9-1.1c-0.2-0.4-0.5-0.8-0.6-1.2c-0.2-0.4-0.3-0.9-0.4-1.3
				c-0.1-0.5-0.1-0.9-0.1-1.4s0-0.9,0.1-1.4c0.1-0.4,0.2-0.9,0.4-1.3c0.2-0.4,0.4-0.8,0.6-1.2s0.5-0.7,0.9-1.1
				c0.3-0.3,0.7-0.6,1.1-0.9s0.8-0.5,1.2-0.6c0.4-0.2,0.9-0.3,1.3-0.4c2.3-0.5,4.7,0.3,6.3,1.9c0.3,0.3,0.6,0.7,0.9,1.1
				s0.5,0.8,0.6,1.2c0.2,0.4,0.3,0.9,0.4,1.3c0.1,0.5,0.1,0.9,0.1,1.4s-0.1,0.9-0.1,1.4c-0.1,0.4-0.2,0.9-0.4,1.3
				c-0.2,0.4-0.4,0.8-0.6,1.2c-0.2,0.4-0.5,0.8-0.9,1.1C367.3,375.8,365.5,376.6,363.7,376.6z"/>
		</g>
		<g>
			<path class="st0" d="M363.7,270.8c-1.8,0-3.7-0.8-5-2c-1.3-1.3-2-3.1-2-5c0-0.5,0-0.9,0.1-1.4c0.1-0.4,0.2-0.9,0.4-1.3
				c0.2-0.4,0.4-0.8,0.6-1.2s0.5-0.7,0.9-1.1c0.3-0.3,0.7-0.6,1.1-0.9s0.8-0.5,1.2-0.6c0.4-0.2,0.9-0.3,1.3-0.4
				c0.9-0.2,1.8-0.2,2.7,0c0.4,0.1,0.9,0.2,1.3,0.4c0.4,0.2,0.8,0.4,1.2,0.6s0.7,0.6,1.1,0.9c0.3,0.3,0.6,0.7,0.9,1.1
				s0.5,0.8,0.6,1.2c0.2,0.4,0.3,0.9,0.4,1.3c0.1,0.5,0.1,0.9,0.1,1.4s-0.1,0.9-0.1,1.4c-0.1,0.4-0.2,0.9-0.4,1.3
				c-0.2,0.4-0.4,0.8-0.6,1.2s-0.5,0.7-0.9,1.1c-0.3,0.3-0.7,0.6-1.1,0.9c-0.4,0.2-0.8,0.5-1.2,0.6c-0.4,0.2-0.9,0.3-1.3,0.4
				C364.6,270.8,364.2,270.8,363.7,270.8z"/>
		</g>
	</g>
	<g>
		<g>
			<path class="st0" d="M376.8,363.9c-26,0-47.1-21.1-47.1-47.1s21.1-47.1,47.1-47.1s47.1,21.1,47.1,47.1S402.8,363.9,376.8,363.9z
				 M376.8,281.7c-19.4,0-35.1,15.7-35.1,35.1s15.7,35.1,35.1,35.1s35.1-15.7,35.1-35.1C411.9,297.4,396.2,281.7,376.8,281.7z"/>
		</g>
		<g>
			<path class="st0" d="M376.8,339.9c-12.7,0-23.1-10.4-23.1-23.1s10.4-23.1,23.1-23.1s23.1,10.4,23.1,23.1S389.5,339.9,376.8,339.9
				z M376.8,305.7c-6.2,0-11.1,4.9-11.1,11.1s4.9,11.1,11.1,11.1c6.1,0,11.1-5,11.1-11.1S382.9,305.7,376.8,305.7z"/>
		</g>
	</g>
	<path class="st1" d="M0,500"/>
</g>
</svg>
