<?xml version="1.0" encoding="utf-8"?>
<!-- Generator: Adobe Illustrator 27.5.0, SVG Export Plug-In . SVG Version: 6.00 Build 0)  -->
<svg version="1.1" id="Layer_1" xmlns="http://www.w3.org/2000/svg" xmlns:xlink="http://www.w3.org/1999/xlink" x="0px" y="0px"
	 viewBox="0 0 500 500" style="enable-background:new 0 0 500 500;" xml:space="preserve">
<style type="text/css">
	.st0{clip-path:url(#SVGID_00000078002651430288314240000005049452007628326799_);}
	.st1{fill:#FFFFFF;}
	.st2{display:none;fill:none;stroke:#FFFFFF;stroke-width:12;stroke-linecap:round;stroke-linejoin:round;}
	.st3{fill:none;stroke:#FFFFFF;stroke-width:12;stroke-linecap:round;stroke-linejoin:round;}
</style>
<g>
	<g>
		<g>
			<g>
				<defs>
					<rect id="SVGID_1_" width="500" height="500"/>
				</defs>
				<clipPath id="SVGID_00000093893349192556151510000014604839794261485984_">
					<use xlink:href="#SVGID_1_"  style="overflow:visible;"/>
				</clipPath>
				<g style="clip-path:url(#SVGID_00000093893349192556151510000014604839794261485984_);">
					<g>
						<path class="st1" d="M220.1,371.5c-40.4,0-78.3-15.7-106.9-44.3C84.7,298.7,69,260.7,69,220.4c0-40.4,15.7-78.3,44.3-106.9
							s66.5-44.3,106.9-44.3s78.3,15.7,106.9,44.3l0,0c28.6,28.6,44.3,66.5,44.3,106.9s-15.7,78.3-44.3,106.9
							C298.5,355.8,260.5,371.5,220.1,371.5z M220.1,81.2c-37.2,0-72.1,14.5-98.4,40.8C95.5,148.2,81,183.2,81,220.4
							s14.5,72.1,40.8,98.4s61.2,40.8,98.4,40.8s72.1-14.5,98.4-40.8s40.8-61.2,40.8-98.4s-14.5-72.1-40.8-98.4l0,0
							C292.3,95.7,257.3,81.2,220.1,81.2z"/>
					</g>
					<g>
						<path class="st1" d="M111.2,181.8c-0.8,0-1.5-0.1-2.3-0.4c-3.1-1.2-4.5-4.7-3.3-7.8c6.3-15.5,15.4-29.2,27-40.7
							c13.9-13.9,31-24.3,49.5-30.2c3.2-1,6.5,0.8,7.5,3.9c1,3.2-0.8,6.5-3.9,7.5c-16.6,5.2-32.1,14.6-44.7,27.2
							c-10.5,10.4-18.7,22.8-24.4,36.7C115.8,180.4,113.6,181.8,111.2,181.8z"/>
					</g>
					<g>
						<path class="st1" d="M413.2,417.5c-1.5,0-3-0.6-4.2-1.7l-88-86.5c-2.4-2.3-2.4-6.1-0.1-8.5s6.1-2.4,8.5-0.1l88,86.5
							c2.4,2.3,2.4,6.1,0.1,8.5C416.3,416.9,414.8,417.5,413.2,417.5z"/>
					</g>
					<g>
						<g>
							<g>
								<path class="st2" d="M0,500"/>
							</g>
						</g>
						<g>
							<g>
								<path class="st3" d="M0,500"/>
							</g>
						</g>
						<g>
							<g>
								<path class="st3" d="M0,500"/>
							</g>
						</g>
						<g>
							<g>
								<path class="st3" d="M0,500"/>
							</g>
						</g>
						<g>
							<g>
								<path class="st3" d="M0,500"/>
							</g>
						</g>
						<g>
							<g>
								<path class="st3" d="M0,500"/>
							</g>
						</g>
						<g>
							<g>
								<path class="st3" d="M0,500"/>
							</g>
						</g>
						<g>
							<g>
								<path class="st3" d="M0,500"/>
							</g>
						</g>
						<g>
							<g>
								<path class="st3" d="M0,500"/>
							</g>
						</g>
						<g>
							<g>
								<path class="st3" d="M0,500"/>
							</g>
						</g>
						<g>
							<g>
								<path class="st3" d="M0,500"/>
							</g>
						</g>
						<g>
							<g>
								<path class="st3" d="M0,500"/>
							</g>
						</g>
					</g>
				</g>
			</g>
		</g>
	</g>
</g>
</svg>
