<?xml version="1.0" encoding="utf-8"?>
<!-- Generator: Adobe Illustrator 27.5.0, SVG Export Plug-In . SVG Version: 6.00 Build 0)  -->
<svg version="1.1" id="Layer_1" xmlns="http://www.w3.org/2000/svg" xmlns:xlink="http://www.w3.org/1999/xlink" x="0px" y="0px"
	 viewBox="0 0 500 500" style="enable-background:new 0 0 500 500;" xml:space="preserve">
<style type="text/css">
	.st0{fill:#FFFFFF;}
	.st1{display:none;fill:none;stroke:#FFFFFF;stroke-width:12;stroke-linecap:round;stroke-linejoin:round;}
	.st2{fill:none;stroke:#FFFFFF;stroke-width:12;stroke-linecap:round;stroke-linejoin:round;}
</style>
<g>
	<g>
		<g>
			<path class="st0" d="M220.9,368.1c-37.6,0-75.3-14.3-103.9-43c-57.3-57.4-57.3-150.7,0-207.9c27.8-27.7,64.7-43,104-43
				c0,0,0,0,0.1,0c39.3,0,76.1,15.3,103.9,43c27.7,27.8,43,64.8,43,104c0,39.3-15.3,76.2-43.1,103.9
				C296.2,353.8,258.6,368.1,220.9,368.1z M221.1,86.2L221.1,86.2c-36.1,0-70,14.1-95.5,39.5c-52.6,52.5-52.6,138.2,0,190.9
				c26.3,26.3,60.8,39.5,95.4,39.5s69.2-13.2,95.5-39.5c25.5-25.5,39.6-59.4,39.6-95.4c0-36.1-14.1-70-39.6-95.5l0,0
				C291,100.2,257.1,86.2,221.1,86.2z"/>
		</g>
		<g>
			<path class="st0" d="M408.6,413c-1.5,0-3-0.6-4.2-1.7l-85.5-84.1c-2.4-2.3-2.4-6.1-0.1-8.5s6.1-2.4,8.5-0.1l85.5,84.1
				c2.4,2.3,2.4,6.1,0.1,8.5C411.7,412.4,410.2,413,408.6,413z"/>
		</g>
		<g>
			<path class="st0" d="M280.4,225.4h-56.1c-3.3,0-6-2.7-6-6s2.7-6,6-6h56.1c3.3,0,6,2.7,6,6S283.7,225.4,280.4,225.4z"/>
		</g>
		<g>
			<path class="st0" d="M226.2,225.4h-63.6c-3.3,0-6-2.7-6-6s2.7-6,6-6h63.6c3.3,0,6,2.7,6,6S229.5,225.4,226.2,225.4z"/>
		</g>
	</g>
	<g>
		<g>
			<g>
				<path class="st1" d="M0,500"/>
			</g>
		</g>
		<g>
			<g>
				<path class="st2" d="M0,500"/>
			</g>
		</g>
		<g>
			<g>
				<path class="st2" d="M0,500"/>
			</g>
		</g>
		<g>
			<g>
				<path class="st2" d="M0,500"/>
			</g>
		</g>
		<g>
			<g>
				<path class="st2" d="M0,500"/>
			</g>
		</g>
		<g>
			<g>
				<path class="st2" d="M0,500"/>
			</g>
		</g>
		<g>
			<g>
				<path class="st2" d="M0,500"/>
			</g>
		</g>
		<g>
			<g>
				<path class="st2" d="M0,500"/>
			</g>
		</g>
		<g>
			<g>
				<path class="st2" d="M0,500"/>
			</g>
		</g>
		<g>
			<g>
				<path class="st2" d="M0,500"/>
			</g>
		</g>
		<g>
			<g>
				<path class="st2" d="M0,500"/>
			</g>
		</g>
		<g>
			<g>
				<path class="st2" d="M0,500"/>
			</g>
		</g>
	</g>
</g>
</svg>
