<?xml version="1.0" encoding="utf-8"?>
<!-- Generator: Adobe Illustrator 27.5.0, SVG Export Plug-In . SVG Version: 6.00 Build 0)  -->
<svg version="1.1" id="Layer_1" xmlns="http://www.w3.org/2000/svg" xmlns:xlink="http://www.w3.org/1999/xlink" x="0px" y="0px"
	 viewBox="0 0 500 500" style="enable-background:new 0 0 500 500;" xml:space="preserve">
<style type="text/css">
	.st0{clip-path:url(#SVGID_00000026138633873632834270000011171148937439059646_);}
	.st1{fill:#FFFFFF;}
	.st2{display:none;fill:none;stroke:#FFFFFF;stroke-width:12;stroke-linecap:round;stroke-linejoin:round;}
	.st3{fill:none;stroke:#FFFFFF;stroke-width:12;stroke-linecap:round;stroke-linejoin:round;}
</style>
<g>
	<g>
		<g>
			<g>
				<defs>
					<rect id="SVGID_1_" width="500" height="500"/>
				</defs>
				<clipPath id="SVGID_00000158728526889035247560000011772410027263954092_">
					<use xlink:href="#SVGID_1_"  style="overflow:visible;"/>
				</clipPath>
				<g style="clip-path:url(#SVGID_00000158728526889035247560000011772410027263954092_);">
					<g>
						<g>
							<path class="st1" d="M376,329h-0.1c-3.3-0.1-5.9-2.8-5.9-6.1c0.1-3.8,0.1-7.5,0.1-11c0-2,0-3.9,0-5.8c0-3.3,2.6-6,5.9-6.1
								c0,0,0,0,0.1,0c3.3,0,6,2.6,6,5.9c0,1.9,0,3.9,0,5.9c0,3.6,0,7.4-0.1,11.3C381.9,326.4,379.3,329,376,329z M203.5,311
								c-2.7,0-5.1-1.8-5.8-4.5c-0.8-3.2,1.2-6.5,4.4-7.3c9-2.2,17.1-7.5,24.1-15.7c2.2-2.5,5.9-2.8,8.5-0.7s2.8,5.9,0.7,8.5
								c-8.7,10.1-18.9,16.7-30.3,19.6C204.4,311,203.9,311,203.5,311z M175.9,309.8c-0.7,0-1.4-0.1-2.1-0.4
								c-10.7-4-20-11.8-27.7-23.2c-1.8-2.8-1.1-6.5,1.7-8.3s6.5-1.1,8.3,1.7c6.2,9.3,13.5,15.5,21.8,18.6c3.1,1.2,4.7,4.6,3.5,7.7
								C180.6,308.3,178.4,309.8,175.9,309.8z M374.7,284.1c-3.1,0-5.7-2.3-6-5.4c-1.1-12-2.9-22.6-5.4-31.4
								c-0.9-3.2,0.9-6.5,4.1-7.4s6.5,0.9,7.4,4.1c2.7,9.6,4.7,20.6,5.8,33.5c0.3,3.3-2.1,6.2-5.4,6.5
								C375.1,284.1,374.9,284.1,374.7,284.1z M245.2,269.5c-0.8,0-1.6-0.2-2.4-0.5c-3-1.3-4.4-4.9-3.1-7.9c2-4.6,3.9-9.6,5.6-14.9
								c1.9-5.8,4-11.2,6.3-16c1.4-3,5-4.3,8-2.8c3,1.4,4.3,5,2.8,8c-2.1,4.3-4,9.2-5.7,14.5c-1.8,5.7-3.9,11.2-6.1,16.1
								C249.7,268.2,247.5,269.5,245.2,269.5z M139.2,263.7c-2.5,0-4.8-1.6-5.7-4.1c-3.3-9.6-6-20.7-8.1-32.9
								c-0.6-3.3,1.6-6.4,4.9-6.9c3.3-0.6,6.4,1.6,6.9,4.9c2,11.6,4.6,22,7.6,31.1c1.1,3.1-0.6,6.5-3.7,7.6
								C140.5,263.6,139.8,263.7,139.2,263.7z M357.5,226.4c-1.9,0-3.7-0.9-4.9-2.5c-5.9-8.1-13.3-13.3-23.3-16.4
								c-3.2-1-5-4.3-4-7.5s4.3-5,7.5-4c12.5,3.8,22.1,10.6,29.5,20.8c2,2.7,1.4,6.4-1.3,8.4C359.9,226,358.7,226.4,357.5,226.4z
								 M273.3,216.2c-1.7,0-3.3-0.7-4.5-2.1c-2.2-2.5-1.9-6.3,0.6-8.5c9.3-8.1,20.6-12.5,33.7-13.3c3.3-0.2,6.1,2.3,6.3,5.6
								c0.2,3.3-2.3,6.1-5.6,6.3c-10.5,0.6-19.2,4-26.5,10.4C276.1,215.8,274.7,216.2,273.3,216.2z M127.8,203.9
								c-3.1,0-5.7-2.4-6-5.5c-0.9-10.4-1.5-21.6-1.8-33.3c-0.1-3.3,2.6-6.1,5.9-6.1c3.3-0.1,6.1,2.6,6.1,5.9
								c0.3,11.5,0.8,22.4,1.7,32.5c0.3,3.3-2.1,6.2-5.4,6.5C128.1,203.9,127.9,203.9,127.8,203.9z"/>
						</g>
						<g>
							<path class="st1" d="M124,152c-7.2,0-13,1.8-13,9s5.8,17,13,17s13-2.8,13-10S131.2,152,124,152z M376,314
								c-7.2,0-13,2.6-13,9.8s5.8,16.2,13,16.2s13-2.6,13-9.8S383.2,314,376,314z"/>
						</g>
						<g>
							<path class="st1" d="M376,346c-10.9,0-19-11.7-19-22.2c0-7.6,5-15.8,19-15.8c10.9,0,19,11.7,19,22.2
								C395,337.8,390,346,376,346z M376,320c-7,0-7,2.6-7,3.8c0,4.6,3.9,10.2,7,10.2c7,0,7-2.6,7-3.8C383,325.6,379.1,320,376,320z
								 M124,184c-10.7,0-19-12.4-19-23c0-5.6,2.5-15,19-15c10.9,0,19,11.6,19,22C143,177.9,135.7,184,124,184z M124,158
								c-7,0-7,1.7-7,3c0,4.7,4,11,7,11c7,0,7-2.8,7-4C131,163.4,127.2,158,124,158z"/>
						</g>
					</g>
					<g>
						<g>
							<path class="st1" d="M429.5,415c-0.6,0-1.3-0.1-1.9-0.3l-116.5-39.5c-2.4-0.8-4.1-3.1-4.1-5.7l-0.5-278
								c0-1.9,0.9-3.8,2.5-4.9s3.6-1.4,5.4-0.8l116.5,39.5c2.4,0.8,4.1,3.1,4.1,5.7l0.5,278c0,1.9-0.9,3.8-2.5,4.9
								C432,414.6,430.7,415,429.5,415z M319,365.2l104.5,35.4L423,135.3L318.5,99.9L319,365.2z M188.5,415c-0.6,0-1.3-0.1-1.9-0.3
								L70.1,375.2c-2.4-0.8-4.1-3.1-4.1-5.7l-0.5-278c0-1.9,0.9-3.8,2.5-4.9s3.6-1.4,5.4-0.8l116.5,39.5c2.4,0.8,4.1,3.1,4.1,5.7
								l0.5,278c0,1.9-0.9,3.8-2.5,4.9C191,414.6,189.7,415,188.5,415z M78,365.2l104.5,35.4L182,135.3L77.5,99.9L78,365.2z"/>
						</g>
						<g>
							<path class="st1" d="M189,414.5c-1.3,0-2.5-0.4-3.5-1.2c-1.5-1.1-2.5-2.9-2.5-4.8l-0.5-278c0-2.6,1.7-4.9,4.2-5.7l124-39.5
								c1.8-0.6,3.8-0.3,5.4,0.9c1.5,1.1,2.5,2.9,2.5,4.8l0.5,278c0,2.6-1.7,4.9-4.2,5.7l-124,39.5
								C190.2,414.4,189.6,414.5,189,414.5z M194.5,134.9l0.5,265.4l112-35.7l-0.5-265.4L194.5,134.9z"/>
						</g>
					</g>
					<g>
						<g>
							<g>
								<path class="st2" d="M0,500"/>
							</g>
						</g>
						<g>
							<g>
								<path class="st3" d="M0,500"/>
							</g>
						</g>
						<g>
							<g>
								<path class="st3" d="M0,500"/>
							</g>
						</g>
						<g>
							<g>
								<path class="st3" d="M0,500"/>
							</g>
						</g>
						<g>
							<g>
								<path class="st3" d="M0,500"/>
							</g>
						</g>
						<g>
							<g>
								<path class="st3" d="M0,500"/>
							</g>
						</g>
						<g>
							<g>
								<path class="st3" d="M0,500"/>
							</g>
						</g>
						<g>
							<g>
								<path class="st3" d="M0,500"/>
							</g>
						</g>
						<g>
							<g>
								<path class="st3" d="M0,500"/>
							</g>
						</g>
						<g>
							<g>
								<path class="st3" d="M0,500"/>
							</g>
						</g>
						<g>
							<g>
								<path class="st3" d="M0,500"/>
							</g>
						</g>
						<g>
							<g>
								<path class="st3" d="M0,500"/>
							</g>
						</g>
						<g>
							<g>
								<path class="st3" d="M0,500"/>
							</g>
						</g>
						<g>
							<g>
								<path class="st3" d="M0,500"/>
							</g>
						</g>
						<g>
							<g>
								<path class="st3" d="M0,500"/>
							</g>
						</g>
						<g>
							<g>
								<path class="st3" d="M0,500"/>
							</g>
						</g>
						<g>
							<g>
								<path class="st3" d="M0,500"/>
							</g>
						</g>
						<g>
							<g>
								<path class="st3" d="M0,500"/>
							</g>
						</g>
						<g>
							<g>
								<path class="st3" d="M0,500"/>
							</g>
						</g>
						<g>
							<g>
								<path class="st3" d="M0,500"/>
							</g>
						</g>
						<g>
							<g>
								<path class="st3" d="M0,500"/>
							</g>
						</g>
						<g>
							<g>
								<path class="st3" d="M0,500"/>
							</g>
						</g>
						<g>
							<g>
								<path class="st3" d="M0,500"/>
							</g>
						</g>
					</g>
				</g>
			</g>
		</g>
	</g>
</g>
</svg>
