<?xml version="1.0" encoding="iso-8859-1"?>
<!-- Generator: Adobe Illustrator 29.6.1, SVG Export Plug-In . SVG Version: 9.03 Build 0)  -->
<svg version="1.1" id="Layer_1" xmlns="http://www.w3.org/2000/svg" xmlns:xlink="http://www.w3.org/1999/xlink" x="0px" y="0px"
	 viewBox="0 0 500 500" style="enable-background:new 0 0 500 500;" xml:space="preserve">
<g>
	<g>
		<path style="fill:#FFFFFF;" d="M340,441H160c-14.336,0-26-11.663-26-26V85c0-14.336,11.664-26,26-26h180c14.337,0,26,11.664,26,26
			v330C366,429.337,354.337,441,340,441z M160,71c-7.72,0-14,6.28-14,14v330c0,7.72,6.28,14,14,14h180c7.72,0,14-6.28,14-14V85
			c0-7.72-6.28-14-14-14H160z M280,106h-60c-3.313,0-6-2.687-6-6s2.687-6,6-6h60c3.313,0,6,2.687,6,6S283.313,106,280,106z"/>
	</g>
	<g>
		<path style="fill:#FFFFFF;" d="M320,351h-70c-25.364,0-46-20.636-46-46s20.636-46,46-46h30c25.364,0,46,20.636,46,46v40
			C326,348.313,323.313,351,320,351z M250,271c-18.748,0-34,15.252-34,34s15.252,34,34,34h64v-34c0-18.748-15.252-34-34-34H250z"/>
	</g>
	<g>
		<path style="fill:#FFFFFF;" d="M290.03,312.5h-0.011c-4.143,0-7.5-3.357-7.5-7.5s3.357-7.5,7.5-7.5s7.505,3.357,7.505,7.5
			S294.173,312.5,290.03,312.5z M265.02,312.5h-0.01c-4.143,0-7.5-3.357-7.5-7.5s3.357-7.5,7.5-7.5s7.505,3.357,7.505,7.5
			S269.162,312.5,265.02,312.5z M240.01,312.5H240c-4.142,0-7.5-3.357-7.5-7.5s3.358-7.5,7.5-7.5s7.505,3.357,7.505,7.5
			S244.152,312.5,240.01,312.5z"/>
	</g>
	<g>
		<path style="fill:#FFFFFF;" d="M295,406h-90c-3.313,0-6-2.687-6-6s2.687-6,6-6h90c3.313,0,6,2.687,6,6S298.313,406,295,406z"/>
	</g>
	<g>
		<path style="fill:#FFFFFF;" d="M250,241h-70c-3.313,0-6-2.687-6-6v-40c0-25.364,20.636-46,46-46h30c25.364,0,46,20.636,46,46
			S275.364,241,250,241z M186,229h64c18.748,0,34-15.252,34-34s-15.252-34-34-34h-30c-18.748,0-34,15.252-34,34V229z"/>
	</g>
</g>
</svg>
