<?xml version="1.0" encoding="utf-8"?>
<!-- Generator: Adobe Illustrator 27.5.0, SVG Export Plug-In . SVG Version: 6.00 Build 0)  -->
<svg version="1.1" id="Layer_1" xmlns="http://www.w3.org/2000/svg" xmlns:xlink="http://www.w3.org/1999/xlink" x="0px" y="0px"
	 viewBox="0 0 500 500" style="enable-background:new 0 0 500 500;" xml:space="preserve">
<style type="text/css">
	.st0{fill:#FFFFFF;}
	.st1{display:none;fill:none;stroke:#FFFFFF;stroke-width:12.04;stroke-linecap:round;stroke-linejoin:round;}
	.st2{fill:none;stroke:#FFFFFF;stroke-width:12.04;stroke-linecap:round;stroke-linejoin:round;}
</style>
<g>
	<g>
		<path class="st0" d="M386.8,316.1H208.5c-3.3,0-6-2.7-6-6s2.7-6,6-6h178.3c3.3,0,6,2.7,6,6S390.1,316.1,386.8,316.1z"/>
	</g>
	<g>
		<path class="st0" d="M418.5,369.4h-337c-13.4,0-24.3-10.9-24.3-24.3V154.8c0-13.4,10.9-24.3,24.3-24.3H338c2.3,0,4.3,1.3,5.3,3.3
			s0.8,4.4-0.5,6.2L261,252.7l20.2,14.7l97.7-134.3c1.1-1.6,2.9-2.5,4.9-2.5h34.7c13.4,0,24.3,10.9,24.3,24.2v190.3
			C442.8,358.5,431.9,369.4,418.5,369.4z M81.5,142.5c-6.8,0-12.3,5.5-12.3,12.3v190.3c0,6.8,5.5,12.3,12.3,12.3h337
			c6.8,0,12.3-5.5,12.3-12.3V154.8c0-6.7-5.5-12.2-12.3-12.2h-31.6l-99.4,136.7c-0.9,1.3-2.3,2.2-3.9,2.4c-1.6,0.2-3.2-0.1-4.5-1.1
			l-29.9-21.8c-2.7-2-3.3-5.7-1.3-8.4l78.4-108H81.5V142.5z"/>
	</g>
	<g>
		<path class="st0" d="M134.6,313.1c-3.3,0-6-2.7-6-6v-13.4c-9.6-1.9-18.4-7.1-24.6-15c-2.1-2.6-1.6-6.4,1-8.4
			c2.6-2.1,6.4-1.6,8.4,1c5,6.3,12.6,10.3,20.5,11.1c0.6-0.1,1.3,0,2,0.1c1.3,0,2.6,0,3.9-0.2c4-0.5,7.6-1.9,10.2-4.1
			c2.6-2.1,4.2-5.2,4.3-8.1c0.2-8.6-6-11.2-20.3-15.2c-12.4-3.4-29.4-8.1-27.4-27c1-9.3,8.1-17.6,17.7-20.8c1.4-0.5,2.8-0.8,4.3-1
			v-13.2c0-3.3,2.7-6,6-6s6,2.7,6,6v13.4c9.9,2,19,8.2,24.4,17.4c1.7,2.9,0.7,6.5-2.2,8.2s-6.5,0.7-8.2-2.2
			c-5.4-9.3-17.1-14.3-26.6-11.2c-5.1,1.7-9,6-9.5,10.6c-0.8,7.6,3.7,10.1,18.7,14.2c12.5,3.4,29.6,8.2,29.1,27
			c-0.1,6.5-3.3,12.7-8.7,17.1c-4.4,3.6-10.1,5.9-16.3,6.7c-0.2,0-0.5,0.1-0.7,0.1v12.9C140.6,310.4,137.9,313.1,134.6,313.1z
			 M388.6,238.7h-70.5c-3.3,0-6-2.7-6-6s2.7-6,6-6h70.5c3.3,0,6,2.7,6,6S391.9,238.7,388.6,238.7z M391.3,198.9h-46.8
			c-3.3,0-6-2.7-6-6s2.7-6,6-6h46.8c3.3,0,6,2.7,6,6S394.6,198.9,391.3,198.9z"/>
	</g>
	<g>
		<g>
			<path class="st0" d="M397.7,117.5l-29.9-21.8"/>
		</g>
		<g>
			<path class="st0" d="M282.6,281.8c-1.3,0-2.5-0.4-3.5-1.2l-29.9-21.8c-2.7-2-3.3-5.7-1.3-8.4L333.2,133l29.7-40.8
				c1.9-2.7,5.7-3.3,8.4-1.3l30,21.7c1.3,0.9,2.2,2.3,2.4,3.9c0.2,1.6-0.1,3.2-1.1,4.5l-13.9,19.1L287.5,279.3
				c-0.9,1.3-2.3,2.2-3.9,2.4C283.2,281.8,282.9,281.8,282.6,281.8z M261.1,252.7l20.2,14.7L379,133.1l10.4-14.2L369,104.2l-26.2,36
				L261.1,252.7z"/>
		</g>
		<g>
			<path class="st0" d="M236.8,313.3c-1.2,0-2.5-0.4-3.5-1.1c-2.1-1.5-2.9-4.1-2.2-6.6l15.9-53.3c0.9-3.2,4.3-5,7.5-4
				c3.2,0.9,5,4.3,4,7.5l-11,37l31.8-21.9c2.7-1.9,6.5-1.2,8.3,1.5s1.2,6.5-1.5,8.3l-45.8,31.5C239.2,312.9,238,313.3,236.8,313.3z"
				/>
		</g>
		<g>
			<path class="st0" d="M367.7,95.8l29.9,21.8"/>
		</g>
		<g>
			<path class="st0" d="M397.6,123.6c-1.2,0-2.5-0.4-3.5-1.2l0,0l-29.9-21.8l0,0c-2.7-2-3.3-5.7-1.3-8.4L382.8,65
				c0.9-1.3,2.3-2.1,3.9-2.4c1.6-0.2,3.2,0.1,4.5,1.1L421,85.5c2.7,2,3.3,5.7,1.3,8.4l-19.9,27.3c-0.1,0.2-0.2,0.3-0.4,0.5l0,0l0,0
				l0,0l0,0l0,0l0,0l0,0l0,0l0,0l0,0l0,0l0,0l0,0l0,0l0,0l0,0c-1,1.1-2.3,1.7-3.6,1.9l0,0l0,0C398.1,123.6,397.9,123.6,397.6,123.6z
				 M376.1,94.5l20.2,14.7l12.8-17.6l-20.2-14.7L376.1,94.5z"/>
		</g>
	</g>
	<g>
		<g>
			<path class="st1" d="M0,500"/>
		</g>
		<g>
			<path class="st2" d="M0,500"/>
		</g>
		<g>
			<path class="st2" d="M0,500"/>
		</g>
		<g>
			<path class="st2" d="M0,500"/>
		</g>
		<g>
			<path class="st2" d="M0,500"/>
		</g>
		<g>
			<path class="st2" d="M0,500"/>
		</g>
		<g>
			<path class="st2" d="M0,500"/>
		</g>
		<g>
			<path class="st2" d="M0,500"/>
		</g>
		<g>
			<path class="st2" d="M0,500"/>
		</g>
		<g>
			<path class="st2" d="M0,500"/>
		</g>
		<g>
			<path class="st2" d="M0,500"/>
		</g>
		<g>
			<path class="st2" d="M0,500"/>
		</g>
	</g>
</g>
</svg>
