<?xml version="1.0" encoding="utf-8"?>
<!-- Generator: Adobe Illustrator 27.5.0, SVG Export Plug-In . SVG Version: 6.00 Build 0)  -->
<svg version="1.1" id="Layer_1" xmlns="http://www.w3.org/2000/svg" xmlns:xlink="http://www.w3.org/1999/xlink" x="0px" y="0px"
	 viewBox="0 0 500 500" style="enable-background:new 0 0 500 500;" xml:space="preserve">
<style type="text/css">
	.st0{clip-path:url(#SVGID_00000077293255104619707670000014285356758712960390_);}
	.st1{display:none;fill:none;}
	.st2{fill:none;}
	.st3{fill:#FFFFFF;}
	.st4{display:none;fill:#FFFFFF;}
</style>
<g>
	<g>
		<g>
			<g>
				<defs>
					<rect id="SVGID_1_" width="500" height="500"/>
				</defs>
				<clipPath id="SVGID_00000083774326857992214310000013858002648114714804_">
					<use xlink:href="#SVGID_1_"  style="overflow:visible;"/>
				</clipPath>
				<g style="clip-path:url(#SVGID_00000083774326857992214310000013858002648114714804_);">
					<g>
						<path class="st1" d="M0,500"/>
						<path class="st2" d="M0,500"/>
					</g>
					<g>
						<g>
							<path class="st3" d="M302.2,416.3H197.9c-2.5,0-4.7-1.6-5.6-3.9c-0.9-2.3-0.2-5,1.7-6.6l18.5-16l7.1-27.2
								c0.7-2.6,3.1-4.5,5.8-4.5h49.3c2.7,0,5.1,1.8,5.8,4.5l7.1,27.2l18.5,16c1.9,1.6,2.6,4.3,1.7,6.6S304.7,416.3,302.2,416.3z
								 M214,404.3h72.1l-7.7-6.7c-0.9-0.8-1.6-1.8-1.9-3l-6.4-24.5h-40l-6.4,24.5c-0.3,1.2-1,2.2-1.9,3L214,404.3z"/>
						</g>
						<g>
							<path class="st3" d="M418.6,370.2H81.4c-14,0-25.4-11.4-25.4-25.4V109.6c0-14,11.4-25.4,25.4-25.4h337.1
								c14,0,25.4,11.4,25.4,25.4v235.1c0.1,6.8-2.5,13.2-7.3,18C431.8,367.5,425.4,370.2,418.6,370.2z M81.4,96.2
								c-7.4,0-13.4,6-13.4,13.4v235.2c0,7.4,6,13.4,13.4,13.4h337.2c3.6,0,6.9-1.4,9.5-3.9c2.5-2.5,3.9-5.9,3.8-9.5V109.6
								c0-7.4-6-13.4-13.4-13.4H81.4z M412.1,311.2H87.9c-3.3,0-6-2.7-6-6V116.1c0-3.3,2.7-6,6-6h324.2c3.3,0,6,2.7,6,6v189.1
								C418.1,308.5,415.4,311.2,412.1,311.2z M93.9,299.2h312.2V122.1H93.9V299.2z"/>
						</g>
						<g>
							<path class="st3" d="M261.5,334.8c0,6.4-5.2,11.5-11.5,11.5s-11.5-5.2-11.5-11.5c0-6.4,5.2-11.5,11.5-11.5
								C256.4,323.2,261.5,328.4,261.5,334.8z"/>
						</g>
					</g>
					<g>
						<g>
							<path class="st4" d="M0,500"/>
						</g>
						<g>
							<path class="st3" d="M0,500"/>
						</g>
						<g>
							<path class="st3" d="M0,500"/>
						</g>
						<g>
							<path class="st3" d="M0,500"/>
						</g>
						<g>
							<path class="st3" d="M0,500"/>
						</g>
						<g>
							<path class="st3" d="M0,500"/>
						</g>
						<g>
							<path class="st3" d="M0,500"/>
						</g>
						<g>
							<path class="st3" d="M0,500"/>
						</g>
						<g>
							<path class="st3" d="M0,500"/>
						</g>
						<g>
							<path class="st3" d="M0,500"/>
						</g>
						<g>
							<path class="st3" d="M0,500"/>
						</g>
						<g>
							<path class="st3" d="M0,500"/>
						</g>
					</g>
				</g>
			</g>
		</g>
	</g>
</g>
</svg>
