<?xml version="1.0" encoding="utf-8"?>
<!-- Generator: Adobe Illustrator 27.5.0, SVG Export Plug-In . SVG Version: 6.00 Build 0)  -->
<svg version="1.1" id="Layer_1" xmlns="http://www.w3.org/2000/svg" xmlns:xlink="http://www.w3.org/1999/xlink" x="0px" y="0px"
	 viewBox="0 0 500 500" style="enable-background:new 0 0 500 500;" xml:space="preserve">
<style type="text/css">
	.st0{clip-path:url(#SVGID_00000005971191379361586920000003023479701917853362_);}
	.st1{fill:#FFFFFF;}
	.st2{fill:none;stroke:#FFFFFF;stroke-width:12;stroke-linecap:round;stroke-linejoin:round;}
	.st3{opacity:0;}
	.st4{display:none;fill:none;stroke:#FFFFFF;stroke-width:12;stroke-linecap:round;stroke-linejoin:round;}
</style>
<g>
	<g>
		<g>
			<g>
				<defs>
					<rect id="SVGID_1_" width="500" height="500"/>
				</defs>
				<clipPath id="SVGID_00000135661572980963670290000014296489570410327938_">
					<use xlink:href="#SVGID_1_"  style="overflow:visible;"/>
				</clipPath>
				<g style="clip-path:url(#SVGID_00000135661572980963670290000014296489570410327938_);">
					<g>
						<path class="st1" d="M210,216c-0.8,0-1.5-0.1-2.3-0.4l-80.1-32.5c-2.3-0.9-3.7-3.1-3.7-5.6V130c0-3.3,2.7-6,6-6
							c3.3,0,6,2.7,6,6v43.5l76.4,31c3.1,1.2,4.5,4.7,3.3,7.8C214.6,214.6,212.4,216,210,216z"/>
					</g>
					<g>
						<path class="st1" d="M129.9,135.9c-14.3,0-26-11.7-26-26s11.7-26,26-26s26,11.7,26,26S144.2,135.9,129.9,135.9z M129.9,95.9
							c-7.7,0-14,6.3-14,14s6.3,14,14,14s14-6.3,14-14S137.6,95.9,129.9,95.9z"/>
					</g>
					<g>
						<path class="st2" d="M169.9,170"/>
					</g>
					<path class="st2" d="M0,500"/>
					<g>
						<path class="st1" d="M290,216c-2.4,0-4.6-1.4-5.6-3.7c-1.2-3.1,0.2-6.6,3.3-7.8l76.4-31V130c0-3.3,2.7-6,6-6s6,2.7,6,6v47.5
							c0,2.4-1.5,4.6-3.7,5.6l-80.1,32.5C291.5,215.9,290.8,216,290,216z"/>
					</g>
					<g>
						<path class="st1" d="M370,135.9c-14.3,0-26-11.7-26-26s11.7-26,26-26s26,11.7,26,26S384.3,135.9,370,135.9z M370,95.9
							c-7.7,0-14,6.3-14,14s6.3,14,14,14s14-6.3,14-14S377.7,95.9,370,95.9z"/>
					</g>
					<g>
						<path class="st2" d="M330,170"/>
					</g>
					<path class="st2" d="M0,500"/>
					<g>
						<g>
							<path class="st1" d="M250,216c-3.3,0-6-2.7-6-6v-74.8c-11.5-2.7-20-13-20-25.3c0-14.3,11.7-26,26-26c14.3,0,26,11.7,26,26
								c0,12.3-8.5,22.6-20,25.3V210C256,213.3,253.3,216,250,216z M250,95.9c-7.7,0-14,6.3-14,14s6.3,14,14,14c7.7,0,14-6.3,14-14
								S257.7,95.9,250,95.9z"/>
						</g>
						<g class="st3">
							<g>
								<path class="st1" d="M250,215.6c-3.3,0-6-2.7-6-6v-0.3c0-3.3,2.7-6,6-6l0,0l0,0c3.3,0,6,2.7,6,6c0,0.2,0,0.4,0,0.6
									C255.9,213.1,253.2,215.6,250,215.6z"/>
							</g>
						</g>
					</g>
					<g>
						<path class="st1" d="M129.9,375.9c-3.3,0-6-2.7-6-6v-47.5c0-2.4,1.5-4.6,3.7-5.6l80.1-32.5c3.1-1.2,6.6,0.2,7.8,3.3
							c1.2,3.1-0.2,6.6-3.3,7.8l-76.4,31v43.5C135.9,373.2,133.2,375.9,129.9,375.9z"/>
					</g>
					<g>
						<path class="st1" d="M129.9,416c-14.3,0-26-11.7-26-26s11.7-26,26-26s26,11.7,26,26S144.2,416,129.9,416z M129.9,376
							c-7.7,0-14,6.3-14,14s6.3,14,14,14s14-6.3,14-14S137.6,376,129.9,376z"/>
					</g>
					<g>
						<path class="st2" d="M169.9,329.9"/>
					</g>
					<path class="st2" d="M0,500"/>
					<g>
						<path class="st1" d="M370.1,375.9c-3.3,0-6-2.7-6-6v-43.5l-76.4-31c-3.1-1.2-4.5-4.7-3.3-7.8s4.7-4.5,7.8-3.3l80.1,32.5
							c2.3,0.9,3.7,3.1,3.7,5.6v47.5C376.1,373.2,373.4,375.9,370.1,375.9z"/>
					</g>
					<g>
						<path class="st1" d="M370,416c-14.3,0-26-11.7-26-26s11.7-26,26-26s26,11.7,26,26S384.3,416,370,416z M370,376
							c-7.7,0-14,6.3-14,14s6.3,14,14,14s14-6.3,14-14S377.7,376,370,376z"/>
					</g>
					<g>
						<path class="st2" d="M330,329.9"/>
					</g>
					<path class="st2" d="M0,500"/>
					<g>
						<g>
							<path class="st1" d="M250,416c-14.3,0-26-11.7-26-26c0-12.3,8.5-22.6,20-25.3v-74.8c0-3.3,2.7-6,6-6s6,2.7,6,6v74.8
								c11.5,2.7,20,13,20,25.3C276,404.3,264.3,416,250,416z M250,376c-7.7,0-14,6.3-14,14s6.3,14,14,14c7.7,0,14-6.3,14-14
								S257.7,376,250,376z"/>
						</g>
						<g class="st3">
							<path class="st1" d="M250,296.6c-3.3,0-6-2.7-6-6s2.7-6,6-6l0,0c3.3,0,6,2.7,6,6S253.3,296.6,250,296.6z"/>
						</g>
					</g>
					<g>
						<path class="st1" d="M290,296h-80c-3.3,0-6-2.7-6-6v-80c0-3.3,2.7-6,6-6h80c3.3,0,6,2.7,6,6v80C296,293.3,293.3,296,290,296z
							 M216,284h68v-68h-68V284z"/>
					</g>
					<g>
						<g>
							<path class="st4" d="M0,500"/>
						</g>
						<g>
							<path class="st2" d="M0,500"/>
						</g>
						<g>
							<path class="st2" d="M0,500"/>
						</g>
						<g>
							<path class="st2" d="M0,500"/>
						</g>
						<g>
							<path class="st2" d="M0,500"/>
						</g>
						<g>
							<path class="st2" d="M0,500"/>
						</g>
						<g>
							<path class="st2" d="M0,500"/>
						</g>
						<g>
							<path class="st2" d="M0,500"/>
						</g>
						<g>
							<path class="st2" d="M0,500"/>
						</g>
						<g>
							<path class="st2" d="M0,500"/>
						</g>
						<g>
							<path class="st2" d="M0,500"/>
						</g>
						<g>
							<path class="st2" d="M0,500"/>
						</g>
					</g>
				</g>
			</g>
		</g>
	</g>
</g>
</svg>
