<?xml version="1.0" encoding="utf-8"?>
<!-- Generator: Adobe Illustrator 27.5.0, SVG Export Plug-In . SVG Version: 6.00 Build 0)  -->
<svg version="1.1" id="Layer_1" xmlns="http://www.w3.org/2000/svg" xmlns:xlink="http://www.w3.org/1999/xlink" x="0px" y="0px"
	 viewBox="0 0 500 500" style="enable-background:new 0 0 500 500;" xml:space="preserve">
<style type="text/css">
	.st0{clip-path:url(#SVGID_00000076571209443754597750000009962366487063655341_);}
	.st1{fill:#FFFFFF;}
	
		.st2{display:none;fill:none;stroke:#FFFFFF;stroke-width:12;stroke-linecap:round;stroke-linejoin:round;stroke-dasharray:0.25,25;}
	.st3{fill:none;stroke:#FFFFFF;stroke-width:12;stroke-linecap:round;stroke-linejoin:round;stroke-dasharray:0.25,25;}
</style>
<g>
	<g>
		<g>
			<g>
				<defs>
					<rect id="SVGID_1_" width="500" height="500"/>
				</defs>
				<clipPath id="SVGID_00000112595845005085536850000012597260760466929843_">
					<use xlink:href="#SVGID_1_"  style="overflow:visible;"/>
				</clipPath>
				<g style="clip-path:url(#SVGID_00000112595845005085536850000012597260760466929843_);">
					<g>
						<g>
							<path class="st1" d="M135.1,376.1c-12.4,0-22.5-10.1-22.5-22.5s10.1-22.5,22.5-22.5s22.5,10.1,22.5,22.5
								S147.5,376.1,135.1,376.1z M135.1,343.1c-5.8,0-10.5,4.7-10.5,10.5s4.7,10.5,10.5,10.5s10.5-4.7,10.5-10.5
								S140.9,343.1,135.1,343.1z"/>
						</g>
						<g>
							<path class="st1" d="M381.9,416.1H118.1c-18.9,0-34.2-15.3-34.2-34.2V118.1c0-18.9,15.3-34.2,34.2-34.2h263.8
								c18.9,0,34.2,15.3,34.2,34.2v263.8C416.1,400.8,400.8,416.1,381.9,416.1z M118.1,95.9c-12.2,0-22.2,10-22.2,22.2v263.8
								c0,12.2,10,22.2,22.2,22.2h263.8c12.2,0,22.2-10,22.2-22.2V118.1c0-12.2-10-22.2-22.2-22.2C381.9,95.9,118.1,95.9,118.1,95.9
								z M372.9,376.1h-48h-0.1h-144c-3.3,0-6-2.7-6-6V309c-0.1-0.4-0.1-0.7-0.1-1.1s0-0.7,0.1-1.1V129.9c0-3.3,2.7-6,6-6h144h0.1
								h48c3.3,0,6,2.7,6,6v240.2C378.9,373.4,376.2,376.1,372.9,376.1z M330.9,364.1h36v-50.2h-36V364.1z M282.8,364.1h36v-50.2
								h-36V364.1z M234.8,364.1h36v-50.2h-36L234.8,364.1L234.8,364.1z M186.8,364.1h36v-50.2h-36V364.1z M330.9,301.9h36v-166h-36
								V301.9z M282.8,301.9h36v-166h-36V301.9z M234.8,301.9h36v-166h-36L234.8,301.9L234.8,301.9z M186.8,301.9h36v-166h-36V301.9
								z"/>
						</g>
					</g>
					<g>
						<path class="st1" d="M134.8,136.1c-3.3,0-6-2.7-6-6v-0.2c0-3.3,2.7-6,6-6s6,2.7,6,6v0.2C140.8,133.5,138.1,136.1,134.8,136.1z
							"/>
					</g>
					<g>
						<path class="st1" d="M134.8,161.8c-3.3,0-6-2.7-6-6v-0.2c0-3.3,2.7-6,6-6s6,2.7,6,6v0.2C140.8,159.1,138.1,161.8,134.8,161.8z
							"/>
					</g>
					<g>
						<path class="st1" d="M134.8,187.4c-3.3,0-6-2.7-6-6v-0.2c0-3.3,2.7-6,6-6s6,2.7,6,6v0.2C140.8,184.7,138.1,187.4,134.8,187.4z
							"/>
					</g>
					<g>
						<path class="st1" d="M134.8,213c-3.3,0-6-2.7-6-6v-0.2c0-3.3,2.7-6,6-6s6,2.7,6,6v0.2C140.8,210.4,138.1,213,134.8,213z"/>
					</g>
					<g>
						<path class="st1" d="M134.8,238.6c-3.3,0-6-2.7-6-6v-0.2c0-3.3,2.7-6,6-6s6,2.7,6,6v0.2C140.8,236,138.1,238.6,134.8,238.6z"
							/>
					</g>
					<g>
						<g>
							<path class="st2" d="M0,500"/>
						</g>
						<g>
							<path class="st3" d="M0,500"/>
						</g>
						<g>
							<path class="st3" d="M0,500"/>
						</g>
						<g>
							<path class="st3" d="M0,500"/>
						</g>
						<g>
							<path class="st3" d="M0,500"/>
						</g>
						<g>
							<path class="st3" d="M0,500"/>
						</g>
						<g>
							<path class="st3" d="M0,500"/>
						</g>
						<g>
							<path class="st3" d="M0,500"/>
						</g>
						<g>
							<path class="st3" d="M0,500"/>
						</g>
						<g>
							<path class="st3" d="M0,500"/>
						</g>
						<g>
							<path class="st3" d="M0,500"/>
						</g>
						<g>
							<path class="st3" d="M0,500"/>
						</g>
					</g>
				</g>
			</g>
		</g>
	</g>
</g>
</svg>
