<?xml version="1.0" encoding="iso-8859-1"?>
<!-- Generator: Adobe Illustrator 29.6.1, SVG Export Plug-In . SVG Version: 9.03 Build 0)  -->
<svg version="1.1" id="Layer_1" xmlns="http://www.w3.org/2000/svg" xmlns:xlink="http://www.w3.org/1999/xlink" x="0px" y="0px"
	 viewBox="0 0 500 500" style="enable-background:new 0 0 500 500;" xml:space="preserve">
<g>
</g>
<g>
	<defs>
		<filter id="Adobe_OpacityMaskFilter" filterUnits="userSpaceOnUse" x="83.999" y="71.008" width="332.001" height="357.983">
			<feColorMatrix  type="matrix" values="1 0 0 0 0  0 1 0 0 0  0 0 1 0 0  0 0 0 1 0"/>
		</filter>
	</defs>
	
		<mask maskUnits="userSpaceOnUse" x="83.999" y="71.008" width="332.001" height="357.983" id="Yoe0xUyt7ka_00000041296330714406820630000010532011553299137452_">
		<path style="fill-rule:evenodd;clip-rule:evenodd;fill:#FFFFFF;filter:url(#Adobe_OpacityMaskFilter);" d="M434.348,60.634H66.695
			v379.263h367.653L434.348,60.634z M390,102.992H110l1.113,122.327l81.051,80.704l58.231-45.555l57.287,45.035L390,223.07V102.992z
			"/>
	</mask>
	<g style="mask:url(#Yoe0xUyt7ka_00000041296330714406820630000010532011553299137452_);">
		<g>
			<path style="fill:#FFFFFF;" d="M410,428.992H90c-3.313,0-6-2.687-6-6V213.044c-0.001-0.119,0.001-0.238,0.008-0.357
				c0.065-1.298,0.543-2.487,1.305-3.439l0,0c0.002-0.002,0.004-0.005,0.006-0.008c0.172-0.214,0.359-0.418,0.563-0.61
				L218.428,83.54c17.704-16.708,45.439-16.709,63.145,0l132.546,125.09c0.203,0.192,0.391,0.396,0.562,0.61
				c0.002,0.003,0.005,0.006,0.007,0.008l0,0c0.762,0.952,1.239,2.142,1.305,3.439c0.006,0.119,0.009,0.238,0.008,0.357v209.949
				C416,426.306,413.312,428.992,410,428.992z M96,416.992h308v-198H96V416.992z M105.1,206.992h289.8L273.336,92.266
				c-13.086-12.351-33.586-12.351-46.672,0L105.1,206.992z"/>
		</g>
		<g>
			<path style="fill:#FFFFFF;" d="M410,428.992H90c-3.314,0-6-2.687-6-6v-19c0-1.73,0.747-3.376,2.049-4.516l104.027-91.024
				c34.163-29.892,85.686-29.891,119.848,0l104.027,91.024c1.302,1.14,2.049,2.785,2.049,4.516v19
				C416,426.306,413.312,428.992,410,428.992z M96,416.992h308v-10.277l-101.979-89.231c-29.655-25.949-74.385-25.949-104.043,0
				L96,406.715V416.992z"/>
		</g>
		<g>
			<path style="fill:#FFFFFF;" d="M308.133,320.86c-1.535,0-3.071-0.586-4.242-1.758c-2.344-2.343-2.344-6.142,0-8.484
				L405.758,208.75c2.342-2.343,6.143-2.343,8.484,0c2.344,2.343,2.344,6.142,0,8.485L312.375,319.102
				C311.204,320.274,309.668,320.86,308.133,320.86z M191.867,320.86c-1.536,0-3.071-0.586-4.243-1.758L85.757,217.235
				c-2.343-2.343-2.343-6.142,0-8.485s6.143-2.343,8.485,0L196.11,310.617c2.343,2.343,2.343,6.142,0,8.484
				C194.938,320.274,193.403,320.86,191.867,320.86z"/>
		</g>
	</g>
	<defs>
		
			<filter id="Adobe_OpacityMaskFilter_00000102508833582307258340000010605081601028563366_" filterUnits="userSpaceOnUse" x="104" y="96.992" width="292" height="232">
			<feColorMatrix  type="matrix" values="1 0 0 0 0  0 1 0 0 0  0 0 1 0 0  0 0 0 1 0"/>
		</filter>
	</defs>
	
		<mask maskUnits="userSpaceOnUse" x="104" y="96.992" width="292" height="232" id="jzj59fOeSrb_00000106113670790081917680000014134264032847768214_">
		<path style="fill:#FFFFFF;filter:url(#Adobe_OpacityMaskFilter_00000102508833582307258340000010605081601028563366_);" d="
			M303.891,310.62l101.866-101.867c2.343-2.343,6.142-2.344,8.485-0.001c0,0,0,0,0.001,0.001V88.258H85.757v120.494
			c2.343-2.343,6.142-2.344,8.485-0.001c0,0,0,0,0.001,0.001l101.866,101.867L303.891,310.62z"/>
	</mask>
	<g style="mask:url(#jzj59fOeSrb_00000106113670790081917680000014134264032847768214_);">
		<g>
			<path style="fill:#FFFFFF;" d="M390,328.992H110c-3.313,0-6-2.687-6-6v-220c0-3.313,2.687-6,6-6h280c3.313,0,6,2.687,6,6v220
				C396,326.306,393.312,328.992,390,328.992z M116,316.992h268v-208H116V316.992z"/>
		</g>
	</g>
	<g>
		<path style="fill:#FFFFFF;" d="M251.366,269.488c-1.973,0-3.888-0.976-5.027-2.722l-20.344-31.171l-12.504,5.831
			c-7.995,3.727-17.534,0.257-21.263-7.739l-10.143-21.751c-3.728-7.997-0.256-17.535,7.739-21.264l40.503-18.887l33.358-39.227
			c1.323-1.558,3.354-2.332,5.373-2.06c2.025,0.273,3.771,1.559,4.635,3.411l37.19,79.755c0.864,1.852,0.726,4.016-0.366,5.743
			c-1.093,1.727-2.988,2.779-5.032,2.793l-40.629,0.268l16.908,25.907c0.951,1.457,1.223,3.254,0.745,4.927
			c-0.478,1.672-1.657,3.055-3.234,3.791l-25.377,11.833C253.082,269.305,252.219,269.488,251.366,269.488z M228.172,221.957
			c1.973,0,3.888,0.975,5.027,2.721l20.345,31.171l14.391-6.71l-19.136-29.321c-1.2-1.838-1.3-4.185-0.261-6.119
			s3.051-3.146,5.247-3.161l42.272-0.278l-29.287-62.807l-28.149,33.102c-0.559,0.658-1.253,1.187-2.035,1.551l-41.69,19.44
			c-1.999,0.932-2.867,3.317-1.935,5.317l10.143,21.75c0.451,0.968,1.253,1.703,2.257,2.068c1.004,0.366,2.09,0.319,3.058-0.133
			l17.22-8.03C226.456,222.139,227.319,221.957,228.172,221.957z"/>
	</g>
	<g>
		<path style="fill:#FFFFFF;" d="M295.307,200.45c-2.26,0-4.424-1.283-5.441-3.466c-1.4-3.003-0.102-6.573,2.902-7.974
			c3.389-1.58,5.96-4.386,7.238-7.9c1.279-3.514,1.113-7.315-0.467-10.705c-1.581-3.389-4.387-5.96-7.9-7.239
			s-7.314-1.113-10.704,0.467c-3.005,1.401-6.574,0.101-7.974-2.902c-1.4-3.003-0.102-6.573,2.901-7.974
			c12.997-6.059,28.493-0.417,34.552,12.576c2.936,6.294,3.244,13.354,0.869,19.88c-2.376,6.526-7.15,11.737-13.445,14.672
			C297.019,200.269,296.155,200.45,295.307,200.45z"/>
	</g>
</g>
</svg>
