<?xml version="1.0" encoding="utf-8"?>
<!-- Generator: Adobe Illustrator 27.5.0, SVG Export Plug-In . SVG Version: 6.00 Build 0)  -->
<svg version="1.1" id="Layer_1" xmlns="http://www.w3.org/2000/svg" xmlns:xlink="http://www.w3.org/1999/xlink" x="0px" y="0px"
	 viewBox="0 0 500 500" style="enable-background:new 0 0 500 500;" xml:space="preserve">
<style type="text/css">
	.st0{fill:#FFFFFF;}
</style>
<g>
	<g>
		<path class="st0" d="M396.1,320.9c-3.3,0-6-2.7-6-6v-155c0-13.1-10.3-23.8-23-23.8H132.9c-12.7,0-23,10.7-23,23.8v155
			c0,3.3-2.7,6-6,6s-6-2.7-6-6v-155c0-19.7,15.7-35.8,35-35.8h234.2c19.3,0,35,16.1,35,35.8v155
			C402.1,318.2,399.4,320.9,396.1,320.9z"/>
	</g>
	<g>
		<path class="st0" d="M388,371.1H112c-21.2,0-38.5-17.3-38.5-38.5v-23.7H193v12H85.5v11.7c0,14.6,11.9,26.5,26.5,26.5h276
			c14.6,0,26.5-11.9,26.5-26.5v-11.7H307v-12h119.5v23.7C426.5,353.8,409.2,371.1,388,371.1z"/>
	</g>
	<g>
		<path class="st0" d="M307,333.3H193c-3.3,0-6-2.7-6-6v-12.4c0-3.3,2.7-6,6-6s6,2.7,6,6v6.4h102v-6.4c0-3.3,2.7-6,6-6s6,2.7,6,6
			v12.4C313,330.6,310.3,333.3,307,333.3z"/>
	</g>
	<g>
		<path class="st0" d="M288.9,289.6h-51c-0.7,0-1.4-0.1-2.1-0.4l-23-8.6h-26.5c-3.3,0-6-2.7-6-6V218c0-3.3,2.7-6,6-6H226
			c7.2-3.5,15.1-10.3,15.1-22.7V164c0-3.3,2.7-6,6-6c14.6,0,26.5,11.9,26.5,26.5v20.7h20.5c11.9-0.1,21.9,9.2,22.6,21.2
			c0,0.4,0,0.9-0.1,1.3l-7.5,46.7c-0.1,0.3-0.1,0.7-0.3,1C306,283.9,297.9,289.6,288.9,289.6z M239,277.6h49.9
			c3.8,0,7.1-2.2,8.5-5.6l7.3-45.4c-0.6-5.3-5.2-9.4-10.5-9.4h-26.6c-3.3,0-6-2.7-6-6v-26.7c0-5.9-3.5-10.9-8.5-13.2v18
			c0,15-8.5,27.4-23.3,34.2c-0.8,0.4-1.6,0.5-2.5,0.5h-7.4v46.4L239,277.6z M192.3,268.6h15.6V224h-15.6V268.6z"/>
	</g>
</g>
</svg>
