<?xml version="1.0" encoding="utf-8"?>
<!-- Generator: Adobe Illustrator 27.5.0, SVG Export Plug-In . SVG Version: 6.00 Build 0)  -->
<svg version="1.1" id="Layer_1" xmlns="http://www.w3.org/2000/svg" xmlns:xlink="http://www.w3.org/1999/xlink" x="0px" y="0px"
	 viewBox="0 0 500 500" style="enable-background:new 0 0 500 500;" xml:space="preserve">
<style type="text/css">
	.st0{fill:#FFFFFF;}
</style>
<g>
	<g>
		<path class="st0" d="M316.3,390.1H89.7c-3.3,0-6-2.7-6-6v-93.6c0-54.9,44.7-99.6,99.6-99.6h124.8c3.3,0,6,2.7,6,6v10
			c0,1.2-0.4,2.4-1.1,3.4l-18.5,27h102.7c2.1,0,4.1,1.1,5.2,2.9c8.9,15,13.5,32.4,13.5,50.3c0,26.6-10.4,51.6-29.2,70.4
			C367.8,379.7,342.8,390.1,316.3,390.1z M95.7,378.1h220.6c23.3,0,45.3-9.1,62-25.7c16.5-16.5,25.6-38.5,25.6-61.9
			c0-14.6-3.5-28.8-10.2-41.2H283.1c-2.2,0-4.3-1.2-5.3-3.2s-0.9-4.4,0.4-6.2l23.9-34.9v-2.1H183.3c-48.3,0-87.6,39.3-87.6,87.6
			C95.7,290.5,95.7,378.1,95.7,378.1z"/>
	</g>
	<g>
		<path class="st0" d="M346.7,325.6h-90.4c-3.3,0-6-2.7-6-6s2.7-6,6-6h90.4c3.3,0,6,2.7,6,6S350,325.6,346.7,325.6z M223.6,325.6
			h-79.1c-3.3,0-6-2.7-6-6s2.7-6,6-6h79.1c3.3,0,6,2.7,6,6S226.9,325.6,223.6,325.6z M292.1,285.2H144.5c-3.3,0-6-2.7-6-6s2.7-6,6-6
			h147.6c3.3,0,6,2.7,6,6S295.4,285.2,292.1,285.2z"/>
	</g>
	<g>
		<path class="st0" d="M346.7,269.8c-12.9,0-23.4-12-23.4-26.7c0-3.3,2.7-6,6-6s6,2.7,6,6c0,8,5.2,14.7,11.4,14.7
			c6.2,0,11.4-6.7,11.4-14.7c0-3.3,2.7-6,6-6s6,2.7,6,6C370.1,257.8,359.6,269.8,346.7,269.8z"/>
	</g>
	<g>
		<path class="st0" d="M346.7,138.4c-3.3,0-6-2.7-6-6v-16.5c0-3.3,2.7-6,6-6s6,2.7,6,6v16.5C352.7,135.7,350,138.4,346.7,138.4z"/>
	</g>
	<g>
		<path class="st0" d="M410.3,249.2H283c-2.2,0-4.3-1.2-5.3-3.2s-0.9-4.4,0.4-6.2l23.9-34.9V171c0-24.6,20-44.6,44.6-44.6
			c11.9,0,23.1,4.6,31.5,13.1c8.4,8.4,13.1,19.6,13.1,31.5v33.9l24,34.9c1.3,1.8,1.4,4.2,0.4,6.2C414.6,248,412.5,249.2,410.3,249.2
			z M294.4,237.2h104.5l-18.6-27c-0.7-1-1.1-2.2-1.1-3.4V171c0-8.7-3.4-16.9-9.5-23.1c-6.2-6.2-14.3-9.5-23.1-9.5
			c-18,0-32.6,14.6-32.6,32.6v35.8c0,1.2-0.4,2.4-1.1,3.4L294.4,237.2z"/>
	</g>
</g>
</svg>
