<?xml version="1.0" encoding="utf-8"?>
<!-- Generator: Adobe Illustrator 27.5.0, SVG Export Plug-In . SVG Version: 6.00 Build 0)  -->
<svg version="1.1" id="Layer_1" xmlns="http://www.w3.org/2000/svg" xmlns:xlink="http://www.w3.org/1999/xlink" x="0px" y="0px"
	 viewBox="0 0 500 500" style="enable-background:new 0 0 500 500;" xml:space="preserve">
<style type="text/css">
	.st0{clip-path:url(#SVGID_00000162348034520837892970000002489756217264383925_);}
	.st1{fill:#FFFFFF;}
</style>
<g>
	<g>
		<g>
			<g>
				<defs>
					<rect id="SVGID_1_" width="500" height="500"/>
				</defs>
				<clipPath id="SVGID_00000129908714943466749880000004508602293440019127_">
					<use xlink:href="#SVGID_1_"  style="overflow:visible;"/>
				</clipPath>
				<g style="clip-path:url(#SVGID_00000129908714943466749880000004508602293440019127_);">
					<g>
						<path class="st1" d="M249.7,336c-9,0-18-1.7-26.4-5.1c-0.2-0.1-0.4-0.1-0.6-0.2c-2.8-1.1-5.6-1.9-8.5-2.2l-11.5-1.3
							c-6.3-0.8-10.9-6-10.9-12.2v-11.6c0.1-22.6,18.5-40.9,40.9-40.9h34.8c22.5,0,40.8,18.3,40.8,40.8v11.6c0,6.3-4.7,11.5-11,12.2
							l-12.1,1.4c-2.9,0.4-5.6,1.1-8.1,2.1C268.3,334.2,259,336,249.7,336z M226.6,319.3c0.2,0.1,0.5,0.1,0.7,0.2
							c14.3,5.9,30.7,5.9,45.1-0.1c3.4-1.4,7.2-2.4,11.3-2.9l12.2-1.4h0.1c0.1,0,0.2-0.1,0.2-0.2v-11.6c0-15.9-12.9-28.8-28.8-28.8
							h-34.8c-15.9,0-28.8,13-28.9,28.9V315c0,0,0.1,0.2,0.3,0.2l11.4,1.3C219.2,317,223,317.9,226.6,319.3z M250,249.3
							c-16.8,0-30.4-13.1-31-29.9l-0.8-23.4c-0.3-8.5,2.8-16.5,8.7-22.6s13.8-9.5,22.3-9.5h1.6c8.5,0,16.4,3.4,22.3,9.5
							s9,14.1,8.7,22.6l-0.8,23.4C280.4,236.2,266.8,249.3,250,249.3z M249.2,175.9c-5.2,0-10.1,2.1-13.7,5.8
							c-3.6,3.8-5.5,8.7-5.3,13.9L231,219c0.4,10.3,8.7,18.3,19,18.3c10.3,0,18.6-8,19-18.3l0.8-23.4c0.2-5.2-1.7-10.1-5.3-13.9
							c-3.6-3.8-8.5-5.8-13.7-5.8L249.2,175.9L249.2,175.9z"/>
					</g>
					<g>
						<path class="st1" d="M250,442.8c-16.8,0-30.7-12.7-32.5-29.1c-36-7.1-68.7-26-93-53.7c-15.1,6.6-33.1,1-41.5-13.6
							c-8.3-14.6-4.2-33,8.9-42.7c-5.9-17.2-8.8-35.2-8.8-53.6s3-36.4,8.9-53.8c-13.2-9.7-17.3-28.1-9-42.7
							c4.3-7.6,11.4-13,19.9-15.3c7.3-1.9,14.8-1.4,21.6,1.6c24.2-27.7,57-46.6,93-53.7c1.8-16.3,15.7-29.1,32.5-29.1
							s30.7,12.7,32.5,29.1c35.9,7,68.6,25.9,93,53.7c6.8-3,14.4-3.6,21.6-1.6c8.4,2.3,15.5,7.7,19.9,15.3c8.3,14.6,4.2,33-9,42.7
							c5.9,17.3,8.9,35.3,8.9,53.7s-3,36.5-8.9,53.7c13.2,9.7,17.3,28.1,9,42.7c-8.4,14.5-26.4,20.2-41.5,13.6
							c-24.3,27.8-57,46.7-93,53.7C280.7,430.1,266.8,442.8,250,442.8z M250,389.4c-11.4,0-20.7,9.3-20.7,20.7s9.3,20.7,20.7,20.7
							s20.7-9.3,20.7-20.7S261.4,389.4,250,389.4z M250,377.4c15.1,0,27.9,10.3,31.6,24.3c32.4-6.7,61.8-23.7,83.9-48.5
							c-10.1-10.2-12.7-26.4-5.2-39.5c7.6-13.1,22.9-19,36.9-15.3c5.2-15.6,7.8-31.9,7.8-48.5c0-16.5-2.6-32.8-7.8-48.4
							c-13.9,3.7-29.3-2.2-36.8-15.3c-7.6-13.1-5-29.3,5.2-39.5c-22.2-24.8-51.7-41.8-83.9-48.5c-3.7,14-16.5,24.3-31.6,24.3
							s-27.9-10.3-31.6-24.3c-32.4,6.7-61.9,23.7-83.9,48.5c10.2,10.2,12.7,26.4,5.2,39.5c-4.3,7.6-11.4,13-19.9,15.3
							c-5.6,1.5-11.5,1.5-17,0c-5.2,15.7-7.8,32-7.8,48.5c0,16.6,2.6,32.8,7.7,48.3c5.5-1.5,11.4-1.5,17,0
							c8.4,2.3,15.5,7.7,19.9,15.3c7.6,13.1,5,29.3-5.2,39.5c22.1,24.8,51.5,41.8,83.9,48.5C222.1,387.7,234.9,377.4,250,377.4z
							 M111.3,309.3c-3.6,0-7.1,0.9-10.3,2.8l0,0c-9.8,5.7-13.3,18.4-7.6,28.3c5.5,9.5,17.4,13,27,8.2c0.3-0.5,0.8-1,1.3-1.4
							c0.9-0.7,1.9-1.1,2.9-1.3c7.6-6.3,9.8-17.4,4.7-26.3c-2.8-4.8-7.3-8.2-12.6-9.7C114.9,309.5,113.1,309.3,111.3,309.3z
							 M379.6,348.7c9.7,4.7,21.6,1.2,27.1-8.3c5.6-9.9,2.2-22.6-7.6-28.3c-9.9-5.6-22.6-2.2-28.3,7.6c-5,8.8-2.9,19.9,4.7,26.3
							c1,0.2,2,0.6,2.9,1.3C378.8,347.7,379.2,348.1,379.6,348.7z M388.6,149.2c-3.6,0-7.1,0.9-10.3,2.8c-4.8,2.8-8.2,7.3-9.7,12.6
							c-1.4,5.3-0.7,10.9,2.1,15.7c5.1,8.9,15.8,12.5,25.1,9.1c0.7-0.8,1.5-1.5,2.6-1.9c0.6-0.2,1.3-0.4,1.9-0.4
							c8.9-6,11.7-18,6.3-27.5c-2.8-4.8-7.2-8.2-12.6-9.7C392.2,149.4,390.4,149.2,388.6,149.2z M104.1,189.4
							c4,1.5,8.4,1.7,12.7,0.6c5.4-1.4,9.8-4.8,12.5-9.6c5.7-9.9,2.3-22.6-7.6-28.3c-10-5.7-22.7-2.3-28.3,7.6
							c-5.4,9.5-2.5,21.7,6.5,27.6c0.6,0,1.2,0.2,1.7,0.4C102.6,188,103.5,188.6,104.1,189.4z M229.4,91.8
							c0.9,10.5,9.8,18.8,20.6,18.8c10.8,0,19.7-8.3,20.6-18.8c0-0.5,0-1,0.1-1.4v-0.1c0-0.1,0-0.2,0-0.3c0-11.4-9.3-20.7-20.7-20.7
							s-20.7,9.3-20.7,20.7c0,0.1,0,0.2,0,0.3v0.1C229.4,90.8,229.4,91.3,229.4,91.8z"/>
					</g>
				</g>
			</g>
		</g>
	</g>
</g>
</svg>
