<?xml version="1.0" encoding="utf-8"?>
<!-- Generator: Adobe Illustrator 27.5.0, SVG Export Plug-In . SVG Version: 6.00 Build 0)  -->
<svg version="1.1" id="Layer_1" xmlns="http://www.w3.org/2000/svg" xmlns:xlink="http://www.w3.org/1999/xlink" x="0px" y="0px"
	 viewBox="0 0 500 500" style="enable-background:new 0 0 500 500;" xml:space="preserve">
<style type="text/css">
	.st0{clip-path:url(#SVGID_00000157289167787342461450000016503167891636429715_);}
	.st1{fill:#FFFFFF;}
</style>
<g>
	<g>
		<g>
			<g>
				<defs>
					<rect id="SVGID_1_" width="500" height="500"/>
				</defs>
				<clipPath id="SVGID_00000153673511510345005850000016079512435450402233_">
					<use xlink:href="#SVGID_1_"  style="overflow:visible;"/>
				</clipPath>
				<g style="clip-path:url(#SVGID_00000153673511510345005850000016079512435450402233_);">
					<g>
						<path class="st1" d="M398.3,416.2h-78.5c-0.4,0-0.7,0-1.1-0.1h-10.1c-3.3,0-6-2.7-6-6s2.7-6,6-6h6.3l4-19.7
							c2.1-10.4,8.1-19.3,16.5-25.2c-8.4-5.9-14.4-14.9-16.5-25.3l-4.1-20h-6.3c-3.3,0-6-2.7-6-6s2.7-6,6-6h101c3.3,0,6,2.7,6,6
							s-2.7,6-6,6h-6.4l-4.1,20c-2.1,10.3-8,19.3-16.4,25.2c8.4,5.8,14.3,14.8,16.4,25.2l4,19.8h6.4c3.3,0,6,2.7,6,6s-2.7,6-6,6
							h-10.2C399,416.2,398.7,416.2,398.3,416.2z M327.2,404.1H391l-3.5-17.4l0,0c-2.1-10.5-9.8-18.8-19.9-21.7
							c-2.6-0.7-4.3-3-4.4-5.7c0-2.7,1.7-5,4.2-5.8c10.3-3.1,18-11.6,20.1-21.9l3.5-17.4h-63.8l3.5,17.4c2.1,10.5,9.8,18.9,20,21.9
							c2.5,0.8,4.3,3.1,4.3,5.8c0,2.7-1.7,5-4.3,5.8c-10.2,3-17.9,11.4-20,21.8L327.2,404.1z"/>
					</g>
					<g>
						<path class="st1" d="M320.9,236.8H206.8c-3.3,0-6-2.7-6-6s2.7-6,6-6h114.1c3.3,0,6,2.7,6,6S324.2,236.8,320.9,236.8z"/>
					</g>
					<g>
						<path class="st1" d="M320.9,188.3H206.8c-3.3,0-6-2.7-6-6s2.7-6,6-6h114.1c3.3,0,6,2.7,6,6S324.2,188.3,320.9,188.3z"/>
					</g>
					<g>
						<path class="st1" d="M320.9,285.3H206.8c-3.3,0-6-2.7-6-6s2.7-6,6-6h114.1c3.3,0,6,2.7,6,6S324.2,285.3,320.9,285.3z"/>
					</g>
					<g>
						<path class="st1" d="M284.5,333.7h-77.7c-3.3,0-6-2.7-6-6s2.7-6,6-6h77.7c3.3,0,6,2.7,6,6S287.8,333.7,284.5,333.7z"/>
					</g>
					<g>
						<path class="st1" d="M179.1,236.8c-0.4,0-0.8,0-1.2-0.1s-0.8-0.2-1.1-0.3c-0.4-0.1-0.7-0.3-1-0.5s-0.6-0.5-0.9-0.8
							c-0.3-0.3-0.5-0.6-0.8-0.9c-0.2-0.3-0.4-0.7-0.5-1c-0.2-0.4-0.3-0.7-0.3-1.1c-0.1-0.4-0.1-0.8-0.1-1.2s0-0.8,0.1-1.2
							s0.2-0.8,0.3-1.1c0.1-0.4,0.3-0.7,0.5-1s0.5-0.6,0.8-0.9c0.3-0.3,0.6-0.5,0.9-0.8c0.3-0.2,0.7-0.4,1-0.6
							c0.4-0.1,0.7-0.3,1.1-0.3c2-0.4,4,0.2,5.4,1.6c0.3,0.3,0.5,0.6,0.8,0.9c0.2,0.3,0.4,0.7,0.5,1c0.2,0.4,0.3,0.7,0.3,1.1
							c0.1,0.4,0.1,0.8,0.1,1.2s0,0.8-0.1,1.2s-0.2,0.8-0.3,1.1c-0.1,0.4-0.3,0.7-0.5,1s-0.5,0.6-0.8,0.9c-0.3,0.3-0.6,0.5-0.9,0.8
							c-0.3,0.2-0.7,0.4-1,0.5c-0.4,0.1-0.7,0.3-1.1,0.3C179.9,236.8,179.5,236.8,179.1,236.8z"/>
					</g>
					<g>
						<path class="st1" d="M179.1,188.3c-1.6,0-3.1-0.6-4.2-1.8c-0.3-0.3-0.5-0.6-0.8-0.9c-0.2-0.3-0.4-0.7-0.5-1
							c-0.2-0.4-0.3-0.7-0.3-1.1c-0.1-0.4-0.1-0.8-0.1-1.2s0-0.8,0.1-1.2s0.2-0.8,0.3-1.1c0.1-0.4,0.3-0.7,0.5-1s0.5-0.6,0.8-0.9
							c1.4-1.4,3.5-2,5.4-1.6c0.4,0.1,0.8,0.2,1.1,0.3c0.4,0.1,0.7,0.3,1,0.6c0.3,0.2,0.6,0.5,0.9,0.8c0.3,0.3,0.5,0.6,0.8,0.9
							c0.2,0.3,0.4,0.7,0.5,1c0.2,0.4,0.3,0.7,0.3,1.1c0.1,0.4,0.1,0.8,0.1,1.2s0,0.8-0.1,1.2s-0.2,0.8-0.3,1.1
							c-0.1,0.4-0.3,0.7-0.5,1s-0.5,0.6-0.8,0.9c-0.3,0.3-0.6,0.5-0.9,0.8c-0.3,0.2-0.7,0.4-1,0.5c-0.4,0.1-0.7,0.3-1.1,0.3
							C179.9,188.3,179.5,188.3,179.1,188.3z"/>
					</g>
					<g>
						<path class="st1" d="M179.1,285.3c-0.4,0-0.8,0-1.2-0.1s-0.8-0.2-1.1-0.3c-0.4-0.2-0.7-0.3-1-0.5s-0.6-0.5-0.9-0.8
							c-0.3-0.3-0.5-0.6-0.8-0.9c-0.2-0.3-0.4-0.7-0.5-1c-0.2-0.4-0.3-0.7-0.3-1.1s-0.1-0.8-0.1-1.2s0-0.8,0.1-1.2
							c0.1-0.4,0.2-0.8,0.3-1.1c0.1-0.4,0.3-0.7,0.5-1s0.5-0.6,0.8-0.9s0.6-0.5,0.9-0.8c0.3-0.2,0.7-0.4,1-0.5
							c0.4-0.2,0.7-0.3,1.1-0.3c0.8-0.2,1.6-0.2,2.3,0c0.4,0.1,0.8,0.2,1.1,0.3c0.4,0.2,0.7,0.3,1,0.5s0.6,0.5,0.9,0.8
							c0.3,0.3,0.5,0.6,0.8,0.9c0.2,0.3,0.4,0.7,0.5,1c0.2,0.4,0.3,0.7,0.3,1.1c0.1,0.4,0.1,0.8,0.1,1.2s0,0.8-0.1,1.2
							c-0.1,0.4-0.2,0.8-0.3,1.1c-0.1,0.4-0.3,0.7-0.5,1s-0.5,0.6-0.8,0.9s-0.6,0.5-0.9,0.8c-0.3,0.2-0.7,0.4-1,0.5
							c-0.4,0.2-0.7,0.3-1.1,0.3C179.9,285.3,179.5,285.3,179.1,285.3z"/>
					</g>
					<g>
						<path class="st1" d="M179.1,333.7c-0.4,0-0.8,0-1.2-0.1s-0.8-0.2-1.1-0.3c-0.4-0.2-0.7-0.3-1-0.6c-0.3-0.2-0.6-0.5-0.9-0.8
							c-1.1-1.1-1.8-2.7-1.8-4.2c0-0.4,0-0.8,0.1-1.2c0.1-0.4,0.2-0.8,0.3-1.1c0.1-0.4,0.3-0.7,0.5-1s0.5-0.6,0.8-0.9
							s0.6-0.5,0.9-0.8c0.3-0.2,0.7-0.4,1-0.5c0.4-0.2,0.7-0.3,1.1-0.3c0.8-0.2,1.6-0.2,2.3,0c0.4,0.1,0.8,0.2,1.1,0.3
							c0.4,0.1,0.7,0.3,1,0.5s0.6,0.5,0.9,0.8c0.3,0.3,0.5,0.6,0.8,0.9c0.2,0.3,0.4,0.7,0.5,1c0.2,0.4,0.3,0.7,0.3,1.1
							c0.1,0.4,0.1,0.8,0.1,1.2c0,1.6-0.6,3.1-1.8,4.2c-0.3,0.3-0.6,0.5-0.9,0.8c-0.3,0.2-0.7,0.4-1,0.6c-0.4,0.1-0.7,0.3-1.1,0.3
							C179.9,333.7,179.5,333.7,179.1,333.7z"/>
					</g>
					<g>
						<path class="st1" d="M363.4,289.3c-3.3,0-6-2.7-6-6V95.9h-50.7c-3.3,0-6-2.7-6-6s2.7-6,6-6h56.7c3.3,0,6,2.7,6,6v193.4
							C369.4,286.6,366.7,289.3,363.4,289.3z"/>
					</g>
					<g>
						<path class="st1" d="M283.7,416.1H136.6c-3.3,0-6-2.7-6-6V89.9c0-3.3,2.7-6,6-6h56.7c3.3,0,6,2.7,6,6s-2.7,6-6,6h-50.7v308.2
							h141.1c3.3,0,6,2.7,6,6S287,416.1,283.7,416.1z"/>
					</g>
					<g>
						<path class="st1" d="M275.1,89.9c-3.3,0-6-2.7-6-6V69.2h-38.3v14.7c0,3.3-2.7,6-6,6s-6-2.7-6-6V63.2c0-3.3,2.7-6,6-6h50.3
							c3.3,0,6,2.7,6,6v20.7C281.1,87.2,278.4,89.9,275.1,89.9z"/>
					</g>
					<g>
						<path class="st1" d="M306.7,127.2H193.3c-3.3,0-6-2.7-6-6V83.9c0-3.3,2.7-6,6-6h113.4c3.3,0,6,2.7,6,6v37.3
							C312.7,124.5,310,127.2,306.7,127.2z M199.3,115.2h101.4V89.9H199.3V115.2z"/>
					</g>
				</g>
			</g>
		</g>
	</g>
</g>
</svg>
