<?xml version="1.0" encoding="utf-8"?>
<!-- Generator: Adobe Illustrator 27.5.0, SVG Export Plug-In . SVG Version: 6.00 Build 0)  -->
<svg version="1.1" id="Layer_1" xmlns="http://www.w3.org/2000/svg" xmlns:xlink="http://www.w3.org/1999/xlink" x="0px" y="0px"
	 viewBox="0 0 500 500" style="enable-background:new 0 0 500 500;" xml:space="preserve">
<style type="text/css">
	.st0{clip-path:url(#SVGID_00000127023986596728289420000010053871457134713477_);}
	.st1{fill:#FFFFFF;}
</style>
<g>
	<g>
		<g>
			<g>
				<defs>
					<rect id="SVGID_1_" width="500" height="500"/>
				</defs>
				<clipPath id="SVGID_00000040555003621901036150000001806284030107922085_">
					<use xlink:href="#SVGID_1_"  style="overflow:visible;"/>
				</clipPath>
				<g style="clip-path:url(#SVGID_00000040555003621901036150000001806284030107922085_);">
					<g>
						<path class="st1" d="M250,295.9c-3.3,0-6-2.7-6-6v-91.2c0-3.3,2.7-6,6-6s6,2.7,6,6v91.2C256,293.2,253.3,295.9,250,295.9z"/>
					</g>
					<g>
						<path class="st1" d="M365.9,295.9c-3.3,0-6-2.7-6-6V253c0-7.9-6.4-14.3-14.3-14.3H155c-7.9,0-14.3,6.4-14.3,14.3v36.9
							c0,3.3-2.7,6-6,6s-6-2.7-6-6V253c0-14.5,11.8-26.3,26.3-26.3h190.6c14.5,0,26.3,11.8,26.3,26.3v36.9
							C371.9,293.2,369.2,295.9,365.9,295.9z"/>
					</g>
					<g>
						<path class="st1" d="M250,177c-5.6,0-11.1-1.1-16.4-3.3h-0.1c-1.2-0.5-2.5-0.9-3.9-1h-0.1l-6.5-0.8c-4.8-0.5-8.5-4.6-8.5-9.5
							v-6.6c-0.1-6.7,2.5-13.2,7.3-18c4.9-4.9,11.3-7.6,18.3-7.6h19.7c14.2,0,25.7,11.5,25.7,25.7v6.6c0,4.8-3.6,8.9-8.4,9.5
							l-6.9,0.8c-1.3,0.1-2.5,0.5-3.9,1C261.1,175.9,255.6,177,250,177z M238.4,162.6c7.5,3.2,15.8,3.2,23.4,0c0.1,0,0.1,0,0.2-0.1
							c2.5-1,4.8-1.5,7-1.8l4.6-0.5v-4.4c0-7.6-6.1-13.7-13.7-13.7h-19.7c-3.7,0-7.1,1.4-9.7,4c-2.5,2.6-3.9,5.9-3.9,9.5v4.5
							l4.4,0.5C233.5,160.9,236,161.6,238.4,162.6z M224.5,159.8L224.5,159.8L224.5,159.8z M250.1,125.5c-10.4,0-19-8.2-19.4-18.7
							l-0.4-12.5c-0.3-5.3,1.6-10.3,5.2-14.1c3.6-3.8,8.8-6,14.1-6h0.9c5.3,0,10.3,2.1,14,6c3.7,3.8,5.6,8.9,5.4,14.2l-0.4,12.5
							C269.1,117.3,260.5,125.5,250.1,125.5z M249.6,86.2c-2.1,0-4,0.8-5.4,2.3c-1.4,1.4-2.1,3.3-2,5.3v0.1l0.4,12.5
							c0.2,4,3.4,7.1,7.4,7.1s7.2-3.1,7.4-7.1l0.4-12.4c0.1-2.1-0.6-4-2-5.4c-1.4-1.5-3.3-2.3-5.4-2.3L249.6,86.2L249.6,86.2z"/>
					</g>
					<g>
						<path class="st1" d="M134.8,414.8c-5.6,0-11.1-1.1-16.4-3.3h-0.1c-1.2-0.5-2.5-0.9-3.9-1h-0.1l-6.5-0.8
							c-4.8-0.5-8.5-4.6-8.5-9.5v-6.6c-0.1-6.7,2.5-13.2,7.3-18c4.9-4.9,11.3-7.6,18.3-7.6h19.7c14.2,0,25.7,11.5,25.7,25.7v6.6
							c0,4.8-3.6,8.9-8.4,9.5l-6.9,0.8c-1.3,0.1-2.5,0.5-3.9,1C145.8,413.7,140.3,414.8,134.8,414.8z M123.1,400.4
							c7.5,3.2,15.8,3.2,23.4,0c0.1,0,0.1,0,0.2-0.1c2.5-1,4.8-1.5,7-1.8l4.6-0.5v-4.4c0-7.6-6.1-13.7-13.7-13.7h-19.7
							c-3.7,0-7.1,1.4-9.7,4c-2.5,2.6-3.9,5.9-3.9,9.5v4.5l4.4,0.5C118.2,398.7,120.7,399.4,123.1,400.4z M109.2,397.6L109.2,397.6
							L109.2,397.6z M134.8,363.3c-10.4,0-19-8.2-19.4-18.6l-0.4-12.6c-0.2-5.3,1.7-10.3,5.4-14.2c3.7-3.8,8.6-5.9,13.9-5.9h0.9
							c5.3,0,10.3,2.1,14,6c3.7,3.8,5.6,8.9,5.4,14.2l-0.4,12.5C153.8,355.1,145.2,363.3,134.8,363.3z M134.3,324
							c-2,0-3.9,0.8-5.3,2.2c-1.4,1.5-2.1,3.4-2,5.4l0.4,12.5c0.2,4,3.4,7.1,7.4,7.1s7.2-3.1,7.4-7.1l0.4-12.4c0.1-2.1-0.6-4-2-5.4
							c-1.4-1.5-3.3-2.3-5.4-2.3L134.3,324L134.3,324z"/>
					</g>
					<g>
						<path class="st1" d="M250,414.8c-5.6,0-11.1-1.1-16.4-3.3h-0.1c-1.2-0.5-2.5-0.9-3.9-1h-0.1l-6.5-0.8
							c-4.8-0.5-8.5-4.6-8.5-9.5v-6.6c-0.1-6.7,2.5-13.2,7.3-18c4.9-4.9,11.3-7.6,18.3-7.6h19.7c14.2,0,25.7,11.5,25.7,25.7v6.6
							c0,4.8-3.6,8.9-8.4,9.5l-6.9,0.8c-1.3,0.1-2.5,0.5-3.9,1C261.1,413.7,255.6,414.8,250,414.8z M238.4,400.4
							c7.5,3.2,15.8,3.2,23.4,0c0.1,0,0.1,0,0.2-0.1c2.5-1,4.8-1.5,7-1.8l4.6-0.5v-4.4c0-7.6-6.1-13.7-13.7-13.7h-19.7
							c-3.7,0-7.1,1.4-9.7,4c-2.5,2.6-3.9,5.9-3.9,9.5v4.5l4.4,0.5C233.5,398.7,236,399.4,238.4,400.4z M224.5,397.6L224.5,397.6
							L224.5,397.6z M250.1,363.3c-10.4,0-19-8.2-19.4-18.6l-0.4-12.5c-0.3-5.3,1.6-10.3,5.2-14.1c3.6-3.8,8.8-6,14.1-6h0.9
							c5.3,0,10.3,2.1,14,6c3.7,3.8,5.6,8.9,5.4,14.2l-0.4,12.5C269.1,355.1,260.5,363.3,250.1,363.3z M249.6,324
							c-2.1,0-4,0.8-5.4,2.3c-1.4,1.4-2.1,3.3-2,5.3v0.1l0.4,12.5c0.2,4,3.4,7.1,7.4,7.1s7.2-3.1,7.4-7.1l0.4-12.4
							c0.1-2.1-0.6-4-2-5.4c-1.4-1.5-3.3-2.3-5.4-2.3h-0.8L249.6,324L249.6,324z"/>
					</g>
					<g>
						<path class="st1" d="M366.5,414.8c-5.6,0-11.1-1.1-16.4-3.3H350c-1.2-0.5-2.5-0.9-3.9-1H346l-6.5-0.8
							c-4.8-0.5-8.5-4.6-8.5-9.5v-6.6c-0.1-6.7,2.5-13.2,7.3-18c4.8-4.9,11.3-7.6,18.2-7.6h19.7c14.2,0,25.7,11.5,25.7,25.7v6.6
							c0,4.8-3.6,8.9-8.4,9.5l-6.9,0.8c-1.3,0.1-2.5,0.5-3.9,1C377.5,413.7,372,414.8,366.5,414.8z M354.8,400.4
							c7.5,3.2,15.8,3.2,23.4,0c0.1,0,0.1,0,0.2-0.1c2.5-1,4.8-1.5,7-1.8l4.6-0.5v-4.4c0-7.6-6.1-13.7-13.7-13.7h-19.7
							c-3.7,0-7.1,1.4-9.7,4c-2.5,2.6-3.9,5.9-3.9,9.5v4.5l4.4,0.5C349.9,398.7,352.4,399.4,354.8,400.4z M340.9,397.6L340.9,397.6
							L340.9,397.6z M366.5,363.3c-10.4,0-19-8.2-19.4-18.6l-0.4-12.5c-0.3-5.3,1.6-10.3,5.2-14.1c3.6-3.8,8.8-6,14.1-6h0.9
							c5.3,0,10.3,2.1,14,6c3.7,3.8,5.6,8.9,5.4,14.2l-0.4,12.5C385.5,355.1,376.9,363.3,366.5,363.3z M366,324
							c-2.1,0-4,0.8-5.4,2.3c-1.4,1.4-2.1,3.3-2,5.3v0.1l0.4,12.5c0.2,4,3.4,7.1,7.4,7.1s7.2-3.1,7.4-7.1l0.4-12.4
							c0.1-2.1-0.6-4-2-5.4c-1.4-1.5-3.3-2.3-5.4-2.3H366V324z"/>
					</g>
				</g>
			</g>
		</g>
	</g>
</g>
</svg>
