<?xml version="1.0" encoding="utf-8"?>
<!-- Generator: Adobe Illustrator 27.5.0, SVG Export Plug-In . SVG Version: 6.00 Build 0)  -->
<svg version="1.1" id="Layer_1" xmlns="http://www.w3.org/2000/svg" xmlns:xlink="http://www.w3.org/1999/xlink" x="0px" y="0px"
	 viewBox="0 0 500 500" style="enable-background:new 0 0 500 500;" xml:space="preserve">
<style type="text/css">
	.st0{fill:#FFFFFF;}
	.st1{display:none;fill:none;stroke:#FFFFFF;stroke-width:12;stroke-linecap:round;stroke-linejoin:round;}
	.st2{fill:none;stroke:#FFFFFF;stroke-width:12;stroke-linecap:round;stroke-linejoin:round;}
</style>
<g>
	<g>
		<g>
			<path class="st0" d="M333.8,127.5h-19.6c-6.8,0-12.3-5.5-12.3-12.3V83.5c0-14.9,12.2-27.1,27.1-27.1h4.8
				c14.9,0,27.1,12.2,27.1,27.1v17C360.9,115.4,348.7,127.5,333.8,127.5z M329,68.4c-8.3,0-15.1,6.8-15.1,15.1v31.7
				c0,0.2,0.1,0.3,0.3,0.3h19.6c8.3,0,15.1-6.7,15.1-15v-17c0-8.3-6.8-15.1-15.1-15.1H329z"/>
		</g>
		<g>
			<path class="st0" d="M261.5,274.1c-2.1,0-4.1-1.1-5.2-3.1c-1.6-2.9-0.6-6.5,2.3-8.2l37.4-20.9l6.1-8.3c2-2.7,5.7-3.2,8.4-1.3
				c2.7,2,3.2,5.7,1.3,8.4l-6.9,9.4c-0.5,0.7-1.2,1.3-1.9,1.7l-38.5,21.5C263.5,273.9,262.5,274.1,261.5,274.1z"/>
		</g>
		<g>
			<path class="st0" d="M250,249.2c-2,0-3.9-1-5.1-2.8c-1.8-2.8-1-6.5,1.8-8.3l28.6-18.4l26.7-33.9c2-2.6,5.8-3.1,8.4-1
				c2.6,2,3.1,5.8,1,8.4L284.1,228c-0.4,0.5-0.9,1-1.5,1.3l-29.4,18.9C252.2,248.9,251.1,249.2,250,249.2z"/>
		</g>
		<g>
			<path class="st0" d="M349.7,442.3h-60c-2.1,0-4-1.1-5.1-2.8c-2.4-3.8-2.9-7.9-1.5-12.1c3.3-9.9,17.4-17.4,24.9-20.7l-7-151.3
				c-0.2-3.3,2.4-6.1,5.7-6.3c3.3-0.2,6.1,2.4,6.3,5.7l7.2,155.5c0.1,2.6-1.4,5-3.8,5.9c-7.4,2.8-18.8,9.1-21.5,14.1h54.8
				c3.3,0,6,2.7,6,6S353,442.3,349.7,442.3z"/>
		</g>
		<g>
			<path class="st0" d="M365.2,442.3h-54c-2.1,0-4-1.1-5.1-2.8c-2.5-4-3.2-8.5-2-13c2.6-9.1,12.9-16.2,18.4-19.4l-3-146H307
				c-3.3,0-6-2.7-6-6v-75.7c0-10.1,4-19.6,11.2-26.8s16.7-11.2,26.8-11.2c13.5,0,25.7,7,32.7,18.6c0.1,0.2,0.2,0.4,0.3,0.6l0,0l0,0
				c0.1,0.2,0.1,0.3,0.2,0.5c-0.1-0.2-0.1-0.4-0.2-0.5l-10,6.6l5-3.3l-5,3.3c-0.2-0.3-0.6-0.8-0.9-1.5c-4.8-7.8-13-12.4-22.1-12.4
				c-6.9,0-13.4,2.7-18.4,7.6c-4.9,4.9-7.6,11.4-7.6,18.4V249h12.4l0,0h34.3c3.3,0,6,2.7,6,6c0,3.3-2.7,6-6,6h-28.2l3.1,149.4
				c0,2.3-1.3,4.5-3.4,5.5c-4.4,2.2-14.1,8.4-15.6,13.8c-0.1,0.2-0.1,0.4-0.1,0.5h43.8l4.4-132.8c0.1-3.3,2.9-5.9,6.2-5.8
				c3.3,0.1,5.9,2.9,5.8,6.2l-4.6,138.6C371.1,439.7,368.4,442.3,365.2,442.3z M372.3,161.2L372.3,161.2L372.3,161.2z"/>
		</g>
		<g>
			<path class="st0" d="M369.6,298.6c-6.9,0-12.2-2-12.5-2.1c-2.3-0.9-3.9-3.2-3.8-5.7l0.5-35.8l0.4-25.1L334.4,183
				c-1.3-3.1,0.2-6.6,3.2-7.9c3.1-1.3,6.6,0.2,7.9,3.2l20.2,48.1c0.3,0.8,0.5,1.6,0.5,2.4l-0.4,26.3l-0.4,31.1
				c1.8,0.3,4,0.5,6.4,0.3c6.2-0.6,10.5-4,13.2-10.3l0.8-52.7l-24-57.2c-1.3-3.1,0.2-6.6,3.2-7.9c3.1-1.3,6.6,0.2,7.9,3.2l24.5,58.4
				c0.3,0.8,0.5,1.6,0.5,2.4l-0.8,55.1c0,0.7-0.1,1.4-0.4,2c-3,8-8,13.6-14.8,16.6C377.5,298,373.3,298.6,369.6,298.6z M173,128.1
				h-19.5c-14.9,0-27.1-12.1-27.2-26.9V84.1c0-14.9,12.2-27.1,27.1-27.1h4.8c14.9,0,27.1,12.2,27.1,27.1v31.7
				C185.3,122.6,179.8,128.1,173,128.1z M153.4,69c-8.3,0-15.1,6.8-15.1,15.1v17c0.1,8.2,6.9,15,15.2,15H173c0.2,0,0.3-0.1,0.3-0.3
				V84.1c0-8.3-6.8-15.1-15.1-15.1H153.4z"/>
		</g>
		<g>
			<path class="st0" d="M197.6,442.9h-75.3c-3.2,0-5.9-2.6-6-5.8l-6-181.2c-0.1-3.3,2.5-6.1,5.8-6.2c3.3-0.1,6.1,2.5,6.2,5.8
				l5.8,175.4h3.3l-5.8-175c-0.1-3.3,2.5-6.1,5.8-6.2c3.3-0.1,6.1,2.5,6.2,5.8l5.8,175.4h49c-2.7-5-14.1-11.3-21.5-14.1
				c-2.4-0.9-4-3.3-3.8-5.9l7.2-155.5c0.2-3.3,3-5.9,6.3-5.7s5.9,3,5.7,6.3l-7,151.3c7.5,3.4,21.6,10.8,24.9,20.7
				c1.4,4.1,0.8,8.3-1.5,12.1C201.6,441.8,199.7,442.9,197.6,442.9z"/>
		</g>
		<g>
			<path class="st0" d="M180.3,261.6h-64c-3.3,0-6-2.7-6-6V180c0-21,17-38,38-38s38,17,38,38c0,3.3-2.7,6-6,6s-6-2.7-6-6
				c0-14.3-11.7-26-26-26s-26,11.7-26,26v69.6h52v-21.3c0-3.3,2.7-6,6-6s6,2.7,6,6v27.3C186.3,258.9,183.6,261.6,180.3,261.6z"/>
		</g>
		<g>
			<path class="st0" d="M246.8,278.4c-2.1,0-4.3-0.2-6.6-0.6c-0.6-0.1-1.3-0.3-1.8-0.7l-47.9-26.7c-0.7-0.4-1.4-1-1.9-1.6L139.7,184
				c-2-2.6-1.5-6.4,1.2-8.4c2.6-2,6.4-1.5,8.4,1.2l48,63.8l45.9,25.6c4.8,0.7,8.6,0,11.7-2.1c3-2.2,4.8-5.4,5.8-8l-49.7-28
				c-0.7-0.4-1.3-0.9-1.8-1.5L175.6,184c-2.1-2.6-1.6-6.4,1-8.4c2.6-2.1,6.4-1.6,8.4,1l32.9,41.7l52.8,29.6c2.2,1.2,3.4,3.6,3,6.1
				c-0.1,0.5-1.9,12.8-11.7,19.8C257.6,276.9,252.5,278.4,246.8,278.4z"/>
		</g>
	</g>
	<g>
		<g>
			<g>
				<path class="st1" d="M0,500"/>
			</g>
		</g>
		<g>
			<g>
				<path class="st2" d="M0,500"/>
			</g>
		</g>
		<g>
			<g>
				<path class="st2" d="M0,500"/>
			</g>
		</g>
		<g>
			<g>
				<path class="st2" d="M0,500"/>
			</g>
		</g>
		<g>
			<g>
				<path class="st2" d="M0,500"/>
			</g>
		</g>
		<g>
			<g>
				<path class="st2" d="M0,500"/>
			</g>
		</g>
		<g>
			<g>
				<path class="st2" d="M0,500"/>
			</g>
		</g>
		<g>
			<g>
				<path class="st2" d="M0,500"/>
			</g>
		</g>
		<g>
			<g>
				<path class="st2" d="M0,500"/>
			</g>
		</g>
		<g>
			<g>
				<path class="st2" d="M0,500"/>
			</g>
		</g>
		<g>
			<g>
				<path class="st2" d="M0,500"/>
			</g>
		</g>
		<g>
			<g>
				<path class="st2" d="M0,500"/>
			</g>
		</g>
		<g>
			<g>
				<path class="st2" d="M0,500"/>
			</g>
		</g>
		<g>
			<g>
				<path class="st2" d="M0,500"/>
			</g>
		</g>
		<g>
			<g>
				<path class="st2" d="M0,500"/>
			</g>
		</g>
		<g>
			<g>
				<path class="st2" d="M0,500"/>
			</g>
		</g>
		<g>
			<g>
				<path class="st2" d="M0,500"/>
			</g>
		</g>
		<g>
			<g>
				<path class="st2" d="M0,500"/>
			</g>
		</g>
		<g>
			<g>
				<path class="st2" d="M0,500"/>
			</g>
		</g>
		<g>
			<g>
				<path class="st2" d="M0,500"/>
			</g>
		</g>
		<g>
			<g>
				<path class="st2" d="M0,500"/>
			</g>
		</g>
		<g>
			<g>
				<path class="st2" d="M0,500"/>
			</g>
		</g>
		<g>
			<g>
				<path class="st2" d="M0,500"/>
			</g>
		</g>
		<g>
			<g>
				<path class="st2" d="M0,500"/>
			</g>
		</g>
	</g>
</g>
</svg>
