<?xml version="1.0" encoding="utf-8"?>
<!-- Generator: Adobe Illustrator 27.5.0, SVG Export Plug-In . SVG Version: 6.00 Build 0)  -->
<svg version="1.1" id="Layer_1" xmlns="http://www.w3.org/2000/svg" xmlns:xlink="http://www.w3.org/1999/xlink" x="0px" y="0px"
	 viewBox="0 0 500 500" style="enable-background:new 0 0 500 500;" xml:space="preserve">
<style type="text/css">
	.st0{fill:#FFFFFF;}
	.st1{fill:none;stroke:#FFFFFF;stroke-width:12;stroke-linecap:round;stroke-linejoin:round;}
</style>
<g>
	<g>
		<path class="st0" d="M329.8,389.6H218.9c-2,0-3.9-1-5-2.7c-0.3-0.5-0.7-1-1.4-1.6c-1.9-1.9-4.4-2.9-7.1-2.9c-3.3,0-6-2.7-6-6
			s2.7-6,6-6H219c5.5,0,10-4.4,10-9.9c0-2.7-1-5.2-2.9-7.1s-4.4-2.9-7.1-2.9h-8.7c-3.3,0-6-2.7-6-6s2.7-6,6-6c5.5,0,10-4.5,10-10
			c0-2.7-1-5.2-2.9-7.1s-4.4-2.9-7.1-2.9h-57.1c-3.3,0-6-2.7-6-6V116.6c0-3.3,2.7-6,6-6h26.6V87.9c0-3.3,2.7-6,6-6s6,2.7,6,6v22.7
			H244V87.9c0-3.3,2.7-6,6-6s6,2.7,6,6v22.7h52.1V87.9c0-3.3,2.7-6,6-6s6,2.7,6,6v22.7h26.8c3.3,0,6,2.7,6,6v249.9
			C352.9,379.2,342.5,389.6,329.8,389.6z M232.8,377.6h97c6.1,0,11.1-5,11.1-11.1V122.6h-20.8v10.6c0,3.3-2.7,6-6,6s-6-2.7-6-6
			v-10.6H256v10.6c0,3.3-2.7,6-6,6s-6-2.7-6-6v-10.6h-52.1v10.6c0,3.3-2.7,6-6,6s-6-2.7-6-6v-10.6h-20.6v183.9h51.1
			c5.9,0,11.4,2.3,15.5,6.5c4.2,4.2,6.5,9.7,6.5,15.5c0,4.5-1.4,8.7-3.7,12.2c2.2,1.1,4.2,2.5,5.9,4.3c4.2,4.2,6.5,9.7,6.5,15.5
			C241.1,367.4,237.9,373.6,232.8,377.6z M309.5,284.4H277c-3.3,0-6-2.7-6-6s2.7-6,6-6h32.5c3.3,0,6,2.7,6,6
			S312.8,284.4,309.5,284.4z M251.7,284.4h-61.2c-3.3,0-6-2.7-6-6s2.7-6,6-6h61.2c3.3,0,6,2.7,6,6S255,284.4,251.7,284.4z
			 M309.5,244h-119c-3.3,0-6-2.7-6-6s2.7-6,6-6h119c3.3,0,6,2.7,6,6S312.8,244,309.5,244z M309.5,203.6h-119c-3.3,0-6-2.7-6-6
			s2.7-6,6-6h119c3.3,0,6,2.7,6,6C315.5,200.9,312.8,203.6,309.5,203.6z"/>
	</g>
	<g>
		<path class="st0" d="M205.5,414.2h-92.6c-5.9,0-11.4-2.3-15.5-6.5c-4.2-4.2-6.5-9.7-6.5-15.5c0-12.1,9.9-22,22-22h92.6
			c5.9,0,11.4,2.3,15.5,6.5c1.2,1.2,2.1,2.3,2.8,3.4c0.1,0.1,0.1,0.2,0.2,0.3c2.2,3.7,3.3,7.8,3.3,11.8
			C227.4,404.3,217.6,414.2,205.5,414.2z M112.9,382.2c-5.5,0-10,4.5-10,10c0,2.7,1,5.2,2.9,7.1s4.4,2.9,7.1,2.9h92.6
			c5.4,0,9.9-4.6,9.9-10c0-1.8-0.5-3.7-1.6-5.6c-0.3-0.4-0.7-0.9-1.2-1.4c-1.9-1.9-4.4-2.9-7.1-2.9h-92.6L112.9,382.2L112.9,382.2z"
			/>
	</g>
	<g>
		<path class="st0" d="M219,382.2h-92.6c-5.9,0-11.4-2.3-15.5-6.5c-4.2-4.2-6.5-9.7-6.5-15.5c0-12.1,9.8-21.9,21.9-21.9H219
			c5.9,0,11.4,2.3,15.5,6.5c4.2,4.2,6.5,9.7,6.5,15.5C241,372.4,231.1,382.2,219,382.2z M126.3,350.3c-5.5,0-9.9,4.4-9.9,9.9
			c0,2.7,1,5.2,2.9,7.1s4.4,2.9,7.1,2.9H219c5.5,0,10-4.4,10-9.9c0-2.7-1-5.2-2.9-7.1s-4.4-2.9-7.1-2.9H126.3z"/>
	</g>
	<g>
		<path class="st0" d="M210.3,350.4h-92.6c-5.9,0-11.4-2.3-15.5-6.5c-4.2-4.2-6.5-9.7-6.5-15.5c0-12.1,9.9-22,22-22h92.6
			c5.9,0,11.4,2.3,15.5,6.5c4.2,4.2,6.5,9.7,6.5,15.5C232.3,340.5,222.4,350.4,210.3,350.4z M117.7,318.4c-5.5,0-10,4.5-10,10
			c0,2.7,1,5.2,2.9,7.1s4.4,2.9,7.1,2.9h92.6c5.5,0,10-4.5,10-10c0-2.7-1-5.2-2.9-7.1s-4.4-2.9-7.1-2.9H117.7z"/>
	</g>
	<g>
		<path class="st1" d="M0,500"/>
	</g>
</g>
</svg>
