<?xml version="1.0" encoding="utf-8"?>
<!-- Generator: Adobe Illustrator 27.5.0, SVG Export Plug-In . SVG Version: 6.00 Build 0)  -->
<svg version="1.1" id="Layer_1" xmlns="http://www.w3.org/2000/svg" xmlns:xlink="http://www.w3.org/1999/xlink" x="0px" y="0px"
	 viewBox="0 0 500 500" style="enable-background:new 0 0 500 500;" xml:space="preserve">
<style type="text/css">
	.st0{clip-path:url(#SVGID_00000148658244438636374760000013305033553614044044_);}
	.st1{fill:#FFFFFF;}
	.st2{display:none;fill:none;stroke:#FFFFFF;stroke-width:22.96;stroke-linecap:round;stroke-linejoin:round;}
	.st3{fill:none;stroke:#FFFFFF;stroke-width:22.96;stroke-linecap:round;stroke-linejoin:round;}
</style>
<g>
	<g>
		<g>
			<g>
				<defs>
					<rect id="SVGID_1_" width="500" height="500"/>
				</defs>
				<clipPath id="SVGID_00000003106940713725088310000012215396176652368025_">
					<use xlink:href="#SVGID_1_"  style="overflow:visible;"/>
				</clipPath>
				<g style="clip-path:url(#SVGID_00000003106940713725088310000012215396176652368025_);">
					<g>
						<g>
							<path class="st1" d="M436.8,380.3H311.7c-3.3,0-6-2.7-6-6V125.7c0-3.3,2.7-6,6-6h125.1c3.3,0,6,2.7,6,6v248.6
								C442.8,377.6,440.1,380.3,436.8,380.3z M317.7,368.3h113.1V131.7H317.7V368.3z M404,318.3h-57c-3.3,0-6-2.7-6-6s2.7-6,6-6h57
								c3.3,0,6,2.7,6,6S407.3,318.3,404,318.3z M404,259.9h-57c-3.3,0-6-2.7-6-6s2.7-6,6-6h57c3.3,0,6,2.7,6,6
								C410,257.2,407.3,259.9,404,259.9z M247.6,224c-18.8,0-34.1-15.3-34.1-34.1s15.3-34.1,34.1-34.1s34.1,15.3,34.1,34.1
								S266.4,224,247.6,224z M247.6,167.8c-12.2,0-22.1,9.9-22.1,22.1s9.9,22.1,22.1,22.1s22.1-9.9,22.1-22.1
								S259.8,167.8,247.6,167.8z M404,201.5h-57c-3.3,0-6-2.7-6-6s2.7-6,6-6h57c3.3,0,6,2.7,6,6S407.3,201.5,404,201.5z"/>
						</g>
						<g>
							<path class="st1" d="M63.9,380.3L63.9,380.3h-0.7c-3.3,0-6-2.7-6-6V125.7c0-3.3,2.7-6,6-6h248.5c3.3,0,6,2.7,6,6v248.5
								c0,0.2,0,0.5,0,0.7c-0.1,0.9-0.4,1.7-0.8,2.4c-0.4,0.7-1,1.4-1.7,1.9c-0.6,0.4-1.2,0.7-1.9,0.9c-0.5,0.1-1.1,0.2-1.7,0.2
								h-98.4c-0.1,0-0.1,0-0.2,0L63.9,380.3C64,380.3,63.9,380.3,63.9,380.3z M223.5,368.3h77.8l-38.9-67.4L223.5,368.3z
								 M74.3,368.3h135.3l21.9-37.9l-67.7-117.2L74.3,368.3z M69.2,131.7v221.4l89.4-154.9c1.1-1.9,3.1-3,5.2-3
								c2.1,0,4.1,1.1,5.2,3l69.4,120.2l18.8-32.5c1.1-1.9,3.1-3,5.2-3s4.1,1.1,5.2,3l38.1,66V131.7H69.2z"/>
						</g>
						<g>
							<path class="st1" d="M382.6,207c-0.8,0-1.5-0.1-2.2-0.2c-0.7-0.1-1.5-0.4-2.1-0.7c-0.7-0.3-1.4-0.6-2-1.1
								c-0.6-0.4-1.2-0.9-1.8-1.4c-0.5-0.5-1-1.1-1.4-1.8c-0.4-0.6-0.8-1.3-1-2s-0.5-1.4-0.7-2.1c-0.2-0.7-0.2-1.5-0.2-2.2
								s0.1-1.5,0.2-2.2c0.2-0.7,0.4-1.5,0.7-2.1c0.3-0.7,0.6-1.4,1-2s0.9-1.2,1.4-1.8c0.5-0.5,1.1-1,1.8-1.4c0.6-0.4,1.3-0.8,2-1.1
								s1.4-0.5,2.1-0.6c1.5-0.3,3-0.3,4.5,0c0.7,0.1,1.5,0.4,2.2,0.6c0.7,0.3,1.4,0.6,2,1.1c0.6,0.4,1.2,0.9,1.8,1.4
								c2.1,2.1,3.4,5.1,3.4,8.1c0,0.8-0.1,1.5-0.2,2.2s-0.4,1.5-0.6,2.1s-0.6,1.4-1.1,2c-0.4,0.6-0.9,1.2-1.4,1.8
								c-0.5,0.5-1.1,1-1.8,1.4c-0.6,0.4-1.3,0.8-2,1.1s-1.4,0.5-2.2,0.7C384.1,206.9,383.3,207,382.6,207z"/>
						</g>
						<g>
							<path class="st1" d="M366.6,265.4c-0.8,0-1.5-0.1-2.2-0.2s-1.5-0.4-2.1-0.6c-0.7-0.3-1.4-0.6-2-1.1c-0.6-0.4-1.2-0.9-1.8-1.4
								c-2.1-2.1-3.4-5.1-3.4-8.1c0-0.8,0.1-1.5,0.2-2.2c0.2-0.7,0.4-1.5,0.7-2.2s0.6-1.4,1-2s0.9-1.2,1.4-1.8
								c0.5-0.5,1.1-1,1.8-1.4c0.6-0.4,1.3-0.8,2-1.1s1.4-0.5,2.1-0.6c1.5-0.3,3-0.3,4.5,0c0.7,0.1,1.5,0.4,2.2,0.6
								c0.7,0.3,1.4,0.6,2,1.1c0.6,0.4,1.2,0.9,1.8,1.4c0.5,0.5,1,1.1,1.4,1.8c0.4,0.6,0.8,1.3,1.1,2s0.5,1.4,0.6,2.2
								c0.2,0.7,0.2,1.5,0.2,2.2s-0.1,1.5-0.2,2.2s-0.4,1.5-0.6,2.2c-0.3,0.7-0.6,1.4-1.1,2c-0.4,0.6-0.9,1.2-1.4,1.8
								c-0.5,0.5-1.1,1-1.8,1.4c-0.6,0.4-1.3,0.8-2,1.1c-0.7,0.3-1.4,0.5-2.2,0.6C368.1,265.3,367.3,265.4,366.6,265.4z"/>
						</g>
						<g>
							<path class="st1" d="M382.6,323.8c-0.8,0-1.5-0.1-2.2-0.2s-1.5-0.4-2.1-0.7c-0.7-0.3-1.4-0.6-2-1.1c-0.6-0.4-1.2-0.9-1.8-1.4
								c-2.1-2.1-3.4-5.1-3.4-8.1c0-0.8,0.1-1.5,0.2-2.2s0.4-1.5,0.7-2.1c0.3-0.7,0.6-1.4,1-2s0.9-1.2,1.4-1.8
								c0.5-0.5,1.1-1,1.8-1.4c0.6-0.4,1.3-0.8,2-1.1c0.7-0.3,1.4-0.5,2.1-0.7c1.5-0.3,3-0.3,4.5,0c0.7,0.1,1.5,0.4,2.2,0.7
								c0.7,0.3,1.4,0.6,2,1.1c0.6,0.4,1.2,0.9,1.8,1.4s1,1.1,1.4,1.8c0.4,0.6,0.8,1.3,1.1,2c0.3,0.7,0.5,1.4,0.6,2.1
								c0.2,0.7,0.2,1.5,0.2,2.2s-0.1,1.5-0.2,2.2s-0.4,1.5-0.6,2.1c-0.3,0.7-0.6,1.4-1.1,2c-0.4,0.6-0.9,1.2-1.4,1.8
								s-1.1,1-1.8,1.4c-0.6,0.4-1.3,0.8-2,1.1c-0.7,0.3-1.4,0.5-2.2,0.7C384.1,323.7,383.3,323.8,382.6,323.8z"/>
						</g>
					</g>
					<g>
						<g>
							<path class="st2" d="M0,500"/>
						</g>
						<g>
							<path class="st3" d="M0,500"/>
						</g>
						<g>
							<path class="st3" d="M0,500"/>
						</g>
						<g>
							<path class="st3" d="M0,500"/>
						</g>
						<g>
							<path class="st3" d="M0,500"/>
						</g>
						<g>
							<path class="st3" d="M0,500"/>
						</g>
						<g>
							<path class="st3" d="M0,500"/>
						</g>
						<g>
							<path class="st3" d="M0,500"/>
						</g>
						<g>
							<path class="st3" d="M0,500"/>
						</g>
						<g>
							<path class="st3" d="M0,500"/>
						</g>
						<g>
							<path class="st3" d="M0,500"/>
						</g>
						<g>
							<path class="st3" d="M0,500"/>
						</g>
					</g>
				</g>
			</g>
		</g>
	</g>
</g>
</svg>
