<?xml version="1.0" encoding="utf-8"?>
<!-- Generator: Adobe Illustrator 27.5.0, SVG Export Plug-In . SVG Version: 6.00 Build 0)  -->
<svg version="1.1" id="Layer_1" xmlns="http://www.w3.org/2000/svg" xmlns:xlink="http://www.w3.org/1999/xlink" x="0px" y="0px"
	 viewBox="0 0 500 500" style="enable-background:new 0 0 500 500;" xml:space="preserve">
<style type="text/css">
	.st0{fill:#FFFFFF;}
	.st1{display:none;fill:none;stroke:#FFFFFF;stroke-width:12;stroke-linecap:round;stroke-linejoin:round;}
	.st2{fill:none;stroke:#FFFFFF;stroke-width:12;stroke-linecap:round;stroke-linejoin:round;}
</style>
<g>
	<g>
		<path class="st0" d="M373.5,267.6c-1.5,0-3.1-0.6-4.2-1.8c-2.3-2.3-2.3-6.1,0-8.5c2.4-2.4,3.8-5.7,3.8-9.2s-1.3-6.8-3.8-9.2
			c-2.3-2.3-2.3-6.1,0-8.5c2.3-2.3,6.1-2.3,8.5,0c4.7,4.7,7.3,11,7.3,17.7s-2.6,13-7.3,17.7C376.6,267,375,267.6,373.5,267.6z
			 M115.9,226.1c-2.9,0-5.4-2-5.9-5l-9-50.6c-0.3-1.7,0.2-3.5,1.3-4.9c1.1-1.4,2.8-2.1,4.6-2.1h10.9c13.9,0,26.5,8.7,31.5,21.7
			l11.8,30.8c1.2,3.1-0.4,6.6-3.5,7.7c-3.1,1.2-6.6-0.4-7.7-3.5l-11.8-30.8c-3.2-8.3-11.4-13.9-20.3-13.9h-3.7l7.7,43.5
			c0.6,3.3-1.6,6.4-4.9,7C116.6,226.1,116.2,226.1,115.9,226.1z"/>
	</g>
	<g>
		<path class="st0" d="M249.9,221.4c-3.3,0-6-2.7-6-6v-41.5h-8.3c-3.3,0-6-2.7-6-6s2.7-6,6-6h8.3v-8.3l-4.8-33.1h-8
			c-3.3,0-6-2.7-6-6s2.7-6,6-6h6.3l-6.7-46.4c-0.2-1.7,0.3-3.5,1.4-4.8c1.1-1.3,2.8-2.1,4.5-2.1h18.8c17,0,32.1,10.8,37.5,26.8
			l42.9,125.5c1.1,3.1-0.6,6.5-3.7,7.6s-6.5-0.6-7.6-3.7l-43-125.6c-3.8-11.2-14.3-18.6-26.1-18.6h-11.9l12.3,85.1
			c0,0.3,0.1,0.6,0.1,0.9v62.2C255.9,218.7,253.2,221.4,249.9,221.4z"/>
	</g>
	<g>
		<path class="st0" d="M361,292.5c-0.6,0-1.1,0-1.7,0l-243-9.5c-18.2-0.7-32.4-15.5-32.4-33.6c0-18,14.1-32.7,32.1-33.6l33-1.7l0,0
			l209.9-10.3c15.5-0.7,33.9,6.5,45.8,17.9c8.3,7.9,12.7,17,12.7,26.4c0,9.3-4.3,18.4-12.5,26.3C393.5,285.4,376,292.5,361,292.5z
			 M149.6,226.1l-33,1.7c-11.6,0.5-20.7,10-20.7,21.6c0,11.6,9.2,21.1,20.8,21.6l243,9.5c12.2,0.4,27.3-5.6,36.8-14.8
			c4-3.9,8.8-10.1,8.8-17.6c0-7.6-4.9-13.8-8.9-17.7c-9.6-9.1-24.8-15.1-37-14.6L149.6,226.1z"/>
	</g>
	<g>
		<path class="st0" d="M243.8,387.4h-12.7c-3.3,0-6-2.7-6-6s2.7-6,6-6h12.7c3.3,0,6,2.7,6,6S247.1,387.4,243.8,387.4z M117.8,334.6
			h-10.9c-1.8,0-3.5-0.8-4.6-2.1c-1.1-1.4-1.6-3.2-1.3-4.9l9-50.6c0.6-3.3,3.7-5.4,7-4.9c3.3,0.6,5.4,3.7,4.9,7l-7.7,43.5h3.7
			c8.9,0,17.1-5.6,20.3-13.9l11.8-30.8c1.2-3.1,4.7-4.6,7.7-3.5s4.6,4.7,3.5,7.7l-11.8,30.8C144.3,325.9,131.7,334.6,117.8,334.6z
			 M248.3,334h-12.7c-3.3,0-6-2.7-6-6s2.7-6,6-6h12.7c3.3,0,6,2.7,6,6S251.6,334,248.3,334z M169.9,254h-53.4
			c-1.6,0-3.1-0.6-4.2-1.8l-0.1-0.1c-2.3-2.3-2.3-6.1,0-8.5c1.5-1.5,3.5-2,5.3-1.7h52.4c3.3,0,6,2.7,6,6S173.2,254,169.9,254z"/>
	</g>
	<g>
		<path class="st1" d="M0,500"/>
		<path class="st2" d="M0,500"/>
	</g>
	<g>
		<path class="st0" d="M255.4,440.7h-18.8c-1.7,0-3.4-0.8-4.5-2.1s-1.7-3.1-1.4-4.8l13.2-91.6v-60c0-3.3,2.7-6,6-6s6,2.7,6,6v60.4
			c0,0.3,0,0.6-0.1,0.9l-12.3,85.1h11.9c11.9,0,22.3-7.5,26.1-18.6l42.9-125.5c1.1-3.1,4.5-4.8,7.6-3.7c3.1,1.1,4.8,4.5,3.7,7.6
			l-42.9,125.5C287.5,429.9,272.4,440.7,255.4,440.7z"/>
	</g>
	<g>
		<g>
			<path class="st1" d="M0,500"/>
		</g>
		<g>
			<path class="st2" d="M0,500"/>
		</g>
		<g>
			<path class="st2" d="M0,500"/>
		</g>
		<g>
			<path class="st2" d="M0,500"/>
		</g>
		<g>
			<path class="st2" d="M0,500"/>
		</g>
		<g>
			<path class="st2" d="M0,500"/>
		</g>
		<g>
			<path class="st2" d="M0,500"/>
		</g>
		<g>
			<path class="st2" d="M0,500"/>
		</g>
		<g>
			<path class="st2" d="M0,500"/>
		</g>
		<g>
			<path class="st2" d="M0,500"/>
		</g>
		<g>
			<path class="st2" d="M0,500"/>
		</g>
		<g>
			<path class="st2" d="M0,500"/>
		</g>
	</g>
</g>
</svg>
