<?xml version="1.0" encoding="iso-8859-1"?>
<!-- Generator: Adobe Illustrator 29.6.1, SVG Export Plug-In . SVG Version: 9.03 Build 0)  -->
<svg version="1.1" id="Layer_1" xmlns="http://www.w3.org/2000/svg" xmlns:xlink="http://www.w3.org/1999/xlink" x="0px" y="0px"
	 viewBox="0 0 500 500" style="enable-background:new 0 0 500 500;" xml:space="preserve">
<g>
	<g>
		<path style="fill:#FFFFFF;" d="M330.06,389.67h-53.369c-3.313,0-6-2.687-6-6s2.687-6,6-6h53.369c3.313,0,6,2.687,6,6
			S333.373,389.67,330.06,389.67z M250,389.67h-80.06c-3.313,0-6-2.687-6-6s2.687-6,6-6H250c3.313,0,6,2.687,6,6
			S253.314,389.67,250,389.67z M330.06,336.3H169.94c-3.313,0-6-2.687-6-6s2.687-6,6-6h160.12c3.313,0,6,2.687,6,6
			S333.373,336.3,330.06,336.3z M250,296.03c-1.307,0-2.613-0.426-3.7-1.276l-16.33-12.79c-8.177-6.509-13.994-15.649-16.415-25.768
			c-0.035-0.146-0.065-0.294-0.089-0.442l-5.2-32.28c-0.509-3.16,1.553-6.164,4.685-6.825c14.999-3.167,30.227-8.158,32.587-10.68
			c1.138-1.268,2.758-1.99,4.461-1.991c0.001,0,0.001,0,0.002,0c1.702,0,3.323,0.724,4.46,1.99
			c2.359,2.515,17.588,7.503,32.587,10.67c3.132,0.661,5.193,3.665,4.685,6.825l-5.199,32.28c-0.024,0.147-0.054,0.294-0.088,0.439
			c-2.418,10.125-8.235,19.27-16.38,25.752l-16.367,12.818C252.614,295.604,251.307,296.03,250,296.03z M225.277,253.613
			c1.831,7.441,6.133,14.158,12.13,18.933L250,282.409l12.631-9.893c5.964-4.746,10.266-11.466,12.093-18.911l4.263-26.467
			c-8.859-2.074-21.574-5.542-28.983-9.782c-7.41,4.246-20.128,7.717-28.99,9.791L225.277,253.613z"/>
	</g>
	<g>
		<path style="fill:#FFFFFF;" d="M383.43,442.57H116.57c-3.313,0-6-2.687-6-6V63.43c0-3.313,2.687-6,6-6h160.121
			c1.592,0,3.117,0.632,4.243,1.757l106.739,106.75c1.125,1.125,1.757,2.651,1.757,4.243v266.39
			C389.43,439.884,386.743,442.57,383.43,442.57z M122.57,430.57h254.86V172.665L274.205,69.43H122.57V430.57z"/>
	</g>
	<g>
		<path style="fill:#FFFFFF;" d="M383.43,176.18H276.691c-3.313,0-6-2.687-6-6V63.43c0-3.313,2.687-6,6-6s6,2.687,6,6v100.75H383.43
			c3.313,0,6,2.687,6,6S386.743,176.18,383.43,176.18z"/>
	</g>
</g>
</svg>
