<?xml version="1.0" encoding="utf-8"?>
<!-- Generator: Adobe Illustrator 27.5.0, SVG Export Plug-In . SVG Version: 6.00 Build 0)  -->
<svg version="1.1" id="Layer_1" xmlns="http://www.w3.org/2000/svg" xmlns:xlink="http://www.w3.org/1999/xlink" x="0px" y="0px"
	 viewBox="0 0 500 500" style="enable-background:new 0 0 500 500;" xml:space="preserve">
<style type="text/css">
	.st0{fill:#FFFFFF;}
	.st1{display:none;fill:none;stroke:#FFFFFF;stroke-width:12.04;stroke-linecap:round;stroke-linejoin:round;}
	.st2{fill:none;stroke:#FFFFFF;stroke-width:12.04;stroke-linecap:round;stroke-linejoin:round;}
</style>
<g>
	<g>
		<path class="st0" d="M214.3,381.4c-3.3,0-6-2.7-6-6s2.7-6,6-6l69.2-0.2c24.6,0,44.6-20,44.6-44.6l0.1-72.9l-113.9-0.1
			c-3.3,0-6-2.7-6-6s2.7-6,6-6l0,0l113.9,0.1l0.1-80c0-3.3,2.7-6,6-6l0,0c3.3,0,6,2.7,6,6l-0.2,164.9c0,31.2-25.4,56.6-56.6,56.6
			L214.3,381.4L214.3,381.4z"/>
	</g>
	<g>
		<path class="st0" d="M370.3,165.6h-72.8c-9.9,0-18-8.1-18-18V102c0-9.9,8.1-18,18-18h72.8c9.9,0,18,8.1,18,18v45.6
			C388.3,157.5,380.2,165.6,370.3,165.6z M297.5,96c-3.3,0-6,2.7-6,6v45.6c0,3.3,2.7,6,6,6h72.8c3.3,0,6-2.7,6-6V102
			c0-3.3-2.7-6-6-6H297.5z"/>
	</g>
	<g>
		<path class="st0" d="M202.3,286.6h-72.8c-9.9,0-18-8.1-18-18V223c0-9.9,8.1-18,18-18h72.8c9.9,0,18,8.1,18,18v45.6
			C220.3,278.5,212.2,286.6,202.3,286.6z M129.5,217c-3.3,0-6,2.7-6,6v45.6c0,3.3,2.7,6,6,6h72.8c3.3,0,6-2.7,6-6V223
			c0-3.3-2.7-6-6-6H129.5z"/>
	</g>
	<g>
		<path class="st0" d="M202.3,415.6h-72.8c-9.9,0-18-8.1-18-18V352c0-9.9,8.1-18,18-18h72.8c9.9,0,18,8.1,18,18v45.6
			C220.3,407.5,212.2,415.6,202.3,415.6z M129.5,346c-3.3,0-6,2.7-6,6v45.6c0,3.3,2.7,6,6,6h72.8c3.3,0,6-2.7,6-6V352
			c0-3.3-2.7-6-6-6H129.5z"/>
	</g>
	<g>
		<g>
			<path class="st1" d="M0,500"/>
		</g>
		<g>
			<path class="st2" d="M0,500"/>
		</g>
		<g>
			<path class="st2" d="M0,500"/>
		</g>
		<g>
			<path class="st2" d="M0,500"/>
		</g>
		<g>
			<path class="st2" d="M0,500"/>
		</g>
		<g>
			<path class="st2" d="M0,500"/>
		</g>
		<g>
			<path class="st2" d="M0,500"/>
		</g>
		<g>
			<path class="st2" d="M0,500"/>
		</g>
		<g>
			<path class="st2" d="M0,500"/>
		</g>
		<g>
			<path class="st2" d="M0,500"/>
		</g>
		<g>
			<path class="st2" d="M0,500"/>
		</g>
		<g>
			<path class="st2" d="M0,500"/>
		</g>
	</g>
</g>
</svg>
