<?xml version="1.0" encoding="iso-8859-1"?>
<!-- Generator: Adobe Illustrator 29.6.1, SVG Export Plug-In . SVG Version: 9.03 Build 0)  -->
<svg version="1.1" id="Layer_1" xmlns="http://www.w3.org/2000/svg" xmlns:xlink="http://www.w3.org/1999/xlink" x="0px" y="0px"
	 viewBox="0 0 500 500" style="enable-background:new 0 0 500 500;" xml:space="preserve">
<g>
	<g>
		<path style="fill:#FFFFFF;" d="M317.953,257.27h-12v-40.088c0-5.91-2.422-11.672-6.646-15.809l-30.451-29.816
			c-1.152-1.129-1.802-2.674-1.802-4.287s0.649-3.158,1.802-4.287l30.451-29.817c4.224-4.136,6.646-9.898,6.646-15.808V77.27h12
			v40.088c0,9.116-3.735,18.002-10.249,24.382l-26.073,25.53l26.073,25.53c6.514,6.38,10.249,15.267,10.249,24.382V257.27z
			 M194.203,257.27h-12v-40.088c0-9.117,3.737-18.004,10.25-24.382l26.072-25.53l-26.072-25.53
			c-6.514-6.378-10.25-15.265-10.25-24.382V77.27h12v40.088c0,5.911,2.423,11.673,6.646,15.808l30.45,29.817
			c1.153,1.129,1.802,2.674,1.802,4.287s-0.649,3.158-1.802,4.287l-30.45,29.817c-4.223,4.135-6.646,9.897-6.646,15.809V257.27z"/>
	</g>
	<g>
		<path style="fill:#FFFFFF;" d="M283.828,240.77h-67.5c-3.313,0-6-2.687-6-6v-12.547c0-8.111,3.574-15.741,9.805-20.935
			l15.901-13.251c2.421-2.017,5.167-3.434,8.044-4.25v-29.706c0-0.336,0.028-0.666,0.081-0.987l-23.889-22.081
			c-6.698-6.19-8.872-15.676-5.539-24.166l0,0c2.604-6.634,8.054-11.461,14.954-13.246c6.9-1.784,14.007-0.203,19.5,4.337
			l0.894,0.739l0.893-0.738c5.494-4.541,12.604-6.121,19.501-4.336c6.899,1.784,12.349,6.612,14.952,13.245
			c3.334,8.488,1.161,17.974-5.538,24.165l-23.89,22.081c0.054,0.321,0.081,0.651,0.081,0.987v29.706
			c2.877,0.817,5.623,2.233,8.044,4.25l15.9,13.251c6.231,5.192,9.806,12.823,9.806,20.935v12.547
			C289.828,238.083,287.141,240.77,283.828,240.77z M222.328,228.77h55.5v-6.547c0-4.54-2-8.81-5.487-11.716l-15.9-13.251
			c-3.686-3.07-9.038-3.072-12.725,0l-15.9,13.25c-3.487,2.906-5.487,7.176-5.487,11.716v6.548H222.328z M235.224,104.895
			c-0.841,0-1.692,0.107-2.536,0.326c-3.131,0.81-5.605,3.001-6.788,6.012c0,0,0,0,0,0.001c-1.513,3.853-0.526,8.158,2.514,10.967
			l21.664,20.024l21.664-20.024c3.04-2.81,4.026-7.114,2.513-10.967c-1.182-3.012-3.655-5.203-6.787-6.013s-6.358-0.091-8.852,1.968
			l-4.716,3.897c-2.219,1.834-5.426,1.834-7.645,0l-4.716-3.898C239.718,105.684,237.505,104.895,235.224,104.895z M220.315,109.04
			h0.01H220.315z"/>
	</g>
	<g>
		<path style="fill:#FFFFFF;" d="M383.083,428.73h-68.25c-5.854,0-10.922-3.974-12.325-9.662l-9.062-37.011
			c-0.932-3.808-0.078-7.76,2.343-10.845c1.966-2.505,4.734-4.143,7.805-4.669V317.54c0-1.519,0.575-2.979,1.61-4.091l48.28-51.81
			c8.555-9.177,21.17-12.869,32.922-9.635c1.233,0.34,2.4,0.743,3.498,1.207l-0.141-66.059c-0.013-6.311,2.435-12.245,6.891-16.709
			s10.383-6.923,16.689-6.923c13.002,0,23.58,10.578,23.58,23.58v89.99c0,8.02-2.929,15.743-8.248,21.748l-46.952,52.978v14.544
			h1.36c6.991,0,12.68,5.688,12.68,12.68v37.011C395.762,423.042,390.074,428.73,383.083,428.73z M305.762,378.36
			c-0.082,0-0.33,0-0.535,0.262c-0.205,0.261-0.146,0.503-0.126,0.583l9.06,36.999c0.075,0.306,0.353,0.526,0.672,0.526h68.25
			c0.375,0,0.68-0.305,0.68-0.68v-37.01c0-0.375-0.305-0.68-0.68-0.68H305.762L305.762,378.36z M315.592,366.36h54.13v-16.82
			c0-1.467,0.537-2.882,1.51-3.979l48.461-54.68c3.372-3.807,5.229-8.705,5.229-13.79V187.1c0-6.385-5.194-11.58-11.58-11.58
			c-3.097,0-6.008,1.208-8.195,3.4c-2.189,2.193-3.391,5.108-3.385,8.208l0.175,82.458c0.064,0.99,0.063,2.011-0.003,3.06
			c-0.004,0.066-0.009,0.132-0.015,0.198c-0.05,0.562-0.177,1.101-0.37,1.606c-0.067,0.178-0.144,0.353-0.229,0.523
			c-0.002,0.002-0.003,0.003-0.003,0.007c-0.002,0.002-0.002,0.004-0.003,0.006c-0.001,0-0.001,0.001-0.001,0.001
			c-0.244,0.49-0.554,0.94-0.916,1.341c-0.046,0.052-0.091,0.103-0.137,0.154l-35.816,40.246c-2.203,2.474-5.996,2.695-8.471,0.493
			c-2.476-2.203-2.697-5.995-0.494-8.471c0,0,0,0,0-0.001l0.094-0.104c1.312-1.474,16.157-18.16,34.364-38.614v-0.167
			c-0.294-2.81-1.892-4.96-6.719-6.291c-7.431-2.043-15.46,0.349-20.958,6.247l-46.669,50.081v46.459L315.592,366.36L315.592,366.36
			z M185.158,428.73h-68.25c-6.992,0-12.68-5.688-12.68-12.68v-37.01c0-6.991,5.688-12.68,12.68-12.68h1.37v-14.544l-46.95-52.977
			c-5.32-6.005-8.25-13.729-8.25-21.749V187.1c0-13.002,10.578-23.58,23.58-23.58c6.307,0,12.234,2.459,16.69,6.924
			s6.903,10.399,6.89,16.708l-0.14,66.059c1.097-0.463,2.263-0.866,3.495-1.206c11.757-3.232,24.371,0.456,32.923,9.634
			l48.281,51.81c1.035,1.111,1.61,2.572,1.61,4.091v49.006c3.066,0.528,5.831,2.164,7.795,4.667
			c2.42,3.084,3.274,7.036,2.343,10.844l-9.061,37.001C196.079,424.756,191.011,428.73,185.158,428.73z M116.908,378.36
			c-0.375,0-0.68,0.305-0.68,0.68v37.011c0,0.375,0.305,0.68,0.68,0.68h68.25c0.319,0,0.597-0.221,0.675-0.537l9.058-36.989
			c0.019-0.078,0.078-0.321-0.127-0.582c-0.205-0.262-0.454-0.262-0.536-0.262L116.908,378.36L116.908,378.36z M130.278,366.36
			h54.13v-46.458l-46.67-50.081c-5.496-5.898-13.528-8.292-20.958-6.246c-4.827,1.33-6.424,3.48-6.717,6.29v0.167
			c19.073,21.428,34.458,38.72,34.458,38.72c2.203,2.476,1.981,6.268-0.494,8.471c-2.474,2.203-6.268,1.981-8.47-0.493v-0.001
			c0,0-0.022-0.024-0.064-0.072l-35.916-40.356c-0.007-0.008-0.014-0.016-0.02-0.023l0,0c-0.003-0.004-0.006-0.007-0.009-0.011
			l-0.001-0.001c-0.003-0.004-0.006-0.007-0.009-0.011c0,0-0.001-0.001-0.001-0.002c-0.003-0.003-0.006-0.007-0.009-0.01
			c0-0.001,0-0.001-0.001-0.002c-0.003-0.003-0.006-0.007-0.01-0.011c0,0,0,0,0-0.001c-0.855-0.991-1.361-2.233-1.444-3.535
			c-0.07-1.065-0.072-2.102-0.006-3.106l0.174-82.459c0.006-3.099-1.195-6.014-3.384-8.207s-5.099-3.4-8.196-3.4
			c-6.385,0-11.58,5.195-11.58,11.58v89.99c0,5.086,1.858,9.983,5.231,13.791l48.459,54.679c0.973,1.098,1.51,2.513,1.51,3.979
			v16.819L130.278,366.36L130.278,366.36z M328.828,263.27h-157.5c-3.313,0-6-2.687-6-6s2.687-6,6-6h157.5c3.313,0,6,2.687,6,6
			C334.828,260.583,332.141,263.27,328.828,263.27z M328.828,83.27h-157.5c-3.313,0-6-2.687-6-6c0-3.314,2.687-6,6-6h157.5
			c3.313,0,6,2.686,6,6C334.828,80.583,332.141,83.27,328.828,83.27z"/>
	</g>
</g>
</svg>
