<?xml version="1.0" encoding="utf-8"?>
<!-- Generator: Adobe Illustrator 27.5.0, SVG Export Plug-In . SVG Version: 6.00 Build 0)  -->
<svg version="1.1" id="Layer_1" xmlns="http://www.w3.org/2000/svg" xmlns:xlink="http://www.w3.org/1999/xlink" x="0px" y="0px"
	 viewBox="0 0 500 500" style="enable-background:new 0 0 500 500;" xml:space="preserve">
<style type="text/css">
	.st0{clip-path:url(#SVGID_00000024693929297417993660000011910879720747141778_);}
	.st1{fill:#FFFFFF;}
	.st2{fill:none;stroke:#FFFFFF;stroke-width:12;stroke-linecap:round;stroke-linejoin:round;}
</style>
<g>
	<g>
		<g>
			<g>
				<defs>
					<rect id="SVGID_1_" width="500" height="500"/>
				</defs>
				<clipPath id="SVGID_00000036220976565930949070000007937170813225639072_">
					<use xlink:href="#SVGID_1_"  style="overflow:visible;"/>
				</clipPath>
				<g style="clip-path:url(#SVGID_00000036220976565930949070000007937170813225639072_);">
					<g>
						<g>
							<path class="st1" d="M383.4,389.5H169.9c-3.3,0-6-2.7-6-6V63.2c0-3.3,2.7-6,6-6H290c3.3,0,6,2.7,6,6s-2.7,6-6,6H175.9v308.3
								h201.5v-220c0-3.3,2.7-6,6-6s6,2.7,6,6v226C389.4,386.8,386.7,389.5,383.4,389.5z"/>
						</g>
						<g>
							<path class="st1" d="M383.4,442.8c-3.3,0-6-2.7-6-6v-7.3H175.9v7.3c0,3.3-2.7,6-6,6s-6-2.7-6-6v-26.7c0-3.3,2.7-6,6-6
								s6,2.7,6,6v7.4h201.5v-7.4c0-3.3,2.7-6,6-6s6,2.7,6,6v26.7C389.4,440.1,386.7,442.8,383.4,442.8z M143.3,389.4h-26.7
								c-3.3,0-6-2.7-6-6s2.7-6,6-6h7.3V69.2h-7.3c-3.3,0-6-2.7-6-6c0-3.3,2.7-6,6-6h26.7c3.3,0,6,2.7,6,6c0,3.3-2.7,6-6,6h-7.4
								v308.2h7.4c3.3,0,6,2.7,6,6S146.6,389.4,143.3,389.4z M383.4,162.6H290c-3.3,0-6-2.7-6-6V63.2c0-2.4,1.5-4.6,3.7-5.5
								s4.8-0.4,6.5,1.3l93.4,93.4c1.7,1.7,2.2,4.3,1.3,6.5C388,161.1,385.8,162.6,383.4,162.6z M296,150.6h72.9L296,77.7V150.6z"/>
						</g>
					</g>
					<g>
						<path class="st2" d="M0,500"/>
					</g>
				</g>
			</g>
		</g>
	</g>
</g>
</svg>
