<?xml version="1.0" encoding="utf-8"?>
<!-- Generator: Adobe Illustrator 27.5.0, SVG Export Plug-In . SVG Version: 6.00 Build 0)  -->
<svg version="1.1" id="Layer_1" xmlns="http://www.w3.org/2000/svg" xmlns:xlink="http://www.w3.org/1999/xlink" x="0px" y="0px"
	 viewBox="0 0 500 500" style="enable-background:new 0 0 500 500;" xml:space="preserve">
<style type="text/css">
	.st0{fill:#FFFFFF;}
	.st1{display:none;fill:none;stroke:#FFFFFF;stroke-width:12;stroke-linecap:round;stroke-linejoin:round;}
	.st2{fill:none;stroke:#FFFFFF;stroke-width:12;stroke-linecap:round;stroke-linejoin:round;}
</style>
<g>
	<g>
		<path class="st0" d="M248.1,414.9c-3.3,0-6-2.7-6-6v-50.3c-2.5,0.3-4.7,0.5-6.6,0.5c-17,0-30.9-13.9-30.9-30.9
			s13.9-30.9,30.9-30.9c1.9,0,4.1,0.2,6.6,0.5v-49.5c0-3.3,2.7-6,6-6s6,2.7,6,6v56.5c0,1.8-0.8,3.5-2.2,4.6s-3.2,1.6-5,1.3
			c-4.4-0.9-8.7-1.4-11.4-1.4c-10.4,0-18.9,8.5-18.9,18.9s8.5,18.9,18.9,18.9c2.7,0,6.9-0.5,11.5-1.4c1.8-0.3,3.6,0.1,5,1.3
			c1.4,1.1,2.2,2.8,2.2,4.6v51.2c81.9-3.2,148.4-70.7,149.3-153.4c0-3.3,2.7-5.9,6-5.9c0,0,0,0,0.1,0c3.3,0,6,2.8,5.9,6.1
			c-0.5,44.3-18.1,85.9-49.7,117S292.4,414.9,248.1,414.9z"/>
	</g>
	<g>
		<path class="st0" d="M247.5,415L247.5,415c-44.7,0-86.7-17.5-118.3-49.1s-48.9-73.6-48.9-118.2c0-3.3,2.7-6,6-6l50.2-0.1
			c-0.3-2.5-0.5-4.7-0.5-6.6c0-17,13.9-30.9,30.9-30.9s30.9,13.9,30.9,30.9c0,1.9-0.2,4.1-0.5,6.6h50.2c3.3,0,6,2.7,6,6v57.3
			c0,1.8-0.8,3.5-2.2,4.6s-3.2,1.6-5,1.3c-4.6-0.9-8.8-1.4-11.5-1.4c-10.4,0-18.9,8.5-18.9,18.9s8.5,18.9,18.9,18.9
			c2.7,0,7-0.5,11.4-1.4c1.8-0.3,3.6,0.1,5,1.3c1.4,1.1,2.2,2.8,2.2,4.6V409c0,1.6-0.6,3.1-1.8,4.2C250.6,414.4,249.1,415,247.5,415
			z M92.4,253.7c3.1,80.8,68.3,146,149.1,149.2v-44.1c-2.5,0.3-4.7,0.5-6.6,0.5c-17,0-30.9-13.9-30.9-30.9s13.9-30.9,30.9-30.9
			c1.9,0,4.1,0.2,6.6,0.5v-44.3h-51.2c-1.8,0-3.5-0.8-4.6-2.2s-1.6-3.2-1.3-5c0.9-4.4,1.4-8.7,1.4-11.4c0-10.4-8.5-18.9-18.9-18.9
			S148,224.6,148,235c0,2.7,0.5,6.9,1.4,11.5c0.3,1.8-0.1,3.6-1.3,4.9c-1.1,1.4-2.8,2.2-4.6,2.2L92.4,253.7z"/>
	</g>
	<g>
		<path class="st0" d="M247.8,253.6h-57.3c-1.8,0-3.5-0.8-4.6-2.2s-1.6-3.2-1.3-5c0.9-4.6,1.4-8.8,1.4-11.5
			c0-10.4-8.5-18.9-18.9-18.9s-18.9,8.5-18.9,18.9c0,2.7,0.5,7,1.4,11.4c0.3,1.8-0.1,3.6-1.3,5c-1.1,1.4-2.8,2.2-4.6,2.2H86.5
			c-1.6,0-3.1-0.6-4.2-1.8c-1.1-1.1-1.8-2.7-1.8-4.2c0.1-43.8,16.9-85.2,47.4-116.6c30.5-31.3,71.3-49.3,114.9-50.5
			c3.3-0.1,6.1,2.5,6.2,5.8c0.1,3.3-2.5,6.1-5.8,6.2c-82.4,2.4-147.4,67.4-150.6,149.1h44c-0.3-2.5-0.5-4.7-0.5-6.6
			c0-17,13.9-30.9,30.9-30.9s31,14,31,31c0,1.9-0.2,4.1-0.5,6.6h45.6c1.1-1.3,2.8-2.2,4.6-2.2c3.3,0,6,2.7,6,6v2.2
			C253.8,250.9,251.1,253.6,247.8,253.6z"/>
	</g>
	<g>
		<path class="st0" d="M329,291.3c-17,0-30.9-13.9-30.9-30.9c0-1.9,0.2-4.1,0.5-6.6h-50.2c-3.3,0-6-2.7-6-6v-57.3
			c0-1.8,0.8-3.5,2.2-4.6s3.2-1.6,5-1.3c4.6,0.9,8.8,1.4,11.5,1.4c10.4,0,18.9-8.5,18.9-18.9s-8.5-18.9-18.9-18.9
			c-2.7,0-7,0.5-11.4,1.4c-1.8,0.3-3.6-0.1-5-1.3c-1.4-1.1-2.2-2.8-2.2-4.6V86.5c0-1.6,0.6-3.1,1.8-4.2c1.1-1.1,2.7-1.8,4.2-1.8l0,0
			c44.7,0.1,86.7,17.5,118.3,49.1s48.9,73.6,48.9,118.2c0,3.3-2.7,6-6,6h-50.2c0.3,2.5,0.5,4.7,0.5,6.6
			C359.9,277.4,346,291.3,329,291.3z M254.4,241.8h51.2c1.8,0,3.5,0.8,4.6,2.2s1.6,3.2,1.3,5c-0.9,4.4-1.4,8.7-1.4,11.4
			c0,10.4,8.5,18.9,18.9,18.9s18.9-8.5,18.9-18.9c0-2.7-0.5-6.9-1.4-11.5c-0.3-1.8,0.1-3.6,1.3-5s2.8-2.2,4.6-2.2h51.1
			c-3.1-80.8-68.3-146-149.1-149.2v44c2.5-0.3,4.7-0.5,6.6-0.5c17,0,30.9,13.9,30.9,30.9S278,198,261,198c-1.9,0-4.1-0.2-6.6-0.5
			V241.8z"/>
	</g>
	<g>
		<g>
			<path class="st1" d="M0,500"/>
		</g>
		<g>
			<path class="st2" d="M0,500"/>
		</g>
		<g>
			<path class="st2" d="M0,500"/>
		</g>
		<g>
			<path class="st2" d="M0,500"/>
		</g>
		<g>
			<path class="st2" d="M0,500"/>
		</g>
		<g>
			<path class="st2" d="M0,500"/>
		</g>
		<g>
			<path class="st2" d="M0,500"/>
		</g>
		<g>
			<path class="st2" d="M0,500"/>
		</g>
		<g>
			<path class="st2" d="M0,500"/>
		</g>
		<g>
			<path class="st2" d="M0,500"/>
		</g>
		<g>
			<path class="st2" d="M0,500"/>
		</g>
		<g>
			<path class="st2" d="M0,500"/>
		</g>
	</g>
</g>
</svg>
