<?xml version="1.0" encoding="iso-8859-1"?>
<!-- Generator: Adobe Illustrator 29.6.1, SVG Export Plug-In . SVG Version: 9.03 Build 0)  -->
<svg version="1.1" id="Layer_1" xmlns="http://www.w3.org/2000/svg" xmlns:xlink="http://www.w3.org/1999/xlink" x="0px" y="0px"
	 viewBox="0 0 500 500" style="enable-background:new 0 0 500 500;" xml:space="preserve">
<g>
	<path style="fill:#FFFFFF;" d="M319.199,429.45h-226.8c-3.313,0-6-2.687-6-6v-320.2c0-3.313,2.687-6,6-6h56.7c3.313,0,6,2.687,6,6
		v25.3h101.4v-25.3c0-3.313,2.687-6,6-6h56.7c3.313,0,6,2.687,6,6v320.2C325.199,426.764,322.512,429.45,319.199,429.45z
		 M98.399,417.45h214.8v-308.2h-44.7v25.3c0,3.313-2.687,6-6,6H149.1c-3.313,0-6-2.687-6-6v-25.3h-44.7V417.45z"/>
</g>
<g>
	<path style="fill:#FFFFFF;" d="M205.794,378.45c-3.166,0-5.813-2.478-5.986-5.677c-0.13-2.416,0.925-7.678,9.461-15.776
		c1.45-1.335,2.93-4.163,2.93-6.348c0-3.528-2.871-6.399-6.4-6.399c-3.589,0-6.4,2.811-6.4,6.399c0,3.313-2.687,6-6,6s-6-2.687-6-6
		c0-10.146,8.254-18.399,18.4-18.399s18.4,8.254,18.4,18.399c0,6.16-3.384,12.031-6.738,15.116c-4.468,4.24-5.501,6.68-5.684,7.199
		c-0.249,2.936-2.629,5.313-5.655,5.477C206.012,378.447,205.902,378.45,205.794,378.45z M211.792,372.133c0,0.001,0,0.002,0,0.002
		C211.792,372.134,211.792,372.134,211.792,372.133z M211.79,372.127c0,0.001,0,0.003,0,0.004
		C211.79,372.13,211.79,372.128,211.79,372.127z"/>
</g>
<g>
	<path style="fill:#FFFFFF;" d="M205.799,308.85h-75c-3.313,0-6-2.687-6-6s2.687-6,6-6h75c3.313,0,6,2.687,6,6
		S209.113,308.85,205.799,308.85z M280.899,275.75h-150.1c-3.313,0-6-2.687-6-6s2.687-6,6-6h150.1c3.313,0,6,2.687,6,6
		S284.212,275.75,280.899,275.75z M205.799,231.15h-75c-3.313,0-6-2.687-6-6c0-3.313,2.687-6,6-6h75c3.313,0,6,2.687,6,6
		C211.799,228.463,209.113,231.15,205.799,231.15z M280.899,198.05h-150.1c-3.313,0-6-2.687-6-6c0-3.313,2.687-6,6-6h150.1
		c3.313,0,6,2.687,6,6C286.9,195.363,284.212,198.05,280.899,198.05z"/>
</g>
<g>
	<path style="fill:#FFFFFF;" d="M407.599,391.149h-42.1c-3.313,0-6-2.687-6-6s2.687-6,6-6h42.1c3.313,0,6,2.687,6,6
		S410.913,391.149,407.599,391.149z"/>
</g>
<g>
	<path style="fill:#FFFFFF;" d="M407.599,391.149c-3.313,0-6-2.687-6-6v-216.3h-30.1v216.3c0,3.313-2.687,6-6,6s-6-2.687-6-6
		V162.866c0-0.056,0-0.111,0.002-0.167c0.017-0.694,0.152-1.36,0.386-1.976l20.953-59.467c0.846-2.398,3.111-4.004,5.654-4.006
		c0.002,0,0.004,0,0.005,0c2.542,0,4.808,1.601,5.656,3.998l21.054,59.469c0.231,0.607,0.366,1.261,0.388,1.944
		c0.002,0.07,0.003,0.14,0.003,0.21v222.278C413.599,388.463,410.913,391.149,407.599,391.149z M373.974,156.85h25.136
		l-12.598-35.583L373.974,156.85z"/>
</g>
<g>
	<path style="fill:#FFFFFF;" d="M407.599,429.45h-42.1c-3.313,0-6-2.687-6-6v-38.301c0-3.313,2.687-6,6-6h42.1c3.313,0,6,2.687,6,6
		v38.301C413.599,426.764,410.913,429.45,407.599,429.45z M371.499,417.45h30.1v-26.301h-30.1V417.45z"/>
</g>
<g>
	<path style="fill:#FFFFFF;" d="M262.499,109.25c-3.313,0-6-2.687-6-6H155.1c0,3.313-2.687,6-6,6s-6-2.687-6-6v-6
		c0-3.313,2.687-6,6-6h25.6v-14.7c0-3.313,2.687-6,6-6h50.3c3.313,0,6,2.687,6,6v14.7h25.5c3.313,0,6,2.687,6,6v6
		C268.499,106.563,265.812,109.25,262.499,109.25z M186.699,91.25h38.3v-8.7h-38.3V91.25z"/>
</g>
<g>
	<path style="fill:#FFFFFF;" d="M205.799,397.85h-0.1c-3.313,0-6-2.687-6-6s2.687-6,6-6h0.1c3.313,0,6,2.687,6,6
		S209.113,397.85,205.799,397.85z"/>
</g>
</svg>
