<?xml version="1.0" encoding="iso-8859-1"?>
<!-- Generator: Adobe Illustrator 29.6.1, SVG Export Plug-In . SVG Version: 9.03 Build 0)  -->
<svg version="1.1" id="Layer_1" xmlns="http://www.w3.org/2000/svg" xmlns:xlink="http://www.w3.org/1999/xlink" x="0px" y="0px"
	 viewBox="0 0 500 500" style="enable-background:new 0 0 500 500;" xml:space="preserve">
<g>
	<g>
		<path style="fill:#FFFFFF;" d="M249.888,415.998c-80.307,0-149.462-58.139-163.354-137.121l-18.178,24.575
			c-1.97,2.663-5.728,3.224-8.392,1.256c-2.664-1.971-3.227-5.729-1.256-8.393l26.953-36.438c0.146-0.206,0.303-0.403,0.473-0.589
			c0.926-1.021,2.18-1.695,3.554-1.9c1.573-0.239,3.176,0.164,4.456,1.11l36.561,27.045c2.664,1.971,3.226,5.728,1.255,8.392
			c-1.97,2.663-5.727,3.226-8.392,1.255L98.301,276.5c13.504,77.628,84.546,133.642,164.531,126.956
			c70.067-5.859,127.226-58.295,138.998-127.514c0.556-3.267,3.647-5.463,6.921-4.909c3.267,0.556,5.465,3.654,4.909,6.921
			c-12.691,74.618-74.303,131.145-149.828,137.461C259.157,415.805,254.499,415.998,249.888,415.998z M409.419,242.659
			c-1.239,0-2.49-0.383-3.563-1.177l-36.562-27.045c-2.664-1.971-3.226-5.728-1.256-8.392c1.972-2.664,5.728-3.227,8.393-1.255
			l25.267,18.69C388.186,145.856,317.143,89.854,237.17,96.545c-70.061,5.86-127.215,58.296-138.988,127.515
			c-0.555,3.267-3.655,5.468-6.921,4.909c-3.267-0.556-5.465-3.654-4.909-6.921c12.69-74.618,74.297-131.144,149.816-137.46
			c86.106-7.21,162.599,53.01,177.297,136.522l18.18-24.57c1.971-2.664,5.727-3.227,8.392-1.254
			c2.664,1.971,3.226,5.728,1.255,8.392l-26.855,36.295c-0.979,1.476-2.6,2.506-4.502,2.665
			C409.761,242.653,409.593,242.661,409.419,242.659z"/>
	</g>
	<g>
		<path style="fill:#FFFFFF;" d="M249.652,336.001c-3.313,0-6-2.687-6-6v-16.534l-32.818-0.287
			c-3.313-0.029-5.976-2.739-5.947-6.053c0.029-3.296,2.71-5.947,5.999-5.947c0.018,0,0.036,0,0.054,0l38.274,0.336
			c0.324-0.024,0.659-0.021,0.982,0.009l10.828,0.095c12.187-0.095,22.202-10.168,22.228-22.454
			c0.006-2.987-0.567-5.902-1.706-8.663c-2.306-5.586-6.651-9.939-12.236-12.259c-2.757-1.144-5.67-1.724-8.657-1.724H238.73
			c-0.006,0-0.013,0-0.018,0c-9.252,0-17.953-3.602-24.501-10.143c-6.552-6.548-10.16-15.255-10.16-24.518
			c0.011-19.112,15.567-34.659,34.676-34.659c0.002,0,0.002,0,0.004,0h4.922v-17.199c0-3.313,2.687-6,6-6c3.314,0,6,2.687,6,6V187.2
			h27.501c3.313,0,6,2.687,6,6s-2.687,6-6,6H238.73c-0.001,0-0.002,0-0.003,0c-12.497,0-22.669,10.166-22.676,22.662
			c0,6.052,2.359,11.745,6.642,16.025c4.28,4.276,9.971,6.631,16.022,6.631c0.004,0,0.008,0,0.012,0h21.926
			c4.573,0,9.034,0.889,13.258,2.641c8.548,3.549,15.199,10.213,18.729,18.766c1.744,4.229,2.623,8.69,2.613,13.265
			c-0.039,18.838-15.396,34.282-34.233,34.429l-5.366-0.047v16.429C255.653,333.314,252.966,336.001,249.652,336.001z"/>
	</g>
</g>
</svg>
