<?xml version="1.0" encoding="utf-8"?>
<!-- Generator: Adobe Illustrator 27.5.0, SVG Export Plug-In . SVG Version: 6.00 Build 0)  -->
<svg version="1.1" id="Layer_1" xmlns="http://www.w3.org/2000/svg" xmlns:xlink="http://www.w3.org/1999/xlink" x="0px" y="0px"
	 viewBox="0 0 500 500" style="enable-background:new 0 0 500 500;" xml:space="preserve">
<style type="text/css">
	.st0{clip-path:url(#SVGID_00000111182011865321523320000001808446694118731655_);}
	.st1{opacity:0;clip-path:url(#SVGID_00000070079530881716918440000010537301576816802461_);}
	.st2{fill:#FFFFFF;}
	.st3{clip-path:url(#SVGID_00000018948529385038742790000005538455732035423136_);}
	.st4{fill:none;stroke:#FFFFFF;stroke-width:12;stroke-linecap:round;stroke-linejoin:round;}
</style>
<g>
	<g>
		<g>
			<g>
				<defs>
					<rect id="SVGID_1_" width="500" height="500"/>
				</defs>
				<clipPath id="SVGID_00000106847889117031020620000006656501879644357302_">
					<use xlink:href="#SVGID_1_"  style="overflow:visible;"/>
				</clipPath>
				<g style="clip-path:url(#SVGID_00000106847889117031020620000006656501879644357302_);">
					<g>
						<g>
							<g>
								<g>
									<defs>
										<rect id="SVGID_00000125568182736199861710000013364719127355241369_" width="500" height="500"/>
									</defs>
									<clipPath id="SVGID_00000152983444772627301450000014734062604801139595_">
										<use xlink:href="#SVGID_00000125568182736199861710000013364719127355241369_"  style="overflow:visible;"/>
									</clipPath>
									<g style="opacity:0;clip-path:url(#SVGID_00000152983444772627301450000014734062604801139595_);">
										<g>
											<path class="st2" d="M249.5,233.2c-3.3,0-6-2.7-6-6v-11.4c-8.3-1.8-16-6.5-21.5-13.4c-2.1-2.6-1.6-6.4,0.9-8.4
												c2.6-2.1,6.4-1.6,8.4,0.9c5.5,6.9,14.4,10.6,22.8,9.5c3.5-0.5,6.6-1.7,8.8-3.5c2.1-1.7,3.4-4.2,3.5-6.6
												c0.2-7.1-5.2-9.3-17.5-12.7c-11.2-3.1-26.6-7.4-24.8-24.7c0.8-8.5,7.3-16.1,16.1-19c1-0.3,2.1-0.6,3.1-0.8V126
												c0-3.3,2.7-6,6-6s6,2.7,6,6v11.3c8.7,1.9,16.8,7.5,21.6,15.6c1.7,2.9,0.7,6.5-2.1,8.2c-2.9,1.7-6.5,0.7-8.2-2.1
												c-4.7-8-14.6-12.2-22.7-9.6c-4.2,1.4-7.5,5-7.9,8.7c-0.7,6.3,3,8.3,16,11.9c11.3,3.1,26.7,7.4,26.3,24.6
												c-0.1,5.8-3.1,11.7-7.9,15.6c-3.9,3.2-9,5.3-14.8,6.1c-0.1,0-0.2,0-0.3,0v10.8C255.5,230.5,252.8,233.2,249.5,233.2z"/>
										</g>
										<g>
											<path class="st2" d="M249.5,268.8c-50.8,0-92.2-41.4-92.2-92.2s41.4-92.2,92.2-92.2c47.8,0,87.2,36.6,91.8,83.2l7.1-8.8
												c2.1-2.6,5.9-3,8.4-0.9c2.6,2.1,3,5.9,0.9,8.4l-16.3,20.2c-1,1.2-2.5,2-4.1,2.2s-3.2-0.3-4.4-1.3l-20.1-16.5
												c-2.6-2.1-2.9-5.9-0.8-8.4c2.1-2.6,5.9-2.9,8.4-0.8l8.9,7.3c-3.8-40.7-38.2-72.6-79.8-72.6c-44.2,0-80.2,36-80.2,80.2
												s36,80.2,80.2,80.2c28.6,0,55.3-15.4,69.6-40.3c1.7-2.9,5.3-3.9,8.2-2.2c2.9,1.7,3.9,5.3,2.2,8.2
												C313.1,251.1,282.4,268.8,249.5,268.8z"/>
										</g>
										<g>
											<path class="st2" d="M253.3,415.6c-6.2,0-12.4-0.6-18.6-1.9l-49.1-10C157,397.9,128,395,99.3,395h-9.1c-3.3,0-6-2.7-6-6
												v-57.8c0-2.6,1.6-4.9,4.1-5.7c49.2-16.7,84.3-20.8,113.7-13.3c8.3,2.1,17,3.2,25.9,3.2h60.4c8.3,0,16.3,3.3,22.1,9.2
												c2.9,3,5.2,6.5,6.8,10.2l55.3-35.5c0.1-0.1,0.3-0.2,0.4-0.2c15-8,33.7-2.4,41.7,12.5c1.7,3.2,2.1,6.9,1.2,10.4v0.1
												c-1,3.7-3.5,6.8-6.8,8.7l-109.7,72.6c-0.1,0.1-0.3,0.2-0.4,0.2C284.9,411.5,269.1,415.6,253.3,415.6z M96.2,383h3.1
												c29.5,0,59.3,3,88.7,8.9l49.1,10c19,3.9,38.8,0.8,55.9-8.7l109.7-72.6c0.1-0.1,0.3-0.2,0.4-0.3c0.6-0.3,1-0.9,1.2-1.5
												c0.1-0.6,0.1-1.3-0.2-1.8c-4.8-9-16.2-12.5-25.3-7.7l-59.3,38c-0.1,1.2-0.3,2.5-0.7,3.6c-0.2,1-0.6,1.9-1,2.7
												c-1,1.9-3.4,4-6.9,6.1c-0.9,0.5-2,0.8-3,0.8l0,0l-74.6-0.2c-3.3,0-6-2.7-6-6s2.7-6,6-6l0,0h0.3h0.1h0.4l71.6,0.1
												c0.7,0,1.4-0.5,1.7-1.1c0.1-0.5,0.1-1.2,0.2-1.8c-0.2-4.7-2.2-9.2-5.7-12.7s-8.5-5.6-13.6-5.6h-60.4
												c-10,0-19.7-1.2-28.9-3.6c-26.2-6.6-58-3-102.8,11.7L96.2,383L96.2,383z"/>
										</g>
									</g>
								</g>
							</g>
						</g>
					</g>
					<g>
						<g>
							<g>
								<g>
									<defs>
										<rect id="SVGID_00000087376708805021087930000005831412701594176162_" width="500" height="500"/>
									</defs>
									<clipPath id="SVGID_00000074426287303095481250000002284145933916869266_">
										<use xlink:href="#SVGID_00000087376708805021087930000005831412701594176162_"  style="overflow:visible;"/>
									</clipPath>
									<g style="clip-path:url(#SVGID_00000074426287303095481250000002284145933916869266_);">
										<g>
											<path class="st2" d="M249.5,233.2c-3.3,0-6-2.7-6-6v-11.4c-8.3-1.8-16-6.5-21.5-13.4c-2.1-2.6-1.6-6.4,0.9-8.4
												c2.6-2.1,6.4-1.6,8.4,0.9c5.5,6.9,14.4,10.6,22.8,9.5c3.5-0.5,6.6-1.7,8.8-3.5c2.1-1.7,3.4-4.2,3.5-6.6
												c0.2-7.1-5.2-9.3-17.5-12.7c-11.2-3.1-26.6-7.4-24.8-24.7c0.8-8.5,7.3-16.1,16.1-19c1-0.3,2.1-0.6,3.1-0.8V126
												c0-3.3,2.7-6,6-6s6,2.7,6,6v11.3c8.7,1.9,16.8,7.5,21.6,15.6c1.7,2.9,0.7,6.5-2.1,8.2c-2.9,1.7-6.5,0.7-8.2-2.1
												c-4.7-8-14.6-12.2-22.7-9.6c-4.2,1.4-7.5,5-7.9,8.7c-0.7,6.3,3,8.3,16,11.9c11.3,3.1,26.7,7.4,26.3,24.6
												c-0.1,5.8-3.1,11.7-7.9,15.6c-3.9,3.2-9,5.3-14.8,6.1c-0.1,0-0.2,0-0.3,0v10.8C255.5,230.5,252.8,233.2,249.5,233.2z"/>
										</g>
										<g>
											<path class="st2" d="M249.5,268.8c-50.8,0-92.2-41.4-92.2-92.2s41.4-92.2,92.2-92.2c47.8,0,87.2,36.6,91.8,83.2l7.1-8.8
												c2.1-2.6,5.9-3,8.4-0.9c2.6,2.1,3,5.9,0.9,8.4l-16.3,20.2c-1,1.2-2.5,2-4.1,2.2s-3.2-0.3-4.4-1.3l-20.1-16.5
												c-2.6-2.1-2.9-5.9-0.8-8.4c2.1-2.6,5.9-2.9,8.4-0.8l8.9,7.3c-3.8-40.7-38.2-72.6-79.8-72.6c-44.2,0-80.2,36-80.2,80.2
												s36,80.2,80.2,80.2c28.6,0,55.3-15.4,69.6-40.3c1.7-2.9,5.3-3.9,8.2-2.2c2.9,1.7,3.9,5.3,2.2,8.2
												C313.1,251.1,282.4,268.8,249.5,268.8z"/>
										</g>
										<g>
											<path class="st2" d="M253.3,415.6c-6.2,0-12.4-0.6-18.6-1.9l-49.1-10C157,397.9,128,395,99.3,395h-9.1c-3.3,0-6-2.7-6-6
												v-57.8c0-2.6,1.6-4.9,4.1-5.7c49.2-16.7,84.3-20.8,113.7-13.3c8.3,2.1,17,3.2,25.9,3.2h60.4c8.3,0,16.3,3.3,22.1,9.2
												c2.9,3,5.2,6.5,6.8,10.2l55.3-35.5c0.1-0.1,0.3-0.2,0.4-0.2c15-8,33.7-2.4,41.7,12.5c1.7,3.2,2.1,6.9,1.2,10.4v0.1
												c-1,3.7-3.5,6.8-6.8,8.7l-109.7,72.6c-0.1,0.1-0.3,0.2-0.4,0.2C284.9,411.5,269.1,415.6,253.3,415.6z M96.2,383h3.1
												c29.5,0,59.3,3,88.7,8.9l49.1,10c19,3.9,38.8,0.8,55.9-8.7l109.7-72.6c0.1-0.1,0.3-0.2,0.4-0.3c0.6-0.3,1-0.9,1.2-1.5
												c0.1-0.6,0.1-1.3-0.2-1.8c-4.8-9-16.2-12.5-25.3-7.7l-59.3,38c-0.1,1.2-0.3,2.5-0.7,3.6c-0.2,1-0.6,1.9-1,2.7
												c-1,1.9-3.4,4-6.9,6.1c-0.9,0.5-2,0.8-3,0.8l0,0l-74.6-0.2c-3.3,0-6-2.7-6-6s2.7-6,6-6l0,0h0.3h0.1h0.4l71.6,0.1
												c0.7,0,1.4-0.5,1.7-1.1c0.1-0.5,0.1-1.2,0.2-1.8c-0.2-4.7-2.2-9.2-5.7-12.7s-8.5-5.6-13.6-5.6h-60.4
												c-10,0-19.7-1.2-28.9-3.6c-26.2-6.6-58-3-102.8,11.7L96.2,383L96.2,383z"/>
										</g>
									</g>
								</g>
							</g>
						</g>
					</g>
					<g>
						<path class="st4" d="M0,500"/>
					</g>
				</g>
			</g>
		</g>
	</g>
</g>
</svg>
