<?xml version="1.0" encoding="utf-8"?>
<!-- Generator: Adobe Illustrator 27.5.0, SVG Export Plug-In . SVG Version: 6.00 Build 0)  -->
<svg version="1.1" id="Layer_1" xmlns="http://www.w3.org/2000/svg" xmlns:xlink="http://www.w3.org/1999/xlink" x="0px" y="0px"
	 viewBox="0 0 500 500" style="enable-background:new 0 0 500 500;" xml:space="preserve">
<style type="text/css">
	.st0{fill:#FFFFFF;}
	.st1{fill:none;stroke:#FFFFFF;stroke-width:12;stroke-linecap:round;stroke-linejoin:round;}
	.st2{display:none;fill:none;stroke:#FFFFFF;stroke-width:12;stroke-linecap:round;stroke-linejoin:round;}
</style>
<g>
	<g>
		<g>
			<path class="st0" d="M376.2,174.7c-1.5,0-3.1-0.6-4.2-1.8l-18.3-18.3c-2.3-2.3-2.3-6.1,0-8.5l18.3-18.3c2.3-2.3,6.1-2.3,8.5,0
				c2.3,2.3,2.3,6.1,0,8.5l-14.1,14.1l14.1,14.1c2.3,2.3,2.3,6.1,0,8.5C379.3,174.1,377.7,174.7,376.2,174.7z"/>
		</g>
		<g>
			<path class="st0" d="M395.3,378.6h-25.4c-3.3,0-6-2.7-6-6s2.7-6,6-6h25.4c4.9,0,8.8-3.9,8.8-8.8V165.3c0-4.9-3.9-8.8-8.8-8.8
				h-37.4c-3.3,0-6-2.7-6-6s2.7-6,6-6h37.4c11.5,0,20.8,9.3,20.8,20.8v192.5C416.1,369.3,406.8,378.6,395.3,378.6z"/>
		</g>
	</g>
	<path class="st1" d="M0,500"/>
	<path class="st1" d="M0,500"/>
	<g>
		<path class="st0" d="M330.1,340.3H116.6c-3.3,0-6-2.7-6-6v-38.4c0-3.3,2.7-6,6-6h213.5c3.3,0,6,2.7,6,6v38.4
			C336.1,337.6,333.4,340.3,330.1,340.3z M122.6,328.3h201.5v-26.4H122.6V328.3z"/>
	</g>
	<path class="st1" d="M0,500"/>
	<g>
		<path class="st0" d="M330.1,274H116.6c-3.3,0-6-2.7-6-6v-55.4c0-3.3,2.7-6,6-6h213.5c3.3,0,6,2.7,6,6V268
			C336.1,271.3,333.4,274,330.1,274z M122.6,262h201.5v-43.4H122.6V262z"/>
	</g>
	<g>
		<path class="st0" d="M330.1,190.8H116.6c-3.3,0-6-2.7-6-6v-68.2c0-3.3,2.7-6,6-6h213.5c3.3,0,6,2.7,6,6v68.2
			C336.1,188.1,333.4,190.8,330.1,190.8z M122.6,178.8h201.5v-56.2H122.6V178.8z"/>
	</g>
	<g>
		<path class="st0" d="M330.1,389.4H116.6c-3.3,0-6-2.7-6-6v-21.3c0-3.3,2.7-6,6-6h213.5c3.3,0,6,2.7,6,6v21.3
			C336.1,386.7,333.4,389.4,330.1,389.4z M122.6,377.4h201.5v-9.3H122.6V377.4z"/>
	</g>
	<path class="st1" d="M0,500"/>
	<g>
		<g>
			<path class="st2" d="M0,500"/>
		</g>
		<g>
			<path class="st1" d="M0,500"/>
		</g>
		<g>
			<path class="st1" d="M0,500"/>
		</g>
		<g>
			<path class="st1" d="M0,500"/>
		</g>
		<g>
			<path class="st1" d="M0,500"/>
		</g>
		<g>
			<path class="st1" d="M0,500"/>
		</g>
		<g>
			<path class="st1" d="M0,500"/>
		</g>
		<g>
			<path class="st1" d="M0,500"/>
		</g>
		<g>
			<path class="st1" d="M0,500"/>
		</g>
		<g>
			<path class="st1" d="M0,500"/>
		</g>
		<g>
			<path class="st1" d="M0,500"/>
		</g>
		<g>
			<path class="st1" d="M0,500"/>
		</g>
	</g>
</g>
</svg>
