<?xml version="1.0" encoding="iso-8859-1"?>
<!-- Generator: Adobe Illustrator 29.6.1, SVG Export Plug-In . SVG Version: 9.03 Build 0)  -->
<svg version="1.1" id="Layer_1" xmlns="http://www.w3.org/2000/svg" xmlns:xlink="http://www.w3.org/1999/xlink" x="0px" y="0px"
	 viewBox="0 0 500 500" style="enable-background:new 0 0 500 500;" xml:space="preserve">
<g>
	<path style="fill:#FFFFFF;" d="M92.369,429.411c-6.062,0-10.819-1.734-14.321-5.193c-10.669-10.543-5.503-32.962,15.793-68.538
		c18.828-31.454,49.261-70.759,85.691-110.676c10.368-11.405,21.026-22.638,31.67-33.378c12.33-12.434,24.297-24.063,35.572-34.567
		c38.934-36.23,77.234-66.493,107.846-85.216c34.713-21.231,56.743-26.489,67.348-16.075c8.416,8.35,6.938,23.983-4.494,47.813
		c-9.801,20.429-26.84,46.452-49.276,75.254c-2.036,2.615-5.807,3.082-8.421,1.046c-2.614-2.036-3.082-5.806-1.046-8.42
		c52.072-66.849,61.306-100.706,54.808-107.154c-4.168-4.091-20.476-1.911-52.656,17.772
		c-29.949,18.317-67.569,48.063-105.931,83.761c-11.157,10.394-23.009,21.912-35.227,34.232
		c-10.521,10.618-21.06,21.725-31.321,33.012c-35.914,39.351-65.837,77.972-84.267,108.758
		c-26.06,43.534-18.593,52.912-17.656,53.839c4.083,4.031,19.991,1.994,51.373-17.026c29.203-17.7,66.117-46.65,103.943-81.519
		c13.295-12.247,26.244-24.763,38.491-37.198c0.729-0.729,1.456-1.463,2.18-2.199l-49.266-3.808
		c-3.304-0.256-5.775-3.141-5.52-6.444s3.133-5.771,6.444-5.521l61.001,4.715c1.714-0.183,3.489,0.372,4.821,1.668
		c1.215,1.183,1.821,2.755,1.814,4.327c0,0.002,0,0.005,0,0.007c0,0.004,0,0.008,0,0.012c0,0.002,0,0.004,0,0.007
		c0,0.004,0,0.008,0,0.012c0,0.003,0,0.005,0,0.008c0,0.004,0,0.008,0,0.012c0,0.002,0,0.005,0,0.007c0,0.004,0,0.008,0,0.012
		c0,0.003,0,0.005,0,0.008c0,0.004,0,0.008,0,0.012c0,0.002,0,0.005,0,0.007c0,0.004,0,0.008,0,0.013c0,0.002,0,0.004,0,0.006
		c0,0.005,0,0.009,0,0.013c0,0.002,0,0.005,0,0.007c0,0.004,0,0.009,0,0.013c0,0.002,0,0.004,0,0.006
		c0,0.005-0.001,0.009-0.001,0.014c0,0.001,0,0.003,0,0.005c0,0.005,0,0.01,0,0.014c0,0.002,0,0.004,0,0.006
		c0,0.004,0,0.009,0,0.014c0,0.002-0.001,0.003-0.001,0.005c0,0.005,0,0.01,0,0.015c0,0.001,0,0.003,0,0.004
		c0,0.005,0,0.01-0.001,0.015c0,0.002,0,0.003,0,0.004c0,0.006,0,0.011,0,0.016c0,0.001,0,0.003,0,0.004
		c0,0.005-0.001,0.011-0.001,0.016c0,0.001,0,0.002,0,0.003c0,0.006,0,0.011-0.001,0.017c0,0.001,0,0.002,0,0.003
		c0,0.005,0,0.011,0,0.017c0,0,0,0.001,0,0.002c-0.001,0.006-0.001,0.012-0.001,0.017c0,0.001,0,0.002,0,0.002
		c-0.001,0.006-0.001,0.012-0.001,0.018v0.001c-0.001,0.007-0.001,0.013-0.001,0.019v0.001c-0.003,0.05-0.006,0.1-0.01,0.149
		c0,0.003-0.001,0.005-0.001,0.007l-4.7,60.297c-0.258,3.305-3.173,5.771-6.447,5.516c-3.304-0.257-5.773-3.144-5.516-6.447
		l3.42-43.884c-12.261,12.44-25.247,24.985-38.573,37.263c-38.395,35.393-75.989,64.854-105.855,82.956
		C121.489,422.606,104.373,429.411,92.369,429.411z"/>
</g>
</svg>
