<?xml version="1.0" encoding="iso-8859-1"?>
<!-- Generator: Adobe Illustrator 29.6.1, SVG Export Plug-In . SVG Version: 9.03 Build 0)  -->
<svg version="1.1" id="Layer_1" xmlns="http://www.w3.org/2000/svg" xmlns:xlink="http://www.w3.org/1999/xlink" x="0px" y="0px"
	 viewBox="0 0 500 500" style="enable-background:new 0 0 500 500;" xml:space="preserve">
<g>
	<g>
		<path style="fill:#FFFFFF;" d="M380,408.5h-71.736c-3.313,0-6-2.687-6-6s2.687-6,6-6H374v-104c0-3.313,2.687-6,6-6h25.515
			L330,210.985l-30.758,30.757c-2.342,2.343-6.143,2.343-8.484,0c-2.344-2.343-2.344-6.142,0-8.485l35-35
			c2.342-2.343,6.143-2.343,8.484,0l90,90c1.717,1.716,2.229,4.296,1.301,6.538S422.427,298.5,420,298.5h-34v104
			C386,405.813,383.314,408.5,380,408.5z"/>
	</g>
	<g>
		<path style="fill:#FFFFFF;" d="M295,329.51c-3.313,0-6-2.687-6-6V147.5c0-3.313,2.687-6,6-6h25.515L245,65.985L169.485,141.5H195
			c3.313,0,6,2.687,6,6v176.01c0,3.313-2.687,6-6,6s-6-2.687-6-6V153.5h-34c-2.427,0-4.615-1.462-5.543-3.704
			c-0.929-2.242-0.415-4.823,1.301-6.539l90-90c2.342-2.343,6.142-2.343,8.485,0l90,90c1.717,1.716,2.229,4.297,1.301,6.539
			c-0.929,2.242-3.116,3.704-5.543,3.704h-34v170.01C301,326.823,298.314,329.51,295,329.51z"/>
	</g>
	<g>
		<path style="fill:#FFFFFF;" d="M181.736,408.5H120c-3.313,0-6-2.687-6-6v-104H80c-2.427,0-4.615-1.462-5.543-3.704
			s-0.415-4.822,1.301-6.538l90-90c2.343-2.343,6.143-2.343,8.485,0l25,25c2.343,2.343,2.343,6.142,0,8.485s-6.143,2.343-8.485,0
			L170,210.985L94.485,286.5H120c3.313,0,6,2.687,6,6v104h55.736c3.314,0,6,2.687,6,6S185.05,408.5,181.736,408.5z"/>
	</g>
	<g>
		<path style="fill:#FFFFFF;" d="M245,448.5c-41.907,0-76-34.094-76-76s34.093-76,76-76c41.906,0,76,34.094,76,76
			S286.906,448.5,245,448.5z M245,308.5c-35.29,0-64,28.71-64,64s28.71,64,64,64s64-28.71,64-64S280.29,308.5,245,308.5z"/>
	</g>
	<g>
		<path style="fill:#FFFFFF;" d="M270.01,405c-4.143,0-7.505-3.357-7.505-7.5s3.353-7.5,7.495-7.5h0.01c4.143,0,7.5,3.357,7.5,7.5
			S274.152,405,270.01,405z M220,355c-4.142,0-7.505-3.357-7.505-7.5s3.353-7.5,7.495-7.5H220c4.142,0,7.5,3.357,7.5,7.5
			S224.142,355,220,355z"/>
	</g>
	<g>
		<path style="fill:#FFFFFF;" d="M220,403.5c-1.536,0-3.071-0.586-4.243-1.758c-2.343-2.343-2.343-6.142,0-8.484l50-50
			c2.342-2.344,6.143-2.344,8.484,0c2.344,2.343,2.344,6.142,0,8.484l-49.999,50C223.071,402.914,221.536,403.5,220,403.5z"/>
	</g>
</g>
</svg>
