<?xml version="1.0" encoding="utf-8"?>
<!-- Generator: Adobe Illustrator 27.5.0, SVG Export Plug-In . SVG Version: 6.00 Build 0)  -->
<svg version="1.1" id="Layer_1" xmlns="http://www.w3.org/2000/svg" xmlns:xlink="http://www.w3.org/1999/xlink" x="0px" y="0px"
	 viewBox="0 0 500 500" style="enable-background:new 0 0 500 500;" xml:space="preserve">
<style type="text/css">
	.st0{clip-path:url(#SVGID_00000049205388148190633590000003571740899819419551_);}
	.st1{fill:#FFFFFF;}
</style>
<g>
	<g>
		<g>
			<g>
				<defs>
					<rect id="SVGID_1_" width="500" height="500"/>
				</defs>
				<clipPath id="SVGID_00000034780817024293620820000008700705218086635907_">
					<use xlink:href="#SVGID_1_"  style="overflow:visible;"/>
				</clipPath>
				<g style="clip-path:url(#SVGID_00000034780817024293620820000008700705218086635907_);">
					<g>
						<path class="st1" d="M393.6,414.2c-1,0-1.9-0.2-2.8-0.7l-23.2-12.2l-23.2,12.2c-2,1.1-4.5,0.9-6.3-0.5
							c-1.8-1.3-2.8-3.6-2.4-5.9l4.5-25.9L321.4,363c-1.6-1.6-2.2-4-1.5-6.2s2.6-3.8,4.8-4.1l25.9-3.7l11.4-23.5
							c1-2.1,3.1-3.4,5.4-3.4l0,0c2.3,0,4.4,1.3,5.4,3.3l11.6,23.6l26,3.7c2.3,0.3,4.1,1.9,4.8,4.1c0.7,2.2,0.1,4.6-1.5,6.2
							L395,381.3l4.5,25.9c0.4,2.3-0.5,4.5-2.4,5.9C396.1,413.8,394.8,414.2,393.6,414.2z M367.6,388.5c1,0,1.9,0.2,2.8,0.7l15.2,8
							l-2.9-17c-0.3-1.9,0.3-3.9,1.7-5.3l12.3-12l-17.1-2.5c-2-0.3-3.7-1.5-4.5-3.3l-7.6-15.4l-7.4,15.4c-0.9,1.8-2.6,3-4.5,3.3
							l-17.1,2.5l12.3,12c1.4,1.4,2.1,3.4,1.7,5.3l-2.9,17l15.2-8C365.7,388.7,366.6,388.5,367.6,388.5z M354.7,354.5L354.7,354.5
							L354.7,354.5z"/>
					</g>
					<g>
						<path class="st1" d="M222.6,414.2c-1.2,0-2.5-0.4-3.5-1.1c-1.8-1.3-2.8-3.6-2.4-5.9l4.5-25.9L202.4,363
							c-1.6-1.6-2.2-4-1.5-6.2s2.6-3.8,4.8-4.1l25.9-3.7l11.4-23.5c1-2.1,3.1-3.4,5.4-3.4l0,0c2.3,0,4.4,1.3,5.4,3.3l11.6,23.6
							l26,3.7c2.3,0.3,4.1,1.9,4.8,4.1c0.7,2.2,0.1,4.6-1.5,6.2L276,381.3l4.5,25.9c0.4,2.3-0.5,4.5-2.4,5.9
							c-1.8,1.3-4.3,1.5-6.3,0.5l-23.2-12.2l-23.2,12.2C224.5,414,223.6,414.2,222.6,414.2z M219.5,362.9l12.3,12
							c1.4,1.4,2.1,3.4,1.7,5.3l-2.9,17l15.2-8c1.8-0.9,3.8-0.9,5.6,0l15.2,8l-2.9-17c-0.3-1.9,0.3-3.9,1.7-5.3l12.3-12l-17.1-2.5
							c-2-0.3-3.7-1.5-4.5-3.3l-7.6-15.4l-7.4,15.4c-0.9,1.8-2.6,3-4.5,3.3L219.5,362.9z M235.7,354.5L235.7,354.5L235.7,354.5z"/>
					</g>
					<g>
						<path class="st1" d="M156.6,414.2c-1,0-1.9-0.2-2.8-0.7l-23.2-12.2l-23.2,12.2c-2,1.1-4.5,0.9-6.3-0.5
							c-1.8-1.3-2.8-3.6-2.4-5.9l4.5-25.9L84.4,363c-1.6-1.6-2.2-4-1.5-6.2s2.6-3.8,4.8-4.1l25.9-3.7l11.4-23.5
							c1-2.1,3.1-3.4,5.4-3.4l0,0c2.3,0,4.4,1.3,5.4,3.3l11.6,23.6l26,3.7c2.3,0.3,4.1,1.9,4.8,4.1s0.1,4.6-1.5,6.2L158,381.3
							l4.5,25.9c0.4,2.3-0.5,4.5-2.4,5.9C159.1,413.8,157.8,414.2,156.6,414.2z M130.6,388.5c1,0,1.9,0.2,2.8,0.7l15.2,8l-2.9-17
							c-0.3-1.9,0.3-3.9,1.7-5.3l12.3-12l-17.1-2.5c-2-0.3-3.7-1.5-4.5-3.3l-7.6-15.4l-7.4,15.4c-0.9,1.8-2.6,3-4.5,3.3l-17.1,2.5
							l12.3,12c1.4,1.4,2.1,3.4,1.7,5.3l-2.9,17l15.2-8C128.7,388.7,129.6,388.5,130.6,388.5z M117.7,354.5L117.7,354.5L117.7,354.5
							z"/>
					</g>
					<g>
						<path class="st1" d="M312.8,289h-82.6c-0.7,0-1.4-0.1-2.1-0.4l-37.9-14.2l-38.2,0.1l0,0c-1.6,0-3.1-0.6-4.2-1.8
							c-1.1-1.1-1.8-2.7-1.8-4.2v-91.6c0-3.3,2.7-6,6-6l39.2-0.1c0,0,0,0,0.1,0c0,0,0,0,0.1,0h20.4c17.6-8.5,27.3-22.8,27.3-40.4
							V89.3c0-3.3,2.7-6,6-6c21.6,0,39.2,17.6,39.2,39.2v37.2h36.9c17.6,0,32,13.7,32.9,31.1c0,0.4,0,0.8-0.1,1.3l-12.1,75.5
							c-0.1,0.4-0.1,0.7-0.3,1C337.3,280.8,325.7,289,312.8,289z M231.3,277h81.5c7.7,0,14.5-4.8,17.3-11.9l11.9-74.3
							c-0.8-10.8-9.9-19.1-20.9-19.1h-42.9c-3.3,0-6-2.7-6-6v-43.2c0-12.9-9.1-23.8-21.2-26.5v34.4c0,22.7-12.9,41.6-35.5,51.9
							c-0.8,0.4-1.6,0.5-2.5,0.5h-15.7v81.4L231.3,277z M158,182.9v79.6l27.2-0.1v-79.6L158,182.9z"/>
					</g>
				</g>
			</g>
		</g>
	</g>
</g>
</svg>
