<?xml version="1.0" encoding="utf-8"?>
<!-- Generator: Adobe Illustrator 27.5.0, SVG Export Plug-In . SVG Version: 6.00 Build 0)  -->
<svg version="1.1" id="Layer_1" xmlns="http://www.w3.org/2000/svg" xmlns:xlink="http://www.w3.org/1999/xlink" x="0px" y="0px"
	 viewBox="0 0 500 500" style="enable-background:new 0 0 500 500;" xml:space="preserve">
<style type="text/css">
	.st0{fill:#FFFFFF;}
	.st1{fill:none;stroke:#FFFFFF;stroke-width:12;stroke-linecap:round;stroke-linejoin:round;}
</style>
<g>
	<g>
		<path class="st0" d="M267.8,395.9c-0.7,0-1.5-0.1-2.2-0.4c-2.2-0.9-3.7-3-3.8-5.4c-1.2-44.9-17.4-62.3-17.6-62.5
			c-2.3-2.3-2.3-6.1,0-8.5c2.3-2.3,6.2-2.3,8.5,0c0.7,0.7,16,16.5,20.1,55.9c32.5-41.9,26.5-94.9,26.4-95.5
			c-0.4-3.3,1.9-6.3,5.2-6.7c3.3-0.4,6.3,1.9,6.7,5.2c0.3,2.8,8,68.9-39.1,116C270.9,395.3,269.4,395.9,267.8,395.9z"/>
		<path class="st0" d="M164.5,245.3c-1.5,0-3.1-0.6-4.2-1.7c-0.1-0.1-17.5-16.4-62.4-17.6c-2.4-0.1-4.5-1.5-5.4-3.8
			s-0.4-4.8,1.3-6.5c47.1-47.1,113.2-39.5,116-39.1c3.3,0.4,5.6,3.4,5.2,6.7c-0.4,3.3-3.4,5.6-6.7,5.2c-0.8-0.1-53.7-6-95.5,26.4
			c39.4,4.1,55.2,19.4,55.9,20.1c2.3,2.3,2.4,6.1,0,8.5C167.6,244.7,166,245.3,164.5,245.3z"/>
		<path class="st0" d="M305.1,181.8c-6.8-6.8-15.7-10.5-25.3-10.5c-9.6,0-18.6,3.8-25.3,10.5c-6.8,6.8-10.5,15.7-10.5,25.3
			s3.8,18.6,10.5,25.3c6.8,6.8,15.7,10.5,25.3,10.5c9.5,0,18.5-3.7,25.3-10.5s10.5-15.7,10.5-25.3S311.8,188.5,305.1,181.8z
			 M296.6,223.9c-4.5,4.4-10.4,6.9-16.8,6.9s-12.3-2.4-16.8-6.9c-4.4-4.5-6.9-10.4-6.9-16.8s2.4-12.3,6.9-16.8
			c4.5-4.4,10.4-6.9,16.8-6.9c6.3,0,12.3,2.5,16.8,6.9c4.4,4.5,6.9,10.4,6.9,16.8S301.1,219.4,296.6,223.9z"/>
		<path class="st0" d="M204.2,331.1c-12.5,0-24.6-4.9-33.6-14c-12.5-12.5-17.1-30.9-11.8-47.9l4.2-13.5c-6-7.9-6.5-18.8-0.8-27.1
			c11.5-16.8,29-36.9,53.6-61.4c47.3-47.3,108.9-72.1,164.9-66.4c2.8,0.3,5.1,2.5,5.4,5.4c2.7,26.9-1.7,56.1-13,84.5
			c-11.5,29.1-30,56.9-53.4,80.3c-24.6,24.6-44.7,42.1-61.5,53.6c-7.9,5.4-18.2,5.2-25.8,0.1l-13.8,4.3
			C213.8,330.4,209,331.1,204.2,331.1z M172.6,265.5l-2.3,7.3c-4,12.7-0.6,26.5,8.8,35.9c9.3,9.4,23.1,12.8,35.9,8.8l7.3-2.3
			L172.6,265.5z M364.6,111.9c-48.3,0-99.7,23.1-140.3,63.7c-24,24-41.1,43.6-52.2,59.8c-3,4.3-2.4,10.2,1.3,14l64,64l0,0
			c3.8,3.8,9.5,4.3,14,1.3c16.1-11.1,35.7-28.1,59.7-52.2c43.4-43.4,66.8-99.2,63.4-150.2C371.3,112,368,111.9,364.6,111.9z"/>
		<path class="st0" d="M163.5,324.3c-6.6-6.6-15.4-10.2-24.7-10.2h-0.1c-9.3,0.1-18,3.7-24.5,10.3c-15.6,15.8-22.1,54.7-23.7,66.2
			c-0.3,1.8,0.3,3.7,1.6,5c1.1,1.1,2.7,1.8,4.3,1.8c0.2,0,0.4,0,0.6-0.1c23.6-2.3,53.9-11.1,66.5-23.7
			C177.1,360,177.1,337.9,163.5,324.3z M155,365.1c-8.9,8.9-31.6,16.3-51.4,19.3c4.1-24,11.4-43.8,19.1-51.6
			c4.3-4.3,10-6.7,16.1-6.7s11.8,2.4,16.2,6.7C163.9,341.7,163.9,356.2,155,365.1z"/>
		<path class="st0" d="M159.2,369.4L159.2,369.4L159.2,369.4z"/>
		<path class="st0" d="M366.3,192.6c-0.1,0-0.2,0-0.3,0c-0.9,0-21.6-1.4-45.5-25.3s-26.1-45.2-26.1-46.1c-0.3-3.3,2.1-6.2,5.4-6.5
			s6.2,2.1,6.5,5.4c0,0.4,2.2,18.3,22.7,38.7s37.6,21.8,37.7,21.9c3.3,0.2,5.8,3,5.7,6.3C372.1,190.1,369.5,192.6,366.3,192.6z"/>
		<g>
			<path class="st1" d="M250,250"/>
		</g>
	</g>
	<g>
		<path class="st1" d="M0,500"/>
	</g>
	<g>
		<path class="st1" d="M0,500"/>
	</g>
	<g>
		<path class="st1" d="M0,500"/>
	</g>
	<g>
		<path class="st1" d="M0,500"/>
	</g>
	<g>
		<path class="st1" d="M0,500"/>
	</g>
	<g>
		<path class="st1" d="M0,500"/>
	</g>
	<g>
		<path class="st1" d="M0,500"/>
	</g>
	<g>
		<path class="st1" d="M0,500"/>
	</g>
	<g>
		<path class="st1" d="M0,500"/>
	</g>
</g>
</svg>
