<?xml version="1.0" encoding="utf-8"?>
<!-- Generator: Adobe Illustrator 27.5.0, SVG Export Plug-In . SVG Version: 6.00 Build 0)  -->
<svg version="1.1" id="Layer_1" xmlns="http://www.w3.org/2000/svg" xmlns:xlink="http://www.w3.org/1999/xlink" x="0px" y="0px"
	 viewBox="0 0 500 500" style="enable-background:new 0 0 500 500;" xml:space="preserve">
<style type="text/css">
	.st0{fill:#FFFFFF;}
	.st1{display:none;fill:#FFFFFF;}
</style>
<g>
	<g>
		<path class="st0" d="M251.5,430.1c-19,0-34.4-15.4-34.4-34.4s15.4-34.4,34.4-34.4s34.4,15.4,34.4,34.4S270.5,430.1,251.5,430.1z
			 M251.5,373.3c-12.4,0-22.4,10-22.4,22.4s10,22.4,22.4,22.4s22.4-10,22.4-22.4S263.9,373.3,251.5,373.3z"/>
	</g>
	<g>
		<path class="st0" d="M309.9,373.3H193.1c-13.2,0-24-10.8-24-24V244.9c0-27.3,13.5-52.8,36.1-68.2c2.4-1.6,5.5-1.3,7.6,0.7
			c10.1,9.8,23.4,15.2,37.5,15.2c14.5,0,28.1-5.7,38.3-16c2-2,5.1-2.4,7.5-0.8c23.6,15.2,37.7,41.1,37.7,69.1v104.4
			C333.9,362.5,323.1,373.3,309.9,373.3z M208.2,189.4c-17,13.3-27.1,33.7-27.1,55.5v104.4c0,6.6,5.4,12,12,12h116.8
			c6.6,0,12-5.4,12-12V244.9c0-22.4-10.5-43.2-28.4-56.4c-12,10.4-27.1,16.1-43.2,16.1C234.8,204.6,220,199.2,208.2,189.4z"/>
	</g>
	<g>
		<path class="st0" d="M229.6,246.7c0,4.5-3.6,8.1-8.1,8.1s-8.1-3.6-8.1-8.1s3.6-8.1,8.1-8.1S229.6,242.3,229.6,246.7z M259.6,246.7
			c0,4.5-3.6,8.1-8.1,8.1s-8.1-3.6-8.1-8.1s3.6-8.1,8.1-8.1S259.6,242.3,259.6,246.7z M289.5,246.7c0,4.5-3.6,8.1-8.1,8.1
			s-8.1-3.6-8.1-8.1l0,0c0-4.5,3.6-8.1,8.1-8.1C285.9,238.7,289.5,242.3,289.5,246.7z"/>
	</g>
	<g>
		<path class="st0" d="M352.8,325.3c-3.3,0-6-2.7-6-6V236c0-3.3,2.7-6,6-6s6,2.7,6,6v83.3C358.8,322.6,356.1,325.3,352.8,325.3z"/>
	</g>
	<g>
		<path class="st0" d="M151.2,325.3c-3.3,0-6-2.7-6-6V236c0-3.3,2.7-6,6-6s6,2.7,6,6v83.3C157.2,322.6,154.5,325.3,151.2,325.3z"/>
	</g>
	<g>
		<g>
			<path class="st0" d="M250.4,204.5c-17.3,0-33.5-6.6-45.9-18.6c-13-12.5-20.1-29.3-20.1-47.4c0-36.4,29.6-66,66-66s66,29.6,66,66
				c0,17.6-6.8,34.1-19.2,46.4C284.8,197.5,268.1,204.5,250.4,204.5z M250.4,84.5c-29.8,0-54,24.2-54,54c0,14.8,5.8,28.5,16.5,38.8
				c10.1,9.8,23.4,15.2,37.5,15.2c14.5,0,28.1-5.7,38.3-16c10.1-10.1,15.7-23.6,15.7-38C304.4,108.7,280.2,84.5,250.4,84.5z"/>
		</g>
		<g>
			<path class="st0" d="M238.7,123.4c0,4.7-3.8,8.4-8.4,8.4c-4.7,0-8.4-3.8-8.4-8.4l0,0c0-4.7,3.8-8.4,8.4-8.4
				S238.7,118.8,238.7,123.4z M277.8,123.4c0,4.7-3.8,8.4-8.4,8.4c-4.7,0-8.4-3.8-8.4-8.4c0-4.7,3.8-8.4,8.4-8.4
				S277.8,118.7,277.8,123.4z"/>
		</g>
	</g>
	<g>
		<g>
			<path class="st1" d="M0,500"/>
		</g>
		<g>
			<path class="st0" d="M0,500"/>
		</g>
		<g>
			<path class="st0" d="M0,500"/>
		</g>
		<g>
			<path class="st0" d="M0,500"/>
		</g>
		<g>
			<path class="st0" d="M0,500"/>
		</g>
		<g>
			<path class="st0" d="M0,500"/>
		</g>
		<g>
			<path class="st0" d="M0,500"/>
		</g>
		<g>
			<path class="st0" d="M0,500"/>
		</g>
		<g>
			<path class="st0" d="M0,500"/>
		</g>
		<g>
			<path class="st0" d="M0,500"/>
		</g>
		<g>
			<path class="st0" d="M0,500"/>
		</g>
		<g>
			<path class="st0" d="M0,500"/>
		</g>
	</g>
</g>
</svg>
