<?xml version="1.0" encoding="iso-8859-1"?>
<!-- Generator: Adobe Illustrator 29.6.1, SVG Export Plug-In . SVG Version: 9.03 Build 0)  -->
<svg version="1.1" id="Layer_1" xmlns="http://www.w3.org/2000/svg" xmlns:xlink="http://www.w3.org/1999/xlink" x="0px" y="0px"
	 viewBox="0 0 500 500" style="enable-background:new 0 0 500 500;" xml:space="preserve">
<g>
	<path style="fill:#FFFFFF;" d="M191,402.5h-12v-94h-58v94h-12v-100c0-3.313,2.687-6,6-6h70c3.313,0,6,2.687,6,6V402.5z"/>
</g>
<defs>
	<filter id="Adobe_OpacityMaskFilter" filterUnits="userSpaceOnUse" x="84" y="116.5" width="307" height="292">
		<feColorMatrix  type="matrix" values="1 0 0 0 0  0 1 0 0 0  0 0 1 0 0  0 0 0 1 0"/>
	</filter>
</defs>
<mask maskUnits="userSpaceOnUse" x="84" y="116.5" width="307" height="292" id="M8vZoHWN8ca_00000127012947408682442200000016875688227606692753_">
	<path style="fill-rule:evenodd;clip-rule:evenodd;fill:#FFFFFF;filter:url(#Adobe_OpacityMaskFilter);" d="M425,67.5H75v365h350
		V67.5z M340,417.5c38.66,0,70-31.34,70-70s-31.34-70-70-70s-70,31.34-70,70S301.34,417.5,340,417.5"/>
</mask>
<g style="mask:url(#M8vZoHWN8ca_00000127012947408682442200000016875688227606692753_);">
	<g>
		<path style="fill:#FFFFFF;" d="M370,408.5H90c-3.314,0-6-2.687-6-6s2.686-6,6-6h280c3.313,0,6,2.687,6,6S373.313,408.5,370,408.5z
			"/>
	</g>
	<g>
		<path style="fill:#FFFFFF;" d="M291,402.5h-12v-184h-58v184h-12v-190c0-3.313,2.687-6,6-6h70c3.313,0,6,2.687,6,6V402.5z"/>
	</g>
	<g>
		<path style="fill:#FFFFFF;" d="M315,408.5c-3.313,0-6-2.687-6-6v-280c0-3.313,2.687-6,6-6h70c3.313,0,6,2.687,6,6v270
			c0,3.313-2.687,6-6,6s-6-2.687-6-6v-264h-58v274C321,405.814,318.313,408.5,315,408.5z"/>
	</g>
</g>
<g>
	<path style="fill:#FFFFFF;" d="M115.001,248.5c-1.597,0-3.189-0.633-4.37-1.888c-2.271-2.413-2.156-6.21,0.257-8.481l170-160
		c2.412-2.272,6.21-2.157,8.481,0.257c2.271,2.413,2.156,6.21-0.257,8.481l-170,160C117.954,247.96,116.476,248.5,115.001,248.5z"/>
</g>
<g>
	<path style="fill:#FFFFFF;" d="M285,148.5c-3.313,0-6-2.687-6-6v-54h-54c-3.313,0-6-2.687-6-6s2.687-6,6-6h60c3.313,0,6,2.687,6,6
		v60C291,145.814,288.313,148.5,285,148.5z"/>
</g>
<g>
	<path style="fill:#FFFFFF;" d="M340,423.5c-41.906,0-76-34.094-76-76s34.094-76,76-76s76,34.094,76,76S381.906,423.5,340,423.5z
		 M340,283.5c-35.29,0-64,28.71-64,64s28.71,64,64,64s64-28.71,64-64S375.29,283.5,340,283.5z"/>
</g>
<g>
	<path style="fill:#FFFFFF;" d="M339.801,393.5c-3.313,0-6-2.687-6-6v-5.294l-13.435-0.116c-3.313-0.029-5.976-2.739-5.947-6.053
		c0.029-3.295,2.71-5.947,5.999-5.947c0.018,0,0.035,0,0.054,0l19.03,0.166c0.233-0.012,0.472-0.009,0.703,0.007l5.309,0.046
		c4.406-0.034,8.078-3.727,8.087-8.231c0.004-2.218-0.855-4.305-2.42-5.876c-1.565-1.57-3.648-2.438-5.866-2.442H334.34
		c-0.004,0-0.009,0-0.013,0c-5.422,0-10.522-2.111-14.361-5.945c-3.841-3.837-5.959-8.94-5.962-14.37
		c-0.003-5.438,2.113-10.549,5.959-14.392c3.714-3.711,8.609-5.811,13.838-5.945V307.5c0-3.313,2.687-6,6-6s6,2.687,6,6v5.6h10.751
		c3.313,0,6,2.687,6,6s-2.687,6-6,6H334.34c-2.194,0-4.343,0.89-5.895,2.44c-1.575,1.574-2.442,3.668-2.441,5.896
		c0.003,4.59,3.738,8.322,8.327,8.322c0.002,0,0.003,0,0.005,0h10.965c5.459,0.01,10.554,2.132,14.381,5.974
		c3.828,3.842,5.93,8.945,5.919,14.368c-0.021,10.961-8.876,19.963-19.8,20.203v5.196C345.801,390.814,343.114,393.5,339.801,393.5z
		"/>
</g>
</svg>
