<?xml version="1.0" encoding="utf-8"?>
<!-- Generator: Adobe Illustrator 27.5.0, SVG Export Plug-In . SVG Version: 6.00 Build 0)  -->
<svg version="1.1" id="Layer_1" xmlns="http://www.w3.org/2000/svg" xmlns:xlink="http://www.w3.org/1999/xlink" x="0px" y="0px"
	 viewBox="0 0 500 500" style="enable-background:new 0 0 500 500;" xml:space="preserve">
<style type="text/css">
	.st0{fill:#FFFFFF;}
	.st1{fill:none;}
	.st2{display:none;fill:none;stroke:#FFFFFF;stroke-width:12;stroke-linecap:round;stroke-linejoin:round;}
	.st3{fill:none;stroke:#FFFFFF;stroke-width:12;stroke-linecap:round;stroke-linejoin:round;}
</style>
<g>
	<g>
		<path class="st0" d="M328,352.6c-5.5-37.1-36.8-69.2-71.1-73.2c-0.1,0-0.1,0-0.2,0c-0.9-0.1-5.9-0.5-7.9-0.5s-7,0.4-8,0.5
			c-0.1,0-0.1,0-0.2,0c-17.1,2-33,10.4-45.9,24.3c-12,13-20.7,29.7-25.1,48.4c-0.5,1.8,0,3.6,1.1,5.1s2.9,2.3,4.7,2.3h146.7
			c1.7,0,3.3-0.8,4.5-2.1C327.8,356.1,328.3,354.3,328,352.6z M183.3,347.5c9.7-30.9,32.5-53.1,58.6-56.1c2.2-0.2,5.8-0.5,6.9-0.5
			c1.1,0,4.6,0.3,6.8,0.5c27.1,3.1,51.9,27.2,59.2,56.1H183.3z"/>
		<g>
			<path class="st1" d="M251.8,263.9c-0.9-0.5-1.3-0.3-1.2,0h-1.2c0.1-0.3,1.2,0.3-1.7-0.2c0,0,0.1,0.3,1.9,0.3
				C251.5,263.9,251.8,263.9,251.8,263.9L251.8,263.9z"/>
		</g>
		<path class="st0" d="M372.5,388.6H127.6c-3.3,0-6,2.7-6,6v32.9c0,3.3,2.7,6,6,6h244.9c3.3,0,6-2.7,6-6v-32.9
			C378.5,391.3,375.8,388.6,372.5,388.6z M366.5,421.5H133.6v-20.9h232.9V421.5z"/>
		<path class="st0" d="M358.6,373.4c-2.4-28.2-12.8-55.1-29.5-75.8c-12-14.9-26.7-26-42.7-32.2c16-6.3,30.7-17.3,42.7-32.2
			c16.7-20.7,27.2-47.6,29.5-75.8c0.1-1.7-0.5-3.4-1.6-4.6c-1.1-1.2-2.7-1.9-4.4-1.9H147.1c-1.7,0-3.3,0.7-4.4,1.9
			c-1.2,1.3-1.7,2.9-1.6,4.6c2.4,28.2,12.8,55.1,29.5,75.8c12.1,14.9,26.8,25.9,42.8,32.2c-16,6.3-30.7,17.3-42.7,32.2
			c-16.7,20.7-27.2,47.6-29.5,75.8c-0.1,1.7,0.5,3.4,1.6,4.6s2.7,1.9,4.4,1.9h205.5c1.7,0,3.3-0.7,4.3-1.9
			C358.2,376.7,358.7,375.1,358.6,373.4z M153.9,367.9c6.6-50,40.8-90.6,81.6-95.8c3.4-0.4,5.9-3.3,5.9-6.6s-2.5-6.2-5.8-6.6
			c-40.8-5.2-75.1-45.8-81.7-95.8H346c-6.6,49.9-40.9,90.6-81.7,95.8c-3.4,0.4-5.9,3.3-5.9,6.6c0,3.3,2.6,6.2,5.9,6.6
			c40.8,5.1,75.1,45.7,81.7,95.8L153.9,367.9L153.9,367.9z"/>
		<path class="st0" d="M234,270.8L234,270.8L234,270.8z"/>
		<path class="st0" d="M265.9,270.7C265.9,270.8,265.9,270.8,265.9,270.7C265.9,270.8,265.9,270.8,265.9,270.7z"/>
		<path class="st0" d="M234,260.1C234,260.1,234,260.2,234,260.1C234,260.2,234,260.1,234,260.1z"/>
		<path class="st0" d="M265.8,260.1L265.8,260.1L265.8,260.1z"/>
		<path class="st0" d="M372.4,97.7H127.5c-3.3,0-6,2.7-6,6v32.9c0,3.3,2.7,6,6,6h244.9c3.3,0,6-2.7,6-6v-32.9
			C378.4,100.4,375.7,97.7,372.4,97.7z M366.4,130.6H133.5v-20.9h232.9V130.6z"/>
	</g>
	<g>
		<g>
			<path class="st2" d="M0,500"/>
		</g>
		<g>
			<path class="st3" d="M0,500"/>
		</g>
		<g>
			<path class="st3" d="M0,500"/>
		</g>
		<g>
			<path class="st3" d="M0,500"/>
		</g>
		<g>
			<path class="st3" d="M0,500"/>
		</g>
		<g>
			<path class="st3" d="M0,500"/>
		</g>
		<g>
			<path class="st3" d="M0,500"/>
		</g>
		<g>
			<path class="st3" d="M0,500"/>
		</g>
		<g>
			<path class="st3" d="M0,500"/>
		</g>
		<g>
			<path class="st3" d="M0,500"/>
		</g>
		<g>
			<path class="st3" d="M0,500"/>
		</g>
		<g>
			<path class="st3" d="M0,500"/>
		</g>
	</g>
</g>
</svg>
