<?xml version="1.0" encoding="utf-8"?>
<!-- Generator: Adobe Illustrator 27.5.0, SVG Export Plug-In . SVG Version: 6.00 Build 0)  -->
<svg version="1.1" id="Layer_1" xmlns="http://www.w3.org/2000/svg" xmlns:xlink="http://www.w3.org/1999/xlink" x="0px" y="0px"
	 viewBox="0 0 500 500" style="enable-background:new 0 0 500 500;" xml:space="preserve">
<style type="text/css">
	.st0{fill:#FFFFFF;}
	.st1{display:none;fill:none;stroke:#FFFFFF;stroke-width:12.04;stroke-linecap:round;stroke-linejoin:round;}
	.st2{fill:none;stroke:#FFFFFF;stroke-width:12.04;stroke-linecap:round;stroke-linejoin:round;}
</style>
<g>
	<g>
		<g>
			<path class="st0" d="M383.4,389.6h-16.1c-3.3,0-6-2.7-6-6s2.7-6,6-6h10.1v-8.9c0-3.3,2.7-6,6-6s6,2.7,6,6v14.9
				C389.4,386.9,386.7,389.6,383.4,389.6z M341.6,389.6h-16.1c-3.3,0-6-2.7-6-6s2.7-6,6-6h16.1c3.3,0,6,2.7,6,6
				S344.9,389.6,341.6,389.6z M299.8,389.6h-16.1c-3.3,0-6-2.7-6-6s2.7-6,6-6h16.1c3.3,0,6,2.7,6,6S303.1,389.6,299.8,389.6z
				 M258,389.6h-16.1c-3.3,0-6-2.7-6-6s2.7-6,6-6H258c3.3,0,6,2.7,6,6S261.3,389.6,258,389.6z M216.2,389.6h-16.1c-3.3,0-6-2.7-6-6
				s2.7-6,6-6h16.1c3.3,0,6,2.7,6,6S219.5,389.6,216.2,389.6z M174.4,389.6h-16.1c-3.3,0-6-2.7-6-6s2.7-6,6-6h16.1c3.3,0,6,2.7,6,6
				S177.7,389.6,174.4,389.6z M132.7,389.6h-16.1c-3.3,0-6-2.7-6-6v-14.9c0-3.3,2.7-6,6-6s6,2.7,6,6v8.9h10.1c3.3,0,6,2.7,6,6
				S136,389.6,132.7,389.6z M383.4,347.7c-3.3,0-6-2.7-6-6v-16.1c0-3.3,2.7-6,6-6s6,2.7,6,6v16.1C389.4,345,386.7,347.7,383.4,347.7
				z M116.6,347.7c-3.3,0-6-2.7-6-6v-16.1c0-3.3,2.7-6,6-6s6,2.7,6,6v16.1C122.6,345,119.9,347.7,116.6,347.7z M383.4,305.9
				c-3.3,0-6-2.7-6-6v-16.1c0-3.3,2.7-6,6-6s6,2.7,6,6v16.1C389.4,303.2,386.7,305.9,383.4,305.9z M116.6,305.9c-3.3,0-6-2.7-6-6
				v-16.1c0-3.3,2.7-6,6-6s6,2.7,6,6v16.1C122.6,303.2,119.9,305.9,116.6,305.9z M383.4,264.1c-3.3,0-6-2.7-6-6V242c0-3.3,2.7-6,6-6
				s6,2.7,6,6v16.1C389.4,261.4,386.7,264.1,383.4,264.1z M116.6,264.1c-3.3,0-6-2.7-6-6V242c0-3.3,2.7-6,6-6s6,2.7,6,6v16.1
				C122.6,261.4,119.9,264.1,116.6,264.1z M227.3,233.3c-1.5,0-3.1-0.6-4.2-1.8l-64.2-64.2v11.5c0,3.3-2.7,6-6,6s-6-2.7-6-6V153
				c0,0,0,0,0-0.1c0-1.6,0.6-3.1,1.8-4.3c1.5-1.5,3.5-2,5.3-1.7h24.8c3.3,0,6,2.7,6,6s-2.7,6-6,6h-11.3l64.1,64.1
				c2.3,2.3,2.3,6.1,0,8.5C230.4,232.7,228.8,233.3,227.3,233.3z M383.4,222.3c-3.3,0-6-2.7-6-6v-16.1c0-3.3,2.7-6,6-6s6,2.7,6,6
				v16.1C389.4,219.6,386.7,222.3,383.4,222.3z M116.6,222.3c-3.3,0-6-2.7-6-6v-16.1c0-3.3,2.7-6,6-6s6,2.7,6,6v16.1
				C122.6,219.6,119.9,222.3,116.6,222.3z M383.4,180.5c-3.3,0-6-2.7-6-6v-16.1c0-3.3,2.7-6,6-6s6,2.7,6,6v16.1
				C389.4,177.8,386.7,180.5,383.4,180.5z M116.6,180.5c-3.3,0-6-2.7-6-6v-16.1c0-3.3,2.7-6,6-6s6,2.7,6,6v16.1
				C122.6,177.8,119.9,180.5,116.6,180.5z M383.4,137.5c-3.3,0-6-2.7-6-6v-8.9h-10.1c-3.3,0-6-2.7-6-6s2.7-6,6-6h16.1
				c3.3,0,6,2.7,6,6v14.9C389.4,134.8,386.7,137.5,383.4,137.5z M116.6,137.5c-3.3,0-6-2.7-6-6v-14.9c0-3.3,2.7-6,6-6h16.1
				c3.3,0,6,2.7,6,6s-2.7,6-6,6h-10.1v8.9C122.6,134.8,119.9,137.5,116.6,137.5z M341.6,122.6h-16.1c-3.3,0-6-2.7-6-6s2.7-6,6-6
				h16.1c3.3,0,6,2.7,6,6S344.9,122.6,341.6,122.6z M299.9,122.6h-16.1c-3.3,0-6-2.7-6-6s2.7-6,6-6h16.1c3.3,0,6,2.7,6,6
				S303.2,122.6,299.9,122.6z M258.1,122.6H242c-3.3,0-6-2.7-6-6s2.7-6,6-6h16.1c3.3,0,6,2.7,6,6S261.4,122.6,258.1,122.6z
				 M216.3,122.6h-16.1c-3.3,0-6-2.7-6-6s2.7-6,6-6h16.1c3.3,0,6,2.7,6,6S219.6,122.6,216.3,122.6z M174.5,122.6h-16.1
				c-3.3,0-6-2.7-6-6s2.7-6,6-6h16.1c3.3,0,6,2.7,6,6S177.8,122.6,174.5,122.6z"/>
		</g>
		<g>
			<path class="st0" d="M383.4,389.4H250c-3.3,0-6-2.7-6-6V250c0-3.3,2.7-6,6-6h133.4c3.3,0,6,2.7,6,6v133.4
				C389.4,386.7,386.7,389.4,383.4,389.4z M256,377.4h121.4V256H256V377.4z"/>
		</g>
	</g>
	<g>
		<g>
			<path class="st1" d="M0,500"/>
		</g>
		<g>
			<path class="st2" d="M0,500"/>
		</g>
		<g>
			<path class="st2" d="M0,500"/>
		</g>
		<g>
			<path class="st2" d="M0,500"/>
		</g>
		<g>
			<path class="st2" d="M0,500"/>
		</g>
		<g>
			<path class="st2" d="M0,500"/>
		</g>
		<g>
			<path class="st2" d="M0,500"/>
		</g>
		<g>
			<path class="st2" d="M0,500"/>
		</g>
		<g>
			<path class="st2" d="M0,500"/>
		</g>
		<g>
			<path class="st2" d="M0,500"/>
		</g>
		<g>
			<path class="st2" d="M0,500"/>
		</g>
		<g>
			<path class="st2" d="M0,500"/>
		</g>
	</g>
</g>
</svg>
