<?xml version="1.0" encoding="iso-8859-1"?>
<!-- Generator: Adobe Illustrator 29.6.1, SVG Export Plug-In . SVG Version: 9.03 Build 0)  -->
<svg version="1.1" id="Layer_1" xmlns="http://www.w3.org/2000/svg" xmlns:xlink="http://www.w3.org/1999/xlink" x="0px" y="0px"
	 viewBox="0 0 500 500" style="enable-background:new 0 0 500 500;" xml:space="preserve">
<g>
	<g>
		<path style="fill:#FFFFFF;" d="M235.349,199.805c-1.591,0-3.117-0.632-4.243-1.757l-22.57-22.57c-2.343-2.343-2.343-6.142,0-8.485
			s6.142-2.343,8.485,0l18.32,18.321l49.263-49.424c2.339-2.348,6.137-2.353,8.485-0.013c2.347,2.339,2.353,6.138,0.013,8.485
			l-53.504,53.68c-1.125,1.128-2.652,1.763-4.245,1.765C235.352,199.805,235.351,199.805,235.349,199.805z"/>
	</g>
	<g>
		<path style="fill:#FFFFFF;" d="M247.781,263.625c-0.89,0-1.78-0.198-2.602-0.594c-89.957-43.292-88.848-107.769-88.114-150.435
			c0.062-3.63,0.122-7.059,0.122-10.316c0-2.984,2.193-5.514,5.146-5.939c26.191-3.766,82.841-24.155,83.411-24.36
			c1.316-0.475,2.757-0.475,4.076,0c0.569,0.206,57.218,20.595,83.41,24.366c2.952,0.425,5.145,2.956,5.145,5.939
			c0,3.256,0.059,6.685,0.121,10.315c0.734,42.664,1.845,107.137-88.112,150.43C249.56,263.427,248.671,263.625,247.781,263.625z
			 M169.15,107.365c-0.023,1.768-0.054,3.577-0.086,5.438c-0.715,41.529-1.69,98.244,78.717,138.144
			c80.406-39.9,79.431-96.612,78.716-138.139c-0.032-1.861-0.062-3.671-0.086-5.439c-25.809-4.849-68.662-19.827-78.63-23.372
			C237.814,87.542,194.959,102.518,169.15,107.365z"/>
	</g>
	<g>
		<path style="fill:#FFFFFF;" d="M117.496,428.375h-40c-3.314,0-6-2.687-6-6v-120c0-3.313,2.686-6,6-6h40c3.313,0,6,2.687,6,6v5.576
			l36.11-12.896c4.979-1.778,10.184-2.68,15.471-2.68h123.569c15.227,0,27.614,12.388,27.614,27.615c0,0.149-0.001,0.3-0.004,0.448
			l60.813-35.11c6.387-3.688,13.828-4.669,20.954-2.759c7.125,1.909,13.08,6.479,16.768,12.866c3.688,6.388,4.668,13.83,2.76,20.955
			c-1.909,7.125-6.479,13.08-12.866,16.769l-96.033,55.444c-8.5,4.907-18.183,7.502-27.999,7.503H163.859l-40.363,15.523v10.745
			C123.496,425.688,120.81,428.375,117.496,428.375z M83.496,416.375h28v-8.727c-0.002-0.093-0.002-0.185,0-0.276v-90.77
			c-0.002-0.092-0.002-0.184,0-0.275v-7.952h-28V416.375z M123.496,320.693v78.079l37.095-14.267
			c0.688-0.264,1.417-0.399,2.154-0.399h127.907c7.714-0.001,15.321-2.039,22-5.896l96.033-55.444
			c3.612-2.085,6.195-5.452,7.274-9.481c1.08-4.028,0.525-8.237-1.561-11.85c-2.085-3.612-5.452-6.195-9.48-7.275
			c-4.029-1.08-8.237-0.525-11.849,1.561l-73.791,42.604c-5.062,5.689-12.436,9.279-20.633,9.279h-71.15c-3.314,0-6-2.687-6-6
			s2.686-6,6-6h71.15c4.528,0,8.612-1.938,11.467-5.026c0.286-0.462,0.639-0.89,1.053-1.266c1.943-2.604,3.095-5.83,3.095-9.321
			c0-8.61-7.005-15.615-15.614-15.615H175.077c-3.908,0-7.755,0.666-11.435,1.98L123.496,320.693z"/>
	</g>
</g>
</svg>
