<?xml version="1.0" encoding="utf-8"?>
<!-- Generator: Adobe Illustrator 27.5.0, SVG Export Plug-In . SVG Version: 6.00 Build 0)  -->
<svg version="1.1" id="Layer_1" xmlns="http://www.w3.org/2000/svg" xmlns:xlink="http://www.w3.org/1999/xlink" x="0px" y="0px"
	 viewBox="0 0 500 500" style="enable-background:new 0 0 500 500;" xml:space="preserve">
<style type="text/css">
	.st0{clip-path:url(#SVGID_00000017509459706057368180000005591819843157036931_);}
	.st1{fill:#FFFFFF;}
	.st2{display:none;fill:none;stroke:#FFFFFF;stroke-width:3.5;stroke-linecap:round;stroke-linejoin:round;}
	.st3{fill:none;stroke:#FFFFFF;stroke-width:3.5;stroke-linecap:round;stroke-linejoin:round;}
</style>
<g>
	<g>
		<g>
			<g>
				<defs>
					<rect id="SVGID_1_" width="500" height="500"/>
				</defs>
				<clipPath id="SVGID_00000174572580473899802570000008243272430323556511_">
					<use xlink:href="#SVGID_1_"  style="overflow:visible;"/>
				</clipPath>
				<g style="clip-path:url(#SVGID_00000174572580473899802570000008243272430323556511_);">
					<g>
						<g>
							<path class="st1" d="M312.2,404.5L312.2,404.5l-124.3-0.2c-29.5,0-53.5-24-53.5-53.5l-0.1-118.7c0-1.7,0.7-3.3,1.9-4.5
								s2.8-1.9,4.5-1.9l0,0h20.7v-61.5c0-37.9,30.9-68.8,68.8-68.8h39.5c37.9,0,68.8,30.9,68.8,68.8v61.6h20.6
								c3.5,0,6.4,2.9,6.4,6.4l0.1,118.7C365.7,380.5,341.7,404.5,312.2,404.5z M147.1,238.5l0.1,112.3c0,22.5,18.3,40.7,40.7,40.7
								l124.3,0.2c22.4,0,40.7-18.3,40.7-40.7l-0.1-112.3L147.1,238.5z M174.2,225.7l151.5,0.1v-61.6c0-30.9-25.1-56-56-56h-39.5
								c-30.9,0-56,25.1-56,56L174.2,225.7L174.2,225.7z"/>
						</g>
						<g>
							<path class="st1" d="M279.5,350.5H221c-3.5,0-6.4-2.9-6.4-6.4v-58.4c0-3.5,2.9-6.4,6.4-6.4h58.4c3.5,0,6.4,2.9,6.4,6.4v58.4
								C285.9,347.6,283,350.5,279.5,350.5z M227.5,337.7h45.6V292h-45.6V337.7z"/>
						</g>
					</g>
					<g>
						<g>
							<path class="st2" d="M0,500"/>
						</g>
						<g>
							<path class="st3" d="M0,500"/>
						</g>
						<g>
							<path class="st3" d="M0,500"/>
						</g>
						<g>
							<path class="st3" d="M0,500"/>
						</g>
						<g>
							<path class="st3" d="M0,500"/>
						</g>
						<g>
							<path class="st3" d="M0,500"/>
						</g>
						<g>
							<path class="st3" d="M0,500"/>
						</g>
						<g>
							<path class="st3" d="M0,500"/>
						</g>
						<g>
							<path class="st3" d="M0,500"/>
						</g>
						<g>
							<path class="st3" d="M0,500"/>
						</g>
						<g>
							<path class="st3" d="M0,500"/>
						</g>
						<g>
							<path class="st3" d="M0,500"/>
						</g>
					</g>
				</g>
			</g>
		</g>
	</g>
</g>
</svg>
