<?xml version="1.0" encoding="iso-8859-1"?>
<!-- Generator: Adobe Illustrator 29.6.1, SVG Export Plug-In . SVG Version: 9.03 Build 0)  -->
<svg version="1.1" id="Layer_1" xmlns="http://www.w3.org/2000/svg" xmlns:xlink="http://www.w3.org/1999/xlink" x="0px" y="0px"
	 viewBox="0 0 500 500" style="enable-background:new 0 0 500 500;" xml:space="preserve">
<g>
	<defs>
		<filter id="Adobe_OpacityMaskFilter" filterUnits="userSpaceOnUse" x="68.999" y="64" width="332.003" height="332">
			<feColorMatrix  type="matrix" values="1 0 0 0 0  0 1 0 0 0  0 0 1 0 0  0 0 0 1 0"/>
		</filter>
	</defs>
	
		<mask maskUnits="userSpaceOnUse" x="68.999" y="64" width="332.003" height="332" id="VOB2diMcj0a_00000078046473958308879930000016853060753384985516_">
		<path style="fill-rule:evenodd;clip-rule:evenodd;fill:#FFFFFF;filter:url(#Adobe_OpacityMaskFilter);" d="M66.451,58.763h337.502
			v245.594C383.268,298.531,360,290,360,290s-44.032,16.145-64.8,19.177c0,2.573-0.046,5.281-0.094,8.104
			c-0.395,23.308-0.922,54.446,23.157,82.136H66.451V58.763z M294.83,175.694L135,110.754l49.925-20.345l159.905,64.965v73.285
			l-25,30.162l-25-9.838L294.83,175.694z"/>
		<path style="fill:#FFFFFF;" d="M401.737,399.417h2.216v-2.643C403.231,397.668,402.492,398.55,401.737,399.417"/>
	</mask>
	<g style="mask:url(#VOB2diMcj0a_00000078046473958308879930000016853060753384985516_);">
		<g>
			<path style="fill:#FFFFFF;" d="M235.001,396c-0.78,0-1.557-0.152-2.284-0.451l-159.975-64.99C70.48,329.64,69,327.442,69,325V135
				c0-1.997,0.993-3.862,2.649-4.978c1.657-1.114,3.759-1.332,5.609-0.581L235,193.524l157.741-64.083
				c1.851-0.752,3.952-0.534,5.609,0.581c1.656,1.115,2.649,2.981,2.649,4.978v190c0,2.441-1.479,4.64-3.742,5.559l-160,65
				C236.531,395.855,235.764,396,235.001,396z M241,204.039v177.047l148-60.125V143.914L241,204.039z M81,320.961l148,60.125
				V204.039L81,143.914V320.961z"/>
		</g>
		<g>
			<path style="fill:#FFFFFF;" d="M394.998,141.002c-0.752,0-1.517-0.142-2.256-0.443L235.004,76.478l-102.569,41.8l-55.188,22.286
				c-3.07,1.242-6.569-0.244-7.81-3.317s0.244-6.569,3.317-7.81l55.17-22.279l104.812-42.714c1.449-0.592,3.071-0.592,4.522-0.002
				l160,65c3.07,1.247,4.548,4.747,3.301,7.817C399.613,139.589,397.368,141.002,394.998,141.002z"/>
		</g>
	</g>
	<g>
		<path style="fill:#FFFFFF;" d="M360,436c-0.901,0-1.803-0.203-2.634-0.609c-30.68-14.991-50.448-34.441-60.438-59.464
			c-8.458-21.186-8.104-42.013-7.821-58.748c0.048-2.818,0.093-5.479,0.093-8.002c0-2.979,2.186-5.507,5.133-5.938
			c19.912-2.907,63.167-18.713,63.602-18.873c1.334-0.488,2.797-0.488,4.131,0c0.435,0.16,43.689,15.967,63.603,18.878
			c2.947,0.431,5.132,2.958,5.132,5.937c0,2.521,0.045,5.184,0.093,8.001c0.283,16.734,0.637,37.561-7.821,58.746
			c-9.989,25.021-29.758,44.472-60.438,59.463C361.803,435.797,360.902,436,360,436z M301.158,314.22
			c-0.016,1.034-0.033,2.087-0.052,3.162c-0.539,31.839-1.279,75.276,58.895,105.913c60.174-30.637,59.434-74.072,58.895-105.91
			c-0.019-1.075-0.036-2.128-0.052-3.162c-19.574-3.926-50.512-14.842-58.843-17.841C351.67,299.381,320.733,310.296,301.158,314.22
			z M319.829,264.822c-0.736,0-1.48-0.136-2.195-0.417l-25-9.838c-2.294-0.902-3.803-3.117-3.803-5.583v-69.251l-156.088-63.42
			c-2.261-0.918-3.74-3.115-3.742-5.556s1.476-4.638,3.736-5.559l49.925-20.345c1.449-0.592,3.072-0.592,4.522-0.002l159.906,64.965
			c2.262,0.919,3.741,3.117,3.741,5.559v73.285c0,1.398-0.488,2.752-1.381,3.829l-25,30.162
			C323.286,264.055,321.579,264.822,319.829,264.822z M300.83,244.897l17.153,6.75l20.847-25.151v-67.083L184.929,96.887
			l-34.009,13.859l146.169,59.39c2.262,0.919,3.741,3.117,3.741,5.559V244.897z"/>
	</g>
	<g>
		<path style="fill:#FFFFFF;" d="M351.167,386c-0.001,0-0.002,0-0.003,0c-1.623-0.001-3.177-0.659-4.307-1.825l-16.167-16.688
			c-2.306-2.38-2.245-6.179,0.135-8.484c2.38-2.307,6.181-2.244,8.484,0.135l11.862,12.244l34.523-35.562
			c2.307-2.376,6.106-2.433,8.484-0.125c2.377,2.308,2.434,6.106,0.125,8.484l-38.833,40C354.342,385.343,352.789,386,351.167,386z"
			/>
	</g>
</g>
</svg>
