<?xml version="1.0" encoding="iso-8859-1"?>
<!-- Generator: Adobe Illustrator 29.6.1, SVG Export Plug-In . SVG Version: 9.03 Build 0)  -->
<svg version="1.1" id="Layer_1" xmlns="http://www.w3.org/2000/svg" xmlns:xlink="http://www.w3.org/1999/xlink" x="0px" y="0px"
	 viewBox="0 0 500 500" style="enable-background:new 0 0 500 500;" xml:space="preserve">
<g>
	<g>
		<path style="fill:#FFFFFF;" d="M301.2,176H198.3c-19.078,0-34.6-15.521-34.6-34.6v-0.8h-5.1c-11.91,0-21.6-9.69-21.6-21.6V90
			c0-3.313,2.687-6,6-6h213.5c3.313,0,6,2.687,6,6v29c0,11.91-9.689,21.6-21.6,21.6h-5.1v0.8C335.8,160.479,320.278,176,301.2,176z
			 M175.7,140.6v0.8c0,12.462,10.138,22.6,22.6,22.6h102.9c12.462,0,22.6-10.138,22.6-22.6v-0.8H175.7z M329.8,128.6h11.1
			c5.293,0,9.6-4.307,9.6-9.6V96H149v23c0,5.293,4.307,9.6,9.6,9.6H329.8z"/>
	</g>
	<g>
		<path style="fill:#FFFFFF;" d="M210.404,330.001c-0.486,0-0.979-0.059-1.472-0.184c-22.889-5.772-43.86-16.032-62.332-30.493
			c-2.609-2.043-3.068-5.814-1.026-8.423c2.043-2.609,5.815-3.068,8.423-1.026c17.145,13.422,36.614,22.946,57.869,28.308
			c3.213,0.81,5.161,4.071,4.351,7.285C215.531,328.188,213.088,330.001,210.404,330.001z M289.095,330.001
			c-2.693,0-5.143-1.826-5.819-4.559c-0.797-3.216,1.165-6.47,4.382-7.267c21.06-5.217,40.521-14.739,57.845-28.301
			c2.609-2.042,6.379-1.583,8.423,1.026c2.043,2.608,1.583,6.38-1.026,8.423c-18.663,14.611-39.643,24.873-62.356,30.5
			C290.059,329.944,289.572,330.001,289.095,330.001z M249.7,281c-25.637,0-49.841-8.324-69.995-24.072
			c-2.611-2.04-3.074-5.811-1.034-8.422c2.041-2.612,5.81-3.073,8.422-1.034C205.118,261.556,226.767,269,249.7,269
			s44.583-7.444,62.605-21.527c2.609-2.042,6.382-1.579,8.422,1.033c2.041,2.611,1.578,6.382-1.033,8.422
			C299.541,272.676,275.338,281,249.7,281z M249.7,227.2c-13.394,0-26.142-4.375-36.866-12.65c-2.624-2.024-3.109-5.792-1.084-8.416
			s5.793-3.108,8.416-1.084c8.605,6.641,18.818,10.15,29.535,10.15c10.771,0,21.24-3.589,29.478-10.106
			c2.599-2.056,6.373-1.616,8.428,0.983c2.057,2.599,1.616,6.372-0.982,8.428C276.276,222.692,263.163,227.2,249.7,227.2z"/>
	</g>
	<g>
		<path style="fill:#FFFFFF;" d="M249.7,416.3c-32.037,0-58.1-26.063-58.1-58.1s26.063-58.101,58.1-58.101
			c32.036,0,58.1,26.063,58.1,58.101C307.8,390.236,281.736,416.3,249.7,416.3z M249.7,312.1c-25.42,0-46.1,20.681-46.1,46.101
			c0,25.419,20.68,46.1,46.1,46.1c25.419,0,46.1-20.681,46.1-46.1C295.8,332.78,275.119,312.1,249.7,312.1z"/>
	</g>
	<g>
		<path style="fill:#FFFFFF;" d="M220.3,364.2c-3.313,0-6-2.687-6-6c0-19.52,15.88-35.4,35.4-35.4c3.313,0,6,2.687,6,6s-2.687,6-6,6
			c-12.903,0-23.4,10.497-23.4,23.4C226.3,361.514,223.613,364.2,220.3,364.2z"/>
	</g>
</g>
<g>
	<rect x="50" y="50" style="fill:none;" width="400" height="400"/>
</g>
</svg>
