<?xml version="1.0" encoding="iso-8859-1"?>
<!-- Generator: Adobe Illustrator 29.6.1, SVG Export Plug-In . SVG Version: 9.03 Build 0)  -->
<svg version="1.1" id="Layer_1" xmlns="http://www.w3.org/2000/svg" xmlns:xlink="http://www.w3.org/1999/xlink" x="0px" y="0px"
	 viewBox="0 0 500 500" style="enable-background:new 0 0 500 500;" xml:space="preserve">
<g>
	<path style="fill:#FFFFFF;" d="M272.101,414.201c-0.083,0-0.166-0.002-0.25-0.005c-2.483-0.103-4.646-1.727-5.439-4.083
		l-44.361-131.91l-132.52-46.034c-2.343-0.814-3.944-2.986-4.028-5.466c-0.083-2.479,1.367-4.754,3.65-5.724L406.024,86.333
		c0.543-0.246,1.114-0.406,1.695-0.482c0.001,0.002,0.007-0.001,0.012-0.001c0.392-0.052,0.785-0.063,1.177-0.036
		c0.004,0,0.008,0,0.012,0.001l0,0c1.349,0.094,2.671,0.642,3.72,1.643c0.039,0.037,0.076,0.074,0.114,0.111
		c0.027,0.027,0.055,0.055,0.081,0.083c0.003,0.003,0.006,0.006,0.009,0.009l0,0c1.009,1.058,1.557,2.393,1.644,3.752
		c0,0.002,0.001,0.005,0.001,0.007c0,0.001,0,0.002,0,0.003c0.024,0.381,0.012,0.765-0.038,1.147c0,0.001,0,0.002,0,0.003
		s0,0.002-0.001,0.004c-0.076,0.592-0.241,1.174-0.495,1.726L277.609,410.576C276.658,412.782,274.487,414.201,272.101,414.201z
		 M233.672,275.113l39.12,116.325l117.793-273.237L233.672,275.113z M108.165,225.938l117.051,40.661l157.193-157.193
		L108.165,225.938z"/>
</g>
</svg>
