<?xml version="1.0" encoding="utf-8"?>
<!-- Generator: Adobe Illustrator 27.5.0, SVG Export Plug-In . SVG Version: 6.00 Build 0)  -->
<svg version="1.1" id="Layer_1" xmlns="http://www.w3.org/2000/svg" xmlns:xlink="http://www.w3.org/1999/xlink" x="0px" y="0px"
	 viewBox="0 0 500 500" style="enable-background:new 0 0 500 500;" xml:space="preserve">
<style type="text/css">
	.st0{clip-path:url(#SVGID_00000123434062295894747520000012945624455690262424_);}
	.st1{fill:#FFFFFF;}
	.st2{fill:none;}
	.st3{display:none;fill:none;stroke:#FFFFFF;stroke-width:10.472;}
	.st4{fill:none;stroke:#FFFFFF;stroke-width:10.472;}
</style>
<g>
	<g>
		<g>
			<g>
				<defs>
					<rect id="SVGID_1_" width="500" height="500"/>
				</defs>
				<clipPath id="SVGID_00000149380420838556997860000008430846692967576973_">
					<use xlink:href="#SVGID_1_"  style="overflow:visible;"/>
				</clipPath>
				<g style="clip-path:url(#SVGID_00000149380420838556997860000008430846692967576973_);">
					<g>
						<path class="st1" d="M409,374.4H288.3c-24.2,0-43.9-17.5-43.9-38.9v-32.4h13.1v32.4c0,14.3,13.8,25.9,30.9,25.9H409V374.4z"/>
					</g>
					<g>
						<path class="st1" d="M211.7,374.4H91.1v-13.1h120.6c17,0,30.9-11.6,30.9-25.9V303h13.1v32.4
							C255.6,357,235.9,374.4,211.7,374.4z"/>
					</g>
					<g>
						<g>
							<path class="st1" d="M378.1,378.3h-0.4c-5.8,0-10.5-4.7-10.5-10.5s4.7-10.5,10.5-10.5h0.4c5.8,0,10.5,4.7,10.5,10.5
								S383.8,378.3,378.1,378.3z M318.2,378.3h-0.4c-5.8,0-10.5-4.7-10.5-10.5s4.7-10.5,10.5-10.5h0.4c5.8,0,10.5,4.7,10.5,10.5
								S324,378.3,318.2,378.3z M261.1,367.6c-2.6,0-5.2-1-7.2-2.9l-0.4-0.3c-4.1-4-4.2-10.7-0.2-14.8c4-4.1,10.7-4.2,14.8-0.2
								l0.2,0.2c4.2,4,4.3,10.6,0.3,14.8C266.6,366.5,263.9,367.6,261.1,367.6z M250.9,310.6c-5.8,0-10.5-4.7-10.5-10.5v-0.4
								c0-5.8,4.7-10.5,10.5-10.5c5.8,0,10.5,4.7,10.5,10.5v0.4C261.4,306,256.7,310.6,250.9,310.6z"/>
						</g>
						<g>
							<path class="st1" d="M250.4,315.1c-13.5,0-24.4-11-24.4-24.4c0-0.5,0-1,0.1-1.5c0-0.3,0-0.6,0-0.9h10.5c0,0.5,0,1-0.1,1.5
								c0,0.3,0,0.6,0,0.9c0,7.7,6.3,14,14,14c7.7,0,14-6.3,14-14v-1.2H275v1.2C274.8,304.2,263.9,315.1,250.4,315.1z"/>
						</g>
						<g>
							<path class="st1" d="M418.4,387.7c-1.7,0.4-3.5,0.7-5.2,0.7c-11.6,0-21-9.4-21-21s9.4-21,21-21c1.8,0,3.6,0.2,5.2,0.7"/>
						</g>
					</g>
					<g>
						<g>
							<path class="st1" d="M182.1,378.3h-0.4c-5.8,0-10.5-4.7-10.5-10.5s4.7-10.5,10.5-10.5h0.4c5.8,0,10.5,4.7,10.5,10.5
								S187.9,378.3,182.1,378.3z M122.3,378.3h-0.4c-5.8,0-10.5-4.7-10.5-10.5s4.7-10.5,10.5-10.5h0.4c5.8,0,10.5,4.7,10.5,10.5
								S128.1,378.3,122.3,378.3z M238.9,367.6c-2.8,0-5.5-1.1-7.6-3.2c-4-4.2-3.9-10.8,0.3-14.8l0.2-0.2c4.1-4.1,10.8-4,14.8,0.1
								c4.1,4.1,4,10.8-0.1,14.8l-0.4,0.4C244.1,366.7,241.5,367.6,238.9,367.6z M249.1,310.6c-5.8,0-10.5-4.7-10.5-10.5v-0.4
								c0-5.8,4.7-10.5,10.5-10.5s10.5,4.7,10.5,10.5v0.4C259.6,306,254.9,310.6,249.1,310.6z"/>
						</g>
						<g>
							<path class="st1" d="M230.5,288.3c-0.1,0.8-0.1,1.6-0.1,2.4c0,10.6,8.6,19.2,19.2,19.2s19.2-8.6,19.2-19.2c0-0.4,0-0.8,0-1.2
								"/>
						</g>
						<g>
							<path class="st1" d="M249.6,315.1c-13.5,0-24.4-11-24.4-24.4c0-0.9,0-1.9,0.1-3.1l10.4,1.3c-0.1,0.5-0.1,1.1-0.1,1.8
								c0,7.7,6.3,14,14,14c7.7,0,14-6.3,14-14v-1.2H274v1.2C274,304.2,263.1,315.1,249.6,315.1z"/>
						</g>
						<g>
							<path class="st1" d="M80.3,387.4c2.1,0.7,4.3,1,6.5,1c11.6,0,21-9.4,21-21s-9.4-21-21-21c-2.3,0-4.5,0.4-6.5,1"/>
						</g>
					</g>
					<g>
						<path class="st1" d="M394,295.3H106.2c-11.6,0-21-9.4-21-21v-48.5c0-11.6,9.4-21,21-21H394c11.6,0,21,9.4,21,21v48.5
							C415,285.9,405.6,295.3,394,295.3z M106.2,216.8c-5,0-9,4-9,9v48.5c0,5,4,9,9,9H394c5,0,9-4,9-9v-48.5c0-5-4-9-9-9
							L106.2,216.8L106.2,216.8z"/>
					</g>
					<g>
						<g>
							<path class="st1" d="M241.6,233.2c4.1,0,7.5,3.2,7.5,7.2s-3.4,7.2-7.5,7.2s-7.5-3.2-7.5-7.2S237.5,233.2,241.6,233.2z"/>
						</g>
						<g>
							<path class="st2" d="M241.6,233.2c4.1,0,7.5,3.2,7.5,7.2s-3.4,7.2-7.5,7.2s-7.5-3.2-7.5-7.2S237.5,233.2,241.6,233.2z"/>
						</g>
						<g>
							<path class="st1" d="M265,233.2c4.1,0,7.5,3.2,7.5,7.2s-3.4,7.2-7.5,7.2s-7.5-3.2-7.5-7.2S260.8,233.2,265,233.2z"/>
						</g>
						<g>
							<path class="st2" d="M265,233.2c4.1,0,7.5,3.2,7.5,7.2s-3.4,7.2-7.5,7.2s-7.5-3.2-7.5-7.2S260.8,233.2,265,233.2z"/>
						</g>
						<g>
							<path class="st1" d="M288.3,233.2c4.1,0,7.5,3.2,7.5,7.2s-3.4,7.2-7.5,7.2s-7.5-3.2-7.5-7.2
								C280.9,236.4,284.2,233.2,288.3,233.2z"/>
						</g>
						<g>
							<path class="st2" d="M288.3,233.2c4.1,0,7.5,3.2,7.5,7.2s-3.4,7.2-7.5,7.2s-7.5-3.2-7.5-7.2
								C280.9,236.4,284.2,233.2,288.3,233.2z"/>
						</g>
						<g>
							<path class="st1" d="M311.7,233.2c4.1,0,7.5,3.2,7.5,7.2s-3.4,7.2-7.5,7.2s-7.5-3.2-7.5-7.2S307.6,233.2,311.7,233.2z"/>
						</g>
						<g>
							<path class="st1" d="M311.7,233.2c4.1,0,7.5,3.2,7.5,7.2s-3.4,7.2-7.5,7.2s-7.5-3.2-7.5-7.2S307.6,233.2,311.7,233.2z"/>
						</g>
						<g>
							<path class="st2" d="M311.7,233.2c4.1,0,7.5,3.2,7.5,7.2s-3.4,7.2-7.5,7.2s-7.5-3.2-7.5-7.2S307.6,233.2,311.7,233.2z"/>
						</g>
						<g>
							<path class="st1" d="M335.1,233.2c4.1,0,7.5,3.2,7.5,7.2s-3.4,7.2-7.5,7.2s-7.5-3.2-7.5-7.2S331,233.2,335.1,233.2z"/>
						</g>
						<g>
							<path class="st2" d="M335.1,233.2c4.1,0,7.5,3.2,7.5,7.2s-3.4,7.2-7.5,7.2s-7.5-3.2-7.5-7.2S331,233.2,335.1,233.2z"/>
						</g>
						<g>
							<path class="st1" d="M358.5,233.2c4.1,0,7.5,3.2,7.5,7.2s-3.4,7.2-7.5,7.2s-7.5-3.2-7.5-7.2S354.3,233.2,358.5,233.2z"/>
						</g>
						<g>
							<path class="st2" d="M358.5,233.2c4.1,0,7.5,3.2,7.5,7.2s-3.4,7.2-7.5,7.2s-7.5-3.2-7.5-7.2S354.3,233.2,358.5,233.2z"/>
						</g>
						<g>
							<path class="st1" d="M381.8,233.2c4.1,0,7.5,3.2,7.5,7.2s-3.4,7.2-7.5,7.2s-7.5-3.2-7.5-7.2
								C374.4,236.4,377.7,233.2,381.8,233.2z"/>
						</g>
						<g>
							<path class="st2" d="M381.8,233.2c4.1,0,7.5,3.2,7.5,7.2s-3.4,7.2-7.5,7.2s-7.5-3.2-7.5-7.2
								C374.4,236.4,377.7,233.2,381.8,233.2z"/>
						</g>
						<g>
							<path class="st1" d="M241.6,256.6c4.1,0,7.5,3.2,7.5,7.2s-3.4,7.2-7.5,7.2s-7.5-3.2-7.5-7.2
								C234.1,259.8,237.5,256.6,241.6,256.6L241.6,256.6z"/>
						</g>
						<g>
							<path class="st2" d="M241.6,256.6c4.1,0,7.5,3.2,7.5,7.2s-3.4,7.2-7.5,7.2s-7.5-3.2-7.5-7.2
								C234.1,259.8,237.5,256.6,241.6,256.6L241.6,256.6z"/>
						</g>
						<g>
							<path class="st1" d="M265,256.6c4.1,0,7.5,3.2,7.5,7.2s-3.4,7.2-7.5,7.2s-7.5-3.2-7.5-7.2C257.5,259.8,260.8,256.6,265,256.6
								L265,256.6z"/>
						</g>
						<g>
							<path class="st2" d="M265,256.6c4.1,0,7.5,3.2,7.5,7.2s-3.4,7.2-7.5,7.2s-7.5-3.2-7.5-7.2C257.5,259.8,260.8,256.6,265,256.6
								L265,256.6z"/>
						</g>
						<g>
							<path class="st1" d="M288.3,256.6c4.1,0,7.5,3.2,7.5,7.2s-3.4,7.2-7.5,7.2s-7.5-3.2-7.5-7.2
								C280.9,259.8,284.2,256.6,288.3,256.6L288.3,256.6z"/>
						</g>
						<g>
							<path class="st2" d="M288.3,256.6c4.1,0,7.5,3.2,7.5,7.2s-3.4,7.2-7.5,7.2s-7.5-3.2-7.5-7.2
								C280.9,259.8,284.2,256.6,288.3,256.6L288.3,256.6z"/>
						</g>
						<g>
							<path class="st1" d="M311.7,256.6c4.1,0,7.5,3.2,7.5,7.2s-3.4,7.2-7.5,7.2s-7.5-3.2-7.5-7.2
								C304.2,259.8,307.6,256.6,311.7,256.6L311.7,256.6z"/>
						</g>
						<g>
							<path class="st2" d="M311.7,256.6c4.1,0,7.5,3.2,7.5,7.2s-3.4,7.2-7.5,7.2s-7.5-3.2-7.5-7.2
								C304.2,259.8,307.6,256.6,311.7,256.6L311.7,256.6z"/>
						</g>
						<g>
							<path class="st1" d="M335.1,256.6c4.1,0,7.5,3.2,7.5,7.2s-3.4,7.2-7.5,7.2s-7.5-3.2-7.5-7.2
								C327.6,259.8,331,256.6,335.1,256.6L335.1,256.6z"/>
						</g>
						<g>
							<path class="st2" d="M335.1,256.6c4.1,0,7.5,3.2,7.5,7.2s-3.4,7.2-7.5,7.2s-7.5-3.2-7.5-7.2
								C327.6,259.8,331,256.6,335.1,256.6L335.1,256.6z"/>
						</g>
						<g>
							<path class="st1" d="M358.5,256.6c4.1,0,7.5,3.2,7.5,7.2s-3.4,7.2-7.5,7.2s-7.5-3.2-7.5-7.2
								C351,259.8,354.3,256.6,358.5,256.6L358.5,256.6z"/>
						</g>
						<g>
							<path class="st2" d="M358.5,256.6c4.1,0,7.5,3.2,7.5,7.2s-3.4,7.2-7.5,7.2s-7.5-3.2-7.5-7.2
								C351,259.8,354.3,256.6,358.5,256.6L358.5,256.6z"/>
						</g>
						<g>
							<path class="st1" d="M381.8,256.6c4.1,0,7.5,3.2,7.5,7.2s-3.4,7.2-7.5,7.2s-7.5-3.2-7.5-7.2
								C374.4,259.8,377.7,256.6,381.8,256.6L381.8,256.6z"/>
						</g>
						<g>
							<path class="st2" d="M381.8,256.6c4.1,0,7.5,3.2,7.5,7.2s-3.4,7.2-7.5,7.2s-7.5-3.2-7.5-7.2
								C374.4,259.8,377.7,256.6,381.8,256.6L381.8,256.6z"/>
						</g>
						<g>
							<path class="st1" d="M136.9,272.9c-11.6,0-21-9.4-21-21s9.4-21,21-21s21,9.4,21,21S148.5,272.9,136.9,272.9z M136.9,242.9
								c-5,0-9,4-9,9s4,9,9,9s9-4,9-9S141.9,242.9,136.9,242.9z"/>
						</g>
					</g>
					<g>
						<path class="st1" d="M394,216.7H106.2c-11.6,0-21-9.4-21-21v-48.5c0-11.6,9.4-21,21-21H394c11.6,0,21,9.4,21,21v48.5
							C415,207.3,405.6,216.7,394,216.7z M106.2,138.2c-5,0-9,4-9,9v48.5c0,5,4,9,9,9H394c5,0,9-4,9-9v-48.5c0-5-4-9-9-9H106.2z"/>
					</g>
					<g>
						<g>
							<path class="st1" d="M241.6,154.7c4.1,0,7.5,3.2,7.5,7.2s-3.4,7.2-7.5,7.2s-7.5-3.2-7.5-7.2S237.5,154.7,241.6,154.7z"/>
						</g>
						<g>
							<path class="st2" d="M241.6,154.7c4.1,0,7.5,3.2,7.5,7.2s-3.4,7.2-7.5,7.2s-7.5-3.2-7.5-7.2S237.5,154.7,241.6,154.7z"/>
						</g>
						<g>
							<path class="st1" d="M265,154.7c4.1,0,7.5,3.2,7.5,7.2s-3.4,7.2-7.5,7.2s-7.5-3.2-7.5-7.2S260.8,154.7,265,154.7z"/>
						</g>
						<g>
							<path class="st2" d="M265,154.7c4.1,0,7.5,3.2,7.5,7.2s-3.4,7.2-7.5,7.2s-7.5-3.2-7.5-7.2S260.8,154.7,265,154.7z"/>
						</g>
						<g>
							<path class="st1" d="M288.3,154.7c4.1,0,7.5,3.2,7.5,7.2s-3.4,7.2-7.5,7.2s-7.5-3.2-7.5-7.2
								C280.9,157.9,284.2,154.7,288.3,154.7z"/>
						</g>
						<g>
							<path class="st2" d="M288.3,154.7c4.1,0,7.5,3.2,7.5,7.2s-3.4,7.2-7.5,7.2s-7.5-3.2-7.5-7.2
								C280.9,157.9,284.2,154.7,288.3,154.7z"/>
						</g>
						<g>
							<path class="st1" d="M311.7,154.7c4.1,0,7.5,3.2,7.5,7.2s-3.4,7.2-7.5,7.2s-7.5-3.2-7.5-7.2S307.6,154.7,311.7,154.7z"/>
						</g>
						<g>
							<path class="st2" d="M311.7,154.7c4.1,0,7.5,3.2,7.5,7.2s-3.4,7.2-7.5,7.2s-7.5-3.2-7.5-7.2S307.6,154.7,311.7,154.7z"/>
						</g>
						<g>
							<path class="st1" d="M335.1,154.7c4.1,0,7.5,3.2,7.5,7.2s-3.4,7.2-7.5,7.2s-7.5-3.2-7.5-7.2S331,154.7,335.1,154.7z"/>
						</g>
						<g>
							<path class="st2" d="M335.1,154.7c4.1,0,7.5,3.2,7.5,7.2s-3.4,7.2-7.5,7.2s-7.5-3.2-7.5-7.2S331,154.7,335.1,154.7z"/>
						</g>
						<g>
							<path class="st1" d="M358.5,154.7c4.1,0,7.5,3.2,7.5,7.2s-3.4,7.2-7.5,7.2s-7.5-3.2-7.5-7.2S354.3,154.7,358.5,154.7z"/>
						</g>
						<g>
							<path class="st2" d="M358.5,154.7c4.1,0,7.5,3.2,7.5,7.2s-3.4,7.2-7.5,7.2s-7.5-3.2-7.5-7.2S354.3,154.7,358.5,154.7z"/>
						</g>
						<g>
							<path class="st1" d="M381.8,154.7c4.1,0,7.5,3.2,7.5,7.2s-3.4,7.2-7.5,7.2s-7.5-3.2-7.5-7.2
								C374.4,157.9,377.7,154.7,381.8,154.7z"/>
						</g>
						<g>
							<path class="st2" d="M381.8,154.7c4.1,0,7.5,3.2,7.5,7.2s-3.4,7.2-7.5,7.2s-7.5-3.2-7.5-7.2
								C374.4,157.9,377.7,154.7,381.8,154.7z"/>
						</g>
						<g>
							<path class="st1" d="M241.6,178c4.1,0,7.5,3.2,7.5,7.2s-3.4,7.2-7.5,7.2s-7.5-3.2-7.5-7.2C234.1,181.3,237.5,178,241.6,178
								L241.6,178z"/>
						</g>
						<g>
							<path class="st2" d="M241.6,178c4.1,0,7.5,3.2,7.5,7.2s-3.4,7.2-7.5,7.2s-7.5-3.2-7.5-7.2C234.1,181.3,237.5,178,241.6,178
								L241.6,178z"/>
						</g>
						<g>
							<path class="st1" d="M265,178c4.1,0,7.5,3.2,7.5,7.2s-3.4,7.2-7.5,7.2s-7.5-3.2-7.5-7.2C257.5,181.3,260.8,178,265,178
								L265,178z"/>
						</g>
						<g>
							<path class="st2" d="M265,178c4.1,0,7.5,3.2,7.5,7.2s-3.4,7.2-7.5,7.2s-7.5-3.2-7.5-7.2C257.5,181.3,260.8,178,265,178
								L265,178z"/>
						</g>
						<g>
							<path class="st1" d="M288.3,178c4.1,0,7.5,3.2,7.5,7.2s-3.4,7.2-7.5,7.2s-7.5-3.2-7.5-7.2C280.9,181.3,284.2,178,288.3,178
								L288.3,178z"/>
						</g>
						<g>
							<path class="st2" d="M288.3,178c4.1,0,7.5,3.2,7.5,7.2s-3.4,7.2-7.5,7.2s-7.5-3.2-7.5-7.2C280.9,181.3,284.2,178,288.3,178
								L288.3,178z"/>
						</g>
						<g>
							<path class="st1" d="M311.7,178c4.1,0,7.5,3.2,7.5,7.2s-3.4,7.2-7.5,7.2s-7.5-3.2-7.5-7.2C304.2,181.3,307.6,178,311.7,178
								L311.7,178z"/>
						</g>
						<g>
							<path class="st2" d="M311.7,178c4.1,0,7.5,3.2,7.5,7.2s-3.4,7.2-7.5,7.2s-7.5-3.2-7.5-7.2C304.2,181.3,307.6,178,311.7,178
								L311.7,178z"/>
						</g>
						<g>
							<path class="st1" d="M335.1,178c4.1,0,7.5,3.2,7.5,7.2s-3.4,7.2-7.5,7.2s-7.5-3.2-7.5-7.2C327.6,181.3,331,178,335.1,178
								L335.1,178z"/>
						</g>
						<g>
							<path class="st2" d="M335.1,178c4.1,0,7.5,3.2,7.5,7.2s-3.4,7.2-7.5,7.2s-7.5-3.2-7.5-7.2C327.6,181.3,331,178,335.1,178
								L335.1,178z"/>
						</g>
						<g>
							<path class="st1" d="M358.5,178c4.1,0,7.5,3.2,7.5,7.2s-3.4,7.2-7.5,7.2s-7.5-3.2-7.5-7.2C351,181.3,354.3,178,358.5,178
								L358.5,178z"/>
						</g>
						<g>
							<path class="st2" d="M358.5,178c4.1,0,7.5,3.2,7.5,7.2s-3.4,7.2-7.5,7.2s-7.5-3.2-7.5-7.2C351,181.3,354.3,178,358.5,178
								L358.5,178z"/>
						</g>
						<g>
							<path class="st1" d="M381.8,178c4.1,0,7.5,3.2,7.5,7.2s-3.4,7.2-7.5,7.2s-7.5-3.2-7.5-7.2C374.4,181.3,377.7,178,381.8,178
								L381.8,178z"/>
						</g>
						<g>
							<path class="st2" d="M381.8,178c4.1,0,7.5,3.2,7.5,7.2s-3.4,7.2-7.5,7.2s-7.5-3.2-7.5-7.2C374.4,181.3,377.7,178,381.8,178
								L381.8,178z"/>
						</g>
						<g>
							<path class="st1" d="M136.9,194.4c-11.6,0-21-9.4-21-21s9.4-21,21-21s21,9.4,21,21S148.5,194.4,136.9,194.4z M136.9,164.4
								c-5,0-9,4-9,9s4,9,9,9s9-4,9-9S141.9,164.4,136.9,164.4z"/>
						</g>
					</g>
					<g>
						<g>
							<path class="st3" d="M0,500"/>
						</g>
						<g>
							<path class="st4" d="M0,500"/>
						</g>
						<g>
							<path class="st4" d="M0,500"/>
						</g>
						<g>
							<path class="st4" d="M0,500"/>
						</g>
						<g>
							<path class="st4" d="M0,500"/>
						</g>
						<g>
							<path class="st4" d="M0,500"/>
						</g>
						<g>
							<path class="st4" d="M0,500"/>
						</g>
						<g>
							<path class="st4" d="M0,500"/>
						</g>
						<g>
							<path class="st4" d="M0,500"/>
						</g>
						<g>
							<path class="st4" d="M0,500"/>
						</g>
						<g>
							<path class="st4" d="M0,500"/>
						</g>
						<g>
							<path class="st4" d="M0,500"/>
						</g>
					</g>
				</g>
			</g>
		</g>
	</g>
</g>
</svg>
