<?xml version="1.0" encoding="utf-8"?>
<!-- Generator: Adobe Illustrator 27.5.0, SVG Export Plug-In . SVG Version: 6.00 Build 0)  -->
<svg version="1.1" id="Layer_1" xmlns="http://www.w3.org/2000/svg" xmlns:xlink="http://www.w3.org/1999/xlink" x="0px" y="0px"
	 viewBox="0 0 500 500" style="enable-background:new 0 0 500 500;" xml:space="preserve">
<style type="text/css">
	.st0{clip-path:url(#SVGID_00000118380799709373838180000016668811783947318431_);}
	.st1{fill:#FFFFFF;}
	.st2{fill:none;}
	.st3{display:none;fill:none;stroke:#FFFFFF;stroke-width:10.472;}
	.st4{fill:none;stroke:#FFFFFF;stroke-width:10.472;}
</style>
<g>
	<g>
		<g>
			<g>
				<defs>
					<rect id="SVGID_1_" width="500" height="500"/>
				</defs>
				<clipPath id="SVGID_00000152248970546273764890000013373899293449395854_">
					<use xlink:href="#SVGID_1_"  style="overflow:visible;"/>
				</clipPath>
				<g style="clip-path:url(#SVGID_00000152248970546273764890000013373899293449395854_);">
					<g>
						<path class="st1" d="M403.2,285.9l-49.9-122c-0.6-1.5-3.1-3.2-4.9-3.3l-196.2-0.9c-1.6,0-4.1,1.6-4.7,3.1v0.1L96.6,285.7
							l-11.1-4.6l50.9-122.8c2.4-6.1,9.2-10.6,15.9-10.6l196.4,0.9c6.4,0.2,13.2,4.7,15.7,10.7l49.9,122.1L403.2,285.9z"/>
					</g>
					<g>
						<path class="st1" d="M394,358.8H106.2c-11.6,0-21-9.4-21-21v-48.5c0-11.6,9.4-21,21-21H394c11.6,0,21,9.4,21,21v48.5
							C415,349.4,405.6,358.8,394,358.8z M106.2,280.3c-5,0-9,4-9,9v48.5c0,5,4,9,9,9H394c5,0,9-4,9-9v-48.5c0-5-4-9-9-9H106.2z"/>
					</g>
					<g>
						<g>
							<path class="st1" d="M241.6,296.8c4.1,0,7.5,3.2,7.5,7.2s-3.4,7.2-7.5,7.2s-7.5-3.2-7.5-7.2S237.5,296.8,241.6,296.8z"/>
						</g>
						<g>
							<path class="st2" d="M241.6,296.8c4.1,0,7.5,3.2,7.5,7.2s-3.4,7.2-7.5,7.2s-7.5-3.2-7.5-7.2S237.5,296.8,241.6,296.8z"/>
						</g>
						<g>
							<path class="st1" d="M265,296.8c4.1,0,7.5,3.2,7.5,7.2s-3.4,7.2-7.5,7.2s-7.5-3.2-7.5-7.2S260.8,296.8,265,296.8z"/>
						</g>
						<g>
							<path class="st2" d="M265,296.8c4.1,0,7.5,3.2,7.5,7.2s-3.4,7.2-7.5,7.2s-7.5-3.2-7.5-7.2S260.8,296.8,265,296.8z"/>
						</g>
						<g>
							<path class="st1" d="M288.3,296.8c4.1,0,7.5,3.2,7.5,7.2s-3.4,7.2-7.5,7.2s-7.5-3.2-7.5-7.2
								C280.9,300,284.2,296.8,288.3,296.8z"/>
						</g>
						<g>
							<path class="st2" d="M288.3,296.8c4.1,0,7.5,3.2,7.5,7.2s-3.4,7.2-7.5,7.2s-7.5-3.2-7.5-7.2
								C280.9,300,284.2,296.8,288.3,296.8z"/>
						</g>
						<g>
							<path class="st1" d="M311.7,296.8c4.1,0,7.5,3.2,7.5,7.2s-3.4,7.2-7.5,7.2s-7.5-3.2-7.5-7.2S307.6,296.8,311.7,296.8z"/>
						</g>
						<g>
							<path class="st2" d="M311.7,296.8c4.1,0,7.5,3.2,7.5,7.2s-3.4,7.2-7.5,7.2s-7.5-3.2-7.5-7.2S307.6,296.8,311.7,296.8z"/>
						</g>
						<g>
							<path class="st1" d="M335.1,296.8c4.1,0,7.5,3.2,7.5,7.2s-3.4,7.2-7.5,7.2s-7.5-3.2-7.5-7.2S331,296.8,335.1,296.8z"/>
						</g>
						<g>
							<path class="st2" d="M335.1,296.8c4.1,0,7.5,3.2,7.5,7.2s-3.4,7.2-7.5,7.2s-7.5-3.2-7.5-7.2S331,296.8,335.1,296.8z"/>
						</g>
						<g>
							<path class="st1" d="M358.5,296.8c4.1,0,7.5,3.2,7.5,7.2s-3.4,7.2-7.5,7.2S351,308,351,304S354.3,296.8,358.5,296.8z"/>
						</g>
						<g>
							<path class="st2" d="M358.5,296.8c4.1,0,7.5,3.2,7.5,7.2s-3.4,7.2-7.5,7.2S351,308,351,304S354.3,296.8,358.5,296.8z"/>
						</g>
						<g>
							<path class="st1" d="M381.8,296.8c4.1,0,7.5,3.2,7.5,7.2s-3.4,7.2-7.5,7.2s-7.5-3.2-7.5-7.2
								C374.4,300,377.7,296.8,381.8,296.8z"/>
						</g>
						<g>
							<path class="st2" d="M381.8,296.8c4.1,0,7.5,3.2,7.5,7.2s-3.4,7.2-7.5,7.2s-7.5-3.2-7.5-7.2
								C374.4,300,377.7,296.8,381.8,296.8z"/>
						</g>
						<g>
							<path class="st1" d="M241.6,320.2c4.1,0,7.5,3.2,7.5,7.2s-3.4,7.2-7.5,7.2s-7.5-3.2-7.5-7.2
								C234.1,323.4,237.5,320.2,241.6,320.2L241.6,320.2z"/>
						</g>
						<g>
							<path class="st2" d="M241.6,320.2c4.1,0,7.5,3.2,7.5,7.2s-3.4,7.2-7.5,7.2s-7.5-3.2-7.5-7.2
								C234.1,323.4,237.5,320.2,241.6,320.2L241.6,320.2z"/>
						</g>
						<g>
							<path class="st1" d="M265,320.2c4.1,0,7.5,3.2,7.5,7.2s-3.4,7.2-7.5,7.2s-7.5-3.2-7.5-7.2C257.5,323.4,260.8,320.2,265,320.2
								L265,320.2z"/>
						</g>
						<g>
							<path class="st2" d="M265,320.2c4.1,0,7.5,3.2,7.5,7.2s-3.4,7.2-7.5,7.2s-7.5-3.2-7.5-7.2C257.5,323.4,260.8,320.2,265,320.2
								L265,320.2z"/>
						</g>
						<g>
							<path class="st1" d="M288.3,320.2c4.1,0,7.5,3.2,7.5,7.2s-3.4,7.2-7.5,7.2s-7.5-3.2-7.5-7.2
								C280.9,323.4,284.2,320.2,288.3,320.2L288.3,320.2z"/>
						</g>
						<g>
							<path class="st2" d="M288.3,320.2c4.1,0,7.5,3.2,7.5,7.2s-3.4,7.2-7.5,7.2s-7.5-3.2-7.5-7.2
								C280.9,323.4,284.2,320.2,288.3,320.2L288.3,320.2z"/>
						</g>
						<g>
							<path class="st1" d="M311.7,320.2c4.1,0,7.5,3.2,7.5,7.2s-3.4,7.2-7.5,7.2s-7.5-3.2-7.5-7.2
								C304.2,323.4,307.6,320.2,311.7,320.2L311.7,320.2z"/>
						</g>
						<g>
							<path class="st2" d="M311.7,320.2c4.1,0,7.5,3.2,7.5,7.2s-3.4,7.2-7.5,7.2s-7.5-3.2-7.5-7.2
								C304.2,323.4,307.6,320.2,311.7,320.2L311.7,320.2z"/>
						</g>
						<g>
							<path class="st1" d="M335.1,320.2c4.1,0,7.5,3.2,7.5,7.2s-3.4,7.2-7.5,7.2s-7.5-3.2-7.5-7.2
								C327.6,323.4,331,320.2,335.1,320.2L335.1,320.2z"/>
						</g>
						<g>
							<path class="st2" d="M335.1,320.2c4.1,0,7.5,3.2,7.5,7.2s-3.4,7.2-7.5,7.2s-7.5-3.2-7.5-7.2
								C327.6,323.4,331,320.2,335.1,320.2L335.1,320.2z"/>
						</g>
						<g>
							<path class="st1" d="M358.5,320.2c4.1,0,7.5,3.2,7.5,7.2s-3.4,7.2-7.5,7.2s-7.5-3.2-7.5-7.2
								C351,323.4,354.3,320.2,358.5,320.2L358.5,320.2z"/>
						</g>
						<g>
							<path class="st2" d="M358.5,320.2c4.1,0,7.5,3.2,7.5,7.2s-3.4,7.2-7.5,7.2s-7.5-3.2-7.5-7.2
								C351,323.4,354.3,320.2,358.5,320.2L358.5,320.2z"/>
						</g>
						<g>
							<path class="st1" d="M381.8,320.2c4.1,0,7.5,3.2,7.5,7.2s-3.4,7.2-7.5,7.2s-7.5-3.2-7.5-7.2
								C374.4,323.4,377.7,320.2,381.8,320.2L381.8,320.2z"/>
						</g>
						<g>
							<path class="st2" d="M381.8,320.2c4.1,0,7.5,3.2,7.5,7.2s-3.4,7.2-7.5,7.2s-7.5-3.2-7.5-7.2
								C374.4,323.4,377.7,320.2,381.8,320.2L381.8,320.2z"/>
						</g>
						<g>
							<path class="st1" d="M136.9,336.5c-11.6,0-21-9.4-21-21s9.4-21,21-21s21,9.4,21,21S148.5,336.5,136.9,336.5z M136.9,306.5
								c-5,0-9,4-9,9s4,9,9,9s9-4,9-9S141.9,306.5,136.9,306.5z"/>
						</g>
					</g>
					<g>
						<g>
							<path class="st3" d="M0,500"/>
						</g>
						<g>
							<path class="st4" d="M0,500"/>
						</g>
						<g>
							<path class="st4" d="M0,500"/>
						</g>
						<g>
							<path class="st4" d="M0,500"/>
						</g>
						<g>
							<path class="st4" d="M0,500"/>
						</g>
						<g>
							<path class="st4" d="M0,500"/>
						</g>
						<g>
							<path class="st4" d="M0,500"/>
						</g>
						<g>
							<path class="st4" d="M0,500"/>
						</g>
						<g>
							<path class="st4" d="M0,500"/>
						</g>
						<g>
							<path class="st4" d="M0,500"/>
						</g>
						<g>
							<path class="st4" d="M0,500"/>
						</g>
						<g>
							<path class="st4" d="M0,500"/>
						</g>
					</g>
				</g>
			</g>
		</g>
	</g>
</g>
</svg>
