<?xml version="1.0" encoding="utf-8"?>
<!-- Generator: Adobe Illustrator 27.5.0, SVG Export Plug-In . SVG Version: 6.00 Build 0)  -->
<svg version="1.1" id="Layer_1" xmlns="http://www.w3.org/2000/svg" xmlns:xlink="http://www.w3.org/1999/xlink" x="0px" y="0px"
	 viewBox="0 0 500 500" style="enable-background:new 0 0 500 500;" xml:space="preserve">
<style type="text/css">
	.st0{fill:#FFFFFF;}
	.st1{display:none;fill:none;stroke:#FFFFFF;stroke-width:3.5;}
	.st2{fill:none;stroke:#FFFFFF;stroke-width:3.5;}
</style>
<g>
	<g>
		<g>
			<path class="st0" d="M148.2,387.3c-3.3,0-6-2.7-6-6V225.6c0-3.3,2.7-6,6-6s6,2.7,6,6v155.7C154.2,384.6,151.5,387.3,148.2,387.3z
				"/>
		</g>
		<g>
			<path class="st0" d="M148.2,177.5c-3.3,0-6-2.7-6-6v-51.9c0-3.3,2.7-6,6-6s6,2.7,6,6v51.9C154.2,174.8,151.5,177.5,148.2,177.5z"
				/>
		</g>
		<g>
			<path class="st0" d="M248.1,387.4c-3.3,0-6-2.7-6-6v-52.6c0-3.3,2.7-6,6-6s6,2.7,6,6v52.6C254.1,384.7,251.4,387.4,248.1,387.4z"
				/>
		</g>
		<g>
			<path class="st0" d="M248.1,280.3c-3.3,0-6-2.7-6-6V119.6c0-3.3,2.7-6,6-6s6,2.7,6,6v154.7C254.1,277.6,251.4,280.3,248.1,280.3z
				"/>
		</g>
		<g>
			<path class="st0" d="M348,387.4c-3.3,0-6-2.7-6-6v-77.9c0-3.3,2.7-6,6-6s6,2.7,6,6v77.9C354,384.7,351.3,387.4,348,387.4z"/>
		</g>
		<g>
			<path class="st0" d="M348,252.6c-3.3,0-6-2.7-6-6v-127c0-3.3,2.7-6,6-6s6,2.7,6,6v127C354,249.9,351.3,252.6,348,252.6z"/>
		</g>
		<g>
			<path class="st0" d="M148.5,228.7c-16.7,0-30.3-13.6-30.3-30.3c0-16.6,13.6-30.2,30.3-30.3l0,0c16.7,0,30.3,13.6,30.3,30.3
				S165.2,228.7,148.5,228.7z M148.5,180.1c-10.1,0.1-18.3,8.3-18.3,18.3c0,10.1,8.2,18.3,18.3,18.3s18.3-8.2,18.3-18.3
				S158.6,180.1,148.5,180.1z"/>
		</g>
		<g>
			<path class="st0" d="M248.4,331.4c-16.7,0-30.3-13.6-30.3-30.3c0-16.7,13.6-30.3,30.3-30.3s30.3,13.6,30.3,30.3
				C278.7,317.8,265.1,331.4,248.4,331.4z M248.4,282.8c-10.1,0-18.3,8.2-18.3,18.3s8.2,18.3,18.3,18.3s18.3-8.2,18.3-18.3
				S258.5,282.8,248.4,282.8z"/>
		</g>
		<g>
			<path class="st0" d="M348.3,304.6c-16.7,0-30.3-13.6-30.3-30.3s13.6-30.3,30.3-30.3s30.3,13.6,30.3,30.3S365,304.6,348.3,304.6z
				 M348.3,256c-10.1,0-18.3,8.2-18.3,18.3s8.2,18.3,18.3,18.3s18.3-8.2,18.3-18.3S358.4,256,348.3,256z"/>
		</g>
	</g>
	<g>
		<g>
			<path class="st1" d="M0,500"/>
		</g>
		<g>
			<path class="st2" d="M0,500"/>
		</g>
		<g>
			<path class="st2" d="M0,500"/>
		</g>
		<g>
			<path class="st2" d="M0,500"/>
		</g>
		<g>
			<path class="st2" d="M0,500"/>
		</g>
		<g>
			<path class="st2" d="M0,500"/>
		</g>
		<g>
			<path class="st2" d="M0,500"/>
		</g>
		<g>
			<path class="st2" d="M0,500"/>
		</g>
		<g>
			<path class="st2" d="M0,500"/>
		</g>
		<g>
			<path class="st2" d="M0,500"/>
		</g>
		<g>
			<path class="st2" d="M0,500"/>
		</g>
		<g>
			<path class="st2" d="M0,500"/>
		</g>
	</g>
</g>
</svg>
