<?xml version="1.0" encoding="utf-8"?>
<!-- Generator: Adobe Illustrator 27.5.0, SVG Export Plug-In . SVG Version: 6.00 Build 0)  -->
<svg version="1.1" id="Layer_1" xmlns="http://www.w3.org/2000/svg" xmlns:xlink="http://www.w3.org/1999/xlink" x="0px" y="0px"
	 viewBox="0 0 500 500" style="enable-background:new 0 0 500 500;" xml:space="preserve">
<style type="text/css">
	.st0{clip-path:url(#SVGID_00000095337549302229759930000003089639229907005591_);}
	.st1{fill:#FFFFFF;}
	.st2{display:none;fill:none;stroke:#FFFFFF;stroke-width:12;stroke-linecap:round;stroke-linejoin:round;}
	.st3{fill:none;stroke:#FFFFFF;stroke-width:12;stroke-linecap:round;stroke-linejoin:round;}
</style>
<g>
	<g>
		<g>
			<g>
				<defs>
					<rect id="SVGID_1_" width="500" height="500"/>
				</defs>
				<clipPath id="SVGID_00000160899837217960285720000000489642676384035771_">
					<use xlink:href="#SVGID_1_"  style="overflow:visible;"/>
				</clipPath>
				<g style="clip-path:url(#SVGID_00000160899837217960285720000000489642676384035771_);">
					<g>
						<g>
							<path class="st1" d="M356.8,389.4c-3.3,0-6-2.7-6-6V269.3h-68.4v114.1c0,3.3-2.7,6-6,6s-6-2.7-6-6V263.3c0-3.3,2.7-6,6-6
								h80.4c3.3,0,6,2.7,6,6v120.1C362.8,386.7,360.1,389.4,356.8,389.4z M250,336.1H143.3c-3.3,0-6-2.7-6-6v-67.6c0-3.3,2.7-6,6-6
								H250c3.3,0,6,2.7,6,6v67.6C256,333.4,253.3,336.1,250,336.1z M149.3,324.1H244v-55.6h-94.7V324.1z"/>
						</g>
						<g>
							<path class="st1" d="M383.4,389.5H116.6c-3.3,0-6-2.7-6-6V230.3C95.1,225.5,83.9,211,83.9,194c0-0.7,0.1-1.3,0.3-2l26.7-77.4
								c0.8-2.4,3.1-4,5.7-4h266.9c2.6,0,4.8,1.6,5.7,4l26.7,77.4c0.2,0.6,0.3,1.3,0.3,2c0,17.1-11.3,31.5-26.8,36.3v153.2
								C389.4,386.8,386.7,389.5,383.4,389.5z M122.6,377.5h254.8V232c-20.6-0.4-37.2-17.3-37.2-38c0-3.3,2.7-6,6-6s6,2.7,6,6
								c0,14.3,11.7,26,26,26c14,0,25.5-11.1,26-25l-25-72.4H120.9l-25,72.4c0.5,13.9,12,25,26,25c14.3,0,26-11.7,26-26
								c0-3.3,2.7-6,6-6s6,2.7,6,6c0,20.7-16.7,37.6-37.3,38C122.6,232,122.6,377.5,122.6,377.5z"/>
						</g>
						<g>
							<path class="st1" d="M250,232c-21,0-38-17-38-38c0-3.3,2.7-6,6-6s6,2.7,6,6c0,14.3,11.7,26,26,26c14.3,0,26-11.7,26-26
								c0-3.3,2.7-6,6-6s6,2.7,6,6C288,215,271,232,250,232z"/>
						</g>
						<g>
							<path class="st1" d="M314,232c-20.9,0-37.9-16.9-38-37.8l-5.3-77.2c-0.2-3.3,2.3-6.2,5.6-6.4c3.3-0.2,6.2,2.3,6.4,5.6
								l5.3,77.4c0,0.1,0,0.3,0,0.4c0,14.3,11.7,26,26,26c14.1,0,25.7-11.3,26-25.4l-15.9-76.8c-0.7-3.2,1.4-6.4,4.7-7.1
								c3.3-0.7,6.4,1.4,7.1,4.7l16,77.4c0.1,0.4,0.1,0.8,0.1,1.2C352,215,335,232,314,232z M185.9,232c-21,0-38-17-38-38
								c0-0.4,0-0.8,0.1-1.2l16-77.4c0.7-3.2,3.8-5.3,7.1-4.7c3.2,0.7,5.3,3.8,4.7,7.1l-15.9,76.8c0.3,14.1,11.9,25.4,26,25.4
								c14.3,0,26-11.7,26-26c0-0.1,0-0.3,0-0.4l5.3-77.4c0.2-3.3,3.1-5.8,6.4-5.6c3.3,0.2,5.8,3.1,5.6,6.4l-5.3,77.2
								C223.8,215.1,206.8,232,185.9,232z"/>
						</g>
					</g>
					<g>
						<g>
							<path class="st2" d="M0,500"/>
						</g>
						<g>
							<path class="st3" d="M0,500"/>
						</g>
						<g>
							<path class="st3" d="M0,500"/>
						</g>
						<g>
							<path class="st3" d="M0,500"/>
						</g>
						<g>
							<path class="st3" d="M0,500"/>
						</g>
						<g>
							<path class="st3" d="M0,500"/>
						</g>
						<g>
							<path class="st3" d="M0,500"/>
						</g>
						<g>
							<path class="st3" d="M0,500"/>
						</g>
						<g>
							<path class="st3" d="M0,500"/>
						</g>
						<g>
							<path class="st3" d="M0,500"/>
						</g>
						<g>
							<path class="st3" d="M0,500"/>
						</g>
						<g>
							<path class="st3" d="M0,500"/>
						</g>
					</g>
				</g>
			</g>
		</g>
	</g>
</g>
</svg>
