<?xml version="1.0" encoding="utf-8"?>
<!-- Generator: Adobe Illustrator 27.5.0, SVG Export Plug-In . SVG Version: 6.00 Build 0)  -->
<svg version="1.1" id="Layer_1" xmlns="http://www.w3.org/2000/svg" xmlns:xlink="http://www.w3.org/1999/xlink" x="0px" y="0px"
	 viewBox="0 0 500 500" style="enable-background:new 0 0 500 500;" xml:space="preserve">
<style type="text/css">
	.st0{clip-path:url(#SVGID_00000033370698169852522210000002039441231752247708_);}
	.st1{fill:#FFFFFF;}
	.st2{fill:none;stroke:#FFFFFF;stroke-width:12;stroke-linecap:round;stroke-linejoin:round;}
</style>
<g>
	<g>
		<g>
			<g>
				<defs>
					<rect id="SVGID_1_" width="500" height="500"/>
				</defs>
				<clipPath id="SVGID_00000132786243133969000960000016898775049553446303_">
					<use xlink:href="#SVGID_1_"  style="overflow:visible;"/>
				</clipPath>
				<g style="clip-path:url(#SVGID_00000132786243133969000960000016898775049553446303_);">
					<g>
						<path class="st1" d="M120.9,347.9c-1.8,0-3.5-0.8-4.7-2.3c-21.6-27.5-33-60.7-33-95.8s11.4-68.3,33-95.8c2-2.6,5.8-3.1,8.4-1
							c2.6,2,3.1,5.8,1,8.4c-19.9,25.4-30.4,56-30.4,88.4s10.5,63,30.4,88.4c2,2.6,1.6,6.4-1,8.4
							C123.5,347.5,122.2,347.9,120.9,347.9z M168.4,315.6c-1.8,0-3.5-0.8-4.7-2.3c-14.3-18.3-21.9-40.3-21.9-63.5
							s7.6-45.2,21.9-63.5c2-2.6,5.8-3.1,8.4-1c2.6,2,3.1,5.8,1,8.4c-12.6,16.2-19.3,35.6-19.3,56.1s6.7,39.9,19.3,56.1
							c2,2.6,1.6,6.4-1,8.4C171,315.2,169.7,315.6,168.4,315.6z"/>
					</g>
					<g>
						<path class="st1" d="M379.3,347.9c-1.3,0-2.6-0.4-3.7-1.3c-2.6-2-3.1-5.8-1-8.4c19.9-25.4,30.4-56,30.4-88.4
							s-10.5-63-30.4-88.4c-2-2.6-1.6-6.4,1-8.4s6.4-1.6,8.4,1c21.6,27.5,33,60.7,33,95.8s-11.4,68.3-33,95.8
							C382.8,347.1,381.1,347.9,379.3,347.9z M331.9,315.6c-1.3,0-2.6-0.4-3.7-1.3c-2.6-2-3.1-5.8-1-8.4
							c12.6-16.2,19.3-35.6,19.3-56.1s-6.7-39.9-19.3-56.1c-2-2.6-1.6-6.4,1-8.4s6.4-1.6,8.4,1c14.3,18.3,21.9,40.3,21.9,63.5
							s-7.6,45.2-21.9,63.5C335.4,314.8,333.7,315.6,331.9,315.6z"/>
					</g>
					<g>
						<path class="st1" d="M250,294c-24.3,0-44-19.7-44-44s19.7-44,44-44s44,19.7,44,44S274.3,294,250,294z M250,218
							c-17.6,0-32,14.4-32,32s14.4,32,32,32s32-14.4,32-32S267.6,218,250,218z"/>
					</g>
					<g>
						<path class="st2" d="M0,500"/>
					</g>
				</g>
			</g>
		</g>
	</g>
</g>
</svg>
