<?xml version="1.0" encoding="iso-8859-1"?>
<!-- Generator: Adobe Illustrator 29.6.1, SVG Export Plug-In . SVG Version: 9.03 Build 0)  -->
<svg version="1.1" id="Layer_1" xmlns="http://www.w3.org/2000/svg" xmlns:xlink="http://www.w3.org/1999/xlink" x="0px" y="0px"
	 viewBox="0 0 500 500" style="enable-background:new 0 0 500 500;" xml:space="preserve">
<g>
	<g>
		<path style="fill:#FFFFFF;" d="M383.1,416.6H117.7c-3.313,0-6-2.687-6-6V214.8c0-3.313,2.687-6,6-6s6,2.687,6,6v189.8h253.4V214.8
			c0-3.313,2.687-6,6-6s6,2.687,6,6v195.8C389.1,413.913,386.413,416.6,383.1,416.6z M353.8,193.2c-3.313,0-6-2.687-6-6v-75.8H313
			v31.8c0,3.313-2.687,6-6,6s-6-2.687-6-6v-37.8c0-3.313,2.687-6,6-6h46.8c3.313,0,6,2.687,6,6v81.8
			C359.8,190.514,357.113,193.2,353.8,193.2z"/>
	</g>
	<g>
		<path style="fill:#FFFFFF;" d="M225.904,330.8c-1.787,0-3.554-0.794-4.737-2.312c-2.037-2.614-1.569-6.384,1.044-8.421
			c8.115-6.324,17.862-9.667,28.188-9.667c10.297,0,20.32,3.442,28.223,9.693c2.599,2.056,3.039,5.829,0.983,8.429
			c-2.057,2.599-5.828,3.038-8.429,0.983c-5.792-4.582-13.171-7.105-20.778-7.105c-7.628,0-14.825,2.466-20.812,7.132
			C228.493,330.386,227.193,330.8,225.904,330.8z M299.396,299.5c-1.297,0-2.603-0.418-3.701-1.281
			C282.681,288.001,267.018,282.6,250.4,282.6s-32.28,5.401-45.295,15.619c-2.607,2.048-6.378,1.593-8.424-1.014
			c-2.046-2.606-1.592-6.378,1.014-8.424c15.148-11.895,33.374-18.182,52.705-18.182c19.332,0,37.557,6.287,52.706,18.182
			c2.606,2.046,3.061,5.817,1.014,8.424C302.936,298.713,301.175,299.5,299.396,299.5z M409.899,246c-1.475,0-2.952-0.54-4.111-1.63
			L250.499,98.238L95.11,244.371c-2.414,2.269-6.212,2.154-8.481-0.26c-2.271-2.414-2.154-6.211,0.26-8.481l159.5-150
			c2.31-2.173,5.913-2.172,8.223,0.001l159.4,150c2.413,2.271,2.528,6.068,0.257,8.481C413.089,245.367,411.496,246,409.899,246z"/>
	</g>
	<g>
		<path style="fill:#FFFFFF;" d="M250.6,362.5h-0.3c-3.313,0-6-2.687-6-6s2.687-6,6-6h0.3c3.314,0,6,2.687,6,6
			S253.914,362.5,250.6,362.5z M176.904,268.1c-1.781,0-3.544-0.789-4.728-2.301c-2.043-2.608-1.585-6.38,1.024-8.423
			c22.199-17.386,48.894-26.576,77.2-26.576c27.873,0,55.288,9.438,77.197,26.574c2.61,2.041,3.071,5.812,1.029,8.422
			c-2.04,2.61-5.812,3.071-8.422,1.029C300.396,251.332,275.605,242.8,250.4,242.8c-25.597,0-49.734,8.308-69.8,24.023
			C179.502,267.683,178.198,268.1,176.904,268.1z"/>
	</g>
</g>
<g>
	<rect x="50" y="50" style="fill:none;" width="400" height="400"/>
</g>
</svg>
