<?xml version="1.0" encoding="utf-8"?>
<!-- Generator: Adobe Illustrator 27.5.0, SVG Export Plug-In . SVG Version: 6.00 Build 0)  -->
<svg version="1.1" id="Layer_1" xmlns="http://www.w3.org/2000/svg" xmlns:xlink="http://www.w3.org/1999/xlink" x="0px" y="0px"
	 viewBox="0 0 500 500" style="enable-background:new 0 0 500 500;" xml:space="preserve">
<style type="text/css">
	.st0{clip-path:url(#SVGID_00000073714375051165208020000003430590800434545571_);}
	.st1{display:none;fill:none;}
	.st2{fill:none;}
	.st3{fill:#FFFFFF;}
	.st4{display:none;fill:#FFFFFF;}
</style>
<g>
	<g>
		<g>
			<g>
				<defs>
					<rect id="SVGID_1_" width="500" height="500"/>
				</defs>
				<clipPath id="SVGID_00000000930901635329149890000007031232098999285694_">
					<use xlink:href="#SVGID_1_"  style="overflow:visible;"/>
				</clipPath>
				<g style="clip-path:url(#SVGID_00000000930901635329149890000007031232098999285694_);">
					<g>
						<path class="st1" d="M0,500"/>
						<path class="st2" d="M0,500"/>
					</g>
					<g>
						<g>
							<path class="st3" d="M338.6,440.6H162.1c-10.5,0-19-8.5-19-19V82.4c0-10.5,8.5-19,19-19h176.5c10.5,0,19,8.5,19,19v339.2
								C357.6,432.1,349.1,440.6,338.6,440.6z M162.1,75.4c-3.9,0-7,3.1-7,7v339.2c0,3.9,3.1,7,7,7h176.5c3.9,0,7-3.1,7-7V82.4
								c0-3.9-3.1-7-7-7H162.1z M296.7,419.1h-95.5c-3.3,0-6-2.7-6-6s2.7-6,6-6h95.5c3.3,0,6,2.7,6,6S300,419.1,296.7,419.1z"/>
						</g>
						<g>
							<path class="st3" d="M189.7,71.2h4.1c5.6,0,10.5,6.2,11.7,11.6v-2.3c0.9,3.8,4.3,8.8,8.2,8.8h70.4c3.9,0,7.3-2.7,8.2-6.5
								v-2.3c1.3-5.5,6.1-9.3,11.7-9.3h4.9"/>
						</g>
					</g>
					<g>
						<g>
							<path class="st4" d="M0,500"/>
						</g>
						<g>
							<path class="st3" d="M0,500"/>
						</g>
						<g>
							<path class="st3" d="M0,500"/>
						</g>
						<g>
							<path class="st3" d="M0,500"/>
						</g>
						<g>
							<path class="st3" d="M0,500"/>
						</g>
						<g>
							<path class="st3" d="M0,500"/>
						</g>
						<g>
							<path class="st3" d="M0,500"/>
						</g>
						<g>
							<path class="st3" d="M0,500"/>
						</g>
						<g>
							<path class="st3" d="M0,500"/>
						</g>
						<g>
							<path class="st3" d="M0,500"/>
						</g>
						<g>
							<path class="st3" d="M0,500"/>
						</g>
						<g>
							<path class="st3" d="M0,500"/>
						</g>
					</g>
				</g>
			</g>
		</g>
	</g>
</g>
</svg>
