<?xml version="1.0" encoding="iso-8859-1"?>
<!-- Generator: Adobe Illustrator 29.6.1, SVG Export Plug-In . SVG Version: 9.03 Build 0)  -->
<svg version="1.1" id="Layer_1" xmlns="http://www.w3.org/2000/svg" xmlns:xlink="http://www.w3.org/1999/xlink" x="0px" y="0px"
	 viewBox="0 0 500 500" style="enable-background:new 0 0 500 500;" xml:space="preserve">
<g>
	<g>
		<path style="fill:#FFFFFF;" d="M302.345,409.895h-106.23c-3.313,0-6-2.687-6-6s2.687-6,6-6h34.05v-27.32h-125.45
			c-3.28,0-5.945-2.631-5.999-5.898c-0.052-0.803,0.059-1.629,0.351-2.434l43.73-120.13c1.134-3.115,4.578-4.72,7.69-3.586
			c3.114,1.134,4.719,4.577,3.586,7.69l-21.327,58.588h41.064l18.358-50.429c0.13-0.386,0.298-0.753,0.5-1.099
			c0.44-0.759,1.031-1.394,1.72-1.88c0.712-0.505,1.54-0.859,2.436-1.014c0.384-0.067,0.777-0.095,1.17-0.088h49.369l17.958-49.336
			c0.047-0.146,0.099-0.29,0.156-0.431l16.828-46.233h-36.21c-3.313,0-6-2.687-6-6s2.687-6,6-6h44.639
			c0.092-0.002,0.187-0.002,0.282,0h53.549c0.095-0.002,0.188-0.002,0.28,0h54.509c0.402-0.008,0.804,0.021,1.206,0.094
			c0.69,0.124,1.341,0.366,1.928,0.704c0.601,0.345,1.125,0.785,1.561,1.293l21.889,19.599c1.824,1.633,2.473,4.21,1.64,6.512
			l-70.91,195.919c-0.857,2.368-3.103,3.949-5.622,3.958l-29.217,0.098c-0.36,0.067-0.732,0.103-1.112,0.103h-51.551v27.32h33.181
			c3.313,0,6,2.687,6,6S305.659,409.895,302.345,409.895z M242.165,397.895h15v-27.32h-15L242.165,397.895L242.165,397.895z
			 M274.552,358.575h42.021l15.203-41.77h-42.021L274.552,358.575z M220.722,358.575h41.06l15.203-41.77h-41.06L220.722,358.575z
			 M167.012,358.575h40.94l15.203-41.77h-40.942L167.012,358.575z M113.173,358.575h41.069l15.201-41.77h-41.065L113.173,358.575z
			 M365.548,259.106l-36.158,99.341l17.421-0.059l68.104-188.166l-12.834-11.491l-35.968,98.819
			C365.996,258.101,365.803,258.623,365.548,259.106z M294.123,304.805h42.021l15.473-42.51h-42.021L294.123,304.805z
			 M240.293,304.805h41.06l15.473-42.51h-41.06L240.293,304.805z M186.581,304.805h40.942l15.473-42.51h-40.939L186.581,304.805z
			 M313.964,250.296h42.021l15.105-41.5h-42.021L313.964,250.296z M260.133,250.296h41.06l15.105-41.5h-41.06L260.133,250.296z
			 M333.437,196.795h42.02l15.469-42.5h-42.02L333.437,196.795z M279.607,196.795h41.06l15.469-42.5h-41.06L279.607,196.795z"/>
	</g>
	<g>
		<path style="fill:#FFFFFF;" d="M170.495,284.135c-2.049,0-3.956-1.045-5.058-2.772l-19.277-30.204l-34.195,10.76
			c-1.954,0.614-4.088,0.189-5.657-1.127c-1.57-1.316-2.359-3.343-2.093-5.374l4.644-35.534l-33.097-13.747
			c-1.892-0.786-3.251-2.482-3.607-4.5c-0.355-2.018,0.343-4.077,1.852-5.462l26.404-24.232L83.89,140.142
			c-0.944-1.818-0.896-3.992,0.128-5.766s2.883-2.903,4.929-2.994l35.799-1.595l7.792-34.985c0.445-2,1.88-3.634,3.805-4.334
			c1.924-0.701,4.074-0.371,5.701,0.875l28.451,21.795l28.451-21.795c1.626-1.247,3.776-1.575,5.701-0.875
			c1.925,0.701,3.36,2.335,3.805,4.335l7.782,34.983l35.799,1.595c2.046,0.091,3.904,1.22,4.929,2.994
			c1.024,1.774,1.072,3.948,0.128,5.766l-16.521,31.801l26.403,24.232c1.51,1.385,2.208,3.445,1.853,5.462
			c-0.356,2.018-1.717,3.714-3.608,4.5l-33.096,13.738l4.645,35.533c0.266,2.031-0.523,4.058-2.093,5.374
			c-1.569,1.317-3.702,1.741-5.656,1.127l-34.185-10.751l-19.277,30.205C174.451,283.09,172.544,284.135,170.495,284.135z
			 M148.745,238.055c2.008,0,3.934,1.012,5.058,2.772l16.692,26.155l16.692-26.155c1.459-2.286,4.273-3.309,6.857-2.496l29.602,9.31
			l-4.021-30.768c-0.352-2.689,1.144-5.28,3.649-6.319l28.656-11.896l-22.862-20.983c-1.998-1.833-2.518-4.78-1.267-7.187
			l14.306-27.538l-30.999-1.381c-2.709-0.121-5.001-2.044-5.59-4.691l-6.738-30.292l-24.636,18.872
			c-2.153,1.649-5.145,1.649-7.298,0l-24.638-18.874l-6.747,30.295c-0.589,2.646-2.88,4.569-5.589,4.69l-30.999,1.381l14.306,27.538
			c1.25,2.407,0.731,5.353-1.267,7.187L89.048,198.66l28.659,11.904c2.504,1.04,3.999,3.63,3.647,6.318l-4.021,30.767l29.611-9.317
			C147.539,238.145,148.146,238.055,148.745,238.055z M170.495,224.495c-22.167,0-40.2-18.034-40.2-40.2s18.034-40.2,40.2-40.2
			s40.2,18.034,40.2,40.2C210.695,206.462,192.661,224.495,170.495,224.495z M170.495,156.095c-15.55,0-28.2,12.65-28.2,28.2
			s12.65,28.2,28.2,28.2c15.549,0,28.2-12.65,28.2-28.2C198.695,168.746,186.045,156.095,170.495,156.095z"/>
	</g>
</g>
</svg>
