<?xml version="1.0" encoding="iso-8859-1"?>
<!-- Generator: Adobe Illustrator 29.6.1, SVG Export Plug-In . SVG Version: 9.03 Build 0)  -->
<svg version="1.1" id="Layer_1" xmlns="http://www.w3.org/2000/svg" xmlns:xlink="http://www.w3.org/1999/xlink" x="0px" y="0px"
	 viewBox="0 0 500 500" style="enable-background:new 0 0 500 500;" xml:space="preserve">
<g>
	<g>
		<path style="fill:#FFFFFF;" d="M277.499,256c-0.773,0-1.553-0.149-2.295-0.457c-2.242-0.929-3.704-3.116-3.704-5.543V135.373
			c0-3.313,2.687-6,6-6s6,2.687,6,6v100.142l46.594-46.593c2.342-2.343,6.143-2.343,8.484,0c2.344,2.343,2.344,6.142,0,8.485
			l-56.836,56.835C280.595,255.391,279.061,256,277.499,256z"/>
	</g>
	<g>
		<path style="fill:#FFFFFF;" d="M277.5,416c-46.055,0-88.865-18.423-120.546-51.874c-2.278-2.406-2.175-6.204,0.23-8.482
			s6.203-2.176,8.482,0.23C195.058,386.908,234.775,404,277.5,404c84.916,0,154-69.084,154-154s-69.084-154-154-154
			c-42.725,0-82.442,17.091-111.833,48.126c-2.279,2.405-6.076,2.508-8.482,0.23c-2.406-2.279-2.509-6.076-0.23-8.482
			C188.635,102.423,231.445,84,277.5,84c91.532,0,166,74.467,166,166C443.5,341.532,369.032,416,277.5,416z M192.5,341h-75
			c-3.313,0-6-2.687-6-6s2.687-6,6-6h75c3.313,0,6,2.687,6,6S195.813,341,192.5,341z M177.5,296h-90c-3.313,0-6-2.687-6-6
			s2.687-6,6-6h90c3.313,0,6,2.687,6,6S180.813,296,177.5,296z M167.5,256h-105c-3.313,0-6-2.687-6-6s2.687-6,6-6h105
			c3.313,0,6,2.687,6,6S170.813,256,167.5,256z M177.5,216h-90c-3.313,0-6-2.687-6-6s2.687-6,6-6h90c3.313,0,6,2.687,6,6
			S180.813,216,177.5,216z M192.5,176h-75c-3.313,0-6-2.687-6-6s2.687-6,6-6h75c3.313,0,6,2.687,6,6S195.813,176,192.5,176z"/>
	</g>
</g>
</svg>
