<?xml version="1.0" encoding="utf-8"?>
<!-- Generator: Adobe Illustrator 27.5.0, SVG Export Plug-In . SVG Version: 6.00 Build 0)  -->
<svg version="1.1" id="Layer_1" xmlns="http://www.w3.org/2000/svg" xmlns:xlink="http://www.w3.org/1999/xlink" x="0px" y="0px"
	 viewBox="0 0 500 500" style="enable-background:new 0 0 500 500;" xml:space="preserve">
<style type="text/css">
	.st0{clip-path:url(#SVGID_00000161618961051195703420000007361770194265515925_);}
	.st1{fill:#FFFFFF;}
</style>
<g>
	<g>
		<g>
			<g>
				<defs>
					<rect id="SVGID_1_" width="500" height="500"/>
				</defs>
				<clipPath id="SVGID_00000022544385612514643690000008162400784338774188_">
					<use xlink:href="#SVGID_1_"  style="overflow:visible;"/>
				</clipPath>
				<g style="clip-path:url(#SVGID_00000022544385612514643690000008162400784338774188_);">
					<g>
						<path class="st1" d="M106.1,352.6L106.1,352.6c-1.6,0-3.1-0.6-4.3-1.8l-18.5-18.6c-2.3-2.3-2.3-6.1,0-8.5
							c2.4-2.3,6.1-2.3,8.5,0l8.3,8.4V116.8l-8.4,8.4c-2.3,2.3-6.1,2.3-8.5,0c-2.3-2.3-2.3-6.1,0-8.5L102,98.1l0,0l0,0l0,0l0,0l0,0
							l0,0l0,0l0,0l0,0l0,0l0,0c1.1-1.1,2.6-1.7,4.2-1.7l0,0l0,0l0,0l0,0c1.6,0,3.1,0.7,4.2,1.7l0,0l0,0l0,0l0,0l0,0l0,0l0,0l0,0
							l0,0l0,0l0,0l18.6,18.6c2.3,2.3,2.3,6.1,0,8.5c-2.3,2.3-6.1,2.3-8.5,0l-8.4-8.4V332l8.3-8.3c2.3-2.3,6.1-2.3,8.5,0
							s2.3,6.1,0,8.5L111,350.1C109.9,351.6,108.2,352.6,106.1,352.6L106.1,352.6z"/>
					</g>
					<g>
						<path class="st1" d="M178.5,420.6c-1.5,0-3.1-0.6-4.2-1.8l-18.6-18.6l0,0l0,0l0,0l0,0c-1.1-1.1-1.7-2.6-1.7-4.2l0,0l0,0
							c0-1.6,0.7-3.1,1.7-4.2l0,0l0,0l0,0l0,0l0,0l18.6-18.6c2.3-2.3,6.1-2.3,8.5,0c2.3,2.3,2.3,6.1,0,8.5l-8.4,8.4H395l-8.4-8.4
							c-2.3-2.3-2.3-6.1,0-8.5c2.3-2.3,6.1-2.3,8.5,0l18.6,18.6c2.3,2.3,2.3,6.1,0,8.5l-18.6,18.6c-2.3,2.3-6.1,2.3-8.5,0
							c-2.3-2.3-2.3-6.1,0-8.5l8.4-8.4H174.4l8.4,8.4c2.3,2.3,2.3,6.1,0,8.5C181.6,420,180,420.6,178.5,420.6z"/>
					</g>
					<g>
						<path class="st1" d="M406.7,352H160.6c-3.3,0-6-2.7-6-6V99.9c0-3.3,2.7-6,6-6h246.1c3.3,0,6,2.7,6,6V346
							C412.7,349.3,410,352,406.7,352z M299.3,340h101.4v-86.4H299.3v23.7c0,3.3-2.7,6-6,6s-6-2.7-6-6v-29.7c0-3.3,2.7-6,6-6h107.4
							v-23H293.3c-3.3,0-6-2.7-6-6v-37.2c0-3.3,2.7-6,6-6s6,2.7,6,6v31.2h101.4V105.9H299.3V145c0,3.3-2.7,6-6,6s-6-2.7-6-6v-39.1
							h-28v65.3c0,3.3-2.7,6-6,6h-25.7c-3.3,0-6-2.7-6-6s2.7-6,6-6h19.7v-59.3h-80.7v59.3h27.3c3.3,0,6,2.7,6,6s-2.7,6-6,6h-27.3
							v68.4c31.4,3,56.1,29.6,56.1,61.8c0,3.3-2.7,6-6,6h-50.1V340h120.7v-30c0-3.3,2.7-6,6-6s6,2.7,6,6V340z M166.6,301.4h43.7
							c-2.7-22.8-20.9-41-43.7-43.7V301.4z"/>
					</g>
				</g>
			</g>
		</g>
	</g>
</g>
</svg>
