<?xml version="1.0" encoding="utf-8"?>
<!-- Generator: Adobe Illustrator 27.5.0, SVG Export Plug-In . SVG Version: 6.00 Build 0)  -->
<svg version="1.1" id="Layer_1" xmlns="http://www.w3.org/2000/svg" xmlns:xlink="http://www.w3.org/1999/xlink" x="0px" y="0px"
	 viewBox="0 0 500 500" style="enable-background:new 0 0 500 500;" xml:space="preserve">
<style type="text/css">
	.st0{clip-path:url(#SVGID_00000183960013725345114470000011037252028958229402_);}
	.st1{fill:#FFFFFF;}
	.st2{display:none;fill:none;}
	.st3{fill:none;}
</style>
<g>
	<g>
		<g>
			<g>
				<defs>
					<rect id="SVGID_1_" width="500" height="500"/>
				</defs>
				<clipPath id="SVGID_00000129890834095409190690000015747915784040212649_">
					<use xlink:href="#SVGID_1_"  style="overflow:visible;"/>
				</clipPath>
				<g style="clip-path:url(#SVGID_00000129890834095409190690000015747915784040212649_);">
					<g>
						<path class="st1" d="M142.5,411.8c-2.2,0-4.5-0.7-6.4-2.1c-3.8-2.8-5.3-7.6-3.8-12l22.2-68.1l16.5-50.8L118.8,241l-49.2-35.7
							c-3.8-2.8-5.3-7.6-3.9-12c1.5-4.5,5.5-7.4,10.2-7.4H201l38.6-119.1c0-0.1,0.1-0.2,0.1-0.2c1.6-4.4,5.8-7.2,10.5-7.1
							c4.6,0.1,8.6,3,10,7.4l0,0L298.8,186h125.1c4.7,0,8.8,3,10.2,7.4c1.4,4.4-0.1,9.3-3.9,12L379.9,242l-50.8,37l38.6,119
							c1.5,4.6-0.1,9.3-3.9,12s-8.8,2.7-12.6,0l-47.6-34.6l-53.6-39L202.2,371l-53.4,38.8C146.9,411.1,144.7,411.8,142.5,411.8z
							 M143.7,401.4L143.7,401.4C143.7,401.5,143.7,401.4,143.7,401.4z M250,323.9c2.2,0,4.3,0.7,6.2,2l54.4,39.5l44.5,32.3
							l-37.7-116.1c-1.6-4.4,0-9.4,3.9-12.1l51.5-37.5l47.2-34.3H297.9c-4.7,0-8.9-3.1-10.2-7.5L249.9,73.8l-37.8,116.4
							c-1.4,4.5-5.5,7.5-10.2,7.5H79.7l46.1,33.4l53,38.4c3.7,2.8,5.2,7.5,3.9,11.9v0.1l-16.8,51.7l-21,64.5l50.3-36.5l48.5-35.3
							C245.6,324.6,247.8,323.9,250,323.9z M328.4,279.2L328.4,279.2C328.3,279.2,328.3,279.2,328.4,279.2z M299.1,186.7
							L299.1,186.7L299.1,186.7z M248.8,70.4L248.8,70.4L248.8,70.4L248.8,70.4z"/>
					</g>
					<g>
						<g>
							<path class="st2" d="M0,500"/>
						</g>
						<g>
							<path class="st3" d="M0,500"/>
						</g>
						<g>
							<path class="st3" d="M0,500"/>
						</g>
						<g>
							<path class="st3" d="M0,500"/>
						</g>
						<g>
							<path class="st3" d="M0,500"/>
						</g>
						<g>
							<path class="st3" d="M0,500"/>
						</g>
						<g>
							<path class="st3" d="M0,500"/>
						</g>
						<g>
							<path class="st3" d="M0,500"/>
						</g>
						<g>
							<path class="st3" d="M0,500"/>
						</g>
						<g>
							<path class="st3" d="M0,500"/>
						</g>
						<g>
							<path class="st3" d="M0,500"/>
						</g>
						<g>
							<path class="st3" d="M0,500"/>
						</g>
					</g>
				</g>
			</g>
		</g>
	</g>
</g>
</svg>
