<?xml version="1.0" encoding="utf-8"?>
<!-- Generator: Adobe Illustrator 27.5.0, SVG Export Plug-In . SVG Version: 6.00 Build 0)  -->
<svg version="1.1" id="Layer_1" xmlns="http://www.w3.org/2000/svg" xmlns:xlink="http://www.w3.org/1999/xlink" x="0px" y="0px"
	 viewBox="0 0 500 500" style="enable-background:new 0 0 500 500;" xml:space="preserve">
<style type="text/css">
	.st0{clip-path:url(#SVGID_00000145059940885598531920000011037342070525489811_);}
	.st1{fill:#FFFFFF;}
	.st2{display:none;fill:none;stroke:#FFFFFF;stroke-width:12;stroke-linecap:round;stroke-linejoin:round;}
	.st3{fill:none;stroke:#FFFFFF;stroke-width:12;stroke-linecap:round;stroke-linejoin:round;}
</style>
<g>
	<g>
		<g>
			<g>
				<defs>
					<rect id="SVGID_1_" width="500" height="500"/>
				</defs>
				<clipPath id="SVGID_00000099652411785330339860000000546165483689106826_">
					<use xlink:href="#SVGID_1_"  style="overflow:visible;"/>
				</clipPath>
				<g style="clip-path:url(#SVGID_00000099652411785330339860000000546165483689106826_);">
					<g>
						<g>
							<path class="st1" d="M168.7,342.6h-12v-10.3c-7.9-1.8-15.2-6.2-20.2-12.7l9.4-7.4c5,6.3,13.2,9.8,21,8.8
								c2.3-0.3,5.5-1.1,8-3.1l0.1-0.1c1.9-1.5,3.1-3.8,3.2-5.9c0.2-6.1-3.7-8.2-16.2-11.7c-10-2.8-25.2-7-23.5-23.5
								c0.8-8.1,7-15.4,15.4-18.2c0.9-0.3,1.8-0.5,2.8-0.7v-10.2h12v10.3c8.2,1.8,15.7,7.1,20.2,14.8l-10.4,6
								c-3.8-6.5-12.6-11.5-20.8-8.8c-3.9,1.3-6.9,4.6-7.2,8c-0.6,5.3,2.1,7.2,14.8,10.7c10.7,3,25.4,7,25,23.5
								c-0.1,5.6-3,11.1-7.6,14.9c-3.7,3.1-8.5,5.1-13.9,5.8v9.8L168.7,342.6L168.7,342.6z M358.8,317.2H226.2v-12h132.6V317.2z
								 M358.8,285H296v-12h62.8V285z M267.4,285h-41.2v-12h41.2V285z M114.6,229.9l-2-5.6c-2-5.6-4-11.1-6-16.7
								c-2-5.6-4-11.1-6-16.7l-2-5.6l5.6-2c94.1-33.9,197.7-33.9,291.8,0l5.7,2l-2.1,5.7c-3.2,8.8-6.5,17.7-9.6,26.4l-4.5,12.6
								l-5.6-2c-83.7-30.2-175.9-30.2-259.5,0L114.6,229.9z M250,193.2c43.4,0,86.7,7.1,128.2,21.3l0.5-1.4c2.5-6.8,5-13.8,7.5-20.8
								c-88-30.3-184.2-30.3-272.3,0c1.3,3.7,2.6,7.3,4,11c1.3,3.7,2.7,7.4,4,11.1C163.3,200.3,206.6,193.2,250,193.2z"/>
						</g>
						<g>
							<path class="st1" d="M162.7,348.6c-3.3,0-6-2.7-6-6v-10.3c-7.9-1.8-15.2-6.2-20.2-12.7c-2-2.6-1.6-6.4,1-8.4s6.4-1.6,8.4,1
								c4,5,10,8.2,16.2,8.8c0.6-0.1,1.2,0,1.8,0.1c1,0,2,0,3-0.2c3.1-0.4,6-1.5,8.1-3.2c1.9-1.5,3.1-3.8,3.2-5.9
								c0.2-6.1-3.7-8.1-16.1-11.6c-10.1-2.8-25.3-7-23.5-23.6c0.8-8.1,7-15.4,15.4-18.2c0.9-0.3,1.8-0.5,2.8-0.7v-10.2
								c0-3.3,2.7-6,6-6s6,2.7,6,6v10.3c8.2,1.8,15.7,7.1,20.2,14.8c1.7,2.9,0.7,6.5-2.2,8.2s-6.5,0.7-8.2-2.2
								c-2.9-5-8.8-9.2-15.2-9.5c-0.5,0-0.9,0-1.4,0c-1.4,0-2.8,0.3-4.3,0.7c-3.9,1.3-6.9,4.6-7.2,8c-0.6,5.6,2.8,7.5,14.8,10.8
								c10.7,3,25.3,7,24.9,23.5c-0.1,5.6-3,11.2-7.6,14.9c-3.7,3-8.7,5.1-13.9,5.8v9.8C168.7,345.9,166,348.6,162.7,348.6z
								 M358.8,317.2H226.2c-3.3,0-6-2.7-6-6s2.7-6,6-6h132.6c3.3,0,6,2.7,6,6S362.1,317.2,358.8,317.2z M358.8,285H296
								c-3.3,0-6-2.7-6-6s2.7-6,6-6h62.8c3.3,0,6,2.7,6,6S362.1,285,358.8,285z M267.4,285h-41.2c-3.3,0-6-2.7-6-6s2.7-6,6-6h41.2
								c3.3,0,6,2.7,6,6S270.7,285,267.4,285z M381.8,228.2c-0.7,0-1.4-0.1-2-0.4c-83.7-30.2-175.9-30.2-259.5,0
								c-1.5,0.5-3.1,0.5-4.6-0.2c-1.4-0.7-2.6-1.9-3.1-3.4l-12-33.4c-1.1-3.1,0.5-6.6,3.6-7.7c94.1-33.9,197.7-33.9,291.8,0
								c1.5,0.5,2.7,1.7,3.4,3.1s0.8,3.1,0.2,4.6l-12.1,33.4C386.6,226.7,384.3,228.2,381.8,228.2z M250,193.2
								c43.4,0,86.7,7.1,128.2,21.3l8-22.1c-88-30.3-184.3-30.3-272.3,0l7.9,22.1C163.3,200.3,206.6,193.2,250,193.2z"/>
						</g>
						<g>
							<path class="st1" d="M436.8,389.4L436.8,389.4c-123.5-0.4-252.6-0.4-373.6,0l0,0c-1.5,0-2.9-0.5-4.1-1.6l0,0l0,0l-0.1-0.1
								c-1.2-1.2-1.8-2.7-1.8-4.3c0-16.5-0.1-33.3-0.1-50.4c-0.2-72.6-0.4-147.6,0.1-215.4c-0.3-1.9,0.2-3.9,1.7-5.3l0.1-0.1
								c1.1-1.1,2.6-1.7,4.2-1.7c0,0,0,0,0.1,0c61.4,0.6,162.5,0.4,251.7,0.2c46.2-0.1,89.9-0.2,121.9-0.2c1.7,0,3.2,0.7,4.3,1.8
								c1.5,1.4,2.1,3.4,1.7,5.3c0.9,65.4,1.2,185,0,265.9v0.1l0,0l0,0c0,0.7-0.2,1.4-0.4,2c-0.3,0.8-0.8,1.5-1.4,2.1
								s-1.3,1-2.1,1.3c-0.6,0.2-1.2,0.4-1.9,0.4l0,0C436.9,389.4,436.9,389.4,436.8,389.4z M249.1,377.1
								c58.1,0,116.4,0.1,173.7,0.3l-12.6-13.2c-2.3-2.4-2.2-6.2,0.2-8.5c2.4-2.3,6.2-2.2,8.5,0.2l12.3,12.8
								c0.9-74.4,0.7-174.2,0-237.3l-12.3,12.8c-2.3,2.4-6.1,2.5-8.5,0.2s-2.5-6.1-0.2-8.5l12.8-13.3c-0.1,0-0.2,0-0.3,0
								c-30.2,0-68,0.1-107.7,0.2c-82.7,0.2-175.6,0.4-237.7,0L90,136c2.3,2.4,2.2,6.2-0.2,8.5c-2.4,2.3-6.2,2.2-8.5-0.2l-12.2-12.7
								c-0.4,64-0.2,133.8,0,201.5c0,11.9,0.1,23.8,0.1,35.5L81.3,356c2.3-2.4,6.1-2.5,8.5-0.2s2.5,6.1,0.2,8.5l-12.6,13.2
								C133.4,377.2,191.1,377.1,249.1,377.1z"/>
						</g>
					</g>
					<g>
						<g>
							<path class="st2" d="M0,500"/>
						</g>
						<g>
							<path class="st3" d="M0,500"/>
						</g>
						<g>
							<path class="st3" d="M0,500"/>
						</g>
						<g>
							<path class="st3" d="M0,500"/>
						</g>
						<g>
							<path class="st3" d="M0,500"/>
						</g>
						<g>
							<path class="st3" d="M0,500"/>
						</g>
						<g>
							<path class="st3" d="M0,500"/>
						</g>
						<g>
							<path class="st3" d="M0,500"/>
						</g>
						<g>
							<path class="st3" d="M0,500"/>
						</g>
						<g>
							<path class="st3" d="M0,500"/>
						</g>
						<g>
							<path class="st3" d="M0,500"/>
						</g>
						<g>
							<path class="st3" d="M0,500"/>
						</g>
					</g>
				</g>
			</g>
		</g>
	</g>
</g>
</svg>
