<?xml version="1.0" encoding="iso-8859-1"?>
<!-- Generator: Adobe Illustrator 29.6.1, SVG Export Plug-In . SVG Version: 9.03 Build 0)  -->
<svg version="1.1" id="Layer_1" xmlns="http://www.w3.org/2000/svg" xmlns:xlink="http://www.w3.org/1999/xlink" x="0px" y="0px"
	 viewBox="0 0 500 500" style="enable-background:new 0 0 500 500;" xml:space="preserve">
<g>
	<g>
		<path style="fill:#FFFFFF;" d="M437.02,238.38h-46.36c-3.313,0-6-2.687-6-6c0-3.314,2.687-6,6-6h40.36v-24.206L249.914,83.708
			L69.025,203.033l-0.036,23.347h40.741c3.313,0,6,2.686,6,6c0,3.313-2.687,6-6,6H62.98c-1.593,0-3.121-0.633-4.246-1.761
			c-1.125-1.127-1.756-2.656-1.754-4.249l0.05-32.58c0.003-2.013,1.016-3.891,2.696-4.999l186.87-123.27
			c1.998-1.317,4.588-1.322,6.588-0.013l187.12,122.4c1.694,1.108,2.716,2.996,2.716,5.021v33.45
			C443.02,235.693,440.333,238.38,437.02,238.38z"/>
	</g>
	<g>
		<path style="fill:#FFFFFF;" d="M290.03,209.05h-80.06c-3.313,0-6-2.687-6-6v-26.69c0-3.313,2.687-6,6-6h80.06c3.313,0,6,2.687,6,6
			v26.69C296.03,206.363,293.343,209.05,290.03,209.05z M215.97,197.05h68.06v-14.69h-68.06V197.05z"/>
	</g>
	<g>
		<path style="fill:#FFFFFF;" d="M356.74,429.47H143.25c-3.313,0-6-2.687-6-6V232.38c0-3.313,2.687-6,6-6h213.49
			c3.313,0,6,2.687,6,6v31.503c0.007,0.114,0.01,0.229,0.01,0.345s-0.003,0.23-0.01,0.345v31.158c0.007,0.114,0.01,0.229,0.01,0.345
			s-0.003,0.23-0.01,0.345v31.159c0.007,0.114,0.01,0.229,0.01,0.345s-0.003,0.23-0.01,0.345v31.159
			c0.007,0.114,0.01,0.229,0.01,0.345s-0.003,0.23-0.01,0.345v31.158c0.007,0.114,0.01,0.229,0.01,0.345s-0.003,0.23-0.01,0.345
			v31.505C362.74,426.784,360.053,429.47,356.74,429.47z M149.25,417.47h201.49v-19.85H149.25V417.47z M149.25,385.62h201.49
			v-19.848H149.25V385.62z M149.25,353.773h201.49v-19.849H149.25V353.773z M149.25,321.924h201.49v-19.849H149.25V321.924z
			 M149.25,290.076h201.49v-19.848H149.25V290.076z M149.25,258.228h201.49V238.38H149.25V258.228z"/>
	</g>
	<g>
		<path style="fill:#FFFFFF;" d="M390.66,429.45H110.5c-3.314,0-6-2.687-6-6V213.44c0-2.017,1.013-3.898,2.696-5.009l139.5-92.01
			c1.998-1.316,4.586-1.322,6.588-0.012l140.659,92.01c1.694,1.108,2.716,2.996,2.716,5.021v210.01
			C396.66,426.763,393.973,429.45,390.66,429.45z M116.5,417.45h268.16V216.684l-134.646-88.076L116.5,216.67V417.45z"/>
	</g>
</g>
</svg>
