<?xml version="1.0" encoding="utf-8"?>
<!-- Generator: Adobe Illustrator 27.5.0, SVG Export Plug-In . SVG Version: 6.00 Build 0)  -->
<svg version="1.1" id="Layer_1" xmlns="http://www.w3.org/2000/svg" xmlns:xlink="http://www.w3.org/1999/xlink" x="0px" y="0px"
	 viewBox="0 0 500 500" style="enable-background:new 0 0 500 500;" xml:space="preserve">
<style type="text/css">
	.st0{clip-path:url(#SVGID_00000074407474227024479970000013760576968324725650_);}
	.st1{fill:#FFFFFF;}
	.st2{display:none;fill:none;stroke:#FFFFFF;stroke-width:21;stroke-linecap:round;stroke-linejoin:round;}
	.st3{fill:none;stroke:#FFFFFF;stroke-width:21;stroke-linecap:round;stroke-linejoin:round;}
</style>
<g>
	<g>
		<g>
			<g>
				<defs>
					<rect id="SVGID_1_" width="500" height="500"/>
				</defs>
				<clipPath id="SVGID_00000175318713099965757080000016306228287760328115_">
					<use xlink:href="#SVGID_1_"  style="overflow:visible;"/>
				</clipPath>
				<g style="clip-path:url(#SVGID_00000175318713099965757080000016306228287760328115_);">
					<g>
						<path class="st1" d="M250.7,384c-0.2,0-0.5,0-0.7,0c-43.3-0.2-71.8-14.4-88.2-26.3c-18-13.1-25.5-26.2-25.8-26.8
							c-0.5-0.9-0.8-1.9-0.8-3l0.4-86.3c0-3.3,2.7-6,6-6l0,0c3.3,0,6,2.7,6,6l-0.4,84.6c2.2,3.3,9.2,12.8,22.2,22.1
							c14.8,10.7,40.9,23.4,80.6,23.6c39.1,0.2,64.6-12.6,79.2-23.3c12.9-9.5,19.7-19.1,21.8-22.4l0.4-84.6c0-3.3,2.7-6,6-6l0,0
							c3.3,0,6,2.7,6,6L363,328c0,1-0.3,2-0.7,2.8c-0.3,0.6-7.7,13.9-25.4,27C320.9,369.8,293,384,250.7,384z"/>
					</g>
					<g>
						<path class="st1" d="M249.5,277.8c-0.7,0-1.4-0.1-2-0.3L68,213.7c-2.4-0.9-4-3.1-4-5.7l0.2-27.5c-0.1-0.5-0.2-1-0.2-1.5
							c0-2.5,1.6-4.8,4-5.7l179.5-63.8c1.3-0.5,2.7-0.5,4,0l180.4,63.8c2.4,0.8,4,3.1,4,5.7l0,0c0,0,0,0,0,0.1v28.7
							c0,2.5-1.6,4.8-4,5.7l-180.4,64C250.9,277.7,250.2,277.8,249.5,277.8z M76,203.8l173.5,61.7l174.4-61.9v-16.1l-172.4,61
							c-1.3,0.5-2.7,0.5-4,0L76.1,187.6L76,203.8z M87.9,179l161.6,57.4L411.9,179l-162.4-57.4L87.9,179z"/>
					</g>
					<g>
						<g>
							<path class="st1" d="M327.5,343.3c-3.3,0-6-2.7-6-6v-23.8c0-0.4,0-0.8,0.1-1.2c-0.1-0.4-0.1-0.8-0.1-1.2V210.2l-73.1-26.6
								c-3.1-1.1-4.7-4.6-3.6-7.7c1.1-3.1,4.6-4.7,7.7-3.6l77,28c2.4,0.9,3.9,3.1,3.9,5.6v105c0,0.4,0,0.8-0.1,1.2
								c0.1,0.4,0.1,0.8,0.1,1.2v23.8C333.5,340.6,330.8,343.3,327.5,343.3z"/>
						</g>
						<g>
							<path class="st1" d="M327.5,347.8c-5.8,0-10.5-4.7-10.5-10.5v-23.8c0-5.8,4.7-10.5,10.5-10.5s10.5,4.7,10.5,10.5v23.8
								C338,343.1,333.3,347.8,327.5,347.8z"/>
						</g>
					</g>
					<g>
						<g>
							<g>
								<path class="st2" d="M0,500"/>
							</g>
						</g>
						<g>
							<g>
								<path class="st3" d="M0,500"/>
							</g>
						</g>
						<g>
							<g>
								<path class="st3" d="M0,500"/>
							</g>
						</g>
						<g>
							<g>
								<path class="st3" d="M0,500"/>
							</g>
						</g>
						<g>
							<g>
								<path class="st3" d="M0,500"/>
							</g>
						</g>
						<g>
							<g>
								<path class="st3" d="M0,500"/>
							</g>
						</g>
						<g>
							<g>
								<path class="st3" d="M0,500"/>
							</g>
						</g>
						<g>
							<g>
								<path class="st3" d="M0,500"/>
							</g>
						</g>
						<g>
							<g>
								<path class="st3" d="M0,500"/>
							</g>
						</g>
						<g>
							<g>
								<path class="st3" d="M0,500"/>
							</g>
						</g>
						<g>
							<g>
								<path class="st3" d="M0,500"/>
							</g>
						</g>
						<g>
							<g>
								<path class="st3" d="M0,500"/>
							</g>
						</g>
					</g>
				</g>
			</g>
		</g>
	</g>
</g>
</svg>
