<?xml version="1.0" encoding="utf-8"?>
<!-- Generator: Adobe Illustrator 27.5.0, SVG Export Plug-In . SVG Version: 6.00 Build 0)  -->
<svg version="1.1" id="Layer_1" xmlns="http://www.w3.org/2000/svg" xmlns:xlink="http://www.w3.org/1999/xlink" x="0px" y="0px"
	 viewBox="0 0 500 500" style="enable-background:new 0 0 500 500;" xml:space="preserve">
<style type="text/css">
	.st0{clip-path:url(#SVGID_00000132063752658026489270000004670923441529435280_);}
	.st1{fill:#FFFFFF;}
	.st2{fill:none;stroke:#FFFFFF;stroke-width:12;stroke-linecap:round;stroke-linejoin:round;}
</style>
<g>
	<g>
		<g>
			<g>
				<g>
					<g>
						<defs>
							<rect id="SVGID_1_" width="500" height="500"/>
						</defs>
						<clipPath id="SVGID_00000153695720913369517480000009611464913910796710_">
							<use xlink:href="#SVGID_1_"  style="overflow:visible;"/>
						</clipPath>
						<g style="clip-path:url(#SVGID_00000153695720913369517480000009611464913910796710_);">
							<g>
								<path class="st1" d="M185.4,432.5h-68.3c-7,0-12.7-5.7-12.7-12.7v-37c0-7,5.7-12.7,12.7-12.7h1.4v-14.5l-47-53
									c-5.3-6-8.2-13.8-8.2-21.8v-90c0-13,10.6-23.6,23.6-23.6s23.6,10.6,23.6,23.6l-0.2,66.1c1.1-0.5,2.3-0.9,3.5-1.2
									c11.5-3.2,24.4,0.6,32.9,9.6l48.3,51.8c1,1.1,1.6,2.6,1.6,4.1v49.1c3,0.5,5.8,2.2,7.7,4.6c2.4,3.1,3.3,7,2.4,10.9l-9.1,36.9
									C196.4,428.4,191.3,432.5,185.4,432.5z M117.1,382.1c-0.4,0-0.7,0.3-0.7,0.7v37c0,0.4,0.3,0.7,0.7,0.7h68.3
									c0.3,0,0.5-0.1,0.5-0.3c0-0.1,0-0.2,0.1-0.3l9.1-37c0.1-0.2-0.1-0.5-0.2-0.6c-0.1-0.2-0.3-0.3-0.5-0.3L117.1,382.1
									L117.1,382.1z M130.5,370.1h54.1v-46.5l-46.7-50.1c-5.4-5.8-13.6-8.2-20.9-6.2c-5,1.3-6.4,3.7-6.7,6.2v0.2l34.5,38.7
									c1,1.1,1.5,2.6,1.5,4c0,1.7-0.7,3.3-2,4.5c-2.5,2.2-6.3,2-8.5-0.5l-36-40.4l0,0l0,0l0,0l0,0l0,0l0,0l0,0l0,0l0,0l0,0l0,0
									l0,0l0,0l0,0l0,0l0,0l0,0l0,0l0,0l0,0l0,0l0,0l0,0l0,0l0,0l0,0l0,0l0,0l0,0c-0.4-0.5-0.7-1-1-1.6l0,0l0,0l0,0l0,0l0,0l0,0
									l0,0l0,0l0,0l0,0l0,0l0,0l0,0l0,0l0,0l0,0l0,0l0,0l0,0l0,0l0,0l0,0l0,0l0,0l0,0l0,0l0,0l0,0l0,0l0,0l0,0l0,0l0,0
									c-0.1-0.3-0.2-0.7-0.3-1l0,0v-0.1l0,0c0-0.2-0.1-0.4-0.1-0.6c-0.1-1.1-0.1-2.2,0-3.3l0.2-82.4c0-6.4-5.2-11.6-11.6-11.6
									s-11.6,5.2-11.6,11.6v90c0,5.1,1.9,10,5.2,13.8l48.5,54.7c1,1.1,1.5,2.5,1.5,4v16.6L130.5,370.1L130.5,370.1z"/>
							</g>
							<g>
								<path class="st1" d="M382.9,432.5h-68.3c-5.9,0-11-4.1-12.3-9.8l-9.1-36.9c-0.9-3.9,0-7.8,2.4-10.9c2-2.5,4.7-4.1,7.7-4.6
									v-49.1c0-1.5,0.6-3,1.6-4.1l48.3-51.8c8.4-9,21.3-12.8,32.9-9.6c1.2,0.3,2.4,0.7,3.4,1.2l-0.2-66.1
									c0-13,10.6-23.6,23.6-23.6s23.6,10.6,23.6,23.6v90c0,8-2.9,15.7-8.2,21.8l-47,53v14.5h1.4c7,0,12.7,5.7,12.7,12.7v37
									C395.6,426.8,389.9,432.5,382.9,432.5z M305.6,382.1c-0.2,0-0.4,0.1-0.5,0.3c-0.1,0.1-0.2,0.4-0.2,0.6l9.1,37
									c0,0.1,0,0.2,0.1,0.3c0,0.1,0.2,0.3,0.5,0.3h68.3c0.4,0,0.7-0.3,0.7-0.7v-37c0-0.4-0.3-0.7-0.7-0.7L305.6,382.1L305.6,382.1
									z M315.4,370.1h54.1v-16.8c0-1.5,0.5-2.9,1.5-4l48.5-54.7c3.3-3.8,5.2-8.7,5.2-13.8v-90c0-6.4-5.2-11.6-11.6-11.6
									s-11.6,5.2-11.6,11.6l0.2,82.3c0.1,1.1,0.1,2.1,0,3.3c0,0.2,0,0.4-0.1,0.6l0,0v0.1l0,0c-0.1,0.3-0.2,0.7-0.3,1l0,0l0,0l0,0
									l0,0l0,0l0,0l0,0l0,0l0,0l0,0l0,0l0,0l0,0l0,0l0,0l0,0l0,0l0,0l0,0l0,0l0,0l0,0l0,0l0,0l0,0l0,0l0,0l0,0l0,0l0,0l0,0l0,0
									l0,0c-0.2,0.6-0.6,1.1-1,1.6l0,0l0,0l0,0l0,0l0,0l0,0l0,0l0,0l0,0l0,0l0,0l0,0l0,0l0,0l0,0l0,0l0,0l0,0l0,0l0,0l0,0l0,0l0,0
									l0,0l0,0l0,0l0,0l0,0l0,0l-36,40.4c-2.2,2.5-6,2.7-8.5,0.5c-1.3-1.2-2-2.8-2-4.5c0-1.4,0.5-2.8,1.5-4l34.5-38.7v-0.2
									c-0.3-2.5-1.7-4.9-6.7-6.2c-7.3-2-15.5,0.4-20.9,6.2l-46.7,50.1v46.8H315.4z"/>
							</g>
							<g>
								<path class="st1" d="M250.4,331c-3.3,0-6-2.7-6-6v-75.1c-18.9,10.1-36.7,11.6-53,4.4c-44.6-19.6-60.8-97.3-61.5-100.6
									c-0.4-1.8,0.1-3.6,1.2-5c1.1-1.4,2.8-2.2,4.6-2.2c3.3,0,78.5,0.1,108.5,36.5v-23.6c0-1.9,0.9-3.5,2.2-4.6
									c-5-20.8-2-38.5,9.1-52.5c30.2-38.2,109.6-34.2,112.9-34c1.8,0.1,3.4,1,4.5,2.4s1.4,3.3,1,5c-0.8,3.3-21.1,80.1-66.6,97.3
									c-16.2,6.1-33.3,4-51.1-6.3v45.4c0.3,3.4,0.3,6.8,0,10.4l0.1,102.3C256.4,328.3,253.7,331,250.4,331L250.4,331z
									 M143.5,158.7c5.1,19.4,21.2,70.8,52.7,84.6c11.8,5.2,24.8,4.4,38.9-2.3l-20.4-16.6c-0.3-0.2-0.5-0.4-0.7-0.6l-13.7-11.2
									l-22.1,2.3c-3.3,0.3-6.2-2.1-6.6-5.4c-0.3-3.3,2.1-6.2,5.4-6.6l10.2-1.1l-14.3-11.6c-2.6-2.1-3-5.9-0.9-8.4
									c2.1-2.6,5.9-3,8.4-0.9l24.2,19.7c1.3,0.5,2.4,1.4,3.2,2.6l2.9,2.4l-1.1-10.6c-0.3-3.3,2.1-6.2,5.4-6.6
									c3.3-0.3,6.2,2.1,6.6,5.4l2.3,22.6l18.9,15.4c0.8-3.4,1.4-6.8,1.6-10v-8.4c-0.6-7.5-3.1-14.3-7.3-20.2
									C217.1,165.2,163.5,159.8,143.5,158.7z M264.4,157.6c13.7,7.4,26.8,8.8,38.8,4.3c32.2-12.2,51-62.7,57.1-81.8
									c-20,0-73.9,2.6-95.2,29.6c-8,10.1-10.5,22.9-7.7,38.2l36.3-26.6l3.4-21.9c0.5-3.3,3.6-5.5,6.9-5s5.5,3.6,5,6.9l-1.6,10
									l14.9-10.9c2.7-2,6.4-1.4,8.4,1.3c2,2.7,1.4,6.4-1.3,8.4l-25.2,18.4c-0.8,1.2-2,2.1-3.4,2.5l-3,2.2l10.7,1.7
									c3.3,0.5,5.5,3.6,5,6.9c-0.5,3.3-3.6,5.5-6.9,5l-22.5-3.5L264.4,157.6z"/>
							</g>
						</g>
					</g>
				</g>
			</g>
		</g>
	</g>
	<g>
		<path class="st2" d="M0,500"/>
	</g>
</g>
</svg>
