<?xml version="1.0" encoding="utf-8"?>
<!-- Generator: Adobe Illustrator 27.5.0, SVG Export Plug-In . SVG Version: 6.00 Build 0)  -->
<svg version="1.1" id="Layer_1" xmlns="http://www.w3.org/2000/svg" xmlns:xlink="http://www.w3.org/1999/xlink" x="0px" y="0px"
	 viewBox="0 0 500 500" style="enable-background:new 0 0 500 500;" xml:space="preserve">
<style type="text/css">
	.st0{fill:#FFFFFF;}
	.st1{display:none;fill:none;stroke:#FFFFFF;stroke-width:12;stroke-linecap:round;stroke-linejoin:round;}
	.st2{fill:none;stroke:#FFFFFF;stroke-width:12;stroke-linecap:round;stroke-linejoin:round;}
</style>
<g>
	<g>
		<g>
			<path class="st0" d="M353.5,421.6H146.8c-17,0-30.8-13.8-30.8-30.8v-288c0-17,13.8-30.8,30.8-30.8h206.7
				c17,0,30.8,13.8,30.8,30.8v288C384.3,407.8,370.5,421.6,353.5,421.6z M146.8,84c-10.4,0-18.8,8.4-18.8,18.8v288
				c0,10.4,8.4,18.8,18.8,18.8h206.7c10.4,0,18.8-8.4,18.8-18.8v-288c0-10.4-8.4-18.8-18.8-18.8L146.8,84L146.8,84z M343,346.2
				H156.8c-8.2,0-14.8-6.6-14.8-14.8l0.2-218.5c0-8.2,6.6-14.8,14.8-14.8h186.3c8.2,0,14.8,6.6,14.8,14.8l-0.2,218.5v0.1
				C357.7,339.8,351.2,346.2,343,346.2z M157,110.1c-1.5,0-2.8,1.3-2.8,2.8L154,331.4c0,1.5,1.3,2.8,2.8,2.8H343
				c1.6,0,2.8-1.2,2.9-2.9l0.2-218.4c0-1.5-1.3-2.8-2.8-2.8C343.3,110.1,157,110.1,157,110.1z"/>
		</g>
		<g>
			<path class="st0" d="M297.4,378.2c0,2.7-2.1,4.8-4.8,4.8s-4.8-2.1-4.8-4.8s2.1-4.8,4.8-4.8S297.4,375.6,297.4,378.2z
				 M210.9,378.2c0,2.7-2.1,4.8-4.7,4.9c-2.7,0-4.8-2.1-4.9-4.7v-0.1c0-2.7,2.2-4.8,4.9-4.7C208.8,373.5,210.9,375.6,210.9,378.2z
				 M257.6,378.2c0,4.5-3.7,8.2-8.2,8.2l0,0c-4.5,0-8.2-3.7-8.2-8.2l0,0c0-4.5,3.7-8.2,8.2-8.2l0,0
				C253.9,370,257.6,373.7,257.6,378.2L257.6,378.2z"/>
		</g>
		<g>
			<path class="st0" d="M249.4,392.4c-7.8,0-14.2-6.4-14.2-14.2s6.4-14.2,14.2-14.2c7.8,0,14.2,6.4,14.2,14.2
				S257.2,392.4,249.4,392.4z M249.4,376c-1.2,0-2.2,1-2.2,2.2s1,2.2,2.2,2.2s2.2-1,2.2-2.2S250.6,376,249.4,376z M206.2,389.1
				c-5.9,0-10.7-4.6-10.9-10.5c0-0.1,0-0.2,0-0.2v-0.1c0-2.9,1.2-5.7,3.3-7.7s4.8-3,7.6-3s5.4,1,7.4,2.9c2.1,2,3.3,4.8,3.3,7.7
				c0,5.9-4.6,10.7-10.5,10.9C206.4,389.1,206.3,389.1,206.2,389.1z M206.2,378.4v1.2c0.3,0,0.5-0.2,0.7-0.4
				c0.2-0.2,0.4-0.5,0.4-0.8L206.2,378.4L206.2,378.4z M204.9,378.4c0,0.3,0.2,0.6,0.4,0.8c0.2,0.2,0.5,0.3,0.7,0.4v-1.2
				L204.9,378.4L204.9,378.4z M206,377.1c-0.6,0-1.1,0.6-1.1,1.1c0,0,0,0,0,0.1h1.1V377.1z M206.2,377.1v1.1h1.1
				C207.3,377.5,206.7,377.1,206.2,377.1z M292.6,389c-6.1,0-10.8-4.7-10.8-10.8s4.7-10.8,10.8-10.8c6,0,10.8,4.8,10.8,10.8
				C303.4,384.3,298.7,389,292.6,389z M292.6,377c-0.6,0-1.2,0.6-1.2,1.2c0,0.7,0.6,1.2,1.2,1.2s1.2-0.6,1.2-1.2
				S293.2,377,292.6,377z"/>
		</g>
	</g>
	<g>
		<g>
			<path class="st1" d="M0,500"/>
		</g>
		<g>
			<path class="st2" d="M0,500"/>
		</g>
		<g>
			<path class="st2" d="M0,500"/>
		</g>
		<g>
			<path class="st2" d="M0,500"/>
		</g>
		<g>
			<path class="st2" d="M0,500"/>
		</g>
		<g>
			<path class="st2" d="M0,500"/>
		</g>
		<g>
			<path class="st2" d="M0,500"/>
		</g>
		<g>
			<path class="st2" d="M0,500"/>
		</g>
		<g>
			<path class="st2" d="M0,500"/>
		</g>
		<g>
			<path class="st2" d="M0,500"/>
		</g>
		<g>
			<path class="st2" d="M0,500"/>
		</g>
		<g>
			<path class="st2" d="M0,500"/>
		</g>
	</g>
	<g>
		<g>
			<path class="st0" d="M249.3,316.8h-77.5c-3.3,0-6-2.7-6-6s2.7-6,6-6h77.5c3.3,0,6,2.7,6,6S252.6,316.8,249.3,316.8z M325.3,316.7
				L325.3,316.7l-47.7-0.2c-3.3,0-6-2.7-6-6s2.7-6,6-6l47.7,0.2c3.3,0,6,2.7,6,6S328.6,316.7,325.3,316.7z M221.8,286.8h-50
				c-3.3,0-6-2.7-6-6s2.7-6,6-6h50c3.3,0,6,2.7,6,6S225.1,286.8,221.8,286.8z M325.3,286.7L325.3,286.7l-75.2-0.2c-3.3,0-6-2.7-6-6
				s2.7-6,6-6l0,0l75.2,0.2c3.3,0,6,2.7,6,6S328.6,286.7,325.3,286.7z M296.5,257L296.5,257l-124.7-0.2c-3.3,0-6-2.7-6-6s2.7-6,6-6
				l0,0l124.7,0.2c3.3,0,6,2.7,6,6C302.5,254.3,299.8,257,296.5,257z M325.4,256.8h-0.5c-3.3,0-6-2.7-6-6s2.7-6,6-6h0.5
				c3.3,0,6,2.7,6,6S328.7,256.8,325.4,256.8z M209.4,226.8h-37.5c-3.3,0-6-2.7-6-6s2.7-6,6-6h37.5c3.3,0,6,2.7,6,6
				S212.7,226.8,209.4,226.8z M325.4,226.7L325.4,226.7l-87.7-0.2c-3.3,0-6-2.7-6-6s2.7-6,6-6l0,0l87.7,0.2c3.3,0,6,2.7,6,6
				S328.7,226.7,325.4,226.7z M271.9,196.8h-100c-3.3,0-6-2.7-6-6s2.7-6,6-6h100c3.3,0,6,2.7,6,6S275.2,196.8,271.9,196.8z
				 M325.4,196.7L325.4,196.7l-25.2-0.2c-3.3,0-6-2.7-6-6s2.7-6,6-6l25.2,0.2c3.3,0,6,2.7,6,6S328.7,196.7,325.4,196.7z
				 M249.4,166.8h-77.5c-3.3,0-6-2.7-6-6s2.7-6,6-6h77.5c3.3,0,6,2.7,6,6S252.7,166.8,249.4,166.8z M325.4,166.7L325.4,166.7
				l-47.7-0.2c-3.3,0-6-2.7-6-6s2.7-5.9,6-6l47.7,0.2c3.3,0,6,2.7,6,6S328.7,166.7,325.4,166.7z M181.9,136.8h-10c-3.3,0-6-2.7-6-6
				s2.7-6,6-6h10c3.3,0,6,2.7,6,6S185.2,136.8,181.9,136.8z M325.4,136.7L325.4,136.7l-115.2-0.2c-3.3,0-6-2.7-6-6s2.7-6,6-6l0,0
				l115.2,0.2c3.3,0,6,2.7,6,6S328.7,136.7,325.4,136.7z"/>
		</g>
	</g>
</g>
</svg>
