<?xml version="1.0" encoding="utf-8"?>
<!-- Generator: Adobe Illustrator 27.5.0, SVG Export Plug-In . SVG Version: 6.00 Build 0)  -->
<svg version="1.1" id="Layer_1" xmlns="http://www.w3.org/2000/svg" xmlns:xlink="http://www.w3.org/1999/xlink" x="0px" y="0px"
	 viewBox="0 0 500 500" style="enable-background:new 0 0 500 500;" xml:space="preserve">
<style type="text/css">
	.st0{clip-path:url(#SVGID_00000176005367292049667840000013820357717838946210_);}
	.st1{fill:#FFFFFF;}
	.st2{fill:none;stroke:#FFFFFF;stroke-width:12.04;stroke-linecap:round;stroke-linejoin:round;}
	.st3{display:none;fill:none;stroke:#FFFFFF;stroke-width:12.04;stroke-linecap:round;stroke-linejoin:round;}
</style>
<g>
	<g>
		<g>
			<g>
				<defs>
					<rect id="SVGID_1_" width="500" height="500"/>
				</defs>
				<clipPath id="SVGID_00000012441752548877734320000015230005843373038731_">
					<use xlink:href="#SVGID_1_"  style="overflow:visible;"/>
				</clipPath>
				<g style="clip-path:url(#SVGID_00000012441752548877734320000015230005843373038731_);">
					<g>
						<g>
							<path class="st1" d="M387.7,416.1H112.3c-15.7,0-28.4-12.7-28.4-28.4V112.3c0-15.7,12.7-28.4,28.4-28.4h275.4
								c15.7,0,28.4,12.7,28.4,28.4v275.4C416.1,403.4,403.4,416.1,387.7,416.1z M95.9,147.3v240.4c0,9,7.4,16.4,16.4,16.4h275.4
								c9,0,16.4-7.4,16.4-16.4V147.3H95.9z M95.9,135.3h308.2v-23c0-9-7.4-16.4-16.4-16.4H112.3c-9,0-16.4,7.4-16.4,16.4V135.3z"/>
						</g>
						<g>
							<path class="st1" d="M181,123.1h-0.1c-4.2,0-7.5-3.4-7.5-7.5s3.4-7.5,7.5-7.5h0.1c4.2,0,7.5,3.4,7.5,7.5
								S185.2,123.1,181,123.1z M152.8,123.1c-4.2,0-7.6-3.4-7.6-7.5s3.3-7.5,7.5-7.5h0.1c4.2,0,7.5,3.4,7.5,7.5
								S157,123.1,152.8,123.1z M124.7,123.1L124.7,123.1c-4.3,0-7.6-3.4-7.6-7.5s3.4-7.5,7.5-7.5h0.1c4.2,0,7.5,3.4,7.5,7.5
								S128.9,123.1,124.7,123.1z"/>
						</g>
					</g>
					<g>
						<g>
							<path class="st1" d="M371.8,378.3H128.2c-3.3,0-6-2.7-6-6V226c0-3.3,2.7-6,6-6s6,2.7,6,6v140.3h45.3V226.1c0-3.3,2.7-6,6-6
								s6,2.7,6,6v140.2h81.1V226.1c0-3.3,2.7-6,6-6s6,2.7,6,6v140.2h81.2V226.1c0-3.3,2.7-6,6-6s6,2.7,6,6v146.2
								C377.8,375.6,375.1,378.3,371.8,378.3z"/>
						</g>
						<g>
							<path class="st1" d="M371.8,329.6H128.2c-3.3,0-6-2.7-6-6s2.7-6,6-6h243.6c3.3,0,6,2.7,6,6S375.1,329.6,371.8,329.6z
								 M371.8,280.8H128.2c-3.3,0-6-2.7-6-6s2.7-6,6-6h243.6c3.3,0,6,2.7,6,6S375.1,280.8,371.8,280.8z M371.8,232.1H128.2
								c-3.3,0-6-2.7-6-6v-48.8c0-3.3,2.7-6,6-6h243.5c3.3,0,6,2.7,6,6V225c0.1,0.4,0.1,0.7,0.1,1.1
								C377.8,229.4,375.1,232.1,371.8,232.1z M284.6,220.1h81.1v-36.8h-81.1V220.1z M191.5,220.1h81.1v-36.8h-81.1V220.1z
								 M134.2,220.1h45.3v-36.8h-45.3V220.1z"/>
						</g>
					</g>
					<path class="st2" d="M0,500"/>
					<path class="st2" d="M0,500"/>
					<path class="st2" d="M0,500"/>
					<path class="st2" d="M0,500"/>
					<path class="st2" d="M0,500"/>
					<path class="st2" d="M0,500"/>
					<path class="st2" d="M0,500"/>
					<path class="st2" d="M0,500"/>
					<path class="st2" d="M0,500"/>
					<g>
						<path class="st2" d="M239.1,245.5"/>
					</g>
					<g>
						<path class="st2" d="M330.5,245.5"/>
					</g>
					<g>
						<path class="st2" d="M423.2,245.5"/>
					</g>
					<g>
						<g>
							<path class="st3" d="M0,500"/>
						</g>
						<g>
							<path class="st2" d="M0,500"/>
						</g>
						<g>
							<path class="st2" d="M0,500"/>
						</g>
						<g>
							<path class="st2" d="M0,500"/>
						</g>
						<g>
							<path class="st2" d="M0,500"/>
						</g>
						<g>
							<path class="st2" d="M0,500"/>
						</g>
						<g>
							<path class="st2" d="M0,500"/>
						</g>
						<g>
							<path class="st2" d="M0,500"/>
						</g>
						<g>
							<path class="st2" d="M0,500"/>
						</g>
						<g>
							<path class="st2" d="M0,500"/>
						</g>
						<g>
							<path class="st2" d="M0,500"/>
						</g>
						<g>
							<path class="st2" d="M0,500"/>
						</g>
					</g>
				</g>
			</g>
		</g>
	</g>
</g>
</svg>
