<?xml version="1.0" encoding="iso-8859-1"?>
<!-- Generator: Adobe Illustrator 29.6.1, SVG Export Plug-In . SVG Version: 9.03 Build 0)  -->
<svg version="1.1" id="Layer_1" xmlns="http://www.w3.org/2000/svg" xmlns:xlink="http://www.w3.org/1999/xlink" x="0px" y="0px"
	 viewBox="0 0 500 500" style="enable-background:new 0 0 500 500;" xml:space="preserve">
<defs>
	<filter id="Adobe_OpacityMaskFilter" filterUnits="userSpaceOnUse" x="76.499" y="64" width="332.002" height="332">
		<feColorMatrix  type="matrix" values="1 0 0 0 0  0 1 0 0 0  0 0 1 0 0  0 0 0 1 0"/>
	</filter>
</defs>
<mask maskUnits="userSpaceOnUse" x="76.499" y="64" width="332.002" height="332" id="_x2D_QuNYomGzxa_00000063629232558623873420000013604669017344506499_">
	<path style="fill-rule:evenodd;clip-rule:evenodd;fill:#FFFFFF;filter:url(#Adobe_OpacityMaskFilter);" d="M416.942,54.793H68.06
		v351.332h226.785c-10.798-12.318-17.344-28.457-17.344-46.125c0-38.66,31.34-70,70-70c35.65,0,65.076,26.65,69.441,61.115
		L416.942,54.793L416.942,54.793z M142.501,110.755l159.83,64.939v73.289l25,9.838l25-30.162v-73.285L192.426,90.409
		L142.501,110.755z"/>
	<path style="fill:#FFFFFF;" d="M416.942,368.885c-1.795,14.171-7.826,27.021-16.785,37.24h16.785V368.885z"/>
</mask>
<g style="mask:url(#_x2D_QuNYomGzxa_00000063629232558623873420000013604669017344506499_);">
	<g>
		<path style="fill:#FFFFFF;" d="M242.501,396L242.501,396L242.501,396c-0.585,0-1.17-0.085-1.739-0.257
			c-0.006-0.008-0.008-0.003-0.012-0.004c-0.18-0.055-0.358-0.119-0.534-0.19l-159.975-64.99c-2.262-0.919-3.742-3.117-3.742-5.559
			V135c0-1.997,0.993-3.862,2.649-4.978c1.657-1.114,3.759-1.332,5.609-0.581l157.742,64.083l157.741-64.083
			c1.851-0.752,3.952-0.534,5.609,0.581c1.656,1.115,2.649,2.981,2.649,4.978v190c0,2.441-1.479,4.64-3.742,5.559L244.78,395.551
			c-0.14,0.057-0.282,0.109-0.425,0.155c-0.006,0.005-0.008,0.003-0.011,0.004c-0.004,0.001-0.006,0.004-0.011,0.004
			C243.735,395.906,243.117,396,242.501,396z M248.501,204.039v177.047l148-60.125V143.914L248.501,204.039z M88.501,320.961
			l148,60.125V204.039l-148-60.125C88.501,143.914,88.501,320.961,88.501,320.961z"/>
	</g>
	<g>
		<path style="fill:#FFFFFF;" d="M402.499,141.002c-0.752,0-1.517-0.142-2.256-0.443L242.504,76.478l-102.569,41.8l-55.188,22.286
			c-3.07,1.242-6.569-0.244-7.81-3.317s0.244-6.569,3.317-7.81l55.17-22.279l104.812-42.714c1.449-0.592,3.071-0.592,4.522-0.002
			l159.999,65c3.07,1.247,4.548,4.747,3.301,7.817C407.113,139.589,404.868,141.002,402.499,141.002z"/>
	</g>
</g>
<g>
	<path style="fill:#FFFFFF;" d="M327.329,264.822c-0.736,0-1.48-0.136-2.195-0.417l-25-9.838c-2.294-0.902-3.803-3.117-3.803-5.583
		v-69.251l-156.088-63.419c-2.261-0.918-3.74-3.115-3.742-5.556s1.476-4.638,3.736-5.559l49.925-20.346
		c1.449-0.592,3.072-0.592,4.522-0.002l159.906,64.965c2.262,0.919,3.741,3.117,3.741,5.559v73.285c0,1.398-0.488,2.752-1.381,3.829
		l-25,30.162C330.786,264.055,329.079,264.822,327.329,264.822z M308.331,244.897l17.153,6.75l20.847-25.15v-67.083L192.429,96.887
		l-34.009,13.86l146.17,59.389c2.262,0.919,3.741,3.117,3.741,5.559V244.897z"/>
</g>
<g>
	<path style="fill:#FFFFFF;" d="M347.501,436c-17.711,0-34.953-6.225-48.552-17.528c-17.444-14.499-27.448-35.812-27.448-58.472
		c0-41.906,34.094-76,76-76s76,34.094,76,76c0,22.661-10.005,43.974-27.449,58.474C382.454,429.776,365.211,436,347.501,436z
		 M347.501,296c-35.29,0-64,28.71-64,64c0,19.082,8.427,37.031,23.118,49.243C318.067,418.76,332.587,424,347.501,424
		s29.433-5.24,40.881-14.755c14.692-12.213,23.119-30.162,23.119-49.245C411.501,324.71,382.791,296,347.501,296z"/>
</g>
<g>
	<path style="fill:#FFFFFF;" d="M347.001,372c-15.715,0-28.5-12.785-28.5-28.5s12.785-28.5,28.5-28.5s28.5,12.785,28.5,28.5
		S362.716,372,347.001,372z M347.001,327c-9.098,0-16.5,7.402-16.5,16.5s7.402,16.5,16.5,16.5s16.5-7.402,16.5-16.5
		S356.098,327,347.001,327z"/>
</g>
<g>
	<path style="fill:#FFFFFF;" d="M386.273,414.68c-1.628-11.789-11.848-20.68-23.772-20.68h-30c-11.925,0-22.146,8.89-23.773,20.679
		l-11.887-1.643c2.443-17.693,17.774-31.036,35.66-31.036h30c17.887,0,33.217,13.344,35.659,31.039L386.273,414.68z"/>
</g>
</svg>
