<?xml version="1.0" encoding="iso-8859-1"?>
<!-- Generator: Adobe Illustrator 29.6.1, SVG Export Plug-In . SVG Version: 9.03 Build 0)  -->
<svg version="1.1" id="Layer_1" xmlns="http://www.w3.org/2000/svg" xmlns:xlink="http://www.w3.org/1999/xlink" x="0px" y="0px"
	 viewBox="0 0 500 500" style="enable-background:new 0 0 500 500;" xml:space="preserve">
<g>
	<g>
		<path style="fill:#FFFFFF;" d="M335.863,416.291c-0.001,0-0.002,0-0.003,0l-78.94-0.04h-44.667c-1.591,0-3.118-0.633-4.243-1.758
			c-1.125-1.126-1.757-2.652-1.757-4.243l0.009-39.402c-21.536-15.01-37.112-37.079-44.019-62.482l-14.18-52.171
			c-2.56-9.449,2.718-19.231,12.012-22.276c9.612-3.147,19.841-2.3,28.799,2.387c4.928,2.578,9.121,6.133,12.378,10.422v-4.017
			c0-3.313,2.687-6,6-6s6,2.687,6,6v36.79c0,1.573-0.606,3.006-1.597,4.075c-0.707,0.77-1.624,1.363-2.697,1.684
			c-3.177,0.947-6.518-0.857-7.466-4.032l-5.73-19.19c-1.961-6.562-6.383-11.925-12.451-15.099
			c-6.067-3.174-12.993-3.748-19.502-1.615c-3.224,1.056-5.054,4.451-4.166,7.73l14.178,52.165
			c6.423,23.623,21.242,44.017,41.726,57.423c1.694,1.109,2.715,2.997,2.714,5.021l-0.008,36.589h38.668l72.94,0.037v-36.587
			c0-0.856,0.184-1.703,0.538-2.483c0.098-0.217,10.143-22.883,10.161-56.28l0.021-66.179c0.001-3.313,2.688-5.998,6-5.998
			c0.001,0,0.001,0,0.002,0c3.313,0.001,5.999,2.688,5.998,6.002l-0.021,66.18c-0.018,31.981-8.438,54.515-10.699,59.988v41.36
			c0,1.592-0.633,3.118-1.759,4.244C338.979,415.659,337.453,416.291,335.863,416.291z"/>
	</g>
	<g>
		<path style="fill:#FFFFFF;" d="M311.742,265.361c-0.001,0-0.001,0-0.002,0c-3.314-0.001-5.999-2.688-5.998-6.002l0.02-52.66
			c0-6.846-5.567-12.417-12.41-12.417c-0.004,0-0.008,0-0.012,0c-2.78,0-5.389,1.081-7.354,3.043
			c-1.97,1.968-3.055,4.584-3.055,7.367l-0.02,54.652c-0.001,3.313-2.688,5.998-6,5.998c-0.001,0-0.001,0-0.002,0
			c-3.313-0.001-5.999-2.688-5.998-6.002l0.02-54.65c0-5.989,2.335-11.621,6.574-15.855c4.231-4.227,9.851-6.553,15.826-6.553
			c0.009,0,0.018,0,0.026,0c13.453,0,24.403,10.955,24.403,24.42l-0.02,52.662C317.741,262.676,315.054,265.361,311.742,265.361z
			 M242.081,265.331c-0.001,0-0.001,0-0.002,0c-3.314-0.001-5.999-2.688-5.998-6.002l0.04-118.55c0-7.195-4.799-12.418-11.41-12.418
			c-0.004,0-0.008,0-0.012,0c-3.07,0-6.12,1.291-8.374,3.542c-1.956,1.955-3.034,4.393-3.034,6.867l-0.04,120.552
			c-0.001,3.312-2.688,5.998-6,5.998c-0.001,0-0.001,0-0.002,0c-3.314-0.001-5.999-2.688-5.998-6.002l0.04-120.55
			c0-5.68,2.327-11.134,6.553-15.355c4.488-4.483,10.628-7.053,16.848-7.053c0.008,0,0.017,0,0.025,0
			c13.12,0,23.403,10.727,23.403,24.42l-0.04,118.552C248.08,262.646,245.394,265.331,242.081,265.331z"/>
	</g>
	<g>
		<path style="fill:#FFFFFF;" d="M346.581,265.371c-3.313,0-6-2.687-6-6v-24.17c0-6.297-5.118-11.42-11.41-11.42
			c-3.434,0-11.422,0.825-11.43,8.466v27.114c0,3.313-2.687,6-6,6s-6-2.687-6-6v-27.12c0.013-12.24,9.428-20.46,23.43-20.46
			c12.908,0,23.41,10.506,23.41,23.42v24.17C352.581,262.685,349.895,265.371,346.581,265.371z M276.911,265.341
			c-0.001,0-0.001,0-0.002,0c-3.313-0.001-5.999-2.688-5.998-6.002l0.02-60.35c0-6.295-5.118-11.418-11.41-11.418
			c-6.297,0-11.419,5.118-11.419,11.41l-0.02,60.353c-0.001,3.312-2.688,5.998-6,5.998c-0.001,0-0.001,0-0.002,0
			c-3.314-0.001-5.999-2.688-5.998-6.002l0.02-60.351c0-12.906,10.506-23.408,23.419-23.408c12.908,0,23.41,10.506,23.41,23.42
			l-0.02,60.352C282.91,262.656,280.224,265.341,276.911,265.341z"/>
	</g>
	<g>
		<path style="fill:#FFFFFF;" d="M179.636,153.702c-2.738,0-5.211-1.887-5.845-4.669c-2.06-9.048-1.684-18.566,1.088-27.525
			c4.225-13.682,13.531-24.898,26.203-31.581c12.669-6.681,27.181-8.029,40.862-3.797c12.895,3.987,23.729,12.604,30.506,24.263
			c6.739,11.591,8.893,25.168,6.065,38.229c-0.701,3.239-3.897,5.297-7.134,4.595c-3.238-0.701-5.296-3.895-4.595-7.134
			c4.519-20.87-7.951-42.168-28.389-48.488c-10.621-3.285-21.886-2.237-31.719,2.947c-9.834,5.187-17.057,13.891-20.336,24.511
			c-2.151,6.951-2.445,14.322-0.853,21.317c0.736,3.231-1.287,6.447-4.518,7.182C180.525,153.653,180.077,153.702,179.636,153.702z"
			/>
	</g>
</g>
</svg>
