<?xml version="1.0" encoding="utf-8"?>
<!-- Generator: Adobe Illustrator 27.5.0, SVG Export Plug-In . SVG Version: 6.00 Build 0)  -->
<svg version="1.1" id="Layer_1" xmlns="http://www.w3.org/2000/svg" xmlns:xlink="http://www.w3.org/1999/xlink" x="0px" y="0px"
	 viewBox="0 0 500 500" style="enable-background:new 0 0 500 500;" xml:space="preserve">
<style type="text/css">
	.st0{clip-path:url(#SVGID_00000014601512865393696820000007107468864904145569_);}
	.st1{fill:#FFFFFF;}
	.st2{display:none;fill:none;stroke:#FFFFFF;stroke-width:12;stroke-linecap:round;stroke-linejoin:round;}
	.st3{fill:none;stroke:#FFFFFF;stroke-width:12;stroke-linecap:round;stroke-linejoin:round;}
</style>
<g>
	<g>
		<g>
			<g>
				<defs>
					<rect id="SVGID_1_" width="500" height="500"/>
				</defs>
				<clipPath id="SVGID_00000094617124254266540820000004097407326352466058_">
					<use xlink:href="#SVGID_1_"  style="overflow:visible;"/>
				</clipPath>
				<g style="clip-path:url(#SVGID_00000094617124254266540820000004097407326352466058_);">
					<g>
						<g>
							<path class="st1" d="M317.6,304.9H88.2c-17.1,0-31-13.9-31-31V141.6c0-17.1,13.9-31,31-31h229.4c17.1,0,31,13.9,31,31v27.1
								c0,3.3-2.7,6-6,6s-6-2.7-6-6v-27.1c0-10.5-8.5-19-19-19H88.2c-10.5,0-19,8.5-19,19v132.3c0,10.5,8.5,19,19,19h229.4
								c1.3,0,2.5-0.1,3.7-0.4c0.3-0.1,0.7-0.2,1.1-0.3c0.3-0.1,0.6-0.2,0.9-0.2c8-2.5,13.3-9.8,13.3-18.2v-58.5c0-3.3,2.7-6,6-6
								s6,2.7,6,6v58.5c0,13.6-8.8,25.5-21.8,29.6h-0.1c-0.4,0.1-0.8,0.2-1.2,0.3c-0.3,0.1-0.7,0.2-1,0.3c-0.1,0-0.2,0-0.3,0.1
								C322,304.7,319.9,304.9,317.6,304.9z"/>
						</g>
						<g>
							<path class="st1" d="M321.9,360.3c-1.5,0-2.9-0.5-4.1-1.6L257.6,303c-2.4-2.3-2.6-6-0.3-8.5c2.3-2.4,6-2.6,8.5-0.3l56.7,52.5
								c27.8-18.6,74.2-49.7,87.6-58.6l-10.2-31.8c0-0.1,0-0.1-0.1-0.2l-16.7-59.7c-1.2-4.3-4.2-8-8-10.1l-34.6-12
								c-0.1,0-0.1,0-0.2-0.1l-37.7-14.6c-0.6-0.2-2-0.4-5.3-0.8c-0.2,0-0.3,0-0.4-0.1c-7,0.2-13.4,4.9-15.6,11.5
								c-1.4,4.2-1.1,8.8,0.9,12.9s5.5,7.1,9.7,8.5l52.6,18.1c3.1,1.1,4.8,4.5,3.7,7.6c-1.1,3.1-4.5,4.8-7.6,3.7L288,202.9
								c-7.2-2.4-13.1-7.6-16.6-14.5c-3.4-6.9-4-14.8-1.6-22c4-11.8,15-19.7,27.4-19.7c0.4,0,0.8,0,1.2,0.1h0.1
								c2.9,0.3,5.8,0.7,7.9,1.4c0.1,0,0.2,0.1,0.3,0.1l37.8,14.7l34.9,12.2c0.3,0.1,0.5,0.2,0.8,0.3c6.9,3.6,12.2,10,14.4,17.7
								l16.7,59.6l11.6,36c0.8,2.5-0.1,5.3-2.4,6.8c0,0-63.5,42.5-95.3,63.8C324.2,360,323.1,360.3,321.9,360.3z"/>
						</g>
						<g>
							<path class="st1" d="M341.5,389.6c-0.4,0-0.8,0-1.2-0.1c-1.6-0.3-2.9-1.2-3.8-2.5l-19.4-29c-1.8-2.8-1.1-6.5,1.7-8.3
								c2.8-1.8,6.5-1.1,8.3,1.7l16.1,24l85.3-57.1l-16.1-24c-1.8-2.8-1.1-6.5,1.7-8.3c2.8-1.8,6.5-1.1,8.3,1.7l19.4,29
								c1.8,2.8,1.1,6.5-1.6,8.3l-95.3,63.8C343.8,389.3,342.7,389.6,341.5,389.6z M296.3,269.3h-26.7c-3.3,0-6-2.7-6-6s2.7-6,6-6
								h26.7c3.3,0,6,2.7,6,6S299.6,269.3,296.3,269.3z M242.9,269.3h-26.7c-3.3,0-6-2.7-6-6s2.7-6,6-6h26.7c3.3,0,6,2.7,6,6
								S246.2,269.3,242.9,269.3z M189.6,269.3h-26.7c-3.3,0-6-2.7-6-6s2.7-6,6-6h26.7c3.3,0,6,2.7,6,6S192.9,269.3,189.6,269.3z
								 M136.2,269.3h-26.7c-3.3,0-6-2.7-6-6s2.7-6,6-6h26.7c3.3,0,6,2.7,6,6S139.5,269.3,136.2,269.3z M296.3,242.7h-26.7
								c-3.3,0-6-2.7-6-6s2.7-6,6-6h26.7c3.3,0,6,2.7,6,6S299.6,242.7,296.3,242.7z M189.6,242.7h-26.7c-3.3,0-6-2.7-6-6s2.7-6,6-6
								h26.7c3.3,0,6,2.7,6,6S192.9,242.7,189.6,242.7z M110.9,194.2c-0.2,0-0.5,0-0.7,0c-3.3-0.4-5.6-3.4-5.3-6.7
								c0.9-7.2,4.2-14,9.3-19.1c5.2-5.2,11.9-8.5,19.1-9.3c3.3-0.4,6.3,2,6.7,5.3s-2,6.3-5.3,6.7c-4.5,0.5-8.8,2.6-12.1,5.9
								c-3.3,3.3-5.3,7.5-5.9,12.1C116.5,192,113.9,194.2,110.9,194.2z M89.6,184.5c-0.2,0-0.5,0-0.7,0c-3.3-0.4-5.6-3.4-5.2-6.7
								c1.3-10.2,5.9-19.7,13.1-26.9s16.7-11.8,26.9-13.1c3.3-0.4,6.3,1.9,6.7,5.2c0.4,3.3-1.9,6.3-5.2,6.7
								c-7.5,0.9-14.6,4.4-19.9,9.7c-5.4,5.4-8.7,12.3-9.7,19.9C95.2,182.3,92.6,184.5,89.6,184.5z"/>
						</g>
					</g>
					<g>
						<g>
							<path class="st2" d="M0,500"/>
						</g>
						<g>
							<path class="st3" d="M0,500"/>
						</g>
					</g>
					<g>
						<path class="st3" d="M0,500"/>
					</g>
					<g>
						<path class="st3" d="M0,500"/>
					</g>
					<g>
						<path class="st3" d="M0,500"/>
					</g>
					<g>
						<path class="st3" d="M0,500"/>
					</g>
				</g>
			</g>
		</g>
	</g>
</g>
</svg>
