<?xml version="1.0" encoding="iso-8859-1"?>
<!-- Generator: Adobe Illustrator 29.6.1, SVG Export Plug-In . SVG Version: 9.03 Build 0)  -->
<svg version="1.1" id="Layer_1" xmlns="http://www.w3.org/2000/svg" xmlns:xlink="http://www.w3.org/1999/xlink" x="0px" y="0px"
	 viewBox="0 0 500 500" style="enable-background:new 0 0 500 500;" xml:space="preserve">
<g>
	<path style="fill:#FFFFFF;" d="M82.499,250h6H82.499z M242.184,292.906l5.795-1.553L242.184,292.906z M235.673,304.185l1.553,5.796
		L235.673,304.185z M229.36,245.053l5.796-1.553L229.36,245.053z M76.499,290.751c0,3.314,2.686,6,6,6c3.314,0,6-2.686,6-6H76.499z
		 M200.367,279.158l5.796-1.553c-0.857-3.201-4.146-5.102-7.347-4.245c-2.625,0.702-4.45,3.081-4.449,5.798H200.367z
		 M194.367,290.751c0,3.314,2.686,6,6,6s6-2.686,6-6H194.367z M201.839,284.651l5.796-1.553L201.839,284.651z M140.689,131.114
		c2.439-2.244,2.597-6.039,0.353-8.478c-2.244-2.439-6.039-2.597-8.478-0.353L140.689,131.114z M232.32,234.971
		c-1.23-3.077-4.722-4.573-7.799-3.343s-4.573,4.722-3.343,7.799L232.32,234.971z M236.387,294.46
		c0.458,1.711-0.557,3.47-2.268,3.93l3.106,11.591c8.113-2.174,12.927-10.513,10.753-18.627L236.387,294.46z M223.565,246.605
		l12.822,47.854l11.591-3.106L235.156,243.5L223.565,246.605z M194.367,279.158v11.594h12v-11.594H194.367z M207.634,283.098
		l-1.472-5.493l-11.591,3.106l1.471,5.493L207.634,283.098z M234.119,298.389c-11.537,3.091-23.394-3.755-26.485-15.292
		l-11.592,3.106c4.807,17.938,23.245,28.583,41.183,23.777L234.119,298.389z M88.499,290.751V250h-12v40.751H88.499z M88.499,250
		c0-47.033,20.097-89.362,52.19-118.886l-8.125-8.832C98.105,153.983,76.499,199.474,76.499,250H88.499z M235.156,243.499
		c-0.777-2.896-1.724-5.744-2.837-8.528l-11.142,4.456c0.937,2.343,1.734,4.74,2.388,7.178L235.156,243.499z"/>
</g>
<g>
	<path style="fill:#FFFFFF;" d="M185.632,370.998c-11.433,0-20.734-9.302-20.734-20.734V290.75c0-3.313,2.687-6,6-6s6,2.687,6,6
		v59.513c0,4.816,3.918,8.734,8.734,8.734c4.815,0,8.733-3.918,8.733-8.734V290.75c0-3.313,2.687-6,6-6s6,2.687,6,6v59.513
		C206.365,361.696,197.063,370.998,185.632,370.998z"/>
</g>
<g>
	<path style="fill:#FFFFFF;" d="M156.171,382.047c-7.589,0-14.239-4.099-17.852-10.199c-3.316,2.252-7.317,3.569-11.619,3.569
		c-9.631,0-17.749-6.6-20.068-15.515c-2.823,1.441-6.018,2.255-9.399,2.255c-11.432,0-20.733-9.302-20.733-20.734V290.75
		c0-3.313,2.687-6,6-6s6,2.687,6,6v50.673c0,4.816,3.917,8.734,8.733,8.734c4.816,0,8.734-3.918,8.734-8.734V290.75
		c0-3.313,2.687-6,6-6s6,2.687,6,6v63.933c0,4.816,3.918,8.734,8.733,8.734c4.816,0,8.734-3.918,8.734-8.734V290.75
		c0-3.313,2.687-6,6-6c0.001,0,0.003,0,0.004,0c3.313,0,6,2.687,6,6v70.562c0,4.816,3.917,8.734,8.733,8.734
		s8.733-3.918,8.733-8.734V290.75c0-3.313,2.687-6,6-6s6,2.687,6,6v70.562C176.904,372.746,167.602,382.047,156.171,382.047z"/>
</g>
<g>
	<path style="fill:#FFFFFF;" d="M205.731,248.505c-2.635,0-5.236-0.691-7.58-2.044c-3.518-2.031-6.035-5.311-7.086-9.234
		c-3.011-11.237,0.065-22.695,7.2-30.86h-42.482c-11.433,0-20.733-9.301-20.733-20.733s9.301-20.734,20.733-20.734h54.514
		c3.313,0,6,2.686,6,6c0,3.313-2.687,6-6,6h-54.514c-4.815,0-8.733,3.918-8.733,8.734c0,4.815,3.918,8.733,8.733,8.733h54.514
		c0.052,0,0.104,0,0.155,0.002h11.436c3.011,0,5.556,2.232,5.949,5.217c0.393,2.986-1.488,5.8-4.397,6.579l-5.493,1.471
		c-11.517,3.086-18.376,14.968-15.291,26.485c0.222,0.828,0.753,1.52,1.496,1.948c0.742,0.428,1.606,0.543,2.434,0.32l47.855-12.822
		c1.937-0.519,3.876-1.139,5.763-1.841c3.108-1.156,6.561,0.424,7.717,3.53s-0.424,6.56-3.529,7.716
		c-2.24,0.834-4.543,1.569-6.845,2.186l-47.854,12.822C208.382,248.332,207.052,248.505,205.731,248.505z M371.124,140.305
		c-1.582,0-3.16-0.621-4.339-1.855c-30.775-32.211-72.25-49.95-116.785-49.95h-39.704c-3.313,0-6-2.687-6-6c0-3.314,2.687-6,6-6
		h39.704c47.844,0,92.4,19.057,125.461,53.659c2.289,2.396,2.203,6.194-0.193,8.483
		C374.105,139.753,372.613,140.305,371.124,140.305z"/>
</g>
<g>
	<path style="fill:#FFFFFF;" d="M210.296,176.907h-65.564c-11.432,0-20.733-9.301-20.733-20.734c0-7.589,4.1-14.24,10.2-17.853
		c-2.252-3.316-3.569-7.316-3.569-11.619c0-11.433,9.301-20.734,20.733-20.734h58.934c3.313,0,6,2.687,6,6s-2.687,6-6,6h-58.934
		c-4.815,0-8.733,3.918-8.733,8.734c0,4.815,3.917,8.733,8.733,8.733h58.934c3.313,0,6,2.687,6,6c0,0.341-0.028,0.676-0.083,1.002
		c-0.474,2.839-2.943,5.004-5.917,5.004h-65.564c-4.815,0-8.733,3.917-8.733,8.733s3.917,8.734,8.733,8.734h65.564
		c3.313,0,6,2.687,6,6S213.609,176.907,210.296,176.907z"/>
</g>
<g>
	<path style="fill:#FFFFFF;" d="M210.296,117.967h-45.673c-11.432,0-20.733-9.301-20.733-20.734
		c0-11.432,9.301-20.733,20.733-20.733h45.673c3.313,0,6,2.687,6,6s-2.687,6-6,6h-45.673c-4.815,0-8.733,3.917-8.733,8.733
		s3.917,8.734,8.733,8.734h45.673c3.313,0,6,2.687,6,6S213.609,117.967,210.296,117.967z"/>
</g>
<g>
	<path style="fill:#FFFFFF;" d="M367.088,373.333c-1.518,0-3.036-0.572-4.204-1.72c-2.364-2.322-2.398-6.121-0.076-8.484
		c1.715-1.746,3.415-3.555,5.053-5.376C396.002,326.484,411.5,286.442,411.5,245v-32.204c0-3.313,2.687-6,6-6s6,2.687,6,6V245
		c0,44.411-16.592,87.305-46.719,120.779c-1.754,1.949-3.575,3.888-5.413,5.758C370.193,372.733,368.641,373.333,367.088,373.333z
		 M272.042,269.095c-2.493,0-4.82-1.565-5.675-4.055c-0.562-1.638-1.075-3.317-1.524-4.993l-12.822-47.854
		c-2.168-8.099,2.655-16.455,10.752-18.626c11.239-3.009,22.698,0.066,30.862,7.201v-47.484c0-11.433,9.301-20.734,20.733-20.734
		s20.733,9.301,20.733,20.734v59.513c0,3.313-2.687,6-6,6s-6-2.687-6-6v-59.513c0-4.816-3.918-8.734-8.733-8.734
		s-8.733,3.918-8.733,8.734v59.513c0,0.051-0.001,0.103-0.002,0.154v11.439c0,3.011-2.231,5.556-5.217,5.949
		c-2.987,0.392-5.799-1.487-6.579-4.396l-1.472-5.493c-3.087-11.518-14.967-18.38-26.485-15.292
		c-1.707,0.458-2.726,2.222-2.268,3.931l12.822,47.854c0.378,1.41,0.81,2.825,1.282,4.204c1.076,3.134-0.593,6.547-3.728,7.622
		C273.345,268.99,272.688,269.095,272.042,269.095z"/>
</g>
<g>
	<path style="fill:#FFFFFF;" d="M417.5,218.796c-3.313,0-6-2.687-6-6v-50.673c0-4.816-3.918-8.734-8.733-8.734
		s-8.733,3.918-8.733,8.734v50.673c0,3.313-2.687,6-6,6s-6-2.687-6-6v-63.933c0-4.816-3.918-8.734-8.733-8.734
		s-8.733,3.918-8.733,8.734v63.933c0,3.313-2.687,6-6,6c-0.002,0-0.002,0-0.004,0c-3.313,0-6-2.687-6-6v-70.564
		c0-4.815-3.918-8.733-8.733-8.733s-8.733,3.917-8.733,8.733v70.564c0,3.313-2.687,6-6,6s-6-2.687-6-6v-70.564
		c0-11.432,9.301-20.733,20.733-20.733c7.589,0,14.239,4.099,17.853,10.199c3.316-2.252,7.316-3.569,11.618-3.569
		c9.631,0,17.749,6.6,20.068,15.515c2.822-1.441,6.018-2.255,9.398-2.255c11.433,0,20.733,9.301,20.733,20.734v50.673
		C423.5,216.11,420.812,218.796,417.5,218.796z"/>
</g>
<defs>
	<filter id="Adobe_OpacityMaskFilter" filterUnits="userSpaceOnUse" x="121.635" y="251.498" width="259.364" height="172.002">
		<feColorMatrix  type="matrix" values="1 0 0 0 0  0 1 0 0 0  0 0 1 0 0  0 0 0 1 0"/>
	</filter>
</defs>
<mask maskUnits="userSpaceOnUse" x="121.635" y="251.498" width="259.364" height="172.002" id="eX9NamUJXoa_00000054969497785641085270000014619486168086485143_">
	<path style="fill:#FFFFFF;filter:url(#Adobe_OpacityMaskFilter);" d="M101.57,361.703c1.759-0.374,3.461-0.977,5.063-1.793
		c2.317,8.921,10.424,15.507,20.07,15.507c4.141,0.006,8.188-1.233,11.615-3.557c3.61,6.098,10.255,10.187,17.855,10.187
		c8.947,0,16.571-5.667,19.476-13.608c3.058,1.683,6.494,2.564,9.985,2.558c11.45,0,20.733-9.283,20.733-20.733l0.002-47.465
		c8.157,7.131,19.607,10.196,30.859,7.181c8.113-2.174,12.928-10.513,10.754-18.626l-12.775-47.676h145.531v199.756H101.57V361.703z
		"/>
</mask>
<g style="mask:url(#eX9NamUJXoa_00000054969497785641085270000014619486168086485143_);">
	<g>
		<path style="fill:#FFFFFF;" d="M249.998,417.499v6h0.001L249.998,417.499z M291.859,257.815l-1.553-5.795L291.859,257.815z
			 M303.137,264.326l5.796-1.553L303.137,264.326z M244.005,270.638l-1.553-5.796L244.005,270.638z M289.704,423.499
			c3.314,0,6-2.686,6-6s-2.686-6-6-6V423.499z M263.915,417.499v-6h-0.001L263.915,417.499z M278.109,299.632l-1.553-5.796
			c-3.201,0.857-5.101,4.146-4.245,7.347c0.702,2.625,3.081,4.449,5.798,4.449V299.632z M289.704,305.632c3.314,0,6-2.686,6-6
			s-2.686-6-6-6l0,0V305.632z M283.603,298.16l-1.553-5.795L283.603,298.16z M234.676,267.382c-3.09,1.198-4.624,4.673-3.426,7.763
			s4.673,4.624,7.763,3.426l0,0L234.676,267.382z M132.033,360.302c-2.253-2.43-6.05-2.572-8.479-0.319
			c-2.43,2.253-2.572,6.05-0.319,8.479c0.012,0.013,0.023,0.025,0.035,0.038L132.033,360.302z M293.411,263.611
			c1.711-0.458,3.47,0.557,3.93,2.268l11.591-3.106c-2.174-8.113-10.513-12.927-18.627-10.753L293.411,263.611z M245.557,276.433
			l47.854-12.822l-3.106-11.591l-47.854,12.822L245.557,276.433z M289.704,411.499h-25.789v12h25.789V411.499z M278.109,305.632
			h11.594v-12h-11.594V305.632z M282.049,292.365l-5.493,1.471l3.106,11.591l5.493-1.471L282.049,292.365z M297.342,265.879
			c3.091,11.537-3.755,23.394-15.292,26.486l3.106,11.591c17.938-4.807,28.583-23.245,23.777-41.183L297.342,265.879z
			 M249.999,423.499h13.915l-0.001-12h-13.915L249.999,423.499z M242.451,264.842c-2.635,0.706-5.231,1.554-7.775,2.54l4.337,11.189
			c2.141-0.83,4.326-1.543,6.544-2.138L242.451,264.842z M249.998,411.499c-46.546,0-88.485-19.683-117.965-51.197l-8.763,8.198
			c31.654,33.838,76.724,54.999,126.728,54.999V411.499z"/>
	</g>
	<g>
		<path style="fill:#FFFFFF;" d="M349.216,335.1h-59.514c-3.313,0-6-2.687-6-6s2.687-6,6-6h59.514c4.815,0,8.733-3.917,8.733-8.732
			c0-4.816-3.918-8.734-8.733-8.734h-59.514c-3.313,0-6-2.687-6-6s2.687-6,6-6h59.514c11.433,0,20.733,9.302,20.733,20.734
			C369.949,325.799,360.648,335.1,349.216,335.1z"/>
	</g>
	<g>
		<path style="fill:#FFFFFF;" d="M340.376,423.5h-50.674c-3.313,0-6-2.687-6-6s2.687-6,6-6h50.674c4.815,0,8.733-3.918,8.733-8.733
			s-3.918-8.732-8.733-8.732h-50.674c-3.313,0-6-2.687-6-6s2.687-6,6-6h63.934c4.815,0,8.733-3.918,8.733-8.733
			s-3.918-8.733-8.733-8.733h-63.934c-3.313,0-6-2.687-6-6c0-0.341,0.028-0.676,0.083-1.002c0.475-2.84,2.943-5.004,5.918-5.004
			h70.563c4.815,0,8.733-3.918,8.733-8.733s-3.918-8.733-8.733-8.733h-70.563c-3.313,0-6-2.687-6-6s2.687-6,6-6h70.563
			c11.433,0,20.733,9.301,20.733,20.733c0,7.59-4.1,14.24-10.2,17.854c2.252,3.316,3.569,7.316,3.569,11.619
			c0,9.631-6.6,17.749-15.515,20.068c1.441,2.822,2.255,6.017,2.255,9.397C361.109,414.199,351.809,423.5,340.376,423.5z"/>
	</g>
</g>
</svg>
