<?xml version="1.0" encoding="iso-8859-1"?>
<!-- Generator: Adobe Illustrator 29.6.1, SVG Export Plug-In . SVG Version: 9.03 Build 0)  -->
<svg version="1.1" id="Layer_1" xmlns="http://www.w3.org/2000/svg" xmlns:xlink="http://www.w3.org/1999/xlink" x="0px" y="0px"
	 viewBox="0 0 500 500" style="enable-background:new 0 0 500 500;" xml:space="preserve">
<g>
	<g>
		<path style="fill:#FFFFFF;" d="M410,176H90c-3.314,0-6-2.686-6-6V90c0-3.314,2.686-6,6-6h320c3.313,0,6,2.686,6,6v80
			C416,173.314,413.313,176,410,176z M96,164h308V96H96V164z"/>
	</g>
	<g>
		<path style="fill:#FFFFFF;" d="M410,416H270c-3.313,0-6-2.687-6-6V210c0-3.314,2.687-6,6-6h140c3.313,0,6,2.686,6,6v200
			C416,413.313,413.313,416,410,416z M276,404h128V216H276V404z M230,416H90c-3.314,0-6-2.687-6-6s2.686-6,6-6h140
			c3.314,0,6,2.687,6,6S233.314,416,230,416z M230,376H90c-3.314,0-6-2.687-6-6s2.686-6,6-6h140c3.314,0,6,2.687,6,6
			S233.314,376,230,376z M230,336H90c-3.314,0-6-2.687-6-6s2.686-6,6-6h140c3.314,0,6,2.687,6,6S233.314,336,230,336z M230,296H90
			c-3.314,0-6-2.687-6-6v-80c0-3.314,2.686-6,6-6h140c3.314,0,6,2.686,6,6v80C236,293.313,233.314,296,230,296z M96,284h128v-68H96
			V284z"/>
	</g>
</g>
</svg>
