<?xml version="1.0" encoding="iso-8859-1"?>
<!-- Generator: Adobe Illustrator 29.6.1, SVG Export Plug-In . SVG Version: 9.03 Build 0)  -->
<svg version="1.1" id="Layer_1" xmlns="http://www.w3.org/2000/svg" xmlns:xlink="http://www.w3.org/1999/xlink" x="0px" y="0px"
	 viewBox="0 0 500 500" style="enable-background:new 0 0 500 500;" xml:space="preserve">
<g>
	<g>
		<path style="fill:#FFFFFF;" d="M415,421H250c-94.29,0-171-76.71-171-171S155.71,79,250,79s171,76.71,171,171v165
			C421,418.313,418.313,421,415,421z M250,91c-87.673,0-159,71.327-159,159s71.327,159,159,159h159V250
			C409,162.327,337.673,91,250,91z"/>
	</g>
	<g>
		<path style="fill:#FFFFFF;" d="M220,266h-40c-11.58,0-21-9.421-21-21v-40c0-11.58,9.42-21,21-21h40c11.58,0,21,9.42,21,21v40
			C241,256.579,231.58,266,220,266z M180,196c-4.962,0-9,4.038-9,9v40c0,4.962,4.038,9,9,9h40c4.962,0,9-4.038,9-9v-40
			c0-4.962-4.038-9-9-9H180z"/>
	</g>
	<g>
		<path style="fill:#FFFFFF;" d="M185.005,346.001c-2.083,0-4.107-1.086-5.215-3.024c-1.644-2.877-0.645-6.542,2.232-8.186
			C211.438,317.981,229,288.344,229,255.508V225c0-3.313,2.687-6,6-6s6,2.687,6,6v30.508c0,37.196-19.822,70.729-53.023,89.701
			C187.038,345.746,186.015,346.001,185.005,346.001z M325,266h-40c-11.579,0-21-9.421-21-21v-40c0-11.58,9.421-21,21-21h40
			c11.579,0,21,9.42,21,21v40C346,256.579,336.579,266,325,266z M285,196c-4.963,0-9,4.038-9,9v40c0,4.962,4.037,9,9,9h40
			c4.963,0,9-4.038,9-9v-40c0-4.962-4.037-9-9-9H285z"/>
	</g>
	<g>
		<path style="fill:#FFFFFF;" d="M290.006,346.001c-2.083,0-4.107-1.086-5.215-3.024c-1.645-2.877-0.645-6.542,2.232-8.186
			C316.438,317.981,334,288.344,334,255.508V225c0-3.313,2.687-6,6-6s6,2.687,6,6v30.508c0,37.196-19.821,70.729-53.023,89.701
			C292.038,345.746,291.015,346.001,290.006,346.001z"/>
	</g>
</g>
</svg>
