<?xml version="1.0" encoding="utf-8"?>
<!-- Generator: Adobe Illustrator 27.5.0, SVG Export Plug-In . SVG Version: 6.00 Build 0)  -->
<svg version="1.1" id="Layer_1" xmlns="http://www.w3.org/2000/svg" xmlns:xlink="http://www.w3.org/1999/xlink" x="0px" y="0px"
	 viewBox="0 0 500 500" style="enable-background:new 0 0 500 500;" xml:space="preserve">
<style type="text/css">
	.st0{fill:#FFFFFF;}
	.st1{display:none;fill:none;stroke:#FFFFFF;stroke-width:12;stroke-linecap:round;stroke-linejoin:round;}
	.st2{fill:none;stroke:#FFFFFF;stroke-width:12;stroke-linecap:round;stroke-linejoin:round;}
</style>
<g>
	<g>
		<g transform="matrix(.9 0 0 .9 91 28)">
			<g>
				<path class="st0" d="M383.3,384.6H324c-3.3,0-6-2.7-6-6s2.7-6,6-6h53.5l0.2-6.6c-0.1-43.6-35.5-79-79.1-79h-97.3
					c-1.4,0-2.7,0-4,0.1c-3.3,0.2-6.2-2.3-6.4-5.6c-0.2-3.3,2.3-6.2,5.6-6.4c1.7-0.1,3.3-0.1,4.8-0.1h97.3
					c50.2,0,91.1,40.9,91.1,91.1c0,0.1,0,0.1,0,0.2l-0.4,12.5C389.2,382,386.5,384.6,383.3,384.6z"/>
			</g>
			<g>
				<path class="st0" d="M250,253.1c-15.7,0-30.4-5.2-42.5-15c-2.6-2.1-3-5.9-0.9-8.4c2.1-2.6,5.9-3,8.4-0.9
					c10,8.1,22,12.4,34.9,12.4c14.8,0,28.8-5.8,39.3-16.2c10.5-10.5,16.2-24.4,16.2-39.3c0-13-4.6-25.7-13-35.7
					c-10.6-12.6-26.2-19.9-42.6-19.9c-7.4,0-14.7,1.5-21.7,4.4c-3.1,1.3-6.6-0.2-7.9-3.2c-1.3-3.1,0.2-6.6,3.2-7.9
					c8.5-3.6,17.4-5.4,26.3-5.4c20,0,38.9,8.8,51.8,24.1c10.2,12.2,15.8,27.6,15.8,43.5c0,18-7,35-19.8,47.7
					C285,246.1,268,253.1,250,253.1z"/>
			</g>
		</g>
		<g transform="matrix(.9 0 0 .9 -40 28)">
			<g>
				<path class="st0" d="M172.4,384.6h-56.6c-1.6,0-3.2-0.7-4.3-1.8c-1.1-1.2-1.7-2.7-1.7-4.4l0.4-12.4c0-50.2,40.9-91,91.1-91h97.3
					c1.6,0,3.1,0,4.8,0.1c3.3,0.2,5.8,3.1,5.6,6.4c-0.2,3.3-3.1,5.8-6.4,5.6c-1.3-0.1-2.6-0.1-4-0.1h-97.3
					c-43.6,0-79.1,35.5-79.1,79.1c0,0.1,0,0.1,0,0.2l-0.2,6.3h50.4c3.3,0,6,2.7,6,6C178.4,381.9,175.7,384.6,172.4,384.6z"/>
			</g>
			<g>
				<path class="st0" d="M249.9,253.2c-37.3,0-67.6-30.3-67.6-67.6s30.3-67.6,67.6-67.6c8.1,0,16.1,1.4,23.7,4.3
					c3.1,1.2,4.7,4.6,3.5,7.7s-4.6,4.7-7.7,3.5c-6.3-2.3-12.8-3.5-19.5-3.5c-30.7,0-55.6,24.9-55.6,55.6s24.9,55.6,55.6,55.6
					c12.2,0,23.9-3.9,33.7-11.4c2.6-2,6.4-1.5,8.4,1.1s1.5,6.4-1.1,8.4C278.9,248.4,264.8,253.2,249.9,253.2z"/>
			</g>
		</g>
		<g transform="translate(-1)">
			<g>
				<path class="st0" d="M383.2,384.7H115.8c-1.6,0-3.2-0.7-4.3-1.8c-1.1-1.2-1.7-2.7-1.7-4.4l0.4-12.5c0.1-50.2,40.9-91,91.1-91
					h32.4c0.1,0,0.2,0,0.3,0c3.9,0.2,7.9,0.1,11.7,0.1c2,0,3.9-0.1,5.8-0.1c2.6,0,4.8,0,6.9,0.1c3.6,0.1,6.8,0.1,10.6-0.1
					c0.1,0,0.2,0,0.3,0h29.3c50.2,0,91,40.9,91,91.1c0,0.1,0,0.1,0,0.2l-0.1,2.7l-0.3,9.9C389.1,382.1,386.4,384.7,383.2,384.7z
					 M122,372.7h255.4l0.2-6.7c-0.1-43.6-35.5-79-79-79h-29.2c-4.1,0.2-7.4,0.1-11.2,0.1c-2,0-4.2-0.1-6.7-0.1c-1.8,0-3.7,0-5.6,0.1
					c-4,0.1-8.1,0.1-12.3-0.1h-32.3c-43.6,0-79.1,35.5-79.1,79.1c0,0.1,0,0.1,0,0.2L122,372.7z M383.6,366.1L383.6,366.1
					L383.6,366.1z"/>
			</g>
			<g>
				<path class="st0" d="M269.2,287h-35.6c-3.3,0-6-2.7-6-6s2.7-6,6-6h35.6c3.3,0,6,2.7,6,6S272.5,287,269.2,287z"/>
			</g>
			<g>
				<path class="st0" d="M249.9,253.2c-11.8,0-23.3-3-33.4-8.8c-21-12-34.1-34.5-34.1-58.7c0-17.4,6.6-33.9,18.6-46.6
					c12.8-13.5,30.2-21,49-21c19.1,0,36.8,7.8,49.8,21.9c0,0.1,0.1,0.1,0.1,0.2c0.3,0.3,0.5,0.6,0.8,0.8c0.3,0.4,0.7,0.8,1,1.2
					c10.2,12.2,15.7,27.6,15.7,43.4c0,18-7,35-19.8,47.7c-3.7,3.7-7.9,7-12.5,9.9C274.5,249.8,262.2,253.2,249.9,253.2z M250,130.1
					c-15.4,0-29.7,6.1-40.2,17.2c-9.9,10.5-15.4,24.1-15.4,38.4c0,19.9,10.8,38.4,28.1,48.3c8.2,4.7,17.7,7.2,27.4,7.2
					c10.2,0,20.2-2.8,29.1-8.2c3.7-2.3,7.2-5.1,10.3-8.1c10.5-10.5,16.2-24.4,16.2-39.3c0-13-4.6-25.7-12.9-35.7
					c-0.2-0.2-0.5-0.5-0.7-0.8c-0.3-0.4-0.7-0.7-1-1.1C280.2,136.5,265.7,130.1,250,130.1z"/>
			</g>
		</g>
	</g>
	<g>
		<g>
			<path class="st1" d="M0,500"/>
		</g>
		<g>
			<path class="st2" d="M0,500"/>
		</g>
		<g>
			<path class="st2" d="M0,500"/>
		</g>
		<g>
			<path class="st2" d="M0,500"/>
		</g>
		<g>
			<path class="st2" d="M0,500"/>
		</g>
		<g>
			<path class="st2" d="M0,500"/>
		</g>
		<g>
			<path class="st2" d="M0,500"/>
		</g>
		<g>
			<path class="st2" d="M0,500"/>
		</g>
		<g>
			<path class="st2" d="M0,500"/>
		</g>
		<g>
			<path class="st2" d="M0,500"/>
		</g>
		<g>
			<path class="st2" d="M0,500"/>
		</g>
		<g>
			<path class="st2" d="M0,500"/>
		</g>
	</g>
</g>
</svg>
