<?xml version="1.0" encoding="utf-8"?>
<!-- Generator: Adobe Illustrator 27.5.0, SVG Export Plug-In . SVG Version: 6.00 Build 0)  -->
<svg version="1.1" id="Layer_1" xmlns="http://www.w3.org/2000/svg" xmlns:xlink="http://www.w3.org/1999/xlink" x="0px" y="0px"
	 viewBox="0 0 500 500" style="enable-background:new 0 0 500 500;" xml:space="preserve">
<style type="text/css">
	.st0{clip-path:url(#SVGID_00000106835426349469831090000013248174286145600651_);}
	.st1{fill:#FFFFFF;}
	.st2{display:none;fill:#FFFFFF;}
</style>
<g>
	<g>
		<g>
			<g>
				<defs>
					<rect id="SVGID_1_" width="500" height="500"/>
				</defs>
				<clipPath id="SVGID_00000054226447547009764740000010371668217146569395_">
					<use xlink:href="#SVGID_1_"  style="overflow:visible;"/>
				</clipPath>
				<g style="clip-path:url(#SVGID_00000054226447547009764740000010371668217146569395_);">
					<g>
						<path class="st1" d="M250,421.3c-38.7,0-77.3-14.7-106.8-44.2c-58.9-58.9-58.9-154.7,0-213.6s154.7-58.9,213.6,0
							C385.4,192.1,401,230,401,270.3c0,40.4-15.7,78.3-44.2,106.8C327.4,406.6,288.7,421.3,250,421.3z M250,131.4
							c-35.6,0-71.2,13.5-98.3,40.7c-54.2,54.2-54.2,142.4,0,196.6c27.1,27.1,62.7,40.7,98.3,40.7s71.2-13.5,98.3-40.7
							c26.2-26.2,40.7-61.2,40.7-98.3s-14.5-72.1-40.7-98.3C321.3,144.9,285.6,131.4,250,131.4z"/>
					</g>
					<g>
						<path class="st1" d="M250,152.3c-3.3,0-6-2.7-6-6v-21c0-3.3,2.7-6,6-6s6,2.7,6,6v21C256,149.6,253.3,152.3,250,152.3z"/>
					</g>
					<g>
						<path class="st1" d="M162.2,188.6c-1.5,0-3.1-0.6-4.2-1.8L143.2,172c-2.3-2.3-2.3-6.1,0-8.5c2.3-2.3,6.1-2.3,8.5,0l14.8,14.8
							c2.3,2.3,2.3,6.1,0,8.5C165.3,188,163.7,188.6,162.2,188.6z"/>
					</g>
					<g>
						<path class="st1" d="M126,276.4h-21c-3.3,0-6-2.7-6-6s2.7-6,6-6h21c3.3,0,6,2.7,6,6S129.3,276.4,126,276.4z"/>
					</g>
					<g>
						<path class="st1" d="M147.4,378.9c-1.5,0-3.1-0.6-4.2-1.8c-2.3-2.3-2.3-6.1,0-8.5l14.8-14.8c2.3-2.3,6.1-2.3,8.5,0
							c2.3,2.3,2.3,6.1,0,8.5l-14.8,14.8C150.5,378.3,148.9,378.9,147.4,378.9z"/>
					</g>
					<g>
						<path class="st1" d="M250,421.4c-3.3,0-6-2.7-6-6v-21c0-3.3,2.7-6,6-6s6,2.7,6,6v21C256,418.7,253.3,421.4,250,421.4z"/>
					</g>
					<g>
						<path class="st1" d="M352.6,378.9c-1.5,0-3.1-0.6-4.2-1.8l-14.8-14.8c-2.3-2.3-2.3-6.1,0-8.5c2.3-2.3,6.1-2.3,8.5,0l14.8,14.8
							c2.3,2.3,2.3,6.1,0,8.5C355.7,378.3,354.1,378.9,352.6,378.9z"/>
					</g>
					<g>
						<path class="st1" d="M395,276.4h-21c-3.3,0-6-2.7-6-6s2.7-6,6-6h21c3.3,0,6,2.7,6,6S398.3,276.4,395,276.4z"/>
					</g>
					<g>
						<path class="st1" d="M337.8,188.6c-1.5,0-3.1-0.6-4.2-1.8c-2.3-2.3-2.3-6.1,0-8.5l14.8-14.8c2.3-2.3,6.1-2.3,8.5,0
							c2.3,2.3,2.3,6.1,0,8.5L342,186.8C340.9,188,339.3,188.6,337.8,188.6z"/>
					</g>
					<g>
						<path class="st1" d="M249.9,293c-0.6,0-1.4,0-2.4-0.2c-11.5-1.4-20-11.8-18.9-23.4c0-0.1,0-0.3,0-0.4l15.4-96.9
							c0.5-2.9,3-5.1,5.9-5.1l0,0c3,0,5.5,2.2,5.9,5.1L271,269c0.2,1,0.2,1.9,0.2,2.5C271.3,283.4,261.7,293,249.9,293z M249.6,281
							L249.6,281L249.6,281z M249.5,281c0.1,0,0.3,0,0.4,0c5.2,0,9.4-4.2,9.4-9.4c0-0.1,0-0.3,0-0.4v-0.1l-9.3-59.4l-9.4,59.1
							c-0.4,5.1,3.4,9.7,8.5,10.2C249.2,281,249.3,281,249.5,281z M259.3,271.3L259.3,271.3L259.3,271.3z"/>
					</g>
					<g>
						<path class="st1" d="M296.5,108.7h-92.3c-3.3,0-6-2.7-6-6V81.4c0-3.3,2.7-6,6-6h92.3c3.3,0,6,2.7,6,6v21.3
							C302.5,106,299.8,108.7,296.5,108.7z M210.2,96.7h80.3v-9.3h-80.3V96.7z"/>
					</g>
					<g>
						<path class="st1" d="M273.3,131.3h-45.8c-3.3,0-6-2.7-6-6v-22.6c0-3.3,2.7-6,6-6h45.8c3.3,0,6,2.7,6,6v22.6
							C279.3,128.6,276.6,131.3,273.3,131.3z M233.5,119.3h33.8v-10.6h-33.8L233.5,119.3L233.5,119.3z"/>
					</g>
					<g>
						<path class="st1" d="M352.7,173.7c-1.5,0-3.1-0.6-4.2-1.8c-2.3-2.3-2.3-6.1,0-8.5l8.7-8.7c2.3-2.3,6.1-2.3,8.5,0
							c2.3,2.3,2.3,6.1,0,8.5l-8.7,8.7C355.8,173.1,354.2,173.7,352.7,173.7z"/>
					</g>
					<g>
						<g>
							<path class="st1" d="M365.7,178.8c-1.5,0-3.1-0.6-4.2-1.8l-18.7-18.7c-2.3-2.3-2.3-6.1,0-8.5l8.6-8.6
								c1.1-1.1,2.7-1.8,4.2-1.8c1.6,0,3.1,0.6,4.2,1.8l18.7,18.7c2.3,2.3,2.3,6.1,0,8.5l-8.6,8.6
								C368.8,178.2,367.2,178.8,365.7,178.8z M355.5,154.1l10.2,10.2l0.1-0.1L355.6,154L355.5,154.1z"/>
						</g>
						<g>
							<path class="st1" d="M374.3,164.2l-18.7-18.7l-8.6,8.6l18.7,18.7L374.3,164.2z"/>
						</g>
					</g>
					<g>
						<g>
							<path class="st2" d="M0,500"/>
						</g>
						<g>
							<path class="st1" d="M0,500"/>
						</g>
						<g>
							<path class="st1" d="M0,500"/>
						</g>
						<g>
							<path class="st1" d="M0,500"/>
						</g>
						<g>
							<path class="st1" d="M0,500"/>
						</g>
						<g>
							<path class="st1" d="M0,500"/>
						</g>
						<g>
							<path class="st1" d="M0,500"/>
						</g>
						<g>
							<path class="st1" d="M0,500"/>
						</g>
						<g>
							<path class="st1" d="M0,500"/>
						</g>
						<g>
							<path class="st1" d="M0,500"/>
						</g>
						<g>
							<path class="st1" d="M0,500"/>
						</g>
						<g>
							<path class="st1" d="M0,500"/>
						</g>
					</g>
				</g>
			</g>
		</g>
	</g>
</g>
</svg>
