<?xml version="1.0" encoding="iso-8859-1"?>
<!-- Generator: Adobe Illustrator 29.6.1, SVG Export Plug-In . SVG Version: 9.03 Build 0)  -->
<svg version="1.1" id="Layer_1" xmlns="http://www.w3.org/2000/svg" xmlns:xlink="http://www.w3.org/1999/xlink" x="0px" y="0px"
	 viewBox="0 0 500 500" style="enable-background:new 0 0 500 500;" xml:space="preserve">
<g>
	<path style="fill:#FFFFFF;" d="M362.959,405.29c-10.479,0-20.96-3.989-28.939-11.968L198.776,258.078
		c-28.508,7.447-58.755-0.678-79.717-21.64c-21.826-21.827-29.735-53.721-20.639-83.236c0.62-2.01,2.247-3.55,4.289-4.056
		c2.04-0.505,4.199,0.092,5.688,1.581l40.198,40.198c1.777,1.777,4.139,2.756,6.651,2.757c0,0,0.001,0,0.002,0
		c2.51,0,4.87-0.977,6.645-2.752l29.039-29.039c1.775-1.775,2.752-4.135,2.752-6.646c0-2.512-0.979-4.874-2.756-6.65l-40.199-40.199
		c-1.488-1.488-2.087-3.646-1.581-5.688c0.506-2.042,2.046-3.669,4.056-4.289c29.518-9.094,61.411-1.186,83.236,20.639
		c20.962,20.963,29.087,51.21,21.64,79.717l135.243,135.243c15.954,15.955,15.958,41.911,0.011,57.86l-1.453,1.452
		C383.908,401.304,373.433,405.29,362.959,405.29z M200.526,245.344c1.568,0,3.101,0.615,4.243,1.757l137.734,137.736
		c11.278,11.273,29.621,11.277,40.892,0.01l1.452-1.452c11.27-11.271,11.265-29.614-0.011-40.892L247.102,204.769
		c-1.572-1.572-2.146-3.885-1.491-6.01c7.783-25.253,1.018-52.541-17.657-71.215c-16.199-16.199-38.884-23.437-61.098-19.99
		l32.555,32.555c4.043,4.042,6.27,9.417,6.271,15.133c0.001,5.718-2.225,11.093-6.267,15.135l-29.039,29.039
		c-4.041,4.041-9.414,6.267-15.13,6.267c-0.002,0-0.003,0-0.005,0c-5.717-0.001-11.091-2.229-15.134-6.272l-32.554-32.555
		c-3.449,22.215,3.789,44.897,19.99,61.098c18.674,18.674,45.962,25.44,71.215,17.657
		C199.341,245.431,199.936,245.344,200.526,245.344z"/>
</g>
<g>
	<path style="fill:#FFFFFF;" d="M361.494,369.078c-2.304,0-4.606-0.879-6.364-2.636l-6.364-6.364c-3.515-3.515-3.515-9.214,0-12.729
		c3.516-3.514,9.213-3.514,12.729,0l6.364,6.364c3.515,3.515,3.515,9.214,0,12.729C366.1,368.199,363.798,369.078,361.494,369.078z"
		/>
</g>
</svg>
