<?xml version="1.0" encoding="iso-8859-1"?>
<!-- Generator: Adobe Illustrator 29.6.1, SVG Export Plug-In . SVG Version: 9.03 Build 0)  -->
<svg version="1.1" id="Layer_1" xmlns="http://www.w3.org/2000/svg" xmlns:xlink="http://www.w3.org/1999/xlink" x="0px" y="0px"
	 viewBox="0 0 500 500" style="enable-background:new 0 0 500 500;" xml:space="preserve">
<g>
	<path style="fill:#FFFFFF;" d="M376,383.5H132.5C91.972,383.5,59,350.528,59,310s32.972-73.5,73.5-73.5H175c3.313,0,6,2.687,6,6
		s-2.687,6-6,6h-42.5C98.589,248.5,71,276.089,71,310s27.589,61.5,61.5,61.5H376c3.313,0,6,2.687,6,6S379.313,383.5,376,383.5z
		 M367.5,248.5H325c-3.313,0-6-2.687-6-6s2.687-6,6-6h42.5c33.911,0,61.5-27.589,61.5-61.5s-27.589-61.5-61.5-61.5H125
		c-3.313,0-6-2.687-6-6s2.687-6,6-6h242.5c40.528,0,73.5,32.972,73.5,73.5S408.028,248.5,367.5,248.5z"/>
</g>
<g>
	<path style="fill:#FFFFFF;" d="M405,423.5c-1.303,0-2.605-0.423-3.69-1.269C399.99,421.202,369,396.693,369,367.5
		c0-31.723,18.198-36,36-36c19.851,0,36,16.149,36,36c0,29.193-30.99,53.702-32.31,54.731C407.605,423.077,406.303,423.5,405,423.5z
		 M405,343.5c-22.329,0-24,9.503-24,24c0,18.059,16.457,35.18,24,42.077c7.539-6.895,24-24.016,24-42.077
		C429,354.267,418.233,343.5,405,343.5z"/>
</g>
<g>
	<path style="fill:#FFFFFF;" d="M405,375c-1.97,0-3.91-0.8-5.3-2.2c-1.4-1.39-2.2-3.33-2.2-5.3s0.8-3.91,2.2-5.3
		c1.39-1.4,3.33-2.2,5.3-2.2c1.979,0,3.91,0.8,5.3,2.2c1.4,1.39,2.2,3.33,2.2,5.3s-0.8,3.91-2.2,5.3
		C408.91,374.2,406.979,375,405,375z"/>
</g>
<g>
	<path style="fill:#FFFFFF;" d="M95,168.5c-1.303,0-2.605-0.423-3.69-1.269C89.991,166.202,59,141.694,59,112.5
		c0-31.723,18.198-36,36-36c19.851,0,36,16.149,36,36c0,29.194-30.991,53.702-32.31,54.731C97.605,168.077,96.303,168.5,95,168.5z
		 M95,88.5c-22.33,0-24,9.502-24,24c0,18.06,16.458,35.181,24,42.077c7.54-6.894,24-24.016,24-42.077
		C119,99.266,108.234,88.5,95,88.5z"/>
</g>
<g>
	<path style="fill:#FFFFFF;" d="M95,120c-0.49,0-0.98-0.05-1.46-0.15c-0.48-0.09-0.96-0.24-1.41-0.42
		c-0.45-0.19-0.89-0.42-1.29-0.69c-0.41-0.28-0.8-0.59-1.14-0.94c-0.35-0.34-0.66-0.73-0.93-1.14c-0.27-0.4-0.51-0.84-0.69-1.29
		c-0.19-0.45-0.34-0.93-0.43-1.4c-0.1-0.49-0.15-0.98-0.15-1.47s0.05-0.98,0.15-1.46c0.09-0.48,0.24-0.96,0.43-1.41
		c0.18-0.45,0.42-0.89,0.69-1.29c0.27-0.41,0.58-0.8,0.93-1.14c0.34-0.35,0.73-0.66,1.14-0.94c0.4-0.27,0.84-0.5,1.29-0.69
		c0.45-0.18,0.93-0.33,1.41-0.42c0.96-0.2,1.96-0.2,2.93,0c0.47,0.09,0.95,0.24,1.4,0.42c0.45,0.19,0.89,0.42,1.29,0.69
		c0.41,0.28,0.8,0.59,1.14,0.94c0.35,0.34,0.66,0.73,0.94,1.14c0.27,0.4,0.5,0.84,0.69,1.29c0.18,0.45,0.33,0.93,0.42,1.41
		c0.1,0.48,0.15,0.97,0.15,1.46s-0.05,0.98-0.15,1.47c-0.09,0.47-0.24,0.95-0.42,1.4c-0.19,0.45-0.42,0.89-0.69,1.29
		c-0.28,0.41-0.59,0.8-0.94,1.14c-0.34,0.35-0.73,0.66-1.14,0.94c-0.4,0.27-0.84,0.5-1.29,0.69c-0.45,0.18-0.93,0.33-1.4,0.42
		C95.98,119.95,95.49,120,95,120z"/>
</g>
<g>
	<path style="fill:#FFFFFF;" d="M250,323.6c-0.764,0-1.531-0.146-2.26-0.442l-75-30.5c-2.261-0.919-3.74-3.117-3.74-5.558V198
		c0-1.997,0.994-3.863,2.65-4.978c1.657-1.114,3.759-1.332,5.61-0.58l75,30.5c2.262,0.919,3.74,3.117,3.74,5.558v89.1
		c0,1.997-0.993,3.863-2.65,4.979C252.345,323.254,251.177,323.6,250,323.6z M181,283.062l63,25.62v-76.146l-63-25.62V283.062z"/>
</g>
<g>
	<path style="fill:#FFFFFF;" d="M226.498,284.002c-0.751,0-1.515-0.143-2.254-0.442l-28.1-11.4c-3.07-1.245-4.55-4.744-3.304-7.815
		c1.246-3.07,4.743-4.549,7.816-3.304l28.1,11.4c3.07,1.245,4.55,4.744,3.304,7.815
		C231.114,282.587,228.868,284.002,226.498,284.002z"/>
</g>
<g>
	<path style="fill:#FFFFFF;" d="M250,323.6c-1.177,0-2.345-0.346-3.35-1.022c-1.657-1.114-2.65-2.98-2.65-4.978v-89.1
		c0-2.443,1.481-4.643,3.746-5.561l23.927-9.698l-59.177-24.065l-35.242,14.285c-3.071,1.244-6.57-0.235-7.814-3.307
		c-1.245-3.071,0.236-6.57,3.307-7.814l37.5-15.2c0.002,0,0.003-0.001,0.005-0.002l37.495-15.198
		c1.448-0.586,3.068-0.585,4.514,0.002l74.871,30.448c0.341,0.129,0.667,0.289,0.975,0.475c0.398,0.24,0.761,0.522,1.085,0.838
		c0.362,0.353,0.683,0.755,0.951,1.203c0.355,0.588,0.612,1.243,0.748,1.941c0.076,0.386,0.112,0.774,0.112,1.159
		c0,0.044-0.001,0.089-0.002,0.134v88.96c0,2.44-1.479,4.639-3.74,5.558l-75,30.5C251.532,323.454,250.765,323.6,250,323.6z
		 M256,232.542v76.141l63-25.62v-76.156l-28.304,11.473c-0.295,0.185-0.609,0.346-0.942,0.481L256,232.542z M228.45,182.709
		l59.054,24.015l21.546-8.734l-59.054-24.015L228.45,182.709z"/>
</g>
</svg>
