<?xml version="1.0" encoding="utf-8"?>
<!-- Generator: Adobe Illustrator 27.5.0, SVG Export Plug-In . SVG Version: 6.00 Build 0)  -->
<svg version="1.1" id="Layer_1" xmlns="http://www.w3.org/2000/svg" xmlns:xlink="http://www.w3.org/1999/xlink" x="0px" y="0px"
	 viewBox="0 0 500 500" style="enable-background:new 0 0 500 500;" xml:space="preserve">
<style type="text/css">
	.st0{clip-path:url(#SVGID_00000054974915559607190510000006836092029957405097_);}
	.st1{fill:#FFFFFF;}
	.st2{fill:none;stroke:#FFFFFF;stroke-width:12;stroke-linecap:round;stroke-linejoin:round;}
	.st3{display:none;fill:none;stroke:#FFFFFF;stroke-width:12;stroke-linecap:round;stroke-linejoin:round;}
</style>
<g>
	<g>
		<g>
			<g>
				<defs>
					<rect id="SVGID_1_" width="500" height="500"/>
				</defs>
				<clipPath id="SVGID_00000073690065455371173340000005601094210033483156_">
					<use xlink:href="#SVGID_1_"  style="overflow:visible;"/>
				</clipPath>
				<g style="clip-path:url(#SVGID_00000073690065455371173340000005601094210033483156_);">
					<g>
						<path class="st1" d="M306.5,359.4c-19.8,0-36-16.1-36.1-35.9c0-3.3,2.7-6,6-6l0,0c3.3,0,6,2.7,6,6
							c0.1,13.2,10.9,23.9,24.1,23.9s24-10.7,24.1-23.9c0-3.3,2.7-6,6-6l0,0c3.3,0,6,2.7,6,6C342.5,343.3,326.3,359.4,306.5,359.4z"
							/>
					</g>
					<g>
						<path class="st1" d="M217.7,359.4c-19.8,0-36-16.1-36.1-35.9c0-3.3,2.6-6,6-6l0,0c3.3,0,6,2.7,6,6
							c0.1,13.2,10.9,23.9,24.1,23.9c13.2,0,24-10.8,24.2-24c0-3.3,2.7-6,6.1-5.9c3.3,0,6,2.8,5.9,6.1
							C253.7,343.3,237.4,359.4,217.7,359.4z"/>
					</g>
					<g>
						<g>
							<path class="st1" d="M415.4,329.4H62.2c-3.3,0-6-2.7-6-6s2.7-6,6-6h353.2c4.6,0,8.8-2.1,11.5-5.8c2.8-3.7,3.6-8.3,2.3-12.8
								l-1.4-4.9H62.2c-3.3,0-6-2.7-6-6s2.7-6,6-6h361.9c-22-63-84.4-106.4-154.4-106.4H62.2c-3.3,0-6-2.7-6-6s2.7-6,6-6h207.5
								c38.4,0,74.8,11.7,105.4,33.9s52.3,52.7,62.8,88.2l2.9,9.8c2.4,8.1,0.8,16.6-4.3,23.4C431.5,325.6,423.8,329.4,415.4,329.4z"
								/>
						</g>
						<g>
							<path class="st1" d="M421.6,267H332c-1.8,0-3.5-0.8-4.7-2.2l-48.2-59.5c-1.5-1.8-1.7-4.3-0.8-6.4c1-2.1,3.1-3.4,5.4-3.4h86.5
								c3.3,0,6,2.7,6,6s-2.7,6-6,6h-73.9l38.5,47.5h86.7c3.3,0,6,2.7,6,6S424.9,267,421.6,267z M163.5,266.9H62.2c-3.3,0-6-2.7-6-6
								s2.7-6,6-6h101.3c5,0,9-5,9-11.1v-25.2c0-6.1-4-11.1-9-11.1H62.2c-3.3,0-6-2.7-6-6s2.7-6,6-6h101.3c11.6,0,21,10.4,21,23.1
								v25.2C184.5,256.5,175.1,266.9,163.5,266.9z"/>
						</g>
					</g>
					<g>
						<path class="st1" d="M435.8,359.4H62.2c-3.3,0-6-2.7-6-6s2.7-6,6-6h373.6c3.3,0,6,2.7,6,6S439.1,359.4,435.8,359.4z"/>
					</g>
					<g>
						<path class="st2" d="M250,250"/>
					</g>
					<path class="st2" d="M0,500"/>
					<path class="st2" d="M0,500"/>
					<path class="st2" d="M0,500"/>
					<path class="st2" d="M0,500"/>
					<path class="st2" d="M0,500"/>
					<path class="st2" d="M0,500"/>
					<g>
						<g>
							<path class="st3" d="M0,500"/>
						</g>
						<g>
							<path class="st2" d="M0,500"/>
						</g>
						<g>
							<path class="st2" d="M0,500"/>
						</g>
						<g>
							<path class="st2" d="M0,500"/>
						</g>
						<g>
							<path class="st2" d="M0,500"/>
						</g>
						<g>
							<path class="st2" d="M0,500"/>
						</g>
						<g>
							<path class="st2" d="M0,500"/>
						</g>
						<g>
							<path class="st2" d="M0,500"/>
						</g>
						<g>
							<path class="st2" d="M0,500"/>
						</g>
						<g>
							<path class="st2" d="M0,500"/>
						</g>
						<g>
							<path class="st2" d="M0,500"/>
						</g>
						<g>
							<path class="st2" d="M0,500"/>
						</g>
					</g>
				</g>
			</g>
		</g>
	</g>
</g>
</svg>
