<?xml version="1.0" encoding="utf-8"?>
<!-- Generator: Adobe Illustrator 27.5.0, SVG Export Plug-In . SVG Version: 6.00 Build 0)  -->
<svg version="1.1" id="Layer_1" xmlns="http://www.w3.org/2000/svg" xmlns:xlink="http://www.w3.org/1999/xlink" x="0px" y="0px"
	 viewBox="0 0 500 500" style="enable-background:new 0 0 500 500;" xml:space="preserve">
<style type="text/css">
	.st0{fill:#FFFFFF;}
	.st1{display:none;fill:none;stroke:#FFFFFF;stroke-width:2.1;stroke-linecap:round;stroke-linejoin:round;}
	.st2{fill:none;stroke:#FFFFFF;stroke-width:2.1;stroke-linecap:round;stroke-linejoin:round;}
</style>
<g>
	<path class="st0" d="M407.8,374.5h-53.4c-3.2,0-5.7-2.6-5.7-5.7s2.6-5.7,5.7-5.7h47.9l0.2-5.7c-0.1-39-31.8-70.8-70.9-70.8h-87.5
		c-1.2,0-2.4,0-3.5,0.1c-3.2,0.2-5.9-2.1-6.2-5.3c-0.2-3.2,2.1-5.9,5.3-6.2c1.5-0.1,3-0.1,4.3-0.1h87.5c45.4,0,82.3,36.9,82.3,82.3
		c0,0.1,0,0.1,0,0.2l-0.4,11.3C413.4,372.1,410.9,374.5,407.8,374.5z"/>
</g>
<g>
	<path class="st0" d="M288,256.1c-14.1,0-27.4-4.7-38.5-13.6c-2.5-2-2.9-5.6-0.9-8.1s5.6-2.9,8.1-0.9c9,7.2,19.8,11,31.3,11
		c13.3,0,25.8-5.2,35.1-14.5c9.4-9.4,14.5-21.8,14.5-35.1c0-11.6-4.1-23-11.7-31.9c-9.5-11.3-23.4-17.8-38.1-17.8
		c-6.7,0-13.2,1.3-19.4,3.9c-2.9,1.2-6.3-0.1-7.5-3s0.1-6.3,3-7.5c7.6-3.2,15.6-4.9,23.8-4.9c18.1,0,35.2,8,46.9,21.8
		c9.3,11,14.3,25,14.3,39.3c0,16.4-6.3,31.7-17.9,43.3C319.7,249.8,304.4,256.1,288,256.1z"/>
</g>
<g>
	<path class="st0" d="M354.2,385.1H86.8c-1.7,0-3.4-0.7-4.6-1.9s-1.8-2.9-1.8-4.6l0.4-12.4c0.1-50.4,41.1-91.4,91.5-91.4h97.3
		c0.1,0,0.1,0,0.2,0c24.3,0,47.1,9.5,64.3,26.6c17.3,17.3,26.8,40.3,26.8,64.7c0,0.1,0,0.2,0,0.2l-0.1,2.7l-0.3,9.9
		C360.5,382.3,357.6,385.1,354.2,385.1z M93.4,372.3H348l0.2-6.3c0-21-8.2-40.8-23.1-55.6c-14.8-14.8-34.5-22.9-55.3-22.9
		c-0.1,0-0.1,0-0.2,0h-97.3c-43.4,0-78.7,35.3-78.7,78.7c0,0.1,0,0.1,0,0.2L93.4,372.3z M354.6,366.1L354.6,366.1L354.6,366.1z"/>
</g>
<g>
	<path class="st0" d="M220.9,253.6c-37.5,0-68-30.5-68-68s30.5-68,68-68c19.2,0,37,7.8,50.1,22.1c0,0.1,0.1,0.1,0.1,0.2
		c0.2,0.3,0.5,0.6,0.7,0.8c0.4,0.4,0.7,0.8,1.1,1.2c10.3,12.3,15.9,27.8,15.9,43.7c0,18.1-7.1,35.2-19.9,48c-4,4-8.3,7.4-12.6,10
		C245.6,250.1,233.3,253.6,220.9,253.6z M220.9,130.4c-30.5,0-55.2,24.8-55.2,55.2s24.8,55.2,55.2,55.2c10.1,0,20.1-2.8,28.9-8.2
		c3.5-2.1,6.9-4.8,10.2-8.1c10.4-10.4,16.1-24.3,16.1-39c0-13-4.6-25.6-12.9-35.5c-0.2-0.2-0.5-0.5-0.7-0.8c-0.3-0.4-0.6-0.7-1-1.1
		C250.9,136.7,236.5,130.4,220.9,130.4z"/>
</g>
<g>
	<g>
		<path class="st1" d="M0,500"/>
	</g>
	<g>
		<path class="st2" d="M0,500"/>
	</g>
	<g>
		<path class="st2" d="M0,500"/>
	</g>
	<g>
		<path class="st2" d="M0,500"/>
	</g>
	<g>
		<path class="st2" d="M0,500"/>
	</g>
	<g>
		<path class="st2" d="M0,500"/>
	</g>
	<g>
		<path class="st2" d="M0,500"/>
	</g>
	<g>
		<path class="st2" d="M0,500"/>
	</g>
	<g>
		<path class="st2" d="M0,500"/>
	</g>
	<g>
		<path class="st2" d="M0,500"/>
	</g>
	<g>
		<path class="st2" d="M0,500"/>
	</g>
	<g>
		<path class="st2" d="M0,500"/>
	</g>
</g>
</svg>
