<?xml version="1.0" encoding="utf-8"?>
<!-- Generator: Adobe Illustrator 27.5.0, SVG Export Plug-In . SVG Version: 6.00 Build 0)  -->
<svg version="1.1" id="Layer_1" xmlns="http://www.w3.org/2000/svg" xmlns:xlink="http://www.w3.org/1999/xlink" x="0px" y="0px"
	 viewBox="0 0 500 500" style="enable-background:new 0 0 500 500;" xml:space="preserve">
<style type="text/css">
	.st0{clip-path:url(#SVGID_00000015321275753958854720000008763172105141853586_);}
	.st1{fill:#FFFFFF;}
</style>
<g>
	<g>
		<g>
			<g>
				<defs>
					<rect id="SVGID_1_" width="500" height="500"/>
				</defs>
				<clipPath id="SVGID_00000180351707685922119100000002656145073505759134_">
					<use xlink:href="#SVGID_1_"  style="overflow:visible;"/>
				</clipPath>
				<g style="clip-path:url(#SVGID_00000180351707685922119100000002656145073505759134_);">
					<g>
						<g>
							<path class="st1" d="M231.2,415.3h-69.1c-3.3,0-6-2.7-6-6v-90.6c0-3.3,2.7-6,6-6h69.1c3.3,0,6,2.7,6,6v90.6
								C237.2,412.6,234.5,415.3,231.2,415.3z M203.1,403.3h22.1v-78.6h-22.1V403.3z M168.1,403.3h22.7v-78.6h-22.7V403.3z"/>
						</g>
						<g>
							<path class="st1" d="M113,415.3c-1.6,0-3.1-0.6-4.2-1.8c-1.1-1.1-1.8-2.7-1.8-4.2V89.4c0-3.3,2.7-6,6-6l168.5-0.2l0,0
								c1.6,0,3.1,0.6,4.2,1.8c1.1,1.1,1.8,2.7,1.8,4.2v319.9c0,3.3-2.7,6-6,6L113,415.3L113,415.3z M281.5,409.1L281.5,409.1
								L281.5,409.1z M119,95.4v307.9l156.5-0.2V95.2L119,95.4z M249.8,296c-3.3,0-6-2.7-6-6v-24.8c0-3.3,2.7-6,6-6s6,2.7,6,6V290
								C255.8,293.3,253.1,296,249.8,296z M223,296c-3.3,0-6-2.7-6-6v-24.8c0-3.3,2.7-6,6-6s6,2.7,6,6V290
								C229,293.3,226.3,296,223,296z M196.2,296c-3.3,0-6-2.7-6-6v-24.8c0-3.3,2.7-6,6-6s6,2.7,6,6V290
								C202.2,293.3,199.5,296,196.2,296z M169.5,296c-3.3,0-6-2.7-6-6v-24.8c0-3.3,2.7-6,6-6s6,2.7,6,6V290
								C175.5,293.3,172.8,296,169.5,296z M142.8,296c-3.3,0-6-2.7-6-6v-24.8c0-3.3,2.7-6,6-6s6,2.7,6,6V290
								C148.8,293.3,146.1,296,142.8,296z M249.8,246.5c-3.3,0-6-2.7-6-6v-24.8c0-3.3,2.7-6,6-6s6,2.7,6,6v24.8
								C255.8,243.8,253.1,246.5,249.8,246.5z M223,246.5c-3.3,0-6-2.7-6-6v-24.8c0-3.3,2.7-6,6-6s6,2.7,6,6v24.8
								C229,243.8,226.3,246.5,223,246.5z M196.2,246.5c-3.3,0-6-2.7-6-6v-24.8c0-3.3,2.7-6,6-6s6,2.7,6,6v24.8
								C202.2,243.8,199.5,246.5,196.2,246.5z M169.5,246.5c-3.3,0-6-2.7-6-6v-24.8c0-3.3,2.7-6,6-6s6,2.7,6,6v24.8
								C175.5,243.8,172.8,246.5,169.5,246.5z M142.8,246.5c-3.3,0-6-2.7-6-6v-24.8c0-3.3,2.7-6,6-6s6,2.7,6,6v24.8
								C148.8,243.8,146.1,246.5,142.8,246.5z M249.8,196.9c-3.3,0-6-2.7-6-6v-24.8c0-3.3,2.7-6,6-6s6,2.7,6,6v24.8
								C255.8,194.2,253.1,196.9,249.8,196.9z M223,196.9c-3.3,0-6-2.7-6-6v-24.8c0-3.3,2.7-6,6-6s6,2.7,6,6v24.8
								C229,194.2,226.3,196.9,223,196.9z M196.2,196.9c-3.3,0-6-2.7-6-6v-24.8c0-3.3,2.7-6,6-6s6,2.7,6,6v24.8
								C202.2,194.2,199.5,196.9,196.2,196.9z M169.5,196.9c-3.3,0-6-2.7-6-6v-24.8c0-3.3,2.7-6,6-6s6,2.7,6,6v24.8
								C175.5,194.2,172.8,196.9,169.5,196.9z M142.8,196.9c-3.3,0-6-2.7-6-6v-24.8c0-3.3,2.7-6,6-6s6,2.7,6,6v24.8
								C148.8,194.2,146.1,196.9,142.8,196.9z M249.8,147.4c-3.3,0-6-2.7-6-6v-24.8c0-3.3,2.7-6,6-6s6,2.7,6,6v24.8
								C255.8,144.7,253.1,147.4,249.8,147.4z M223,147.4c-3.3,0-6-2.7-6-6v-24.8c0-3.3,2.7-6,6-6s6,2.7,6,6v24.8
								C229,144.7,226.3,147.4,223,147.4z M196.2,147.4c-3.3,0-6-2.7-6-6v-24.8c0-3.3,2.7-6,6-6s6,2.7,6,6v24.8
								C202.2,144.7,199.5,147.4,196.2,147.4z M169.5,147.4c-3.3,0-6-2.7-6-6v-24.8c0-3.3,2.7-6,6-6s6,2.7,6,6v24.8
								C175.5,144.7,172.8,147.4,169.5,147.4z M142.8,147.4c-3.3,0-6-2.7-6-6v-24.8c0-3.3,2.7-6,6-6s6,2.7,6,6v24.8
								C148.8,144.7,146.1,147.4,142.8,147.4z"/>
						</g>
					</g>
					<g>
						<path class="st1" d="M387.2,414.9H281c-3.3,0-6-2.7-6-6s2.7-6,6-6h100.2V187.2H281c-3.3,0-6-2.7-6-6s2.7-6,6-6h106.2
							c3.3,0,6,2.7,6,6v227.7C393.2,412.2,390.5,414.9,387.2,414.9z M362.6,381.6h-57.2c-3.3,0-6-2.7-6-6s2.7-6,6-6h57.2
							c3.3,0,6,2.7,6,6S365.9,381.6,362.6,381.6z M362.6,355h-57.2c-3.3,0-6-2.7-6-6s2.7-6,6-6h57.2c3.3,0,6,2.7,6,6
							S365.9,355,362.6,355z M362.6,328.3h-57.2c-3.3,0-6-2.7-6-6s2.7-6,6-6h57.2c3.3,0,6,2.7,6,6S365.9,328.3,362.6,328.3z
							 M362.6,301.6h-57.2c-3.3,0-6-2.7-6-6s2.7-6,6-6h57.2c3.3,0,6,2.7,6,6S365.9,301.6,362.6,301.6z M362.6,275h-57.2
							c-3.3,0-6-2.7-6-6s2.7-6,6-6h57.2c3.3,0,6,2.7,6,6S365.9,275,362.6,275z M362.6,248.3h-57.2c-3.3,0-6-2.7-6-6s2.7-6,6-6h57.2
							c3.3,0,6,2.7,6,6S365.9,248.3,362.6,248.3z M362.6,221.6h-57.2c-3.3,0-6-2.7-6-6s2.7-6,6-6h57.2c3.3,0,6,2.7,6,6
							S365.9,221.6,362.6,221.6z"/>
					</g>
				</g>
			</g>
		</g>
	</g>
</g>
</svg>
