<?xml version="1.0" encoding="utf-8"?>
<!-- Generator: Adobe Illustrator 27.5.0, SVG Export Plug-In . SVG Version: 6.00 Build 0)  -->
<svg version="1.1" id="Layer_1" xmlns="http://www.w3.org/2000/svg" xmlns:xlink="http://www.w3.org/1999/xlink" x="0px" y="0px"
	 viewBox="0 0 500 500" style="enable-background:new 0 0 500 500;" xml:space="preserve">
<style type="text/css">
	.st0{fill:#FFFFFF;}
	.st1{fill:none;stroke:#FFFFFF;stroke-width:12.051;stroke-linecap:round;stroke-linejoin:round;}
</style>
<g>
	<g>
		<g>
			<path class="st0" d="M301.2,282.4h-1.4c-17.4,0-34.1-7.3-46-19.9c-2.3-2.4-2.1-6.2,0.3-8.5c2.4-2.3,6.2-2.1,8.5,0.3
				c9.7,10.4,22.9,16.1,37.2,16.1h1.4c28.1,0,50.9-22.8,50.9-50.9v-31.2c0-3.3,2.7-6,6-6s6,2.7,6,6v31.2
				C364.1,254.2,335.9,282.4,301.2,282.4z"/>
		</g>
		<g>
			<path class="st0" d="M358.1,197.2c-1.1,0-2.1-0.3-3.1-0.8c-1.9-1.2-3.1-3.3-2.9-5.5c0.1-1.2,1.3-29.3-26.1-47.3
				c-4.8,10.9-17.7,30.9-50.4,44.9c-3,1.3-6.6-0.1-7.9-3.2c-1.3-3,0.1-6.6,3.2-7.9c39.7-17,45.8-42.8,46-43.9
				c0.4-1.8,1.6-3.4,3.3-4.2c1.7-0.8,3.7-0.8,5.3,0.1c18.4,9.6,28,22.8,33.1,34.7c0-2.5,0-5,0-7.5c-0.1-5.2-0.1-10.5,0-16.2
				c0.2-9.9-4-18.3-11.8-23.7c-11.8-8.2-29.8-8.2-50.6,0.1c-5.5,2.9-9.1,4.4-14.6,4.6c-3.3,0.2-6.1-2.4-6.3-5.7s2.4-6.1,5.7-6.3
				c2.9-0.1,4.7-0.7,9.9-3.4c0.2-0.1,0.4-0.2,0.6-0.3c24.8-9.9,46.9-9.5,62.2,1.1c11,7.6,17.2,19.9,16.9,33.8
				c-0.1,5.5-0.1,10.7,0,15.8c0.2,19.6,0.4,33.8-9.3,39.9C360.3,196.9,359.2,197.2,358.1,197.2z"/>
		</g>
	</g>
	<g>
		<g>
			<path class="st0" d="M356.2,386.9h-3.9c-11.6,0-21.1-9.5-21.1-21.1v-2.1c0-0.4,0-0.8,0.1-1.2c0.1-3.9,0.3-7.7,0.7-10.6
				c0.4-3.3,1.3-10.3,7.4-10.3h0.2c1.9,0,3.6,0.7,6,2.8c5.6-3.3,11.6-3.3,17.3,0c2.5-2.1,4.1-2.8,6-2.8h0.2c6.2,0,7.1,6.9,7.5,10.2
				c0.4,3.2,0.7,7.3,0.7,11.6c0,0.1,0,0.2,0,0.3v2.1C377.3,377.4,367.8,386.9,356.2,386.9z M343.2,365.8L343.2,365.8
				c0,5,4.1,9.1,9.1,9.1h3.9c5,0,9.1-4.1,9.1-9.1v-1.1c0-2.6-0.1-4.8-0.2-6.7c-0.6,0.2-1.1,0.3-1.7,0.3c-1.6,0-3.1-0.6-4.3-1.7
				c-3.7-3.6-6-3.6-9.7,0c-1.1,1.1-2.7,1.7-4.3,1.7c-0.6,0-1.1-0.1-1.7-0.3c-0.1,1.9-0.2,4.1-0.2,6.7
				C343.3,365.1,343.3,365.4,343.2,365.8z"/>
		</g>
		<g>
			<path class="st0" d="M269.5,295.8c-3.1,0-5.7-2.4-6-5.5V290c-0.1-1.2-0.2-2.5-0.2-4v-18.4c0-3.3,2.7-6,6-6s6,2.7,6,6V286
				c0,1,0.1,1.9,0.2,3.1v0.3c0.3,3.3-2.2,6.2-5.5,6.4C269.8,295.8,269.6,295.8,269.5,295.8z"/>
		</g>
		<g>
			<path class="st0" d="M312.6,319c-2.3,0-4.5-1.4-5.5-3.6c-1.3-3,0.1-6.6,3.2-7.9c8.6-3.7,14.2-12.1,14.2-21.5v-17.6
				c0-3.3,2.7-6,6-6s6,2.7,6,6V286c0,14.2-8.4,26.9-21.4,32.5C314.2,318.8,313.4,319,312.6,319z"/>
		</g>
		<g>
			<path class="st0" d="M337.3,364.7c0-9.4,1-17.1,2.1-17.1h0.2c0.5,0,2.2,1.2,5.6,4.7c6-5.9,12.1-5.9,18.1,0
				c3.4-3.5,5.1-4.7,5.6-4.7h0.2c1.2,0,2.2,7.6,2.2,17.1v-1v2.1c0,8.3-6.7,15.1-15.1,15.1h-3.9c-8.3,0-15.1-6.7-15.1-15.1v-2.1"/>
		</g>
		<g>
			<path class="st0" d="M246.4,293.9c-2.8,0-5.3-1.9-5.9-4.8c-0.7-3.2,1.4-6.4,4.6-7.1c5-1.1,10.3-1.6,15.6-1.6l8.1-0.5
				c3.3-0.2,6.1,2.3,6.3,5.6c0.2,3.3-2.3,6.2-5.6,6.3l-8.3,0.5c-0.1,0-0.2,0-0.4,0c-4.5,0-9,0.5-13.3,1.4
				C247.2,293.9,246.8,293.9,246.4,293.9z"/>
		</g>
		<g>
			<path class="st0" d="M210,326.5h-2.6c-3.1,0-6.1-0.3-9.1-1.1c-3.2-0.8-5.2-4-4.4-7.2s4-5.2,7.2-4.4c2.1,0.5,4.1,0.7,6.3,0.7h2.6
				c14.5,0,26.2-11.4,26.6-25.9c0.1-3.3,2.9-5.9,6.2-5.8s5.9,2.9,5.8,6.2C248,310,231,326.5,210,326.5z"/>
		</g>
		<g>
			<path class="st0" d="M316.8,424.8h-27.5c-3.3,0-6-2.7-6-6s2.7-6,6-6h27.5c13.8,0,20.1-2.8,28.1-6.3c8.4-3.7,17.8-7.8,36.7-9.3
				c0.2,0,0.3,0,0.5,0h18c4.5,0,8.2-3.7,8.2-8.2v-29.3c0-37.1-30.1-67.2-67.2-67.2c-0.1,0-0.2,0-0.4,0l-8.3-0.5
				c-3.3-0.2-5.8-3-5.6-6.3c0.2-3.3,3.1-5.8,6.3-5.6l8.1,0.5c43.6,0.1,79,35.6,79,79.2V389c0,11.1-9.1,20.2-20.2,20.2h-17.8
				c-16.7,1.3-24.7,4.9-32.5,8.3C341.1,421.3,333.1,424.8,316.8,424.8z"/>
		</g>
	</g>
	<g>
		<g>
			<path class="st0" d="M210.1,283.4h-1.5c-38.1,0-69.1-31-69.1-69.1v-30.9c0-3.3,2.7-6,6-6s6,2.7,6,6v30.9
				c0,31.5,25.6,57.1,57.1,57.1h1.5c31.5,0,57.1-25.6,57.1-57.1v-34.6c0-3.3,2.7-6,6-6s6,2.7,6,6v34.6
				C279.2,252.4,248.2,283.4,210.1,283.4z"/>
		</g>
		<g>
			<path class="st0" d="M141.6,190.2c-2.5,0-4.8-1.6-5.7-4.1c-0.3-0.8-7.1-21-9.7-44c-3.7-32.6,2.8-53.8,19.2-63.3
				c5.7-3.3,14.5-3,20.1,0.6c4.1,2.6,8,6.2,11.1,9.2c1.2,1.1,2.3,2.2,3.2,2.9c1.4,1.2,3.1,1.8,4.8,1.7c2.3-0.1,8.1-0.7,14.5-4.1
				c0.2-0.1,0.4-0.2,0.6-0.3C227,78,251.2,78.4,268,90c12,8.3,18.7,21.7,18.4,36.8c-0.1,6,0,11.7,0,17.3c0.2,21.7,0.4,37.4-10,43.9
				c-1.9,1.2-4.3,1.2-6.3,0.1c-1.9-1.2-3-3.3-2.9-5.5c0.1-1.5,1.6-33.5-30.1-53.6c-7,14.6-29.6,47.7-94.3,61.1
				C142.4,190.2,142,190.2,141.6,190.2z M154.8,88.6c-1.3,0-2.6,0.2-3.4,0.7c-22.7,13-13,63.8-5.7,87.9c70.5-16.5,82.5-58,82.6-58.4
				c0.5-1.8,1.7-3.2,3.4-3.9s3.6-0.7,5.2,0.2c21.8,11.4,32.4,27.5,37.6,41.2c0-3.8,0-7.9,0-11.9c-0.1-5.6-0.1-11.5,0-17.7
				c0.2-11.2-4.5-20.6-13.2-26.7c-13.3-9.2-33.5-9.2-56.8,0c-8.1,4.3-15.5,5.2-19.2,5.3c-4.6,0.3-9.3-1.3-13.1-4.5
				c-1.1-0.9-2.3-2.1-3.6-3.3c-2.8-2.6-6.2-5.8-9.4-7.8C158,88.9,156.4,88.6,154.8,88.6z"/>
		</g>
	</g>
	<g>
		<g>
			<path class="st0" d="M264.8,398.9h-4.4c-12.5,0-22.7-10.2-22.7-22.7v-0.1c-0.1-0.4-0.1-0.7-0.1-1.1c0-5.3,0.3-10.3,0.8-14.1
				c0.4-3.5,1.4-10.8,7.6-10.8h0.3c2,0,3.8,0.8,6.6,3.3c6.3-3.9,13-3.9,19.3,0c3-2.6,4.8-3.2,6.6-3.2h0.3c6.3,0,7.2,7.3,7.6,10.8
				s0.7,8,0.8,12.7c0,0.1,0,0.2,0,0.3v2.3C287.5,388.7,277.3,398.9,264.8,398.9z M249.6,372.9c0.1,0.3,0.1,0.7,0.1,1v2.3
				c0,5.9,4.8,10.7,10.7,10.7h4.4c5.9,0,10.7-4.8,10.7-10.7V375c0-3.2-0.1-6-0.3-8.3c-0.8,0.4-1.6,0.6-2.5,0.6
				c-1.6,0-3.2-0.6-4.3-1.7c-4.4-4.3-7.4-4.3-11.7,0c-1.9,1.8-4.6,2.2-6.8,1.1C249.7,368.5,249.6,370.5,249.6,372.9z M242.6,294.8
				c-3.3,0-6-2.7-6-6v-20.4c0-3.3,2.7-6,6-6s6,2.7,6,6v20.4C248.6,292.1,245.9,294.8,242.6,294.8z M174.9,293.9c-3.3,0-6-2.7-6-6
				v-20.3c0-3.3,2.7-6,6-6s6,2.7,6,6v20.3C180.9,291.2,178.2,293.9,174.9,293.9z"/>
		</g>
		<g>
			<path class="st0" d="M227.4,441.1h-34.8c-17.9,0-26.8-3.9-36.2-8c-8.7-3.8-17.7-7.8-36.4-9.3h-19.8c-12,0-21.8-9.8-21.8-21.8
				v-32.5c0-48,39-87,86.9-87.1l9-0.5c1.6-0.1,3.3,0.5,4.5,1.6s1.9,2.7,1.9,4.4c0,12.3,8.4,22.9,20.3,25.9c2,0.5,4.1,0.7,6.3,0.7
				h2.6c14.5,0,26.2-11.4,26.6-25.9c0.1-2.7,2-5.1,4.6-5.7c0.6-0.1,1.2-0.3,1.8-0.4c0.6-0.2,1.3-0.3,2-0.5c0.5-0.1,1.1-0.2,1.6-0.1
				l7.9,0.4c5.3,0,10.6,0.5,16,1.5c17.6,3.3,33.7,11.9,46.3,25c15.8,16.3,24.6,37.8,24.6,60.7V402c0,12-9.8,21.8-21.8,21.8h-19.8
				c-3.5,0.3-6.8,0.7-9.8,1.1c-12.3,1.9-19.5,5.1-26.5,8.1C254.2,437.2,245.3,441.1,227.4,441.1z M169.3,294.2l-3.4,0.2
				c-0.1,0-0.2,0-0.3,0c-41.4,0-75.1,33.7-75.1,75.1V402c0,5.4,4.4,9.8,9.8,9.8h20c0.2,0,0.3,0,0.5,0c20.8,1.6,31.2,6.2,40.5,10.3
				c8.6,3.8,16,7,31.4,7h34.8c15.4,0,22.8-3.3,31.4-7c7.4-3.2,15.7-6.9,29.5-9c3.3-0.5,7-0.9,10.9-1.3c0.2,0,0.3,0,0.5,0h20
				c5.4,0,9.8-4.4,9.8-9.8v-32.5c0-19.7-7.5-38.3-21.2-52.3c-10.9-11.3-24.7-18.8-39.9-21.6c-4.8-0.9-9.3-1.3-14-1.3
				c-0.1,0-0.2,0-0.3,0l-6-0.3c-2.9,18.6-18.8,32.5-38.1,32.5h-2.6c-3.1,0-6.2-0.4-9.1-1.1C183,321.7,171.8,309.3,169.3,294.2z"/>
		</g>
		<g>
			<path class="st0" d="M246.4,293.9h-1.3c-3.3,0-6-2.7-6-6s2.7-6,6-6h1.3c3.3,0,6,2.7,6,6S249.7,293.9,246.4,293.9z"/>
		</g>
	</g>
	<g>
		<path class="st1" d="M0,500"/>
	</g>
</g>
</svg>
