<?xml version="1.0" encoding="utf-8"?>
<!-- Generator: Adobe Illustrator 27.5.0, SVG Export Plug-In . SVG Version: 6.00 Build 0)  -->
<svg version="1.1" id="Layer_1" xmlns="http://www.w3.org/2000/svg" xmlns:xlink="http://www.w3.org/1999/xlink" x="0px" y="0px"
	 viewBox="0 0 500 500" style="enable-background:new 0 0 500 500;" xml:space="preserve">
<style type="text/css">
	.st0{fill:#FFFFFF;}
	.st1{fill:none;stroke:#FFFFFF;stroke-width:17.51;stroke-linecap:round;stroke-linejoin:round;}
</style>
<g>
	<g>
		<g>
			<path class="st0" d="M382.1,303.3c-0.1,0-0.2,0-0.3,0c-3.3-0.1-5.9-2.9-5.7-6.3c0.1-2.1,0.2-4.4,0.3-6.9
				c1.9-38.8,5.9-119.7-29.3-156.6c-12-12.6-27.3-18.8-46.6-18.8h-0.9c-10.5,0-20.1,1.9-28.5,5.8c-3,1.4-6.6,0-7.9-3
				c-1.4-3,0-6.6,3-7.9c10-4.5,21.2-6.8,33.5-6.8h0.9c22.5,0,41.1,7.6,55.3,22.5c38.8,40.7,34.6,125,32.6,165.5
				c-0.1,2.5-0.2,4.8-0.3,6.9C388,300.8,385.3,303.3,382.1,303.3z"/>
		</g>
		<g>
			<g>
				<path class="st0" d="M300.7,280.7c-3.3,0-6-2.7-6-6s2.7-6,6-6c28.4,0,51.5-23.1,51.5-51.5v-31.5c0-3.3,2.7-6,6-6s6,2.7,6,6v31.5
					C364.2,252.2,335.7,280.7,300.7,280.7z"/>
			</g>
			<g>
				<path class="st0" d="M358.3,194.5c-0.6,0-1.3-0.1-1.9-0.3c-2.6-0.9-4.3-3.5-4-6.3l0,0c0,0,0-0.7,0-2c0-0.1,0-0.2,0-0.3
					c0-12.8-11.4-33.8-26.9-45.2c-3.9,7.7-12.1,20.2-28.6,31.9c-2.7,1.9-6.5,1.3-8.4-1.4s-1.3-6.5,1.4-8.4
					c21.9-15.5,26.9-32.4,27-32.6c0.5-1.8,1.8-3.2,3.5-3.9c1.7-0.7,3.6-0.6,5.2,0.2c12.9,7.1,23.6,19.3,30.5,31.9
					c0-6-0.2-11.5-0.3-15.1c-0.1-3.3,2.5-6.1,5.8-6.2c3.3-0.1,6.1,2.5,6.2,5.8c0.9,29.6-0.3,42.4-4.3,48.9
					C362.3,193.5,360.3,194.5,358.3,194.5z"/>
			</g>
		</g>
		<g>
			<g>
				<path class="st0" d="M327.6,422.9c-3.3,0-6-2.7-6-6s2.7-6,6-6c13.2,0,17-2.2,21.8-5.1c5.7-3.3,12.7-7.5,32.1-9
					c0.2,0,0.3,0,0.5,0h18c4.5,0,8.2-3.7,8.2-8.2v-29.3c0-37.1-30.1-67.2-67.2-67.2c-0.1,0-0.2,0-0.4,0l-8.5-0.5
					c-3.2-0.2-5.6-2.8-5.6-6v-17.7c0-3.3,2.7-6,6-6s6,2.7,6,6v12l2.7,0.2c43.6,0.1,79,35.6,79,79.2v29.3c0,11.1-9.1,20.2-20.2,20.2
					h-17.8c-16.5,1.3-21.7,4.4-26.8,7.4C349.9,419.5,344,422.9,327.6,422.9z"/>
			</g>
			<g>
				<path class="st0" d="M320.7,329.4c-2.5,0-4.9-1.6-5.7-4.2c-1-3.2,0.7-6.5,3.9-7.6c16.6-5.4,27.7-17.6,28.2-31.1
					c0.1-3.3,2.9-5.9,6.2-5.8c3.3,0.1,5.9,2.9,5.8,6.2c-0.7,18.6-15,35.1-36.4,42.1C321.9,329.3,321.3,329.4,320.7,329.4z"/>
			</g>
		</g>
		<g>
			<path class="st0" d="M117.3,307.6c-3.2,0-5.8-2.5-6-5.7c0-0.9-0.1-2-0.2-3.4c-6.2-112.9,17.8-163.2,39-185.6
				c15.2-16,34.5-24.2,57.4-24.2h1c22.9,0,42.2,8.1,57.3,24.1c19.8,20.8,32.4,54.8,37.5,101.1c4,36.4,2.3,69.8,1.6,84
				c-0.1,1.6-0.2,2.9-0.2,3.9c-0.1,3.3-3,5.9-6.2,5.7c-3.3-0.1-5.9-2.9-5.7-6.2c0-1,0.1-2.4,0.2-4.1
				c5.7-108.6-16.3-155.8-35.8-176.3c-13-13.7-28.9-20.3-48.6-20.3h-1c-19.8,0-35.7,6.7-48.7,20.4c-19.6,20.6-41.6,68.1-35.7,176.7
				c0.1,1.4,0.1,2.6,0.2,3.5c0.2,3.3-2.4,6.1-5.7,6.3C117.5,307.6,117.4,307.6,117.3,307.6z"/>
		</g>
		<g>
			<g>
				<path class="st0" d="M208.7,284.5h-1.6c-38.4,0-69.7-31.3-69.7-69.7v-31.2c0-3.3,2.7-6,6-6s6,2.7,6,6v31.2
					c0,31.8,25.9,57.7,57.7,57.7h1.6c31.8,0,57.7-25.9,57.7-57.7v-34.9c0-3.3,2.7-6,6-6s6,2.7,6,6v34.9
					C278.4,253.2,247.1,284.5,208.7,284.5z"/>
			</g>
			<g>
				<path class="st0" d="M139.4,190.5c-1.3,0-2.6-0.4-3.6-1.2c-1.4-1.1-2.3-2.7-2.4-4.4c-0.1-1.5-2.2-36,2.1-51.8
					c0.9-3.2,4.2-5.1,7.4-4.2c3.2,0.9,5.1,4.2,4.2,7.4c-2.5,9.3-2.5,28.7-2,40.8c35.9-8.7,56.2-23.9,67-35.3
					c11.9-12.6,15-23.3,15-23.4c0.5-1.8,1.8-3.2,3.5-3.9c1.7-0.7,3.6-0.6,5.2,0.3c14,7.7,25.7,21,33.3,34.7c-0.1-2-0.1-4-0.2-6.1
					c-0.1-2.6-0.2-5.4-0.3-8.3c-0.1-3.3,2.5-6.1,5.8-6.2c0.1,0,0.1,0,0.2,0c3.2,0,5.9,2.6,6,5.8c0.1,2.9,0.2,5.7,0.3,8.3
					c0.7,23.3,1.2,36.1-3.3,43.4c-1.5,2.4-4.3,3.4-7,2.6c-2.6-0.9-4.3-3.4-4.1-6.2l0,0c0,0,0.1-0.9,0-2.5c0-0.1,0-0.2,0-0.3
					c0-14.5-13-38.3-30.6-51.1c-7,14.6-29.2,46.6-90.9,60.6c-0.8,0.2-1.4,0.3-2.1,0.5c-0.7,0.2-1.4,0.3-2.1,0.5
					C140.2,190.5,139.8,190.5,139.4,190.5z"/>
			</g>
		</g>
		<g>
			<g>
				<path class="st0" d="M225.4,443.8h-34.8c-17.9,0-26.9-3.9-36.3-8.1c-8.7-3.8-17.7-7.8-36.2-9.2H98.3c-12,0-21.8-9.8-21.8-21.8
					v-32.5c0-48,39-87,86.9-87.1l3.7-0.2v-14.3c0-3.3,2.7-6,6-6s6,2.7,6,6v20c0,3.2-2.5,5.8-5.7,6l-9.5,0.5c-0.1,0-0.2,0-0.3,0
					c-41.4,0-75.1,33.7-75.1,75.1v32.5c0,5.4,4.4,9.8,9.8,9.8h20c0.2,0,0.3,0,0.5,0c20.7,1.6,31.1,6.2,40.4,10.2
					c8.6,3.8,16,7,31.5,7h34.8c15.4,0,22.8-3.3,31.4-7c9.2-4,19.7-8.6,40.5-10.3c0.2,0,0.3,0,0.5,0h20c5.4,0,9.8-4.4,9.8-9.8v-32.5
					c0-41.4-33.7-75.1-75.1-75.1c-0.1,0-0.2,0-0.3,0l-9.4-0.5c-3.2-0.2-5.7-2.8-5.7-6V271c0-3.3,2.7-6,6-6s6,2.7,6,6v13.9l3.6,0.2
					c48,0.1,86.9,39.1,86.9,87.1v32.5c0,12-9.8,21.8-21.8,21.8h-19.8c-18.6,1.5-27.6,5.4-36.4,9.3
					C252.2,439.9,243.3,443.8,225.4,443.8z"/>
			</g>
			<g>
				<path class="st0" d="M206,342c-34.3,0-62.4-21.6-63.9-49.1c-0.2-3.3,2.4-6.1,5.7-6.3c3.3-0.2,6.1,2.4,6.3,5.7
					c1.1,20.8,24.4,37.7,51.9,37.7c27.9,0,51.2-17.1,52-38.2c0.1-3.3,2.9-5.9,6.2-5.8c3.3,0.1,5.9,2.9,5.8,6.2
					C269,320.1,240.9,342,206,342z"/>
			</g>
			<g>
				<path class="st0" d="M207.3,372.1c-2.3,0-4.6-0.9-6.2-2.6c-0.4-0.4-0.8-0.8-1.1-1.3s-0.6-1-0.8-1.5s-0.4-1.1-0.5-1.6
					c-0.1-0.6-0.2-1.1-0.2-1.7s0-1.1,0.2-1.7c0.1-0.6,0.3-1.1,0.5-1.6s0.5-1,0.8-1.5s0.7-0.9,1.1-1.3c0.4-0.4,0.9-0.8,1.3-1.1
					c0.5-0.3,1-0.6,1.5-0.8c0.5-0.2,1.1-0.4,1.6-0.5c1.1-0.2,2.3-0.2,3.4,0c0.6,0.1,1.1,0.3,1.6,0.5s1,0.5,1.5,0.8s0.9,0.7,1.3,1.1
					c0.4,0.4,0.8,0.8,1.1,1.3s0.6,1,0.8,1.5s0.4,1.1,0.5,1.6c0.1,0.6,0.2,1.1,0.2,1.7s0,1.2-0.2,1.7c-0.1,0.6-0.3,1.1-0.5,1.6
					s-0.5,1-0.8,1.5s-0.7,0.9-1.1,1.3s-0.9,0.8-1.3,1.1c-0.5,0.3-1,0.6-1.5,0.8c-0.5,0.2-1.1,0.4-1.6,0.5
					C208.4,372.1,207.9,372.1,207.3,372.1z"/>
			</g>
			<g>
				<path class="st0" d="M207.3,398.3c-0.6,0-1.1-0.1-1.7-0.2c-0.6-0.1-1.1-0.3-1.6-0.5s-1-0.5-1.5-0.8s-0.9-0.7-1.3-1.1
					c-0.4-0.4-0.8-0.8-1.1-1.3s-0.6-1-0.8-1.5s-0.4-1.1-0.5-1.6c-0.1-0.6-0.2-1.1-0.2-1.7s0.1-1.2,0.2-1.7c0.1-0.6,0.3-1.1,0.5-1.6
					s0.5-1,0.8-1.5s0.7-0.9,1.1-1.3c0.4-0.4,0.9-0.8,1.3-1.1c0.5-0.3,1-0.6,1.5-0.8c0.5-0.2,1.1-0.4,1.6-0.5c1.1-0.2,2.3-0.2,3.4,0
					c0.6,0.1,1.1,0.3,1.6,0.5s1,0.5,1.5,0.8s0.9,0.7,1.3,1.1c0.4,0.4,0.8,0.9,1.1,1.3c0.3,0.5,0.6,1,0.8,1.5s0.4,1.1,0.5,1.6
					c0.1,0.6,0.2,1.1,0.2,1.7s-0.1,1.1-0.2,1.7c-0.1,0.6-0.3,1.1-0.5,1.6s-0.5,1-0.8,1.5s-0.7,0.9-1.1,1.3c-0.4,0.4-0.9,0.8-1.3,1.1
					c-0.5,0.3-1,0.6-1.5,0.8c-0.5,0.2-1.1,0.4-1.6,0.5C208.4,398.2,207.9,398.3,207.3,398.3z"/>
			</g>
			<g>
				<path class="st0" d="M207.3,424.3c-0.6,0-1.1-0.1-1.7-0.2c-0.6-0.1-1.1-0.3-1.6-0.5s-1-0.5-1.5-0.8s-0.9-0.7-1.3-1.1
					c-0.4-0.4-0.8-0.8-1.1-1.3s-0.6-1-0.8-1.5s-0.4-1.1-0.5-1.6c-0.1-0.6-0.2-1.1-0.2-1.7s0-1.2,0.2-1.7c0.1-0.6,0.3-1.1,0.5-1.6
					s0.5-1,0.8-1.5s0.7-0.9,1.1-1.3c0.4-0.4,0.9-0.8,1.3-1.1c0.5-0.3,1-0.6,1.5-0.8c0.5-0.2,1.1-0.4,1.6-0.5c1.1-0.2,2.3-0.2,3.4,0
					c0.6,0.1,1.1,0.3,1.6,0.5s1,0.5,1.5,0.8s0.9,0.7,1.3,1.1c0.4,0.4,0.8,0.9,1.1,1.3c0.3,0.5,0.6,1,0.8,1.5s0.4,1.1,0.5,1.6
					c0.1,0.6,0.2,1.1,0.2,1.7s-0.1,1.1-0.2,1.7c-0.1,0.6-0.3,1.1-0.5,1.6s-0.5,1-0.8,1.5s-0.7,0.9-1.1,1.3c-0.4,0.4-0.9,0.8-1.3,1.1
					c-0.5,0.3-1,0.6-1.5,0.8c-0.5,0.2-1.1,0.4-1.6,0.5C208.4,424.2,207.9,424.3,207.3,424.3z"/>
			</g>
		</g>
	</g>
	<g>
		<path class="st1" d="M0,500"/>
	</g>
</g>
</svg>
