<?xml version="1.0" encoding="utf-8"?>
<!-- Generator: Adobe Illustrator 27.5.0, SVG Export Plug-In . SVG Version: 6.00 Build 0)  -->
<svg version="1.1" id="Layer_1" xmlns="http://www.w3.org/2000/svg" xmlns:xlink="http://www.w3.org/1999/xlink" x="0px" y="0px"
	 viewBox="0 0 500 500" style="enable-background:new 0 0 500 500;" xml:space="preserve">
<style type="text/css">
	.st0{fill:#FFFFFF;}
	.st1{fill:none;stroke:#FFFFFF;stroke-width:15;stroke-linecap:round;stroke-linejoin:round;}
</style>
<g>
	<g>
		<g>
			<path class="st0" d="M222.9,198.4H130c-3.3,0-6-2.7-6-6s2.7-6,6-6h92.9c3.3,0,6,2.7,6,6S226.2,198.4,222.9,198.4z"/>
		</g>
		<g>
			<path class="st0" d="M222.9,238.8H130c-3.3,0-6-2.7-6-6s2.7-6,6-6h92.9c3.3,0,6,2.7,6,6S226.2,238.8,222.9,238.8z"/>
		</g>
		<g>
			<path class="st0" d="M222.9,279.1H130c-3.3,0-6-2.7-6-6s2.7-6,6-6h92.9c3.3,0,6,2.7,6,6S226.2,279.1,222.9,279.1z"/>
		</g>
		<g>
			<path class="st0" d="M176.5,319.4H130c-3.3,0-6-2.7-6-6s2.7-6,6-6h46.5c3.3,0,6,2.7,6,6S179.8,319.4,176.5,319.4z"/>
		</g>
		<g>
			<path class="st0" d="M370,374.4H258.6c-3.3,0-6-2.7-6-6V190.7c0-3.3,2.7-6,6-6H370c3.3,0,6,2.7,6,6v177.7
				C376,371.7,373.3,374.4,370,374.4z M264.6,362.4H364V196.7h-99.4V362.4z"/>
		</g>
		<g>
			<path class="st0" d="M370,374.4c-2,0-4-1-5.1-2.8L253.5,193.9c-1.8-2.8-0.9-6.5,1.9-8.3s6.5-0.9,8.3,1.9l111.4,177.7
				c1.8,2.8,0.9,6.5-1.9,8.3C372.2,374.1,371.1,374.4,370,374.4z"/>
		</g>
		<g>
			<path class="st0" d="M258.6,374.4c-1.1,0-2.2-0.3-3.2-0.9c-2.8-1.8-3.7-5.5-1.9-8.3l111.4-177.7c1.8-2.8,5.5-3.7,8.3-1.9
				s3.7,5.5,1.9,8.3L263.7,371.6C262.5,373.4,260.6,374.4,258.6,374.4z"/>
		</g>
		<g>
			<g>
				<path class="st0" d="M387.7,416.1H112.3c-15.7,0-28.4-12.7-28.4-28.4V112.3c0-15.7,12.7-28.4,28.4-28.4h275.4
					c15.7,0,28.4,12.7,28.4,28.4v275.4C416.1,403.4,403.4,416.1,387.7,416.1z M95.9,147.3v240.4c0,9,7.4,16.4,16.4,16.4h275.4
					c9,0,16.4-7.4,16.4-16.4V147.3H95.9z M95.9,135.3h308.2v-23c0-9-7.4-16.4-16.4-16.4H112.3c-9,0-16.4,7.4-16.4,16.4V135.3z"/>
			</g>
			<g>
				<path class="st0" d="M178,123.1h-0.1c-4.1,0-7.5-3.4-7.5-7.5s3.4-7.5,7.5-7.5h0.1c4.1,0,7.5,3.4,7.5,7.5S182.1,123.1,178,123.1z
					 M149.8,123.1c-4.1,0-7.5-3.4-7.5-7.5s3.3-7.5,7.5-7.5h0.1c4.1,0,7.5,3.4,7.5,7.5S153.9,123.1,149.8,123.1z M121.7,123.1
					L121.7,123.1c-4.2,0-7.6-3.4-7.6-7.5s3.4-7.5,7.5-7.5h0.1c4.1,0,7.5,3.4,7.5,7.5S125.8,123.1,121.7,123.1z"/>
			</g>
		</g>
	</g>
	<g>
		<path class="st1" d="M0,500"/>
	</g>
</g>
</svg>
