<?xml version="1.0" encoding="utf-8"?>
<!-- Generator: Adobe Illustrator 27.5.0, SVG Export Plug-In . SVG Version: 6.00 Build 0)  -->
<svg version="1.1" id="Layer_1" xmlns="http://www.w3.org/2000/svg" xmlns:xlink="http://www.w3.org/1999/xlink" x="0px" y="0px"
	 viewBox="0 0 500 500" style="enable-background:new 0 0 500 500;" xml:space="preserve">
<style type="text/css">
	.st0{clip-path:url(#SVGID_00000079468520351692990800000015999428495331202947_);}
	.st1{fill:#FFFFFF;}
</style>
<g>
	<g>
		<g>
			<g>
				<defs>
					<rect id="SVGID_1_" width="500" height="500"/>
				</defs>
				<clipPath id="SVGID_00000058553945302194258290000009502352389317126054_">
					<use xlink:href="#SVGID_1_"  style="overflow:visible;"/>
				</clipPath>
				<g style="clip-path:url(#SVGID_00000058553945302194258290000009502352389317126054_);">
					<g>
						<g>
							<path class="st1" d="M387.7,416.1H112.3c-15.7,0-28.4-12.7-28.4-28.4V112.3c0-15.7,12.7-28.4,28.4-28.4h275.4
								c15.7,0,28.4,12.7,28.4,28.4v275.4C416.1,403.4,403.4,416.1,387.7,416.1z M95.9,147.3v240.4c0,9,7.4,16.4,16.4,16.4h275.4
								c9,0,16.4-7.4,16.4-16.4V147.3H95.9z M95.9,135.3h308.2v-23c0-9-7.4-16.4-16.4-16.4H112.3c-9,0-16.4,7.4-16.4,16.4V135.3z"/>
						</g>
						<g>
							<path class="st1" d="M178,123.1h-0.1c-4.1,0-7.5-3.4-7.5-7.5s3.4-7.5,7.5-7.5h0.1c4.1,0,7.5,3.4,7.5,7.5
								S182.1,123.1,178,123.1z M149.8,123.1c-4.1,0-7.5-3.4-7.5-7.5s3.3-7.5,7.5-7.5h0.1c4.1,0,7.5,3.4,7.5,7.5
								S153.9,123.1,149.8,123.1z M121.7,123.1L121.7,123.1c-4.2,0-7.6-3.4-7.6-7.5s3.4-7.5,7.5-7.5h0.1c4.1,0,7.5,3.4,7.5,7.5
								S125.8,123.1,121.7,123.1z"/>
						</g>
					</g>
					<g>
						<path class="st1" d="M170.3,383.5h-30.2c-3.3,0-6-2.7-6-6v-30.2c0-3.3,2.7-6,6-6h30.2c3.3,0,6,2.7,6,6v30.2
							C176.3,380.8,173.6,383.5,170.3,383.5z M146.1,371.5h18.2v-18.2h-18.2V371.5z M350,368.3H204.3c-3.3,0-6-2.7-6-6s2.7-6,6-6
							H350c3.3,0,6,2.7,6,6S353.3,368.3,350,368.3z M170.3,309.5h-30.2c-3.3,0-6-2.7-6-6v-30.2c0-3.3,2.7-6,6-6h30.2
							c3.3,0,6,2.7,6,6v30.2C176.3,306.8,173.6,309.5,170.3,309.5z M146.1,297.5h18.2v-18.2h-18.2V297.5z M350,294.3h-76
							c-3.3,0-6-2.7-6-6s2.7-6,6-6h76c3.3,0,6,2.7,6,6S353.3,294.3,350,294.3z M239,294.3h-34.7c-3.3,0-6-2.7-6-6s2.7-6,6-6H239
							c3.3,0,6,2.7,6,6S242.3,294.3,239,294.3z M207,226h-67c-3.3,0-6-2.7-6-6s2.7-6,6-6h67c3.3,0,6,2.7,6,6S210.3,226,207,226z
							 M359.9,190H140.1c-3.3,0-6-2.7-6-6s2.7-6,6-6h219.8c3.3,0,6,2.7,6,6S363.2,190,359.9,190z"/>
					</g>
				</g>
			</g>
		</g>
	</g>
</g>
</svg>
