<?xml version="1.0" encoding="utf-8"?>
<!-- Generator: Adobe Illustrator 27.5.0, SVG Export Plug-In . SVG Version: 6.00 Build 0)  -->
<svg version="1.1" id="Layer_1" xmlns="http://www.w3.org/2000/svg" xmlns:xlink="http://www.w3.org/1999/xlink" x="0px" y="0px"
	 viewBox="0 0 500 500" style="enable-background:new 0 0 500 500;" xml:space="preserve">
<style type="text/css">
	.st0{fill:#FFFFFF;}
	.st1{fill:none;stroke:#FFFFFF;stroke-width:12;stroke-linecap:round;stroke-linejoin:round;}
</style>
<g>
	<g>
		<g>
			<path class="st0" d="M294.5,328h-0.2c-3.3,0-6-2.7-6-6s2.7-6,6-6h0.2c3.3,0,6,2.7,6,6S297.8,328,294.5,328z"/>
		</g>
		<g>
			<path class="st0" d="M245.5,328h-0.1c-3.3,0-6-2.7-6-6s2.7-6,6-6h0.1c3.3,0,6,2.7,6,6S248.8,328,245.5,328z"/>
		</g>
		<g>
			<path class="st0" d="M270,328c-3.3,0-6-2.7-6-6s2.6-6,6-6h0.1c3.3,0,6,2.7,6,6S273.3,328,270,328z"/>
		</g>
		<g>
			<path class="st0" d="M347.8,304H245.7c-2.1,0-4.1-1.1-5.2-3c-1.1-1.9-1.1-4.1,0-6l25.5-44.2l25.6-44.2c1.1-1.9,3.1-3,5.2-3l0,0
				c2.1,0,4.1,1.1,5.2,3l25.5,44.2l12.6,21.8c1.7,2.9,0.7,6.5-2.2,8.2c-2.9,1.7-6.5,0.7-8.2-2.2l-32.9-57l-20.4,35.2L256.1,292h91.7
				c3.3,0,6,2.7,6,6S351.1,304,347.8,304z"/>
		</g>
		<g>
			<path class="st0" d="M372.4,304H322c-2.1,0-4.1-1.1-5.2-3s-1.1-4.1,0-6l25.2-43.6c1.1-1.9,3.1-3,5.2-3l0,0c2.1,0,4.1,1.1,5.2,3
				l25.2,43.6c1.1,1.9,1.1,4.1,0,6C376.5,302.9,374.5,304,372.4,304z M332.4,292H362l-14.8-25.6L332.4,292z"/>
		</g>
		<g>
			<path class="st0" d="M372.4,304h-127c-3.3,0-6-2.7-6-6V171c0-3.3,2.7-6,6-6h127c3.3,0,6,2.7,6,6v127
				C378.4,301.3,375.7,304,372.4,304z M251.4,292h115V177h-115V292z"/>
		</g>
		<g>
			<path class="st0" d="M308.9,384h-63.5c-3.3,0-6-2.7-6-6s2.7-6,6-6h63.5c3.3,0,6,2.7,6,6S312.2,384,308.9,384z M372.4,357h-127
				c-3.3,0-6-2.7-6-6s2.7-6,6-6h127c3.3,0,6,2.7,6,6S375.7,357,372.4,357z M338,224.2c-10,0-18.1-8.1-18.1-18.1S328,188,338,188
				s18.1,8.1,18.1,18.1S348,224.2,338,224.2z M338,200c-3.4,0-6.1,2.7-6.1,6.1s2.7,6.1,6.1,6.1s6.1-2.7,6.1-6.1S341.4,200,338,200z"
				/>
		</g>
		<g>
			<g>
				<path class="st0" d="M387.7,416.1H112.3c-15.7,0-28.4-12.7-28.4-28.4V112.3c0-15.7,12.7-28.4,28.4-28.4h275.4
					c15.7,0,28.4,12.7,28.4,28.4v275.4C416.1,403.4,403.4,416.1,387.7,416.1z M95.9,147.3v240.4c0,9,7.4,16.4,16.4,16.4h275.4
					c9,0,16.4-7.4,16.4-16.4V147.3H95.9z M95.9,135.3h308.2v-23c0-9-7.4-16.4-16.4-16.4H112.3c-9,0-16.4,7.4-16.4,16.4V135.3z"/>
			</g>
			<g>
				<path class="st0" d="M178,123.1h-0.1c-4.1,0-7.5-3.4-7.5-7.5s3.4-7.5,7.5-7.5h0.1c4.1,0,7.5,3.4,7.5,7.5S182.1,123.1,178,123.1z
					 M149.8,123.1c-4.1,0-7.5-3.4-7.5-7.5s3.3-7.5,7.5-7.5h0.1c4.1,0,7.5,3.4,7.5,7.5S153.9,123.1,149.8,123.1z M121.7,123.1
					L121.7,123.1c-4.2,0-7.6-3.4-7.6-7.5s3.4-7.5,7.5-7.5h0.1c4.1,0,7.5,3.4,7.5,7.5S125.8,123.1,121.7,123.1z"/>
			</g>
			<g>
				<path class="st0" d="M207.7,416.2c-3.3,0-6-2.7-6-6V141.3c0-3.3,2.7-6,6-6s6,2.7,6,6v268.9C213.7,413.5,211,416.2,207.7,416.2z
					 M178,357h-61.4c-3.3,0-6-2.7-6-6s2.7-6,6-6H178c3.3,0,6,2.7,6,6S181.3,357,178,357z M178,329.4h-61.4c-3.3,0-6-2.7-6-6
					s2.7-6,6-6H178c3.3,0,6,2.7,6,6S181.3,329.4,178,329.4z M178,301.7h-40.5c-3.3,0-6-2.7-6-6s2.7-6,6-6H178c3.3,0,6,2.7,6,6
					S181.3,301.7,178,301.7z M117.4,301.7h-0.8c-3.3,0-6-2.7-6-6s2.7-6,6-6h0.8c3.3,0,6,2.7,6,6S120.7,301.7,117.4,301.7z
					 M178,274.1h-61.4c-3.3,0-6-2.7-6-6s2.7-6,6-6H178c3.3,0,6,2.7,6,6S181.3,274.1,178,274.1z M147.3,243.9c-22.1,0-40-17.9-40-40
					s17.9-40,40-40s40,17.9,40,40S169.4,243.9,147.3,243.9z M147.3,175.9c-15.4,0-28,12.6-28,28s12.6,28,28,28s28-12.6,28-28
					S162.7,175.9,147.3,175.9z"/>
			</g>
		</g>
	</g>
	<g>
		<path class="st1" d="M0,500"/>
	</g>
</g>
</svg>
