<?xml version="1.0" encoding="iso-8859-1"?>
<!-- Generator: Adobe Illustrator 29.6.1, SVG Export Plug-In . SVG Version: 9.03 Build 0)  -->
<svg version="1.1" id="Layer_1" xmlns="http://www.w3.org/2000/svg" xmlns:xlink="http://www.w3.org/1999/xlink" x="0px" y="0px"
	 viewBox="0 0 500 500" style="enable-background:new 0 0 500 500;" xml:space="preserve">
<g>
	<path style="fill:#FFFFFF;" d="M400,356H100c-14.336,0-26-11.663-26-26V110c0-14.336,11.664-26,26-26h300c14.337,0,26,11.664,26,26
		v220C426,344.337,414.337,356,400,356z M100,96c-7.72,0-14,6.28-14,14v220c0,7.72,6.28,14,14,14h300c7.72,0,14-6.28,14-14V110
		c0-7.72-6.28-14-14-14H100z"/>
</g>
<g>
	<path style="fill:#FFFFFF;" d="M284.993,416c-3.088,0-5.711-2.369-5.973-5.502l-5-60c-0.275-3.302,2.179-6.202,5.481-6.478
		c3.293-0.269,6.201,2.179,6.478,5.481l5,60c0.275,3.302-2.179,6.202-5.481,6.478C285.329,415.993,285.16,416,284.993,416z
		 M215.007,416c-0.167,0-0.335-0.007-0.505-0.021c-3.302-0.275-5.756-3.176-5.481-6.478l5-60c0.275-3.303,3.173-5.748,6.478-5.481
		c3.302,0.275,5.756,3.176,5.481,6.478l-5,60C220.718,413.631,218.095,416,215.007,416z"/>
</g>
<g>
	<path style="fill:#FFFFFF;" d="M320,416H180c-3.313,0-6-2.687-6-6s2.687-6,6-6h140c3.313,0,6,2.687,6,6S323.313,416,320,416z
		 M420,296H80c-3.313,0-6-2.687-6-6s2.687-6,6-6h340c3.313,0,6,2.687,6,6S423.313,296,420,296z"/>
</g>
<g>
	<path style="fill:#FFFFFF;" d="M250.1,327.5H250c-4.142,0-7.5-3.357-7.5-7.5s3.358-7.5,7.5-7.5h0.1c4.142,0,7.5,3.357,7.5,7.5
		S254.242,327.5,250.1,327.5z"/>
</g>
<g>
	<path style="fill:#FFFFFF;" d="M180,186c-17.093,0-31-13.907-31-31s13.907-31,31-31s31,13.907,31,31S197.093,186,180,186z M180,136
		c-10.477,0-19,8.523-19,19s8.523,19,19,19s19-8.523,19-19S190.477,136,180,136z"/>
</g>
<g>
	<path style="fill:#FFFFFF;" d="M230,261H130c-3.313,0-6-2.687-6-6v-15c0-22.607,18.393-41,41-41h30c22.607,0,41,18.393,41,41v15
		C236,258.313,233.313,261,230,261z M136,249h88v-9c0-15.991-13.009-29-29-29h-30c-15.991,0-29,13.009-29,29V249z"/>
</g>
<g>
	<circle style="fill:#FFFFFF;" cx="250" cy="320" r="10"/>
</g>
<g>
	<path style="fill:#FFFFFF;" d="M110.1,127.5H110c-4.142,0-7.5-3.358-7.5-7.5s3.358-7.5,7.5-7.5h0.1c4.142,0,7.5,3.358,7.5,7.5
		S114.242,127.5,110.1,127.5z"/>
</g>
<g>
	<path style="fill:#FFFFFF;" d="M385,171h-70c-3.313,0-6-2.687-6-6s2.687-6,6-6h70c3.313,0,6,2.687,6,6S388.313,171,385,171z
		 M385,136h-70c-3.313,0-6-2.687-6-6s2.687-6,6-6h70c3.313,0,6,2.687,6,6S388.313,136,385,136z"/>
</g>
<g>
	<path style="fill:#FFFFFF;" d="M385,261h-70c-3.313,0-6-2.687-6-6v-55c0-3.313,2.687-6,6-6h70c3.313,0,6,2.687,6,6v55
		C391,258.313,388.313,261,385,261z M321,249h58v-43h-58V249z"/>
</g>
<g>
	<path style="fill:#FFFFFF;" d="M280,296c-3.313,0-6-2.687-6-6V90c0-3.313,2.687-6,6-6s6,2.687,6,6v200
		C286,293.313,283.313,296,280,296z"/>
</g>
</svg>
