<?xml version="1.0" encoding="iso-8859-1"?>
<!-- Generator: Adobe Illustrator 29.6.1, SVG Export Plug-In . SVG Version: 9.03 Build 0)  -->
<svg version="1.1" id="Layer_1" xmlns="http://www.w3.org/2000/svg" xmlns:xlink="http://www.w3.org/1999/xlink" x="0px" y="0px"
	 viewBox="0 0 500 500" style="enable-background:new 0 0 500 500;" xml:space="preserve">
<g>
	<path style="fill:#FFFFFF;" d="M390,416H110c-14.336,0-26-11.663-26-26V110c0-14.336,11.664-26,26-26h280c14.337,0,26,11.664,26,26
		v280C416,404.337,404.337,416,390,416z M110,96c-7.72,0-14,6.28-14,14v280c0,7.72,6.28,14,14,14h280c7.72,0,14-6.28,14-14V110
		c0-7.72-6.28-14-14-14H110z"/>
</g>
<g>
	<path style="fill:#FFFFFF;" d="M250,416c-3.314,0-6-2.687-6-6V146H90c-3.314,0-6-2.686-6-6s2.686-6,6-6h320c3.313,0,6,2.686,6,6
		s-2.687,6-6,6H256v264C256,413.313,253.313,416,250,416z"/>
</g>
<g>
	<path style="fill:#FFFFFF;" d="M185.4,122.5h-0.1c-4.142,0-7.5-3.358-7.5-7.5s3.358-7.5,7.5-7.5h0.1c4.142,0,7.5,3.358,7.5,7.5
		S189.542,122.5,185.4,122.5z M155.3,122.5h-0.2c-4.142,0-7.5-3.358-7.5-7.5s3.358-7.5,7.5-7.5h0.2c4.142,0,7.5,3.358,7.5,7.5
		S159.442,122.5,155.3,122.5z"/>
</g>
<g>
	<path style="fill:#FFFFFF;" d="M170,271c-14.336,0-26-11.663-26-26c0-14.336,11.664-26,26-26s26,11.664,26,26
		C196,259.337,184.336,271,170,271z M170,231c-7.72,0-14,6.28-14,14s6.28,14,14,14s14-6.28,14-14S177.72,231,170,231z"/>
</g>
<g>
	<path style="fill:#FFFFFF;" d="M215,331h-90c-3.313,0-6-2.687-6-6v-10c0-19.851,16.149-36,36-36h30c19.851,0,36,16.149,36,36v10
		C221,328.313,218.313,331,215,331z M131,319h78v-4c0-13.233-10.766-24-24-24h-30c-13.234,0-24,10.767-24,24V319z"/>
</g>
<g>
	<path style="fill:#FFFFFF;" d="M330,339c-11.579,0-21-9.421-21-21s9.421-21,21-21s21,9.421,21,21S341.579,339,330,339z M330,309
		c-4.963,0-9,4.037-9,9s4.037,9,9,9s9-4.037,9-9S334.963,309,330,309z"/>
</g>
<g>
	<path style="fill:#FFFFFF;" d="M365,389h-70c-3.313,0-6-2.687-6-6v-10c0-14.337,11.663-26,26-26h30c14.337,0,26,11.663,26,26v10
		C371,386.313,368.313,389,365,389z M301,377h58v-4c0-7.72-6.28-14-14-14h-30c-7.72,0-14,6.28-14,14V377z"/>
</g>
<g>
	<path style="fill:#FFFFFF;" d="M330,204c-11.579,0-21-9.42-21-21s9.421-21,21-21s21,9.42,21,21S341.579,204,330,204z M330,174
		c-4.963,0-9,4.038-9,9s4.037,9,9,9s9-4.038,9-9S334.963,174,330,174z"/>
</g>
<g>
	<path style="fill:#FFFFFF;" d="M365,254h-70c-3.313,0-6-2.687-6-6v-10c0-14.336,11.663-26,26-26h30c14.337,0,26,11.664,26,26v10
		C371,251.313,368.313,254,365,254z M301,242h58v-4c0-7.72-6.28-14-14-14h-30c-7.72,0-14,6.28-14,14V242z"/>
</g>
<g>
	<circle style="fill:#FFFFFF;" cx="222.5" cy="167.5" r="7.5"/>
</g>
<g>
	<circle style="fill:#FFFFFF;" cx="382.5" cy="167.5" r="7.5"/>
</g>
<g>
	<circle style="fill:#FFFFFF;" cx="382.5" cy="302.5" r="7.5"/>
</g>
<g>
	<path style="fill:#FFFFFF;" d="M410,281H250c-3.313,0-6-2.687-6-6s2.687-6,6-6h160c3.313,0,6,2.687,6,6S413.313,281,410,281z"/>
</g>
</svg>
