<?xml version="1.0" encoding="utf-8"?>
<!-- Generator: Adobe Illustrator 27.5.0, SVG Export Plug-In . SVG Version: 6.00 Build 0)  -->
<svg version="1.1" id="Layer_1" xmlns="http://www.w3.org/2000/svg" xmlns:xlink="http://www.w3.org/1999/xlink" x="0px" y="0px"
	 viewBox="0 0 500 500" style="enable-background:new 0 0 500 500;" xml:space="preserve">
<style type="text/css">
	.st0{fill:#FFFFFF;}
	.st1{display:none;fill:none;stroke:#FFFFFF;stroke-width:12.6;}
	.st2{fill:none;stroke:#FFFFFF;stroke-width:12.6;}
</style>
<g>
	<g>
		<g>
			<path class="st0" d="M418.3,241.8h-12.6v-81.1H117.6c-20,0-36.3-16.3-36.3-36.3s16.3-36.3,36.3-36.3h250c1.7,0,3.3,0.7,4.5,1.9
				c1.2,1.2,1.8,2.8,1.8,4.5l-0.2,53.7H412c3.5,0,6.3,2.8,6.3,6.3V241.8z M117.6,100.7c-13.1,0-23.7,10.6-23.7,23.7
				s10.6,23.7,23.7,23.7h243.5l0.2-47.4C361.3,100.7,117.6,100.7,117.6,100.7z"/>
		</g>
		<g>
			<path class="st0" d="M412,413.9H117.8c-20.1,0-36.4-16.4-36.4-36.5v-253H94v253c0,13.2,10.7,23.9,23.8,23.9h287.9v-89.6h12.6
				v95.9C418.3,411.1,415.5,413.9,412,413.9z"/>
		</g>
		<g>
			<g>
				<path class="st0" d="M431,318H327c-11,0-21.4-4.3-29.2-12c-7.7-7.7-12-18.3-12-29.2c0-22.8,18.5-41.3,41.3-41.3H431
					c3.5,0,6.3,2.8,6.3,6.3v69.9C437.3,315.2,434.5,318,431,318z M327.1,248.1c-15.8,0-28.7,12.9-28.7,28.7c0,7.6,3,14.9,8.4,20.2
					c5.4,5.4,12.6,8.4,20.2,8.4h97.7v-57.3L327.1,248.1L327.1,248.1z"/>
			</g>
			<g>
				<path class="st0" d="M341.1,276.8c0,8-6.5,14.6-14.6,14.6s-14.6-6.5-14.6-14.6s6.5-14.6,14.6-14.6S341.1,268.7,341.1,276.8z"/>
			</g>
		</g>
	</g>
	<g>
		<g>
			<path class="st1" d="M0,500"/>
		</g>
		<g>
			<path class="st2" d="M0,500"/>
		</g>
		<g>
			<path class="st2" d="M0,500"/>
		</g>
		<g>
			<path class="st2" d="M0,500"/>
		</g>
		<g>
			<path class="st2" d="M0,500"/>
		</g>
		<g>
			<path class="st2" d="M0,500"/>
		</g>
		<g>
			<path class="st2" d="M0,500"/>
		</g>
		<g>
			<path class="st2" d="M0,500"/>
		</g>
		<g>
			<path class="st2" d="M0,500"/>
		</g>
		<g>
			<path class="st2" d="M0,500"/>
		</g>
		<g>
			<path class="st2" d="M0,500"/>
		</g>
		<g>
			<path class="st2" d="M0,500"/>
		</g>
	</g>
</g>
</svg>
