<?xml version="1.0" encoding="utf-8"?>
<!-- Generator: Adobe Illustrator 27.5.0, SVG Export Plug-In . SVG Version: 6.00 Build 0)  -->
<svg version="1.1" id="Layer_1" xmlns="http://www.w3.org/2000/svg" xmlns:xlink="http://www.w3.org/1999/xlink" x="0px" y="0px"
	 viewBox="0 0 500 500" style="enable-background:new 0 0 500 500;" xml:space="preserve">
<style type="text/css">
	.st0{clip-path:url(#SVGID_00000083777208130392135800000014772710025164158359_);}
	.st1{fill:#FFFFFF;}
	.st2{fill:none;}
	.st3{display:none;fill:none;stroke:#FFFFFF;stroke-width:12.04;stroke-linecap:round;stroke-linejoin:round;}
	.st4{fill:none;stroke:#FFFFFF;stroke-width:12.04;stroke-linecap:round;stroke-linejoin:round;}
</style>
<g>
	<g>
		<g>
			<g>
				<defs>
					<rect id="SVGID_1_" width="500" height="500"/>
				</defs>
				<clipPath id="SVGID_00000009564249234810056580000005473644941459419325_">
					<use xlink:href="#SVGID_1_"  style="overflow:visible;"/>
				</clipPath>
				<g style="clip-path:url(#SVGID_00000009564249234810056580000005473644941459419325_);">
					<g>
						<g>
							<path class="st1" d="M387.7,416.1H112.3c-15.7,0-28.4-12.7-28.4-28.4V112.3c0-15.7,12.7-28.4,28.4-28.4h275.4
								c15.7,0,28.4,12.7,28.4,28.4v275.4C416.1,403.4,403.4,416.1,387.7,416.1z M95.9,147.3v240.4c0,9,7.4,16.4,16.4,16.4h275.4
								c9,0,16.4-7.4,16.4-16.4V147.3H95.9z M95.9,135.3h308.2v-23c0-9-7.4-16.4-16.4-16.4H112.3c-9,0-16.4,7.4-16.4,16.4V135.3z"/>
						</g>
						<g>
							<path class="st1" d="M178,123.1h-0.1c-4.2,0-7.5-3.4-7.5-7.5s3.4-7.5,7.5-7.5h0.1c4.2,0,7.5,3.4,7.5,7.5
								S182.2,123.1,178,123.1z M149.8,123.1c-4.2,0-7.6-3.4-7.6-7.5s3.3-7.5,7.5-7.5h0.1c4.2,0,7.5,3.4,7.5,7.5
								S154,123.1,149.8,123.1z M121.7,123.1L121.7,123.1c-4.3,0-7.6-3.4-7.6-7.5s3.4-7.5,7.5-7.5h0.1c4.2,0,7.5,3.4,7.5,7.5
								S125.9,123.1,121.7,123.1z"/>
						</g>
					</g>
					<g>
						<g>
							<path class="st1" d="M167.9,291.5c-2,0-4-1-5.1-2.9c-1.7-2.8-0.8-6.5,2-8.2L312.4,190l-5-0.9c-3.3-0.6-5.4-3.7-4.9-6.9
								s3.7-5.4,6.9-4.9l20.6,3.6c0.1,0,0.1,0,0.2,0c0.8,0.2,1.5,0.5,2.2,0.9s1.2,1,1.7,1.7c0.1,0.2,0.3,0.4,0.4,0.7
								c0.2,0.5,0.4,1,0.5,1.5c0.1,0.4,0.1,0.9,0.1,1.3l0,0l0,0c0,0.2,0,0.5-0.1,0.7l-3.5,20.6c-0.6,3.3-3.6,5.5-6.9,4.9
								s-5.5-3.7-4.9-6.9l1.3-7.6l-150,91.9C170.1,291.2,169,291.5,167.9,291.5z"/>
						</g>
						<g>
							<path class="st2" d="M167.8,284.3"/>
						</g>
						<g>
							<path class="st1" d="M329.4,375.1h-28.7c-3.3,0-6-2.7-6-6V249.9c0-3.3,2.7-6,6-6h28.7c3.3,0,6,2.7,6,6v119.2
								C335.4,372.4,332.7,375.1,329.4,375.1z M306.7,363.1h16.7V255.9h-16.7V363.1z M263,375.1h-28.7c-3.3,0-6-2.7-6-6v-78.4
								c0-3.3,2.7-6,6-6H263c3.3,0,6,2.7,6,6v78.4C269,372.4,266.3,375.1,263,375.1z M240.3,363.1H257v-66.4h-16.7V363.1z
								 M196.7,375.1H168c-3.3,0-6-2.7-6-6v-39.2c0-3.3,2.7-6,6-6h28.7c3.3,0,6,2.7,6,6v39.2C202.7,372.4,200,375.1,196.7,375.1z
								 M174,363.1h16.7v-27.2H174V363.1z"/>
						</g>
					</g>
					<g>
						<g>
							<path class="st3" d="M0,500"/>
						</g>
						<g>
							<path class="st4" d="M0,500"/>
						</g>
						<g>
							<path class="st4" d="M0,500"/>
						</g>
						<g>
							<path class="st4" d="M0,500"/>
						</g>
						<g>
							<path class="st4" d="M0,500"/>
						</g>
						<g>
							<path class="st4" d="M0,500"/>
						</g>
						<g>
							<path class="st4" d="M0,500"/>
						</g>
						<g>
							<path class="st4" d="M0,500"/>
						</g>
						<g>
							<path class="st4" d="M0,500"/>
						</g>
						<g>
							<path class="st4" d="M0,500"/>
						</g>
						<g>
							<path class="st4" d="M0,500"/>
						</g>
						<g>
							<path class="st4" d="M0,500"/>
						</g>
					</g>
				</g>
			</g>
		</g>
	</g>
</g>
</svg>
