<?xml version="1.0" encoding="utf-8"?>
<!-- Generator: Adobe Illustrator 27.5.0, SVG Export Plug-In . SVG Version: 6.00 Build 0)  -->
<svg version="1.1" id="Layer_1" xmlns="http://www.w3.org/2000/svg" xmlns:xlink="http://www.w3.org/1999/xlink" x="0px" y="0px"
	 viewBox="0 0 500 500" style="enable-background:new 0 0 500 500;" xml:space="preserve">
<style type="text/css">
	.st0{fill:#FFFFFF;}
	.st1{fill:none;stroke:#FFFFFF;stroke-width:12;stroke-linecap:round;stroke-linejoin:round;}
</style>
<g>
	<g>
		<path class="st0" d="M441,214.5c-1.5,0-3.1-0.6-4.2-1.8c-49.9-49.9-116.2-77.4-186.8-77.4s-136.9,27.5-186.8,77.4
			c-2.3,2.3-6.1,2.3-8.5,0c-2.3-2.3-2.3-6.1,0-8.5c52.2-52.2,121.5-80.9,195.2-80.9S393,152,445.1,204.2c2.3,2.3,2.3,6.1,0,8.5
			C444.1,213.9,442.5,214.5,441,214.5z"/>
		<path class="st0" d="M398.8,252.8c-1.5,0-3.1-0.6-4.2-1.8c-79.7-79.7-209.5-79.7-289.2,0c-2.3,2.3-6.1,2.3-8.5,0
			c-2.3-2.3-2.3-6.1,0-8.5c84.4-84.4,221.8-84.4,306.2,0c2.3,2.3,2.3,6.1,0,8.5C401.9,252.2,400.3,252.8,398.8,252.8z"/>
		<path class="st0" d="M250,295.6c-25.4,0-46.1,20.6-46.1,46s20.7,46.1,46.1,46.1s46.1-20.7,46.1-46.1S275.4,295.6,250,295.6z
			 M250,375.7c-18.8,0-34.1-15.3-34.1-34.1c0-18.7,15.3-34,34.1-34s34.1,15.3,34.1,34C284.1,360.4,268.8,375.7,250,375.7z"/>
		<path class="st0" d="M142.2,290.1c-1.5,0-3.1-0.6-4.2-1.8c-2.3-2.3-2.3-6.1,0-8.5c61.7-61.7,162.3-61.7,224.1,0
			c2.3,2.3,2.3,6.1,0,8.5c-2.3,2.3-6.1,2.3-8.5,0c-57.2-57.1-150.1-57.1-207.1,0C145.3,289.5,143.7,290.1,142.2,290.1z"/>
	</g>
	<path class="st1" d="M0,500"/>
</g>
</svg>
