<?xml version="1.0" encoding="iso-8859-1"?>
<!-- Generator: Adobe Illustrator 29.6.1, SVG Export Plug-In . SVG Version: 9.03 Build 0)  -->
<svg version="1.1" id="Layer_1" xmlns="http://www.w3.org/2000/svg" xmlns:xlink="http://www.w3.org/1999/xlink" x="0px" y="0px"
	 viewBox="0 0 500 500" style="enable-background:new 0 0 500 500;" xml:space="preserve">
<g>
	<g>
		<path style="fill:#FFFFFF;" d="M295,278.5h-90c-3.314,0-6-2.687-6-6v-30c0-3.313,2.686-6,6-6h90c3.313,0,6,2.687,6,6v30
			C301,275.813,298.313,278.5,295,278.5z M211,266.5h78v-18h-78V266.5z M250.099,200.201c-25.887,0-47.793-19.331-50.955-44.966
			l-8.398-66.988c-0.214-1.708,0.316-3.426,1.455-4.717s2.778-2.03,4.499-2.03h106.8c1.722,0,3.359,0.739,4.499,2.03
			c1.139,1.291,1.669,3.008,1.454,4.716l-8.4,67C297.892,180.87,275.986,200.201,250.099,200.201z M203.499,93.501l7.554,60.253
			c2.422,19.643,19.208,34.447,39.046,34.447c19.837,0,36.624-14.804,39.044-34.435l7.557-60.265H203.499z"/>
	</g>
	<g>
		<path style="fill:#FFFFFF;" d="M284.999,248.501c-1.508,0-3.018-0.565-4.185-1.701l-8.979-8.74
			c-7.333-7.137-11.791-16.516-12.554-26.41l-1.437-18.689c-0.254-3.304,2.219-6.188,5.522-6.442
			c3.294-0.248,6.188,2.218,6.442,5.522l1.437,18.688c0.537,6.98,3.72,13.633,8.959,18.732l8.979,8.741
			c2.374,2.312,2.425,6.11,0.113,8.484C288.123,247.894,286.562,248.501,284.999,248.501z M215,248.501
			c-1.563,0-3.124-0.606-4.3-1.815c-2.311-2.375-2.26-6.173,0.115-8.485l8.98-8.74c5.24-5.101,8.421-11.753,8.958-18.732
			l1.437-18.688c0.254-3.304,3.131-5.782,6.442-5.522c3.304,0.254,5.776,3.139,5.522,6.442l-1.437,18.688
			c-0.76,9.892-5.218,19.271-12.552,26.411l-8.98,8.741C218.019,247.936,216.509,248.501,215,248.501z M295,168.501h-1.629
			c-3.313,0-6-2.687-6-6s2.687-6,6-6h1.535C311.228,155.967,324,141.727,324,124.043c0-3.056-2.156-5.542-4.808-5.542h-18.827
			c-3.313,0-6-2.687-6-6s2.687-6,6-6h18.827c9.268,0,16.808,7.869,16.808,17.542c0,24.246-17.931,43.773-40.821,44.456
			C295.119,168.499,295.06,168.501,295,168.501z M206.827,168.501H205c-0.075,0-0.149-0.001-0.224-0.004
			C181.911,167.643,164,148.118,164,124.045c0-9.674,7.577-17.544,16.89-17.544h18.944c3.313,0,6,2.687,6,6s-2.687,6-6,6H180.89
			c-2.696,0-4.89,2.487-4.89,5.544c0,17.551,12.782,31.786,29.117,32.456h1.71c3.313,0,6,2.687,6,6S210.141,168.501,206.827,168.501
			z"/>
	</g>
	<g>
		<path style="fill:#FFFFFF;" d="M410,418.5H90c-3.314,0-6-2.687-6-6v-100c0-3.313,2.686-6,6-6h99v-34c0-3.313,2.686-6,6-6h110
			c3.313,0,6,2.687,6,6v69h99c3.313,0,6,2.687,6,6v65C416,415.813,413.313,418.5,410,418.5z M311,406.5h93v-53h-93V406.5z
			 M201,406.5h98v-128h-98V406.5z M96,406.5h93v-88H96V406.5z"/>
	</g>
	<g>
		<path style="fill:#FFFFFF;" d="M255,373.5c-3.313,0-6-2.687-6-6v-35.515l-9.757,9.757c-2.343,2.344-6.143,2.344-8.485,0
			c-2.343-2.343-2.343-6.142,0-8.484l20-20c1.716-1.718,4.297-2.23,6.539-1.301s3.704,3.116,3.704,5.543v50
			C261,370.813,258.313,373.5,255,373.5z"/>
	</g>
</g>
</svg>
