<?xml version="1.0" encoding="utf-8"?>
<!-- Generator: Adobe Illustrator 27.5.0, SVG Export Plug-In . SVG Version: 6.00 Build 0)  -->
<svg version="1.1" id="Layer_1" xmlns="http://www.w3.org/2000/svg" xmlns:xlink="http://www.w3.org/1999/xlink" x="0px" y="0px"
	 viewBox="0 0 500 500" style="enable-background:new 0 0 500 500;" xml:space="preserve">
<style type="text/css">
	.st0{fill:#F9423A;}
	.st1{display:none;fill:none;stroke:#F9423A;stroke-width:12;stroke-linecap:round;stroke-linejoin:round;}
	.st2{fill:none;stroke:#F9423A;stroke-width:12;stroke-linecap:round;stroke-linejoin:round;}
</style>
<g>
	<g>
		<path class="st0" d="M249.8,402.7c-73.4,0-136.8-52.9-150.1-125l-16,21.6c-2,2.7-5.7,3.2-8.4,1.3c-2.7-2-3.2-5.7-1.3-8.4
			l24.3-32.9c0.9-1.7,2.7-2.9,4.8-3.1c1.9-0.2,3.6,0.6,4.8,1.8l32.8,24.3c2.7,2,3.2,5.7,1.3,8.4c-2,2.7-5.7,3.2-8.4,1.3l-22.1-16.4
			c13,70.3,77.5,120.8,150.2,114.7c64-5.4,116.3-53.3,127.1-116.5c0.6-3.3,3.7-5.5,6.9-4.9c3.3,0.6,5.5,3.7,4.9,6.9
			c-11.7,68.7-68.4,120.7-137.9,126.5C258.4,402.5,254.1,402.7,249.8,402.7z"/>
		<path class="st0" d="M396.3,243.8c-1.7,0-3.2-0.7-4.3-1.8l-32.9-24.2c-2.7-2-3.2-5.7-1.3-8.4c2-2.7,5.7-3.2,8.4-1.3l22.2,16.3
			c-5.8-32-22.4-60.7-47.6-82c-28.7-24.3-65.1-35.9-102.6-32.8c-64,5.4-116.3,53.3-127.1,116.5c-0.6,3.3-3.7,5.5-6.9,4.9
			c-3.3-0.6-5.5-3.7-4.9-6.9c11.7-68.6,68.4-120.7,137.9-126.5c40.7-3.4,80.2,9.2,111.4,35.5c27.3,23,45.2,54.2,51.6,88.9l16-21.6
			c2-2.7,5.7-3.2,8.4-1.3c2.7,2,3.2,5.7,1.3,8.4l-24.3,32.9c-0.9,1.7-2.7,2.9-4.8,3.1C396.6,243.8,396.5,243.8,396.3,243.8z"/>
		<path class="st0" d="M297.5,296c-3.3,0-6-2.7-6-6v-21.9h-33.6c-2.3,0-4.4-1.3-5.4-3.3s-0.8-4.5,0.6-6.3l39.6-52.1
			c1.6-2.1,4.3-2.9,6.7-2.1c2.4,0.8,4.1,3.1,4.1,5.7v46.1h5.4c3.3,0,6,2.7,6,6s-2.7,6-6,6h-5.4V290C303.5,293.3,300.8,296,297.5,296
			z M270,256.1h21.5v-28.3L270,256.1z M239,296h-47.9c-2.3,0-4.4-1.3-5.4-3.5c-1-2.1-0.7-4.6,0.8-6.4l39.6-47.7
			c1.8-2.4,2.8-5.3,2.8-8.4c0-7.7-6.2-13.9-13.9-13.9s-13.9,6.2-13.9,13.9c0,3.3-2.7,6-6,6s-6-2.7-6-6c0-14.3,11.6-25.9,25.9-25.9
			s25.9,11.6,25.9,25.9c0,5.8-1.8,11.2-5.3,15.8c0,0.1-0.1,0.1-0.1,0.2L204,284h35c3.3,0,6,2.7,6,6S242.3,296,239,296z"/>
	</g>
	<g>
		<g>
			<path class="st1" d="M0,500"/>
		</g>
		<g>
			<path class="st2" d="M0,500"/>
		</g>
		<g>
			<path class="st2" d="M0,500"/>
		</g>
		<g>
			<path class="st2" d="M0,500"/>
		</g>
		<g>
			<path class="st2" d="M0,500"/>
		</g>
		<g>
			<path class="st2" d="M0,500"/>
		</g>
		<g>
			<path class="st2" d="M0,500"/>
		</g>
		<g>
			<path class="st2" d="M0,500"/>
		</g>
		<g>
			<path class="st2" d="M0,500"/>
		</g>
		<g>
			<path class="st2" d="M0,500"/>
		</g>
		<g>
			<path class="st2" d="M0,500"/>
		</g>
		<g>
			<path class="st2" d="M0,500"/>
		</g>
	</g>
</g>
</svg>
