<?xml version="1.0" encoding="utf-8"?>
<!-- Generator: Adobe Illustrator 27.5.0, SVG Export Plug-In . SVG Version: 6.00 Build 0)  -->
<svg version="1.1" id="Layer_1" xmlns="http://www.w3.org/2000/svg" xmlns:xlink="http://www.w3.org/1999/xlink" x="0px" y="0px"
	 viewBox="0 0 500 500" style="enable-background:new 0 0 500 500;" xml:space="preserve">
<style type="text/css">
	.st0{clip-path:url(#SVGID_00000099640137583387543990000002987261609104736910_);}
	.st1{fill:#F9423A;}
</style>
<g>
	<g>
		<g>
			<defs>
				<rect id="SVGID_1_" width="500" height="500"/>
			</defs>
			<clipPath id="SVGID_00000011712302927704933820000000510693060915252404_">
				<use xlink:href="#SVGID_1_"  style="overflow:visible;"/>
			</clipPath>
			<g style="clip-path:url(#SVGID_00000011712302927704933820000000510693060915252404_);">
				<g>
					<path class="st1" d="M252,331c-29.2,0-53-23.8-53-53c0-27,43-95.2,47.9-102.9c1.1-1.7,3-2.8,5.1-2.8l0,0c2,0,4,1,5.1,2.8
						c4.9,7.7,47.9,76,47.9,102.9C305,307.2,281.2,331,252,331z M252,189.6c-14.9,24.3-41,70.7-41,88.4c0,22.6,18.4,41,41,41
						s41-18.4,41-41C293,260.4,266.9,214,252,189.6z M251.5,307.5c-3.3,0-6-2.7-6-6s2.7-6,6-6c9.8,0,17.8-8,17.8-17.8
						c0-3.3,2.7-6,6-6s6,2.7,6,6C281.3,294.1,267.9,307.5,251.5,307.5z"/>
				</g>
				<g>
					<path class="st1" d="M102.4,267.1c-1.2,0-2.4-0.4-3.4-1.1c-2.2-1.6-3.1-4.4-2.2-7l18-49.8c-2.8-1.4-6.6-3.2-10.4-5
						s-7.6-3.7-10.5-5.1c-1.4-0.7-2.6-1.3-3.5-1.7c-1.9-0.9-4.7-2.3-4.7-6c0-1.8,0.8-3.5,2.1-4.6l73.2-61.3c0.2-0.2,0.4-0.3,0.6-0.4
						c22.9-20.2,61.4-30.6,100.8-27.3c69.5,5.8,126.2,57.9,137.9,126.6c0.6,3.3-1.6,6.4-4.9,6.9c-3.3,0.6-6.4-1.6-6.9-4.9
						c-10.8-63.3-63.1-111.3-127.1-116.6c-36-3-70.9,6.2-91.5,24L153,181l25.5,12.3c1.8,0.9,3.1,2.6,3.4,4.6c0.3,2-0.5,4-2.1,5.3
						l-73.5,62.4C105.2,266.6,103.8,267.1,102.4,267.1z M102.7,190.2c6.4,3.1,15.3,7.4,22.1,10.6c2.8,1.3,4.1,4.6,3,7.5L115.6,242
						l49.2-41.8l-22.1-10.6c-2.8-1.3-4.1-4.6-3-7.4l11.9-33L102.7,190.2z"/>
				</g>
				<g>
					<path class="st1" d="M250.3,402.7c-4.3,0-8.7-0.2-13-0.5c-55.5-4.6-104.1-39.2-126.9-90.1c-1.4-3,0-6.6,3-7.9
						c3-1.4,6.6,0,7.9,3c21,47,65.8,78.8,116.9,83.1c26.2,2.2,52.1-2.8,75.3-14.6c-3.1-26.6,5.1-51.7,22.9-69.6
						c18.7-18.9,45.6-27.3,73.8-22.9c2.6,0.4,4.6,2.4,5,5c4.6,28-3.5,55-22.3,73.9c-18.2,18.4-44.3,26.8-71.7,23.2
						C299.4,396.7,275.1,402.7,250.3,402.7z M367.7,331.7c1.2,0,2.5,0.4,3.6,1.2c2.7,2,3.2,5.7,1.2,8.4
						c-9.3,12.5-20.4,23.4-32.9,32.4c17.3-1.3,33-8.3,44.9-20.3c15-15.2,22-36.5,19.5-59.1c-22.7-2.3-44,4.9-59,20.1
						c-14,14.1-21.1,33.7-19.9,54.7c14.7-9.3,27.4-21,37.8-35C364.1,332.5,365.9,331.7,367.7,331.7z"/>
				</g>
			</g>
		</g>
	</g>
</g>
</svg>
