<?xml version="1.0" encoding="iso-8859-1"?>
<!-- Generator: Adobe Illustrator 29.6.1, SVG Export Plug-In . SVG Version: 9.03 Build 0)  -->
<svg version="1.1" id="Layer_1" xmlns="http://www.w3.org/2000/svg" xmlns:xlink="http://www.w3.org/1999/xlink" x="0px" y="0px"
	 viewBox="0 0 500 500" style="enable-background:new 0 0 500 500;" xml:space="preserve">
<g>
	<path style="fill:#F9423A;" d="M118.338,380.902c-10.611,0.001-20.929-5.491-26.585-15.306L79.449,344.19
		c-8.449-14.669-3.423-33.459,11.207-41.889l37.395-21.597c1.377-0.798,3.016-1.013,4.553-0.601s2.848,1.418,3.644,2.796l37,64.1
		c1.656,2.87,0.673,6.539-2.195,8.195l-37.4,21.601C128.822,379.58,123.544,380.902,118.338,380.902z M128.855,294.097
		l-32.203,18.598c-4.314,2.486-7.395,6.507-8.678,11.324c-1.284,4.82-0.618,9.857,1.876,14.185c0.001,0.002,0.002,0.004,0.003,0.006
		l12.3,21.4c5.124,8.891,16.564,11.938,25.502,6.792l32.2-18.598L128.855,294.097z M236.757,302.101
		c-2.07,0-4.084-1.072-5.197-2.993c-1.662-2.866-0.684-6.538,2.183-8.199l10.7-6.2c4.322-2.49,7.402-6.511,8.686-11.328
		c1.284-4.82,0.618-9.857-1.876-14.185c-2.483-4.31-6.504-7.39-11.321-8.673c-4.818-1.285-9.857-0.618-14.185,1.875l-10.688,6.193
		c-2.868,1.662-6.538,0.685-8.2-2.184c-1.662-2.867-0.684-6.538,2.183-8.199l10.7-6.2c7.108-4.096,15.37-5.189,23.278-3.081
		c7.924,2.111,14.54,7.181,18.628,14.276c4.088,7.095,5.181,15.358,3.074,23.266c-2.11,7.924-7.181,14.54-14.277,18.629
		l-10.687,6.193C238.813,301.84,237.778,302.101,236.757,302.101z"/>
</g>
<g>
	<path style="fill:#F9423A;" d="M169.956,433.3c-1.893,0-3.745-0.896-4.907-2.542l-39.3-55.699
		c-1.911-2.707-1.264-6.451,1.443-8.361c2.708-1.911,6.453-1.264,8.361,1.443l36.148,51.231l3.96-2.275
		c4.604-2.667,7.773-6.99,8.905-12.163c1.131-5.168,0.06-10.415-3.018-14.774l-23.701-33.602c-1.91-2.707-1.263-6.451,1.444-8.361
		c1.111-0.784,2.403-1.134,3.66-1.094c0.85-1.472,2.316-2.575,4.119-2.905l81.83-14.968l-59.389-102.859l-53.888,63.415
		c-2.146,2.524-5.934,2.832-8.458,0.687c-2.525-2.146-2.833-5.933-0.687-8.458l59.4-69.9c1.264-1.486,3.172-2.263,5.114-2.09
		c1.943,0.176,3.679,1.286,4.655,2.976l67.9,117.601c0.976,1.689,1.068,3.748,0.25,5.519c-0.819,1.771-2.447,3.032-4.366,3.384
		l-87.624,16.028l19.546,27.711c4.97,7.04,6.769,15.883,4.935,24.259c-1.834,8.381-7.167,15.667-14.63,19.99l-8.718,5.011
		C172.002,433.042,170.973,433.3,169.956,433.3z"/>
</g>
<g>
	<path style="fill:#F9423A;" d="M338.652,228.7c-36.393,0-66-29.607-66-66s29.607-66,66-66s66,29.607,66,66
		S375.044,228.7,338.652,228.7z M338.652,108.7c-29.775,0-54,24.224-54,54s24.225,54,54,54s54-24.224,54-54
		S368.427,108.7,338.652,108.7z"/>
</g>
<g>
	<path style="fill:#F9423A;" d="M324.652,192.7c-1.002,0-2.006-0.251-2.913-0.755c-1.905-1.058-3.087-3.066-3.087-5.245v-50
		c0-2.183,1.186-4.194,3.096-5.25s4.243-0.992,6.094,0.168l40,25.1c1.752,1.099,2.814,3.024,2.811,5.093s-1.073,3.99-2.829,5.083
		l-40,24.9C326.854,192.396,325.753,192.7,324.652,192.7z M330.652,147.548v28.349l22.68-14.118L330.652,147.548z"/>
</g>
<g>
	<path style="fill:#F9423A;" d="M208.552,188.7h-79.8c-11.635,0-21.1-9.465-21.1-21.1V87.8c0-11.635,9.465-21.1,21.1-21.1h79.8
		c11.635,0,21.1,9.465,21.1,21.1v79.8C229.652,179.234,220.186,188.7,208.552,188.7z M128.752,78.7c-5.018,0-9.1,4.083-9.1,9.1v79.8
		c0,5.018,4.083,9.1,9.1,9.1h79.8c5.018,0,9.1-4.083,9.1-9.1V87.8c0-5.018-4.083-9.1-9.1-9.1
		C208.552,78.7,128.752,78.7,128.752,78.7z"/>
</g>
<g>
	<path style="fill:#F9423A;" d="M308.648,371.7c-1.334,0-2.676-0.442-3.79-1.352c-2.567-2.096-2.949-5.875-0.854-8.442l30.2-37
		c1.14-1.396,2.847-2.206,4.648-2.206c0.004,0,0.007,0,0.011,0c1.806,0.003,3.514,0.819,4.651,2.223l14.156,17.47l26.534-32.488
		c1.14-1.395,2.847-2.204,4.647-2.204c0.004,0,0.008,0,0.013,0c1.806,0.004,3.514,0.82,4.65,2.224l29.8,36.8
		c2.085,2.576,1.688,6.354-0.887,8.439c-2.577,2.085-6.355,1.688-8.439-0.887l-25.156-31.066l-26.533,32.486
		c-1.14,1.395-2.847,2.204-4.647,2.204c-0.004,0-0.008,0-0.012,0c-1.806-0.004-3.514-0.819-4.65-2.223l-14.154-17.468L313.3,369.494
		C312.114,370.947,310.388,371.7,308.648,371.7z M168.652,148.7h-25c-3.313,0-6-2.687-6-6s2.687-6,6-6h25c3.313,0,6,2.687,6,6
		S171.965,148.7,168.652,148.7z M193.652,118.7h-50c-3.313,0-6-2.687-6-6s2.687-6,6-6h50c3.313,0,6,2.687,6,6
		S196.965,118.7,193.652,118.7z"/>
</g>
<g>
	<path style="fill:#F9423A;" d="M403.552,393.7h-79.801c-11.635,0-21.1-9.465-21.1-21.1v-79.801c0-11.635,9.465-21.1,21.1-21.1
		h79.801c11.635,0,21.1,9.465,21.1,21.1V372.6C424.652,384.235,415.187,393.7,403.552,393.7z M323.751,283.7
		c-5.018,0-9.1,4.082-9.1,9.1v79.8c0,5.018,4.082,9.1,9.1,9.1h79.801c5.018,0,9.1-4.082,9.1-9.1v-79.801c0-5.018-4.082-9.1-9.1-9.1
		h-79.801V283.7z"/>
</g>
<g>
	<path style="fill:#F9423A;" d="M356.152,312.7c-0.49,0-0.98-0.05-1.46-0.15c-0.48-0.09-0.95-0.24-1.41-0.42
		c-0.45-0.189-0.89-0.42-1.29-0.689c-0.41-0.28-0.8-0.591-1.14-0.94c-1.4-1.39-2.2-3.33-2.2-5.3s0.8-3.91,2.2-5.3
		c0.34-0.351,0.729-0.66,1.14-0.931c0.4-0.279,0.84-0.51,1.29-0.7c0.46-0.18,0.93-0.329,1.41-0.42c2.439-0.5,5.029,0.311,6.76,2.051
		c1.4,1.399,2.2,3.33,2.2,5.3s-0.8,3.91-2.2,5.3C360.062,311.9,358.131,312.7,356.152,312.7z"/>
</g>
</svg>
