<?xml version="1.0" encoding="utf-8"?>
<!-- Generator: Adobe Illustrator 27.5.0, SVG Export Plug-In . SVG Version: 6.00 Build 0)  -->
<svg version="1.1" id="Layer_1" xmlns="http://www.w3.org/2000/svg" xmlns:xlink="http://www.w3.org/1999/xlink" x="0px" y="0px"
	 viewBox="0 0 500 500" style="enable-background:new 0 0 500 500;" xml:space="preserve">
<style type="text/css">
	.st0{fill:#F9423A;}
	.st1{fill:none;stroke:#F9423A;stroke-width:12;stroke-linecap:round;stroke-linejoin:round;}
</style>
<g>
	<g>
		<path class="st0" d="M347,317.7c-0.6,0-1.2-0.1-1.9-0.3l-24.7-8.1c-3.1-1-4.9-4.4-3.8-7.6c1-3.1,4.4-4.9,7.6-3.8l19,6.2l27.1-82.4
			l-21.5-7c-1.9-0.6-3.4-2.2-3.9-4.2c-5.5-20.7-18.4-38.6-36.3-50.4l-39.8-26.3c-2.2-1.5-5.1-0.9-6.6,1.1
			c-3.5,4.8-4.9,10.6-3.9,16.4c1,5.8,4.1,10.7,8.9,14.1l14.4,10c0.4,0.2,0.7,0.5,1,0.9c0.6,0.6,1.1,1.4,1.3,2.2
			c0.3,0.8,0.4,1.7,0.3,2.6c-0.1,0.7-0.3,1.4-0.6,2c-0.3,0.6-0.7,1.2-1.2,1.6c-0.7,0.6-1.4,1.1-2.3,1.4c-0.8,0.3-1.7,0.4-2.6,0.3
			c-0.4-0.1-0.9-0.2-1.3-0.3L245.5,176c-0.3-0.1-0.6-0.2-0.8-0.3l-35.8-11.8l-37.3-12.2c-2.2-0.7-4.5-0.5-6.5,0.5s-3.5,2.8-4.2,4.9
			c-0.7,2.2-0.7,4,0.1,5.5c1,1.9,3.3,3.6,6.5,4.6s4.9,4.4,3.8,7.6c-1,3.1-4.3,4.8-7.4,3.9c-1.3,0.7-2.9,1-4.4,0.6l-11.9-3.1
			c-0.1,0-0.3-0.1-0.4-0.1c-2.4-0.8-4.9-0.6-7.1,0.5c-2.2,1.1-3.9,3.1-4.7,5.5c-1.7,5.2,4,10.4,7.3,12.4c0.5,0.3,0.9,0.6,1.2,1
			c3.1-0.7,6.4-0.7,9.7,0.4c3.1,1,4.9,4.4,3.8,7.6c-1,3.1-4.4,4.9-7.6,3.8c-4.2-1.4-9.2,2.9-10.7,7.5c-1,3.1-4.4,4.9-7.6,3.8
			c-3.1-1-4.9-4.4-3.8-7.6c1.1-3.2,2.9-6.2,5.2-8.8c-6.7-5.4-12.2-14.1-8.9-23.9c3.5-10.5,14.3-16.5,24.8-14.2
			c-0.8-3.4-0.5-7,0.7-10.7c3.5-10.7,15.1-16.6,25.9-13l37.3,12.2l38,12.5c-2.1-3.5-3.6-7.5-4.3-11.7c-1.5-9,0.7-18.1,6.1-25.4
			c5.3-7.3,15.4-9.1,23-4l39.8,26.3c19.4,12.8,33.7,32,40.4,54.2l24.2,7.9c1.5,0.5,2.8,1.6,3.5,3s0.8,3.1,0.3,4.6l-30.9,93.8
			C351.9,316.1,349.5,317.7,347,317.7z"/>
	</g>
	<g>
		<path class="st0" d="M251.8,417c-1.9,0-3.7-0.9-4.9-2.5l-15.2-21.6c-7.6-2-31.2-10-47.3-32.9l-24.8-35.3c-0.1-0.1-0.2-0.3-0.4-0.5
			L120,268.5c-6.8-9.6-4.5-22.9,5.1-29.7c2.8-2,5.9-3.2,9-3.7l-3.4-4.9c-3.4-4.8-4.8-10.7-3.7-16.6c1-5.8,4.2-10.9,9.1-14.4
			c2.7-1.9,5.8-3.1,8.9-3.5c-3.2-8.8-0.3-19.1,7.7-24.8c8.9-6.3,21-4.8,28.2,3.2c1.6-3.1,3.9-6,7-8.1c9.3-6.5,22.1-4.3,28.6,4.9
			l24.9,35.4l20.7,29.5c0.4-4.1,1.6-8.2,3.6-12c4.2-8.1,11.3-14,20-16.7c8.7-2.6,17.8,2,20.8,10.5l16.2,44.8
			c7.9,21.8,7.9,45.7,0.1,67.6l14.7,20.8c0.9,1.3,1.3,2.9,1,4.5s-1.2,3-2.5,3.9l-80.7,56.9C254.2,416.6,253,417,251.8,417z
			 M160.2,304.7c0.1,0.2,0.3,0.3,0.4,0.5l33.6,47.8c16.2,23.1,42,28.6,42.3,28.7c1.5,0.3,2.8,1.2,3.7,2.4l13,18.5l70.9-50l-13-18.5
			c-1.2-1.7-1.4-3.8-0.7-5.7c7.9-20,8.2-42.1,0.9-62.2l-16.2-44.8c-0.9-2.5-3.5-3.8-6-3c-5.6,1.7-10.2,5.5-12.9,10.7
			c-2.7,5.2-3.1,11.1-1.3,16.7l5.3,15.8c1.4,2.6,0.7,6-1.8,7.8c-1,0.7-2.3,1.1-3.4,1.1c-2.3,0.1-4.5-1.3-5.5-3.4l-18.1-25.6
			c-0.1-0.2-0.2-0.4-0.4-0.6l-19.6-27.8l-24.9-35.4c-2.7-3.8-8-4.7-11.9-2c-4.6,3.3-5.7,9.6-2.4,14.2l22.9,32.5l29.3,41.7
			c0.7,1.1,1.1,2.3,1.1,3.5c0,1.9-0.9,3.8-2.5,5c-2.7,1.9-6.5,1.3-8.4-1.4l-27.2-38.6L172.6,183c-3-4.2-8.8-5.2-13-2.3
			c-4.2,3-5.3,8.9-2.3,13l62.1,88.3c1.9,2.7,1.3,6.5-1.5,8.4c-2.4,1.7-5.7,1.4-7.7-0.7c-0.3-0.3-0.5-0.5-0.7-0.9L154.8,211
			c-2.7-3.8-8-4.7-11.9-2c-2.2,1.6-3.7,3.9-4.2,6.6c-0.5,2.7,0.1,5.4,1.7,7.6l53.7,76.4l0,0l0,0l0,0l0,0l0,0l0,0l0,0l0,0l0,0l0,0
			l0,0l0,0l0,0l0,0l0,0l0,0l0,0l0,0l0,0l0,0l0,0l0,0l0,0l0,0l0,0l0,0l0,0l0,0l0,0l0,0l0,0l0,0l0,0l0,0l0,0l0,0l0,0l0,0l0,0l0,0l0,0
			l0,0l0,0l0,0l0,0l0,0l0,0l0,0l0,0l0,0l0,0l0,0l0,0l0,0l0,0l0,0l0,0l0,0l0,0l0,0l0,0l0,0l0,0l0,0l0,0l0,0l0,0l0,0l0,0l0,0l0,0l0,0
			l0,0l0,0l0,0l0,0l0,0l0,0l0,0l0,0l0,0l0,0l0,0l0,0l0,0l0,0l0,0l0,0l0,0l0,0l0,0l0,0l0,0l0,0l0,0l0,0l0,0l0,0l0,0l0,0l0,0l0,0l0,0
			l0,0l0,0l0,0l0,0l0,0l0,0l0,0l0,0l0,0l0,0l0,0l0,0l0,0l0,0l0,0l0,0l0,0l0,0l0,0l0,0l0,0l0,0l0,0l0,0l0,0l0,0
			c0.6,1.1,0.8,2.3,0.7,3.5l0,0l0,0l0,0l0,0l0,0l0,0l0,0l0,0l0,0l0,0l0,0l0,0l0,0l0,0l0,0l0,0l0,0l0,0l0,0l0,0l0,0l0,0l0,0l0,0l0,0
			l0,0l0,0l0,0l0,0l0,0l0,0l0,0l0,0l0,0l0,0l0,0l0,0l0,0l0,0l0,0l0,0l0,0l0,0l0,0l0,0l0,0l0,0l0,0l0,0l0,0l0,0l0,0l0,0l0,0l0,0l0,0
			l0,0l0,0l0,0l0,0l0,0l0,0l0,0l0,0l0,0l0,0l0,0l0,0l0,0l0,0c-0.2,1.4-1,2.7-2.1,3.7l0,0l0,0l0,0l0,0l0,0l0,0l0,0l0,0l0,0l0,0l0,0
			l0,0l0,0l0,0l0,0l0,0l0,0l0,0l0,0l0,0l0,0l0,0l0,0l0,0l0,0l0,0l0,0l0,0l0,0l0,0l0,0l0,0l0,0l0,0l0,0l0,0l0,0l0,0l0,0l0,0l0,0l0,0
			l0,0l0,0l0,0l0,0l0,0l0,0l0,0l0,0l0,0l0,0l0,0l0,0l0,0l0,0l0,0l0,0l0,0l0,0l0,0l0,0l0,0l0,0l0,0l0,0l0,0l0,0l0,0l0,0l0,0l0,0l0,0
			l0,0l0,0l0,0l0,0l0,0l0,0l0,0l0,0l0,0l0,0l0,0l0,0l0,0l0,0l0,0l0,0l0,0l0,0c-1.2,0.8-2.5,1.1-3.9,1l0,0l0,0l0,0l0,0l0,0l0,0l0,0
			l0,0c-1.6-0.2-3.1-1-4.1-2.3l0,0l0,0l0,0l0,0l0,0l0,0l0,0l0,0l0,0l0,0l0,0l0,0l0,0l0,0l0,0l0,0l0,0l0,0l0,0l0,0l0,0l0,0l0,0l0,0
			l0,0l0,0l0,0l0,0l0,0l0,0l0,0l0,0l0,0l0,0l0,0l0,0l0,0l0,0l0,0l0,0l0,0L153.8,263l-8.7-12.2c-1.4-2-3.6-3.4-6.1-3.8
			c-2.5-0.4-4.9,0.1-6.9,1.6c-4.2,3-5.3,8.9-2.3,13L160.2,304.7z"/>
	</g>
	<g>
		<path class="st0" d="M187.9,127.6c-1.6,0-3.3-0.7-4.4-2l-18.3-20.1c-2.2-2.5-2.1-6.2,0.4-8.5c2.5-2.2,6.2-2.1,8.5,0.4l18.3,20.1
			c2.2,2.5,2.1,6.2-0.4,8.5C190.8,127.1,189.3,127.6,187.9,127.6z M214.2,124.5c-0.4,0-0.8,0-1.2-0.1c-3.2-0.7-5.3-3.9-4.6-7.1
			l5.6-26.7c0.7-3.2,3.9-5.3,7.1-4.6c3.2,0.7,5.3,3.9,4.6,7.1l-5.6,26.7C219.5,122.6,217,124.5,214.2,124.5z"/>
	</g>
</g>
<g>
	<path class="st1" d="M0,500"/>
</g>
</svg>
