<?xml version="1.0" encoding="utf-8"?>
<!-- Generator: Adobe Illustrator 27.5.0, SVG Export Plug-In . SVG Version: 6.00 Build 0)  -->
<svg version="1.1" id="Layer_1" xmlns="http://www.w3.org/2000/svg" xmlns:xlink="http://www.w3.org/1999/xlink" x="0px" y="0px"
	 viewBox="0 0 500 500" style="enable-background:new 0 0 500 500;" xml:space="preserve">
<style type="text/css">
	.st0{fill:#F9423A;}
	.st1{display:none;fill:none;stroke:#F9423A;stroke-width:12;stroke-linecap:round;stroke-linejoin:round;}
	.st2{fill:none;stroke:#F9423A;stroke-width:12;stroke-linecap:round;stroke-linejoin:round;}
</style>
<g>
	<g>
		<g>
			<path class="st0" d="M250,436c-57,0-110.1-25.7-145.7-70.5c-2.1-2.6-1.6-6.4,1-8.4c2.6-2.1,6.4-1.6,8.4,1
				C147,400,196.7,424,250,424c24.7,0,48.5-5.1,70.8-15.1c3-1.4,6.6,0,7.9,3c1.4,3,0,6.6-3,7.9C301.9,430.6,276.4,436,250,436z"/>
		</g>
		<g>
			<path class="st0" d="M103.5,414.7c-3.3,0-6-2.7-6-6v-52.9c0-3.3,2.7-6,6-6h53c3.3,0,6,2.7,6,6s-2.7,6-6,6h-47v46.9
				C109.5,412,106.8,414.7,103.5,414.7z"/>
		</g>
		<g>
			<path class="st0" d="M391,144.2c-1.8,0-3.5-0.8-4.7-2.3C353,100,303.3,76,250,76c-24.7,0-48.5,5.1-70.8,15.1c-3,1.4-6.6,0-7.9-3
				s0-6.6,3-7.9C198.1,69.4,223.6,64,250,64c57,0,110.1,25.7,145.7,70.5c2.1,2.6,1.6,6.4-1,8.4C393.6,143.8,392.3,144.2,391,144.2z"
				/>
		</g>
		<g>
			<path class="st0" d="M396.5,150.2h-53c-3.3,0-6-2.7-6-6s2.7-6,6-6h47V91.4c0-3.3,2.7-6,6-6s6,2.7,6,6v52.8
				C402.5,147.5,399.8,150.2,396.5,150.2z"/>
		</g>
		<g>
			<path class="st0" d="M361.8,397c-1.8,0-3.5-0.8-4.7-2.3c-2.1-2.6-1.6-6.4,1-8.4C400,353,424,303.3,424,250
				c0-24.7-5.1-48.5-15.1-70.8c-1.4-3,0-6.6,3-7.9c3-1.4,6.6,0,7.9,3c10.7,23.9,16.1,49.4,16.1,75.8c0,57-25.7,110.1-70.5,145.7
				C364.4,396.6,363.1,397,361.8,397z"/>
		</g>
		<g>
			<path class="st0" d="M408.7,402.5h-52.9c-3.3,0-6-2.7-6-6v-53c0-3.3,2.7-6,6-6s6,2.7,6,6v47h46.9c3.3,0,6,2.7,6,6
				S412,402.5,408.7,402.5z"/>
		</g>
		<g>
			<path class="st0" d="M85.6,329.3c-2.3,0-4.5-1.3-5.5-3.5C69.4,301.9,64,276.4,64,250c0-57,25.7-110.1,70.5-145.7
				c2.6-2.1,6.4-1.6,8.4,1s1.6,6.4-1,8.4C100,147,76,196.7,76,250c0,24.7,5.1,48.5,15.1,70.8c1.4,3,0,6.6-3,7.9
				C87.3,329.1,86.4,329.3,85.6,329.3z"/>
		</g>
		<g>
			<path class="st0" d="M144.3,162.5c-3.3,0-6-2.7-6-6v-47H91.4c-3.3,0-6-2.7-6-6s2.7-6,6-6h52.9c3.3,0,6,2.7,6,6v53
				C150.3,159.8,147.6,162.5,144.3,162.5z"/>
		</g>
	</g>
	<g>
		<g>
			<g>
				<g>
					<path class="st1" d="M0,500"/>
				</g>
			</g>
		</g>
		<g>
			<g>
				<g>
					<path class="st2" d="M0,500"/>
				</g>
			</g>
		</g>
		<g>
			<g>
				<g>
					<path class="st2" d="M0,500"/>
				</g>
			</g>
		</g>
		<g>
			<g>
				<g>
					<path class="st2" d="M0,500"/>
				</g>
			</g>
		</g>
		<g>
			<g>
				<g>
					<path class="st2" d="M0,500"/>
				</g>
			</g>
		</g>
		<g>
			<g>
				<g>
					<path class="st2" d="M0,500"/>
				</g>
			</g>
		</g>
		<g>
			<g>
				<g>
					<path class="st2" d="M0,500"/>
				</g>
			</g>
		</g>
		<g>
			<g>
				<g>
					<path class="st2" d="M0,500"/>
				</g>
			</g>
		</g>
		<g>
			<g>
				<g>
					<path class="st2" d="M0,500"/>
				</g>
			</g>
		</g>
		<g>
			<g>
				<g>
					<path class="st2" d="M0,500"/>
				</g>
			</g>
		</g>
		<g>
			<g>
				<g>
					<path class="st2" d="M0,500"/>
				</g>
			</g>
		</g>
		<g>
			<g>
				<g>
					<path class="st2" d="M0,500"/>
				</g>
			</g>
		</g>
	</g>
</g>
</svg>
