<?xml version="1.0" encoding="utf-8"?>
<!-- Generator: Adobe Illustrator 27.5.0, SVG Export Plug-In . SVG Version: 6.00 Build 0)  -->
<svg version="1.1" id="Layer_1" xmlns="http://www.w3.org/2000/svg" xmlns:xlink="http://www.w3.org/1999/xlink" x="0px" y="0px"
	 viewBox="0 0 500 500" style="enable-background:new 0 0 500 500;" xml:space="preserve">
<style type="text/css">
	.st0{fill:#F9423A;}
</style>
<g>
	<g>
		<path class="st0" d="M377.8,382.7c-1.6,0-3.2-0.6-4.4-1.8L116.2,124.6c-2.5-2.5-2.5-6.4,0-8.9s6.4-2.5,8.9,0L382.3,372
			c2.5,2.5,2.5,6.4,0,8.9C381,382.1,379.4,382.7,377.8,382.7z"/>
	</g>
	<g>
		<path class="st0" d="M112.7,199.3c-3.5,0-6.3-2.8-6.3-6.3v-79.3c0-3.5,2.8-6.3,6.3-6.3h79.5c3.5,0,6.3,2.8,6.3,6.3
			s-2.8,6.3-6.3,6.3H119v73C119,196.5,116.2,199.3,112.7,199.3z"/>
	</g>
	<g>
		<path class="st0" d="M387.3,392.6h-79.5c-3.5,0-6.3-2.8-6.3-6.3s2.8-6.3,6.3-6.3H381v-73c0-3.5,2.8-6.3,6.3-6.3s6.3,2.8,6.3,6.3
			v79.3C393.6,389.8,390.8,392.6,387.3,392.6z"/>
	</g>
</g>
</svg>
