<?xml version="1.0" encoding="utf-8"?>
<!-- Generator: Adobe Illustrator 27.5.0, SVG Export Plug-In . SVG Version: 6.00 Build 0)  -->
<svg version="1.1" id="Layer_1" xmlns="http://www.w3.org/2000/svg" xmlns:xlink="http://www.w3.org/1999/xlink" x="0px" y="0px"
	 viewBox="0 0 500 500" style="enable-background:new 0 0 500 500;" xml:space="preserve">
<style type="text/css">
	.st0{clip-path:url(#SVGID_00000070821544624928983480000005507488955165790858_);}
	.st1{fill:#F9423A;}
</style>
<g>
	<g>
		<g>
			<defs>
				<rect id="SVGID_1_" width="500" height="500"/>
			</defs>
			<clipPath id="SVGID_00000034051400266927047000000016243400119327326372_">
				<use xlink:href="#SVGID_1_"  style="overflow:visible;"/>
			</clipPath>
			<g style="clip-path:url(#SVGID_00000034051400266927047000000016243400119327326372_);">
				<g>
					<path class="st1" d="M64,250c-3.3,0-6-2.7-6-6s2.7-6,6-6l364.3-0.6l0,0c3.3,0,6,2.7,6,6s-2.7,6-6,6L64,250L64,250z"/>
				</g>
				<g>
					<path class="st1" d="M384.9,305.7c-1.5,0-3.1-0.6-4.2-1.8c-2.3-2.3-2.3-6.1,0-8.5l52-52l-51.9-51.9c-2.3-2.3-2.3-6.1,0-8.5
						c2.3-2.3,6.1-2.3,8.5,0l56.1,56.1c2.3,2.3,2.3,6.1,0,8.5l-56.2,56.2C388,305.1,386.4,305.7,384.9,305.7z"/>
				</g>
			</g>
		</g>
	</g>
</g>
</svg>
