<?xml version="1.0" encoding="utf-8"?>
<!-- Generator: Adobe Illustrator 27.5.0, SVG Export Plug-In . SVG Version: 6.00 Build 0)  -->
<svg version="1.1" id="Layer_1" xmlns="http://www.w3.org/2000/svg" xmlns:xlink="http://www.w3.org/1999/xlink" x="0px" y="0px"
	 viewBox="0 0 500 500" style="enable-background:new 0 0 500 500;" xml:space="preserve">
<style type="text/css">
	.st0{fill:#F9423A;}
	.st1{display:none;fill:none;stroke:#F9423A;stroke-width:12;stroke-linecap:round;stroke-linejoin:round;}
	.st2{fill:none;stroke:#F9423A;stroke-width:12;stroke-linecap:round;stroke-linejoin:round;}
</style>
<g>
	<g>
		<path class="st0" d="M416,340.5h-51.3c-24.1-0.1-50-9.2-72.9-25.8c-22.9-16.6-40.1-38.6-48.7-62.1c-16-44.1-69.1-80-118.3-80H75.4
			c-3.3,0-6-2.7-6-6s2.7-6,6-6h49.5c26.1,0,54,9.1,78.4,25.7c24.4,16.6,42.6,38.7,51.2,62.3c16,44,65.4,80,110.3,80H416
			c3.3,0,6,2.7,6,6S419.3,340.5,416,340.5z"/>
	</g>
	<g>
		<path class="st0" d="M393.7,375.7c-1.5,0-3.1-0.6-4.2-1.8c-2.3-2.3-2.3-6.1,0-8.5l31.6-31.6l-31.7-31.7c-2.3-2.3-2.3-6.1,0-8.5
			c2.3-2.3,6.1-2.3,8.5,0l35.9,35.9c2.3,2.3,2.3,6.1,0,8.5l-35.8,35.8C396.8,375.1,395.2,375.7,393.7,375.7z"/>
	</g>
	<g>
		<path class="st0" d="M124.9,339.5H75.4c-3.3,0-6-2.7-6-6s2.7-6,6-6h49.5c34.7,0,73.2-18.4,98.1-46.9c2.2-2.5,6-2.7,8.5-0.6
			c2.5,2.2,2.7,6,0.6,8.5C205,319.5,162.9,339.5,124.9,339.5z M271.6,217.8c-1.4,0-2.8-0.5-4-1.5c-2.5-2.2-2.7-6-0.6-8.5
			c26.1-29.8,63.5-48.3,97.6-48.4H416c3.3,0,6,2.7,6,6s-2.7,6-6,6h-51.3c-30.8,0.1-64.8,17-88.6,44.3
			C274.9,217.1,273.2,217.8,271.6,217.8z"/>
	</g>
	<g>
		<path class="st0" d="M393.6,208c-1.5,0-3.1-0.6-4.2-1.8c-2.3-2.3-2.3-6.1,0-8.5l31.7-31.7l-31.6-31.6c-2.3-2.3-2.3-6.1,0-8.5
			c2.3-2.3,6.1-2.3,8.5,0l35.8,35.8c2.3,2.3,2.3,6.1,0,8.5l-35.9,35.9C396.7,207.4,395.1,208,393.6,208z"/>
	</g>
	<g>
		<g>
			<g>
				<path class="st1" d="M0,500"/>
			</g>
		</g>
		<g>
			<g>
				<path class="st2" d="M0,500"/>
			</g>
		</g>
		<g>
			<g>
				<path class="st2" d="M0,500"/>
			</g>
		</g>
		<g>
			<g>
				<path class="st2" d="M0,500"/>
			</g>
		</g>
		<g>
			<g>
				<path class="st2" d="M0,500"/>
			</g>
		</g>
		<g>
			<g>
				<path class="st2" d="M0,500"/>
			</g>
		</g>
		<g>
			<g>
				<path class="st2" d="M0,500"/>
			</g>
		</g>
		<g>
			<g>
				<path class="st2" d="M0,500"/>
			</g>
		</g>
		<g>
			<g>
				<path class="st2" d="M0,500"/>
			</g>
		</g>
		<g>
			<g>
				<path class="st2" d="M0,500"/>
			</g>
		</g>
		<g>
			<g>
				<path class="st2" d="M0,500"/>
			</g>
		</g>
		<g>
			<g>
				<path class="st2" d="M0,500"/>
			</g>
		</g>
	</g>
</g>
</svg>
