<?xml version="1.0" encoding="utf-8"?>
<!-- Generator: Adobe Illustrator 27.5.0, SVG Export Plug-In . SVG Version: 6.00 Build 0)  -->
<svg version="1.1" id="Layer_1" xmlns="http://www.w3.org/2000/svg" xmlns:xlink="http://www.w3.org/1999/xlink" x="0px" y="0px"
	 viewBox="0 0 500 500" style="enable-background:new 0 0 500 500;" xml:space="preserve">
<style type="text/css">
	.st0{fill:#F9423A;}
	.st1{display:none;fill:none;stroke:#F84239;stroke-width:12;stroke-linecap:round;stroke-linejoin:round;}
	.st2{fill:none;stroke:#F9423A;stroke-width:12;stroke-linecap:round;stroke-linejoin:round;}
</style>
<g>
	<g>
		<path class="st0" d="M79,258.4c-3.3,0-6-2.7-6-6s2.7-6,6-6l351.8-0.4l0,0c3.3,0,6,2.7,6,6s-2.7,6-6,6L79,258.4L79,258.4z"/>
	</g>
	<g>
		<path class="st0" d="M123.6,314.9c-1.5,0-3.1-0.6-4.2-1.8L63.3,257c-2.3-2.3-2.3-6.1,0-8.5l56.2-56.2c2.3-2.3,6.1-2.3,8.5,0
			c2.4,2.3,2.3,6.1,0,8.5l-52,52l51.9,51.9c2.3,2.3,2.3,6.1,0,8.5C126.7,314.3,125.1,314.9,123.6,314.9z"/>
	</g>
	<g>
		<path class="st0" d="M376.3,313.9c-1.5,0-3.1-0.6-4.2-1.8c-2.3-2.3-2.3-6.1,0-8.5l52-52l-51.9-51.9c-2.3-2.3-2.3-6.1,0-8.5
			c2.3-2.3,6.1-2.3,8.5,0l56.1,56.1c2.3,2.3,2.3,6.1,0,8.5L380.6,312C379.4,313.3,377.8,313.9,376.3,313.9z"/>
	</g>
	<g>
		<g>
			<g>
				<path class="st1" d="M0,500"/>
			</g>
		</g>
		<g>
			<g>
				<path class="st2" d="M0,500"/>
			</g>
		</g>
		<g>
			<g>
				<path class="st2" d="M0,500"/>
			</g>
		</g>
		<g>
			<g>
				<path class="st2" d="M0,500"/>
			</g>
		</g>
		<g>
			<g>
				<path class="st2" d="M0,500"/>
			</g>
		</g>
		<g>
			<g>
				<path class="st2" d="M0,500"/>
			</g>
		</g>
		<g>
			<g>
				<path class="st2" d="M0,500"/>
			</g>
		</g>
		<g>
			<g>
				<path class="st2" d="M0,500"/>
			</g>
		</g>
		<g>
			<g>
				<path class="st2" d="M0,500"/>
			</g>
		</g>
		<g>
			<g>
				<path class="st2" d="M0,500"/>
			</g>
		</g>
		<g>
			<g>
				<path class="st2" d="M0,500"/>
			</g>
		</g>
		<g>
			<g>
				<path class="st2" d="M0,500"/>
			</g>
		</g>
	</g>
</g>
</svg>
