<?xml version="1.0" encoding="utf-8"?>
<!-- Generator: Adobe Illustrator 27.5.0, SVG Export Plug-In . SVG Version: 6.00 Build 0)  -->
<svg version="1.1" id="Layer_1" xmlns="http://www.w3.org/2000/svg" xmlns:xlink="http://www.w3.org/1999/xlink" x="0px" y="0px"
	 viewBox="0 0 500 500" style="enable-background:new 0 0 500 500;" xml:space="preserve">
<style type="text/css">
	.st0{display:none;fill:none;}
	.st1{fill:none;}
	.st2{fill:none;stroke:#F84239;stroke-width:12;stroke-linecap:round;stroke-linejoin:round;}
	.st3{fill:#F84239;}
</style>
<g>
	<g>
		<path class="st0" d="M0,370"/>
		<g>
			<g>
				<path class="st0" d="M0,370"/>
			</g>
		</g>
	</g>
	<g>
		<g>
			<path class="st1" d="M0,370"/>
		</g>
	</g>
	<g>
		<g>
			<path class="st1" d="M0,370"/>
		</g>
	</g>
</g>
<g>
	<g>
		<path class="st2" d="M0,500"/>
	</g>
</g>
<g>
	<g>
		<g>
			<path class="st3" d="M170.2,191.4c-0.9,0-1.8-0.2-2.7-0.6l-41.9-21.1c-3-1.5-4.2-5.1-2.7-8.1s5.1-4.2,8.1-2.7l41.9,21.1
				c3,1.5,4.2,5.1,2.7,8.1C174.5,190.2,172.4,191.4,170.2,191.4z"/>
		</g>
		<g>
			<path class="st3" d="M188.2,219.2c-14,0-25.4-11.4-25.4-25.4s11.4-25.4,25.4-25.4s25.4,11.4,25.4,25.4
				C213.6,207.8,202.2,219.2,188.2,219.2z M188.2,180.4c-7.4,0-13.4,6-13.4,13.4s6,13.4,13.4,13.4s13.4-6,13.4-13.4
				C201.6,186.4,195.6,180.4,188.2,180.4z"/>
		</g>
		<g>
			<path class="st3" d="M128.3,340.9c-2.2,0-4.3-1.2-5.4-3.3c-1.5-3-0.3-6.6,2.7-8.1l41.9-21.1c3-1.5,6.6-0.3,8.1,2.7
				s0.3,6.6-2.7,8.1L131,340.3C130.1,340.7,129.2,340.9,128.3,340.9z"/>
		</g>
		<g>
			<path class="st3" d="M188.2,330.8c-3.2,0-6.5-0.6-9.7-1.9c-6.3-2.6-11.1-7.5-13.7-13.7c-2.6-6.3-2.6-13.2,0-19.4
				c2.6-6.3,7.5-11.1,13.7-13.7c6.3-2.6,13.2-2.6,19.4,0c12.9,5.4,19.1,20.2,13.7,33.2C207.7,324.9,198.2,330.8,188.2,330.8z
				 M188.3,292c-1.7,0-3.5,0.3-5.1,1c-3.3,1.4-5.9,3.9-7.3,7.3l0,0c-1.4,3.3-1.4,6.9,0,10.3c1.4,3.3,3.9,5.9,7.3,7.3
				c6.8,2.8,14.7-0.4,17.5-7.3c2.8-6.8-0.4-14.7-7.3-17.5C191.7,292.3,190,292,188.3,292z M170.4,298L170.4,298L170.4,298z"/>
		</g>
		<g>
			<path class="st3" d="M144.1,275.9c-10.9,0-21-7.1-24.3-18c-4.1-13.4,3.5-27.6,16.9-31.7l0,0c6.5-2,13.4-1.3,19.3,1.9
				c6,3.2,10.4,8.5,12.3,15c4.1,13.4-3.5,27.6-16.9,31.7C149,275.5,146.5,275.9,144.1,275.9z M144.1,237.1c-1.3,0-2.6,0.2-3.9,0.6
				l0,0c-7.1,2.1-11.1,9.6-8.9,16.7c2.1,7.1,9.6,11.1,16.7,8.9c7.1-2.1,11.1-9.6,8.9-16.7c-1-3.4-3.3-6.2-6.5-7.9
				C148.5,237.6,146.3,237.1,144.1,237.1z M138.5,231.9L138.5,231.9L138.5,231.9z"/>
		</g>
		<g>
			<path class="st3" d="M124.7,255.8h-51c-3.3,0-6-2.7-6-6s2.7-6,6-6h51c3.3,0,6,2.7,6,6S128,255.8,124.7,255.8z"/>
		</g>
		<g>
			<path class="st3" d="M329.8,191.4c-2.2,0-4.3-1.2-5.4-3.3c-1.5-3-0.3-6.6,2.7-8.1l41.9-21.1c3-1.5,6.6-0.3,8.1,2.7
				s0.3,6.6-2.7,8.1l-41.9,21.1C331.6,191.2,330.7,191.4,329.8,191.4z"/>
		</g>
		<g>
			<path class="st3" d="M311.8,219.2c-14,0-25.4-11.4-25.4-25.4s11.4-25.4,25.4-25.4s25.4,11.4,25.4,25.4
				C337.2,207.8,325.8,219.2,311.8,219.2z M311.8,180.4c-7.4,0-13.4,6-13.4,13.4s6,13.4,13.4,13.4s13.4-6,13.4-13.4
				C325.2,186.4,319.2,180.4,311.8,180.4z"/>
		</g>
		<g>
			<path class="st3" d="M371.7,340.9c-0.9,0-1.8-0.2-2.7-0.6l-41.9-21.1c-3-1.5-4.2-5.1-2.7-8.1s5.1-4.2,8.1-2.7l41.9,21.1
				c3,1.5,4.2,5.1,2.7,8.1C376,339.7,373.9,340.9,371.7,340.9z"/>
		</g>
		<g>
			<path class="st3" d="M311.8,330.8c-6.8,0-13.2-2.6-18-7.4s-7.4-11.2-7.4-18s2.6-13.2,7.4-18s11.2-7.4,18-7.4s13.2,2.6,18,7.4
				s7.4,11.2,7.4,18s-2.6,13.2-7.4,18C325,328.1,318.6,330.8,311.8,330.8z M311.8,292c-3.4,0-6.9,1.3-9.5,3.9
				c-5.2,5.2-5.2,13.7,0,19s13.7,5.2,19,0s5.2-13.7,0-19C318.7,293.3,315.2,292,311.8,292z"/>
		</g>
		<g>
			<path class="st3" d="M356,275.9c-1.4,0-2.7-0.1-4.1-0.3c-6.7-1.1-12.6-4.7-16.5-10.2c-4-5.5-5.6-12.2-4.5-18.9
				s4.7-12.6,10.2-16.5c5.5-4,12.2-5.6,18.9-4.5c6.7,1.1,12.6,4.7,16.5,10.2c4,5.5,5.6,12.2,4.5,18.9s-4.7,12.6-10.2,16.5
				C366.4,274.3,361.3,275.9,356,275.9z M355.9,237.1c-2.8,0-5.5,0.9-7.8,2.5c-2.9,2.1-4.8,5.2-5.4,8.7l0,0
				c-1.2,7.3,3.8,14.2,11.1,15.4c3.5,0.6,7.1-0.3,10-2.4s4.8-5.2,5.4-8.7c0.6-3.5-0.3-7.1-2.4-10s-5.2-4.8-8.7-5.4
				C357.4,237.2,356.6,237.1,355.9,237.1z M336.8,247.4L336.8,247.4L336.8,247.4z"/>
		</g>
		<g>
			<path class="st3" d="M426.3,255.8h-51c-3.3,0-6-2.7-6-6s2.7-6,6-6h51c3.3,0,6,2.7,6,6S429.6,255.8,426.3,255.8z"/>
		</g>
		<g>
			<path class="st3" d="M209.4,427c-1.1,0-2.2-0.3-3.2-0.9l-81.1-50.7c-1.8-1.1-2.8-3-2.8-5.1V339l-51.8-31.9
				c-1.8-1.1-2.8-3-2.8-5.1V198c0-2.1,1.1-4,2.8-5.1l51.8-31.9v-31.3c0-2.1,1.1-4,2.8-5.1l81.1-50.7c1.7-1.1,3.8-1.2,5.6-0.4
				l40.6,17.9c2.2,1,3.6,3.1,3.6,5.5v306.2c0,2.4-1.4,4.5-3.6,5.5l-40.6,17.9C211,426.8,210.2,427,209.4,427z M134.3,367l75.6,47.3
				l34.1-15V100.8l-34.1-15L134.3,133v31.3c0,2.1-1.1,4-2.8,5.1l-51.8,31.9v97.3l51.8,31.9c1.8,1.1,2.8,3,2.8,5.1V367z"/>
		</g>
		<g>
			<path class="st3" d="M290.6,427c-0.8,0-1.6-0.2-2.4-0.5l-40.6-17.9c-2.2-1-3.6-3.1-3.6-5.5V96.9c0-2.4,1.4-4.5,3.6-5.5l40.6-17.9
				c1.8-0.8,3.9-0.7,5.6,0.4l81.1,50.7c1.8,1.1,2.8,3,2.8,5.1V161l51.8,31.9c1.8,1.1,2.8,3,2.8,5.1v104c0,2.1-1.1,4-2.8,5.1
				L377.7,339v31.3c0,2.1-1.1,4-2.8,5.1l-81.1,50.7C292.8,426.7,291.7,427,290.6,427z M256,399.2l34.1,15l75.6-47.3v-31.3
				c0-2.1,1.1-4,2.8-5.1l51.8-31.9v-97.3l-51.8-31.9c-1.8-1.1-2.8-3-2.8-5.1V133l-75.6-47.3l-34.1,15V399.2z M426.3,302L426.3,302
				L426.3,302z"/>
		</g>
	</g>
</g>
</svg>
