<?xml version="1.0" encoding="iso-8859-1"?>
<!-- Generator: Adobe Illustrator 29.6.1, SVG Export Plug-In . SVG Version: 9.03 Build 0)  -->
<svg version="1.1" id="Layer_1" xmlns="http://www.w3.org/2000/svg" xmlns:xlink="http://www.w3.org/1999/xlink" x="0px" y="0px"
	 viewBox="0 0 500 500" style="enable-background:new 0 0 500 500;" xml:space="preserve">
<g>
	<g>
		<path style="fill:#F9423A;" d="M325,278.5c-3.313,0-6-2.687-6-6v-40c0-3.313,2.687-6,6-6s6,2.687,6,6v40
			C331,275.813,328.313,278.5,325,278.5z M285,278.5c-3.313,0-6-2.687-6-6v-20c0-3.313,2.687-6,6-6s6,2.687,6,6v20
			C291,275.813,288.313,278.5,285,278.5z M215,278.5c-3.313,0-6-2.687-6-6v-20c0-3.313,2.687-6,6-6s6,2.687,6,6v20
			C221,275.813,218.313,278.5,215,278.5z M175,278.5c-3.313,0-6-2.687-6-6v-40c0-3.313,2.687-6,6-6s6,2.687,6,6v40
			C181,275.813,178.313,278.5,175,278.5z M340,128.5c-19.851,0-36-16.149-36-36s16.149-36,36-36s36,16.149,36,36
			S359.851,128.5,340,128.5z M340,68.5c-13.233,0-24,10.767-24,24s10.767,24,24,24s24-10.767,24-24S353.233,68.5,340,68.5z"/>
	</g>
	<g>
		<path style="fill:#F9423A;" d="M400,213.5H280c-3.313,0-6-2.687-6-6v-15c0-28.122,22.879-51,51-51h30c28.121,0,51,22.878,51,51v15
			C406,210.813,403.313,213.5,400,213.5z M286,201.5h108v-9c0-21.505-17.495-39-39-39h-30c-21.505,0-39,17.495-39,39V201.5z"/>
	</g>
	<g>
		<path style="fill:#F9423A;" d="M160,128.5c-19.851,0-36-16.149-36-36s16.149-36,36-36s36,16.149,36,36S179.851,128.5,160,128.5z
			 M160,68.5c-13.234,0-24,10.766-24,24s10.766,24,24,24s24-10.766,24-24S173.234,68.5,160,68.5z"/>
	</g>
	<g>
		<path style="fill:#F9423A;" d="M220,213.5H100c-3.313,0-6-2.687-6-6v-15c0-28.122,22.878-51,51-51h30c28.122,0,51,22.878,51,51v15
			C226,210.813,223.313,213.5,220,213.5z M106,201.5h108v-9c0-21.505-17.495-39-39-39h-30c-21.505,0-39,17.495-39,39V201.5z"/>
	</g>
	<g>
		<path style="fill:#F9423A;" d="M325,343.5h-40c-3.313,0-6-2.687-6-6s2.687-6,6-6h40c3.313,0,6,2.687,6,6S328.313,343.5,325,343.5z
			 M215,343.5h-40c-3.313,0-6-2.687-6-6s2.687-6,6-6h40c3.313,0,6,2.687,6,6S218.313,343.5,215,343.5z"/>
	</g>
	<g>
		<path style="fill:#F9423A;" d="M250,443.5c-44.664,0-81-36.337-81-81v-60c0-3.313,2.687-6,6-6h40c3.313,0,6,2.687,6,6v60
			c0,15.99,13.009,29,29,29c15.99,0,29-13.01,29-29v-60c0-3.313,2.687-6,6-6h40c3.313,0,6,2.687,6,6v60
			C331,407.163,294.663,443.5,250,443.5z M181,308.5v54c0,38.047,30.953,69,69,69s69-30.953,69-69v-54h-28v54
			c0,22.607-18.393,41-41,41s-41-18.393-41-41v-54H181z"/>
	</g>
</g>
</svg>
