<?xml version="1.0" encoding="utf-8"?>
<!-- Generator: Adobe Illustrator 27.5.0, SVG Export Plug-In . SVG Version: 6.00 Build 0)  -->
<svg version="1.1" id="Layer_1" xmlns="http://www.w3.org/2000/svg" xmlns:xlink="http://www.w3.org/1999/xlink" x="0px" y="0px"
	 viewBox="0 0 500 500" style="enable-background:new 0 0 500 500;" xml:space="preserve">
<style type="text/css">
	.st0{fill:#F9423A;}
</style>
<g>
	<g>
		<path class="st0" d="M250.1,430.3c-99.4,0-180.3-80.9-180.3-180.3c0-48.2,18.7-93.5,52.8-127.5c34-34,79.3-52.8,127.5-52.8
			c48.2,0,93.4,18.7,127.4,52.8c34,34.1,52.7,79.4,52.7,127.5C430.2,349.4,349.4,430.3,250.1,430.3z M250.1,81.7
			c-45,0-87.3,17.5-119,49.2c-31.8,31.8-49.2,74-49.2,119c0,92.8,75.5,168.3,168.3,168.3c92.7,0,168.1-75.5,168.1-168.3
			c0-45-17.5-87.3-49.2-119.1C337.3,99.2,295,81.7,250.1,81.7z"/>
	</g>
	<g>
		<path class="st0" d="M375.2,375.9c-0.1,0-0.1,0-0.2,0c-3.3-0.1-5.9-2.9-5.8-6.2l0.4-10.8c-0.1-37.6-33.2-68.1-74-68.1h-91.5
			c-40.8,0-74,30.6-74,68.2c0,0.1,0,0.1,0,0.2l-0.3,9.3c-0.1,3.3-2.8,5.9-6.2,5.8c-3.3-0.1-5.9-2.9-5.8-6.2l0.3-9.2
			c0.1-44.2,38.6-80.1,86-80.1h91.5c47.4,0,86,36,86,80.2c0,0.1,0,0.1,0,0.2l-0.4,10.9C381.1,373.4,378.4,375.9,375.2,375.9z"/>
	</g>
	<g>
		<path class="st0" d="M249.8,259.4c-35.2,0-63.8-28.7-63.8-63.9s28.7-63.9,63.9-63.9c18.8-0.2,36.6,8.1,48.9,22.7
			c9.6,11.4,14.9,26,14.9,41.2C313.7,230.7,285,259.4,249.8,259.4z M250.5,143.6c-0.2,0-0.4,0-0.6,0c-28.7,0-52,23.3-52,51.9
			s23.2,51.9,51.8,51.9s51.9-23.3,51.9-51.9c0-12.3-4.3-24.2-12.1-33.4l0,0C279.8,150.3,265.6,143.6,250.5,143.6z"/>
	</g>
</g>
</svg>
