<?xml version="1.0" encoding="utf-8"?>
<!-- Generator: Adobe Illustrator 27.5.0, SVG Export Plug-In . SVG Version: 6.00 Build 0)  -->
<svg version="1.1" id="Layer_1" xmlns="http://www.w3.org/2000/svg" xmlns:xlink="http://www.w3.org/1999/xlink" x="0px" y="0px"
	 viewBox="0 0 500 500" style="enable-background:new 0 0 500 500;" xml:space="preserve">
<style type="text/css">
	.st0{fill:#F9423A;}
	.st1{fill:none;stroke:#F84239;stroke-width:12;stroke-linecap:round;stroke-linejoin:round;}
</style>
<g>
	<g>
		<g>
			<g>
				<path class="st0" d="M250.2,274h-1.5c-37.1,0-67.2-30.1-67.2-67.2v-30c0-3.3,2.7-6,6-6s6,2.7,6,6v30c0,30.4,24.8,55.2,55.2,55.2
					h1.5c30.4,0,55.2-24.8,55.2-55.2v-33.6c0-3.3,2.7-6,6-6s6,2.7,6,6v33.6C317.4,243.9,287.3,274,250.2,274z"/>
			</g>
			<g>
				<path class="st0" d="M183.6,183.6c-2.5,0-4.8-1.6-5.7-4.1c-0.3-0.8-6.9-20.4-9.4-42.7c-3.6-31.7,2.7-52.4,18.7-61.6
					c5.7-3.2,14.1-3,19.6,0.6c4,2.5,7.8,6.1,10.9,8.9c1.1,1.1,2.2,2.1,3.1,2.8c0,0,0.1,0,0.1,0.1c1.2,1.1,2.8,1.6,4.4,1.5h0.1
					c2.1-0.1,7.7-0.7,13.9-4c0.2-0.1,0.4-0.2,0.6-0.3c26.6-10.6,50.2-10.1,66.5,1.2c11.7,8.1,18.2,21.2,17.9,35.9
					c-0.1,6,0,11.6,0,17.1c0.3,20.9,0.5,36-9.7,42.4c-1.9,1.2-4.3,1.2-6.3,0.1c-1.9-1.2-3.1-3.3-2.9-5.5c0.1-1.4,1.5-32.3-29-51.8
					c-6.9,14.3-29,46.3-91.6,59.3C184.4,183.6,184,183.6,183.6,183.6z M196.4,84.9c-1.2,0-2.4,0.2-3.2,0.7
					c-21.9,12.5-12.5,61.5-5.5,84.9c34.7-8.2,54.4-22.6,64.9-33.6c11.9-12.3,15-23,15-23.1c0.5-1.7,1.7-3.2,3.4-3.9
					c1.7-0.7,3.6-0.7,5.2,0.2c20.7,10.8,31.1,26,36.2,39.1c0-3.3,0-6.7-0.1-10.2c-0.1-5.6-0.1-11.4,0-17.5
					c0.2-10.8-4.3-19.9-12.7-25.8c-12.8-8.9-32.4-8.9-55,0c-5.8,3-12.6,4.9-18.7,5.2c-4.7,0.3-9.3-1.3-12.9-4.4
					c-1.1-0.9-2.2-2-3.5-3.1c-2.7-2.5-6-5.6-9.1-7.5C199.4,85.3,197.9,84.9,196.4,84.9z"/>
			</g>
		</g>
		<g>
			<g>
				<path class="st0" d="M302.9,386.1h-4.2c-12.2,0-22.2-10-22.2-22.2v-2.2c0-0.4,0-0.8,0.1-1.2c0.1-4.3,0.3-8.3,0.7-11.4
					c0.4-3.4,1.3-10.6,7.6-10.6h0.2c1.8,0,3.5,0.6,6.4,3.1c6.1-3.8,12.6-3.8,18.7,0c3-2.6,4.6-3.1,6.4-3.1h0.2
					c6.3,0,7.2,7.2,7.6,10.6c0.4,3.3,0.7,7.7,0.7,12.3c0,0.1,0,0.2,0,0.3v2.2C325.1,376.1,315.1,386.1,302.9,386.1z M288.5,363.9
					L288.5,363.9c0,5.6,4.6,10.2,10.2,10.2h4.2c5.6,0,10.2-4.6,10.2-10.2v-1.1c0-3-0.1-5.5-0.2-7.7c-0.7,0.3-1.4,0.4-2.2,0.5
					c0,0,0,0-0.1,0c-1.6,0-3.1-0.6-4.2-1.7c-4.1-4.1-6.9-4.1-11.1,0c-1.1,1.1-2.7,1.8-4.3,1.7c-0.8,0-1.5-0.2-2.2-0.5
					c-0.1,2.1-0.2,4.7-0.2,7.7C288.6,363.2,288.6,363.5,288.5,363.9z M319.1,349.9L319.1,349.9L319.1,349.9z M250,315.8h-2.5
					c-20.7,0-37.6-16.9-37.6-37.6v-19.7c0-3.3,2.7-6,6-6s6,2.7,6,6v19.7c0,14.1,11.5,25.6,25.6,25.6h2.5c14.1,0,25.6-11.5,25.6-25.6
					v-18.9c0-3.3,2.7-6,6-6s6,2.7,6,6v18.9C287.6,298.9,270.7,315.8,250,315.8z"/>
			</g>
			<g>
				<path class="st0" d="M266.9,427h-33.8c-17.4,0-26.1-3.8-35.3-7.8c-8.4-3.7-17.2-7.5-35.2-9h-19.2c-11.7,0-21.3-9.6-21.3-21.3
					v-31.5c0-46.6,37.9-84.6,84.5-84.7l8.8-0.5c3.3-0.2,6.1,2.3,6.3,5.7c0.2,3.3-2.3,6.1-5.7,6.3l-9,0.5c-0.1,0-0.2,0-0.3,0
					c-40.1,0-72.7,32.6-72.7,72.7v31.5c0,5.1,4.2,9.3,9.3,9.3h19.4c0.2,0,0.3,0,0.5,0c20.2,1.6,30.3,6,39.3,10
					c8.7,3.8,15.5,6.8,30.4,6.8h33.8c14.9,0,21.8-3,30.4-6.8c9-3.9,19.1-8.4,39.3-10c0.2,0,0.3,0,0.5,0h19.4c5.1,0,9.3-4.2,9.3-9.3
					v-31.5c0-40.1-32.6-72.7-72.7-72.7c-0.1,0-0.2,0-0.3,0l-9-0.5c-3.3-0.2-5.8-3-5.7-6.3c0.2-3.3,3-5.8,6.3-5.7l8.8,0.5
					c46.6,0.1,84.5,38.1,84.5,84.7v31.5c0,11.7-9.6,21.3-21.3,21.3H337c-18,1.4-26.7,5.3-35.2,9C293,423.2,284.3,427,266.9,427z"/>
			</g>
		</g>
	</g>
	<path class="st1" d="M0,500"/>
</g>
</svg>
