<?xml version="1.0" encoding="utf-8"?>
<!-- Generator: Adobe Illustrator 27.5.0, SVG Export Plug-In . SVG Version: 6.00 Build 0)  -->
<svg version="1.1" id="Layer_1" xmlns="http://www.w3.org/2000/svg" xmlns:xlink="http://www.w3.org/1999/xlink" x="0px" y="0px"
	 viewBox="0 0 500 500" style="enable-background:new 0 0 500 500;" xml:space="preserve">
<style type="text/css">
	.st0{fill:#F9423A;}
	.st1{fill:none;stroke:#F9423A;stroke-width:11.396;stroke-linecap:round;stroke-linejoin:round;}
</style>
<g>
	<g>
		<g>
			<path class="st0" d="M160.1,289c-3.2,0-5.8-2.5-6-5.7c-0.1-2.2-0.2-4.5-0.3-7.1c-2.2-43.5-6.7-134.1,34.9-177.9
				c15.2-16,35.1-24.1,59.2-24.1h1c25.2,0,46,8.7,61.6,25.9c29.2,32.1,40.4,94.3,32.3,179.9c-0.3,3.3-3.2,5.7-6.5,5.4
				c-3.3-0.3-5.7-3.2-5.4-6.5c7.8-82.1-2.4-141.1-29.3-170.7c-13.3-14.6-31.1-22-52.8-22h-1c-21,0-37.5,6.7-50.5,20.3
				c-38.1,40-33.6,130.4-31.6,169c0.1,2.6,0.2,5,0.3,7.2c0.1,3.3-2.4,6.1-5.7,6.3C160.3,289,160.2,289,160.1,289z"/>
		</g>
		<g>
			<g>
				<path class="st0" d="M249.1,264.7h-1.5c-37.4,0-67.8-30.4-67.8-67.8v-30.3c0-3.3,2.7-6,6-6s6,2.7,6,6v30.3
					c0,30.8,25,55.8,55.8,55.8h1.5c30.8,0,55.8-25,55.8-55.8V163c0-3.3,2.7-6,6-6s6,2.7,6,6v33.9
					C316.9,234.3,286.5,264.7,249.1,264.7z"/>
			</g>
			<g>
				<path class="st0" d="M181.8,173.4c-1.2,0-2.5-0.4-3.5-1.1c-1.4-1-2.3-2.6-2.5-4.3c-0.2-1.5-3.8-37.6,0.5-53
					c0.9-3.2,4.2-5.1,7.4-4.2s5.1,4.2,4.2,7.4c-2.5,9-1.6,29.4-0.7,41.8c34.9-8.4,54.5-23.2,65-34.2c11.5-12.2,14.5-22.6,14.6-22.7
					c0.5-1.8,1.8-3.2,3.5-3.9c1.7-0.7,3.6-0.6,5.2,0.3c14.4,7.9,26.2,21.7,33.5,35.7c0-6.9-0.2-13.5-0.3-17.8
					c-0.1-3.3,2.5-6.1,5.8-6.2s6.1,2.5,6.2,5.8c1,31.7-0.2,45.4-4.5,52.3c-1.5,2.4-4.3,3.4-7,2.5c-2.6-0.9-4.3-3.4-4.1-6.2l0,0
					c0,0,0.1-0.9,0-2.4c0-0.1,0-0.2,0-0.3c0-14-12.5-36.9-29.5-49.3c-6.9,14.2-28.5,45.2-88.3,58.7c-0.8,0.2-1.7,0.4-2.7,0.6
					l-1.3,0.3C182.7,173.3,182.2,173.4,181.8,173.4z"/>
			</g>
		</g>
		<g>
			<g>
				<path class="st0" d="M264.2,419.2h-33.8c-17.4,0-26.1-3.8-35.3-7.8c-8.4-3.7-17.2-7.5-35.2-9h-19.2c-11.7,0-21.3-9.6-21.3-21.3
					v-31.5c0-20.2,7.2-39.8,20.4-55.1c13-15.2,31-25.3,50.6-28.5h0.1c5-0.7,9.3-1.1,13.5-1.1l3.4-0.2v-13.3c0-3.3,2.7-6,6-6
					s6,2.7,6,6v19c0,3.2-2.5,5.8-5.7,6l-9.2,0.5c-0.1,0-0.2,0-0.3,0c-3.7,0-7.4,0.3-11.9,0.9c-35.2,5.8-60.8,35.9-60.8,71.8v31.5
					c0,5.1,4.2,9.3,9.3,9.3h19.4c0.2,0,0.3,0,0.5,0c20.2,1.6,30.3,6,39.3,10c8.7,3.8,15.5,6.8,30.4,6.8h33.8c14.9,0,21.7-3,30.4-6.9
					c4.6-2,9.8-4.3,16.6-6.2c3.2-0.9,6.5,1,7.4,4.2s-1,6.5-4.2,7.4c-5.9,1.7-10.5,3.7-15,5.6C290.3,415.4,281.6,419.2,264.2,419.2z"
					/>
			</g>
			<g>
				<path class="st0" d="M322.3,283.5c-0.8,0-1.6-0.2-2.4-0.5c-9.4-4.1-19.3-6.2-29.5-6.2c-0.1,0-0.2,0-0.3,0l-9.3-0.5
					c-3.2-0.2-5.7-2.8-5.7-6v-19.4c0-3.3,2.7-6,6-6s6,2.7,6,6v13.7l3.5,0.2c11.8,0,23.3,2.4,34.1,7.2c3,1.3,4.4,4.9,3.1,7.9
					C326.8,282.2,324.6,283.5,322.3,283.5z"/>
			</g>
			<g>
				<path class="st0" d="M247.7,320.5c-33.8,0-61.1-21.2-62.3-48.2c0-0.1,0-0.2,0-0.3v-0.2c0-3.3,2.7-6,6-6s6,2.7,6,6v0.1
					c0.9,20.2,23.5,36.6,50.3,36.6c4.5,0,9.2-0.5,13.9-1.5c3.2-0.7,6.4,1.4,7.1,4.7s-1.4,6.4-4.7,7.1
					C258.5,319.9,253,320.5,247.7,320.5z"/>
			</g>
			<g>
				<path class="st0" d="M302.7,285.5c-0.6,0-1.2-0.1-1.7-0.3c-3.2-1-5-4.3-4-7.5c0.5-1.8,0.9-3.7,0.9-5.7c0.1-3.3,2.9-5.9,6.2-5.7
					c3.3,0.1,5.9,2.9,5.7,6.2c-0.1,3-0.6,6-1.5,8.7C307.7,283.8,305.3,285.5,302.7,285.5z"/>
			</g>
		</g>
		<g>
			<g>
				<path class="st0" d="M400,425.7c-1.5,0-3-0.6-4.2-1.7l-37.2-36.6c-2.4-2.3-2.4-6.1-0.1-8.5s6.1-2.4,8.5-0.1l37.2,36.6
					c2.4,2.3,2.4,6.1,0.1,8.5C403.1,425.1,401.6,425.7,400,425.7z"/>
			</g>
			<g>
				<path class="st0" d="M318.2,406.3c-2,0-4-0.1-5.9-0.3c-15.6-1.4-30.3-8.3-41.5-19.4c-20-20-25.3-50.6-13.4-76.2
					c3.2-7,7.7-13.5,13.4-19.1c8.4-8.4,19-14.5,30.5-17.6c6.9-1.8,14.1-2.5,21.4-2.1c16.3,1,31.8,8,43.5,19.5
					c22.9,23.1,26.3,59.1,7.9,85.6c-2.3,3.4-5,6.6-8,9.7c-7,7-15.1,12.2-24.3,15.6C334.3,404.9,326.3,406.3,318.2,406.3z
					 M318.4,283.6c-4.8,0-9.5,0.6-14.1,1.8c-9.5,2.5-18.2,7.5-25.1,14.4c-4.6,4.6-8.3,9.9-11,15.7c-9.8,21.1-5.4,46.2,11,62.6
					c9.2,9.2,21.3,14.9,34.1,16c8.2,0.7,16.6-0.4,24.3-3.2c7.5-2.8,14.2-7.1,20-12.8c2.5-2.5,4.7-5.1,6.6-7.9l0,0
					c15.1-21.8,12.3-51.4-6.5-70.4c-9.6-9.5-22.3-15.2-35.7-16C320.8,283.6,319.6,283.6,318.4,283.6z"/>
			</g>
		</g>
	</g>
	<g>
		<path class="st1" d="M0,500"/>
	</g>
</g>
</svg>
