<?xml version="1.0" encoding="utf-8"?>
<!-- Generator: Adobe Illustrator 27.5.0, SVG Export Plug-In . SVG Version: 6.00 Build 0)  -->
<svg version="1.1" id="Layer_1" xmlns="http://www.w3.org/2000/svg" xmlns:xlink="http://www.w3.org/1999/xlink" x="0px" y="0px"
	 viewBox="0 0 500 500" style="enable-background:new 0 0 500 500;" xml:space="preserve">
<style type="text/css">
	.st0{fill:#F9423A;}
</style>
<g>
	<g>
		<path class="st0" d="M140.4,286.5c-3.1,0-5.7-2.3-6-5.4c-5.8-61.7-4.9-144,32.9-185.5c15.5-17,35.9-25.7,60.6-25.7h1
			c24.1,0,44,8.1,59.2,24.1c41.6,43.7,37.1,134.3,34.9,177.9c-0.1,2.6-0.2,4.9-0.3,7.1c-0.1,3.3-3,5.9-6.3,5.7
			c-3.3-0.2-5.9-3-5.7-6.3c0.1-2.2,0.2-4.6,0.3-7.2c1.9-38.6,6.4-129-31.6-169c-13-13.7-29.6-20.3-50.5-20.3h-1
			c-21.2,0-38.6,7.3-51.7,21.8c-27.5,30.2-37.8,91.2-29.8,176.3c0.3,3.3-2.1,6.2-5.4,6.5C140.8,286.5,140.6,286.5,140.4,286.5z"/>
	</g>
	<g>
		<g>
			<path class="st0" d="M229.2,260.4h-1.5c-37.4,0-67.8-30.4-67.8-67.8v-30.3c0-3.3,2.7-6,6-6s6,2.7,6,6v30.3
				c0,30.8,25,55.8,55.8,55.8h1.5c30.8,0,55.8-25,55.8-55.8v-33.9c0-3.3,2.7-6,6-6s6,2.7,6,6v33.9C297,230,266.6,260.4,229.2,260.4z
				"/>
		</g>
		<g>
			<path class="st0" d="M162,169.1c-1.2,0-2.5-0.4-3.5-1.1c-1.4-1-2.3-2.6-2.5-4.3c-0.2-1.5-3.8-37.6,0.5-53
				c0.9-3.2,4.2-5.1,7.4-4.2s5.1,4.2,4.2,7.4c-2.5,9-1.6,29.4-0.7,41.8c34.9-8.4,54.5-23.2,65-34.2c11.5-12.2,14.5-22.6,14.6-22.7
				c0.5-1.8,1.8-3.2,3.5-3.9c1.7-0.7,3.6-0.6,5.2,0.3c14.4,7.9,26.2,21.7,33.5,35.7c0-6.9-0.2-13.5-0.3-17.8
				c-0.1-3.3,2.5-6.1,5.8-6.2s6.1,2.5,6.2,5.8c1,31.7-0.2,45.4-4.5,52.3c-1.5,2.4-4.3,3.4-7,2.5c-2.6-0.9-4.3-3.4-4.1-6.2l0,0
				c0,0,0.1-0.9,0-2.4c0-0.1,0-0.2,0-0.3c0-14-12.5-36.9-29.5-49.3c-6.9,14.2-28.5,45.2-88.3,58.7c-0.8,0.2-1.7,0.4-2.6,0.6
				l-1.3,0.3C162.9,169,162.5,169.1,162,169.1z"/>
		</g>
	</g>
	<g>
		<path class="st0" d="M324.8,292.4c-1.4,0-2.8-0.5-4-1.5c-13.3-11.8-30.5-18.3-48.2-18.3c-0.1,0-0.2,0-0.3,0l-9.2-0.5
			c-3.2-0.2-5.7-2.8-5.7-6v-19c0-3.3,2.7-6,6-6s6,2.7,6,6v13.3l3.4,0.2c20.6,0,40.5,7.6,56,21.3c2.5,2.2,2.7,6,0.5,8.5
			C328.1,291.7,326.5,292.4,324.8,292.4z"/>
	</g>
	<g>
		<path class="st0" d="M246.4,414.8h-33.8c-17.4,0-26.1-3.8-35.3-7.8c-8.4-3.7-17.2-7.5-35.2-9H123c-11.7,0-21.3-9.6-21.3-21.3
			v-31.5c0-46.6,37.9-84.6,84.5-84.7l3.5-0.2v-13.7c0-3.3,2.7-6,6-6s6,2.7,6,6V266c0,3.2-2.5,5.8-5.7,6l-9.3,0.5c-0.1,0-0.2,0-0.3,0
			c-40.1,0-72.7,32.6-72.7,72.7v31.5c0,5.1,4.2,9.3,9.3,9.3h19.4c0.2,0,0.3,0,0.5,0c20.2,1.6,30.3,6,39.3,10
			c8.7,3.8,15.5,6.8,30.4,6.8h33.8c11.8,0,18.8-1.9,25.7-4.8c3.1-1.3,6.6,0.1,7.9,3.2s-0.1,6.6-3.2,7.9
			C269.6,412,261.1,414.8,246.4,414.8z"/>
	</g>
	<g>
		<path class="st0" d="M229.2,319.1c-33.4,0-60.8-21-62.3-47.8c-0.2-3.3,2.3-6.1,5.7-6.3c3.3-0.2,6.1,2.3,6.3,5.7
			c1.1,20.4,23.2,36.4,50.3,36.4c27,0,49.5-16.6,50.3-37c0.1-3.3,2.9-5.9,6.2-5.8c3.3,0.1,5.9,2.9,5.8,6.2
			C290.5,297.8,263.1,319.1,229.2,319.1z"/>
	</g>
	<g>
		<path class="st0" d="M323.4,430.1c-20.2,0-39.1-7.9-53.3-22.3c-13.9-14.1-21.6-32.7-21.6-52.6c0-41.3,33.6-74.9,74.9-74.9h1.4h0.1
			c19.7,0.4,38.1,8.3,51.9,22.4s21.4,32.7,21.4,52.5C398.3,396.5,364.7,430.1,323.4,430.1z M323.4,292.3
			c-34.7,0-62.9,28.2-62.9,62.9c0,16.7,6.4,32.4,18.2,44.2c11.9,12.1,27.8,18.7,44.7,18.7c34.7,0,62.9-28.2,62.9-62.9
			c0-34-27.6-62.2-61.6-62.9L323.4,292.3L323.4,292.3z"/>
	</g>
	<g>
		<path class="st0" d="M306.3,391.5c-1.6,0-3.1-0.6-4.2-1.8L281,368.6c-2.3-2.3-2.3-6.1,0-8.5c2.3-2.3,6.1-2.3,8.5,0l16.9,16.9
			l45.8-45.8c2.3-2.3,6.1-2.3,8.5,0c2.3,2.3,2.3,6.1,0,8.5l-50,50.1C309.4,390.9,307.9,391.5,306.3,391.5L306.3,391.5z"/>
	</g>
</g>
</svg>
