<?xml version="1.0" encoding="utf-8"?>
<!-- Generator: Adobe Illustrator 27.5.0, SVG Export Plug-In . SVG Version: 6.00 Build 0)  -->
<svg version="1.1" id="Layer_1" xmlns="http://www.w3.org/2000/svg" xmlns:xlink="http://www.w3.org/1999/xlink" x="0px" y="0px"
	 viewBox="0 0 500 500" style="enable-background:new 0 0 500 500;" xml:space="preserve">
<style type="text/css">
	.st0{fill:#F9423A;}
	.st1{fill:none;stroke:#F9423A;stroke-width:12;stroke-linecap:round;}
</style>
<g>
	<g>
		<path class="st0" d="M246.4,414.9h-33.8c-17.4,0-26.1-3.8-35.3-7.8c-8.4-3.7-17.2-7.5-35.2-9H123c-11.7,0-21.3-9.6-21.3-21.3
			v-31.5c0-25.5,11.2-49.1,30.8-65.3c-2.2-36.2-2.7-100.6,15.7-147.8C164.2,90.9,191.1,70,228,70h1c22.1,0,40.8,7.7,55.4,23
			c29.7,31,42.5,91.4,39,184.5c1.8,1.3,3.6,2.7,5.3,4.2c1.9,1.6,2.5,4.3,1.7,6.6c-0.9,2.3-3.1,3.9-5.6,3.9h-1.4
			c-34.7,0-62.9,28.2-62.9,62.9c0,16.7,6.5,32.4,18.2,44.3c1.4,1.4,2,3.5,1.6,5.4c-0.4,2-1.8,3.6-3.6,4.3
			C268.2,412.6,259.8,414.9,246.4,414.9z M228,81.9c-31.9,0-54.4,17.9-68.6,54.6c-18.1,46.5-17,111.3-14.7,145.8
			c0.1,2-0.7,3.9-2.3,5.2c-18.2,13.9-28.6,35-28.6,57.8v31.5c0,5.1,4.2,9.3,9.3,9.3h19.4c0.2,0,0.3,0,0.5,0c20.2,1.6,30.3,6,39.3,10
			c8.7,3.8,15.5,6.8,30.4,6.8h33.8c7.6,0,13.1-0.9,17.6-2.1c-10.1-13.1-15.5-29-15.5-45.7c0-37.2,27.3-68.1,62.8-73.9
			c0-0.3,0-0.6,0-0.9c1-23.6,1.8-59.1-2.8-93.7c-5.2-39.5-16.2-68.2-32.7-85.4c-12.5-13-27.8-19.3-46.8-19.3L228,81.9L228,81.9z"/>
	</g>
	<g>
		<path class="st0" d="M229.2,260.3h-1.5c-37.4,0-67.8-30.4-67.8-67.8v-30.3c0-3.3,2.7-6,6-6s6,2.7,6,6v30.3
			c0,30.8,25,55.8,55.8,55.8h1.5c30.8,0,55.8-25,55.8-55.8v-33.9c0-3.3,2.7-6,6-6s6,2.7,6,6v33.9C297,229.9,266.6,260.3,229.2,260.3
			z"/>
	</g>
	<g>
		<path class="st0" d="M162,169.1c-1.3,0-2.5-0.4-3.6-1.2c-1.4-1.1-2.3-2.7-2.4-4.4c-0.1-1.4-2.2-35,2-50.3c0.9-3.2,4.2-5.1,7.4-4.2
			s5.1,4.2,4.2,7.4c-2.5,8.9-2.4,27.5-1.9,39.2c34.7-8.4,54.3-23.1,64.7-34.1c11.5-12.2,14.5-22.6,14.6-22.7
			c0.5-1.8,1.8-3.2,3.5-3.9c1.7-0.7,3.6-0.6,5.2,0.3c13.5,7.4,24.7,20,32.1,33.1c-0.1-1.6-0.1-3.2-0.2-4.9c-0.1-2.6-0.2-5.4-0.3-8.3
			c-0.1-3.3,2.5-6.1,5.8-6.2s6.1,2.5,6.2,5.8c0.1,2.9,0.2,5.7,0.3,8.3c0.8,23.2,1.2,34.9-3.3,42c-1.5,2.4-4.3,3.4-7,2.5
			c-2.6-0.9-4.3-3.4-4.1-6.2l0,0c0,0,0.1-0.9,0-2.4c0-0.1,0-0.2,0-0.3c0-14-12.5-36.9-29.5-49.3c-6.9,14.2-28.5,45.2-88.3,58.7
			c-0.8,0.2-1.7,0.4-2.6,0.6l-1.3,0.3C162.9,169,162.5,169.1,162,169.1z"/>
	</g>
	<g>
		<path class="st0" d="M317.3,286.4c-1.2,0-2.4-0.3-3.4-1.1c-12.1-8.4-26.4-12.8-41.3-12.8c-0.1,0-0.2,0-0.3,0l-9.2-0.5
			c-3.2-0.2-5.7-2.8-5.7-6v-19c0-3.3,2.7-6,6-6s6,2.7,6,6v13.3l3.4,0.2c17.3,0,33.9,5.2,48,15c2.7,1.9,3.4,5.6,1.5,8.3
			C321.1,285.5,319.2,286.4,317.3,286.4z"/>
	</g>
	<g>
		<path class="st0" d="M138.7,288.5c-1.8,0-3.6-0.8-4.8-2.4c-2-2.6-1.5-6.4,1.1-8.4c14.6-11.1,32.7-17.3,51.2-17.3l3.5-0.2v-13.7
			c0-3.3,2.7-6,6-6s6,2.7,6,6v19.4c0,3.2-2.5,5.8-5.7,6l-9.3,0.5c-0.1,0-0.2,0-0.3,0c-16.1,0-31.3,5.1-44.1,14.9
			C141.3,288.1,140,288.5,138.7,288.5z"/>
	</g>
	<g>
		<path class="st0" d="M229.2,319c-33.4,0-60.8-21-62.3-47.8c-0.2-3.3,2.3-6.1,5.7-6.3c3.3-0.2,6.1,2.3,6.3,5.7
			C180,291,202.1,307,229.2,307c27,0,49.5-16.6,50.3-37c0.1-3.3,2.9-5.9,6.2-5.8c3.3,0.1,5.9,2.9,5.8,6.2
			C290.5,297.7,263.1,319,229.2,319z"/>
	</g>
	<g>
		<path class="st0" d="M323.4,430c-20.2,0-39.1-7.9-53.3-22.3c-13.9-14.1-21.6-32.7-21.6-52.6c0-41.3,33.6-74.9,74.9-74.9h1.5
			c19.7,0.4,38.1,8.3,51.9,22.4s21.4,32.7,21.4,52.5C398.3,396.4,364.7,430,323.4,430z M323.4,292.2c-34.7,0-62.9,28.2-62.9,62.9
			c0,16.7,6.4,32.4,18.2,44.2c11.9,12.1,27.8,18.7,44.7,18.7c34.7,0,62.9-28.2,62.9-62.9c0-34-27.6-62.2-61.6-62.9L323.4,292.2
			L323.4,292.2z"/>
	</g>
	<g>
		<path class="st0" d="M300,384.5c-1.5,0-3.1-0.6-4.2-1.8c-2.3-2.3-2.3-6.1,0-8.5l47.7-47.6c2.3-2.3,6.1-2.3,8.5,0
			c2.3,2.3,2.3,6.1,0,8.5l-47.7,47.6C303.1,383.9,301.5,384.5,300,384.5z"/>
	</g>
	<g>
		<path class="st0" d="M347.7,384.5c-1.5,0-3.1-0.6-4.2-1.8l-47.7-47.6c-2.3-2.3-2.3-6.1,0-8.5s6.1-2.4,8.5,0l47.7,47.6
			c2.3,2.3,2.3,6.1,0,8.5C350.8,383.9,349.2,384.5,347.7,384.5z"/>
	</g>
</g>
<g>
	<path class="st1" d="M0,500"/>
</g>
<g>
	<path class="st1" d="M0,500"/>
</g>
</svg>
