<?xml version="1.0" encoding="utf-8"?>
<!-- Generator: Adobe Illustrator 27.5.0, SVG Export Plug-In . SVG Version: 6.00 Build 0)  -->
<svg version="1.1" id="Layer_1" xmlns="http://www.w3.org/2000/svg" xmlns:xlink="http://www.w3.org/1999/xlink" x="0px" y="0px"
	 viewBox="0 0 500 500" style="enable-background:new 0 0 500 500;" xml:space="preserve">
<style type="text/css">
	.st0{fill:#F9423A;}
	.st1{display:none;fill:none;stroke:#F9423A;stroke-width:18.2;stroke-linecap:round;stroke-linejoin:round;}
	.st2{fill:none;stroke:#F9423A;stroke-width:18.2;stroke-linecap:round;stroke-linejoin:round;}
</style>
<g>
	<g>
		<g>
			<path class="st0" d="M338.1,294.6c-0.1,0-0.2,0-0.3,0c-3.3-0.1-5.9-2.9-5.7-6.3c0-1,0.1-2.2,0.2-3.8
				c5.5-105.4-15.8-151.3-34.7-171.2c-12.6-13.3-28-19.7-47.1-19.7h-1c-19.1,0-34.5,6.4-47.1,19.7c-18.9,19.9-40.3,65.8-34.7,171.2
				c0.1,1.5,0.1,2.8,0.2,3.8c0.1,3.3-2.4,6.1-5.7,6.3c-3.3,0.1-6.1-2.4-6.3-5.7c0-1-0.1-2.2-0.2-3.6c-0.7-13.8-2.4-46.1,1.5-81.5
				c5-45.1,17.3-78.3,36.5-98.5c14.8-15.6,33.5-23.4,55.8-23.4h1c22.3,0,41,7.9,55.8,23.4c19.2,20.3,31.5,53.4,36.5,98.5
				c3.9,35.4,2.2,67.7,1.5,81.5c-0.1,1.5-0.1,2.7-0.2,3.6C344,292.1,341.3,294.6,338.1,294.6z"/>
			<path class="st0" d="M250.7,272.2h-1.5c-37.4,0-67.8-30.4-67.8-67.8v-30.3c0-3.3,2.7-6,6-6s6,2.7,6,6v30.3
				c0,30.8,25,55.8,55.8,55.8h1.5c30.8,0,55.8-25,55.8-55.8v-33.9c0-3.3,2.7-6,6-6s6,2.7,6,6v33.9
				C318.5,241.8,288.1,272.2,250.7,272.2z"/>
			<path class="st0" d="M183.5,180.9c-1.3,0-2.5-0.4-3.6-1.2c-1.4-1.1-2.3-2.7-2.4-4.4c-0.1-1.4-2.2-35,2-50.3
				c0.9-3.2,4.2-5.1,7.4-4.2s5.1,4.2,4.2,7.4c-2.5,8.9-2.4,27.5-1.9,39.2c67.6-16.4,79.2-56.4,79.3-56.8c0.5-1.8,1.7-3.2,3.4-4
				c1.7-0.7,3.6-0.6,5.2,0.3c13.5,7.4,24.7,20,32.1,33.1c-0.1-1.6-0.1-3.2-0.2-4.9c-0.1-2.6-0.2-5.4-0.3-8.3
				c-0.1-3.3,2.5-6.1,5.8-6.2s6.1,2.5,6.2,5.8c0.1,2.9,0.2,5.7,0.3,8.3c0.8,23.2,1.2,34.9-3.3,42c-1.5,2.4-4.3,3.4-7,2.5
				c-2.6-0.9-4.3-3.4-4.1-6.2l0,0c0,0,0.1-0.9,0-2.4c0-0.1,0-0.2,0-0.3c0-14-12.5-36.9-29.5-49.3c-6.9,14.2-28.5,45.2-88.3,58.7
				c-0.8,0.2-1.7,0.4-2.7,0.6l-1.3,0.3C184.4,180.8,183.9,180.9,183.5,180.9z"/>
		</g>
		<g>
			<path class="st0" d="M266.9,426.6h-33.8c-17.4,0-26.1-3.8-35.3-7.8c-8.4-3.7-17.2-7.5-35.2-9h-19.2c-11.7,0-21.3-9.6-21.3-21.3
				V357c0-46.6,37.9-84.6,84.5-84.7l3.5-0.2v-13.7c0-3.3,2.7-6,6-6s6,2.7,6,6v19.4c0,3.2-2.5,5.8-5.7,6l-9.3,0.5c-0.1,0-0.2,0-0.3,0
				c-40.1,0-72.7,32.6-72.7,72.7v31.5c0,5.1,4.2,9.3,9.3,9.3h19.4c0.2,0,0.3,0,0.5,0c20.2,1.6,30.3,6,39.3,10
				c8.7,3.8,15.5,6.8,30.4,6.8h33.8c14.9,0,21.8-3,30.4-6.8c9-3.9,19.1-8.4,39.3-10c0.2,0,0.3,0,0.5,0h19.4c5.1,0,9.3-4.2,9.3-9.3
				V357c0-40.1-32.6-72.7-72.7-72.7c-0.1,0-0.2,0-0.3,0l-9.2-0.5c-3.2-0.2-5.7-2.8-5.7-6v-19c0-3.3,2.7-6,6-6s6,2.7,6,6v13.3
				l3.4,0.2c46.6,0.1,84.5,38.1,84.5,84.7v31.5c0,11.7-9.6,21.3-21.3,21.3h-19.2c-18,1.4-26.7,5.3-35.2,9
				C293,422.8,284.3,426.6,266.9,426.6z"/>
			<path class="st0" d="M248.2,327.9c-33.4,0-60.8-21-62.3-47.8c-0.2-3.3,2.3-6.1,5.7-6.3c3.3-0.2,6.1,2.3,6.3,5.7
				c1.1,20.4,23.2,36.4,50.3,36.4c27,0,49.5-16.6,50.3-37c0.1-3.3,2.9-5.9,6.2-5.8c3.3,0.1,5.9,2.9,5.8,6.2
				C309.5,306.6,282.1,327.9,248.2,327.9z"/>
			<g>
				<path class="st0" d="M249.3,357.1c-0.6,0-1.1,0-1.7-0.1c-0.6-0.1-1.1-0.3-1.6-0.4c-0.6-0.1-1-0.4-1.4-0.7
					c-0.4-0.3-0.9-0.7-1.3-1.1c-0.4-0.4-0.7-0.9-1.1-1.3c-0.3-0.4-0.6-1-0.9-1.4c-0.1-0.6-0.4-1-0.4-1.6c-0.1-0.6-0.1-1.1-0.1-1.7
					c0-0.6,0-1.1,0.1-1.7c0.1-0.6,0.3-1.1,0.4-1.6c0.1-0.6,0.4-1,0.9-1.4c0.3-0.4,0.7-0.9,1.1-1.3c0.4-0.4,0.9-0.7,1.3-1.1
					c0.4-0.3,1-0.6,1.4-0.7c0.6-0.1,1-0.4,1.6-0.4c2.7-0.6,5.7,0.3,7.7,2.3c0.4,0.4,0.7,0.9,1.1,1.3c0.3,0.4,0.6,1,0.7,1.4
					c0.3,0.6,0.4,1,0.4,1.6c0.1,0.6,0.1,1.1,0.1,1.7s0,1.1-0.1,1.7c-0.1,0.6-0.3,1.1-0.4,1.6c-0.3,0.6-0.4,1-0.7,1.4
					c-0.3,0.4-0.7,0.9-1.1,1.3c-0.4,0.4-0.9,0.7-1.3,1.1c-0.4,0.3-1,0.6-1.4,0.7c-0.6,0.3-1,0.4-1.6,0.4S249.9,357.1,249.3,357.1z"
					/>
			</g>
			<g>
				<path class="st0" d="M249.3,382.4c-0.6,0-1.1,0-1.7-0.1c-0.6-0.1-1.1-0.3-1.6-0.4c-0.6-0.1-1-0.4-1.4-0.7s-0.9-0.7-1.3-1.1
					c-1.6-1.6-2.6-3.8-2.6-6s0.9-4.4,2.6-6c0.4-0.4,0.9-0.7,1.3-1.1c0.4-0.3,1-0.6,1.4-0.9c0.6-0.1,1-0.4,1.6-0.4
					c2.7-0.6,5.7,0.3,7.6,2.3c1.6,1.6,2.5,3.8,2.5,6s-0.9,4.4-2.5,6C253.6,381.4,251.6,382.4,249.3,382.4z"/>
			</g>
			<g>
				<path class="st0" d="M249.3,407.8c-2.3,0-4.4-0.9-6-2.6c-1.6-1.6-2.6-3.9-2.6-6c0-0.6,0-1.1,0.1-1.7c0.1-0.6,0.3-1.1,0.4-1.6
					c0.1-0.6,0.4-1,0.9-1.4c0.3-0.4,0.7-0.9,1.1-1.3c1.6-1.6,3.9-2.6,6-2.6s4.4,0.9,6,2.6c0.4,0.4,0.7,0.9,1.1,1.3
					c0.3,0.4,0.6,1,0.7,1.4c0.3,0.6,0.4,1,0.4,1.6c0.1,0.6,0.1,1.1,0.1,1.7c0,2.3-0.9,4.4-2.6,6
					C253.5,406.8,251.6,407.8,249.3,407.8z"/>
			</g>
		</g>
	</g>
	<g>
		<g>
			<path class="st1" d="M0,500"/>
		</g>
		<g>
			<path class="st2" d="M0,500"/>
		</g>
		<g>
			<path class="st2" d="M0,500"/>
		</g>
		<g>
			<path class="st2" d="M0,500"/>
		</g>
		<g>
			<path class="st2" d="M0,500"/>
		</g>
		<g>
			<path class="st2" d="M0,500"/>
		</g>
		<g>
			<path class="st2" d="M0,500"/>
		</g>
		<g>
			<path class="st2" d="M0,500"/>
		</g>
		<g>
			<path class="st2" d="M0,500"/>
		</g>
		<g>
			<path class="st2" d="M0,500"/>
		</g>
		<g>
			<path class="st2" d="M0,500"/>
		</g>
		<g>
			<path class="st2" d="M0,500"/>
		</g>
	</g>
</g>
</svg>
