<?xml version="1.0" encoding="utf-8"?>
<!-- Generator: Adobe Illustrator 27.5.0, SVG Export Plug-In . SVG Version: 6.00 Build 0)  -->
<svg version="1.1" id="Layer_1" xmlns="http://www.w3.org/2000/svg" xmlns:xlink="http://www.w3.org/1999/xlink" x="0px" y="0px"
	 viewBox="0 0 500 500" style="enable-background:new 0 0 500 500;" xml:space="preserve">
<style type="text/css">
	.st0{fill:#F9423A;}
	.st1{fill:none;stroke:#F9423A;stroke-width:12;stroke-linecap:round;stroke-linejoin:round;}
</style>
<g>
	<g>
		<g>
			<path class="st0" d="M426,420.5c-1.5,0-3-0.6-4.2-1.7l-34-33.5c-25.1,21.2-61.9,21.2-87.1-0.4H116c-1.6,0-3.2-0.7-4.3-1.8
				c-1.1-1.2-1.7-2.7-1.7-4.4l0.4-12.4c0.1-50.2,40.9-91,91.1-91h97.3c3.7,0,7.3,0.2,10.9,0.7c26.3-15.8,60.5-11.7,82.4,10.1
				c12.7,12.7,19.7,29.5,19.8,47.5c0,16-5.5,31.1-15.6,43.2l34,33.4c2.4,2.3,2.4,6.1,0.1,8.5C429.1,419.9,427.6,420.5,426,420.5z
				 M307,374.5c21.9,20.1,55.6,19.4,76.6-1.6l0,0c10.5-10.5,16.3-24.4,16.2-39.3c0-14.8-5.8-28.6-16.2-39.1
				c-18.2-18.2-46.9-21.4-68.6-7.8c-0.4,0.3-0.8,0.6-1.3,0.8c-3.1,2.1-6,4.4-8.5,6.9c-21.6,21.6-21.6,56.7,0,78.3
				c0.5,0.5,1,1,1.5,1.5C306.8,374.4,306.9,374.4,307,374.5z M122.2,372.9h167.4c-18.5-25.8-16.5-62,6-85.6h-94
				c-43.6,0-79.1,35.5-79.1,79.1c0,0.1,0,0.1,0,0.2L122.2,372.9z M304.4,323.3c-0.8,0-1.5-0.1-2.3-0.5c-3.1-1.3-4.5-4.8-3.2-7.8
				c2.5-6.1,6.2-11.7,10.7-16.1c5.6-5.6,12.4-9.7,19.8-12c3.2-1,6.5,0.8,7.5,4s-0.8,6.5-4,7.5c-5.5,1.7-10.6,4.8-14.8,9
				c-3.4,3.4-6.2,7.6-8.1,12.3C309,321.9,306.8,323.3,304.4,323.3z M250,253.5c-37.3,0-67.6-30.3-67.6-67.6s30.3-67.6,67.6-67.6
				c20.2,0,39.1,8.8,51.8,24.2c10.2,12.2,15.8,27.6,15.8,43.4C317.6,223.2,287.3,253.5,250,253.5z M250,130.3
				c-30.7,0-55.6,24.9-55.6,55.6s24.9,55.6,55.6,55.6s55.6-24.9,55.6-55.6c0-13-4.6-25.7-13-35.7l0,0
				C282.1,137.5,266.6,130.3,250,130.3z"/>
		</g>
	</g>
	<g>
		<path class="st1" d="M0,500"/>
	</g>
</g>
</svg>
