<?xml version="1.0" encoding="utf-8"?>
<!-- Generator: Adobe Illustrator 27.5.0, SVG Export Plug-In . SVG Version: 6.00 Build 0)  -->
<svg version="1.1" id="Layer_1" xmlns="http://www.w3.org/2000/svg" xmlns:xlink="http://www.w3.org/1999/xlink" x="0px" y="0px"
	 viewBox="0 0 500 500" style="enable-background:new 0 0 500 500;" xml:space="preserve">
<style type="text/css">
	.st0{fill:#F9423A;}
	.st1{fill:none;stroke:#F9423A;stroke-width:12;stroke-linecap:round;stroke-linejoin:round;}
</style>
<g>
	<g>
		<g>
			<path class="st0" d="M250.2,274h-1.5c-37.1,0-67.2-30.1-67.2-67.2v-30c0-3.3,2.7-6,6-6s6,2.7,6,6v30c0,30.4,24.8,55.2,55.2,55.2
				h1.5c30.4,0,55.2-24.8,55.2-55.2v-33.6c0-3.3,2.7-6,6-6s6,2.7,6,6v33.6C317.4,243.9,287.3,274,250.2,274z"/>
		</g>
		<g>
			<path class="st0" d="M183.6,183.6c-2.5,0-4.8-1.6-5.7-4.1c-0.3-0.8-6.9-20.4-9.4-42.7c-3.6-31.7,2.7-52.4,18.7-61.6
				c5.7-3.2,14.1-3,19.6,0.6c4,2.5,7.8,6.1,10.9,8.9c1.1,1.1,2.2,2.1,3.1,2.8c0,0,0.1,0,0.1,0.1c1.2,1.1,2.8,1.6,4.4,1.5h0.1
				c2.1-0.1,7.7-0.7,13.9-4c0.2-0.1,0.4-0.2,0.6-0.3c26.6-10.6,50.2-10.1,66.5,1.2c11.7,8.1,18.2,21.2,17.9,35.9
				c-0.1,6,0,11.6,0,17.1c0.3,20.9,0.5,36-9.7,42.4c-1.9,1.2-4.3,1.2-6.3,0.1c-1.9-1.2-3.1-3.3-2.9-5.5c0.1-1.4,1.5-32.3-29-51.8
				c-6.9,14.3-29,46.3-91.6,59.3C184.4,183.6,184,183.6,183.6,183.6z M196.4,84.9c-1.2,0-2.4,0.2-3.2,0.7
				c-21.9,12.5-12.5,61.5-5.5,84.9c34.7-8.2,54.4-22.6,64.9-33.6c11.9-12.3,15-23,15-23.1c0.5-1.7,1.7-3.2,3.4-3.9
				c1.7-0.7,3.6-0.7,5.2,0.2c20.7,10.8,31.1,26,36.2,39.1c0-3.3,0-6.7-0.1-10.2c-0.1-5.6-0.1-11.4,0-17.5
				c0.2-10.8-4.3-19.9-12.7-25.8c-12.8-8.9-32.4-8.9-55,0c-5.8,3-12.6,4.9-18.7,5.2c-4.7,0.3-9.3-1.3-12.9-4.4
				c-1.1-0.9-2.2-2-3.5-3.1c-2.7-2.5-6-5.6-9.1-7.5C199.4,85.3,197.9,84.9,196.4,84.9z"/>
		</g>
	</g>
	<g>
		<path class="st0" d="M250,315.8h-2.5c-20.7,0-37.6-16.9-37.6-37.6v-19.7c0-3.3,2.7-6,6-6s6,2.7,6,6v19.7
			c0,14.1,11.5,25.6,25.6,25.6h2.5c14.1,0,25.6-11.5,25.6-25.6v-18.9c0-3.3,2.7-6,6-6s6,2.7,6,6v18.9
			C287.6,298.9,270.7,315.8,250,315.8z"/>
	</g>
	<g>
		<path class="st0" d="M266.9,427h-33.8c-17.4,0-26.1-3.8-35.3-7.8c-8.4-3.7-17.2-7.5-35.2-9h-19.2c-11.7,0-21.3-9.6-21.3-21.3
			v-31.5c0-46.6,37.9-84.6,84.5-84.7l8.8-0.5c3.3-0.2,6.1,2.3,6.3,5.7c0.2,3.3-2.3,6.1-5.7,6.3l-9,0.5c-0.1,0-0.2,0-0.3,0
			c-40.1,0-72.7,32.6-72.7,72.7v31.5c0,5.1,4.2,9.3,9.3,9.3h19.4c0.2,0,0.3,0,0.5,0c20.2,1.6,30.3,6,39.3,10
			c8.7,3.8,15.5,6.8,30.4,6.8h33.8c13,0,19.9-2.4,25.9-4.9c3.1-1.3,6.6,0.2,7.8,3.2c1.3,3.1-0.2,6.6-3.2,7.8
			C289,424.7,280.5,427,266.9,427z"/>
	</g>
	<g>
		<path class="st0" d="M344.9,304.1c-1.4,0-2.8-0.5-3.9-1.5c-13.3-11.6-30.3-17.9-47.9-17.9c-0.1,0-0.2,0-0.3,0l-9-0.5
			c-3.3-0.2-5.8-3-5.7-6.3c0.2-3.3,3-5.8,6.3-5.7l8.8,0.5c20.4,0,40.1,7.5,55.6,20.9c2.5,2.2,2.8,6,0.6,8.5
			C348.2,303.4,346.6,304.1,344.9,304.1z"/>
	</g>
	<g>
		<path class="st0" d="M343.9,441.9c-20,0-38.9-7.8-53-22S269,386.9,269,367c0-41.3,33.6-74.9,74.9-74.9h1
			c40.8,0.5,73.9,34.1,73.9,74.9C418.8,408.3,385.2,441.9,343.9,441.9z M344.8,304.1h-0.9c-34.7,0-62.9,28.2-62.9,62.9
			c0,16.7,6.5,32.5,18.4,44.5c11.9,11.9,27.7,18.4,44.5,18.4c34.7,0,62.9-28.2,62.9-62.9C406.8,332.8,379,304.6,344.8,304.1z"/>
	</g>
	<g>
		<path class="st0" d="M326.8,403.3c-1.6,0-3.1-0.6-4.2-1.8l-21.1-21.1c-2.3-2.3-2.3-6.1,0-8.5c2.3-2.3,6.1-2.3,8.5,0l16.9,16.9
			l45.8-45.8c2.3-2.3,6.1-2.3,8.5,0c2.3,2.3,2.3,6.1,0,8.5l-50,50.1C329.9,402.7,328.4,403.3,326.8,403.3L326.8,403.3z"/>
	</g>
	<g>
		<g>
			<path class="st1" d="M0,500"/>
		</g>
	</g>
</g>
</svg>
