<?xml version="1.0" encoding="utf-8"?>
<!-- Generator: Adobe Illustrator 27.5.0, SVG Export Plug-In . SVG Version: 6.00 Build 0)  -->
<svg version="1.1" id="Layer_1" xmlns="http://www.w3.org/2000/svg" xmlns:xlink="http://www.w3.org/1999/xlink" x="0px" y="0px"
	 viewBox="0 0 500 500" style="enable-background:new 0 0 500 500;" xml:space="preserve">
<style type="text/css">
	.st0{fill:#F9423A;}
	.st1{display:none;fill:none;stroke:#F9423A;stroke-width:12.04;stroke-linecap:round;stroke-linejoin:round;}
	.st2{fill:none;stroke:#F9423A;stroke-width:12.04;stroke-linecap:round;stroke-linejoin:round;}
</style>
<g>
	<path class="st0" d="M180.6,416.1c-0.9,0-1.8-0.2-2.6-0.6c-2.1-1-3.4-3.1-3.4-5.4l0.3-149.5c0-3.3,2.7-6,6-6l0,0c3.3,0,6,2.7,6,6
		l-0.3,137.1l59.7-47.1c2.2-1.7,5.3-1.7,7.4,0l59.7,47.1l0.3-134.7c0-3.3,2.7-6,6-6l0,0c3.3,0,6,2.7,6,6l-0.3,147.1
		c0,2.3-1.3,4.4-3.4,5.4s-4.5,0.7-6.3-0.7L250,362.9l-65.7,51.9C183.2,415.7,181.9,416.1,180.6,416.1z"/>
</g>
<g>
	<g>
		<path class="st0" d="M216.6,301.4c-2,0-4-1-5.1-2.8L193.7,270l-32.6-8.1c-2.8-0.7-4.7-3.3-4.5-6.3L159,222l-21.7-25.8
			c-1.9-2.2-1.9-5.5,0-7.7l21.6-25.7l-2.4-33.6c-0.2-2.9,1.7-5.6,4.5-6.3l32.6-8.1l17.8-28.5c1.5-2.5,4.7-3.5,7.4-2.4l31.1,12.7
			L281,83.9c2.7-1.1,5.8-0.1,7.4,2.4l17.8,28.5l32.6,8.1c2.8,0.7,4.7,3.3,4.5,6.3l-2.4,33.6l21.6,25.7c1.9,2.2,1.9,5.5,0,7.7
			L341.2,222l2.4,33.6c0.2,2.9-1.7,5.6-4.5,6.3l-32.6,8.1l-17.8,28.5c-1.5,2.5-4.6,3.5-7.3,2.4L250,288.3L218.9,301
			C218.1,301.3,217.4,301.4,216.6,301.4z M168.8,251.5l30.1,7.5c1.5,0.4,2.8,1.3,3.6,2.6l16.4,26.3l28.7-11.7c1.4-0.6,3.1-0.6,4.5,0
			l28.8,11.6l16.4-26.3c0.8-1.3,2.1-2.3,3.6-2.6l30.1-7.5l-2.2-31c-0.1-1.5,0.4-3.1,1.4-4.3l19.8-23.7l-20-23.8
			c-1-1.2-1.5-2.7-1.4-4.3l2.2-31l-30.1-7.5c-1.5-0.4-2.8-1.3-3.6-2.6L280.9,97l-28.7,11.7c-1.5,0.6-3.1,0.6-4.5,0L218.9,97
			l-16.4,26.3c-0.8,1.3-2.1,2.3-3.6,2.6l-30.1,7.5l2.2,31c0.1,1.6-0.4,3.1-1.4,4.3l-20,23.7l20.1,23.8c1,1.2,1.5,2.7,1.4,4.3
			L168.8,251.5z"/>
	</g>
	<g>
		<path class="st0" d="M237.3,220.5L237.3,220.5c-1.6,0-3.1-0.6-4.2-1.8L220.4,206c-2.3-2.3-2.3-6.1,0-8.5s6.1-2.3,8.5,0l8.5,8.5
			l33.8-33.8c2.3-2.3,6.1-2.3,8.5,0c2.3,2.3,2.3,6.1,0,8.5l-38,38C240.4,219.9,238.9,220.5,237.3,220.5z"/>
	</g>
	<g>
		<path class="st0" d="M250,260.8c-37.7,0-68.4-30.7-68.4-68.4S212.3,124,250,124s68.4,30.7,68.4,68.4S287.7,260.8,250,260.8z
			 M250,136c-31.1,0-56.4,25.3-56.4,56.4s25.3,56.4,56.4,56.4s56.4-25.3,56.4-56.4S281.1,136,250,136z"/>
	</g>
</g>
<g>
	<g>
		<path class="st1" d="M0,500"/>
	</g>
	<g>
		<path class="st2" d="M0,500"/>
	</g>
	<g>
		<path class="st2" d="M0,500"/>
	</g>
	<g>
		<path class="st2" d="M0,500"/>
	</g>
	<g>
		<path class="st2" d="M0,500"/>
	</g>
	<g>
		<path class="st2" d="M0,500"/>
	</g>
	<g>
		<path class="st2" d="M0,500"/>
	</g>
	<g>
		<path class="st2" d="M0,500"/>
	</g>
	<g>
		<path class="st2" d="M0,500"/>
	</g>
	<g>
		<path class="st2" d="M0,500"/>
	</g>
	<g>
		<path class="st2" d="M0,500"/>
	</g>
	<g>
		<path class="st2" d="M0,500"/>
	</g>
</g>
</svg>
