<?xml version="1.0" encoding="utf-8"?>
<!-- Generator: Adobe Illustrator 27.5.0, SVG Export Plug-In . SVG Version: 6.00 Build 0)  -->
<svg version="1.1" id="Layer_1" xmlns="http://www.w3.org/2000/svg" xmlns:xlink="http://www.w3.org/1999/xlink" x="0px" y="0px"
	 viewBox="0 0 500 500" style="enable-background:new 0 0 500 500;" xml:space="preserve">
<style type="text/css">
	.st0{fill:#F9423A;}
	.st1{display:none;fill:none;stroke:#F84239;stroke-width:14;stroke-linecap:round;stroke-linejoin:round;}
	.st2{fill:none;stroke:#F9423A;stroke-width:14;stroke-linecap:round;stroke-linejoin:round;}
</style>
<g>
	<g>
		<path class="st0" d="M317.5,416.1c-2.1,0-4-1.1-5.1-2.9L245.5,302c-1.7-2.8-0.8-6.5,2-8.2s6.5-0.8,8.2,2l59.7,99.2l13.1-47.6
			c0.9-3.2,4.1-5,7.3-4.2l47.5,12.4l-47.2-82.8c-1.6-2.9-0.6-6.5,2.2-8.2c2.9-1.6,6.5-0.6,8.2,2.2l54.2,95.2c1.2,2.1,1,4.7-0.5,6.6
			s-3.9,2.8-6.3,2.2l-55.6-14.5l-15.2,55.4c-0.6,2.3-2.6,4-5,4.4C318,416.1,317.8,416.1,317.5,416.1z"/>
	</g>
	<g>
		<path class="st0" d="M182.6,416.1c-0.3,0-0.5,0-0.8,0c-2.4-0.3-4.4-2-5-4.4l-15.2-55.4L106,370.8c-2.4,0.6-4.9-0.3-6.3-2.2
			c-1.5-2-1.6-4.6-0.3-6.7l56.2-92.7c1.7-2.8,5.4-3.7,8.2-2s3.7,5.4,2,8.2l-48.5,80l47-12.3c3.2-0.8,6.4,1,7.3,4.2l13,47.3
			c10.2-17.6,30.5-52.8,55.9-96.8c1.7-2.9,5.3-3.8,8.2-2.2c2.9,1.7,3.8,5.3,2.2,8.2c-37,64-63.1,109.2-63.1,109.2
			C186.7,415,184.7,416.1,182.6,416.1z"/>
	</g>
	<g>
		<g>
			<path class="st0" d="M287,319.8c-0.8,0-1.5-0.1-2.3-0.4l-34.2-13.9l-34.2,13.9c-2.7,1.1-5.8,0.1-7.3-2.4l-19.5-31.3l-35.8-8.9
				c-2.8-0.7-4.7-3.3-4.5-6.2l2.6-36.9l-23.7-28.2c-1.9-2.2-1.9-5.5,0-7.7l23.7-28.2l-2.6-36.9c-0.2-2.9,1.7-5.5,4.5-6.2l35.8-8.9
				L208.9,86c1.5-2.5,4.6-3.5,7.3-2.4l34.2,13.9l34.2-13.9c2.7-1.1,5.8-0.1,7.3,2.4l19.5,31.3l35.8,8.9c2.8,0.7,4.7,3.3,4.5,6.2
				l-2.6,36.9l23.7,28.2c1.9,2.2,1.9,5.5,0,7.7l-23.7,28.2l2.6,36.9c0.2,2.9-1.7,5.5-4.5,6.2l-35.8,8.9L292.1,317
				C291,318.8,289,319.8,287,319.8z M250.5,293c0.8,0,1.5,0.1,2.3,0.4l31.8,12.9l18.1-29.1c0.8-1.3,2.1-2.3,3.6-2.7l33.3-8.3
				l-2.4-34.3c-0.1-1.6,0.4-3.1,1.4-4.3l22.1-26.2l-22.1-26.2c-1-1.2-1.5-2.7-1.4-4.3l2.4-34.3l-33.3-8.3c-1.5-0.4-2.8-1.3-3.6-2.7
				l-18.1-29.1l-31.8,12.9c-1.4,0.6-3.1,0.6-4.5,0l-31.8-12.9l-18.1,29.1c-0.8,1.3-2.1,2.3-3.6,2.7l-33.3,8.3l2.4,34.3
				c0.1,1.6-0.4,3.1-1.4,4.3l-22.1,26.2l22.1,26.2c1,1.2,1.5,2.7,1.4,4.3l-2.4,34.3l33.3,8.3c1.5,0.4,2.8,1.3,3.6,2.7l18.1,29.1
				l31.8-12.9C249,293.1,249.7,293,250.5,293z M250,275.8c-40.8,0-74-33.2-74-74s33.2-74,74-74s74,33.2,74,74S290.8,275.8,250,275.8
				z M250,139.8c-34.2,0-62,27.8-62,62s27.8,62,62,62s62-27.8,62-62S284.2,139.8,250,139.8z"/>
		</g>
		<g>
			<path class="st0" d="M254.3,235.4c-3.3,0-6-2.7-6-6v-40.7l-7.1,7.1c-2.4,2.4-6.2,2.4-8.5,0c-2.4-2.4-2.4-6.2,0-8.5l17.4-17.4
				c1.7-1.7,4.3-2.2,6.6-1.3c2.2,0.9,3.7,3.1,3.7,5.6v55.2C260.3,232.7,257.6,235.4,254.3,235.4z"/>
		</g>
		<g>
			<path class="st0" d="M204,209.4h-0.3c-3.9,0-7-3.1-7-7s3.1-7,7-7h0.3c3.9,0,7,3.1,7,7S207.9,209.4,204,209.4z M296.3,208.1H296
				c-3.9,0-7-3.1-7-7s3.1-7,7-7h0.3c3.9,0,7,3.1,7,7S300.2,208.1,296.3,208.1z"/>
		</g>
	</g>
	<g>
		<g>
			<path class="st1" d="M0,500"/>
		</g>
		<g>
			<path class="st2" d="M0,500"/>
		</g>
		<g>
			<path class="st2" d="M0,500"/>
		</g>
		<g>
			<path class="st2" d="M0,500"/>
		</g>
		<g>
			<path class="st2" d="M0,500"/>
		</g>
		<g>
			<path class="st2" d="M0,500"/>
		</g>
		<g>
			<path class="st2" d="M0,500"/>
		</g>
		<g>
			<path class="st2" d="M0,500"/>
		</g>
		<g>
			<path class="st2" d="M0,500"/>
		</g>
		<g>
			<path class="st2" d="M0,500"/>
		</g>
		<g>
			<path class="st2" d="M0,500"/>
		</g>
		<g>
			<path class="st2" d="M0,500"/>
		</g>
	</g>
</g>
</svg>
