<?xml version="1.0" encoding="iso-8859-1"?>
<!-- Generator: Adobe Illustrator 29.6.1, SVG Export Plug-In . SVG Version: 9.03 Build 0)  -->
<svg version="1.1" id="Layer_1" xmlns="http://www.w3.org/2000/svg" xmlns:xlink="http://www.w3.org/1999/xlink" x="0px" y="0px"
	 viewBox="0 0 500 500" style="enable-background:new 0 0 500 500;" xml:space="preserve">
<g>
	<g>
		<path style="fill:#F9423A;" d="M191,410h-12V286h-58v124h-12V280c0-3.313,2.687-6,6-6h70c3.313,0,6,2.687,6,6V410z"/>
	</g>
	<g>
		<path style="fill:#F9423A;" d="M185,346h-70c-3.313,0-6-2.687-6-6s2.687-6,6-6h70c3.313,0,6,2.687,6,6S188.313,346,185,346z
			 M285,271h-70c-3.313,0-6-2.687-6-6s2.687-6,6-6h70c3.313,0,6,2.687,6,6S288.313,271,285,271z M385,236h-70c-3.313,0-6-2.687-6-6
			s2.687-6,6-6h70c3.313,0,6,2.687,6,6S388.313,236,385,236z"/>
	</g>
	<g>
		<path style="fill:#F9423A;" d="M391,410h-12V96h-58v314h-12V90c0-3.314,2.687-6,6-6h70c3.313,0,6,2.686,6,6V410z M291,410h-12V181
			h-58v229h-12V175c0-3.314,2.686-6,6-6h70c3.313,0,6,2.686,6,6V410z"/>
	</g>
	<g>
		<path style="fill:#F9423A;" d="M410,416H90c-3.313,0-6-2.687-6-6s2.687-6,6-6h320c3.313,0,6,2.687,6,6S413.313,416,410,416z"/>
	</g>
</g>
</svg>
