<?xml version="1.0" encoding="utf-8"?>
<!-- Generator: Adobe Illustrator 27.5.0, SVG Export Plug-In . SVG Version: 6.00 Build 0)  -->
<svg version="1.1" id="Layer_1" xmlns="http://www.w3.org/2000/svg" xmlns:xlink="http://www.w3.org/1999/xlink" x="0px" y="0px"
	 viewBox="0 0 500 500" style="enable-background:new 0 0 500 500;" xml:space="preserve">
<style type="text/css">
	.st0{clip-path:url(#SVGID_00000072993599783592683810000016769487966650792868_);}
	.st1{fill:#F9423A;}
	.st2{display:none;fill:none;stroke:#F9423A;stroke-width:12;stroke-linecap:round;stroke-linejoin:round;}
	.st3{fill:none;stroke:#F9423A;stroke-width:12;stroke-linecap:round;stroke-linejoin:round;}
</style>
<g>
	<g>
		<g>
			<defs>
				<rect id="SVGID_1_" width="500" height="500"/>
			</defs>
			<clipPath id="SVGID_00000043430204059452789210000017347997451139411638_">
				<use xlink:href="#SVGID_1_"  style="overflow:visible;"/>
			</clipPath>
			<g style="clip-path:url(#SVGID_00000043430204059452789210000017347997451139411638_);">
				<g>
					<path class="st1" d="M310.2,421h-120c-11.5,0-20.8-9.3-20.8-20.8V127.9c0-11.5,9.3-20.8,20.8-20.8h16v-9.6
						c0-11.5,9.3-20.8,20.8-20.8h46.2c11.5,0,20.8,9.3,20.8,20.8v9.6h16.2c11.5,0,20.8,9.3,20.8,20.8v272.2
						C331,411.6,321.7,421,310.2,421z M190.2,119.1c-4.9,0-8.8,3.9-8.8,8.8v272.3c0,4.9,3.9,8.8,8.8,8.8h120c4.9,0,8.8-3.9,8.8-8.9
						V127.9c0-4.9-3.9-8.8-8.8-8.8H190.2z M218.2,107.1H282v-9.6c0-4.9-3.9-8.8-8.8-8.8H227c-4.9,0-8.8,3.9-8.8,8.8V107.1z"/>
				</g>
				<g>
					<path class="st1" d="M237.3,342.7c-0.7,0-1.4-0.1-2.1-0.4c-2.6-1-4.1-3.6-3.8-6.3l5.4-46H208c-2.1,0-4-1.1-5.1-2.9
						s-1.2-4-0.2-5.9l48.5-92.8c1.3-2.5,4.3-3.8,7-3c2.8,0.8,4.5,3.5,4.3,6.3l-5.9,60.5H292c2.2,0,4.3,1.2,5.3,3.2
						c1,2,0.9,4.4-0.4,6.2L242.2,340C241.1,341.8,239.2,342.7,237.3,342.7z M217.9,278h25.6c1.7,0,3.3,0.7,4.5,2
						c1.1,1.3,1.7,3,1.5,4.7l-3.4,29l34.4-49.4H250c-0.1,0-0.2,0-0.3,0c-3.3-0.2-5.8-2.9-5.7-6.1c0-0.2,0-0.4,0-0.5
						c0.1-1.2,1.8-18.3,3.5-36.4L217.9,278z"/>
				</g>
				<g>
					<g>
						<path class="st2" d="M0,500"/>
					</g>
					<g>
						<path class="st3" d="M0,500"/>
					</g>
					<g>
						<path class="st3" d="M0,500"/>
					</g>
					<g>
						<path class="st3" d="M0,500"/>
					</g>
					<g>
						<path class="st3" d="M0,500"/>
					</g>
					<g>
						<path class="st3" d="M0,500"/>
					</g>
					<g>
						<path class="st3" d="M0,500"/>
					</g>
					<g>
						<path class="st3" d="M0,500"/>
					</g>
					<g>
						<path class="st3" d="M0,500"/>
					</g>
					<g>
						<path class="st3" d="M0,500"/>
					</g>
					<g>
						<path class="st3" d="M0,500"/>
					</g>
					<g>
						<path class="st3" d="M0,500"/>
					</g>
				</g>
			</g>
		</g>
	</g>
</g>
</svg>
