<?xml version="1.0" encoding="iso-8859-1"?>
<!-- Generator: Adobe Illustrator 29.6.1, SVG Export Plug-In . SVG Version: 9.03 Build 0)  -->
<svg version="1.1" id="Layer_1" xmlns="http://www.w3.org/2000/svg" xmlns:xlink="http://www.w3.org/1999/xlink" x="0px" y="0px"
	 viewBox="0 0 500 500" style="enable-background:new 0 0 500 500;" xml:space="preserve">
<g>
	<g>
		<path style="fill:#F9423A;" d="M320,443.5H180c-14.336,0-26-11.663-26-26v-310c0-14.336,11.664-26,26-26h19.019
			c0.528-13.875,11.979-25,25.981-25h50c14.001,0,25.453,11.125,25.981,25H320c14.337,0,26,11.664,26,26v310
			C346,431.837,334.337,443.5,320,443.5z M180,93.5c-7.72,0-14,6.28-14,14v310c0,7.72,6.28,14,14,14h140c7.72,0,14-6.28,14-14v-310
			c0-7.72-6.28-14-14-14h-25c-3.313,0-6-2.687-6-6v-5c0-7.72-6.28-14-14-14h-50c-7.72,0-14,6.28-14,14v5c0,3.313-2.687,6-6,6H180z"
			/>
	</g>
	<g>
		<path style="fill:#F9423A;" d="M305,408.5H195c-3.313,0-6-2.687-6-6v-280c0-3.313,2.687-6,6-6h110c3.313,0,6,2.687,6,6v280
			C311,405.813,308.313,408.5,305,408.5z M201,396.5h98v-58h-98V396.5z M201,326.5h98v-58h-98V326.5z M201,256.5h98v-58h-98V256.5z
			 M201,186.5h98v-58h-98V186.5z"/>
	</g>
</g>
</svg>
