<?xml version="1.0" encoding="iso-8859-1"?>
<!-- Generator: Adobe Illustrator 29.6.1, SVG Export Plug-In . SVG Version: 9.03 Build 0)  -->
<svg version="1.1" id="Layer_1" xmlns="http://www.w3.org/2000/svg" xmlns:xlink="http://www.w3.org/1999/xlink" x="0px" y="0px"
	 viewBox="0 0 500 500" style="enable-background:new 0 0 500 500;" xml:space="preserve">
<g>
	<g>
		<path style="fill:#F9423A;" d="M392.5,346h-310c-14.336,0-26-11.663-26-26V180c0-14.336,11.664-26,26-26h310
			c14.337,0,26,11.664,26,26v19.019c13.874,0.528,25,11.979,25,25.981v50c0,14.001-11.126,25.453-25,25.981V320
			C418.5,334.337,406.837,346,392.5,346z M82.5,166c-7.72,0-14,6.28-14,14v140c0,7.72,6.28,14,14,14h310c7.72,0,14-6.28,14-14v-25
			c0-3.313,2.687-6,6-6h5c7.72,0,14-6.28,14-14v-50c0-7.72-6.28-14-14-14h-5c-3.313,0-6-2.687-6-6v-25c0-7.72-6.28-14-14-14H82.5z"
			/>
	</g>
	<g>
		<path style="fill:#F9423A;" d="M377.5,311h-280c-3.313,0-6-2.687-6-6V195c0-3.313,2.687-6,6-6h280c3.313,0,6,2.687,6,6v110
			C383.5,308.313,380.813,311,377.5,311z M313.5,299h58v-98h-58V299z M243.5,299h58v-98h-58V299z M173.5,299h58v-98h-58V299z
			 M103.5,299h58v-98h-58V299z"/>
	</g>
</g>
</svg>
