<?xml version="1.0" encoding="utf-8"?>
<!-- Generator: Adobe Illustrator 27.5.0, SVG Export Plug-In . SVG Version: 6.00 Build 0)  -->
<svg version="1.1" id="Layer_1" xmlns="http://www.w3.org/2000/svg" xmlns:xlink="http://www.w3.org/1999/xlink" x="0px" y="0px"
	 viewBox="0 0 500 500" style="enable-background:new 0 0 500 500;" xml:space="preserve">
<style type="text/css">
	.st0{display:none;fill:none;}
	.st1{fill:none;}
	.st2{fill:none;stroke:#F9423A;stroke-width:12;stroke-linecap:round;stroke-linejoin:round;}
	.st3{fill:#F9423A;}
</style>
<g>
	<g>
		<path class="st0" d="M0,370"/>
		<g>
			<path class="st0" d="M0,370"/>
		</g>
	</g>
	<g>
		<path class="st1" d="M0,370"/>
	</g>
	<g>
		<path class="st1" d="M0,370"/>
	</g>
</g>
<g>
	<path class="st2" d="M0,500"/>
</g>
<g>
	<g>
		<g>
			<g>
				<path class="st3" d="M89.4,131.6v-0.2c0-16,9.7-29,24.5-29c14.7,0,24.4,12.9,24.4,28.9v0.2c0,16.1-9.8,29-24.6,29
					C99,160.6,89.4,147.7,89.4,131.6z M128.1,131.6v-0.2c0-11-5.7-20.2-14.3-20.2s-14.3,8.9-14.3,20v0.2c0,11,5.7,20.2,14.3,20.2
					C122.7,151.6,128.1,142.8,128.1,131.6z"/>
				<path class="st3" d="M113.8,161.5c-14.7,0-25.3-12.5-25.3-29.8v-0.2c0-17.4,10.7-29.9,25.5-29.9c14.7,0,25.3,12.5,25.3,29.8v0.2
					C139.2,148.9,128.5,161.5,113.8,161.5z M113.9,103.3c-13.7,0-23.7,11.8-23.7,28.2v0.2c0,16.3,9.9,28.1,23.6,28.1
					s23.7-11.8,23.7-28.2v-0.2C137.4,115.1,127.5,103.3,113.9,103.3z M113.9,152.5c-8.9,0-15.2-8.9-15.2-21v-0.2
					c0-12.3,6.2-20.9,15.1-20.9s15.2,8.9,15.2,21v0.2C129,144,122.8,152.5,113.9,152.5z M113.8,112.2c-7.8,0-13.4,7.8-13.4,19.1v0.2
					c0,11.2,5.7,19.3,13.5,19.3s13.4-7.8,13.4-19.1v-0.2C127.3,120.3,121.6,112.2,113.8,112.2z"/>
			</g>
			<g>
				<path class="st3" d="M171.9,113l-10.1,2.8l-2.1-8l15.1-4.8h6.9v56.6h-9.8L171.9,113L171.9,113z"/>
				<path class="st3" d="M181.7,160.5h-9.8c-0.5,0-0.9-0.3-0.9-0.9v-45.5l-9,2.5c-0.3,0.1-0.4,0-0.7-0.1c-0.2-0.1-0.3-0.3-0.4-0.5
					l-2.1-8c-0.1-0.4,0.2-0.9,0.6-1l15.1-4.8c0.1,0,0.2,0,0.3,0h6.9c0.5,0,0.9,0.3,0.9,0.9v56.6
					C182.6,160.1,182.1,160.5,181.7,160.5z M172.8,158.8h8.1v-54.9H175l-14.2,4.5l1.7,6.3l9.3-2.6c0.3-0.1,0.5,0,0.8,0.2
					c0.2,0.2,0.3,0.4,0.3,0.7L172.8,158.8L172.8,158.8z"/>
			</g>
			<g>
				<path class="st3" d="M202.9,131.6v-0.2c0-16.1,9.8-29,24.6-29c14.7,0,24.4,12.9,24.4,28.9v0.2c0,16.1-9.8,29-24.6,29
					C212.5,160.6,202.9,147.7,202.9,131.6z M241.6,131.6v-0.2c0-11-5.7-20.2-14.3-20.2c-8.7,0-14.3,8.9-14.3,20v0.2
					c0,11,5.7,20.2,14.3,20.2C236.1,151.6,241.6,142.8,241.6,131.6z"/>
				<path class="st3" d="M227.3,161.5c-14.7,0-25.3-12.5-25.3-29.8v-0.2c0-17.4,10.7-29.9,25.5-29.9c14.7,0,25.3,12.5,25.3,29.8v0.2
					C252.8,148.9,242.1,161.5,227.3,161.5z M227.5,103.3c-13.7,0-23.7,11.8-23.7,28.2v0.2c0,16.3,9.9,28.1,23.6,28.1
					c13.7,0,23.7-11.8,23.7-28.2v-0.2C251,115.1,241.1,103.3,227.5,103.3z M227.5,152.5c-8.9,0-15.2-8.9-15.2-21v-0.2
					c0-12.3,6.2-20.9,15.1-20.9c8.9,0,15.2,8.9,15.2,21v0.2C242.5,144,236.3,152.5,227.5,152.5z M227.3,112.2
					c-7.8,0-13.4,7.8-13.4,19.1v0.2c0,11.2,5.7,19.3,13.5,19.3s13.4-7.8,13.4-19.1v-0.2C240.8,120.3,235.1,112.2,227.3,112.2z"/>
			</g>
			<g>
				<path class="st3" d="M285.4,113l-10.1,2.8l-2.1-8l15.1-4.8h6.9v56.6h-9.8V113z"/>
				<path class="st3" d="M295.2,160.5h-9.8c-0.5,0-0.9-0.3-0.9-0.9v-45.5l-9,2.5c-0.3,0.1-0.4,0-0.7-0.1c-0.2-0.1-0.3-0.3-0.4-0.5
					l-2.1-8c-0.1-0.4,0.2-0.9,0.6-1l15.1-4.8c0.1,0,0.2,0,0.3,0h6.9c0.5,0,0.9,0.3,0.9,0.9v56.6
					C296.1,160.1,295.6,160.5,295.2,160.5z M286.2,158.8h8.1v-54.9h-5.9l-14.2,4.5l1.7,6.3l9.3-2.6c0.3-0.1,0.5,0,0.8,0.2
					c0.2,0.2,0.3,0.4,0.3,0.7L286.2,158.8L286.2,158.8z"/>
			</g>
			<g>
				<path class="st3" d="M316.3,131.6v-0.2c0-16.1,9.8-29,24.6-29c14.7,0,24.4,12.9,24.4,28.9v0.2c0,16.1-9.8,29-24.6,29
					C326,160.6,316.3,147.7,316.3,131.6z M355.2,131.6v-0.2c0-11-5.7-20.2-14.3-20.2c-8.7,0-14.3,8.9-14.3,20v0.2
					c0,11,5.7,20.2,14.3,20.2C349.7,151.6,355.2,142.8,355.2,131.6z"/>
				<path class="st3" d="M340.8,161.5c-14.7,0-25.3-12.5-25.3-29.8v-0.2c0-17.4,10.7-29.9,25.5-29.9c14.7,0,25.3,12.5,25.3,29.8v0.2
					C366.2,148.9,355.6,161.5,340.8,161.5z M340.9,103.3c-13.7,0-23.7,11.8-23.7,28.2v0.2c0,16.3,9.9,28.1,23.6,28.1
					s23.7-11.8,23.7-28.2v-0.2C364.5,115.1,354.6,103.3,340.9,103.3z M340.9,152.5c-8.9,0-15.2-8.9-15.2-21v-0.2
					c0-12.3,6.2-20.9,15.1-20.9s15.2,8.9,15.2,21v0.2C356.1,144,349.8,152.5,340.9,152.5z M340.8,112.2c-7.8,0-13.4,7.8-13.4,19.1
					v0.2c0,11.2,5.7,19.3,13.5,19.3s13.4-7.8,13.4-19.1v-0.2C354.3,120.3,348.6,112.2,340.8,112.2z"/>
			</g>
			<g>
				<path class="st3" d="M398.9,113l-10.1,2.8l-2.1-8l15.1-4.8h6.9v56.6h-9.8V113z"/>
				<path class="st3" d="M408.6,160.5h-9.7c-0.5,0-0.9-0.3-0.9-0.9v-45.5l-9,2.5c-0.3,0.1-0.4,0-0.7-0.1c-0.2-0.1-0.3-0.3-0.4-0.5
					l-2.1-8c-0.1-0.4,0.2-0.9,0.6-1l15.1-4.8c0.1,0,0.2,0,0.3,0h6.9c0.5,0,0.9,0.3,0.9,0.9v56.6
					C409.5,160.1,409.1,160.5,408.6,160.5z M399.7,158.8h8.1v-54.9h-5.9l-14.2,4.5l1.7,6.3l9.3-2.6c0.3-0.1,0.5,0,0.8,0.2
					c0.2,0.2,0.3,0.4,0.3,0.7L399.7,158.8L399.7,158.8z"/>
			</g>
		</g>
	</g>
	<g>
		<g>
			<g>
				<path class="st3" d="M89.4,250.1V250c0-16,9.7-29,24.5-29c14.7,0,24.4,12.9,24.4,28.9v0.2c0,16.1-9.8,29-24.6,29
					C99,279.1,89.4,266.2,89.4,250.1z M128.1,250.1V250c0-11-5.7-20.2-14.3-20.2s-14.3,8.9-14.3,20v0.2c0,11,5.7,20.2,14.3,20.2
					C122.7,270.1,128.1,261.3,128.1,250.1z"/>
				<path class="st3" d="M113.8,279.9c-14.7,0-25.3-12.5-25.3-29.8V250c0-17.4,10.7-29.9,25.5-29.9c14.7,0,25.3,12.5,25.3,29.8v0.2
					C139.2,267.3,128.5,279.9,113.8,279.9z M113.9,221.8c-13.7,0-23.7,11.8-23.7,28.2v0.2c0,16.3,9.9,28.1,23.6,28.1
					s23.7-11.8,23.7-28.2v-0.2C137.4,233.6,127.5,221.8,113.9,221.8z M113.9,271c-8.9,0-15.2-8.9-15.2-21v-0.2
					c0-12.3,6.2-20.9,15.1-20.9s15.2,8.9,15.2,21v0.2C129,262.5,122.8,271,113.9,271z M113.8,230.7c-7.8,0-13.4,7.8-13.4,19.1v0.2
					c0,11.2,5.7,19.3,13.5,19.3s13.4-7.8,13.4-19.1V250C127.3,238.8,121.6,230.7,113.8,230.7z"/>
			</g>
			<g>
				<path class="st3" d="M171.9,231.5l-10.1,2.8l-2.1-8l15.1-4.8h6.9v56.6h-9.8L171.9,231.5L171.9,231.5z"/>
				<path class="st3" d="M181.7,279h-9.8c-0.5,0-0.9-0.3-0.9-0.9v-45.5l-9,2.5c-0.3,0.1-0.4,0-0.7-0.1c-0.2-0.1-0.3-0.3-0.4-0.5
					l-2.1-8c-0.1-0.4,0.2-0.9,0.6-1l15.1-4.8c0.1,0,0.2,0,0.3,0h6.9c0.5,0,0.9,0.3,0.9,0.9v56.6C182.6,278.6,182.1,279,181.7,279z
					 M172.8,277.3h8.1v-54.9H175l-14.2,4.5l1.7,6.3l9.3-2.6c0.3-0.1,0.5,0,0.8,0.2c0.2,0.2,0.3,0.4,0.3,0.7L172.8,277.3L172.8,277.3
					z"/>
			</g>
			<g>
				<path class="st3" d="M202.9,250.1V250c0-16.1,9.8-29,24.6-29c14.7,0,24.4,12.9,24.4,28.9v0.2c0,16.1-9.8,29-24.6,29
					C212.5,279.1,202.9,266.2,202.9,250.1z M241.6,250.1V250c0-11-5.7-20.2-14.3-20.2c-8.7,0-14.3,8.9-14.3,20v0.2
					c0,11,5.7,20.2,14.3,20.2C236.1,270.1,241.6,261.3,241.6,250.1z"/>
				<path class="st3" d="M227.3,279.9c-14.7,0-25.3-12.5-25.3-29.8V250c0-17.4,10.7-29.9,25.5-29.9c14.7,0,25.3,12.5,25.3,29.8v0.2
					C252.8,267.3,242.1,279.9,227.3,279.9z M227.5,221.8c-13.7,0-23.7,11.8-23.7,28.2v0.2c0,16.3,9.9,28.1,23.6,28.1
					c13.7,0,23.7-11.8,23.7-28.2v-0.2C251,233.6,241.1,221.8,227.5,221.8z M227.5,271c-8.9,0-15.2-8.9-15.2-21v-0.2
					c0-12.3,6.2-20.9,15.1-20.9c8.9,0,15.2,8.9,15.2,21v0.2C242.5,262.5,236.3,271,227.5,271z M227.3,230.7
					c-7.8,0-13.4,7.8-13.4,19.1v0.2c0,11.2,5.7,19.3,13.5,19.3s13.4-7.8,13.4-19.1V250C240.8,238.8,235.1,230.7,227.3,230.7z"/>
			</g>
			<g>
				<path class="st3" d="M285.4,231.5l-10.1,2.8l-2.1-8l15.1-4.8h6.9v56.6h-9.8V231.5z"/>
				<path class="st3" d="M295.2,279h-9.8c-0.5,0-0.9-0.3-0.9-0.9v-45.5l-9,2.5c-0.3,0.1-0.4,0-0.7-0.1c-0.2-0.1-0.3-0.3-0.4-0.5
					l-2.1-8c-0.1-0.4,0.2-0.9,0.6-1l15.1-4.8c0.1,0,0.2,0,0.3,0h6.9c0.5,0,0.9,0.3,0.9,0.9v56.6C296.1,278.6,295.6,279,295.2,279z
					 M286.2,277.3h8.1v-54.9h-5.9l-14.2,4.5l1.7,6.3l9.3-2.6c0.3-0.1,0.5,0,0.8,0.2c0.2,0.2,0.3,0.4,0.3,0.7L286.2,277.3
					L286.2,277.3z"/>
			</g>
			<g>
				<path class="st3" d="M316.3,250.1V250c0-16.1,9.8-29,24.6-29c14.7,0,24.4,12.9,24.4,28.9v0.2c0,16.1-9.8,29-24.6,29
					C326,279.1,316.3,266.2,316.3,250.1z M355.2,250.1V250c0-11-5.7-20.2-14.3-20.2c-8.7,0-14.3,8.9-14.3,20v0.2
					c0,11,5.7,20.2,14.3,20.2C349.7,270.1,355.2,261.3,355.2,250.1z"/>
				<path class="st3" d="M340.8,279.9c-14.7,0-25.3-12.5-25.3-29.8V250c0-17.4,10.7-29.9,25.5-29.9c14.7,0,25.3,12.5,25.3,29.8v0.2
					C366.2,267.3,355.6,279.9,340.8,279.9z M340.9,221.8c-13.7,0-23.7,11.8-23.7,28.2v0.2c0,16.3,9.9,28.1,23.6,28.1
					s23.7-11.8,23.7-28.2v-0.2C364.5,233.6,354.6,221.8,340.9,221.8z M340.9,271c-8.9,0-15.2-8.9-15.2-21v-0.2
					c0-12.3,6.2-20.9,15.1-20.9s15.2,8.9,15.2,21v0.2C356.1,262.5,349.8,271,340.9,271z M340.8,230.7c-7.8,0-13.4,7.8-13.4,19.1v0.2
					c0,11.2,5.7,19.3,13.5,19.3s13.4-7.8,13.4-19.1V250C354.3,238.8,348.6,230.7,340.8,230.7z"/>
			</g>
			<g>
				<path class="st3" d="M398.9,231.5l-10.1,2.8l-2.1-8l15.1-4.8h6.9v56.6h-9.8V231.5z"/>
				<path class="st3" d="M408.6,279h-9.7c-0.5,0-0.9-0.3-0.9-0.9v-45.5l-9,2.5c-0.3,0.1-0.4,0-0.7-0.1c-0.2-0.1-0.3-0.3-0.4-0.5
					l-2.1-8c-0.1-0.4,0.2-0.9,0.6-1l15.1-4.8c0.1,0,0.2,0,0.3,0h6.9c0.5,0,0.9,0.3,0.9,0.9v56.6C409.5,278.6,409.1,279,408.6,279z
					 M399.7,277.3h8.1v-54.9h-5.9l-14.2,4.5l1.7,6.3l9.3-2.6c0.3-0.1,0.5,0,0.8,0.2c0.2,0.2,0.3,0.4,0.3,0.7L399.7,277.3
					L399.7,277.3z"/>
			</g>
		</g>
	</g>
	<g>
		<g>
			<g>
				<path class="st3" d="M91.4,368.6v-0.2c0-16,9.7-29,24.5-29c14.7,0,24.4,12.9,24.4,28.9v0.2c0,16.1-9.8,29-24.6,29
					C101,397.6,91.4,384.7,91.4,368.6z M130.2,368.6v-0.2c0-11-5.7-20.2-14.3-20.2s-14.3,8.9-14.3,20v0.2c0,11,5.7,20.2,14.3,20.2
					C124.7,388.6,130.2,379.7,130.2,368.6z"/>
				<path class="st3" d="M115.8,398.4c-14.7,0-25.3-12.5-25.3-29.8v-0.2c0-17.4,10.7-29.9,25.5-29.9c14.7,0,25.3,12.5,25.3,29.8v0.2
					C141.2,385.8,130.5,398.4,115.8,398.4z M115.9,340.3c-13.7,0-23.7,11.8-23.7,28.2v0.2c0,16.3,9.9,28.1,23.6,28.1
					s23.7-11.8,23.7-28.2v-0.2C139.5,352.1,129.6,340.3,115.9,340.3z M115.9,389.5c-8.9,0-15.2-8.9-15.2-21v-0.2
					c0-12.3,6.2-20.9,15.1-20.9s15.2,8.9,15.2,21v0.2C131,381,124.9,389.5,115.9,389.5z M115.8,349.1c-7.8,0-13.4,7.8-13.4,19.1v0.2
					c0,11.2,5.7,19.3,13.5,19.3s13.4-7.8,13.4-19.1v-0.2C129.3,357.3,123.6,349.1,115.8,349.1z"/>
			</g>
			<g>
				<path class="st3" d="M173.9,350l-10.1,2.8l-2.1-8l15.1-4.8h6.9v56.6h-9.8L173.9,350L173.9,350z"/>
				<path class="st3" d="M183.7,397.5h-9.8c-0.5,0-0.9-0.3-0.9-0.9v-45.5l-9,2.5c-0.3,0.1-0.4,0-0.7-0.1c-0.2-0.1-0.3-0.3-0.4-0.5
					l-2.1-8c-0.1-0.4,0.2-0.9,0.6-1l15.1-4.8c0.1,0,0.2,0,0.3,0h6.9c0.5,0,0.9,0.3,0.9,0.9v56.6C184.6,397,184.2,397.5,183.7,397.5z
					 M174.8,395.7h8.1v-54.9H177l-14.2,4.5l1.7,6.3l9.3-2.6c0.3-0.1,0.5,0,0.8,0.2c0.2,0.2,0.3,0.4,0.3,0.7L174.8,395.7L174.8,395.7
					z"/>
			</g>
			<g>
				<path class="st3" d="M204.9,368.6v-0.2c0-16.1,9.8-29,24.6-29c14.7,0,24.4,12.9,24.4,28.9v0.2c0,16.1-9.8,29-24.6,29
					C214.5,397.6,204.9,384.7,204.9,368.6z M243.7,368.6v-0.2c0-11-5.7-20.2-14.3-20.2c-8.7,0-14.3,8.9-14.3,20v0.2
					c0,11,5.7,20.2,14.3,20.2C238.2,388.6,243.7,379.7,243.7,368.6z"/>
				<path class="st3" d="M229.3,398.4c-14.7,0-25.3-12.5-25.3-29.8v-0.2c0-17.4,10.7-29.9,25.5-29.9c14.7,0,25.3,12.5,25.3,29.8v0.2
					C254.8,385.8,244.1,398.4,229.3,398.4z M229.5,340.3c-13.7,0-23.7,11.8-23.7,28.2v0.2c0,16.3,9.9,28.1,23.6,28.1
					c13.7,0,23.7-11.8,23.7-28.2v-0.2C253,352.1,243.1,340.3,229.5,340.3z M229.5,389.5c-8.9,0-15.2-8.9-15.2-21v-0.2
					c0-12.3,6.2-20.9,15.1-20.9c8.9,0,15.2,8.9,15.2,21v0.2C244.5,381,238.4,389.5,229.5,389.5z M229.3,349.1
					c-7.8,0-13.4,7.8-13.4,19.1v0.2c0,11.2,5.7,19.3,13.5,19.3s13.4-7.8,13.4-19.1v-0.2C242.8,357.3,237.1,349.1,229.3,349.1z"/>
			</g>
			<g>
				<path class="st3" d="M287.4,350l-10.1,2.8l-2.1-8l15.1-4.8h6.9v56.6h-9.8V350z"/>
				<path class="st3" d="M297.2,397.5h-9.8c-0.5,0-0.9-0.3-0.9-0.9v-45.5l-9,2.5c-0.3,0.1-0.4,0-0.7-0.1c-0.2-0.1-0.3-0.3-0.4-0.5
					l-2.1-8c-0.1-0.4,0.2-0.9,0.6-1l15.1-4.8c0.1,0,0.2,0,0.3,0h6.9c0.5,0,0.9,0.3,0.9,0.9v56.6C298.1,397,297.7,397.5,297.2,397.5z
					 M288.3,395.7h8.1v-54.9h-5.9l-14.2,4.5l1.7,6.3l9.3-2.6c0.3-0.1,0.5,0,0.8,0.2c0.2,0.2,0.3,0.4,0.3,0.7L288.3,395.7
					L288.3,395.7z"/>
			</g>
			<g>
				<path class="st3" d="M318.4,368.6v-0.2c0-16.1,9.8-29,24.6-29c14.7,0,24.4,12.9,24.4,28.9v0.2c0,16.1-9.8,29-24.6,29
					S318.4,384.7,318.4,368.6z M357.2,368.6v-0.2c0-11-5.7-20.2-14.3-20.2c-8.7,0-14.3,8.9-14.3,20v0.2c0,11,5.7,20.2,14.3,20.2
					C351.8,388.6,357.2,379.7,357.2,368.6z"/>
				<path class="st3" d="M342.8,398.4c-14.7,0-25.3-12.5-25.3-29.8v-0.2c0-17.4,10.7-29.9,25.5-29.9c14.7,0,25.3,12.5,25.3,29.8v0.2
					C368.3,385.8,357.6,398.4,342.8,398.4z M343,340.3c-13.7,0-23.7,11.8-23.7,28.2v0.2c0,16.3,9.9,28.1,23.6,28.1
					s23.7-11.8,23.7-28.2v-0.2C366.5,352.1,356.6,340.3,343,340.3z M343,389.5c-8.9,0-15.2-8.9-15.2-21v-0.2
					c0-12.3,6.2-20.9,15.1-20.9s15.2,8.9,15.2,21v0.2C358.1,381,351.8,389.5,343,389.5z M342.8,349.1c-7.8,0-13.4,7.8-13.4,19.1v0.2
					c0,11.2,5.7,19.3,13.5,19.3s13.4-7.8,13.4-19.1v-0.2C356.4,357.3,350.6,349.1,342.8,349.1z"/>
			</g>
			<g>
				<path class="st3" d="M400.9,350l-10.1,2.8l-2.1-8l15.1-4.8h6.9v56.6h-9.8V350z"/>
				<path class="st3" d="M410.6,397.5h-9.7c-0.5,0-0.9-0.3-0.9-0.9v-45.5l-9,2.5c-0.3,0.1-0.4,0-0.7-0.1c-0.2-0.1-0.3-0.3-0.4-0.5
					l-2.1-8c-0.1-0.4,0.2-0.9,0.6-1l15.1-4.8c0.1,0,0.2,0,0.3,0h6.9c0.5,0,0.9,0.3,0.9,0.9v56.6C411.5,397,411.2,397.5,410.6,397.5z
					 M401.8,395.7h8.1v-54.9H404l-14.2,4.5l1.7,6.3l9.3-2.6c0.3-0.1,0.5,0,0.8,0.2c0.2,0.2,0.3,0.4,0.3,0.7L401.8,395.7L401.8,395.7
					z"/>
			</g>
		</g>
	</g>
</g>
</svg>
