<?xml version="1.0" encoding="utf-8"?>
<!-- Generator: Adobe Illustrator 27.5.0, SVG Export Plug-In . SVG Version: 6.00 Build 0)  -->
<svg version="1.1" id="Layer_1" xmlns="http://www.w3.org/2000/svg" xmlns:xlink="http://www.w3.org/1999/xlink" x="0px" y="0px"
	 viewBox="0 0 500 500" style="enable-background:new 0 0 500 500;" xml:space="preserve">
<style type="text/css">
	.st0{fill:#F9423A;}
	.st1{display:none;fill:none;stroke:#F9423A;stroke-width:12.04;stroke-linecap:round;stroke-linejoin:round;}
	.st2{fill:none;stroke:#F9423A;stroke-width:12.04;stroke-linecap:round;stroke-linejoin:round;}
</style>
<g>
	<g>
		<path class="st0" d="M250,269.1c-51.1,0-92.6-41.5-92.6-92.6s41.5-92.6,92.6-92.6s92.6,41.5,92.6,92.6S301.1,269.1,250,269.1z
			 M250,95.9c-44.4,0-80.6,36.2-80.6,80.6s36.2,80.6,80.6,80.6s80.6-36.2,80.6-80.6S294.4,95.9,250,95.9z"/>
	</g>
	<g>
		<path class="st0" d="M244.6,240.9c-0.6,0-1.2-0.1-1.7-0.3c-2.5-0.8-4.3-3.1-4.3-5.7v-36.5h-25.8c-2.1,0-4.1-1.1-5.2-3
			c-1.1-1.9-1.1-4.1,0-6l42.5-74.3c1.3-2.4,4.1-3.5,6.7-2.8s4.5,3.1,4.5,5.8v47.1h25.8c2.2,0,4.2,1.2,5.3,3.2c1,2,0.9,4.3-0.3,6.2
			l-42.5,63.7C248.5,239.9,246.6,240.9,244.6,240.9z M223.1,186.4h21.5c3.3,0,6,2.7,6,6v22.7l25.3-37.9h-20.6c-3.3,0-6-2.7-6-6
			v-30.5L223.1,186.4z"/>
	</g>
	<g>
		<path class="st0" d="M250,412.8c-3.3,0-6-2.7-6-6c0-8-2.4-35.6-32-59.9c-21,3.9-42.5-1.5-59.5-14.9c-17.7-14-28-35-28.1-57.6
			c0-2.8,1.9-5.3,4.7-5.9c22-5,44.7,0.2,62.5,14.2c16.9,13.4,27,33.2,28,54.8c32.9,26.9,36.5,57.3,36.5,69.2
			C256,410.1,253.3,412.8,250,412.8z M136.6,279.3c1.4,17,9.8,32.5,23.3,43.3l0,0c13.5,10.7,30.6,15.3,47.4,12.9
			c-1.5-17-9.8-32.6-23.3-43.3C170.5,281.5,153.5,276.9,136.6,279.3z"/>
	</g>
	<g>
		<path class="st0" d="M250,412.8c-3.3,0-6-2.7-6-6c0-12.1,3.6-42.5,36.5-69.2c1-28.3,14.2-54.4,36.5-72.1
			c22.9-18.2,52.6-25,81.3-18.7c2.8,0.6,4.7,3.1,4.7,5.9c-0.2,29.4-13.6,56.8-36.6,75c-22.2,17.6-50.6,24.5-78.5,19.2
			c-28.8,23.4-31.9,49.6-31.9,59.9C256,410.1,253.3,412.8,250,412.8z M292.6,335.6c23.6,3.8,47.6-2.4,66.4-17.3l0,0
			c18.9-14.9,30.3-36.8,31.8-60.7c-23.6-3.8-47.6,2.4-66.4,17.3C305.6,289.9,294.1,311.8,292.6,335.6z"/>
	</g>
	<g>
		<path class="st0" d="M410.1,416.1H89.9c-3.3,0-6-2.7-6-6s2.7-6,6-6h320.2c3.3,0,6,2.7,6,6S413.4,416.1,410.1,416.1z"/>
	</g>
	<g>
		<g>
			<path class="st1" d="M0,500"/>
		</g>
		<g>
			<path class="st2" d="M0,500"/>
		</g>
		<g>
			<path class="st2" d="M0,500"/>
		</g>
		<g>
			<path class="st2" d="M0,500"/>
		</g>
		<g>
			<path class="st2" d="M0,500"/>
		</g>
		<g>
			<path class="st2" d="M0,500"/>
		</g>
		<g>
			<path class="st2" d="M0,500"/>
		</g>
		<g>
			<path class="st2" d="M0,500"/>
		</g>
		<g>
			<path class="st2" d="M0,500"/>
		</g>
		<g>
			<path class="st2" d="M0,500"/>
		</g>
		<g>
			<path class="st2" d="M0,500"/>
		</g>
		<g>
			<path class="st2" d="M0,500"/>
		</g>
	</g>
</g>
</svg>
