<?xml version="1.0" encoding="utf-8"?>
<!-- Generator: Adobe Illustrator 27.5.0, SVG Export Plug-In . SVG Version: 6.00 Build 0)  -->
<svg version="1.1" id="Layer_1" xmlns="http://www.w3.org/2000/svg" xmlns:xlink="http://www.w3.org/1999/xlink" x="0px" y="0px"
	 viewBox="0 0 500 500" style="enable-background:new 0 0 500 500;" xml:space="preserve">
<style type="text/css">
	.st0{fill:#F9423A;}
	.st1{fill:none;stroke:#F9423A;stroke-width:12;stroke-linecap:round;stroke-linejoin:round;}
</style>
<g>
	<g>
		<path class="st0" d="M410.7,415.7c-49.5,0-78.6-48.1-98.4-89.9c-1.4-3-0.1-6.6,2.9-8s6.6-0.1,8,2.9c27.6,58.2,53.7,83.1,87.6,83.1
			c3.3,0,6,2.7,6,6S414,415.7,410.7,415.7z"/>
	</g>
	<g>
		<path class="st0" d="M86.9,195.6c-0.9,0-1.9-0.2-2.7-0.7c-2.9-1.5-4.1-5.1-2.6-8.1c12.4-24.2,24.9-41.9,38.1-54.2
			c16.2-15.1,33.7-22.4,53.4-22.5h0.1h0.3h0.1c29.8,0.2,55.3,17.5,77.9,53c1.8,2.8,1,6.5-1.8,8.3s-6.5,1-8.3-1.8
			c-20.6-32.3-42.3-47.4-68.1-47.4c-31.2,0.1-56.2,21.7-81.1,70.2C91.2,194.4,89.1,195.6,86.9,195.6z"/>
	</g>
	<g>
		<path class="st0" d="M267.7,339.1c-49.3,0-89.4-40.1-89.4-89.4s40.1-89.4,89.4-89.4s89.4,40.1,89.4,89.4S317,339.1,267.7,339.1z
			 M267.7,172.3c-42.7,0-77.4,34.7-77.4,77.4s34.7,77.4,77.4,77.4s77.4-34.7,77.4-77.4S310.4,172.3,267.7,172.3z"/>
	</g>
	<g>
		<path class="st0" d="M300.8,308.4c-3.3,0-6-2.7-6-6v-30.5h-21c-3.3,0-6-2.7-6-6v-31.3h-21c-3.3,0-6-2.7-6-6v-37.3c0-3.3,2.7-6,6-6
			s6,2.7,6,6v31.3h21c3.3,0,6,2.7,6,6v31.3h21c3.3,0,6,2.7,6,6v36.5C306.8,305.7,304.1,308.4,300.8,308.4z"/>
	</g>
	<g>
		<path class="st1" d="M0,500"/>
	</g>
</g>
</svg>
