<?xml version="1.0" encoding="utf-8"?>
<!-- Generator: Adobe Illustrator 27.5.0, SVG Export Plug-In . SVG Version: 6.00 Build 0)  -->
<svg version="1.1" id="Layer_1" xmlns="http://www.w3.org/2000/svg" xmlns:xlink="http://www.w3.org/1999/xlink" x="0px" y="0px"
	 viewBox="0 0 500 500" style="enable-background:new 0 0 500 500;" xml:space="preserve">
<style type="text/css">
	.st0{fill:#F9423A;}
	.st1{display:none;fill:none;stroke:#F84239;stroke-width:12.6;stroke-linecap:round;stroke-linejoin:round;}
	.st2{fill:none;stroke:#F84239;stroke-width:12.6;stroke-linecap:round;stroke-linejoin:round;}
</style>
<g>
	<g>
		<g>
			<path class="st0" d="M297.7,429.2c-29.8,0-54.1-24.3-54.1-54.1s24.3-54.1,54.1-54.1c3.5,0,6.3,2.8,6.3,6.3s-2.8,6.3-6.3,6.3
				c-22.9,0-41.5,18.6-41.5,41.5s18.6,41.5,41.5,41.5c4.6,0,9.1-0.7,13.4-2.2c3.3-1.1,6.9,0.6,8,3.9s-0.6,6.9-3.9,8
				C309.6,428.2,303.7,429.2,297.7,429.2z M342.6,349.7c-3.5,0-6.3-2.8-6.3-6.3c0-19.7-16.1-35.8-35.8-35.8c-3.5,0-6.3-2.8-6.3-6.3
				s2.8-6.3,6.3-6.3c26.7,0,48.4,21.7,48.4,48.4C348.9,346.9,346.1,349.7,342.6,349.7z M157.1,349.7c-3.5,0-6.3-2.8-6.3-6.3
				c0-26.7,21.7-48.4,48.4-48.4c3.5,0,6.3,2.8,6.3,6.3s-2.8,6.3-6.3,6.3c-19.7,0-35.8,16.1-35.8,35.8
				C163.4,346.9,160.6,349.7,157.1,349.7z M403.3,309.7c-3,0-5.6-2.1-6.2-5.1c-1-5.2-3.4-9.9-7-13.6c-8.7,7.3-19.8,11.5-31.3,11.5
				c-3.5,0-6.3-2.8-6.3-6.3s2.8-6.3,6.3-6.3c9.6,0,18.6-3.7,25.4-10.6c0.2-0.4,0.5-0.8,0.8-1.2c6-6.7,9.4-15.2,9.4-24.2
				c0-12.6-6.4-24-17.1-30.5c-1.5-0.9-2.5-2.4-2.9-4.1s0-3.5,1.1-4.9c4.5-6.2,6.9-13.6,6.9-21c0-11.4-5.5-22.3-14.8-29
				c-1.6-1.2-2.5-3-2.6-4.9c-1.6,1-3.7,1.3-5.6,0.6c-4.1-1.5-8.3-2.3-12.7-2.3c-19.7,0-35.8,16.1-35.8,35.8c0,3.5-2.8,6.3-6.3,6.3
				s-6.3-2.8-6.3-6.3c0-26.7,21.7-48.4,48.4-48.4c5.9,0,11.6,1,17.1,3.1c2.5,0.9,4,3.2,4.1,5.7c2.1-1.3,4.9-1.3,7.1,0.2
				c12.6,9.1,20,23.7,20,39.2c0,7.9-2.1,15.9-5.9,23c11.3,9.1,17.9,22.8,17.9,37.6c0,9.9-3,19.5-8.6,27.5c5.6,5.6,9.5,12.8,11,20.8
				c0.7,3.4-1.6,6.7-5,7.4C404.1,309.6,403.7,309.7,403.3,309.7z M185.9,271.6c-5.4,0-10.6-1.1-15.6-3.2c-3.2-1.4-4.7-5.1-3.3-8.3
				c1.4-3.2,5.1-4.7,8.3-3.3c3.4,1.5,6.9,2.2,10.5,2.2c6.9,0,13.4-2.7,18.3-7.2c-21.6-2.2-39.8-16.9-46.2-38.1
				c-1-3.3,0.9-6.8,4.2-7.9c3.3-1,6.9,0.9,7.9,4.2c5.4,17.6,21.4,29.4,39.8,29.4c13.8,0,26.7-6.9,34.5-18.3c2-2.9,5.9-3.6,8.7-1.7
				c2.9,2,3.6,5.9,1.7,8.7c-8.1,11.9-20.4,20-34.2,22.8C213.6,263.6,200.4,271.6,185.9,271.6z M249.9,122.6c-3.5,0-6.3-2.8-6.3-6.3
				c0-8.8,2.5-17.3,7.3-24.6c1.9-2.9,5.8-3.7,8.7-1.8c2.9,1.9,3.7,5.8,1.8,8.7c-3.4,5.2-5.2,11.3-5.2,17.7
				C256.2,119.8,253.4,122.6,249.9,122.6z"/>
		</g>
		<g>
			<path class="st0" d="M297.7,429.2c-29.8,0-54.1-24.3-54.1-54.1s24.3-54.1,54.1-54.1c3.5,0,6.3,2.8,6.3,6.3s-2.8,6.3-6.3,6.3
				c-22.9,0-41.5,18.6-41.5,41.5s18.6,41.5,41.5,41.5c16,0,30.8-9.4,37.6-24c1.1-2.4,3.6-3.8,6.2-3.6c1.2,0.1,2.3,0.2,3.4,0.2
				c20.7,0,37.6-16.9,37.6-37.6c0-3.6-0.5-7.3-1.6-10.9c-0.8-2.8,0.4-5.8,2.9-7.3c8.5-4.8,13.8-13.9,13.8-23.7
				c0-7-2.7-13.7-7.5-18.8c-8.7,7.3-19.8,11.5-31.2,11.5c-3.5,0-6.3-2.8-6.3-6.3s2.8-6.3,6.3-6.3c9.6,0,18.6-3.7,25.4-10.6
				c0.2-0.4,0.5-0.8,0.8-1.2c6-6.7,9.4-15.2,9.4-24.2c0-12.6-6.4-24-17.1-30.5c-1.5-0.9-2.5-2.4-2.9-4.1c-0.3-1.7,0-3.5,1.1-4.9
				c4.5-6.2,6.9-13.6,6.9-21c0-14.4-8.8-27.5-22.1-33c-0.3-0.1-0.6-0.2-0.9-0.3c-4.1-1.5-8.3-2.3-12.7-2.3
				c-19.7,0-35.8,16.1-35.8,35.8c0,3.5-2.8,6.3-6.3,6.3s-6.3-2.8-6.3-6.3c0-26.7,21.7-48.4,48.4-48.4c2.9,0,5.7,0.2,8.5,0.7
				c-2.1-15.4-15.3-27.2-31.2-27.2h-0.2c-3.2,0-5.9-2.4-6.3-5.6c-1.7-16.3-14.5-28.2-30.4-28.2c-17.4,0-31,13.8-31,31.5
				c0,3.5-2.8,6.3-6.3,6.3s-6.3-2.8-6.3-6.3c0-11.8,4.5-22.9,12.6-31.2c8.2-8.4,19.2-12.9,31-12.9c20.3,0,37.6,14.3,42.1,34.1
				c21.8,2.6,38.9,21.2,38.9,43.7c16.3,8.1,26.9,24.9,26.9,43.3c0,7.9-2.1,15.9-5.9,23c11.3,9.1,17.9,22.8,17.9,37.6
				c0,9.9-3,19.5-8.6,27.6c7.4,7.4,11.7,17.6,11.7,28.2c0,12.7-6.1,24.5-16.1,32c0.7,3.3,1,6.6,1,9.9c0,27.7-22.5,50.2-50.2,50.2
				c-0.1,0-0.1,0-0.2,0C335.2,418.6,317.2,429.2,297.7,429.2z M342.6,349.7c-3.5,0-6.3-2.8-6.3-6.3c0-19.7-16.1-35.8-35.8-35.8
				c-3.5,0-6.3-2.8-6.3-6.3s2.8-6.3,6.3-6.3c26.7,0,48.4,21.7,48.4,48.4C348.9,346.9,346.1,349.7,342.6,349.7z M157.1,349.7
				c-3.5,0-6.3-2.8-6.3-6.3c0-26.7,21.7-48.4,48.4-48.4c3.5,0,6.3,2.8,6.3,6.3s-2.8,6.3-6.3,6.3c-19.7,0-35.8,16.1-35.8,35.8
				C163.4,346.9,160.6,349.7,157.1,349.7z M185.9,271.6c-5.3,0-10.6-1.1-15.6-3.3c-3.2-1.4-4.7-5.1-3.3-8.3c1.4-3.2,5.1-4.7,8.3-3.3
				c6.5,2.8,13.8,2.9,20.4,0.3c3.2-1.3,6-3.1,8.4-5.3c-21.6-2.2-39.8-16.9-46.3-38.1c-1-3.3,0.9-6.8,4.2-7.9c3.3-1,6.9,0.9,7.9,4.2
				c5.4,17.6,21.4,29.4,39.8,29.4c13.8,0,26.7-6.9,34.5-18.3c2-2.9,5.9-3.6,8.7-1.7c2.9,2,3.6,5.9,1.7,8.7
				c-8.1,11.9-20.4,20-34.2,22.8c-4.3,8.1-11.4,14.4-20,17.8C195.7,270.7,190.8,271.6,185.9,271.6z"/>
		</g>
		<g>
			<path class="st0" d="M202,429.3c-19.5,0-37.5-10.6-47-27.4c-0.1,0-0.1,0-0.2,0c-27.7,0-50.2-22.5-50.2-50.2c0-3.3,0.3-6.6,1-9.9
				c-10-7.5-16.1-19.3-16.1-32c0-10.6,4.3-20.8,11.7-28.2c-5.6-8.1-8.6-17.7-8.6-27.6c0-14.8,6.6-28.5,17.9-37.6
				c-3.8-7.1-5.9-15.1-5.9-23c0-18.4,10.6-35.3,26.9-43.3c0.1-22.5,17.1-41.1,38.9-43.7c4.5-19.8,21.7-34.1,42.1-34.1
				c11.8,0,22.8,4.6,31,12.9c8.1,8.3,12.6,19.4,12.6,31.2v11.2c4.2-2.6,9.1-4,14-4c3.5,0,6.3,2.8,6.3,6.3s-2.8,6.3-6.3,6.3
				c-3.2,0-6.3,1.1-8.7,3.1c-3.3,2.6-5.2,6.6-5.2,10.8c0,0.4,0,0.8-0.1,1.1V222c7.8,11,20.4,17.5,33.9,17.5
				c18.4,0,34.4-11.8,39.8-29.4c1-3.3,4.5-5.2,7.9-4.2c3.3,1,5.2,4.5,4.2,7.9c-6.5,21.1-24.7,35.9-46.3,38.1
				c2.4,2.2,5.2,4.1,8.4,5.3c6.6,2.6,13.9,2.5,20.4-0.3c3.2-1.4,6.9,0.1,8.3,3.3s-0.1,6.9-3.3,8.3c-9.6,4.2-20.3,4.3-30.1,0.5
				c-8.7-3.4-15.7-9.7-20-17.8c-8.5-1.7-16.4-5.4-23.2-10.8v137c0,0.4,0,0.7-0.1,1.1C254.4,406.7,230.8,429.3,202,429.3z
				 M158.7,389.1c2.4,0,4.7,1.4,5.7,3.6c6.8,14.6,21.5,24,37.6,24c22.9,0,41.5-18.7,41.5-41.6s-18.6-41.5-41.5-41.5
				c-3.5,0-6.3-2.8-6.3-6.3s2.8-6.3,6.3-6.3c16.7,0,31.6,7.6,41.5,19.4v-192c-0.4-3.6-2.2-6.8-5-9.1c-2.5-2-5.6-3.1-8.8-3.1
				c-3.5,0-6.3-2.8-6.3-6.3s2.8-6.3,6.3-6.3c4.9,0,9.7,1.4,13.8,3.9v-11.1c0-17.7-13.6-31.5-31-31.5c-15.9,0-28.7,11.8-30.4,28.2
				c-0.3,3.2-3,5.6-6.3,5.6h-0.2c-15.9,0-29.1,11.8-31.2,27.1c2.8-0.5,5.6-0.7,8.5-0.7c26.7,0,48.4,21.7,48.4,48.4
				c0,3.5-2.8,6.3-6.3,6.3s-6.3-2.8-6.3-6.3c0-19.7-16.1-35.8-35.8-35.8c-4.3,0-8.6,0.8-12.7,2.3c-13.8,5.2-23,18.7-23,33.4
				c0,7.4,2.5,14.8,6.9,21c1,1.4,1.4,3.2,1.1,4.9s-1.4,3.2-2.9,4.1c-10.7,6.5-17.1,18-17.1,30.5c0,8.9,3.3,17.5,9.4,24.2
				c0.3,0.3,0.5,0.6,0.7,0.9c6.8,6.9,15.9,10.7,25.5,10.7c3.5,0,6.3,2.8,6.3,6.3s-2.8,6.3-6.3,6.3c-11.4,0-22.5-4.1-31.2-11.4
				c-4.8,5.1-7.5,11.8-7.5,18.8c0,9.8,5.3,18.9,13.8,23.7c2.6,1.5,3.8,4.5,2.9,7.3c-1.1,3.6-1.6,7.3-1.6,10.9
				c0,20.7,16.9,37.6,37.6,37.6c1.1,0,2.2-0.1,3.4-0.2C158.4,389.1,158.5,389.1,158.7,389.1z"/>
		</g>
	</g>
	<g>
		<path class="st1" d="M0,500"/>
		<path class="st2" d="M0,500"/>
		<path class="st2" d="M0,500"/>
		<path class="st2" d="M0,500"/>
		<path class="st2" d="M0,500"/>
		<path class="st2" d="M0,500"/>
		<path class="st2" d="M0,500"/>
		<path class="st2" d="M0,500"/>
		<path class="st2" d="M0,500"/>
		<path class="st2" d="M0,500"/>
		<path class="st2" d="M0,500"/>
		<path class="st2" d="M0,500"/>
	</g>
</g>
</svg>
