<?xml version="1.0" encoding="iso-8859-1"?>
<!-- Generator: Adobe Illustrator 29.6.1, SVG Export Plug-In . SVG Version: 9.03 Build 0)  -->
<svg version="1.1" id="Layer_1" xmlns="http://www.w3.org/2000/svg" xmlns:xlink="http://www.w3.org/1999/xlink" x="0px" y="0px"
	 viewBox="0 0 500 500" style="enable-background:new 0 0 500 500;" xml:space="preserve">
<g>
	<path style="fill:#F9423A;" d="M402.499,423.6c-1.483,0-2.969-0.546-4.129-1.647l-24.546-23.293l-36.753-12.478
		c-3.138-1.065-4.818-4.473-3.753-7.61c1.066-3.139,4.477-4.816,7.61-3.753l38,12.9c0.821,0.279,1.572,0.732,2.201,1.329
		l25.5,24.199c2.404,2.281,2.503,6.079,0.223,8.482C405.673,422.973,404.087,423.6,402.499,423.6z M97.501,423.6
		c-1.588,0-3.173-0.627-4.353-1.87c-2.281-2.403-2.182-6.201,0.222-8.482l25.5-24.199c0.628-0.596,1.378-1.049,2.199-1.328
		l39.7-13.5c3.136-1.068,6.545,0.611,7.612,3.749s-0.612,6.545-3.749,7.612l-38.456,13.076l-24.546,23.295
		C100.469,423.053,98.984,423.6,97.501,423.6z M420.4,311.1H348c-3.313,0-6-2.687-6-6s2.687-6,6-6h72.4c3.313,0,6,2.687,6,6
		S423.714,311.1,420.4,311.1z M154,311.1H79.6c-3.313,0-6-2.687-6-6s2.687-6,6-6H154c3.313,0,6,2.687,6,6S157.313,311.1,154,311.1z
		 M162,228.602c-0.665,0-1.339-0.111-2.001-0.345l-39-13.8c-0.793-0.281-1.519-0.725-2.129-1.304l-25.5-24.2
		c-2.403-2.281-2.503-6.079-0.222-8.482c2.28-2.403,6.079-2.503,8.482-0.222l24.574,23.321l37.797,13.375
		c3.124,1.105,4.76,4.534,3.655,7.658C166.785,227.064,164.47,228.602,162,228.602z M339.7,228.002c-2.471,0-4.785-1.538-5.656-4
		c-1.105-3.124,0.53-6.553,3.654-7.658l36.097-12.774l24.575-23.321c2.402-2.28,6.201-2.182,8.482,0.222
		c2.28,2.404,2.182,6.202-0.223,8.482l-25.5,24.2c-0.61,0.579-1.335,1.023-2.128,1.304l-37.3,13.2
		C341.04,227.891,340.364,228.002,339.7,228.002z"/>
</g>
<g>
	<path style="fill:#F9423A;" d="M291.599,190.201c-3.313,0-6-2.687-6-6v-47.1c0.039-6.429-2.413-12.438-6.903-16.956
		c-4.515-4.542-10.551-7.044-16.996-7.044h-21.5c-13.184,0-24.041,10.799-24.201,24.072v47.028c0,3.313-2.687,6-6,6s-6-2.687-6-6
		v-47.1c0.239-19.883,16.479-36,36.2-36h21.5c9.664,0,18.723,3.759,25.508,10.585c6.759,6.801,10.45,15.839,10.392,25.451v47.064
		C297.599,187.514,294.913,190.201,291.599,190.201z"/>
</g>
<g>
	<path style="fill:#F9423A;" d="M274,425.1h-46c-44.112,0-80-35.888-80-80v-89c0-44.112,35.888-80,80-80h46
		c44.112,0,80,35.888,80,80v89C354,389.212,318.112,425.1,274,425.1z M258,413.1h16c37.495,0,68-30.505,68-68v-89
		c0-37.495-30.505-68-68-68h-46c-37.495,0-68,30.504-68,68v89c0,37.495,30.505,68,68,68h18v-194c0-3.313,2.687-6,6-6s6,2.687,6,6
		V413.1z M269.006,114.001c-1.936,0-3.834-0.934-4.991-2.663c-1.844-2.753-1.106-6.48,1.647-8.324
		c10.753-7.214,20.447-17.196,20.341-20.943c-0.095-3.312,2.514-6.074,5.826-6.169c3.316-0.065,6.074,2.515,6.168,5.826
		c0.366,12.817-19.547,27.165-25.659,31.257C271.313,113.672,270.153,114.001,269.006,114.001z M232.993,114.001
		c-1.159,0-2.33-0.335-3.361-1.035c-4.327-2.935-25.852-18.3-24.609-32.585c0.288-3.301,3.184-5.744,6.498-5.458
		c3.301,0.287,5.745,3.196,5.458,6.498c-0.334,3.843,7.379,13.446,19.394,21.617c2.739,1.862,3.452,5.593,1.591,8.333
		C236.801,113.08,234.914,114.001,232.993,114.001z"/>
</g>
</svg>
