<?xml version="1.0" encoding="utf-8"?>
<!-- Generator: Adobe Illustrator 27.5.0, SVG Export Plug-In . SVG Version: 6.00 Build 0)  -->
<svg version="1.1" id="Layer_1" xmlns="http://www.w3.org/2000/svg" xmlns:xlink="http://www.w3.org/1999/xlink" x="0px" y="0px"
	 viewBox="0 0 500 500" style="enable-background:new 0 0 500 500;" xml:space="preserve">
<style type="text/css">
	.st0{clip-path:url(#SVGID_00000137821427557892249330000001219130233994868903_);}
	.st1{fill:#F9423A;}
	.st2{display:none;fill:none;stroke:#F9423A;stroke-width:12;stroke-linecap:round;stroke-linejoin:round;}
	.st3{fill:none;stroke:#F9423A;stroke-width:12;stroke-linecap:round;stroke-linejoin:round;}
</style>
<g>
	<g>
		<g>
			<defs>
				<rect id="SVGID_1_" width="500" height="500"/>
			</defs>
			<clipPath id="SVGID_00000073002722658502992500000001451592123489482661_">
				<use xlink:href="#SVGID_1_"  style="overflow:visible;"/>
			</clipPath>
			<g style="clip-path:url(#SVGID_00000073002722658502992500000001451592123489482661_);">
				<g>
					<g>
						<path class="st1" d="M295.3,415.3h-91.2c-3.3,0-6-2.7-6-6v-90.6c0-3.3,2.7-6,6-6h91.2c3.3,0,6,2.7,6,6v90.6
							C301.3,412.6,298.6,415.3,295.3,415.3z M210.1,403.3h79.2v-78.6h-79.2L210.1,403.3L210.1,403.3z"/>
					</g>
					<g>
						<path class="st1" d="M356.5,415.3H143c-3.3,0-6-2.7-6-6V89.4c0-3.3,2.7-6,6-6h213.5c3.3,0,6,2.7,6,6v319.9
							C362.5,412.6,359.8,415.3,356.5,415.3z M256.2,403.3h94.3V95.4H149v307.9h94.9v-82.1c0-3.4,2.8-6.1,6.1-6
							c3.4-0.1,6.2,2.6,6.2,6V403.3z M329.8,296c-3.3,0-6-2.7-6-6v-24.8c0-3.3,2.7-6,6-6s6,2.7,6,6V290
							C335.8,293.3,333.1,296,329.8,296z M303.1,296c-3.3,0-6-2.7-6-6v-24.8c0-3.3,2.7-6,6-6s6,2.7,6,6V290
							C309.1,293.3,306.4,296,303.1,296z M276.4,296c-3.3,0-6-2.7-6-6v-24.8c0-3.3,2.7-6,6-6s6,2.7,6,6V290
							C282.4,293.3,279.7,296,276.4,296z M249.7,296c-3.3,0-6-2.7-6-6v-24.8c0-3.3,2.7-6,6-6s6,2.7,6,6V290
							C255.7,293.3,253,296,249.7,296z M223,296c-3.3,0-6-2.7-6-6v-24.8c0-3.3,2.7-6,6-6s6,2.7,6,6V290C229,293.3,226.3,296,223,296
							z M196.3,296c-3.3,0-6-2.7-6-6v-24.8c0-3.3,2.7-6,6-6s6,2.7,6,6V290C202.3,293.3,199.6,296,196.3,296z M169.7,296
							c-3.3,0-6-2.7-6-6v-24.8c0-3.3,2.7-6,6-6s6,2.7,6,6V290C175.7,293.3,173,296,169.7,296z M329.8,246.5c-3.3,0-6-2.7-6-6v-24.8
							c0-3.3,2.7-6,6-6s6,2.7,6,6v24.8C335.8,243.8,333.1,246.5,329.8,246.5z M303.1,246.5c-3.3,0-6-2.7-6-6v-24.8c0-3.3,2.7-6,6-6
							s6,2.7,6,6v24.8C309.1,243.8,306.4,246.5,303.1,246.5z M276.4,246.5c-3.3,0-6-2.7-6-6v-24.8c0-3.3,2.7-6,6-6s6,2.7,6,6v24.8
							C282.4,243.8,279.7,246.5,276.4,246.5z M249.7,246.5c-3.3,0-6-2.7-6-6v-24.8c0-3.3,2.7-6,6-6s6,2.7,6,6v24.8
							C255.7,243.8,253,246.5,249.7,246.5z M223,246.5c-3.3,0-6-2.7-6-6v-24.8c0-3.3,2.7-6,6-6s6,2.7,6,6v24.8
							C229,243.8,226.3,246.5,223,246.5z M196.3,246.5c-3.3,0-6-2.7-6-6v-24.8c0-3.3,2.7-6,6-6s6,2.7,6,6v24.8
							C202.3,243.8,199.6,246.5,196.3,246.5z M169.7,246.5c-3.3,0-6-2.7-6-6v-24.8c0-3.3,2.7-6,6-6s6,2.7,6,6v24.8
							C175.7,243.8,173,246.5,169.7,246.5z M329.8,196.9c-3.3,0-6-2.7-6-6v-24.8c0-3.3,2.7-6,6-6s6,2.7,6,6v24.8
							C335.8,194.2,333.1,196.9,329.8,196.9z M303.1,196.9c-3.3,0-6-2.7-6-6v-24.8c0-3.3,2.7-6,6-6s6,2.7,6,6v24.8
							C309.1,194.2,306.4,196.9,303.1,196.9z M276.4,196.9c-3.3,0-6-2.7-6-6v-24.8c0-3.3,2.7-6,6-6s6,2.7,6,6v24.8
							C282.4,194.2,279.7,196.9,276.4,196.9z M249.7,196.9c-3.3,0-6-2.7-6-6v-24.8c0-3.3,2.7-6,6-6s6,2.7,6,6v24.8
							C255.7,194.2,253,196.9,249.7,196.9z M223,196.9c-3.3,0-6-2.7-6-6v-24.8c0-3.3,2.7-6,6-6s6,2.7,6,6v24.8
							C229,194.2,226.3,196.9,223,196.9z M196.3,196.9c-3.3,0-6-2.7-6-6v-24.8c0-3.3,2.7-6,6-6s6,2.7,6,6v24.8
							C202.3,194.2,199.6,196.9,196.3,196.9z M169.7,196.9c-3.3,0-6-2.7-6-6v-24.8c0-3.3,2.7-6,6-6s6,2.7,6,6v24.8
							C175.7,194.2,173,196.9,169.7,196.9z M329.8,147.4c-3.3,0-6-2.7-6-6v-24.8c0-3.3,2.7-6,6-6s6,2.7,6,6v24.8
							C335.8,144.7,333.1,147.4,329.8,147.4z M303.1,147.4c-3.3,0-6-2.7-6-6v-24.8c0-3.3,2.7-6,6-6s6,2.7,6,6v24.8
							C309.1,144.7,306.4,147.4,303.1,147.4z M276.4,147.4c-3.3,0-6-2.7-6-6v-24.8c0-3.3,2.7-6,6-6s6,2.7,6,6v24.8
							C282.4,144.7,279.7,147.4,276.4,147.4z M249.7,147.4c-3.3,0-6-2.7-6-6v-24.8c0-3.3,2.7-6,6-6s6,2.7,6,6v24.8
							C255.7,144.7,253,147.4,249.7,147.4z M223,147.4c-3.3,0-6-2.7-6-6v-24.8c0-3.3,2.7-6,6-6s6,2.7,6,6v24.8
							C229,144.7,226.3,147.4,223,147.4z M196.3,147.4c-3.3,0-6-2.7-6-6v-24.8c0-3.3,2.7-6,6-6s6,2.7,6,6v24.8
							C202.3,144.7,199.6,147.4,196.3,147.4z M169.7,147.4c-3.3,0-6-2.7-6-6v-24.8c0-3.3,2.7-6,6-6s6,2.7,6,6v24.8
							C175.7,144.7,173,147.4,169.7,147.4z"/>
					</g>
				</g>
				<g>
					<g>
						<path class="st2" d="M0,500"/>
					</g>
					<g>
						<path class="st3" d="M0,500"/>
					</g>
					<g>
						<path class="st3" d="M0,500"/>
					</g>
					<g>
						<path class="st3" d="M0,500"/>
					</g>
					<g>
						<path class="st3" d="M0,500"/>
					</g>
					<g>
						<path class="st3" d="M0,500"/>
					</g>
					<g>
						<path class="st3" d="M0,500"/>
					</g>
					<g>
						<path class="st3" d="M0,500"/>
					</g>
					<g>
						<path class="st3" d="M0,500"/>
					</g>
					<g>
						<path class="st3" d="M0,500"/>
					</g>
					<g>
						<path class="st3" d="M0,500"/>
					</g>
					<g>
						<path class="st3" d="M0,500"/>
					</g>
				</g>
			</g>
		</g>
	</g>
</g>
</svg>
