<?xml version="1.0" encoding="utf-8"?>
<!-- Generator: Adobe Illustrator 27.5.0, SVG Export Plug-In . SVG Version: 6.00 Build 0)  -->
<svg version="1.1" id="Layer_1" xmlns="http://www.w3.org/2000/svg" xmlns:xlink="http://www.w3.org/1999/xlink" x="0px" y="0px"
	 viewBox="0 0 500 500" style="enable-background:new 0 0 500 500;" xml:space="preserve">
<style type="text/css">
	.st0{clip-path:url(#SVGID_00000091003868549380606600000015608294348951726209_);}
	.st1{fill:none;}
	.st2{fill:#F9423A;}
	.st3{display:none;fill:none;stroke:#F9423A;stroke-width:12;stroke-linecap:round;stroke-linejoin:round;}
	.st4{fill:none;stroke:#F9423A;stroke-width:12;stroke-linecap:round;stroke-linejoin:round;}
</style>
<g>
	<g>
		<g>
			<defs>
				<rect id="SVGID_1_" width="500" height="500"/>
			</defs>
			<clipPath id="SVGID_00000132808084965784819030000010207068336465895079_">
				<use xlink:href="#SVGID_1_"  style="overflow:visible;"/>
			</clipPath>
			<g style="clip-path:url(#SVGID_00000132808084965784819030000010207068336465895079_);">
				<path class="st1" d="M0,500"/>
				<path class="st1" d="M0,500"/>
				<path class="st1" d="M0,500"/>
				<path class="st1" d="M0,500"/>
				<path class="st1" d="M0,500"/>
				<path class="st1" d="M0,500"/>
				<path class="st1" d="M0,500"/>
				<g>
					<path class="st2" d="M255.7,413.1h-10.2c-18.8,0-34.1-15.3-34.1-34.1v-9.9c0-3.3,2.7-6,6-6h66.4c3.3,0,6,2.7,6,6v9.9
						C289.8,397.8,274.5,413.1,255.7,413.1z M223.4,375.1v3.9c0,12.2,9.9,22.1,22.1,22.1h10.2c12.2,0,22.1-9.9,22.1-22.1v-3.9H223.4
						z M278.1,349.8h-54.8c-10.9,0-19.7-8.8-19.7-19.7v-14.3c0-5.7-2.5-11.2-6.9-15c-17.2-14.7-57.4-54.8-57.4-108.5
						c0-69.4,40.6-109.2,111.4-109.2s111.4,39.8,111.4,109.2c0,53.8-40.1,93.8-57.4,108.6c-4.4,3.8-6.9,9.2-6.9,14.9v14.3
						C297.8,341,289,349.8,278.1,349.8z M250.7,95.1c-86.5,0-99.4,60.9-99.4,97.2c0,48.8,37.2,85.8,53.2,99.4
						c7.1,6.1,11.1,14.8,11.1,24.1v14.3c0,4.3,3.4,7.7,7.7,7.7h54.8c4.3,0,7.7-3.4,7.7-7.7v-14.3c0-9.2,4-18,11.1-24
						c16-13.7,53.2-50.7,53.2-99.5C350.1,156,337.2,95.1,250.7,95.1z"/>
				</g>
				<g>
					<path class="st2" d="M230.5,297.6c-2.8,0-5.3-2-5.9-4.8L205.4,199c-0.6-2.8,0.9-5.6,3.5-6.7c2.6-1.1,5.6-0.3,7.3,2l14.7,20.3
						l15.3-17.8c1.1-1.3,2.8-2.1,4.6-2.1s3.4,0.8,4.6,2.1l15.3,17.8l14.7-20.3c1.7-2.3,4.7-3.1,7.3-2c2.6,1.1,4,3.9,3.5,6.7
						L277,292.8c-0.7,3.2-3.8,5.3-7.1,4.7c-3.2-0.7-5.3-3.8-4.7-7.1l13.6-66.7l-2.9,4c-1.1,1.5-2.8,2.4-4.6,2.5
						c-1.8,0.1-3.6-0.7-4.8-2.1l-15.6-18.3l-15.6,18.3c-1.2,1.4-3,2.2-4.8,2.1c-1.8-0.1-3.5-1-4.6-2.5l-2.9-4l13.6,66.7
						c0.7,3.2-1.4,6.4-4.7,7.1C231.3,297.6,230.9,297.6,230.5,297.6z"/>
				</g>
				<g>
					<g>
						<path class="st3" d="M0,500"/>
					</g>
					<g>
						<path class="st4" d="M0,500"/>
					</g>
					<g>
						<path class="st4" d="M0,500"/>
					</g>
					<g>
						<path class="st4" d="M0,500"/>
					</g>
					<g>
						<path class="st4" d="M0,500"/>
					</g>
					<g>
						<path class="st4" d="M0,500"/>
					</g>
					<g>
						<path class="st4" d="M0,500"/>
					</g>
					<g>
						<path class="st4" d="M0,500"/>
					</g>
					<g>
						<path class="st4" d="M0,500"/>
					</g>
					<g>
						<path class="st4" d="M0,500"/>
					</g>
					<g>
						<path class="st4" d="M0,500"/>
					</g>
					<g>
						<path class="st4" d="M0,500"/>
					</g>
				</g>
			</g>
		</g>
	</g>
</g>
</svg>
