<?xml version="1.0" encoding="utf-8"?>
<!-- Generator: Adobe Illustrator 27.5.0, SVG Export Plug-In . SVG Version: 6.00 Build 0)  -->
<svg version="1.1" id="Layer_1" xmlns="http://www.w3.org/2000/svg" xmlns:xlink="http://www.w3.org/1999/xlink" x="0px" y="0px"
	 viewBox="0 0 500 500" style="enable-background:new 0 0 500 500;" xml:space="preserve">
<style type="text/css">
	.st0{fill:#F9423A;}
	.st1{display:none;fill:none;stroke:#F9423A;stroke-width:12;stroke-linecap:round;stroke-linejoin:round;}
	.st2{fill:none;stroke:#F9423A;stroke-width:12;stroke-linecap:round;stroke-linejoin:round;}
</style>
<g>
	<g>
		<path class="st0" d="M378.3,380.4H121.7c-1.8,0-3.4-0.8-4.6-2.1c-1.1-1.3-1.6-3.1-1.4-4.8l11.3-71.7c2-12.2,12.2-21.1,24.2-21.1
			h197.4c12,0,22.2,8.8,24.2,21l11.3,71.7c0.3,1.7-0.2,3.5-1.4,4.8C381.7,379.6,380.1,380.4,378.3,380.4z M128.7,368.4h242.6
			l-10.2-64.8c-1-6.3-6.2-10.9-12.4-10.9H151.3c-6.1,0-11.3,4.6-12.4,11L128.7,368.4z"/>
	</g>
	<g>
		<path class="st0" d="M358.4,414.5h-55.3c-3.3,0-6-2.7-6-6v-34.1c0-3.3,2.7-6,6-6s6,2.7,6,6v28.1h43.3v-28.1c0-3.3,2.7-6,6-6
			s6,2.7,6,6v34.1C364.4,411.8,361.7,414.5,358.4,414.5z M196.9,414.5h-55.3c-3.3,0-6-2.7-6-6v-34.1c0-3.3,2.7-6,6-6s6,2.7,6,6v28.1
			h43.3v-28.1c0-3.3,2.7-6,6-6s6,2.7,6,6v34.1C202.9,411.8,200.2,414.5,196.9,414.5z M273.1,356.9h-46.2c-3.3,0-6-2.7-6-6s2.7-6,6-6
			h46.2c3.3,0,6,2.7,6,6S276.4,356.9,273.1,356.9z M334.9,343.2h-38.7c-3.3,0-6-2.7-6-6v-25.4c0-3.3,2.7-6,6-6h38.7
			c9.5,0,17.3,7.8,17.3,17.3v2.8C352.2,335.4,344.4,343.2,334.9,343.2z M302.2,331.2h32.7c3,0,5.3-2.3,5.3-5.3v-2.8
			c0-2.9-2.4-5.3-5.3-5.3h-32.7V331.2z M203.8,343.2h-38.7c-9.5,0-17.3-7.8-17.3-17.3v-2.8c0-9.5,7.8-17.3,17.3-17.3h38.7
			c3.3,0,6,2.7,6,6v25.4C209.8,340.5,207.1,343.2,203.8,343.2z M165.1,317.8c-2.9,0-5.3,2.4-5.3,5.3v2.8c0,3,2.3,5.3,5.3,5.3h32.7
			v-13.4L165.1,317.8L165.1,317.8z M159.1,292.7c-0.4,0-0.7,0-1.1-0.1c-3.3-0.6-5.4-3.7-4.8-7l5.2-28.3c0.6-3.3,3.7-5.4,7-4.8
			c3.3,0.6,5.4,3.7,4.8,7l-5.2,28.3C164.5,290.7,161.9,292.7,159.1,292.7z M340.8,292.6c-2.8,0-5.4-2-5.9-4.9l-16.3-88.9
			c-1.5-8.2-7.9-14.2-15.3-14.2h-71.9c-3.3,0-6-2.7-6-6s2.7-6,6-6h71.9c13.2,0,24.6,10.1,27.1,24l16.3,88.9c0.6,3.3-1.6,6.4-4.8,7
			C341.5,292.6,341.2,292.6,340.8,292.6z"/>
	</g>
	<g>
		<g>
			<path class="st0" d="M166,265.3c-0.9,0-1.8-0.2-2.7-0.6c-0.2-0.1-0.9-0.5-2.2-1.3c-12.6-7.6-74.7-49.8-79.6-147.7
				c-0.2-3,2-5.7,5-6.2c8.8-1.5,22-5,37-10.1c14.7-5,29.2-10.9,39.8-16.1c1.7-0.8,3.6-0.8,5.3,0c22.4,11,58.4,23.2,76.9,26.2
				c3,0.5,5.2,3.2,5,6.2c-1.1,23-5.6,44.8-13.4,65.1c-23.1,59.4-66.5,82.9-68.3,83.9C167.9,265.1,167,265.3,166,265.3z M93.8,120.3
				c6.3,85.1,58.3,123.3,72.2,132c9.7-6.1,41.8-29.3,59.9-75.9c6.7-17.5,10.8-36.3,12.3-56.1c-19.7-4.1-50.6-14.7-72.3-25
				c-10.8,5.1-24.3,10.5-38.6,15.4C114.5,115.1,102.8,118.4,93.8,120.3z"/>
		</g>
		<g>
			<path class="st0" d="M165.2,203.4c-1.6,0-3.2-0.7-4.3-1.9l-22-23c-2.3-2.4-2.2-6.2,0.2-8.5s6.2-2.2,8.5,0.2l16.9,17.6l27.8-40.8
				c1.9-2.7,5.6-3.4,8.3-1.6c2.7,1.9,3.4,5.6,1.6,8.3l-32,46.9c-1,1.5-2.7,2.4-4.5,2.6C165.5,203.4,165.4,203.4,165.2,203.4z"/>
		</g>
	</g>
	<g>
		<g>
			<path class="st1" d="M0,500"/>
		</g>
		<g>
			<path class="st2" d="M0,500"/>
		</g>
		<g>
			<path class="st2" d="M0,500"/>
		</g>
		<g>
			<path class="st2" d="M0,500"/>
		</g>
		<g>
			<path class="st2" d="M0,500"/>
		</g>
		<g>
			<path class="st2" d="M0,500"/>
		</g>
		<g>
			<path class="st2" d="M0,500"/>
		</g>
		<g>
			<path class="st2" d="M0,500"/>
		</g>
		<g>
			<path class="st2" d="M0,500"/>
		</g>
		<g>
			<path class="st2" d="M0,500"/>
		</g>
		<g>
			<path class="st2" d="M0,500"/>
		</g>
		<g>
			<path class="st2" d="M0,500"/>
		</g>
	</g>
</g>
</svg>
