<?xml version="1.0" encoding="iso-8859-1"?>
<!-- Generator: Adobe Illustrator 29.6.1, SVG Export Plug-In . SVG Version: 9.03 Build 0)  -->
<svg version="1.1" id="Layer_1" xmlns="http://www.w3.org/2000/svg" xmlns:xlink="http://www.w3.org/1999/xlink" x="0px" y="0px"
	 viewBox="0 0 500 500" style="enable-background:new 0 0 500 500;" xml:space="preserve">
<g>
	<g>
		<path style="fill:#F9423A;" d="M119.806,415.998c-3.853,0.001-7.766-0.495-11.66-1.533c-24.118-6.578-38.48-31.449-32.05-55.451
			l44.4-165.799c8.145-30.235,45.708-46.579,83.741-36.445c18.18,4.896,33.822,15.029,44.061,28.536
			c10.593,13.971,14.21,29.89,10.187,44.823c-2.103,8.084-6.296,15.329-12.45,21.482c-10.37,10.395-20.252,18.339-28.972,25.348
			c-44.9,36.093-47.781,60.749-52.104,98.043c-0.238,2.458-0.701,4.962-1.377,7.444
			C158.172,402.631,139.811,415.998,119.806,415.998z M181.392,165.734c-23.895,0-44.238,11.778-49.306,30.593L87.688,362.118
			c-4.726,17.641,5.854,35.925,23.583,40.761c17.691,4.715,35.979-5.849,40.726-23.564c0.509-1.87,0.851-3.717,1.022-5.516
			c0.004-0.041,0.008-0.082,0.013-0.123c7.752-66.876,29.27-84.173,56.513-106.071c8.895-7.15,18.092-14.544,28-24.475
			c0.001-0.002,0.003-0.004,0.005-0.005c4.623-4.623,7.764-10.029,9.335-16.068c3.049-11.319,0.15-23.555-8.149-34.502
			c-8.641-11.397-21.996-19.99-37.604-24.194C194.448,166.58,187.792,165.734,181.392,165.734z M295.174,183.654
			c-6.189,0-11.812-2.196-15.797-6.256c-9.463-9.641-7.333-27.132,4.748-38.99c5.628-5.524,12.612-9.087,19.667-10.033
			c7.585-1.015,14.658,1.175,19.406,6.012c9.463,9.642,7.333,27.133-4.748,38.991l0,0c-5.629,5.524-12.613,9.087-19.668,10.032
			C297.565,183.573,296.358,183.654,295.174,183.654z M307.442,140.13c-0.776,0-1.48,0.062-2.056,0.139
			c-4.436,0.594-9.12,3.038-12.854,6.703c-7.234,7.101-9.337,17.186-4.59,22.021c2.84,2.894,7.014,2.825,9.247,2.525
			c4.436-0.595,9.121-3.038,12.855-6.703c7.234-7.101,9.337-17.185,4.59-22.021C312.526,140.644,309.682,140.13,307.442,140.13z
			 M314.247,169.096h0.01H314.247z M247.579,147.439c-3.151,0-6.296-0.697-9.233-2.17c-5.517-2.767-9.444-7.768-11.059-14.083
			c-1.535-6.005-0.771-12.522,2.153-18.352c2.923-5.829,7.689-10.339,13.42-12.701c6.025-2.482,12.381-2.326,17.9,0.44
			c5.517,2.767,9.443,7.768,11.058,14.082c1.535,6.006,0.771,12.523-2.152,18.352C265.123,142.068,256.326,147.439,247.579,147.439z
			 M251.472,110.394c-1.32,0-2.687,0.278-4.039,0.836c-3.059,1.26-5.639,3.741-7.266,6.985c-1.627,3.244-2.072,6.796-1.253,10
			c0.74,2.896,2.449,5.142,4.812,6.327c5.174,2.595,12.001-0.505,15.214-6.914c1.627-3.244,2.072-6.796,1.253-10
			c-0.74-2.896-2.449-5.143-4.812-6.328C254.175,110.697,252.849,110.394,251.472,110.394z M142.688,138.634
			c-8.848,0-16.903-6.943-18.697-16.68l0,0c-1.005-5.458,0.154-11.097,3.182-15.468c2.748-3.968,6.782-6.604,11.361-7.424
			c4.664-0.824,9.428,0.279,13.436,3.1c4.368,3.074,7.406,7.957,8.336,13.395c1.853,10.828-4.729,21.065-14.671,22.82
			C144.648,138.55,143.663,138.634,142.688,138.634z M135.793,119.78c0.802,4.352,4.283,7.399,7.756,6.779
			c3.46-0.611,5.671-4.639,4.929-8.979c-0.396-2.312-1.64-4.355-3.416-5.605c-1.376-0.969-2.949-1.358-4.427-1.098
			c-1.795,0.322-2.948,1.505-3.597,2.442C135.816,115.083,135.362,117.439,135.793,119.78L135.793,119.78z M193.991,129.003
			c-0.06,0-0.12,0-0.18,0c-11.248-0.105-20.305-10.284-20.19-22.69c0.055-5.858,2.13-11.384,5.843-15.559
			c3.876-4.358,9.051-6.751,14.588-6.751c0.06,0,0.119,0,0.18,0.001c11.249,0.105,20.305,10.284,20.189,22.69l-6-0.056l6,0.056
			c-0.054,5.858-2.129,11.384-5.843,15.56C204.702,126.61,199.528,129.003,193.991,129.003z M194.057,96.002
			c-2.066,0-4.062,0.966-5.626,2.726c-1.785,2.007-2.783,4.74-2.811,7.697c-0.054,5.79,3.671,10.535,8.303,10.579
			c2.069-0.011,4.107-0.948,5.688-2.725c1.785-2.007,2.783-4.74,2.811-7.697c0.054-5.79-3.671-10.535-8.303-10.579
			C194.098,96.002,194.077,96.002,194.057,96.002z"/>
	</g>
	<g>
		<path style="fill:#F9423A;" d="M419.439,415.499h-38.334c-3.313,0-6-2.687-6-6v-8.528c0.002-5.566,2.961-10.812,7.723-13.69
			c0.047-0.028,0.095-0.057,0.143-0.084l26.927-15.279c1.158-0.728,1.875-2.021,1.875-3.391v-5.693c0-4.044-3.29-7.334-7.333-7.334
			h-10c-4.044,0-7.334,3.29-7.334,7.334v5.833c0,3.313-2.687,6-6,6s-6-2.687-6-6v-5.833c0-10.661,8.673-19.334,19.334-19.334h10
			c10.66,0,19.333,8.673,19.333,19.334v5.693c0,5.564-2.957,10.811-7.719,13.691c-0.048,0.028-0.096,0.057-0.145,0.085
			l-26.928,15.28c-1.158,0.727-1.876,2.019-1.876,3.39v2.526h32.334c3.313,0,6,2.687,6,6S422.752,415.499,419.439,415.499z
			 M335.306,390.499h-22.222c-13.111,0-23.778-10.667-23.778-23.778v-44.444c0-13.111,10.667-23.777,23.778-23.777h22.222
			c13.111,0,23.778,10.666,23.778,23.777v44.444C359.084,379.832,348.417,390.499,335.306,390.499z M313.084,310.499
			c-6.494,0-11.778,5.283-11.778,11.777v44.444c0,6.494,5.284,11.778,11.778,11.778h22.222c6.494,0,11.778-5.284,11.778-11.778
			v-44.444c0-6.494-5.284-11.777-11.778-11.777L313.084,310.499L313.084,310.499z M249.506,390.499h-22.222
			c-13.111,0-23.778-10.667-23.778-23.778v-44.444c0-13.111,10.667-23.777,23.778-23.777h22.222
			c13.111,0,23.778,10.666,23.778,23.777v3.333c0,3.313-2.687,6-6,6s-6-2.687-6-6v-3.333c0-6.494-5.284-11.777-11.778-11.777
			h-22.222c-6.494,0-11.778,5.283-11.778,11.777v44.444c0,6.494,5.284,11.778,11.778,11.778h22.222
			c6.494,0,11.778-5.284,11.778-11.778v-3.333c0-3.313,2.687-6,6-6s6,2.687,6,6v3.333
			C273.284,379.832,262.617,390.499,249.506,390.499z"/>
	</g>
</g>
</svg>
