<?xml version="1.0" encoding="utf-8"?>
<!-- Generator: Adobe Illustrator 27.5.0, SVG Export Plug-In . SVG Version: 6.00 Build 0)  -->
<svg version="1.1" id="Layer_1" xmlns="http://www.w3.org/2000/svg" xmlns:xlink="http://www.w3.org/1999/xlink" x="0px" y="0px"
	 viewBox="0 0 500 500" style="enable-background:new 0 0 500 500;" xml:space="preserve">
<style type="text/css">
	.st0{fill:#F9423A;}
	.st1{display:none;fill:none;stroke:#F9423A;stroke-width:12;stroke-linecap:round;stroke-linejoin:round;}
	.st2{fill:none;stroke:#F9423A;stroke-width:12;stroke-linecap:round;stroke-linejoin:round;}
</style>
<g>
	<g>
		<path class="st0" d="M275.1,362.7h-168c-12.8,0-23.2-10.4-23.2-23.2V160.4c0-12.8,10.4-23.2,23.2-23.2h285.8
			c12.8,0,23.2,10.4,23.2,23.2v105.7c0,2.4-1.4,4.5-3.6,5.5s-4.7,0.5-6.5-1.1c-14.4-13.4-33.1-20.8-52.8-20.8
			c-42.7,0-77.5,34.8-77.5,77.5c0,9.4,1.7,18.6,5,27.4c0.7,1.8,0.5,3.9-0.7,5.5C278.9,361.7,277.1,362.7,275.1,362.7z M95.9,219.3
			v120.2c0,6.2,5,11.2,11.2,11.2h159.7c-2.1-7.6-3.1-15.5-3.1-23.5c0-49.4,40.1-89.5,89.5-89.5c18.4,0,36,5.6,50.9,15.9v-34.3H95.9z
			 M95.9,207.3h308.2v-28.5H95.9V207.3z M95.9,166.8h308.2v-6.4c0-6.2-5-11.2-11.2-11.2H107.1c-6.2,0-11.2,5-11.2,11.2V166.8z"/>
	</g>
	<g>
		<path class="st0" d="M182.5,333.3h-63c-3.3,0-6-2.7-6-6s2.7-6,6-6h63c3.3,0,6,2.7,6,6S185.8,333.3,182.5,333.3z M278.4,296.3
			H119.5c-3.3,0-6-2.7-6-6V250c0-3.3,2.7-6,6-6h202.1c2.9,0,5.3,2,5.9,4.8s-1,5.6-3.6,6.7c-17.5,7.2-31.7,20.4-40.1,37.4
			C282.8,295,280.7,296.3,278.4,296.3z M125.5,284.3h149.3c6.1-11.1,14.4-20.7,24.4-28.3H125.5V284.3z"/>
	</g>
	<g>
		<path class="st0" d="M353.2,416.8c-37.1,0-70.7-23.3-83.8-57.9c-3.8-10.1-5.8-20.7-5.8-31.6c0-13.9,3.1-27.2,9.2-39.6
			c9.7-19.6,26.1-34.9,46.3-43.2c10.8-4.4,22.2-6.6,33.9-6.6c22.7,0,44.4,8.5,61,24c18.2,16.7,28.7,40.6,28.7,65.5
			C442.7,376.7,402.6,416.8,353.2,416.8z M353,249.8c-10.1,0-20,1.9-29.3,5.8c-17.5,7.2-31.7,20.4-40.1,37.4
			c-5.3,10.8-8,22.3-8,34.3c0,9.4,1.7,18.6,5,27.4c11.3,30,40.5,50.1,72.6,50.1c42.7,0,77.5-34.8,77.5-77.5
			c0-21.6-9.1-42.2-24.9-56.7C391.4,257.2,372.7,249.8,353,249.8z"/>
	</g>
	<g>
		<path class="st0" d="M312.2,351.3c-12.6,0-22.9-10.3-22.9-22.9s10.3-22.9,22.9-22.9c5.6,0,10.7,1.9,14.9,5.6
			c2.5,2.2,2.8,6,0.6,8.5c-2.2,2.5-6,2.8-8.5,0.6c-2-1.7-4.4-2.6-7.1-2.6c-6,0-10.9,4.9-10.9,10.9s4.9,10.9,10.9,10.9
			c2.5,0,5.1-1,7.1-2.7c2.5-2.1,6.3-1.8,8.5,0.7c2.1,2.5,1.8,6.3-0.7,8.5C322.8,349.3,317.5,351.3,312.2,351.3z M352.7,350.9
			c-2.4,0-4.5-1.4-5.5-3.6l-14.9-33.5c-1.3-3,0-6.6,3-7.9s6.6,0,7.9,3l9.2,20.7l8.5-20.6c1.3-3.1,4.8-4.5,7.8-3.2
			c3.1,1.3,4.5,4.8,3.2,7.8L358,347.1C357.3,349.4,355.2,350.9,352.7,350.9C352.8,350.9,352.7,350.9,352.7,350.9z M397.3,350.9
			c-2.4,0-4.5-1.4-5.5-3.6l-14.9-33.5c-1.3-3,0-6.6,3-7.9s6.6,0,7.9,3l9.2,20.7l8.5-20.6c1.3-3.1,4.8-4.5,7.8-3.2
			c3.1,1.3,4.5,4.8,3.2,7.8l-13.9,33.5C401.9,349.4,399.8,350.9,397.3,350.9L397.3,350.9z"/>
	</g>
	<g>
		<g>
			<path class="st1" d="M0,500"/>
		</g>
		<g>
			<path class="st2" d="M0,500"/>
		</g>
		<g>
			<path class="st2" d="M0,500"/>
		</g>
		<g>
			<path class="st2" d="M0,500"/>
		</g>
		<g>
			<path class="st2" d="M0,500"/>
		</g>
		<g>
			<path class="st2" d="M0,500"/>
		</g>
		<g>
			<path class="st2" d="M0,500"/>
		</g>
		<g>
			<path class="st2" d="M0,500"/>
		</g>
		<g>
			<path class="st2" d="M0,500"/>
		</g>
		<g>
			<path class="st2" d="M0,500"/>
		</g>
		<g>
			<path class="st2" d="M0,500"/>
		</g>
		<g>
			<path class="st2" d="M0,500"/>
		</g>
	</g>
</g>
</svg>
