<?xml version="1.0" encoding="iso-8859-1"?>
<!-- Generator: Adobe Illustrator 29.6.1, SVG Export Plug-In . SVG Version: 9.03 Build 0)  -->
<svg version="1.1" id="Layer_1" xmlns="http://www.w3.org/2000/svg" xmlns:xlink="http://www.w3.org/1999/xlink" x="0px" y="0px"
	 viewBox="0 0 500 500" style="enable-background:new 0 0 500 500;" xml:space="preserve">
<g>
	<g>
		<path style="fill:#F9423A;" d="M225.771,446c-1.091,0-2.182-0.298-3.145-0.89l-22.855-14.065l-22.855,14.065
			c-1.851,1.139-4.173,1.189-6.071,0.127c-1.897-1.06-3.073-3.063-3.073-5.237v-49c0-3.313,2.687-6,6-6s6,2.687,6,6v38.263
			l16.855-10.373c1.929-1.186,4.36-1.186,6.289,0l16.855,10.373V391c0-3.313,2.687-6,6-6s6,2.687,6,6v49
			c0,2.174-1.176,4.178-3.073,5.237C227.787,445.747,226.778,446,225.771,446z"/>
	</g>
	<g>
		<path style="fill:#F9423A;" d="M372.229,123.333H156.437c-19.115,0-34.666-15.551-34.666-34.666S137.322,54,156.437,54H372.23
			c3.313,0,6,2.686,6,6v57.333C378.229,120.647,375.543,123.333,372.229,123.333z M156.437,66
			c-12.498,0-22.666,10.168-22.666,22.667c0,12.498,10.168,22.666,22.666,22.666H366.23V66H156.437z"/>
	</g>
	<g>
		<path style="fill:#F9423A;" d="M372.229,397H156.437c-9.294,0-18.008-3.597-24.539-10.128
			c-6.531-6.529-10.127-15.207-10.127-24.435V88.667c0-3.313,2.687-6,6-6s6,2.687,6,6v273.771c0,6.021,2.348,11.687,6.612,15.949
			c4.265,4.265,9.965,6.613,16.054,6.613H366.23V117.228c0-3.313,2.687-6,6-6s6,2.687,6,6V391
			C378.229,394.313,375.543,397,372.229,397z M293.906,341h-88.272c-3.313,0-6-2.687-6-6s2.687-6,6-6h88.272c3.313,0,6,2.687,6,6
			S297.22,341,293.906,341z M319.771,306h-140c-3.313,0-6-2.687-6-6s2.687-6,6-6h140c3.313,0,6,2.687,6,6S323.084,306,319.771,306z"
			/>
	</g>
	<g>
		<path style="fill:#F9423A;" d="M319.771,226h-140c-3.313,0-6-2.687-6-6v-50c0-3.313,2.687-6,6-6h140c3.313,0,6,2.687,6,6v50
			C325.771,223.313,323.084,226,319.771,226z M185.771,214h128v-38h-128V214z"/>
	</g>
</g>
</svg>
