<?xml version="1.0" encoding="utf-8"?>
<!-- Generator: Adobe Illustrator 27.5.0, SVG Export Plug-In . SVG Version: 6.00 Build 0)  -->
<svg version="1.1" id="Layer_1" xmlns="http://www.w3.org/2000/svg" xmlns:xlink="http://www.w3.org/1999/xlink" x="0px" y="0px"
	 viewBox="0 0 500 500" style="enable-background:new 0 0 500 500;" xml:space="preserve">
<style type="text/css">
	.st0{fill:#F9423A;}
	.st1{display:none;fill:none;stroke:#F9423A;stroke-width:12;stroke-linecap:round;stroke-linejoin:round;}
	.st2{fill:none;stroke:#F9423A;stroke-width:12;stroke-linecap:round;stroke-linejoin:round;}
</style>
<g>
	<g>
		<path class="st0" d="M300,290.5c-0.7,0-1.5-0.1-2.2-0.4c-3.1-1.2-4.6-4.7-3.4-7.8c28.8-72.2,78.4-193.4,78.9-194.7
			c1.3-3.1,4.8-4.5,7.8-3.3c3.1,1.3,4.5,4.8,3.3,7.8c-0.5,1.2-50.1,122.4-78.9,194.5C304.6,289.1,302.4,290.5,300,290.5z
			 M271.8,253.3c-0.7,0-1.5-0.1-2.2-0.4c-3.1-1.2-4.6-4.7-3.3-7.8L329.7,88c1.2-3.1,4.7-4.6,7.8-3.3c3.1,1.2,4.6,4.7,3.3,7.8
			l-63.5,157.1C276.4,251.9,274.2,253.3,271.8,253.3z M251,201c-0.8,0-1.5-0.1-2.3-0.4c-3.1-1.2-4.6-4.7-3.3-7.8L288,87.6
			c1.2-3.1,4.7-4.6,7.8-3.3c3.1,1.2,4.6,4.7,3.3,7.8l-42.6,105.1C255.6,199.6,253.4,201,251,201z"/>
	</g>
	<g>
		<path class="st0" d="M199.8,290.5c-2.4,0-4.6-1.4-5.6-3.7c-28.8-71-78.2-193.4-78.7-194.6c-1.2-3.1,0.2-6.6,3.3-7.8
			c3.1-1.2,6.6,0.2,7.8,3.3c0.5,1.2,49.9,123.6,78.7,194.6c1.2,3.1-0.2,6.6-3.3,7.8C201.3,290.4,200.6,290.5,199.8,290.5z
			 M279.9,277.3c-2.4,0-4.6-1.4-5.6-3.7c-30.9-76.2-73-180.4-73.4-181.4c-1.2-3.1,0.2-6.6,3.3-7.8c3.1-1.2,6.6,0.2,7.8,3.3
			c0.4,1,42.5,105.2,73.4,181.4c1.2,3.1-0.2,6.6-3.3,7.8C281.4,277.2,280.7,277.3,279.9,277.3z M235.4,271.9c-2.4,0-4.6-1.4-5.6-3.8
			l-71.1-176c-1.2-3.1,0.2-6.6,3.3-7.8c3.1-1.2,6.6,0.2,7.8,3.3l71.1,176c1.2,3.1-0.2,6.6-3.3,7.8
			C236.9,271.8,236.1,271.9,235.4,271.9z"/>
	</g>
	<g>
		<g>
			<path class="st0" d="M250,416.1c-42.7,0-77.5-34.8-77.5-77.5s34.8-77.5,77.5-77.5s77.5,34.8,77.5,77.5S292.7,416.1,250,416.1z
				 M250,273.1c-36.1,0-65.5,29.4-65.5,65.5s29.4,65.5,65.5,65.5s65.5-29.4,65.5-65.5S286.1,273.1,250,273.1z"/>
		</g>
		<g>
			<path class="st0" d="M273.5,378.7c-1,0-1.9-0.2-2.8-0.7L250,367.1l-20.6,10.8c-2,1.1-4.5,0.9-6.3-0.5c-1.8-1.3-2.8-3.6-2.4-5.9
				l4-23L208,332.3c-1.6-1.6-2.2-4-1.5-6.1c0.7-2.2,2.6-3.8,4.8-4.1l23.1-3.3l10.2-20.8c1-2.1,3.1-3.4,5.4-3.4l0,0
				c2.3,0,4.4,1.3,5.4,3.3l10.3,20.9l23.1,3.3c2.3,0.3,4.1,1.9,4.8,4.1c0.7,2.2,0.1,4.6-1.5,6.1l-16.6,16.3l4,23
				c0.4,2.3-0.5,4.5-2.4,5.9C276,378.3,274.7,378.7,273.5,378.7z M250,354.3c1,0,1.9,0.2,2.8,0.7l12.7,6.7l-2.4-14.1
				c-0.3-1.9,0.3-3.9,1.7-5.3l10.2-10l-14.2-2.1c-2-0.3-3.6-1.5-4.5-3.3l-6.3-12.8l-6.2,12.7c-0.9,1.8-2.6,3-4.5,3.3l-14.2,2.1
				l10.2,10c1.4,1.4,2.1,3.4,1.7,5.3l-2.4,14.1l12.6-6.6C248.1,354.5,249,354.3,250,354.3z M238.4,324.2L238.4,324.2L238.4,324.2z"
				/>
		</g>
	</g>
	<g>
		<g>
			<path class="st1" d="M0,500"/>
		</g>
		<g>
			<path class="st2" d="M0,500"/>
		</g>
		<g>
			<path class="st2" d="M0,500"/>
		</g>
		<g>
			<path class="st2" d="M0,500"/>
		</g>
		<g>
			<path class="st2" d="M0,500"/>
		</g>
		<g>
			<path class="st2" d="M0,500"/>
		</g>
		<g>
			<path class="st2" d="M0,500"/>
		</g>
		<g>
			<path class="st2" d="M0,500"/>
		</g>
		<g>
			<path class="st2" d="M0,500"/>
		</g>
		<g>
			<path class="st2" d="M0,500"/>
		</g>
		<g>
			<path class="st2" d="M0,500"/>
		</g>
		<g>
			<path class="st2" d="M0,500"/>
		</g>
	</g>
</g>
</svg>
