<?xml version="1.0" encoding="iso-8859-1"?>
<!-- Generator: Adobe Illustrator 29.6.1, SVG Export Plug-In . SVG Version: 9.03 Build 0)  -->
<svg version="1.1" id="Layer_1" xmlns="http://www.w3.org/2000/svg" xmlns:xlink="http://www.w3.org/1999/xlink" x="0px" y="0px"
	 viewBox="0 0 500 500" style="enable-background:new 0 0 500 500;" xml:space="preserve">
<g>
	<g>
		<path style="fill:#F9423A;" d="M333.75,355.5c-29.245,0-56.83-33.954-84.333-103.802c-24.78-62.934-50.081-96.198-73.167-96.198
			s-48.387,33.265-73.167,96.198c-1.214,3.083-4.698,4.599-7.781,3.385s-4.599-4.698-3.385-7.781
			C119.42,177.454,147.005,143.5,176.25,143.5s56.83,33.954,84.333,103.802c24.78,62.934,50.081,96.198,73.167,96.198
			s48.387-33.265,73.167-96.198c1.214-3.084,4.698-4.599,7.781-3.385s4.599,4.698,3.385,7.781
			C390.58,321.546,362.995,355.5,333.75,355.5z"/>
	</g>
	<g>
		<path style="fill:#F9423A;" d="M432.5,408.5h-335c-3.313,0-6-2.687-6-6v-335c0-3.313,2.687-6,6-6s6,2.687,6,6v329h329
			c3.313,0,6,2.687,6,6S435.814,408.5,432.5,408.5z"/>
	</g>
	<g>
		<path style="fill:#F9423A;" d="M402.5,438.5c-1.535,0-3.071-0.586-4.242-1.758c-2.344-2.343-2.344-6.142,0-8.484l25.757-25.758
			l-25.757-25.758c-2.344-2.343-2.344-6.142,0-8.484c2.342-2.344,6.143-2.344,8.484,0l30,30c2.344,2.343,2.344,6.142,0,8.484l-30,30
			C405.571,437.914,404.035,438.5,402.5,438.5z M127.5,103.5c-1.536,0-3.071-0.586-4.243-1.757L97.5,75.985l-25.757,25.757
			c-2.343,2.343-6.143,2.343-8.485,0c-2.343-2.343-2.343-6.142,0-8.485l30-30c2.343-2.343,6.143-2.343,8.485,0l30,30
			c2.343,2.343,2.343,6.142,0,8.485C130.571,102.914,129.036,103.5,127.5,103.5z"/>
	</g>
</g>
</svg>
