<?xml version="1.0" encoding="utf-8"?>
<!-- Generator: Adobe Illustrator 27.5.0, SVG Export Plug-In . SVG Version: 6.00 Build 0)  -->
<svg version="1.1" id="Layer_1" xmlns="http://www.w3.org/2000/svg" xmlns:xlink="http://www.w3.org/1999/xlink" x="0px" y="0px"
	 viewBox="0 0 500 500" style="enable-background:new 0 0 500 500;" xml:space="preserve">
<style type="text/css">
	.st0{clip-path:url(#SVGID_00000003801226308752933010000009668329258151260804_);}
	.st1{fill:#F9423A;}
	.st2{fill:none;}
</style>
<g>
	<g>
		<g>
			<defs>
				<rect id="SVGID_1_" width="500" height="500"/>
			</defs>
			<clipPath id="SVGID_00000114766708194859608080000016253830524890723236_">
				<use xlink:href="#SVGID_1_"  style="overflow:visible;"/>
			</clipPath>
			<g style="clip-path:url(#SVGID_00000114766708194859608080000016253830524890723236_);">
				<g>
					<path class="st1" d="M311.7,354H96.3c-3.3,0-6-2.7-6-6v-98.3c0-57.5,46.8-104.3,104.3-104.3h117.1
						c57.5,0,104.3,46.8,104.3,104.3C416,307.2,369.2,354,311.7,354z M102.3,342h209.4c50.9,0,92.3-41.4,92.3-92.3
						s-41.4-92.3-92.3-92.3H194.6c-50.9,0-92.3,41.4-92.3,92.3V342z"/>
				</g>
				<g>
					<g>
						<path class="st1" d="M184.3,234.4c9.1,0,16.5,7.4,16.5,16.5s-7.4,16.5-16.5,16.5s-16.5-7.4-16.5-16.5
							C167.8,241.8,175.2,234.4,184.3,234.4z"/>
					</g>
					<g>
						<path class="st2" d="M184.3,234.4c9.1,0,16.5,7.4,16.5,16.5s-7.4,16.5-16.5,16.5s-16.5-7.4-16.5-16.5
							C167.8,241.8,175.2,234.4,184.3,234.4z"/>
					</g>
				</g>
				<g>
					<g>
						<path class="st1" d="M252.1,234.4c9.1,0,16.5,7.4,16.5,16.5s-7.4,16.5-16.5,16.5s-16.5-7.4-16.5-16.5
							C235.6,241.8,243,234.4,252.1,234.4L252.1,234.4z"/>
					</g>
					<g>
						<path class="st2" d="M252.1,234.4c9.1,0,16.5,7.4,16.5,16.5s-7.4,16.5-16.5,16.5s-16.5-7.4-16.5-16.5
							C235.6,241.8,243,234.4,252.1,234.4L252.1,234.4z"/>
					</g>
				</g>
				<g>
					<g>
						<path class="st1" d="M318.5,234.4c9.1,0,16.5,7.4,16.5,16.5s-7.4,16.5-16.5,16.5S302,260,302,250.9
							C301.9,241.8,309.3,234.4,318.5,234.4L318.5,234.4z"/>
					</g>
					<g>
						<path class="st2" d="M318.5,234.4c9.1,0,16.5,7.4,16.5,16.5s-7.4,16.5-16.5,16.5S302,260,302,250.9
							C301.9,241.8,309.3,234.4,318.5,234.4L318.5,234.4z"/>
					</g>
				</g>
				<path class="st2" d="M0,500"/>
			</g>
		</g>
	</g>
</g>
</svg>
