<?xml version="1.0" encoding="utf-8"?>
<!-- Generator: Adobe Illustrator 27.5.0, SVG Export Plug-In . SVG Version: 6.00 Build 0)  -->
<svg version="1.1" id="Layer_1" xmlns="http://www.w3.org/2000/svg" xmlns:xlink="http://www.w3.org/1999/xlink" x="0px" y="0px"
	 viewBox="0 0 500 500" style="enable-background:new 0 0 500 500;" xml:space="preserve">
<style type="text/css">
	.st0{clip-path:url(#SVGID_00000176005853293100793250000004784771126165047986_);}
	.st1{fill:#F9423A;}
	.st2{display:none;fill:none;stroke:#F84239;stroke-width:12;stroke-linecap:round;stroke-linejoin:round;}
	.st3{fill:none;stroke:#F84239;stroke-width:12;stroke-linecap:round;stroke-linejoin:round;}
</style>
<g>
	<g>
		<g>
			<defs>
				<rect id="SVGID_1_" width="500" height="500"/>
			</defs>
			<clipPath id="SVGID_00000129190119785444295860000011037261113104596613_">
				<use xlink:href="#SVGID_1_"  style="overflow:visible;"/>
			</clipPath>
			<g style="clip-path:url(#SVGID_00000129190119785444295860000011037261113104596613_);">
				<g>
					<path class="st1" d="M311.7,354H96.3c-3.3,0-6-2.7-6-6v-98.3c0-57.5,46.8-104.3,104.3-104.3h117.1
						c57.5,0,104.3,46.8,104.3,104.3C416,307.2,369.2,354,311.7,354z M102.3,342h209.4c50.9,0,92.3-41.4,92.3-92.3
						s-41.4-92.3-92.3-92.3H194.6c-50.9,0-92.3,41.4-92.3,92.3V342z"/>
				</g>
				<g>
					<path class="st1" d="M236.1,286.1c-1.6,0-3.1-0.6-4.2-1.8l-25.1-25.1c-2.3-2.3-2.3-6.1,0-8.5c2.3-2.3,6.1-2.3,8.5,0l20.9,20.9
						l55.2-55.3c2.3-2.3,6.1-2.4,8.5,0c2.3,2.3,2.4,6.1,0,8.5l-59.4,59.6C239.2,285.5,237.7,286.1,236.1,286.1
						C236.1,286.1,236.1,286.1,236.1,286.1z"/>
				</g>
				<g>
					<g>
						<path class="st2" d="M0,500"/>
					</g>
					<g>
						<path class="st3" d="M0,500"/>
					</g>
					<g>
						<path class="st3" d="M0,500"/>
					</g>
					<g>
						<path class="st3" d="M0,500"/>
					</g>
					<g>
						<path class="st3" d="M0,500"/>
					</g>
					<g>
						<path class="st3" d="M0,500"/>
					</g>
					<g>
						<path class="st3" d="M0,500"/>
					</g>
					<g>
						<path class="st3" d="M0,500"/>
					</g>
					<g>
						<path class="st3" d="M0,500"/>
					</g>
					<g>
						<path class="st3" d="M0,500"/>
					</g>
					<g>
						<path class="st3" d="M0,500"/>
					</g>
					<g>
						<path class="st3" d="M0,500"/>
					</g>
				</g>
			</g>
		</g>
	</g>
</g>
</svg>
