<?xml version="1.0" encoding="utf-8"?>
<!-- Generator: Adobe Illustrator 27.5.0, SVG Export Plug-In . SVG Version: 6.00 Build 0)  -->
<svg version="1.1" id="Layer_1" xmlns="http://www.w3.org/2000/svg" xmlns:xlink="http://www.w3.org/1999/xlink" x="0px" y="0px"
	 viewBox="0 0 500 500" style="enable-background:new 0 0 500 500;" xml:space="preserve">
<style type="text/css">
	.st0{clip-path:url(#SVGID_00000078032336092835982050000008070094965497744786_);}
	.st1{fill:#F84239;}
</style>
<g>
	<g>
		<defs>
			<rect id="SVGID_1_" width="500" height="500"/>
		</defs>
		<clipPath id="SVGID_00000145748591206938273910000009447277989452353172_">
			<use xlink:href="#SVGID_1_"  style="overflow:visible;"/>
		</clipPath>
		<g style="clip-path:url(#SVGID_00000145748591206938273910000009447277989452353172_);">
			<g>
				<path class="st1" d="M375.8,397.5c-1.5,0-3.1-0.6-4.2-1.8L336.9,361c-2.3-2.3-2.3-6.1,0-8.5c2.3-2.3,6.1-2.3,8.5,0l34.7,34.7
					c2.3,2.3,2.3,6.1,0,8.5C378.9,396.9,377.3,397.5,375.8,397.5z M121,397.1c-1.5,0-3.1-0.6-4.2-1.8c-2.3-2.3-2.4-6.1,0-8.5
					l34.6-34.7c2.3-2.3,6.1-2.4,8.5,0c2.3,2.3,2.4,6.1,0,8.5l-34.6,34.7C124.1,396.5,122.5,397.1,121,397.1z"/>
			</g>
			<g>
				<path class="st1" d="M249.1,399.7c-35,0-70-13.3-96.6-39.9c-53.3-53.3-53.3-139.9,0-193.2c25.8-25.8,60.1-40,96.6-40
					s70.8,14.2,96.6,40c53.3,53.3,53.3,139.9,0,193.2C319,386.4,284,399.7,249.1,399.7z M249.1,138.6c-31.9,0-63.8,12.1-88.1,36.4
					c-48.6,48.6-48.6,127.6,0,176.2c48.6,48.6,127.6,48.6,176.2,0c48.6-48.6,48.6-127.6,0-176.2C312.9,150.8,281,138.6,249.1,138.6z
					 M248.8,272.4c-1.5,0-3.1-0.6-4.3-1.8c-1.6-1.6-2.1-3.9-1.5-6c-0.2-0.5-0.3-1.1-0.3-1.7l-0.3-97.5c0-3.3,2.7-6,6-6c0,0,0,0,0,0
					c3.3,0,6,2.7,6,6l0.3,86.7l28.8-28.5c2.4-2.3,6.2-2.3,8.5,0c2.3,2.4,2.3,6.2,0,8.5l-39,38.6
					C251.9,271.8,250.3,272.4,248.8,272.4z M392.2,195.6c-1.5,0-3.1-0.6-4.2-1.8c-6.5-6.5-19.9-20-34-34.2
					c-16.6-16.7-33.7-34-39.1-39.3c-1.1-1.1-1.8-2.7-1.8-4.2c0-1.6,0.6-3.1,1.8-4.3c10.8-10.8,25.7-17,40.9-17
					c31.9,0,57.8,26,57.8,57.9c0,15.6-6.1,30.2-17.2,41.2C395.3,195,393.7,195.6,392.2,195.6z M327.9,116.3
					c7.7,7.7,21.3,21.5,34.6,34.9c11.4,11.5,22.3,22.5,29.5,29.7c6.3-8,9.6-17.8,9.6-28.2c0-25.3-20.5-45.9-45.8-45.9
					C345.7,106.8,335.8,110.2,327.9,116.3z M105.7,195.1c-1.6,0-3.1-0.6-4.2-1.8c-10.8-10.8-17-25.7-17-40.9
					c0-31.9,26-57.8,57.9-57.8c15.6,0,30.2,6.1,41.2,17.2c2.3,2.3,2.3,6.1,0,8.5c-6.5,6.5-20,19.9-34.2,34
					c-16.7,16.6-34,33.7-39.4,39.1C108.8,194.5,107.3,195.1,105.7,195.1C105.7,195.1,105.7,195.1,105.7,195.1z M142.4,106.6
					c-25.3,0-45.9,20.5-45.9,45.8c0,10.1,3.4,20,9.5,27.9c7.7-7.7,21.5-21.3,34.9-34.6c11.5-11.4,22.5-22.3,29.7-29.5
					C162.5,110,152.7,106.6,142.4,106.6z"/>
			</g>
		</g>
	</g>
</g>
</svg>
