<?xml version="1.0" encoding="utf-8"?>
<!-- Generator: Adobe Illustrator 27.5.0, SVG Export Plug-In . SVG Version: 6.00 Build 0)  -->
<svg version="1.1" id="Layer_1" xmlns="http://www.w3.org/2000/svg" xmlns:xlink="http://www.w3.org/1999/xlink" x="0px" y="0px"
	 viewBox="0 0 500 500" style="enable-background:new 0 0 500 500;" xml:space="preserve">
<style type="text/css">
	.st0{fill:#F9423A;}
	.st1{fill:none;stroke:#F84239;stroke-width:12;stroke-linecap:round;stroke-linejoin:round;}
</style>
<g>
	<path class="st0" d="M250.6,427c-46.6,0-90.4-18.2-123.4-51.1c-68-68-68-178.7,0-246.8c33-33,76.8-51.1,123.4-51.1
		S341,96.1,374,129.1c68,68,68,178.7,0,246.8C341.1,408.9,297.3,427,250.6,427z M250.6,90.1c-43.4,0-84.2,16.9-114.9,47.6
		c-63.4,63.4-63.4,166.5,0,229.8c63.4,63.4,166.5,63.4,229.8,0c63.4-63.4,63.4-166.5,0-229.8C334.9,107,294.1,90.1,250.6,90.1z
		 M250.6,258.5c-1.5,0-3.1-0.6-4.2-1.8c-1.6-1.6-2.1-3.8-1.5-5.8c-0.1-0.5-0.2-1-0.2-1.6V133.5c0-3.3,2.7-6,6-6s6,2.7,6,6V238l50-50
		c2.3-2.3,6.1-2.3,8.5,0c2.3,2.3,2.3,6.1,0,8.5L255,256.7C253.7,257.9,252.1,258.5,250.6,258.5z"/>
	<path class="st1" d="M0,500"/>
</g>
</svg>
