<?xml version="1.0" encoding="utf-8"?>
<!-- Generator: Adobe Illustrator 27.5.0, SVG Export Plug-In . SVG Version: 6.00 Build 0)  -->
<svg version="1.1" id="Layer_1" xmlns="http://www.w3.org/2000/svg" xmlns:xlink="http://www.w3.org/1999/xlink" x="0px" y="0px"
	 viewBox="0 0 500 500" style="enable-background:new 0 0 500 500;" xml:space="preserve">
<style type="text/css">
	.st0{fill:#F9423A;}
	.st1{fill:none;stroke:#F9423A;stroke-width:12;stroke-linecap:round;stroke-linejoin:round;}
</style>
<g>
	<g>
		<g>
			<path class="st0" d="M340.4,366.4H336c-3.3,0-6-2.7-6-6s2.7-6,6-6h4.4c43.5,0,78.8-35.3,78.8-78.8c0-32.6-19.6-61.5-50-73.4
				c-1.5-0.6-2.7-1.8-3.3-3.2c-17.6-41.3-57.9-67.9-102.8-67.9c-41.7,0-79.8,23.1-99.2,60.3c-1.4,2.6-4.4,3.8-7.2,2.9
				c-3.1-1-6.3-1.5-9.4-1.5c-16.9,0-30.6,13.7-30.6,30.6c0,2.2,0.2,4.4,0.7,6.6c0.6,2.7-0.6,5.4-3,6.7
				c-20.7,10.9-33.5,32.1-33.5,55.3c0,34.5,28,62.5,62.5,62.5h49c3.3,0,6,2.7,6,6s-2.7,6-6,6h-49c-41.1,0-74.5-33.4-74.5-74.5
				c0-26.2,13.7-50.2,36.1-63.7c-0.2-1.6-0.3-3.1-0.3-4.8c0-23.5,19.1-42.6,42.6-42.6c2.8,0,5.5,0.3,8.3,0.8
				C177.6,142.8,218.4,119,263,119c48.9,0,92.9,28.6,112.8,73c15.8,6.7,29.3,17.7,39.1,31.9c10.6,15.2,16.2,33.1,16.2,51.7
				C431.1,325.7,390.4,366.4,340.4,366.4z"/>
		</g>
	</g>
	<g>
		<g>
			<path class="st0" d="M377.4,276.8c-0.5,0-1.1-0.1-1.6-0.2c-3.2-0.9-5-4.2-4.2-7.4c4-14.3,4.1-26,4.1-26.1
				c0.1-15-3.1-30.4-9.2-44.5c-1.3-3,0.1-6.6,3.1-7.9c3-1.3,6.6,0.1,7.9,3.1c6.8,15.7,10.3,32.7,10.2,49.3c0,0.5-0.1,13.4-4.5,29.3
				C382.4,275.1,379.9,276.8,377.4,276.8z M182.6,217.4c-2.5,0-4.8-1.5-5.6-4c-4.4-12.2-16-20.3-28.9-20.3c-3.3,0-6-2.7-6-6
				s2.7-6,6-6c17.9,0,34,11.4,40.1,28.3c1.1,3.1-0.5,6.6-3.6,7.7C184,217.3,183.3,217.4,182.6,217.4z"/>
		</g>
	</g>
	<g>
		<g>
			<path class="st0" d="M264.9,415.9L264.9,415.9c-1.6,0-3.2-0.7-4.3-1.8l-48.1-49c-2.3-2.4-2.3-6.2,0.1-8.5
				c2.4-2.3,6.2-2.3,8.5,0.1l38.2,38.9V278.9c0-3.3,2.7-6,6-6s6,2.7,6,6V395l38.4-38.4c2.3-2.3,6.1-2.3,8.5,0c2.3,2.3,2.3,6.1,0,8.5
				l-49,49C268,415.3,266.5,415.9,264.9,415.9z"/>
		</g>
	</g>
</g>
<g>
	<g>
		<path class="st1" d="M0,500"/>
	</g>
</g>
</svg>
