<?xml version="1.0" encoding="utf-8"?>
<!-- Generator: Adobe Illustrator 27.5.0, SVG Export Plug-In . SVG Version: 6.00 Build 0)  -->
<svg version="1.1" id="Layer_1" xmlns="http://www.w3.org/2000/svg" xmlns:xlink="http://www.w3.org/1999/xlink" x="0px" y="0px"
	 viewBox="0 0 500 500" style="enable-background:new 0 0 500 500;" xml:space="preserve">
<style type="text/css">
	.st0{fill:#F9423A;}
	.st1{fill:none;stroke:#F9423A;stroke-width:12;stroke-linecap:round;stroke-linejoin:round;}
</style>
<g>
	<g>
		<g>
			<path class="st0" d="M164.2,353.5h-20.9c-41.1,0-74.5-33.4-74.5-74.5c0-26.2,13.7-50.2,36.1-63.7c-0.2-1.6-0.3-3.1-0.3-4.8
				c0-23.5,19.1-42.6,42.6-42.6c2.8,0,5.5,0.3,8.3,0.8c22.1-38.7,62.9-62.5,107.5-62.5c48.9,0,92.9,28.6,112.8,73
				c15.8,6.7,29.3,17.7,39.1,31.9c10.6,15.2,16.2,33.1,16.2,51.7c0,19.9-6.3,38.8-18.3,54.6c-11.6,15.3-28,26.8-46.3,32.3
				c-3.2,1-6.5-0.8-7.5-4s0.8-6.5,4-7.5c33-9.9,56-41,56-75.5c0-32.6-19.6-61.5-50-73.4c-1.5-0.6-2.7-1.8-3.3-3.2
				c-17.5-41.3-57.9-67.9-102.8-67.9c-41.7,0-79.8,23.1-99.2,60.3c-1.4,2.6-4.4,3.8-7.2,2.9c-3.1-1-6.3-1.5-9.4-1.5
				c-16.9,0-30.6,13.7-30.6,30.6c0,2.2,0.2,4.4,0.7,6.6c0.6,2.7-0.6,5.4-3,6.7c-20.7,10.9-33.5,32.1-33.5,55.3
				c0,34.5,28,62.5,62.5,62.5h20.9c3.3,0,6,2.7,6,6S167.5,353.5,164.2,353.5z"/>
		</g>
		<g>
			<path class="st0" d="M376.5,263.5c-0.5,0-1.1-0.1-1.6-0.2c-3.2-0.9-5-4.2-4.2-7.4c4-14.2,4.1-26,4.1-26.1
				c0.1-15-3.1-30.4-9.2-44.5c-1.3-3,0.1-6.6,3.1-7.9c3-1.3,6.6,0.1,7.9,3.1c6.8,15.7,10.3,32.7,10.2,49.3c0,0.5-0.1,13.4-4.5,29.3
				C381.5,261.8,379.1,263.5,376.5,263.5z M181.8,204.1c-2.5,0-4.8-1.5-5.6-4c-4.4-12.2-16-20.3-28.9-20.3c-3.3,0-6-2.7-6-6
				s2.7-6,6-6c17.9,0,34,11.4,40.1,28.3c1.1,3.1-0.5,6.6-3.6,7.7C183.2,204,182.5,204.1,181.8,204.1z"/>
		</g>
		<g>
			<path class="st0" d="M277.8,390.6h-25.1c-9.2,0-16.6-7.4-16.6-16.6v-7.7c-3.2-1.5-6.3-3.3-9.2-5.3l-6.6,3.8
				c-8,4.6-18.2,1.8-22.7-6.1L185,336.9c-2.2-3.9-2.8-8.4-1.7-12.6c1.1-4.3,3.9-7.9,7.8-10.1l6.6-3.8c-0.1-1.8-0.2-3.6-0.2-5.4
				s0.1-3.6,0.2-5.4l-6.6-3.8c-8-4.7-10.7-14.6-6.1-22.7l12.6-21.8c4.7-8,14.6-10.7,22.7-6.1l6.6,3.8c2.8-2,5.9-3.7,9.2-5.3V236
				c0-9.2,7.4-16.6,16.6-16.6h25.1c9.2,0,16.6,7.4,16.6,16.6v7.7c3.2,1.5,6.3,3.3,9.3,5.4l6.6-3.8c8-4.6,18.2-1.8,22.7,6.1
				l12.6,21.8c4.6,8,1.8,18.2-6.1,22.7l-6.6,3.8c0.1,1.8,0.2,3.6,0.2,5.4s-0.1,3.6-0.2,5.4l6.6,3.8c7.9,4.5,10.7,14.7,6.1,22.7
				L333,358.7c-4.7,8-14.6,10.7-22.7,6.1l-6.7-3.9c-2.9,2-6,3.8-9.3,5.3v7.7C294.4,383.2,287,390.6,277.8,390.6z M227.3,347.8
				c1.3,0,2.6,0.4,3.7,1.3c4.1,3.2,8.6,5.8,13.4,7.8c2.2,0.9,3.7,3.1,3.7,5.5V374c0,2.5,2.1,4.6,4.6,4.6h25.1c2.5,0,4.6-2.1,4.6-4.6
				v-11.6c0-2.4,1.5-4.6,3.7-5.5c5.1-2.1,9.5-4.7,13.5-7.8c1.9-1.5,4.6-1.7,6.7-0.5l10,5.8c2.2,1.3,5,0.5,6.3-1.8l12.6-21.8
				c1.3-2.2,0.5-5-1.7-6.3l0,0l-10-5.8c-2.1-1.2-3.3-3.6-2.9-6c0.4-2.5,0.5-5.1,0.5-7.8s-0.2-5.2-0.5-7.8c-0.3-2.4,0.8-4.8,2.9-6
				l10-5.8c2.2-1.3,3-4.1,1.7-6.3l-12.6-21.8c-1.3-2.2-4.1-3-6.3-1.7l-10,5.8c-2.1,1.2-4.8,1-6.7-0.5c-4.1-3.2-8.6-5.8-13.5-7.8
				c-2.3-0.9-3.7-3.1-3.7-5.6V236c0-2.5-2.1-4.6-4.6-4.6h-25.1c-2.5,0-4.6,2.1-4.6,4.6v11.6c0,2.4-1.5,4.6-3.7,5.5
				c-5.1,2.1-9.6,4.7-13.4,7.7c-1.9,1.5-4.6,1.7-6.8,0.5l-10-5.8c-2.2-1.3-5-0.5-6.3,1.8l-12.6,21.8c-1.3,2.2-0.5,5,1.7,6.3l10,5.8
				c2.1,1.2,3.3,3.6,2.9,6c-0.4,2.5-0.5,5.1-0.5,7.8s0.2,5.2,0.5,7.8c0.3,2.4-0.8,4.8-2.9,6l-10,5.8c-1.1,0.6-1.8,1.6-2.2,2.8
				c-0.3,1.2-0.2,2.5,0.5,3.6l12.6,21.8c0.6,1.1,1.6,1.8,2.8,2.2c1.2,0.3,2.5,0.2,3.6-0.5l10-5.8
				C225.2,348.1,226.3,347.8,227.3,347.8z M265.3,342.6c-20.7,0-37.6-16.9-37.6-37.6s16.9-37.6,37.6-37.6s37.6,16.9,37.6,37.6
				S286,342.6,265.3,342.6z M265.3,279.4c-14.1,0-25.6,11.5-25.6,25.6s11.5,25.6,25.6,25.6s25.6-11.5,25.6-25.6
				S279.4,279.4,265.3,279.4z"/>
		</g>
	</g>
	<g>
		<path class="st1" d="M0,500"/>
	</g>
</g>
</svg>
