<?xml version="1.0" encoding="utf-8"?>
<!-- Generator: Adobe Illustrator 27.5.0, SVG Export Plug-In . SVG Version: 6.00 Build 0)  -->
<svg version="1.1" id="Layer_1" xmlns="http://www.w3.org/2000/svg" xmlns:xlink="http://www.w3.org/1999/xlink" x="0px" y="0px"
	 viewBox="0 0 500 500" style="enable-background:new 0 0 500 500;" xml:space="preserve">
<style type="text/css">
	.st0{display:none;fill:none;}
	.st1{fill:none;}
	.st2{fill:#F9423A;}
</style>
<g>
	<g>
		<g>
			<path class="st0" d="M0,500"/>
		</g>
		<g>
			<path class="st1" d="M0,500"/>
		</g>
		<g>
			<path class="st1" d="M0,500"/>
		</g>
		<g>
			<path class="st1" d="M0,500"/>
		</g>
		<g>
			<path class="st1" d="M0,500"/>
		</g>
		<g>
			<path class="st1" d="M0,500"/>
		</g>
		<g>
			<path class="st1" d="M0,500"/>
		</g>
		<g>
			<path class="st1" d="M0,500"/>
		</g>
		<g>
			<path class="st1" d="M0,500"/>
		</g>
		<g>
			<path class="st1" d="M0,500"/>
		</g>
		<g>
			<path class="st1" d="M0,500"/>
		</g>
		<g>
			<path class="st1" d="M0,500"/>
		</g>
	</g>
	<g>
		<path class="st2" d="M340.2,370.9H143.3c-41.1,0-74.5-33.4-74.5-74.5c0-26.2,13.7-50.2,36.1-63.7c-0.2-1.6-0.3-3.1-0.3-4.8
			c0-23.5,19.1-42.6,42.6-42.6c2.8,0,5.5,0.3,8.3,0.8c22.1-38.7,62.9-62.5,107.5-62.5c48.9,0,92.9,28.6,112.8,73
			c15.8,6.7,29.3,17.7,39.1,31.9c10.6,15.3,16.1,33.1,16,51.7C431,330.2,390.3,370.9,340.2,370.9z M147.2,197.3
			c-16.9,0-30.6,13.7-30.6,30.6c0,2.2,0.2,4.4,0.7,6.6c0.6,2.7-0.6,5.4-3,6.7c-20.7,10.9-33.5,32.1-33.5,55.3
			c0,34.5,28,62.5,62.5,62.5h196.9c43.5,0,78.8-35.3,78.8-78.8c0.2-32-19.9-61.5-49.9-73.3c-1.5-0.6-2.7-1.8-3.3-3.2
			c-17.5-41.3-57.9-67.9-102.8-67.9c-41.7,0-79.8,23.1-99.2,60.3c-1.4,2.6-4.4,3.8-7.2,2.9C153.6,197.8,150.4,197.3,147.2,197.3z"/>
	</g>
	<g>
		<path class="st2" d="M376.5,281c-0.5,0-1.1-0.1-1.6-0.2c-3.2-0.9-5-4.2-4.2-7.4c4-14.2,4.1-26,4.1-26.1c0.1-15-3.1-30.4-9.2-44.5
			c-1.3-3,0.1-6.6,3.1-7.9c3-1.3,6.6,0.1,7.9,3.1c6.8,15.7,10.3,32.7,10.2,49.3c0,0.5-0.1,13.4-4.5,29.3
			C381.5,279.3,379.1,281,376.5,281z M181.8,221.6c-2.5,0-4.8-1.5-5.6-4c-4.4-12.2-16-20.3-28.9-20.3c-3.3,0-6-2.7-6-6s2.7-6,6-6
			c17.9,0,34,11.4,40.1,28.3c1.1,3.1-0.5,6.6-3.6,7.7C183.2,221.5,182.5,221.6,181.8,221.6z"/>
	</g>
</g>
</svg>
