<?xml version="1.0" encoding="utf-8"?>
<!-- Generator: Adobe Illustrator 27.5.0, SVG Export Plug-In . SVG Version: 6.00 Build 0)  -->
<svg version="1.1" id="Layer_1" xmlns="http://www.w3.org/2000/svg" xmlns:xlink="http://www.w3.org/1999/xlink" x="0px" y="0px"
	 viewBox="0 0 500 500" style="enable-background:new 0 0 500 500;" xml:space="preserve">
<style type="text/css">
	.st0{fill:#F9423A;}
</style>
<g>
	<g>
		<path class="st0" d="M352.3,369.2H198c-1.6,0-3.2-0.7-4.3-1.8c-1.1-1.2-1.7-2.7-1.7-4.4l0.2-7.1c0-30.3,24.7-55,55.1-55h56.1
			c30.4,0,55.1,24.7,55.1,55.1c0,0.1,0,0.1,0,0.2l-0.2,7.2C358.2,366.6,355.5,369.2,352.3,369.2z M204.2,357.2h142.3v-1.3
			c0-23.7-19.4-43-43.1-43h-56.1c-23.8,0-43.1,19.3-43.1,43.1c0,0.1,0,0.1,0,0.2L204.2,357.2z"/>
	</g>
	<g>
		<path class="st0" d="M275,292.8c-22.5,0-40.7-18.3-40.7-40.7c0-22.5,18.3-40.7,40.7-40.7c12.2,0,23.5,5.3,31.2,14.6
			c6.2,7.1,9.5,16.4,9.5,26.1C315.8,274.5,297.5,292.8,275,292.8z M275,223.3c-15.8,0-28.7,12.9-28.7,28.7
			c0,15.8,12.9,28.7,28.7,28.7c15.8,0,28.7-12.9,28.7-28.7c0-6.9-2.4-13.4-6.7-18.3l-0.1-0.1C291.6,227.1,283.6,223.3,275,223.3z"/>
	</g>
	<g>
		<path class="st0" d="M339.8,369.6c-0.8,0-1.5,0-2.3,0H140.7c-41.1,0-74.5-33.4-74.5-74.5c0-26.2,13.7-50.2,36.1-63.7
			c-0.2-1.6-0.3-3.1-0.3-4.8c0-23.5,19.1-42.6,42.6-42.6c2.8,0,5.5,0.3,8.3,0.8c22.1-38.7,62.9-62.5,107.5-62.5
			c48.9,0,92.9,28.6,112.8,73c15.8,6.7,29.3,17.7,39.1,31.9c10.6,15.2,16.2,33.1,16.2,51.7c0,43.1-30.7,80.6-72.9,89.1l0,0
			C350,369.1,344.8,369.6,339.8,369.6z M354.4,362.1L354.4,362.1L354.4,362.1z M144.6,196c-16.9,0-30.6,13.7-30.6,30.6
			c0,2.2,0.2,4.4,0.7,6.6c0.6,2.7-0.6,5.4-3,6.7C91,250.8,78.2,272,78.2,295.2c0,34.5,28,62.5,62.5,62.5h196.9c0.1,0,0.1,0,0.2,0
			c4.9,0.2,9.9-0.3,15.4-1.4c36.7-7.4,63.3-39.9,63.3-77.3c0-32.6-19.6-61.5-50-73.4c-1.5-0.6-2.7-1.8-3.3-3.2
			c-17.6-41.3-57.9-67.9-102.8-67.9c-41.7,0-79.8,23.1-99.2,60.3c-1.4,2.6-4.4,3.8-7.2,2.9C151,196.5,147.8,196,144.6,196z"/>
	</g>
	<g>
		<path class="st0" d="M374.7,280.2c-0.5,0-1.1-0.1-1.6-0.2c-3.2-0.9-5-4.2-4.2-7.4c4-14.2,4.1-26,4.1-26.1
			c0.1-15-3.1-30.4-9.2-44.5c-1.3-3,0.1-6.6,3.1-7.9c3-1.3,6.6,0.1,7.9,3.1c6.8,15.7,10.3,32.7,10.2,49.3c0,0.5-0.1,13.4-4.5,29.3
			C379.7,278.5,377.3,280.2,374.7,280.2z M180,220.8c-2.5,0-4.8-1.5-5.6-4c-4.4-12.2-16-20.3-28.9-20.3c-3.3,0-6-2.7-6-6s2.7-6,6-6
			c17.9,0,34,11.4,40.1,28.3c1.1,3.1-0.5,6.6-3.6,7.7C181.4,220.7,180.7,220.8,180,220.8z"/>
	</g>
</g>
</svg>
