<?xml version="1.0" encoding="iso-8859-1"?>
<!-- Generator: Adobe Illustrator 29.6.1, SVG Export Plug-In . SVG Version: 9.03 Build 0)  -->
<svg version="1.1" id="Layer_1" xmlns="http://www.w3.org/2000/svg" xmlns:xlink="http://www.w3.org/1999/xlink" x="0px" y="0px"
	 viewBox="0 0 500 500" style="enable-background:new 0 0 500 500;" xml:space="preserve">
<g>
	<g>
		<path style="fill:#F9423A;" d="M223.094,418.5c-1.591,0-3.117-0.632-4.243-1.758L83.257,281.148
			c-1.128-1.127-1.76-2.658-1.757-4.253s0.641-3.123,1.772-4.247L274.021,83.242c1.124-1.116,2.644-1.742,4.228-1.742H412.5
			c3.313,0,6,2.686,6,6v134.251c0,1.584-0.626,3.104-1.742,4.228L227.352,416.728c-1.124,1.132-2.652,1.77-4.247,1.772
			C223.101,418.5,223.097,418.5,223.094,418.5z M96,276.921L223.079,404L406.5,219.278V93.5H280.722L96,276.921z M412.5,221.751
			h0.01H412.5z"/>
	</g>
	<g>
		<path style="fill:#F9423A;" d="M364.974,144.047c-4.971,0-9.01-4.029-9.01-9s4.019-9,8.989-9h0.021c4.971,0,9,4.029,9,9
			S369.944,144.047,364.974,144.047z"/>
	</g>
	<g>
		<path style="fill:#F9423A;" d="M202.959,317.255c-0.893,0-1.792-0.034-2.697-0.105c-1.568-0.122-3.144-0.355-4.683-0.693
			c-13.054-2.858-23.338-13.142-26.197-26.198c-4.057-18.497,7.693-36.849,26.193-40.906c1.542-0.338,3.119-0.571,4.688-0.693
			c3.313-0.261,6.191,2.211,6.449,5.515s-2.211,6.19-5.515,6.448c-1.021,0.08-2.048,0.232-3.051,0.452
			c-12.036,2.64-19.681,14.58-17.041,26.616c1.86,8.495,8.55,15.186,17.043,17.045c1.004,0.221,2.029,0.372,3.048,0.452
			c12.285,0.959,23.062-8.258,24.021-20.543c0.258-3.304,3.14-5.783,6.449-5.515c3.303,0.258,5.772,3.145,5.515,6.448
			C235.778,303.555,220.698,317.255,202.959,317.255z M249.697,271.127c-8.844,0-17.809-3.454-24.675-10.319
			c-6.45-6.451-10.119-14.932-10.328-23.88c-0.213-9.055,3.129-17.5,9.409-23.78c12.888-12.886,34.267-12.472,47.659,0.92
			c6.45,6.45,10.118,14.931,10.328,23.879c0.213,9.055-3.129,17.5-9.409,23.779c0,0.001,0,0.001,0,0.001
			C266.401,268.005,258.103,271.127,249.697,271.127z M247.086,215.737c-5.332,0-10.556,1.953-14.499,5.896
			c-3.938,3.938-6.033,9.27-5.898,15.013c0.137,5.85,2.558,11.417,6.817,15.676c8.714,8.712,22.479,9.123,30.689,0.919l0,0
			c3.938-3.938,6.032-9.27,5.896-15.013c-0.137-5.85-2.558-11.417-6.816-15.675C258.748,218.024,252.854,215.737,247.086,215.737z
			 M268.438,257.483h0.01H268.438z M317.109,246.33c-0.684,0-1.372-0.117-2.038-0.357c-2.188-0.791-3.722-2.775-3.936-5.092
			l-3.236-35.096c-0.389-2.544-2.598-4.482-5.179-4.524c-1.378-0.031-2.764,0.509-3.784,1.499c-1.021,0.989-1.595,2.315-1.617,3.736
			c-0.022,1.432,0.544,2.833,1.556,3.845c2.342,2.344,2.34,6.144-0.005,8.485c-2.344,2.342-6.144,2.339-8.485-0.005
			c-3.292-3.296-5.138-7.858-5.063-12.516c0.073-4.625,1.943-8.945,5.267-12.165c3.322-3.219,7.71-4.973,12.325-4.877
			c8.647,0.141,15.752,6.463,16.895,15.035c0.011,0.081,0.02,0.161,0.027,0.242l2.075,22.505l10.236-10.237
			c2.344-2.343,6.144-2.343,8.485,0c2.344,2.343,2.344,6.142,0.001,8.485l-19.279,19.28
			C320.208,245.718,318.674,246.33,317.109,246.33z"/>
	</g>
</g>
</svg>
