<?xml version="1.0" encoding="utf-8"?>
<!-- Generator: Adobe Illustrator 27.5.0, SVG Export Plug-In . SVG Version: 6.00 Build 0)  -->
<svg version="1.1" id="Layer_1" xmlns="http://www.w3.org/2000/svg" xmlns:xlink="http://www.w3.org/1999/xlink" x="0px" y="0px"
	 viewBox="0 0 500 500" style="enable-background:new 0 0 500 500;" xml:space="preserve">
<style type="text/css">
	.st0{clip-path:url(#SVGID_00000047039736752832372410000008372167312980622506_);}
	.st1{fill:#F9423A;}
	
		.st2{fill:none;stroke:#F9423A;stroke-width:12;stroke-linecap:round;stroke-linejoin:round;stroke-dasharray:47,61;stroke-dashoffset:302;}
	.st3{display:none;fill:none;stroke:#F9423A;stroke-width:12;stroke-linecap:round;stroke-linejoin:round;}
	.st4{fill:none;stroke:#F9423A;stroke-width:12;stroke-linecap:round;stroke-linejoin:round;}
</style>
<g>
	<g>
		<g>
			<defs>
				<rect id="SVGID_1_" width="500" height="500"/>
			</defs>
			<clipPath id="SVGID_00000075161951752480271970000013900097303382814606_">
				<use xlink:href="#SVGID_1_"  style="overflow:visible;"/>
			</clipPath>
			<g style="clip-path:url(#SVGID_00000075161951752480271970000013900097303382814606_);">
				<g>
					<path class="st1" d="M185.6,185.1c-2.7,0-5.1-1.8-5.8-4.5c-0.8-3.2,1.2-6.5,4.4-7.3c2.3-0.6,4.6-0.9,6.7-0.9
						c7.9,0,14.4-7.2,14.4-16.1s-6.5-16.1-14.4-16.1c-14.6,0-26.4-12.4-26.4-27.7c0.1-15.3,12-27.7,26.5-27.7c0.3,0,0.5,0,0.8,0
						c3.3-0.2,6.2,2.3,6.4,5.6c0.2,3.3-2.3,6.2-5.6,6.4c-0.5,0-1,0.1-1.6,0.1c-7.9,0-14.4,7.1-14.5,15.8c0,8.6,6.5,15.7,14.4,15.7
						c14.6,0,26.4,12.6,26.4,28.1s-11.8,28.1-26.4,28.1c-1.1,0-2.4,0.2-3.7,0.5C186.6,185,186.1,185.1,185.6,185.1z"/>
				</g>
				<path class="st2" d="M0,500"/>
				<g>
					<path class="st1" d="M253.1,185.1c-2.7,0-5.1-1.8-5.8-4.5c-0.8-3.2,1.2-6.5,4.4-7.3c2.3-0.6,4.6-0.9,6.7-0.9
						c7.9,0,14.4-7.2,14.4-16.1s-6.5-16.1-14.4-16.1c-14.6,0-26.4-12.4-26.4-27.7c0.1-15.3,12-27.7,26.5-27.7c0.3,0,0.5,0,0.8,0
						c3.3-0.2,6.2,2.3,6.4,5.6c0.2,3.3-2.3,6.2-5.6,6.4c-0.5,0-1.1,0.1-1.6,0.1c-7.9,0-14.4,7.1-14.5,15.8c0,8.6,6.5,15.6,14.4,15.6
						c14.6,0,26.4,12.6,26.4,28.1s-11.8,28.1-26.4,28.1c-1.1,0-2.4,0.2-3.7,0.5C254.1,185,253.6,185.1,253.1,185.1z"/>
				</g>
				<path class="st2" d="M0,500"/>
				<g>
					<path class="st1" d="M320.6,185.1c-2.7,0-5.1-1.8-5.8-4.5c-0.8-3.2,1.2-6.5,4.4-7.3c2.3-0.6,4.6-0.9,6.7-0.9
						c7.9,0,14.4-7.2,14.4-16.1s-6.5-16.1-14.4-16.1c-14.6,0-26.4-12.4-26.4-27.7c0.1-15.3,12-27.7,26.5-27.7c0.3,0,0.5,0,0.8,0
						c3.3-0.2,6.2,2.3,6.4,5.6c0.2,3.3-2.3,6.2-5.6,6.4c-0.5,0-1.1,0.1-1.6,0.1c-7.9,0-14.4,7.1-14.5,15.8c0,8.6,6.5,15.7,14.4,15.7
						c14.6,0,26.4,12.6,26.4,28.1s-11.8,28.1-26.4,28.1c-1.1,0-2.4,0.2-3.7,0.5C321.6,185,321.1,185.1,320.6,185.1z"/>
				</g>
				<path class="st2" d="M0,500"/>
				<g>
					<path class="st1" d="M304,421.3H197c-28.1,0-51-22.9-51-51V218.6c0-3.4,2.8-6.2,6.2-6.2h196.4c0.1,0,0.1,0,0.2,0l0,0l38.2,0.1
						c24.4,0,44.2,22.9,44.2,51.1v8.5c0,28.1-19.7,51-43.9,51H355v47.2C355,398.4,332.1,421.3,304,421.3z M158,224.4v145.9
						c0,21.5,17.5,39,39,39h107c21.5,0,39-17.5,39-39V263.8l0,0c-0.1-0.7-0.1-1.3-0.1-1.9c0-1.2,0-3,0-5.1c0-4.2,0-9.9-0.1-15.5
						c0-6.3,0-12.5,0-16.9H158z M355,311.1h32.3c17.6,0,31.9-17.5,31.9-39v-8.5c0-21.6-14.4-39.1-32.2-39.1l-32.2-0.1
						c0,12.4,0.1,27.2,0.1,34.5h0.1L355,311.1z"/>
				</g>
				<g>
					<path class="st1" d="M396.8,421.8L396.8,421.8L106,421.6c-3.3,0-6-2.7-6-6s2.7-6,6-6l0,0l290.8,0.2c3.3,0,6,2.7,6,6
						S400.1,421.8,396.8,421.8z"/>
				</g>
				<g>
					<g>
						<path class="st3" d="M0,500"/>
					</g>
					<g>
						<path class="st4" d="M0,500"/>
					</g>
					<g>
						<path class="st4" d="M0,500"/>
					</g>
					<g>
						<path class="st4" d="M0,500"/>
					</g>
					<g>
						<path class="st4" d="M0,500"/>
					</g>
					<g>
						<path class="st4" d="M0,500"/>
					</g>
					<g>
						<path class="st4" d="M0,500"/>
					</g>
					<g>
						<path class="st4" d="M0,500"/>
					</g>
					<g>
						<path class="st4" d="M0,500"/>
					</g>
					<g>
						<path class="st4" d="M0,500"/>
					</g>
					<g>
						<path class="st4" d="M0,500"/>
					</g>
					<g>
						<path class="st4" d="M0,500"/>
					</g>
					<g>
						<path class="st4" d="M0,500"/>
					</g>
					<g>
						<path class="st4" d="M0,500"/>
					</g>
					<g>
						<path class="st4" d="M0,500"/>
					</g>
					<g>
						<path class="st4" d="M0,500"/>
					</g>
					<g>
						<path class="st4" d="M0,500"/>
					</g>
					<g>
						<path class="st4" d="M0,500"/>
					</g>
					<g>
						<path class="st4" d="M0,500"/>
					</g>
					<g>
						<path class="st4" d="M0,500"/>
					</g>
					<g>
						<path class="st4" d="M0,500"/>
					</g>
					<g>
						<path class="st4" d="M0,500"/>
					</g>
					<g>
						<path class="st4" d="M0,500"/>
					</g>
				</g>
			</g>
		</g>
	</g>
</g>
</svg>
