<?xml version="1.0" encoding="utf-8"?>
<!-- Generator: Adobe Illustrator 27.5.0, SVG Export Plug-In . SVG Version: 6.00 Build 0)  -->
<svg version="1.1" id="Layer_1" xmlns="http://www.w3.org/2000/svg" xmlns:xlink="http://www.w3.org/1999/xlink" x="0px" y="0px"
	 viewBox="0 0 500 500" style="enable-background:new 0 0 500 500;" xml:space="preserve">
<style type="text/css">
	.st0{fill:#F9423A;}
	.st1{display:none;fill:none;stroke:#F84239;stroke-width:12;}
	.st2{fill:none;stroke:#F84239;stroke-width:12;}
</style>
<g>
	<g>
		<g>
			<path class="st0" d="M251,319.6c-3.3,0-6-2.7-6-6v-15.3c-10.5-2-20.1-7.7-26.9-16.3c-2.1-2.6-1.6-6.4,1-8.4s6.4-1.6,8.4,1
				c5.7,7.2,14.4,11.7,23.4,12.4c0.3,0,0.6,0,0.9,0.1c1.7,0.1,3.5,0,5.2-0.2c4.7-0.6,8.7-2.2,11.5-4.6c3-2.5,4.9-6,4.9-9.3
				c0.2-9.8-7.1-12.9-22.8-17.2c-13.4-3.7-31.8-8.8-29.7-29c1-9.9,8.6-18.9,19-22.3c1.6-0.5,3.3-0.9,5-1.2v-14.9c0-3.3,2.7-6,6-6
				s6,2.7,6,6v15.1c10.8,2,21,8.8,27,18.8c1.7,2.9,0.7,6.5-2.1,8.2c-2.9,1.7-6.5,0.7-8.2-2.1c-6.2-10.4-19.3-15.9-29.9-12.5
				c-5.8,1.9-10.2,6.9-10.8,12.1c-1,9.2,5.3,11.9,20.9,16.2c13.5,3.7,32,8.9,31.6,29c-0.1,6.7-3.6,13.6-9.3,18.3
				c-4.7,3.9-10.6,6.3-17.6,7.2c-0.5,0.1-1.1,0.1-1.6,0.2v14.7C257,316.9,254.3,319.6,251,319.6z"/>
		</g>
	</g>
	<g>
		<path class="st0" d="M250,382.1c-73,0-132.3-59.3-132.3-132.1S177,117.9,250,117.9S382.3,177.2,382.3,250S323,382.1,250,382.1z
			 M250,129.9c-66.3,0-120.3,53.9-120.3,120.1s54,120.1,120.3,120.1S370.3,316.2,370.3,250S316.3,129.9,250,129.9z"/>
	</g>
	<g>
		<path class="st0" d="M250,429.5C150.9,429.5,70.2,349,70.2,250S150.9,70.5,250,70.5v5.4l2.4,6.4l-0.8,0.3l-1.6-4.3v4.2
			c-92.5,0-167.8,75.1-167.8,167.5S157.5,417.5,250,417.5V417h0.2v12H250V429.5z"/>
	</g>
	<g>
		<path class="st0" d="M250,429.5C150.9,429.5,70.2,349,70.2,250S150.9,70.5,250,70.5S429.8,151,429.8,250S349.1,429.5,250,429.5z
			 M250,82.5c-92.5,0-167.8,75.1-167.8,167.5S157.5,417.5,250,417.5S417.8,342.4,417.8,250S342.5,82.5,250,82.5z"/>
	</g>
</g>
<g>
	<g>
		<path class="st1" d="M0,500"/>
	</g>
	<g>
		<path class="st2" d="M0,500"/>
	</g>
</g>
<g>
	<path class="st2" d="M0,500"/>
</g>
<g>
	<path class="st2" d="M0,500"/>
</g>
<g>
	<path class="st2" d="M0,500"/>
</g>
</svg>
