<?xml version="1.0" encoding="utf-8"?>
<!-- Generator: Adobe Illustrator 27.5.0, SVG Export Plug-In . SVG Version: 6.00 Build 0)  -->
<svg version="1.1" id="Layer_1" xmlns="http://www.w3.org/2000/svg" xmlns:xlink="http://www.w3.org/1999/xlink" x="0px" y="0px"
	 viewBox="0 0 500 500" style="enable-background:new 0 0 500 500;" xml:space="preserve">
<style type="text/css">
	.st0{fill:#F9423A;}
</style>
<path class="st0" d="M130,257.9c-0.7,0-1.4,0-2.1,0.1h40.3c0,0,0-0.1,0-0.1H130z M181.4,253.3c-0.1,0.2-0.1,0.4-0.1,0.6
	c0.1-0.2,0.1-0.3,0.1-0.5c0.5-2,1-3.9,1.6-5.8C182.4,249.5,181.9,251.4,181.4,253.3z M186.5,237.5c0.8-1.9,1.6-3.9,2.5-5.8
	C188.1,233.6,187.2,235.5,186.5,237.5z M188.9,231.7c5.8-12.6,13.8-24.2,23.7-34.3C202.7,207.4,194.8,219,188.9,231.7z"/>
<path class="st0" d="M130,245.9c-0.9,0-1.8,0-2.7,0.1H171c0,0,0-0.1,0-0.1H130z M171.1,318.1h-44.9c1.2,0.1,2.5,0.2,3.8,0.2h41.2
	C171.1,318.2,171.1,318.2,171.1,318.1z M181.5,310.9c-0.1-0.3-0.1-0.6-0.2-0.9c-2.1-8.9-3.2-18.3-3.2-27.9c0-9.6,1.1-19,3.2-28.1
	c0,0,0,0,0,0c-2.2,9.1-3.2,18.2-3.2,28.1c0,9.1,1.1,18.4,3.1,27.4c0,0,0,0,0,0C181.2,310,181.3,310.4,181.5,310.9
	c0,0.3,0,0.6,0.1,0.9C181.6,311.5,181.6,311.2,181.5,310.9z"/>
<path class="st0" d="M168.3,306.1H127c1,0.1,2,0.2,3,0.2h38.3C168.3,306.2,168.3,306.2,168.3,306.1z M214.1,368.2
	c-16.1-15.8-27.4-35.7-32.6-57.5c0-0.2-0.1-0.5-0.2-0.7c0-0.2-0.1-0.3-0.2-0.5c0.1,0.5,0.2,0.9,0.3,1.4c0.1,0.3,0.1,0.6,0.2,0.9v0
	C187,333.2,198.2,352.7,214.1,368.2c0.2,0.3,0.3,0.4,0.5,0.6C214.5,368.6,214.3,368.4,214.1,368.2z"/>
<path class="st0" d="M312.8,162.3c7.8,1,15.4,2.7,22.8,5.2C328.2,165,320.5,163.2,312.8,162.3z M273.6,163.9c2.5-0.5,5-1,7.5-1.3
	C278.6,162.9,276.1,163.4,273.6,163.9z M251.2,158c2-0.8,4-1.5,6-2.1C255.1,156.6,253.1,157.3,251.2,158z M229.2,183.3
	c-0.4,0.2-0.7,0.5-1.1,0.8c-0.5,0.3-0.9,0.7-1.3,1c-0.3,0.2-0.6,0.5-0.9,0.7c-1.1,0.8-2.2,1.7-3.3,2.6c-0.3,0.2-0.6,0.5-1,0.8
	c-0.5,0.4-1,0.8-1.5,1.3c-0.6,0.6-1.3,1.1-1.9,1.7c-0.8,0.7-1.6,1.4-2.3,2.1c-0.6,0.6-1.2,1.2-1.8,1.7c-0.2,0.2-0.4,0.4-0.5,0.5
	c0.2-0.2,0.5-0.4,0.7-0.5c5.2-5.1,10.7-9.7,16.6-13.8C230.2,182.5,229.7,182.9,229.2,183.3z"/>
<path class="st0" d="M207.5,185.6h0.1c5.3-5,10.9-9.6,16.8-13.6C218.5,176,212.8,180.5,207.5,185.6z M285.5,150c2-0.2,4-0.3,6-0.4
	C289.5,149.7,287.5,149.8,285.5,150z M321.4,151.5c3.3,0.6,6.6,1.3,9.9,2.2C328,152.8,324.7,152.1,321.4,151.5z M168.3,306.1
	c-1.4-7.8-2.2-15.9-2.2-24c0-8.2,0.7-16.2,2.1-24.1c0,0,0-0.1,0-0.1h0c0,0,0,0.1,0,0.1c-1.5,7.8-2.2,15.8-2.2,24.1
	C166,290.1,166.8,298.1,168.3,306.1c-0.1,0.1,0,0.1,0,0.2h0.1C168.3,306.2,168.3,306.2,168.3,306.1z M171.2,318.3
	c0-0.1,0-0.1-0.1-0.2h-0.2c0,0.1,0,0.1,0.1,0.2c5,17.6,13.5,34,25.2,48.2h0.1C184.6,352.3,176.1,335.9,171.2,318.3z M196.2,197.7
	c-11.6,14.1-20.1,30.5-25.1,48.2c0,0,0,0.1,0,0.1h0c0,0,0-0.1,0-0.1c5-17.7,13.6-34,25.3-48.2H196.2z"/>
<path class="st0" d="M406.9,207c-14-20.4-33.2-36.4-55.6-46.3c-0.4-19.5-16.5-35.4-36.1-35.5H123.3c-9.5,0-18.5,3.8-25.4,10.7
	c-6.9,6.8-10.6,15.8-10.6,25.5c0,9.8,3.9,18.7,10.2,25.2c-6.3,1.6-12.1,4.9-16.9,9.7c-6.9,6.8-10.6,15.8-10.6,25.5
	c0,19.1,14.7,34.7,33.3,36.1c-6.1,6.6-9.3,15.1-9.3,24.2c0,9.3,3.5,17.7,9.2,24.1c-8.4,0.7-16.3,4.4-22.5,10.6
	c-6.9,6.8-10.6,15.8-10.6,25.5c0,20,16.1,36.2,36,36.2h101.3c24.6,23.4,56.7,36.2,90.6,36.2c35.3,0,68.5-13.8,93.4-38.9
	c24.9-25,38.6-58.3,38.6-93.8C430,255.1,422,229.1,406.9,207z M106.3,144.3c4.6-4.6,10.7-7.1,17-7.1h191.9
	c11.3,0.1,20.9,8,23.4,18.6c-0.8-0.3-1.6-0.5-2.4-0.8c-0.8-0.2-1.6-0.5-2.5-0.7s-1.7-0.5-2.5-0.7c-3.3-0.9-6.5-1.6-9.9-2.2
	c-0.1,0-0.2,0-0.3,0c-0.7-0.1-1.3-0.2-1.9-0.3c-0.4-0.1-0.8-0.1-1.2-0.2c-0.5-0.1-1-0.1-1.5-0.2c-0.5-0.1-1-0.1-1.4-0.2
	c-0.5-0.1-1-0.1-1.5-0.2c-0.9-0.1-1.7-0.2-2.6-0.3c-0.5,0-1-0.1-1.5-0.1c-0.6-0.1-1.1-0.1-1.7-0.1c-0.3,0-0.5-0.1-0.8-0.1
	c-0.8-0.1-1.6-0.1-2.3-0.1l-0.6,0c-0.9,0-1.7-0.1-2.6-0.1c-1.2,0-2.4,0-3.6,0c-1,0-2,0-3.1,0c-0.9,0-1.7,0-2.6,0.1
	c-0.3,0-0.5,0-0.8,0c-2,0.1-4,0.2-6,0.4c-0.8,0.1-1.7,0.2-2.5,0.3c-0.2,0-0.5,0-0.7,0.1c-0.8,0.1-1.6,0.2-2.3,0.3
	c-0.3,0-0.5,0.1-0.8,0.1c-0.4,0.1-0.9,0.1-1.3,0.2c-0.7,0.1-1.5,0.2-2.2,0.4c-0.1,0-0.1,0-0.2,0c-1,0.2-1.9,0.3-2.9,0.5
	c-0.2,0-0.3,0.1-0.5,0.1c-0.9,0.2-1.8,0.4-2.7,0.6c-1,0.2-2.1,0.5-3.1,0.7c-1,0.2-1.9,0.5-2.9,0.8c-0.2,0-0.4,0.1-0.6,0.1
	c-0.9,0.2-1.8,0.5-2.7,0.8c-1,0.3-2,0.6-3,0.9c-2,0.7-4,1.4-6,2.1c-1,0.4-2,0.8-2.9,1.2c-1,0.4-2,0.8-2.9,1.2
	c-0.9,0.4-1.8,0.8-2.8,1.3c-0.1,0-0.2,0.1-0.2,0.1c-0.8,0.4-1.6,0.8-2.4,1.1c-0.4,0.2-0.7,0.4-1.1,0.5c-0.4,0.2-0.8,0.4-1.2,0.6
	c-0.7,0.3-1.3,0.7-1.9,1c-0.2,0.1-0.5,0.2-0.7,0.4c-0.7,0.4-1.4,0.8-2,1.1c-0.2,0.1-0.5,0.3-0.7,0.4c-0.8,0.5-1.5,0.9-2.3,1.4
	c-1,0.6-2,1.2-3,1.9c-0.9,0.6-1.7,1.1-2.6,1.7c-5.9,4.1-11.5,8.6-16.8,13.6h-84.3c-13.2,0-24-10.9-24-24.2
	C99.3,154.9,101.8,148.8,106.3,144.3z M82,221.8c0-6.5,2.5-12.6,7-17.1c4.7-4.6,10.7-7.1,17-7.1l90.2,0.1h0.1
	c-11.7,14.2-20.3,30.5-25.3,48.2c0,0,0,0.1,0,0.1h-65C92.8,246,82,235.1,82,221.8z M168.2,257.9C168.2,257.9,168.2,258,168.2,257.9
	c-1.4,8-2.1,16-2.1,24.2c0,8.1,0.8,16.2,2.2,24c0,0.1,0,0.1,0,0.2H130c-1,0-2-0.1-3-0.2c-11.8-1.5-21-11.7-21-24
	c0-6.5,2.5-12.6,7-17.1c4.1-4.1,9.4-6.5,14.9-7c0.7-0.1,1.4-0.1,2.1-0.1H168.2z M106.1,366.5c-13.2,0-24-10.9-24-24.2
	c0-6.5,2.5-12.6,7-17.1c4.6-4.6,10.7-7.1,17-7.1h65c0,0.1,0,0.1,0.1,0.2c4.9,17.6,13.5,34,25.1,48.2H106.1z M298,402.7
	c-31.3,0-60.9-12-83.4-33.9c-0.2-0.2-0.3-0.3-0.5-0.5c-15.9-15.6-27.1-35.1-32.5-56.5v0c-0.1-0.3-0.2-0.6-0.2-0.9
	c-0.1-0.5-0.2-0.9-0.3-1.4c0,0,0,0,0,0c-2-9-3.1-18.3-3.1-27.4c0-9.8,1-19,3.2-28.1c0,0,0,0,0,0v0c0,0,0,0,0,0
	c0-0.2,0.1-0.4,0.1-0.6c0.5-1.9,1-3.8,1.6-5.7c1-3.5,2.2-6.8,3.5-10.1c0.8-1.9,1.6-3.9,2.5-5.8c5.8-12.7,13.8-24.4,23.7-34.3
	c0.3-0.3,0.6-0.6,0.9-0.9c0,0,0,0,0,0c0.2-0.2,0.4-0.4,0.5-0.5c0.6-0.6,1.2-1.2,1.8-1.7c0.8-0.7,1.5-1.4,2.3-2.1
	c0.6-0.6,1.2-1.1,1.9-1.7c0.5-0.4,1-0.8,1.5-1.3c0.3-0.3,0.6-0.5,1-0.8c1.1-0.9,2.2-1.8,3.3-2.6c0.3-0.2,0.6-0.5,0.9-0.7
	c0.5-0.3,0.9-0.7,1.3-1c0.3-0.3,0.7-0.5,1.1-0.8c0.5-0.4,1.1-0.8,1.6-1.1h0c0.5-0.3,0.9-0.6,1.4-0.9c0.5-0.3,0.9-0.6,1.4-0.9
	c0.5-0.3,0.9-0.6,1.4-0.9c0.5-0.3,1-0.6,1.5-0.9c1.8-1.1,3.7-2.2,5.6-3.2c1.4-0.8,2.9-1.5,4.4-2.2c8.6-4.2,17.8-7.2,27.2-9.2
	c2.5-0.5,5-1,7.5-1.3c0.9-0.1,1.7-0.2,2.5-0.3c1.9-0.2,3.7-0.4,5.6-0.5c1-0.1,2-0.1,2.9-0.2c1.9-0.1,3.9-0.1,5.8-0.1h0.4
	c1.6,0,3.1,0,4.7,0.1c1.4,0,2.9,0.1,4.3,0.3c1.8,0.1,3.6,0.3,5.4,0.5c7.8,0.9,15.4,2.7,22.8,5.2c0.6,0.2,1.2,0.4,1.8,0.6
	c0.3,0.1,0.6,0.2,0.9,0.3c1.5,0.5,3,1.1,4.5,1.8c45.7,18.5,75.2,62.4,75.2,111.9C418,348.6,364.2,402.7,298,402.7z"/>
<g>
	<path class="st0" d="M298,374c-19,0-37.2-5.8-52.6-16.7c-15.1-10.7-26.5-25.5-33-42.9c-3.9-10.5-5.9-21.3-5.9-32.3
		c0-11.1,2-22,5.9-32.3c13.4-35.6,47.8-59.6,85.6-59.6c6.5,0,13.1,0.7,20.2,2.2c20,4.5,38,15.8,51,31.9
		c13.1,16.3,20.4,36.8,20.4,57.8s-7.2,41.5-20.3,57.7c-12.9,16-31,27.4-50.9,31.9C311.3,373.2,304.5,374,298,374z M298,202.2
		c-32.9,0-62.8,20.8-74.4,51.8c-3.4,9.1-5.1,18.3-5.1,28.1c0,9.5,1.7,19,5.1,28.1c11.6,31,41.5,51.8,74.4,51.8
		c5.7,0,11.6-0.7,17.6-2c36.4-8.3,61.9-40.4,61.9-77.9c0-37-26-69.8-61.9-77.9C309.4,202.8,303.7,202.2,298,202.2z"/>
</g>
<g>
	<path class="st0" d="M297.4,332.1c-3.3,0-6-2.7-6-6v-9.6c-7.5-1.7-14.4-5.9-19.4-12.1c-2.1-2.6-1.7-6.4,0.9-8.4
		c2.6-2.1,6.4-1.6,8.4,0.9c3.7,4.7,9.3,7.7,15.1,8.3c0.8-0.1,1.7-0.1,2.4,0.1c0.8,0,1.6-0.1,2.4-0.2c3.1-0.4,5.6-1.4,7.5-2.9
		c1.9-1.7,3-3.7,3.1-5.7c0.1-5.7-3.5-7.6-15.3-10.9c-9.7-2.7-24.4-6.8-22.7-22.9c0.8-7.9,6.8-15,14.9-17.7c0.8-0.3,1.7-0.5,2.6-0.7
		v-9.6c0-3.3,2.7-6,6-6s6,2.7,6,6v9.8c7.8,1.9,14.9,6.9,19.2,14.3c1.7,2.9,0.7,6.5-2.2,8.2s-6.5,0.7-8.2-2.2
		c-4-7-12.7-10.7-19.6-8.4c-3.5,1.2-6.4,4.3-6.7,7.5c-0.5,5,1.8,6.7,14,10.1c10.3,2.9,24.4,6.8,24.1,22.8
		c-0.1,5.3-2.8,10.6-7.3,14.5l-0.1,0.1c-3.5,2.9-8,4.8-13.1,5.6v9.1C303.4,329.4,300.7,332.1,297.4,332.1z"/>
</g>
</svg>
