<?xml version="1.0" encoding="utf-8"?>
<!-- Generator: Adobe Illustrator 27.5.0, SVG Export Plug-In . SVG Version: 6.00 Build 0)  -->
<svg version="1.1" id="Layer_1" xmlns="http://www.w3.org/2000/svg" xmlns:xlink="http://www.w3.org/1999/xlink" x="0px" y="0px"
	 viewBox="0 0 500 500" style="enable-background:new 0 0 500 500;" xml:space="preserve">
<style type="text/css">
	.st0{fill:#F9423A;}
</style>
<g>
	<g>
		<path class="st0" d="M180.3,258H106c-19.9,0-36-16.1-36-36s16.1-36,36-36h118.5L214,196.3c-16.1,15.7-27.3,35.4-32.6,57.1
			L180.3,258z M106,198c-13.2,0-24,10.8-24,24s10.8,24,24,24h65c4.9-17.6,13.5-33.9,25.2-48H106z"/>
	</g>
	<g>
		<path class="st0" d="M183.3,318H130c-19.9,0-36-16.1-36-36s16.1-36,36-36h53.2l-1.8,7.4c-2.3,9.5-3.4,19.1-3.4,28.6
			c0,9.9,1.2,19.5,3.4,28.5L183.3,318z M130,258c-13.2,0-24,10.8-24,24s10.8,24,24,24h38.2c-1.4-7.8-2.2-15.8-2.2-24
			c0-8,0.7-16,2.2-24H130z"/>
	</g>
	<g>
		<path class="st0" d="M224.5,378H106c-19.9,0-36-16.1-36-36s16.1-36,36-36h74.3l1.1,4.6c5.3,21.7,16.6,41.5,32.6,57.2L224.5,378z
			 M106,318c-13.2,0-24,10.8-24,24s10.8,24,24,24h90.2c-11.6-14.1-20.2-30.4-25.2-48H106z"/>
	</g>
	<g>
		<path class="st0" d="M212.2,198h-89c-19.9,0-36-16.1-36-36s16.1-36,36-36h192c19.9,0,36.1,16.1,36.1,36c0,1.2-0.1,2.5-0.2,3.7
			l-0.8,8l-7.4-3c-14.2-5.7-29.3-8.7-44.9-8.7c-31.6,0-61.4,12.2-84,34.3L212.2,198z M123.2,138c-13.2,0-24,10.8-24,24
			s10.8,24,24,24h84.2c24.6-23.2,56.7-36,90.6-36c13.9,0,27.6,2.1,40.6,6.4c-2.6-10.5-12.1-18.4-23.4-18.4H123.2z"/>
	</g>
	<g>
		<g>
			<path class="st0" d="M298,414c-34.7,0-67.5-13.4-92.4-37.7c-17.7-17.2-30.1-39-35.8-62.9c-2.5-10.4-3.8-21-3.8-31.4
				c0-10.8,1.3-21.4,3.8-31.5c5.7-23.7,18.1-45.4,35.8-62.8c24.8-24.3,57.6-37.7,92.4-37.7c17.2,0,33.8,3.2,49.4,9.5
				c24.1,9.7,44.7,26.3,59.5,47.8c15.1,22,23.1,47.8,23.1,74.7C430,354.8,370.8,414,298,414z M298,162c-31.7,0-61.5,12.2-84,34.3
				c-16.1,15.8-27.4,35.6-32.6,57.1c-2.3,9.1-3.4,18.7-3.4,28.6c0,9.5,1.2,19.1,3.4,28.6c5.2,21.7,16.5,41.4,32.6,57.1
				c22.6,22.1,52.4,34.3,84,34.3c66.2,0,120-53.8,120-120c0-49.2-29.5-92.9-75.1-111.3C328.7,164.9,313.6,162,298,162z"/>
		</g>
		<g>
			<path class="st0" d="M298,373.4c-38,0-72.4-23.8-85.6-59.3c-3.8-10.2-5.8-21-5.8-32.1s1.9-21.9,5.8-32.1
				c13.2-35.5,47.6-59.3,85.6-59.3c7,0,13.7,0.8,20.2,2.3c19.9,4.5,38,15.7,50.9,31.7c13.1,16.2,20.3,36.6,20.3,57.5
				C389.4,332.4,348.4,373.4,298,373.4z M298,202.6c-33,0-62.9,20.7-74.4,51.5c-3.3,8.9-5,18.2-5,27.9s1.7,19,5,27.9
				c11.5,30.8,41.4,51.5,74.4,51.5c43.8,0,79.4-35.6,79.4-79.4c0-37.4-25.5-69.2-61.9-77.4C309.9,203.3,304,202.6,298,202.6z"/>
		</g>
	</g>
	<g>
		<g>
			<path class="st0" d="M295.7,321.6c-23.3,0-42.3-19-42.3-42.3s19-42.3,42.3-42.3c10.1,0,19.9,3.6,27.5,10.1
				c2.5,2.2,2.8,5.9,0.7,8.5c-2.2,2.5-5.9,2.8-8.5,0.7c-5.5-4.7-12.5-7.3-19.7-7.3c-16.7,0-30.3,13.6-30.3,30.3s13.6,30.3,30.3,30.3
				c7.2,0,14.2-2.6,19.7-7.3c2.5-2.2,6.3-1.9,8.5,0.7c2.2,2.5,1.9,6.3-0.7,8.5C315.6,318,305.8,321.6,295.7,321.6z"/>
		</g>
		<g>
			<path class="st0" d="M296,295h-49.9c-3.3,0-6-2.7-6-6s2.7-6,6-6H296c3.3,0,6,2.7,6,6S299.3,295,296,295z M296,275.5h-49.9
				c-3.3,0-6-2.7-6-6s2.7-6,6-6H296c3.3,0,6,2.7,6,6S299.3,275.5,296,275.5z"/>
		</g>
	</g>
</g>
</svg>
