<?xml version="1.0" encoding="utf-8"?>
<!-- Generator: Adobe Illustrator 27.5.0, SVG Export Plug-In . SVG Version: 6.00 Build 0)  -->
<svg version="1.1" id="Layer_1" xmlns="http://www.w3.org/2000/svg" xmlns:xlink="http://www.w3.org/1999/xlink" x="0px" y="0px"
	 viewBox="0 0 500 500" style="enable-background:new 0 0 500 500;" xml:space="preserve">
<style type="text/css">
	.st0{fill:#F9423A;}
	.st1{display:none;fill:none;stroke:#F84239;stroke-width:12;}
	.st2{fill:none;stroke:#F84239;stroke-width:12;}
</style>
<g>
	<g>
		<g>
			<path class="st0" d="M251.1,307.1c-31,0-56.2-25.2-56.2-56.1s25.2-56.1,56.2-56.1c13.5,0,26.5,4.8,36.5,13.5
				c2.5,2.2,2.8,6,0.6,8.5c-2.2,2.5-6,2.8-8.5,0.6c-7.9-6.8-18.1-10.5-28.7-10.5c-24.4,0-44.2,19.8-44.2,44.1s19.8,44.1,44.2,44.1
				c10.5,0,20.7-3.8,28.7-10.6c2.5-2.1,6.3-1.8,8.5,0.7c2.1,2.5,1.8,6.3-0.7,8.5C277.4,302.3,264.5,307.1,251.1,307.1z"/>
		</g>
		<g>
			<path class="st0" d="M251.6,270.4h-69c-3.3,0-6-2.7-6-6s2.7-6,6-6h69c3.3,0,6,2.7,6,6S254.9,270.4,251.6,270.4z M251.6,243.6h-69
				c-3.3,0-6-2.7-6-6s2.7-6,6-6h69c3.3,0,6,2.7,6,6S254.9,243.6,251.6,243.6z"/>
		</g>
	</g>
	<g>
		<path class="st0" d="M250,382.2c-73,0-132.4-59.3-132.4-132.2S177,117.8,250,117.8S382.4,177.1,382.4,250S323,382.2,250,382.2z
			 M250,129.8c-66.4,0-120.4,53.9-120.4,120.2s54,120.2,120.4,120.2S370.4,316.3,370.4,250S316.4,129.8,250,129.8z"/>
	</g>
	<g>
		<path class="st0" d="M250,429.6C150.7,429.6,70,349,70,250S150.7,70.4,250,70.4v5.3l2.4,6.4l-0.8,0.3l-1.6-4.3v4.3
			c-92.6,0-168,75.2-168,167.6s75.4,167.6,168,167.6v-0.4h0.2v12H250V429.6z"/>
	</g>
	<g>
		<path class="st0" d="M250,429.6C150.7,429.6,70,349,70,250S150.7,70.4,250,70.4S430,151,430,250S349.3,429.6,250,429.6z M250,82.4
			c-92.6,0-168,75.2-168,167.6s75.4,167.6,168,167.6S418,342.4,418,250S342.6,82.4,250,82.4z"/>
	</g>
</g>
<g>
	<path class="st1" d="M0,500"/>
	<path class="st2" d="M0,500"/>
</g>
<path class="st2" d="M0,500"/>
<path class="st2" d="M0,500"/>
<g>
	<g>
		<path class="st1" d="M0,500"/>
	</g>
	<g>
		<path class="st2" d="M0,500"/>
	</g>
	<g>
		<path class="st2" d="M0,500"/>
	</g>
	<g>
		<path class="st2" d="M0,500"/>
	</g>
	<g>
		<path class="st2" d="M0,500"/>
	</g>
	<g>
		<path class="st2" d="M0,500"/>
	</g>
	<g>
		<path class="st2" d="M0,500"/>
	</g>
	<g>
		<path class="st2" d="M0,500"/>
	</g>
	<g>
		<path class="st2" d="M0,500"/>
	</g>
	<g>
		<path class="st2" d="M0,500"/>
	</g>
	<g>
		<path class="st2" d="M0,500"/>
	</g>
	<g>
		<path class="st2" d="M0,500"/>
	</g>
</g>
</svg>
