<?xml version="1.0" encoding="utf-8"?>
<!-- Generator: Adobe Illustrator 27.5.0, SVG Export Plug-In . SVG Version: 6.00 Build 0)  -->
<svg version="1.1" id="Layer_1" xmlns="http://www.w3.org/2000/svg" xmlns:xlink="http://www.w3.org/1999/xlink" x="0px" y="0px"
	 viewBox="0 0 500 500" style="enable-background:new 0 0 500 500;" xml:space="preserve">
<style type="text/css">
	.st0{fill:#F9423A;}
	.st1{fill:none;stroke:#F9423A;stroke-width:12;stroke-linecap:round;stroke-linejoin:round;}
</style>
<g>
	<g>
		<path class="st0" d="M387.7,83.9H112.3c-15.7,0-28.4,12.7-28.4,28.4v275.4c0,15.7,12.7,28.4,28.4,28.4h275.4
			c15.7,0,28.4-12.7,28.4-28.4V112.3C416.1,96.6,403.4,83.9,387.7,83.9z M404.1,387.8c0,9-7.4,16.4-16.4,16.4H112.3
			c-9,0-16.4-7.4-16.4-16.4V147.3h308.2V387.8z M404.1,135.3H95.9v-23c0-9,7.4-16.4,16.4-16.4h275.4c9,0,16.4,7.4,16.4,16.4V135.3z"
			/>
		<g>
			<path class="st0" d="M178,123.1h-0.1c-4.1,0-7.5-3.4-7.5-7.5s3.4-7.5,7.5-7.5h0.1c4.1,0,7.5,3.4,7.5,7.5S182.1,123.1,178,123.1z
				 M149.9,123.1h-0.1c-4.1,0-7.5-3.4-7.5-7.5s3.4-7.5,7.5-7.5h0.1c4.1,0,7.5,3.4,7.5,7.5S154,123.1,149.9,123.1z M121.7,123.1
				L121.7,123.1c-4.2,0-7.6-3.4-7.6-7.5s3.4-7.5,7.5-7.5h0.1c4.1,0,7.5,3.4,7.5,7.5S125.8,123.1,121.7,123.1z"/>
		</g>
		<g>
			<path class="st0" d="M338,334.3h-90.2c-3.3,0-6-2.7-6-6s2.7-6,6-6H338c3.3,0,6,2.7,6,6S341.3,334.3,338,334.3z M170,334.3
				c-1.5,0-3.1-0.6-4.2-1.8c-2.3-2.3-2.3-6.1,0-8.5l48.4-48.4l-48.4-48.4c-2.3-2.3-2.3-6.1,0-8.5s6.1-2.3,8.5,0l52.6,52.6
				c2.3,2.3,2.3,6.1,0,8.5l-52.6,52.6C173.1,333.7,171.5,334.3,170,334.3z"/>
		</g>
	</g>
	<path class="st1" d="M0,500"/>
</g>
</svg>
