<?xml version="1.0" encoding="iso-8859-1"?>
<!-- Generator: Adobe Illustrator 29.6.1, SVG Export Plug-In . SVG Version: 9.03 Build 0)  -->
<svg version="1.1" id="Layer_1" xmlns="http://www.w3.org/2000/svg" xmlns:xlink="http://www.w3.org/1999/xlink" x="0px" y="0px"
	 viewBox="0 0 500 500" style="enable-background:new 0 0 500 500;" xml:space="preserve">
<g>
	<path style="fill:#F9423A;" d="M410.15,416.15h-173.5c-3.313,0-6-2.687-6-6v-66.7c0-3.313,2.687-6,6-6s6,2.687,6,6v60.7h161.5
		V239.136l-76.586-76.585H249.95c-3.313,0-6-2.687-6-6s2.687-6,6-6h80.1c1.591,0,3.117,0.632,4.242,1.757l80.101,80.1
		c1.126,1.125,1.758,2.651,1.758,4.243v173.5C416.15,413.464,413.464,416.15,410.15,416.15z"/>
</g>
<g>
	<path style="fill:#F9423A;" d="M410.05,242.65h-80.1c-3.313,0-6-2.687-6-6v-80.1c0-2.427,1.462-4.615,3.704-5.543
		c2.24-0.928,4.821-0.416,6.538,1.301l80.1,80.1c1.717,1.716,2.229,4.297,1.301,6.539C414.664,241.188,412.476,242.65,410.05,242.65
		z M335.95,230.65h59.614l-59.614-59.615V230.65z"/>
</g>
<g>
	<path style="fill:#F9423A;" d="M309.951,335.95c-1.565,0-3.129-0.608-4.306-1.82l-20.2-20.8c-0.004-0.004-0.009-0.009-0.014-0.014
		c-0.002-0.002-0.004-0.004-0.006-0.006c-1.028-1.07-1.665-2.521-1.676-4.119c0,0,0-0.002,0-0.004c0-0.016,0-0.031,0-0.047l0,0
		c0-0.003,0-0.006,0-0.009c0-0.001,0-0.002,0-0.004s0-0.003,0-0.005c0-0.003,0-0.005,0-0.007c0-0.001,0-0.001,0-0.002
		c0.01-1.582,0.631-3.02,1.641-4.087c0.002,0,0.002-0.003,0.006-0.005c0.001-0.002,0.002-0.003,0.004-0.005c0,0,0,0,0.001-0.001
		c0.062-0.064,0.124-0.128,0.189-0.19c0.001-0.001,0.001-0.002,0.002-0.002c0.001-0.002,0.003-0.003,0.004-0.004
		c0.008-0.008,0.017-0.016,0.024-0.023l20.195-19.195c2.402-2.283,6.199-2.188,8.482,0.215s2.187,6.2-0.215,8.482l-9.312,8.852
		h65.179c3.313,0,6,2.687,6,6s-2.687,6-6,6h-66.01l10.314,10.62c2.309,2.377,2.253,6.175-0.125,8.484
		C312.965,335.387,311.457,335.95,309.951,335.95z"/>
</g>
<g>
	<path style="fill:#F9423A;" d="M263.351,349.45c-0.366,0-0.731-0.033-1.09-0.1H89.85c-3.313,0-6-2.687-6-6V89.85
		c0-3.313,2.687-6,6-6h93.4c1.591,0,3.117,0.632,4.243,1.757l80.1,80.1c1.126,1.125,1.758,2.651,1.758,4.243v173.5
		c0,2.422-1.455,4.605-3.69,5.538C264.914,349.299,264.13,349.45,263.351,349.45z M95.85,337.35h161.5V172.435L180.764,95.85H95.85
		V337.35z"/>
</g>
<g>
	<path style="fill:#F9423A;" d="M263.251,175.95c-0.367,0-0.732-0.034-1.093-0.1H183.15c-3.313,0-6-2.687-6-6v-80
		c0-2.427,1.462-4.615,3.704-5.543c2.242-0.928,4.822-0.415,6.539,1.301l79.398,79.398c1.491,1.092,2.459,2.855,2.459,4.844v0.1
		c0,2.427-1.462,4.615-3.704,5.543C264.803,175.801,264.024,175.95,263.251,175.95z M189.15,163.85h59.514l-59.514-59.515V163.85z"
		/>
</g>
<g>
	<path style="fill:#F9423A;" d="M196.449,269.25c-1.506,0-3.014-0.563-4.18-1.695c-2.377-2.31-2.433-6.107-0.124-8.484l10.313-10.62
		H136.45c-3.313,0-6-2.687-6-6s2.687-6,6-6h65.179l-9.312-8.851c-2.402-2.283-2.498-6.081-0.215-8.483
		c2.284-2.401,6.081-2.499,8.483-0.215l20.2,19.2c0.08,0.077,0.158,0.155,0.234,0.235l0,0c0.001,0.002,0.003,0.003,0.005,0.005
		c0.001,0.001,0.002,0.002,0.003,0.003c0,0,0.001,0.001,0.002,0.002c0.998,1.065,1.612,2.494,1.622,4.067c0,0,0,0,0,0.001
		c0,0.002,0,0.005,0,0.007s0,0.003,0,0.005c0,0.001,0,0.002,0,0.003c0,0.003,0,0.005,0,0.008l0,0c0,0.016,0,0.031,0,0.046
		c0,0.002,0,0.003,0,0.005c-0.011,1.589-0.639,3.031-1.657,4.098l0,0l0,0c-0.013,0.014-0.026,0.027-0.039,0.04l-20.2,20.799
		C199.578,268.641,198.014,269.25,196.449,269.25z"/>
</g>
</svg>
