<?xml version="1.0" encoding="utf-8"?>
<!-- Generator: Adobe Illustrator 27.5.0, SVG Export Plug-In . SVG Version: 6.00 Build 0)  -->
<svg version="1.1" id="Layer_1" xmlns="http://www.w3.org/2000/svg" xmlns:xlink="http://www.w3.org/1999/xlink" x="0px" y="0px"
	 viewBox="0 0 500 500" style="enable-background:new 0 0 500 500;" xml:space="preserve">
<style type="text/css">
	.st0{clip-path:url(#SVGID_00000173155061524823332530000016528138273557247109_);}
	.st1{fill:#F9423A;}
	.st2{display:none;fill:none;stroke:#F9423A;stroke-width:12;stroke-linecap:round;stroke-linejoin:round;}
	.st3{fill:none;stroke:#F9423A;stroke-width:12;stroke-linecap:round;stroke-linejoin:round;}
</style>
<g>
	<g>
		<g>
			<defs>
				<rect id="SVGID_1_" width="500" height="500"/>
			</defs>
			<clipPath id="SVGID_00000136370359664273051660000005986931565917651095_">
				<use xlink:href="#SVGID_1_"  style="overflow:visible;"/>
			</clipPath>
			<g style="clip-path:url(#SVGID_00000136370359664273051660000005986931565917651095_);">
				<g>
					<g>
						<path class="st1" d="M384,307H116c-3.3,0-6-2.7-6-6V165.5c0-3.3,2.7-6,6-6h268c3.3,0,6,2.7,6,6V301
							C390,304.3,387.3,307,384,307z M122,295h256V171.5H122V295z"/>
					</g>
					<g>
						<path class="st1" d="M437,396.4H63c-2.1,0-4.1-1.1-5.1-2.9l-14-23.4c-0.1-0.1-0.1-0.2-0.2-0.3c-0.7-1.4-0.9-2.9-0.5-4.3l0,0
							l0,0l0,0l0,0l0,0l0,0l0,0l0,0l0,0l0,0l0,0l0,0l0,0l0,0l0,0l0,0l0,0c0.3-1,0.9-2,1.7-2.7L85,323.5v-183c0-3.3,2.7-6,6-6h318
							c3.3,0,6,2.7,6,6v183l40.1,39.1c0.8,0.8,1.4,1.7,1.7,2.7l0,0l0,0l0,0l0,0l0,0l0,0l0,0l0,0l0,0l0,0l0,0l0,0l0,0l0,0l0,0l0,0
							l0,0c0.4,1.4,0.2,3-0.5,4.3c-0.1,0.1-0.1,0.2-0.2,0.3l-14,23.4C441.1,395.3,439.1,396.4,437,396.4z M66.4,384.4h367.2
							l6.8-11.4H59.6L66.4,384.4z M63.7,361h372.5l-29.7-29l-313.6,0.5L63.7,361z M97,320h306V146.5H97V320z"/>
					</g>
				</g>
				<g>
					<g>
						<path class="st2" d="M0,500"/>
					</g>
					<g>
						<path class="st3" d="M0,500"/>
					</g>
					<g>
						<path class="st3" d="M0,500"/>
					</g>
					<g>
						<path class="st3" d="M0,500"/>
					</g>
					<g>
						<path class="st3" d="M0,500"/>
					</g>
					<g>
						<path class="st3" d="M0,500"/>
					</g>
					<g>
						<path class="st3" d="M0,500"/>
					</g>
					<g>
						<path class="st3" d="M0,500"/>
					</g>
					<g>
						<path class="st3" d="M0,500"/>
					</g>
					<g>
						<path class="st3" d="M0,500"/>
					</g>
					<g>
						<path class="st3" d="M0,500"/>
					</g>
					<g>
						<path class="st3" d="M0,500"/>
					</g>
				</g>
			</g>
		</g>
	</g>
</g>
</svg>
