<?xml version="1.0" encoding="iso-8859-1"?>
<!-- Generator: Adobe Illustrator 29.6.1, SVG Export Plug-In . SVG Version: 9.03 Build 0)  -->
<svg version="1.1" id="Layer_1" xmlns="http://www.w3.org/2000/svg" xmlns:xlink="http://www.w3.org/1999/xlink" x="0px" y="0px"
	 viewBox="0 0 500 500" style="enable-background:new 0 0 500 500;" xml:space="preserve">
<g>
	<g>
		<path style="fill:#F9423A;" d="M431,403.5H321c-3.313,0-6-2.687-6-6s2.687-6,6-6h110c3.313,0,6,2.687,6,6S434.314,403.5,431,403.5
			z M161.025,382.758c-1.046,0-2.105-0.273-3.068-0.849c-39.568-23.608-66.242-63.155-73.183-108.501
			c-0.501-3.276,1.748-6.338,5.023-6.839c3.275-0.502,6.337,1.747,6.839,5.022c6.396,41.793,30.988,78.246,67.469,100.013
			c2.846,1.697,3.776,5.381,2.078,8.227C165.06,381.713,163.068,382.758,161.025,382.758z M382.287,233.501
			c-2.912,0-5.469-2.125-5.923-5.093c-5.061-33.061-21.851-63.396-47.277-85.416C303.403,120.749,270.522,108.5,236.5,108.5
			c-3.313,0-6-2.687-6-6s2.687-6,6-6c36.907,0,72.578,13.29,100.442,37.421c27.579,23.884,45.792,56.795,51.283,92.671
			c0.502,3.275-1.747,6.337-5.022,6.839C382.896,233.478,382.589,233.501,382.287,233.501z"/>
	</g>
	<g>
		<path style="fill:#F9423A;" d="M236.5,403.5H56c-3.314,0-6-2.687-6-6s2.686-6,6-6h180.5c78.023,0,141.5-63.477,141.5-141.5
			c0-3.313,2.687-6,6-6s6,2.687,6,6C390,334.641,321.141,403.5,236.5,403.5z M89,256c-3.314,0-6-2.687-6-6
			c0-36.355,12.939-71.618,36.435-99.293c23.225-27.355,55.377-45.795,90.535-51.922c3.269-0.57,6.373,1.616,6.941,4.881
			s-1.617,6.372-4.881,6.941c-32.399,5.646-62.035,22.646-83.447,47.867C106.927,183.982,95,216.486,95,250
			C95,253.313,92.314,256,89,256z"/>
	</g>
	<g>
		<path style="fill:#F9423A;" d="M411,438.5c-1.535,0-3.071-0.586-4.242-1.758c-2.344-2.343-2.344-6.142,0-8.484l30.757-30.758
			l-30.757-30.758c-2.344-2.343-2.344-6.142,0-8.484c2.342-2.344,6.143-2.344,8.484,0l35,35c2.344,2.343,2.344,6.142,0,8.484l-35,35
			C414.071,437.914,412.535,438.5,411,438.5z M271,143.5c-1.535,0-3.071-0.586-4.242-1.757l-35-35c-2.343-2.343-2.343-6.142,0-8.485
			l35-35c2.342-2.343,6.143-2.343,8.484,0c2.344,2.343,2.344,6.142,0,8.485L244.485,102.5l30.757,30.757
			c2.344,2.343,2.344,6.142,0,8.485C274.071,142.914,272.535,143.5,271,143.5z"/>
	</g>
	<g>
		<path style="fill:#F9423A;" d="M419,291c-1.535,0-3.071-0.586-4.242-1.758L384,258.485l-30.758,30.757
			c-2.342,2.344-6.143,2.344-8.484,0c-2.344-2.343-2.344-6.142,0-8.484l35-35c2.342-2.343,6.143-2.343,8.484,0l35,35
			c2.344,2.343,2.344,6.142,0,8.484C422.071,290.414,420.535,291,419,291z M89,256.5c-1.536,0-3.071-0.586-4.243-1.758l-35-35
			c-2.343-2.343-2.343-6.142,0-8.485s6.143-2.343,8.485,0L89,242.015l30.757-30.757c2.343-2.343,6.143-2.343,8.485,0
			c2.343,2.343,2.343,6.142,0,8.485l-35,35C92.071,255.914,90.536,256.5,89,256.5z"/>
	</g>
</g>
</svg>
