<?xml version="1.0" encoding="iso-8859-1"?>
<!-- Generator: Adobe Illustrator 29.6.1, SVG Export Plug-In . SVG Version: 9.03 Build 0)  -->
<svg version="1.1" id="Layer_1" xmlns="http://www.w3.org/2000/svg" xmlns:xlink="http://www.w3.org/1999/xlink" x="0px" y="0px"
	 viewBox="0 0 500 500" style="enable-background:new 0 0 500 500;" xml:space="preserve">
<defs>
	<filter id="Adobe_OpacityMaskFilter" filterUnits="userSpaceOnUse" x="154" y="214" width="262" height="217">
		<feColorMatrix  type="matrix" values="1 0 0 0 0  0 1 0 0 0  0 0 1 0 0  0 0 0 1 0"/>
	</filter>
</defs>
<mask maskUnits="userSpaceOnUse" x="154" y="214" width="262" height="217" id="t2SgHrt6yla_00000172397928798798444110000001169319584655169689_">
	<path style="fill:#FFFFFF;filter:url(#Adobe_OpacityMaskFilter);" d="M130,245h51.667L215,280l33.333-35H320
		c11.046,0,20-8.954,20-20v-25h95v245H130V245z"/>
</mask>
<g style="mask:url(#t2SgHrt6yla_00000172397928798798444110000001169319584655169689_);">
	<g>
		<path style="fill:#F9423A;" d="M285,431c-1.643,0-3.213-0.673-4.345-1.862L249.096,396H180c-14.336,0-26-11.663-26-26V240
			c0-14.336,11.664-26,26-26h210c14.337,0,26,11.664,26,26v130c0,14.337-11.663,26-26,26h-69.096l-31.56,33.138
			C288.213,430.327,286.643,431,285,431z M180,226c-7.72,0-14,6.28-14,14v130c0,7.72,6.28,14,14,14h71.667
			c1.642,0,3.212,0.673,4.345,1.862L285,416.3l28.988-30.438c1.133-1.189,2.703-1.862,4.345-1.862H390c7.72,0,14-6.28,14-14V240
			c0-7.72-6.28-14-14-14H180z"/>
	</g>
</g>
<g>
	<path style="fill:#F9423A;" d="M286,356h-65c-3.313,0-6-2.687-6-6s2.687-6,6-6h65c3.313,0,6,2.687,6,6S289.313,356,286,356z
		 M351,321H221c-3.313,0-6-2.687-6-6s2.687-6,6-6h130c3.313,0,6,2.687,6,6S354.313,321,351,321z M351,286H221c-3.313,0-6-2.687-6-6
		s2.687-6,6-6h130c3.313,0,6,2.687,6,6S354.313,286,351,286z"/>
</g>
<g>
	<path style="fill:#F9423A;" d="M215,286c-1.642,0-3.212-0.673-4.345-1.862L179.096,251H110c-14.336,0-26-11.664-26-26V95
		c0-14.336,11.664-26,26-26h210c14.337,0,26,11.664,26,26v130c0,14.336-11.663,26-26,26h-69.096l-31.56,33.138
		C218.212,285.327,216.642,286,215,286z M110,81c-7.72,0-14,6.28-14,14v130c0,7.72,6.28,14,14,14h71.667
		c1.642,0,3.212,0.673,4.345,1.862L215,271.3l28.988-30.438c1.132-1.189,2.703-1.862,4.345-1.862H320c7.72,0,14-6.28,14-14V95
		c0-7.72-6.28-14-14-14H110z"/>
</g>
<g>
	<path style="fill:#F9423A;" d="M244.389,206.451c-0.955,0-1.914-0.228-2.792-0.689L215,191.779l-26.597,13.983
		c-2.021,1.064-4.47,0.886-6.319-0.457c-1.848-1.342-2.773-3.617-2.387-5.868l5.08-29.617l-21.519-20.975
		c-1.636-1.594-2.224-3.979-1.519-6.15c0.706-2.172,2.583-3.755,4.844-4.083l29.737-4.32l13.299-26.946
		c1.011-2.048,3.097-3.345,5.38-3.345s4.37,1.296,5.38,3.345l13.299,26.946l29.736,4.32c2.261,0.328,4.139,1.911,4.844,4.083
		c0.706,2.172,0.117,4.557-1.518,6.15l-21.519,20.975l5.08,29.617c0.386,2.251-0.539,4.526-2.387,5.868
		C246.871,206.064,245.632,206.451,244.389,206.451z M215,179c0.959,0,1.918,0.23,2.792,0.689l18.628,9.793l-3.558-20.744
		c-0.334-1.946,0.312-3.932,1.726-5.311l15.071-14.69l-20.827-3.026c-1.954-0.284-3.644-1.511-4.518-3.282L215,123.557
		l-9.314,18.873c-0.874,1.771-2.563,2.999-4.518,3.282l-20.827,3.026l15.071,14.69c1.414,1.378,2.06,3.364,1.726,5.311
		l-3.558,20.744l18.628-9.793C213.082,179.23,214.041,179,215,179z"/>
</g>
</svg>
