<?xml version="1.0" encoding="utf-8"?>
<!-- Generator: Adobe Illustrator 27.5.0, SVG Export Plug-In . SVG Version: 6.00 Build 0)  -->
<svg version="1.1" id="Layer_1" xmlns="http://www.w3.org/2000/svg" xmlns:xlink="http://www.w3.org/1999/xlink" x="0px" y="0px"
	 viewBox="0 0 500 500" style="enable-background:new 0 0 500 500;" xml:space="preserve">
<style type="text/css">
	.st0{fill:#F9423A;}
	.st1{display:none;fill:none;stroke:#F84239;stroke-width:12.6;stroke-linecap:round;stroke-linejoin:round;}
	.st2{fill:none;stroke:#F84239;stroke-width:12;stroke-linecap:round;stroke-linejoin:round;}
</style>
<g>
	<g>
		<g>
			<path class="st0" d="M185.4,428.5h-68.3c-7,0-12.7-5.7-12.7-12.7v-37c0-7,5.7-12.7,12.7-12.7h1.4v-14.5l-47-53
				c-5.3-6-8.2-13.8-8.2-21.8v-90c0-13,10.6-23.6,23.6-23.6s23.6,10.6,23.6,23.6l-0.2,66.1c1.1-0.5,2.3-0.9,3.5-1.2
				c11.5-3.2,24.4,0.6,32.9,9.6l48.3,51.8c1,1.1,1.6,2.6,1.6,4.1v49.1c3,0.5,5.8,2.2,7.7,4.6c2.4,3.1,3.3,7,2.4,10.9l-9.1,36.9
				C196.4,424.4,191.3,428.5,185.4,428.5z M117.1,378.1c-0.4,0-0.7,0.3-0.7,0.7v37c0,0.4,0.3,0.7,0.7,0.7h68.3
				c0.3,0,0.5-0.1,0.5-0.3c0-0.1,0-0.2,0.1-0.3l9.1-37c0.1-0.2-0.1-0.5-0.2-0.6c-0.1-0.2-0.3-0.3-0.5-0.3L117.1,378.1L117.1,378.1z
				 M130.5,366.1h54.1v-46.5l-46.7-50.1c-5.4-5.8-13.6-8.2-20.9-6.2c-5,1.3-6.4,3.7-6.7,6.2v0.2l34.5,38.7c1,1.1,1.5,2.6,1.5,4
				c0,1.7-0.7,3.3-2,4.5c-2.5,2.2-6.3,2-8.5-0.5l-36-40.4l0,0l0,0l0,0l0,0l0,0l0,0l0,0l0,0l0,0l0,0l0,0l0,0l0,0l0,0l0,0l0,0l0,0l0,0
				l0,0l0,0l0,0l0,0l0,0l0,0l0,0l0,0l0,0l0,0l0,0c-0.4-0.5-0.7-1-1-1.6l0,0l0,0l0,0l0,0l0,0l0,0l0,0l0,0l0,0l0,0l0,0l0,0l0,0l0,0
				l0,0l0,0l0,0l0,0l0,0l0,0l0,0l0,0l0,0l0,0l0,0l0,0l0,0l0,0l0,0l0,0l0,0l0,0l0,0c-0.1-0.3-0.2-0.7-0.3-1l0,0v-0.1l0,0
				c0-0.2-0.1-0.4-0.1-0.6c-0.1-1.1-0.1-2.2,0-3.3l0.2-82.4c0-6.4-5.2-11.6-11.6-11.6s-11.6,5.2-11.6,11.6v90c0,5.1,1.9,10,5.2,13.8
				l48.5,54.7c1,1.1,1.5,2.5,1.5,4v16.6H130.5z"/>
		</g>
		<g>
			<path class="st0" d="M382.9,428.5h-68.3c-5.9,0-11-4.1-12.3-9.8l-9.1-36.9c-0.9-3.9,0-7.8,2.4-10.9c2-2.5,4.7-4.1,7.7-4.6v-49.1
				c0-1.5,0.6-3,1.6-4.1l48.3-51.8c8.4-9,21.3-12.8,32.9-9.6c1.2,0.3,2.4,0.7,3.4,1.2l-0.2-66.1c0-13,10.6-23.6,23.6-23.6
				s23.6,10.6,23.6,23.6v90c0,8-2.9,15.7-8.2,21.8l-47,53v14.5h1.4c7,0,12.7,5.7,12.7,12.7v37C395.6,422.8,389.9,428.5,382.9,428.5z
				 M305.6,378.1c-0.2,0-0.4,0.1-0.5,0.3c-0.1,0.1-0.2,0.4-0.2,0.6l9.1,37c0,0.1,0,0.2,0.1,0.3c0,0.1,0.2,0.3,0.5,0.3h68.3
				c0.4,0,0.7-0.3,0.7-0.7v-37c0-0.4-0.3-0.7-0.7-0.7L305.6,378.1L305.6,378.1z M315.4,366.1h54.1v-16.8c0-1.5,0.5-2.9,1.5-4
				l48.5-54.7c3.3-3.8,5.2-8.7,5.2-13.8v-90c0-6.4-5.2-11.6-11.6-11.6s-11.6,5.2-11.6,11.6l0.2,82.3c0.1,1.1,0.1,2.1,0,3.3
				c0,0.2,0,0.4-0.1,0.6l0,0v0.1l0,0c-0.1,0.3-0.2,0.7-0.3,1l0,0l0,0l0,0l0,0l0,0l0,0l0,0l0,0l0,0l0,0l0,0l0,0l0,0l0,0l0,0l0,0l0,0
				l0,0l0,0l0,0l0,0l0,0l0,0l0,0l0,0l0,0l0,0l0,0l0,0l0,0l0,0l0,0l0,0c-0.2,0.6-0.6,1.1-1,1.6l0,0l0,0l0,0l0,0l0,0l0,0l0,0l0,0l0,0
				l0,0l0,0l0,0l0,0l0,0l0,0l0,0l0,0l0,0l0,0l0,0l0,0l0,0l0,0l0,0l0,0l0,0l0,0l0,0l0,0l-36,40.4c-2.2,2.5-6,2.7-8.5,0.5
				c-1.3-1.2-2-2.8-2-4.5c0-1.4,0.5-2.8,1.5-4l34.5-38.7v-0.2c-0.3-2.5-1.7-4.9-6.7-6.2c-7.3-2-15.5,0.4-20.9,6.2l-46.7,50.1v46.8
				H315.4z"/>
		</g>
		<g>
			<path class="st0" d="M250.1,277c-1.6,0-3.1-0.6-4.2-1.8l-90.1-90.1c-27.2-27.2-27.2-71.4,0-98.6C168.9,73.3,186.4,66,205,66
				c16.7,0,32.5,5.9,45.1,16.6c14.7-12.5,33.7-18.4,53-16.2c15.9,1.8,30.2,8.7,41.5,20c13.2,13.1,20.5,30.6,20.5,49.2
				s-7.3,36.1-20.5,49.2L254.4,275C253.2,276.4,251.7,277,250.1,277z M205,78.1c-15.4,0-29.9,6-40.7,16.9
				c-22.5,22.5-22.5,59.1,0,81.6l85.9,85.9l86-86l0,0c10.9-10.9,16.9-25.4,16.9-40.8s-6-29.9-16.9-40.7
				c-9.4-9.4-21.2-15.1-34.4-16.6c-17.5-2-34.8,4.1-47.3,16.6l-0.1,0.1c-2.3,2.3-6.1,2.3-8.5,0l-0.1-0.1
				C234.8,84.1,220.4,78.1,205,78.1z"/>
		</g>
	</g>
	<g>
		<g>
			<g>
				<path class="st1" d="M0,500"/>
			</g>
		</g>
		<g>
			<g>
				<path class="st2" d="M0,500"/>
			</g>
		</g>
		<g>
			<g>
				<path class="st2" d="M0,500"/>
			</g>
		</g>
		<g>
			<g>
				<path class="st2" d="M0,500"/>
			</g>
		</g>
		<g>
			<g>
				<path class="st2" d="M0,500"/>
			</g>
		</g>
		<g>
			<g>
				<path class="st2" d="M0,500"/>
			</g>
		</g>
		<g>
			<g>
				<path class="st2" d="M0,500"/>
			</g>
		</g>
		<g>
			<g>
				<path class="st2" d="M0,500"/>
			</g>
		</g>
		<g>
			<g>
				<path class="st2" d="M0,500"/>
			</g>
		</g>
		<g>
			<g>
				<path class="st2" d="M0,500"/>
			</g>
		</g>
		<g>
			<g>
				<path class="st2" d="M0,500"/>
			</g>
		</g>
		<g>
			<g>
				<path class="st2" d="M0,500"/>
			</g>
		</g>
	</g>
</g>
</svg>
