<?xml version="1.0" encoding="iso-8859-1"?>
<!-- Generator: Adobe Illustrator 29.6.1, SVG Export Plug-In . SVG Version: 9.03 Build 0)  -->
<svg version="1.1" id="Layer_1" xmlns="http://www.w3.org/2000/svg" xmlns:xlink="http://www.w3.org/1999/xlink" x="0px" y="0px"
	 viewBox="0 0 500 500" style="enable-background:new 0 0 500 500;" xml:space="preserve">
<g>
	<g>
		<path style="fill:#F9423A;" d="M253.25,443.35c-18.141,0-32.9-14.759-32.9-32.9v-15c0-3.313,2.687-6,6-6s6,2.687,6,6v15
			c0,11.524,9.375,20.9,20.9,20.9s20.9-9.376,20.9-20.9v-15.1c0-3.313,2.687-6,6-6s6,2.687,6,6v15.1
			C286.15,428.591,271.392,443.35,253.25,443.35z M292.854,266.85c-1.855,0-3.684-0.856-4.858-2.473
			c-1.948-2.68-1.354-6.433,1.326-8.381l43.2-31.4c2.678-1.947,6.433-1.355,8.381,1.326s1.354,6.433-1.326,8.381l-43.2,31.4
			C295.312,266.478,294.077,266.85,292.854,266.85z M250.15,264.95c-3.313,0-6-2.687-6-6v-84.3c0-3.313,2.687-6,6-6
			c3.314,0,6,2.687,6,6v84.3C256.149,262.263,253.464,264.95,250.15,264.95z M200.545,262.55c-1.259,0-2.528-0.395-3.61-1.211
			l-37.099-28c-2.645-1.996-3.171-5.759-1.175-8.403c1.996-2.647,5.758-3.171,8.404-1.175l37.099,28
			c2.645,1.996,3.171,5.759,1.175,8.403C204.16,261.727,202.363,262.55,200.545,262.55z"/>
	</g>
	<g>
		<path style="fill:#F9423A;" d="M253.15,409.75c-10.835,0-21.313-3.271-30.302-9.457c-0.029-0.02-0.057-0.04-0.085-0.06
			c-2.489-1.778-4.661-3.554-6.639-5.428c-10.073-9.717-15.837-22.69-16.271-36.567l-1.1-31.579
			c-0.002-0.069-0.003-0.14-0.003-0.209v-0.2c0-3.313,2.687-6,6-6s6,2.687,6,6v0.096l1.097,31.496
			c0.336,10.755,4.799,20.795,12.569,28.29c1.522,1.442,3.262,2.863,5.279,4.306c6.969,4.784,15.079,7.312,23.456,7.312
			c8.484,0,16.6-2.531,23.468-7.321c10.759-7.414,17.416-19.583,17.835-32.571l1.001-28.815c0.115-3.312,2.921-5.908,6.204-5.788
			c3.312,0.114,5.903,2.893,5.788,6.204l-1,28.801c-0.54,16.767-9.136,32.484-22.992,42.032
			C274.591,406.472,264.103,409.75,253.15,409.75z"/>
	</g>
	<g>
		<path style="fill:#F9423A;" d="M301.551,335.15c-0.338,0-0.678-0.028-1.017-0.087c-2.246-0.386-4.079-2.01-4.732-4.192
			c-0.939-3.14-1.645-6.266-2.325-9.289c-2.506-11.127-4.89-21.704-19.097-33.64c-13.952,26.431-39.914,43.271-69.379,44.503
			c-2.037,0.066-3.95-0.87-5.113-2.479l-0.055-0.067c-5.534-6.749-18.007-25.051-14.313-49.157
			c2.216-14.474,7.969-24.451,11.2-29.11c2.631-3.715,6.506-6.122,10.947-6.826c4.388-0.696,8.758,0.367,12.315,2.994l12.556,8.968
			c1.468,1.056,3.493,1.246,5.175,0.5c9.567-4.349,28.547-10.985,47.653-6.349c0.055,0.014,0.109,0.027,0.164,0.043
			c0.583,0.159,14.38,4.035,22.235,15.994c9.73,14.839,11.034,48.761-1.37,65.734C305.253,334.251,303.444,335.15,301.551,335.15z
			 M198.978,328.087c0.17,0.608,0.432,1.178,0.77,1.675c-0.188-0.284-0.354-0.588-0.494-0.908
			C199.143,328.603,199.051,328.346,198.978,328.087z M200.507,322.208c-1.132,1.132-1.668,2.52-1.746,3.879
			C198.848,324.654,199.448,323.266,200.507,322.208z M200.518,322.197c-0.003,0.003-0.006,0.007-0.01,0.01
			C200.511,322.204,200.515,322.2,200.518,322.197z M210.26,256.6c-0.237,0-0.476,0.019-0.715,0.057
			c-1.221,0.193-2.286,0.854-2.999,1.861c-4.46,6.431-7.813,15.211-9.166,24.04c-2.654,17.316,5.236,31.07,10.155,37.707
			c26.359-2.194,48.303-18.442,59.088-43.952c0.709-1.677,2.141-2.94,3.893-3.437c1.75-0.494,3.633-0.169,5.116,0.888
			c17.634,12.566,23.802,24.443,27.083,35.356c1.977-13.38-0.499-28.742-4.983-35.581c-5.087-7.743-14.443-10.724-15.32-10.989
			c-16.153-3.864-33.192,2.667-39.779,5.661c-5.632,2.506-12.16,1.85-17.084-1.689l-12.585-8.989
			c-0.032-0.023-0.064-0.047-0.096-0.07C212.106,256.896,211.201,256.6,210.26,256.6z M118.75,256.75c-34.187,0-62-27.813-62-62
			s27.813-62,62-62s62,27.813,62,62S152.937,256.75,118.75,256.75z M118.75,144.75c-27.57,0-50,22.43-50,50s22.43,50,50,50
			s50-22.43,50-50S146.32,144.75,118.75,144.75z"/>
	</g>
	<g>
		<path style="fill:#F9423A;" d="M118.755,226.351c-0.004,0-0.007,0-0.011,0c-0.817,0-1.645-0.167-2.431-0.518
			c-0.167-0.074-0.331-0.156-0.491-0.245c-11.252-6.077-27.879-22.732-28.664-37.112c-0.769-12.077,7.597-18.321,12.336-20.029
			c6.591-2.723,13.817-1.326,19.255,3.243c5.438-4.57,12.664-5.965,19.255-3.243c4.74,1.708,13.104,7.953,12.333,20.083
			c-0.781,14.327-17.414,30.985-28.666,37.061c-0.147,0.082-0.298,0.158-0.452,0.227
			C120.423,226.179,119.584,226.351,118.755,226.351z M103.608,179.723c-1.219,0.481-4.83,2.396-4.47,8.046
			c0.381,6.977,9.978,19.208,19.612,25.59c9.634-6.382,19.231-18.608,19.609-25.536c0.363-5.704-3.248-7.619-4.467-8.1
			c-0.181-0.055-0.197-0.069-0.396-0.154c-3.924-1.672-7.637,1.047-9.451,4.303c-0.283,0.533-0.648,1.025-1.089,1.458
			c-0.507,0.499-1.093,0.896-1.726,1.183c-0.799,0.364-1.642,0.538-2.476,0.538c-0.003,0-0.008,0-0.011,0
			c-0.823,0-1.655-0.169-2.446-0.524c-0.659-0.294-1.268-0.708-1.791-1.232c-0.425-0.424-0.778-0.905-1.054-1.423
			c-1.813-3.256-5.527-5.973-9.451-4.303C103.805,179.654,103.789,179.668,103.608,179.723z"/>
	</g>
	<g>
		<path style="fill:#F9423A;" d="M381.25,258.55c-34.187,0-62-27.813-62-62s27.813-62,62-62s62,27.813,62,62
			S415.437,258.55,381.25,258.55z M381.25,146.55c-27.57,0-50,22.43-50,50s22.43,50,50,50s50-22.43,50-50
			S408.82,146.55,381.25,146.55z"/>
	</g>
	<g>
		<path style="fill:#F9423A;" d="M381.35,229.55L381.35,229.55c-2.039,0-3.938-1.036-5.044-2.75
			c-3.064-4.756-18.355-29.032-18.355-39.85c0-12.903,10.497-23.4,23.399-23.4c12.903,0,23.4,10.497,23.4,23.4
			c0,10.818-15.292,35.094-18.357,39.851C385.288,228.514,383.389,229.55,381.35,229.55z M381.35,175.55
			c-6.286,0-11.399,5.114-11.399,11.4c0,3.804,5.29,14.68,11.399,25.125c6.11-10.446,11.4-21.321,11.4-25.125
			C392.75,180.664,387.636,175.55,381.35,175.55z"/>
	</g>
	<g>
		<path style="fill:#F9423A;" d="M250.15,180.65c-34.187,0-62-27.813-62-62s27.813-62,62-62s62,27.813,62,62
			S284.337,180.65,250.15,180.65z M250.15,68.65c-27.57,0-50,22.43-50,50s22.43,50,50,50c27.571,0,50-22.43,50-50
			S277.721,68.65,250.15,68.65z"/>
	</g>
	<g>
		<path style="fill:#F9423A;" d="M381.45,192.222h-0.101c-3.313,0-6-2.687-6-6c0-3.314,2.687-6,6-6h0.101c3.313,0,6,2.686,6,6
			C387.45,189.535,384.764,192.222,381.45,192.222z M266.15,148.15h-32.1c-2.532,0-4.791-1.589-5.647-3.972l-11.1-30.9
			c-0.66-1.838-0.384-3.883,0.739-5.48c1.124-1.598,2.955-2.548,4.908-2.548h3.11l8.603-16.037c1.566-2.919,5.204-4.017,8.124-2.451
			s4.017,5.204,2.451,8.124l-5.56,10.364h20.845l-5.56-10.364c-1.566-2.92-0.47-6.557,2.451-8.124
			c2.918-1.566,6.557-0.47,8.123,2.451l8.603,16.037h3.21c1.956,0,3.789,0.954,4.912,2.555c1.124,1.602,1.396,3.65,0.729,5.489
			l-11.199,30.9C270.931,146.569,268.676,148.15,266.15,148.15z M238.27,136.15h23.673l6.85-18.9h-37.312L238.27,136.15z"/>
	</g>
</g>
</svg>
