<?xml version="1.0" encoding="utf-8"?>
<!-- Generator: Adobe Illustrator 27.5.0, SVG Export Plug-In . SVG Version: 6.00 Build 0)  -->
<svg version="1.1" id="Layer_1" xmlns="http://www.w3.org/2000/svg" xmlns:xlink="http://www.w3.org/1999/xlink" x="0px" y="0px"
	 viewBox="0 0 500 500" style="enable-background:new 0 0 500 500;" xml:space="preserve">
<style type="text/css">
	.st0{clip-path:url(#SVGID_00000008870163601897790430000001513815701503672964_);}
	.st1{fill:#F9423A;}
	.st2{fill:none;stroke:#F9423A;stroke-width:25.2;stroke-linecap:round;stroke-linejoin:round;}
</style>
<g>
	<g>
		<g>
			<defs>
				<rect id="SVGID_1_" width="500" height="500"/>
			</defs>
			<clipPath id="SVGID_00000111890808532205687270000004571016675932840373_">
				<use xlink:href="#SVGID_1_"  style="overflow:visible;"/>
			</clipPath>
			<g style="clip-path:url(#SVGID_00000111890808532205687270000004571016675932840373_);">
				<g>
					<path class="st1" d="M250,321c-1,0-2.1-0.3-3.1-0.9l-63.4-38c-2.8-1.7-3.8-5.4-2.1-8.2c1.7-2.8,5.4-3.8,8.2-2.1l63.4,38
						c2.8,1.7,3.8,5.4,2.1,8.2C254,320,252,321,250,321z"/>
				</g>
				<g>
					<path class="st1" d="M406.9,353H93.1c-2.9,0-5.3-2-5.9-4.8c-2.2-11-3.3-22.2-3.3-33.2c0-91.6,74.5-166.1,166.1-166.1
						S416.1,223.4,416.1,315c0,11.2-1.1,22.4-3.3,33.2C412.2,351,409.8,353,406.9,353z M98.1,341h303.8c1.4-8.5,2.2-17.2,2.2-26
						c0-85-69.1-154.1-154.1-154.1S95.9,230,95.9,315C95.9,323.6,96.6,332.3,98.1,341z M380.8,321h-27.5c-3.3,0-6-2.7-6-6s2.7-6,6-6
						h27.5c3.3,0,6,2.7,6,6S384.1,321,380.8,321z M146.7,321h-27.5c-3.3,0-6-2.7-6-6s2.7-6,6-6h27.5c3.3,0,6,2.7,6,6
						S150,321,146.7,321z M339.5,269.4c-2.1,0-4.1-1.1-5.2-3c-1.7-2.9-0.7-6.5,2.2-8.2l23.8-13.7c2.9-1.7,6.5-0.7,8.2,2.2
						s0.7,6.5-2.2,8.2l-23.8,13.7C341.5,269.1,340.5,269.4,339.5,269.4z M160.5,269.4c-1,0-2-0.3-3-0.8l-23.8-13.7
						c-2.9-1.7-3.9-5.3-2.2-8.2s5.3-3.9,8.2-2.2l23.8,13.7c2.9,1.7,3.9,5.3,2.2,8.2C164.6,268.3,162.6,269.4,160.5,269.4z
						 M198.3,231.6c-2.1,0-4.1-1.1-5.2-3l-13.7-23.8c-1.7-2.9-0.7-6.5,2.2-8.2s6.5-0.7,8.2,2.2l13.7,23.8c1.7,2.9,0.7,6.5-2.2,8.2
						C200.4,231.3,199.3,231.6,198.3,231.6z M301.7,231.6c-1,0-2-0.3-3-0.8c-2.9-1.7-3.9-5.3-2.2-8.2l13.7-23.8
						c1.7-2.9,5.3-3.9,8.2-2.2s3.9,5.3,2.2,8.2l-13.7,23.8C305.8,230.5,303.8,231.6,301.7,231.6z M250,217.8c-3.3,0-6-2.7-6-6v-27.5
						c0-3.3,2.7-6,6-6s6,2.7,6,6v27.5C256,215.1,253.3,217.8,250,217.8z"/>
				</g>
				<g>
					<path class="st1" d="M250,327.6c-0.4,0-0.8,0-1.2-0.1s-0.8-0.1-1.2-0.2c-0.8-0.2-1.6-0.4-2.4-0.7c-0.8-0.3-1.5-0.7-2.2-1.2
						c-0.4-0.2-0.7-0.5-1-0.7c-0.3-0.3-0.6-0.5-0.9-0.8s-0.6-0.6-0.8-0.9c-0.3-0.3-0.5-0.7-0.7-1c-0.5-0.7-0.8-1.4-1.2-2.2
						c-0.3-0.8-0.6-1.5-0.7-2.4c-0.1-0.4-0.1-0.8-0.2-1.2c0-0.4-0.1-0.8-0.1-1.2s0-0.8,0.1-1.2s0.1-0.8,0.2-1.2
						c0.2-0.8,0.4-1.6,0.7-2.4s0.7-1.5,1.2-2.2c0.2-0.3,0.5-0.7,0.7-1c0.3-0.3,0.5-0.6,0.8-0.9s0.6-0.6,0.9-0.8s0.6-0.5,1-0.7
						c0.7-0.5,1.4-0.8,2.2-1.2c0.8-0.3,1.6-0.5,2.4-0.7c0.4-0.1,0.8-0.1,1.2-0.2c0.8-0.1,1.7-0.1,2.5,0c0.4,0,0.8,0.1,1.2,0.2
						c0.8,0.2,1.6,0.4,2.4,0.7c0.8,0.3,1.5,0.7,2.2,1.2c0.3,0.2,0.7,0.5,1,0.7c0.3,0.3,0.6,0.5,0.9,0.8s0.6,0.6,0.8,0.9
						c0.3,0.3,0.5,0.7,0.7,1c0.5,0.7,0.8,1.4,1.2,2.2c0.3,0.8,0.6,1.5,0.7,2.4c0.1,0.4,0.2,0.8,0.2,1.2s0.1,0.8,0.1,1.2
						s0,0.8-0.1,1.2c0,0.4-0.1,0.8-0.2,1.2c-0.2,0.8-0.4,1.6-0.7,2.4c-0.3,0.8-0.7,1.5-1.2,2.2c-0.2,0.3-0.5,0.7-0.7,1
						c-0.3,0.3-0.5,0.6-0.8,0.9s-0.6,0.6-0.9,0.8c-0.3,0.3-0.7,0.5-1,0.7c-0.7,0.5-1.4,0.8-2.2,1.2c-0.8,0.3-1.5,0.6-2.4,0.7
						c-0.4,0.1-0.8,0.2-1.2,0.2C250.8,327.6,250.4,327.6,250,327.6z"/>
				</g>
				<g>
					<path class="st2" d="M0,500"/>
				</g>
			</g>
		</g>
	</g>
</g>
</svg>
