<?xml version="1.0" encoding="iso-8859-1"?>
<!-- Generator: Adobe Illustrator 29.6.1, SVG Export Plug-In . SVG Version: 9.03 Build 0)  -->
<svg version="1.1" id="Layer_1" xmlns="http://www.w3.org/2000/svg" xmlns:xlink="http://www.w3.org/1999/xlink" x="0px" y="0px"
	 viewBox="0 0 500 500" style="enable-background:new 0 0 500 500;" xml:space="preserve">
<g>
	<g>
		<path style="fill:#F9423A;" d="M375,401h-60c-3.313,0-6-2.687-6-6V111H191v284c0,3.313-2.687,6-6,6h-60c-3.313,0-6-2.687-6-6V111
			H75c-3.313,0-6-2.687-6-6s2.687-6,6-6h50c3.313,0,6,2.687,6,6v284h48V105c0-3.313,2.687-6,6-6h130c3.313,0,6,2.687,6,6v284h48V105
			c0-3.313,2.687-6,6-6h50c3.313,0,6,2.687,6,6s-2.687,6-6,6h-44v284C381,398.313,378.314,401,375,401z"/>
	</g>
	<g>
		<path style="fill:#F9423A;" d="M405,281c-1.535,0-3.071-0.586-4.242-1.758c-2.344-2.343-2.344-6.142,0-8.484L420.515,251H65
			c-3.313,0-6-2.687-6-6s2.687-6,6-6h355.515l-19.757-19.757c-2.344-2.343-2.344-6.142,0-8.485c2.342-2.343,6.143-2.343,8.484,0
			l29.995,29.995c0.02,0.02,0.039,0.039,0.059,0.059c0.001,0.001,0.003,0.002,0.004,0.004c0.003,0.003,0.006,0.005,0.009,0.008
			c0.002,0.003,0.005,0.005,0.007,0.008c0.002,0.001,0.003,0.002,0.004,0.004c0.54,0.559,0.95,1.198,1.229,1.877
			c0.275,0.667,0.434,1.395,0.45,2.158c0,0.002,0,0.005,0,0.007c0,0.003,0,0.006,0,0.009c0,0.005,0,0.01,0,0.015
			c0,0,0,0.001,0,0.002c0.001,0.064,0.001,0.128,0,0.192c0,0,0,0.001,0,0.002c0,0.005,0,0.01,0,0.015c0,0.003,0,0.006,0,0.009
			c0,0.002,0,0.005,0,0.007c-0.017,0.763-0.175,1.49-0.45,2.158c-0.279,0.679-0.689,1.317-1.229,1.877
			c-0.001,0.001-0.002,0.003-0.004,0.004c-0.002,0.003-0.005,0.006-0.007,0.008c-0.003,0.003-0.006,0.006-0.009,0.009
			c-0.001,0.001-0.003,0.003-0.004,0.004c-0.02,0.02-0.039,0.039-0.059,0.06l-29.995,29.994C408.071,280.414,406.535,281,405,281z"
			/>
	</g>
</g>
</svg>
