<?xml version="1.0" encoding="utf-8"?>
<!-- Generator: Adobe Illustrator 27.5.0, SVG Export Plug-In . SVG Version: 6.00 Build 0)  -->
<svg version="1.1" id="Layer_1" xmlns="http://www.w3.org/2000/svg" xmlns:xlink="http://www.w3.org/1999/xlink" x="0px" y="0px"
	 viewBox="0 0 500 500" style="enable-background:new 0 0 500 500;" xml:space="preserve">
<style type="text/css">
	.st0{fill:#F9423A;}
	.st1{fill:none;stroke:#F9423A;stroke-width:30;stroke-linecap:round;stroke-linejoin:round;stroke-dasharray:0.1,1089;}
</style>
<g>
	<g>
		<g>
			<g>
				<path class="st0" d="M250,285c-20,0-36.3-16.3-36.3-36.3s16.3-36.3,36.3-36.3s36.3,16.3,36.3,36.3S270,285,250,285z M250,224.4
					c-13.4,0-24.3,10.9-24.3,24.3S236.6,273,250,273s24.3-10.9,24.3-24.3S263.4,224.4,250,224.4z"/>
			</g>
			<g>
				<path class="st0" d="M250,218.4c-16.8,0-30.3,13.6-30.3,30.3S233.3,279,250,279s30.3-13.6,30.3-30.3S266.8,218.4,250,218.4z"/>
			</g>
		</g>
		<g>
			<path class="st0" d="M305.8,421.5c-18.7,0-39-5.8-59.8-17.2c-35.8-19.7-69.1-54-93.7-96.6s-37.7-88.6-36.8-129.5
				c0.9-42,16.4-73.8,43.6-89.5s62.4-13.2,99.3,7c35.9,19.7,69.2,54,93.7,96.6c24.6,42.6,37.7,88.6,36.8,129.5
				c-0.9,42-16.4,73.8-43.6,89.5l0,0C333.5,418.1,320.1,421.5,305.8,421.5z M198.6,90.5c-12.2,0-23.5,2.8-33.5,8.6
				c-23.4,13.5-36.8,41.7-37.6,79.3c-0.9,38.7,11.6,82.5,35.2,123.3c23.5,40.8,55.1,73.5,89.1,92.1c33,18.1,64.1,20.6,87.5,7.1l0,0
				c23.4-13.5,36.8-41.7,37.6-79.3c0.9-38.7-11.6-82.5-35.2-123.3c-23.5-40.8-55.1-73.5-89.1-92.1C233.6,95.8,215.2,90.5,198.6,90.5
				z"/>
		</g>
		<g>
			<path class="st0" d="M342.3,421.1c-5.2,0-10.3-2.7-13.1-7.6c-4.1-7.2-1.6-16.3,5.6-20.4c7.1-4.1,16.3-1.7,20.4,5.4
				c4.2,7.1,1.8,16.3-5.4,20.5l-0.3,0.2C347.4,420.5,344.8,421.1,342.3,421.1z M341.1,403.9l1.2,2.2L341.1,403.9z"/>
		</g>
		<g>
			<path class="st0" d="M250,366c-49.2,0-95.6-11.7-130.5-32.9c-35.9-21.8-55.7-51.1-55.7-82.5s19.8-60.7,55.7-82.5
				c35-21.2,81.3-32.9,130.5-32.9s95.6,11.7,130.5,32.9c35.9,21.8,55.7,51.1,55.7,82.5s-19.8,60.7-55.7,82.5
				C345.6,354.3,299.2,366,250,366z M250,147.2c-47,0-91.2,11.1-124.3,31.2c-32.2,19.5-49.9,45.2-49.9,72.2s17.7,52.7,49.9,72.2
				C158.8,342.9,203,354,250,354s91.2-11.1,124.3-31.2c32.2-19.5,49.9-45.2,49.9-72.2s-17.7-52.7-49.9-72.2
				C341.2,158.3,297,147.2,250,147.2z"/>
		</g>
		<g>
			<path class="st0" d="M69.8,265.7c-8.3,0-15-6.7-15-15v-0.1c0-8.3,6.7-15,15-15s15,6.7,15,15v0.1C84.8,259,78.1,265.7,69.8,265.7z
				"/>
		</g>
		<g>
			<path class="st0" d="M186.4,410.5c-20.4,0-38.5-5.8-52.8-17.4c-24.4-19.8-34.7-53.6-29-95.2c5.5-40.6,25.6-83.9,56.5-122.2
				s69.2-66.9,107.7-80.7c39.5-14.2,74.7-11.1,99.1,8.7c24.4,19.7,34.7,53.5,29.1,95.2c-5.5,40.5-25.6,83.9-56.6,122.2
				c-30.9,38.3-69.2,66.9-107.7,80.7C216.4,407.6,200.8,410.5,186.4,410.5z M315.1,98.2c-13,0-27.2,2.7-42.3,8.1
				c-36.5,13.1-72.8,40.4-102.4,77c-29.6,36.5-48.8,77.8-54,116.2c-5.1,37.3,3.7,67.2,24.7,84.2s52.1,19.4,87.5,6.7
				c36.5-13.1,72.8-40.4,102.4-77s48.8-77.8,54-116.2c5.1-37.3-3.7-67.2-24.7-84.2C348.3,103.2,332.8,98.2,315.1,98.2z"/>
		</g>
		<g>
			<path class="st0" d="M364.2,123.3c-3.3,0-6.6-1.1-9.3-3.3l-0.3-0.2c-6.4-5.3-7.3-14.7-2-21.1s14.6-7.3,21-2.1
				c6.4,5.2,7.5,14.6,2.3,21C373,121.4,368.6,123.3,364.2,123.3z"/>
		</g>
	</g>
	<g>
		<path class="st1" d="M0,500"/>
	</g>
</g>
</svg>
