<?xml version="1.0" encoding="utf-8"?>
<!-- Generator: Adobe Illustrator 27.5.0, SVG Export Plug-In . SVG Version: 6.00 Build 0)  -->
<svg version="1.1" id="Layer_1" xmlns="http://www.w3.org/2000/svg" xmlns:xlink="http://www.w3.org/1999/xlink" x="0px" y="0px"
	 viewBox="0 0 500 500" style="enable-background:new 0 0 500 500;" xml:space="preserve">
<style type="text/css">
	.st0{fill:#F9423A;}
	.st1{fill:none;stroke:#F9423A;stroke-width:12;stroke-linecap:round;stroke-linejoin:round;}
</style>
<g>
	<g>
		<path class="st0" d="M250.2,83.9c-19.4,0-35.1,15.7-35.1,35.1c0,17.3,12.6,31.8,29.2,34.6v43.7c0,3.3,2.7,6,6,6c3.3,0,6-2.7,6-6
			v-43.7c16.5-2.9,29-17.3,29-34.6C285.3,99.6,269.6,83.9,250.2,83.9z M250.2,142.1c-12.7,0-23.1-10.4-23.1-23.1
			s10.4-23.1,23.1-23.1s23.1,10.4,23.1,23.1S262.9,142.1,250.2,142.1z"/>
		<path class="st0" d="M421.7,210.7c-5.7-18.5-25.4-29-43.9-23.3c-9,2.7-16.4,8.8-20.8,17.1c-3.4,6.5-4.7,13.7-3.8,20.8l-41.8,12.8
			c-3.2,1-5,4.3-4,7.5c1,3.2,4.3,5,7.5,4l41.8-12.8c6,11.9,18.3,19.3,31.4,19.3c3.4,0,6.8-0.5,10.3-1.5
			C416.9,248.9,427.4,229.2,421.7,210.7z M394.8,243c-12.2,3.8-25.2-3.1-28.9-15.3c-1.9-5.9-1.3-12.2,1.6-17.6
			c2.9-5.5,7.8-9.5,13.7-11.3c2.3-0.7,4.6-1,6.8-1c9.9,0,19.1,6.4,22.1,16.3C413.8,226.3,407,239.3,394.8,243z"/>
		<path class="st0" d="M379.5,193.1L379.5,193.1L379.5,193.1z"/>
		<path class="st0" d="M361.6,360.9c-5.4-7.7-13.4-12.9-22.7-14.5c-7.3-1.3-14.5-0.3-21,2.8l-25-35.8c-1.9-2.7-5.7-3.4-8.4-1.5
			c-2.7,1.9-3.4,5.7-1.5,8.4l25.1,35.8c-11.9,11.8-13.9,30.8-4,45c6.8,9.7,17.7,14.9,28.8,14.9c7,0,14-2,20.1-6.3
			C368.8,398.7,372.6,376.8,361.6,360.9z M346.1,399.8c-10.4,7.3-24.8,4.8-32.1-5.6c-7.3-10.4-4.8-24.8,5.6-32.1
			c5.1-3.6,11.2-4.9,17.2-3.9c6.1,1,11.4,4.4,14.9,9.5C359,378.1,356.5,392.5,346.1,399.8z"/>
		<path class="st0" d="M216,312c-2.8-1.9-6.5-1.2-8.4,1.5l-25,35.7c-6.5-3.1-13.7-4.1-20.9-2.8c-9.3,1.6-17.3,6.7-22.7,14.4
			c-5.4,7.7-7.5,17-5.9,26.2c1.6,9.3,6.7,17.3,14.4,22.7c6,4.2,12.9,6.4,20.1,6.4c2,0,4.1-0.1,6.2-0.4c9.3-1.6,17.3-6.8,22.7-14.5
			c9.9-14.2,7.9-33.2-4-45l25-35.8C219.4,317.6,218.7,313.9,216,312z M186.5,394.2c-3.5,5.1-8.8,8.4-14.9,9.5
			c-6.1,1.1-12.1-0.3-17.2-3.9c-5.1-3.5-8.4-8.8-9.5-14.9c-1.1-6.1,0.3-12.1,3.9-17.2c3.5-5.1,8.8-8.4,14.9-9.5
			c1.3-0.2,2.7-0.3,4-0.3c4.5,0,8.8,1.3,12.5,3.6c0.2,0.2,0.4,0.4,0.6,0.5c0.2,0.2,0.4,0.3,0.6,0.4
			C191.3,369.8,193.6,383.9,186.5,394.2z"/>
		<path class="st0" d="M189.1,238.2l-41.7-12.8c0.9-7.1-0.4-14.3-3.8-20.8c-4.4-8.3-11.7-14.4-20.7-17.1c-9-2.8-18.5-1.9-26.8,2.5
			c-8.3,4.4-14.4,11.7-17.1,20.7c-2.8,9-1.9,18.5,2.5,26.8s11.7,14.4,20.7,17.1c3.5,1,6.9,1.5,10.3,1.5c13.1,0,25.4-7.4,31.4-19.2
			l41.7,12.8c3.2,0.9,6.5-0.8,7.5-4C194,242.5,192.3,239.2,189.1,238.2z M134.8,227.2c-0.1,0.2-0.1,0.3-0.2,0.5
			c0,0.1-0.1,0.3-0.1,0.5c-3.9,11.9-16.7,18.6-28.8,14.9c-5.9-1.8-10.7-5.8-13.6-11.3c-2.9-5.5-3.5-11.8-1.7-17.7
			c1.8-5.9,5.8-10.7,11.3-13.6c3.4-1.8,7.1-2.7,10.8-2.7c2.3,0,4.6,0.4,6.9,1c5.9,1.8,10.7,5.8,13.6,11.3
			C135.7,215.4,136.4,221.5,134.8,227.2z"/>
		<path class="st0" d="M250.3,191.3c-39.5,0-71.7,32.2-71.7,71.7s32.2,71.7,71.7,71.7S322,302.5,322,263S289.8,191.3,250.3,191.3z
			 M250.3,322.7c-32.9,0-59.7-26.8-59.7-59.7c0-32.9,26.8-59.7,59.7-59.7c32.9,0,59.7,26.8,59.7,59.7
			C310,295.9,283.2,322.7,250.3,322.7z"/>
	</g>
	<path class="st1" d="M0,500"/>
</g>
</svg>
