<?xml version="1.0" encoding="iso-8859-1"?>
<!-- Generator: Adobe Illustrator 29.6.1, SVG Export Plug-In . SVG Version: 9.03 Build 0)  -->
<svg version="1.1" id="Layer_1" xmlns="http://www.w3.org/2000/svg" xmlns:xlink="http://www.w3.org/1999/xlink" x="0px" y="0px"
	 viewBox="0 0 500 500" style="enable-background:new 0 0 500 500;" xml:space="preserve">
<g>
	<g>
		<g>
			<path style="fill:#F9423A;" d="M192.974,416h-96c-3.314,0-6-2.687-6-6V310c0-3.313,2.686-6,6-6h22V156h-24c-3.314,0-6-2.686-6-6
				s2.686-6,6-6h24V90c0-3.314,2.686-6,6-6h39.875c0.241-0.006,0.486,0.005,0.73,0.03c0.248,0.025,0.49,0.064,0.728,0.119
				l169.876,34.974c2.789,0.574,4.79,3.03,4.79,5.877v60c0,3.314-2.687,6-6,6s-6-2.686-6-6v-29h-158v148h22c3.314,0,6,2.687,6,6v100
				C198.974,413.313,196.288,416,192.974,416z M102.974,404h84v-88h-84V404z M130.974,304h28V96h-28V304z M170.974,144h158v-14.109
				l-158-32.529V144z"/>
		</g>
	</g>
	<g>
		<path style="fill:#F9423A;" d="M359.974,241h-50c-3.313,0-6-2.687-6-6v-50c0-3.313,2.687-6,6-6h50c3.313,0,6,2.687,6,6v50
			C365.974,238.313,363.287,241,359.974,241z M315.974,229h38v-38h-38V229z"/>
	</g>
	<g>
		<g>
			<path style="fill:#F9423A;" d="M395.222,381.105H274.726c-8.715,0-15.805-7.09-15.805-15.805V244.804
				c0-8.714,7.09-15.804,15.805-15.804h120.496c8.715,0,15.805,7.09,15.805,15.804v120.497
				C411.026,374.016,403.937,381.105,395.222,381.105z M274.726,241c-2.098,0-3.805,1.707-3.805,3.804v120.497
				c0,2.098,1.707,3.805,3.805,3.805h120.496c2.098,0,3.805-1.707,3.805-3.805V244.804c0-2.098-1.707-3.804-3.805-3.804H274.726z"/>
		</g>
		<g>
			<path style="fill:#F9423A;" d="M328.355,331.485c-0.612,0-1.235-0.095-1.851-0.294c-3.152-1.021-4.88-4.405-3.858-7.558
				l13.238-40.862c1.021-3.15,4.398-4.88,7.558-3.858c3.152,1.021,4.88,4.405,3.858,7.558l-13.238,40.862
				C333.24,329.87,330.887,331.485,328.355,331.485z M359.789,331.483c-1.842,0.001-3.659-0.845-4.835-2.44
				c-1.966-2.668-1.396-6.425,1.271-8.39l21.173-15.601l-21.173-15.602c-2.667-1.966-3.236-5.722-1.271-8.39
				c1.966-2.666,5.721-3.236,8.39-1.271l27.729,20.432c1.534,1.131,2.44,2.924,2.44,4.83s-0.906,3.699-2.44,4.83l-27.729,20.431
				C362.272,331.104,361.024,331.483,359.789,331.483z M310.158,331.483c-1.236,0-2.482-0.38-3.555-1.17l-27.729-20.431
				c-1.534-1.131-2.44-2.924-2.44-4.83s0.906-3.699,2.44-4.83l27.729-20.432c2.668-1.966,6.425-1.396,8.39,1.271
				c1.966,2.668,1.396,6.424-1.271,8.39l-21.173,15.602l21.173,15.601c2.667,1.965,3.236,5.722,1.271,8.39
				C313.817,330.639,312,331.483,310.158,331.483z"/>
		</g>
	</g>
</g>
</svg>
