<?xml version="1.0" encoding="iso-8859-1"?>
<!-- Generator: Adobe Illustrator 29.6.1, SVG Export Plug-In . SVG Version: 9.03 Build 0)  -->
<svg version="1.1" id="Layer_1" xmlns="http://www.w3.org/2000/svg" xmlns:xlink="http://www.w3.org/1999/xlink" x="0px" y="0px"
	 viewBox="0 0 500 500" style="enable-background:new 0 0 500 500;" xml:space="preserve">
<g>
	<path style="fill:#F9423A;" d="M250.002,446.001c-0.792,0-1.571-0.158-2.292-0.456l-59.976-24.461
		c-2.258-0.921-3.734-3.117-3.734-5.556v-71.391c-0.018-0.769,0.114-1.527,0.378-2.234l0,0c0.001-0.002,0.001-0.004,0.002-0.006
		c0.048-0.127,0.1-0.253,0.156-0.377c0,0,0-0.001,0.001-0.002c0.001-0.002,0.002-0.004,0.002-0.006
		c0.586-1.286,1.624-2.369,3.003-2.987c0.086-0.039,0.173-0.075,0.261-0.11l17.906-7.162l-51.027-26.88L127.3,315.54
		c-0.095,0.04-0.191,0.077-0.287,0.111c-1.447,0.517-2.973,0.443-4.304-0.106l-59.976-24.461c-2.258-0.921-3.734-3.117-3.734-5.556
		V214.14c-0.019-0.793,0.122-1.574,0.402-2.3c0,0,0,0,0-0.001c0.001-0.002,0.002-0.005,0.003-0.008c0-0.001,0.001-0.003,0.001-0.005
		c0-0.001,0.001-0.002,0.001-0.003c0.035-0.089,0.071-0.177,0.11-0.264l0,0c0.001-0.002,0.002-0.004,0.003-0.006
		c0-0.001,0.001-0.002,0.001-0.003s0.001-0.003,0.002-0.005c0.591-1.318,1.655-2.425,3.073-3.043
		c0.002-0.001,0.005-0.002,0.007-0.003c0.067-0.029,0.134-0.057,0.202-0.083l20.665-8.217l39.293-15.767
		c1.432-0.575,3.031-0.575,4.463-0.002l27.427,10.971l51.15-26.944l-18.072-7.371c-2.258-0.921-3.734-3.117-3.734-5.556V84.14
		c-0.019-0.797,0.123-1.581,0.406-2.31c0-0.001,0.001-0.001,0.001-0.002c0.001-0.002,0.002-0.004,0.002-0.006
		s0.001-0.004,0.002-0.006l0,0c0.033-0.085,0.068-0.17,0.105-0.253c0.001-0.002,0.001-0.003,0.002-0.005
		c0-0.001,0.001-0.002,0.001-0.003c0.001-0.002,0.002-0.005,0.003-0.008c0,0,0,0,0-0.001c0.596-1.33,1.673-2.445,3.11-3.06
		c0.056-0.024,0.112-0.047,0.168-0.069l20.669-8.218l39.293-15.767c1.432-0.575,3.029-0.575,4.463-0.002l59.964,23.986
		c0.096,0.038,0.19,0.078,0.285,0.12c1.361,0.616,2.39,1.687,2.974,2.958c0.001,0,0.001,0.001,0.001,0.001
		c0.001,0.002,0.002,0.003,0.003,0.005c0.061,0.134,0.117,0.27,0.169,0.408c0,0.002,0.001,0.004,0.002,0.006v0.001
		c0.262,0.705,0.392,1.458,0.374,2.224v71.39c0,2.438-1.476,4.635-3.734,5.556l-18.071,7.371l51.15,26.944l27.427-10.971
		c1.432-0.572,3.025-0.572,4.457,0l59.966,23.986c0.092,0.036,0.184,0.075,0.274,0.116c1.373,0.619,2.408,1.699,2.992,2.982
		c0.001,0.002,0.002,0.004,0.003,0.006v0.001c0.057,0.124,0.108,0.249,0.156,0.376c0.266,0.709,0.397,1.47,0.38,2.241v71.39
		c0,2.438-1.476,4.635-3.734,5.556l-59.965,24.456c-0.095,0.04-0.19,0.077-0.287,0.111c-1.449,0.516-2.976,0.443-4.304-0.106
		l-27.393-11.172l-51.027,26.88l17.903,7.161c0.096,0.038,0.191,0.078,0.286,0.121c1.368,0.62,2.398,1.698,2.981,2.978
		c0.001,0.002,0.002,0.004,0.002,0.006c0.001,0.001,0.001,0.002,0.001,0.002c0.057,0.124,0.108,0.25,0.156,0.377
		c0.001,0.002,0.001,0.004,0.002,0.006l0,0c0.264,0.707,0.396,1.466,0.378,2.234v71.391c0,2.438-1.476,4.635-3.734,5.556
		l-59.965,24.456c-0.095,0.04-0.19,0.077-0.287,0.111C251.351,445.888,250.671,446.001,250.002,446.001z M256,372.503v58.569
		l48-19.577v-58.569L256,372.503z M196,411.495l48,19.577v-58.569l-48-19.577V411.495z M206.021,344.053L250,361.99l43.979-17.938
		l-16.166-6.466c-0.029-0.012-0.06-0.023-0.089-0.036L250,326.461l-27.733,11.094c-0.023,0.01-0.047,0.02-0.071,0.028
		L206.021,344.053z M250,313.999c0.756,0,1.513,0.143,2.229,0.429l27.427,10.972l51.15-26.945l-18.071-7.37
		c-2.259-0.921-3.734-3.117-3.734-5.556v-71.39c-0.018-0.769,0.114-1.527,0.378-2.234c0.048-0.13,0.101-0.258,0.158-0.384v-0.001
		c0.001-0.002,0.002-0.004,0.003-0.006c0.587-1.29,1.628-2.375,3.012-2.992c0.083-0.037,0.167-0.072,0.251-0.105l17.908-7.163
		l-51.027-26.88l-27.388,11.17c-0.078,0.032-0.157,0.063-0.236,0.092c-1.458,0.534-3,0.465-4.343-0.087l-27.399-11.174
		l-51.027,26.879l17.904,7.162c0.092,0.036,0.184,0.075,0.274,0.116c1.374,0.619,2.408,1.699,2.993,2.983
		c0,0.002,0.001,0.003,0.002,0.006c0,0,0,0.001,0.001,0.001c0.057,0.126,0.11,0.254,0.158,0.384
		c0.264,0.707,0.395,1.465,0.377,2.234v71.39c0,2.438-1.476,4.635-3.734,5.556l-18.071,7.37l51.15,26.945l27.427-10.972
		C248.487,314.142,249.244,313.999,250,313.999z M381,242.503v58.569l48-19.577v-58.569L381,242.503z M347.488,292.299L369,301.072
		v-58.569l-48-19.577v58.569l26.046,10.623C347.195,292.173,347.344,292.232,347.488,292.299z M131,242.503v58.569l21.513-8.774
		c0.144-0.065,0.291-0.125,0.439-0.179L179,281.495v-58.569L131,242.503z M71,281.495l48,19.577v-58.569l-48-19.577V281.495z
		 M331.021,214.053L375,231.99l43.979-17.937L375,196.461l-27.733,11.093c-0.023,0.01-0.048,0.02-0.071,0.029L331.021,214.053z
		 M81.061,214.07L125,231.99l43.979-17.937l-16.166-6.467c-0.03-0.012-0.06-0.023-0.089-0.036l-27.721-11.088L81.061,214.07z
		 M256,112.502v58.57l21.503-8.77c0.151-0.069,0.305-0.131,0.461-0.188L304,151.495V92.926L256,112.502z M222.498,162.303
		L244,171.072v-58.57l-48-19.576v58.569l26.036,10.62C222.192,162.171,222.347,162.234,222.498,162.303z M206.062,84.07L250,101.989
		l43.979-17.936l-43.976-17.59L206.062,84.07z"/>
</g>
</svg>
