<?xml version="1.0" encoding="iso-8859-1"?>
<!-- Generator: Adobe Illustrator 29.6.1, SVG Export Plug-In . SVG Version: 9.03 Build 0)  -->
<svg version="1.1" id="Layer_1" xmlns="http://www.w3.org/2000/svg" xmlns:xlink="http://www.w3.org/1999/xlink" x="0px" y="0px"
	 viewBox="0 0 500 500" style="enable-background:new 0 0 500 500;" xml:space="preserve">
<path style="fill:#F9423A;" d="M348.518,94.69c-8.21-4.865-17.25-9.048-26.924-12.507l3.461,5.997
	c1.571,2.712,1.788,5.827,0.883,8.585c5.804,2.46,11.322,5.202,16.462,8.248c23.602,13.986,36.6,32.243,36.6,51.407v220
	c0,19.164-12.998,37.421-36.6,51.406c-24.586,14.571-57.401,22.594-92.4,22.594c-35,0-67.814-8.023-92.4-22.594
	c-23.602-13.985-36.6-32.242-36.6-51.406v-220c0-19.164,12.998-37.421,36.6-51.407c5.141-3.046,10.66-5.788,16.465-8.249
	c-0.903-2.758-0.685-5.872,0.88-8.584l3.461-5.997c-9.674,3.459-18.714,7.642-26.924,12.507C124.087,110.923,109,132.846,109,156.42
	v220c0,23.573,15.087,45.496,42.482,61.73c26.41,15.651,61.398,24.27,98.518,24.27s72.107-8.619,98.518-24.27
	C375.913,421.916,391,399.993,391,376.42v-220C391,132.846,375.913,110.923,348.518,94.69z"/>
<g>
	<path style="fill:#F9423A;" d="M250,388.42c-37.12,0-72.108-8.619-98.518-24.27C124.087,347.916,109,325.993,109,302.42
		c0-3.313,2.687-6,6-6s6,2.687,6,6c0,19.164,12.998,37.421,36.6,51.406c24.586,14.571,57.4,22.594,92.4,22.594
		c34.999,0,67.814-8.023,92.4-22.594c23.602-13.985,36.6-32.242,36.6-51.406c0-3.313,2.687-6,6-6s6,2.687,6,6
		c0,23.573-15.087,45.496-42.482,61.73C322.107,379.801,287.12,388.42,250,388.42z M250,242.42c-37.12,0-72.108-8.619-98.518-24.27
		C124.087,201.917,109,179.994,109,156.42c0-3.313,2.687-6,6-6s6,2.687,6,6c0,19.164,12.998,37.421,36.6,51.407
		c24.586,14.569,57.4,22.593,92.4,22.593c34.999,0,67.814-8.024,92.4-22.593c23.602-13.986,36.6-32.243,36.6-51.407
		c0-3.313,2.687-6,6-6s6,2.687,6,6c0,23.574-15.087,45.497-42.482,61.73C322.107,233.801,287.12,242.42,250,242.42z"/>
</g>
<g>
	<path style="fill:#F9423A;" d="M250,315.42c-37.12,0-72.108-8.619-98.518-24.27C124.087,274.916,109,252.993,109,229.42
		c0-3.313,2.687-6,6-6s6,2.687,6,6c0,19.164,12.998,37.42,36.6,51.406c24.586,14.571,57.4,22.594,92.4,22.594
		c34.999,0,67.814-8.023,92.4-22.594c23.602-13.986,36.6-32.242,36.6-51.406c0-3.313,2.687-6,6-6s6,2.687,6,6
		c0,23.573-15.087,45.496-42.482,61.73C322.107,306.801,287.12,315.42,250,315.42z"/>
</g>
<g>
	<path style="fill:#F9423A;" d="M152.49,397.42h-0.01c-4.142,0-7.5-3.357-7.5-7.5s3.358-7.5,7.5-7.5s7.505,3.357,7.505,7.5
		S156.632,397.42,152.49,397.42z M182.49,339.42h-0.01c-4.142,0-7.5-3.357-7.5-7.5s3.358-7.5,7.5-7.5s7.505,3.357,7.505,7.5
		S186.632,339.42,182.49,339.42z M152.5,324.42h-0.01c-4.142,0-7.5-3.357-7.5-7.5s3.358-7.5,7.5-7.5s7.505,3.357,7.505,7.5
		S156.642,324.42,152.5,324.42z M182.5,266.42h-0.01c-4.142,0-7.5-3.358-7.5-7.5s3.358-7.5,7.5-7.5s7.505,3.358,7.505,7.5
		S186.642,266.42,182.5,266.42z M152.51,251.42h-0.01c-4.142,0-7.5-3.358-7.5-7.5s3.358-7.5,7.5-7.5s7.505,3.358,7.505,7.5
		S156.652,251.42,152.51,251.42z"/>
</g>
<g>
	<path style="fill:#F9423A;" d="M262.575,202.42h-25.15c-9.142,0-16.58-7.438-16.58-16.58v-7.659
		c-3.209-1.531-6.299-3.319-9.241-5.347l-6.64,3.833c-3.825,2.215-8.292,2.807-12.57,1.663c-4.282-1.145-7.86-3.891-10.076-7.73
		l-12.57-21.78c-2.214-3.825-2.807-8.292-1.663-12.569c1.145-4.282,3.891-7.86,7.73-10.076l6.639-3.833
		c-0.146-1.807-0.22-3.593-0.22-5.341c0-1.752,0.074-3.538,0.219-5.341l-6.639-3.833c-7.915-4.567-10.637-14.726-6.067-22.645
		l12.57-21.78c4.568-7.916,14.726-10.636,22.646-6.068l6.639,3.833c2.934-2.022,6.024-3.81,9.242-5.345v-7.66
		c0-9.142,7.438-16.58,16.58-16.58h25.15c9.143,0,16.58,7.438,16.58,16.58v7.66c3.218,1.536,6.309,3.323,9.242,5.345l6.638-3.832
		c3.836-2.213,8.3-2.802,12.579-1.657c4.278,1.146,7.854,3.889,10.068,7.725l12.568,21.78c2.215,3.824,2.808,8.291,1.664,12.568
		c-1.146,4.282-3.891,7.861-7.731,10.077l-6.639,3.833c0.146,1.806,0.22,3.592,0.22,5.341c0,1.752-0.073,3.539-0.219,5.341
		l6.639,3.833c3.835,2.213,6.578,5.789,7.724,10.067c1.145,4.276,0.557,8.743-1.656,12.578l-12.57,21.78
		c-2.213,3.836-5.789,6.579-10.067,7.725c-4.276,1.144-8.744,0.556-12.578-1.657l-6.639-3.833c-2.934,2.022-6.023,3.809-9.242,5.345
		v7.66C279.155,194.982,271.718,202.42,262.575,202.42z M211.994,159.68c1.312,0,2.617,0.429,3.696,1.273
		c4.108,3.211,8.618,5.82,13.403,7.754c2.268,0.917,3.752,3.117,3.752,5.563v11.57c0,2.525,2.054,4.58,4.58,4.58h25.15
		c2.525,0,4.58-2.055,4.58-4.58v-11.57c0-2.444,1.482-4.644,3.747-5.561c4.813-1.95,9.323-4.558,13.404-7.753
		c1.925-1.51,4.577-1.697,6.698-0.472l10.03,5.79c1.06,0.612,2.298,0.774,3.476,0.458c1.181-0.316,2.167-1.073,2.777-2.131
		l12.57-21.78c0.611-1.061,0.774-2.295,0.458-3.477c-0.316-1.18-1.072-2.167-2.131-2.777c0,0,0,0-0.001,0l-10.029-5.79
		c-2.115-1.222-3.279-3.604-2.942-6.023c0.366-2.633,0.552-5.242,0.552-7.753c0-2.502-0.186-5.112-0.553-7.756
		c-0.335-2.419,0.829-4.8,2.943-6.021l10.029-5.79c1.062-0.613,1.821-1.602,2.138-2.784c0.314-1.178,0.151-2.407-0.46-3.462
		l-12.573-21.789c-0.611-1.058-1.598-1.814-2.778-2.131c-1.178-0.316-2.416-0.154-3.477,0.458l-10.029,5.79
		c-2.12,1.224-4.772,1.038-6.698-0.472c-4.082-3.196-8.592-5.804-13.403-7.753c-2.266-0.917-3.748-3.117-3.748-5.561V48.16
		c0-2.525-2.055-4.58-4.58-4.58h-25.15c-2.525,0-4.58,2.055-4.58,4.58v11.57c0,2.444-1.482,4.644-3.748,5.561
		c-4.812,1.949-9.321,4.558-13.404,7.753c-1.927,1.509-4.578,1.696-6.698,0.472l-10.03-5.79c-2.188-1.262-4.994-0.512-6.253,1.673
		l-12.57,21.78c-0.612,1.06-0.774,2.295-0.458,3.477c0.316,1.18,1.073,2.167,2.131,2.777l10.03,5.791
		c2.116,1.221,3.28,3.604,2.943,6.023c-0.367,2.635-0.553,5.244-0.553,7.753c0,2.5,0.186,5.11,0.553,7.756
		c0.335,2.419-0.829,4.8-2.944,6.021l-10.03,5.79c-1.062,0.613-1.82,1.601-2.136,2.783c-0.315,1.178-0.152,2.408,0.459,3.464
		l12.575,21.788c0.612,1.061,1.601,1.82,2.783,2.136c1.178,0.316,2.409,0.152,3.464-0.459l10.037-5.794
		C209.928,159.945,210.963,159.68,211.994,159.68z M249.995,154.6c-20.733,0-37.6-16.867-37.6-37.6s16.867-37.6,37.6-37.6
		c20.732,0,37.6,16.867,37.6,37.6S270.728,154.6,249.995,154.6z M249.995,91.4c-14.116,0-25.6,11.484-25.6,25.6
		s11.484,25.6,25.6,25.6c14.115,0,25.6-11.484,25.6-25.6S264.11,91.4,249.995,91.4z"/>
</g>
</svg>
