<?xml version="1.0" encoding="iso-8859-1"?>
<!-- Generator: Adobe Illustrator 29.6.1, SVG Export Plug-In . SVG Version: 9.03 Build 0)  -->
<svg version="1.1" id="Layer_1" xmlns="http://www.w3.org/2000/svg" xmlns:xlink="http://www.w3.org/1999/xlink" x="0px" y="0px"
	 viewBox="0 0 500 500" style="enable-background:new 0 0 500 500;" xml:space="preserve">
<g>
	<g>
		<path style="fill:#F9423A;" d="M250,446c-37.12,0-72.108-8.619-98.518-24.27C124.087,405.496,109,383.573,109,360V140
			c0-23.574,15.087-45.497,42.482-61.73C177.892,62.619,212.88,54,250,54s72.107,8.619,98.518,24.27
			C375.913,94.503,391,116.426,391,140v220c0,23.573-15.087,45.496-42.482,61.73C322.107,437.381,287.12,446,250,446z M250,66
			c-35,0-67.814,8.024-92.4,22.593C133.998,102.579,121,120.836,121,140v220c0,19.164,12.998,37.421,36.6,51.406
			C182.186,425.977,215,434,250,434c34.999,0,67.814-8.023,92.4-22.594C366.002,397.421,379,379.164,379,360V140
			c0-19.164-12.998-37.421-36.6-51.407C317.814,74.024,284.999,66,250,66z"/>
	</g>
	<g>
		<path style="fill:#F9423A;" d="M250,372c-37.12,0-72.108-8.619-98.518-24.27C124.087,331.496,109,309.573,109,286
			c0-3.313,2.687-6,6-6s6,2.687,6,6c0,19.164,12.998,37.421,36.6,51.406C182.186,351.977,215,360,250,360
			c34.999,0,67.814-8.023,92.4-22.594C366.002,323.421,379,305.164,379,286c0-3.313,2.687-6,6-6s6,2.687,6,6
			c0,23.573-15.087,45.496-42.482,61.73C322.107,363.381,287.12,372,250,372z M250,226c-37.12,0-72.108-8.619-98.518-24.27
			C124.087,185.497,109,163.574,109,140c0-3.313,2.687-6,6-6s6,2.687,6,6c0,19.164,12.998,37.421,36.6,51.407
			C182.186,205.976,215,214,250,214c34.999,0,67.814-8.024,92.4-22.593C366.002,177.421,379,159.164,379,140c0-3.313,2.687-6,6-6
			s6,2.687,6,6c0,23.574-15.087,45.497-42.482,61.73C322.107,217.381,287.12,226,250,226z"/>
	</g>
	<g>
		<path style="fill:#F9423A;" d="M250,299c-37.12,0-72.108-8.619-98.518-24.27C124.087,258.496,109,236.573,109,213
			c0-3.313,2.687-6,6-6s6,2.687,6,6c0,19.164,12.998,37.42,36.6,51.406C182.186,278.977,215,287,250,287
			c34.999,0,67.814-8.023,92.4-22.594C366.002,250.42,379,232.164,379,213c0-3.313,2.687-6,6-6s6,2.687,6,6
			c0,23.573-15.087,45.496-42.482,61.73C322.107,290.381,287.12,299,250,299z"/>
	</g>
	<g>
		<path style="fill:#F9423A;" d="M152.49,381h-0.01c-4.142,0-7.5-3.357-7.5-7.5s3.358-7.5,7.5-7.5s7.505,3.357,7.505,7.5
			S156.632,381,152.49,381z M182.49,323h-0.01c-4.142,0-7.5-3.357-7.5-7.5s3.358-7.5,7.5-7.5s7.505,3.357,7.505,7.5
			S186.632,323,182.49,323z M152.5,308h-0.01c-4.142,0-7.5-3.357-7.5-7.5s3.358-7.5,7.5-7.5s7.505,3.357,7.505,7.5
			S156.642,308,152.5,308z M182.5,250h-0.01c-4.142,0-7.5-3.358-7.5-7.5s3.358-7.5,7.5-7.5s7.505,3.358,7.505,7.5
			S186.642,250,182.5,250z M152.51,235h-0.01c-4.142,0-7.5-3.358-7.5-7.5s3.358-7.5,7.5-7.5s7.505,3.358,7.505,7.5
			S156.652,235,152.51,235z"/>
	</g>
</g>
</svg>
