<?xml version="1.0" encoding="utf-8"?>
<!-- Generator: Adobe Illustrator 27.5.0, SVG Export Plug-In . SVG Version: 6.00 Build 0)  -->
<svg version="1.1" id="Layer_1" xmlns="http://www.w3.org/2000/svg" xmlns:xlink="http://www.w3.org/1999/xlink" x="0px" y="0px"
	 viewBox="0 0 500 500" style="enable-background:new 0 0 500 500;" xml:space="preserve">
<style type="text/css">
	.st0{fill:#F9423A;}
	.st1{fill:none;stroke:#F9423A;stroke-width:12;stroke-linecap:round;stroke-linejoin:round;}
</style>
<g>
	<g>
		<g>
			<path class="st0" d="M345.6,426.2c-8.7,0-17.1-1.6-25-4.8c-0.2-0.1-0.5-0.2-0.7-0.3c-2.3-1-4.9-1.7-7.8-2.1l-4.3-0.5
				c-3-0.3-5.3-2.9-5.3-6v-9.8c0-7.2-2.2-14.2-6.4-20.2c-1.3-1.9-1.5-4.4-0.3-6.4c6.9-12.1,19.7-19.6,33.6-19.6H362
				c10.3,0,20.1,4,27.4,11.4c7.2,7.3,11.2,16.9,11.1,27.2V406c0,6.1-4.6,11.2-10.6,11.8l-11.3,1.3c-2.5,0.3-5,1-7.4,2
				C362.9,424.5,354.3,426.2,345.6,426.2z M324.1,409.8c0.2,0.1,0.4,0.1,0.6,0.2c6.5,2.7,13.6,4.1,20.9,4.1c7.1,0,14.2-1.4,21-4.2
				c3.4-1.4,6.9-2.3,10.5-2.8l11.4-1.3V395c0-7-2.7-13.7-7.7-18.7c-5-5.1-11.7-7.8-18.8-7.8h-32.6c-8.4,0-16.3,4-21.3,10.6
				c4.2,7.2,6.4,15.3,6.4,23.6v4.5C317.9,407.8,321.1,408.6,324.1,409.8z M388.6,405.8L388.6,405.8L388.6,405.8z M345.7,346.7
				c-15.2,0-27.6-11.9-28.2-27.1l-0.7-20.7c-0.2-7.7,2.6-15,7.9-20.5c5.4-5.5,12.6-8.6,20.3-8.6h1.4c7.7,0,14.9,3.1,20.3,8.6
				s8.2,12.8,7.9,20.5l-0.7,20.7C373.4,334.8,361,346.7,345.7,346.7z M345,281.7c-4.4,0-8.5,1.8-11.6,4.9c-3.1,3.2-4.7,7.4-4.6,11.8
				l0.7,20.7c0.4,8.7,7.5,15.6,16.2,15.6c8.8,0,15.9-6.9,16.2-15.6l0.7-20.7c0.1-4.4-1.5-8.6-4.6-11.7c-3.1-3.2-7.2-4.9-11.6-4.9
				L345,281.7L345,281.7z"/>
		</g>
		<g>
			<path class="st0" d="M149.2,426.1c-8.7,0-17.1-1.6-25-4.8c-0.2-0.1-0.5-0.2-0.7-0.3c-2.3-1-4.9-1.7-7.8-2.1l-10.7-1.2
				c-6-0.6-10.5-5.7-10.5-11.8V395c0-21.2,17.3-38.5,38.6-38.5h32.6c13.1,0,25.6,6.8,32.5,17.8c1.3,2.1,1.2,4.8-0.3,6.8
				c-4.7,6.2-7.2,13.6-7.2,21.4v10c0,3-2.3,5.6-5.3,6l-3.2,0.4c-2.5,0.3-5.1,1-7.5,2C166.5,424.4,157.9,426.1,149.2,426.1z
				 M127.7,409.7c0.2,0.1,0.4,0.1,0.6,0.2c6.5,2.7,13.6,4.1,20.9,4.1c7.1,0,14.2-1.4,21-4.2c2.7-1.1,5.6-2,8.5-2.5v-4.8
				c0-8.9,2.4-17.4,7-24.9c-4.9-5.7-12.3-9.1-20-9.1h-32.6c-14.7,0-26.6,11.9-26.6,26.5v10.8l10.7,1.2
				C121,407.5,124.5,408.4,127.7,409.7z M106.3,405.8L106.3,405.8L106.3,405.8z M149.4,346.7c-15.2,0-27.6-11.9-28.2-27.1l-0.7-20.7
				c-0.2-7.8,2.7-15.1,8.1-20.6c5.3-5.5,12.5-8.5,20.1-8.5h1.4c7.7,0,14.9,3.1,20.3,8.6c5.4,5.5,8.2,12.8,7.9,20.5l-0.7,20.7
				C177.1,334.8,164.7,346.7,149.4,346.7z M148.7,281.7c-4.4,0-8.5,1.7-11.5,4.9c-3.1,3.2-4.8,7.4-4.7,11.9l0.7,20.6
				c0.4,8.7,7.5,15.6,16.2,15.6c8.8,0,15.9-6.9,16.2-15.6l0.7-20.7c0.1-4.4-1.5-8.6-4.6-11.7c-3.1-3.2-7.2-4.9-11.6-4.9L148.7,281.7
				L148.7,281.7z"/>
		</g>
		<g>
			<path class="st0" d="M246.6,344.4c-19.2,0-34.9-15.1-35.6-34.4l-1-27.7c-0.2-9.8,3.4-19.1,10.2-26.1c6.8-6.9,15.8-10.8,25.5-10.8
				h1.9c9.8,0,18.9,3.9,25.7,10.9c6.8,7,10.3,16.2,9.9,25.9l-1,27.7C281.5,329.3,265.8,344.4,246.6,344.4z M245.7,257.5
				c-6.4,0-12.4,2.5-16.9,7.1c-4.6,4.7-7,10.8-6.8,17.3l1,27.6c0.5,12.8,10.8,22.8,23.6,22.8c12.8,0,23.1-10,23.6-22.8l1-27.7
				c0.2-6.4-2.1-12.5-6.6-17.2s-10.5-7.2-17-7.2h-1.9V257.5z M250.1,222.1c-1.5,0-3.1-0.6-4.2-1.8L206,180.5h-51.8
				c-10.1,0-18.3-8.2-18.3-18.3V75.7c0-10.1,8.2-18.3,18.3-18.3h191.1c10.1,0,18.3,8.2,18.3,18.3v86.5c0,10.1-8.2,18.3-18.3,18.3
				h-51.1l-39.8,39.8C253.2,221.5,251.6,222.1,250.1,222.1z M154.2,69.4c-3.5,0-6.3,2.8-6.3,6.3v86.5c0,3.5,2.8,6.3,6.3,6.3h54.3
				c1.6,0,3.1,0.6,4.2,1.8l37.4,37.4l37.4-37.4c1.1-1.1,2.7-1.8,4.2-1.8h53.6c3.5,0,6.3-2.8,6.3-6.3V75.7c0-3.5-2.8-6.3-6.3-6.3
				C345.3,69.4,154.2,69.4,154.2,69.4z M249.8,150.9c-3.3,0-6-2.7-6-6v-18.7H225c-3.3,0-6-2.7-6-6s2.7-6,6-6h18.8V95.4
				c0-3.3,2.7-6,6-6s6,2.7,6,6v18.8h18.7c3.3,0,6,2.7,6,6s-2.7,6-6,6h-18.7v18.7C255.8,148.2,253.1,150.9,249.8,150.9z"/>
		</g>
		<g>
			<path class="st0" d="M246.6,440.6c-10.9,0-21.4-2.1-31.2-6.1c-0.2-0.1-0.4-0.1-0.6-0.2c-3.1-1.3-6.6-2.2-10.4-2.7l-13.7-1.6
				c-6.8-0.7-11.9-6.5-11.9-13.4v-13.8c0-10.4,3.3-20.3,9.6-28.6c8.9-11.8,22.6-18.6,37.6-18.6h41.2c15.3,0,29.8,7.5,38.7,20.1
				c5.7,7.9,8.7,17.3,8.7,27.1v13.8c0,6.9-5.1,12.6-12,13.4l-14.3,1.7c-3.4,0.4-6.7,1.3-9.9,2.6
				C268.5,438.5,257.8,440.6,246.6,440.6z M218.8,422.9c0.2,0.1,0.5,0.2,0.7,0.2c8.5,3.6,17.6,5.4,27.1,5.4c9.4,0,18.8-1.9,27.1-5.4
				h0.1c4.1-1.7,8.5-2.8,13-3.4l14.5-1.7c0.8-0.1,1.3-0.7,1.3-1.4v-13.8c0-7.2-2.2-14.2-6.5-20.1c-6.7-9.5-17.5-15.1-28.9-15.1H226
				c-11.1,0-21.4,5-28,13.8c-4.7,6.2-7.2,13.6-7.2,21.4v13.8c0,0.8,0.5,1.4,1.2,1.4l13.8,1.6C210.5,420.2,214.9,421.3,218.8,422.9z"
				/>
		</g>
	</g>
	<g>
		<path class="st1" d="M0,500"/>
	</g>
</g>
</svg>
