<?xml version="1.0" encoding="iso-8859-1"?>
<!-- Generator: Adobe Illustrator 29.6.1, SVG Export Plug-In . SVG Version: 9.03 Build 0)  -->
<svg version="1.1" id="Layer_1" xmlns="http://www.w3.org/2000/svg" xmlns:xlink="http://www.w3.org/1999/xlink" x="0px" y="0px"
	 viewBox="0 0 500 500" style="enable-background:new 0 0 500 500;" xml:space="preserve">
<g>
	<g>
		<path style="fill:#F9423A;" d="M340,441H160c-14.336,0-26-11.663-26-26V85c0-14.336,11.664-26,26-26h180c14.337,0,26,11.664,26,26
			v330C366,429.337,354.337,441,340,441z M160,71c-7.72,0-14,6.28-14,14v330c0,7.72,6.28,14,14,14h180c7.72,0,14-6.28,14-14V85
			c0-7.72-6.28-14-14-14H160z M295,406h-90c-3.313,0-6-2.687-6-6s2.687-6,6-6h90c3.313,0,6,2.687,6,6S298.313,406,295,406z M280,106
			h-60c-3.313,0-6-2.687-6-6s2.687-6,6-6h60c3.313,0,6,2.687,6,6S283.313,106,280,106z"/>
	</g>
	<g>
		<path style="fill:#F9423A;" d="M250,326c-41.907,0-76-34.094-76-76c0-41.907,34.093-76,76-76c41.906,0,76,34.093,76,76
			C326,291.906,291.906,326,250,326z M250,186c-35.29,0-64,28.71-64,64s28.71,64,64,64s64-28.71,64-64S285.29,186,250,186z"/>
	</g>
	<g>
		<path style="fill:#F9423A;" d="M250.305,296c-3.313,0-6-2.687-6-6v-5.294l-13.426-0.114c-3.313-0.028-5.977-2.737-5.949-6.051
			c0.028-3.297,2.709-5.949,5.999-5.949c0.018,0,0.035,0,0.052,0l19.172,0.164c0.135-0.004,0.272-0.002,0.408,0.003l5.456,0.047
			c0.021,0,0.041,0,0.061,0c2.048,0,4.012-0.826,5.534-2.331c1.603-1.584,2.488-3.694,2.496-5.941c0.007-2.215-0.851-4.3-2.416-5.87
			c-1.568-1.573-3.657-2.439-5.881-2.439h-10.979c-11.215,0-20.339-9.124-20.339-20.339c0-11.034,8.839-20.043,19.812-20.323V210
			c0-3.313,2.687-6,6-6c3.314,0,6,2.687,6,6v5.555h10.744c3.313,0,6,2.687,6,6s-2.687,6-6,6h-22.218
			c-4.598,0-8.339,3.737-8.339,8.33c0,4.598,3.741,8.338,8.339,8.338h10.979c5.437,0,10.543,2.12,14.38,5.969
			c3.833,3.845,5.935,8.953,5.917,14.38c-0.019,5.463-2.17,10.59-6.059,14.436c-3.73,3.688-8.599,5.738-13.744,5.797V290
			C256.306,293.313,253.619,296,250.305,296z"/>
	</g>
</g>
</svg>
