<?xml version="1.0" encoding="iso-8859-1"?>
<!-- Generator: Adobe Illustrator 29.6.1, SVG Export Plug-In . SVG Version: 9.03 Build 0)  -->
<svg version="1.1" id="Layer_1" xmlns="http://www.w3.org/2000/svg" xmlns:xlink="http://www.w3.org/1999/xlink" x="0px" y="0px"
	 viewBox="0 0 500 500" style="enable-background:new 0 0 500 500;" xml:space="preserve">
<g>
	<g>
		<path style="fill:#F9423A;" d="M312.13,331.363c-0.921,0-1.854-0.212-2.73-0.661l-66.547-34.085
			c-2.949-1.51-4.116-5.126-2.605-8.075c1.511-2.948,5.127-4.117,8.076-2.604l66.547,34.085c2.949,1.51,4.115,5.126,2.604,8.075
			C316.413,330.171,314.31,331.363,312.13,331.363z M245.556,214.744c-2.18,0-4.283-1.192-5.345-3.266
			c-1.511-2.949-0.344-6.565,2.605-8.076l66.584-34.104c2.952-1.51,6.566-0.344,8.075,2.605c1.511,2.949,0.345,6.565-2.604,8.076
			l-66.584,34.104C247.411,214.531,246.476,214.744,245.556,214.744z"/>
	</g>
	<g>
		<path style="fill:#F9423A;" d="M370,216c-39.149,0-71-31.851-71-71s31.851-71,71-71s71,31.851,71,71S409.149,216,370,216z M370,86
			c-32.533,0-59,26.467-59,59s26.467,59,59,59s59-26.467,59-59S402.533,86,370,86z"/>
	</g>
	<g>
		<path style="fill:#F9423A;" d="M369.503,186c-3.313,0-6-2.687-6-6v-3.89l-11.18-0.095c-3.313-0.028-5.978-2.737-5.949-6.051
			c0.028-3.296,2.709-5.949,5.999-5.949c0.018,0,0.034,0,0.052,0l16.956,0.144c0.115-0.002,0.232-0.002,0.348,0.003l4.822,0.041
			c0.016,0,0.031,0,0.047,0c1.65,0,3.231-0.664,4.453-1.872c1.252-1.239,1.944-2.879,1.949-4.618
			c0.005-1.718-0.667-3.341-1.892-4.57c-1.258-1.261-2.941-1.956-4.739-1.956h-9.699c-10.295,0-18.67-8.318-18.67-18.543
			c0-9.832,7.75-17.9,17.503-18.5V110c0-3.313,2.687-6,6-6s6,2.687,6,6v4.109h8.802c3.313,0,6,2.687,6,6s-2.687,6-6,6h-14.523
			c-0.184,0.009-0.373,0.009-0.557,0h-4.555c-3.678,0-6.67,2.932-6.67,6.536c0,3.608,2.992,6.543,6.67,6.543h9.699
			c5.01,0,9.711,1.947,13.236,5.483c3.492,3.502,5.408,8.147,5.395,13.077c-0.014,4.955-1.971,9.611-5.509,13.113
			c-3.266,3.232-7.489,5.098-11.988,5.32V180C375.503,183.313,372.816,186,369.503,186z"/>
	</g>
	<g>
		<path style="fill:#F9423A;" d="M160,351c-55.691,0-101-45.309-101-101c0-26.956,10.511-52.235,29.598-71.183
			C107.642,159.912,133,149.5,160,149.5s52.358,10.412,71.402,29.317C250.489,197.765,261,223.044,261,250
			C261,305.691,215.691,351,160,351z M160,161.5c-23.812,0-46.167,9.174-62.948,25.833C80.252,204.011,71,226.267,71,250
			c0,49.075,39.925,89,89,89s89-39.925,89-89c0-23.733-9.252-45.989-26.052-62.667C206.167,170.674,183.812,161.5,160,161.5z"/>
	</g>
	<g>
		<path style="fill:#F9423A;" d="M187.5,296c-10.201,0-18.5-8.299-18.5-18.5s8.299-18.5,18.5-18.5s18.5,8.299,18.5,18.5
			S197.701,296,187.5,296z M187.5,271c-3.584,0-6.5,2.916-6.5,6.5s2.916,6.5,6.5,6.5s6.5-2.916,6.5-6.5S191.084,271,187.5,271z
			 M125,291c-1.536,0-3.071-0.586-4.243-1.758c-2.343-2.343-2.343-6.142,0-8.484l70-70c2.343-2.343,6.143-2.343,8.485,0
			c2.343,2.343,2.343,6.142,0,8.485l-70,70C128.071,290.414,126.536,291,125,291z M132.5,241c-10.201,0-18.5-8.299-18.5-18.5
			s8.299-18.5,18.5-18.5s18.5,8.299,18.5,18.5S142.701,241,132.5,241z M132.5,216c-3.584,0-6.5,2.916-6.5,6.5s2.916,6.5,6.5,6.5
			s6.5-2.916,6.5-6.5S136.084,216,132.5,216z"/>
	</g>
	<g>
		<path style="fill:#F9423A;" d="M370,426c-39.149,0-71-31.851-71-71s31.851-71,71-71s71,31.851,71,71S409.149,426,370,426z
			 M370,296c-32.533,0-59,26.467-59,59s26.467,59,59,59s59-26.467,59-59S402.533,296,370,296z"/>
	</g>
	<g>
		<path style="fill:#F9423A;" d="M369.503,396c-3.313,0-6-2.687-6-6v-3.891l-11.18-0.095c-3.313-0.028-5.978-2.737-5.949-6.051
			c0.028-3.296,2.709-5.949,5.999-5.949c0.018,0,0.034,0,0.052,0l16.96,0.145c0.113-0.003,0.229-0.002,0.34,0.003l4.826,0.041
			c0.016,0,0.031,0,0.048,0c1.649,0,3.23-0.663,4.452-1.872c1.252-1.238,1.944-2.879,1.949-4.616
			c0.005-1.719-0.667-3.342-1.892-4.57c-1.258-1.262-2.941-1.956-4.739-1.956h-9.699c-10.295,0-18.67-8.318-18.67-18.544
			c0-9.832,7.75-17.9,17.503-18.5V320c0-3.313,2.687-6,6-6s6,2.687,6,6v4.108h8.802c3.313,0,6,2.687,6,6s-2.687,6-6,6h-14.513
			c-0.191,0.01-0.387,0.01-0.578,0h-4.544c-3.678,0-6.67,2.932-6.67,6.536c0,3.608,2.992,6.544,6.67,6.544h9.699
			c5.01,0,9.711,1.947,13.236,5.482c3.492,3.503,5.408,8.147,5.395,13.077c-0.014,4.955-1.971,9.611-5.509,13.113
			c-3.266,3.231-7.489,5.099-11.988,5.32V390C375.503,393.313,372.816,396,369.503,396z"/>
	</g>
</g>
</svg>
