<?xml version="1.0" encoding="utf-8"?>
<!-- Generator: Adobe Illustrator 27.5.0, SVG Export Plug-In . SVG Version: 6.00 Build 0)  -->
<svg version="1.1" id="Layer_1" xmlns="http://www.w3.org/2000/svg" xmlns:xlink="http://www.w3.org/1999/xlink" x="0px" y="0px"
	 viewBox="0 0 500 500" style="enable-background:new 0 0 500 500;" xml:space="preserve">
<style type="text/css">
	.st0{fill:#F9423A;}
	.st1{fill:none;stroke:#F9423A;stroke-width:12;stroke-linecap:round;stroke-linejoin:round;}
</style>
<g>
	<g>
		<g>
			<g>
				<path class="st0" d="M227.8,349.4c-1.5,0-3.1-0.6-4.2-1.8l-45.9-45.7c-2.3-2.3-2.4-6.1,0-8.5c2.3-2.3,6.1-2.3,8.5,0l41.6,41.5
					l83.6-83.5c2.3-2.3,6.1-2.3,8.5,0c2.3,2.3,2.3,6.1,0,8.5L232,347.6C230.8,348.8,229.3,349.4,227.8,349.4z"/>
			</g>
		</g>
		<path class="st0" d="M383.4,442.3H116.6c-3.3,0-6-2.7-6-6V63.2c0-3.3,2.7-6,6-6h160.1c3.3,0,6,2.7,6,6s-2.7,6-6,6H122.6v361.1
			h254.9V169.9c0-3.3,2.7-6,6-6s6,2.7,6,6v266.4C389.4,439.6,386.7,442.3,383.4,442.3z"/>
		<g>
			<g>
				<path class="st0" d="M383.4,175.9L383.4,175.9H276.7c-3.3,0-6-2.7-6-6V63.2l0,0l0,0l0,0l0,0l0,0c0-0.8,0.2-1.6,0.5-2.2
					c0.3-0.7,0.7-1.3,1.2-1.9l0,0l0,0l0,0l0.1-0.1l0,0l0,0l0,0c0.5-0.5,1.2-0.9,1.8-1.2c0.7-0.3,1.5-0.5,2.3-0.5l0,0l0,0h0.1l0,0
					l0,0l0,0c0.8,0,1.5,0.2,2.2,0.4c0.7,0.3,1.4,0.7,2,1.3l0,0l0,0l0,0l0,0l0,0l0,0l106.7,106.7c0.6,0.6,1,1.2,1.3,1.9
					s0.5,1.5,0.5,2.3s-0.2,1.6-0.5,2.3s-0.7,1.3-1.3,1.9l0,0l0,0l0,0l0,0l0,0l0,0l0,0l0,0l0,0l0,0l0,0c-0.5,0.5-1.2,1-1.8,1.2
					C385.1,175.8,384.3,175.9,383.4,175.9C383.5,175.9,383.5,175.9,383.4,175.9C383.5,175.9,383.5,175.9,383.4,175.9
					C383.5,175.9,383.4,175.9,383.4,175.9z M282.7,163.9H369l-86.3-86.3V163.9z"/>
			</g>
		</g>
	</g>
	<path class="st1" d="M0,500"/>
</g>
</svg>
