<?xml version="1.0" encoding="utf-8"?>
<!-- Generator: Adobe Illustrator 27.5.0, SVG Export Plug-In . SVG Version: 6.00 Build 0)  -->
<svg version="1.1" id="Layer_1" xmlns="http://www.w3.org/2000/svg" xmlns:xlink="http://www.w3.org/1999/xlink" x="0px" y="0px"
	 viewBox="0 0 500 500" style="enable-background:new 0 0 500 500;" xml:space="preserve">
<style type="text/css">
	.st0{fill:#F9423A;}
</style>
<g>
	<g transform="translate(115 65)">
		<g>
			<g>
				<path class="st0" d="M166.4,324.4h-62.7c-15.4,0-28-12.6-28-28v-58.1c0-3.3,2.7-6,6-6h106.7c3.3,0,6,2.7,6,6v58.1
					C194.4,311.8,181.8,324.4,166.4,324.4z M87.7,244.3v52.1c0,8.8,7.2,16,16,16h62.7c8.8,0,16-7.2,16-16v-52.1L87.7,244.3
					L87.7,244.3z"/>
			</g>
			<g>
				<path class="st0" d="M148.3,297.7h-26.7c-3.3,0-6-2.7-6-6V265c0-3.3,2.7-6,6-6h26.7c3.3,0,6,2.7,6,6v26.7
					C154.3,295,151.6,297.7,148.3,297.7z M127.6,285.7h14.7V271h-14.7C127.6,271,127.6,285.7,127.6,285.7z"/>
			</g>
		</g>
		<g>
			<path class="st0" d="M175,244.4c-3.3,0-6-2.7-6-6v-26.7c0-18.7-15.3-34-34-34s-34,15.3-34,34v26.7c0,3.3-2.7,6-6,6s-6-2.7-6-6
				v-26.7c0-25.4,20.6-46,46-46s46,20.6,46,46v26.7C181,241.7,178.3,244.4,175,244.4z"/>
		</g>
	</g>
	<g>
		<g>
			<path class="st0" d="M383.5,442.3H116.6c-3.3,0-6-2.7-6-6V63.2c0-3.3,2.7-6,6-6h160.1c1.6,0,3.1,0.6,4.2,1.8l106.8,106.7
				c1.1,1.1,1.8,2.7,1.8,4.2v266.4C389.5,439.6,386.8,442.3,383.5,442.3z M122.6,430.3h254.9V172.4L274.2,69.2H122.6V430.3z"/>
		</g>
		<g>
			<path class="st0" d="M383.4,175.9H276.7c-3.3,0-6-2.7-6-6V63.2c0-3.3,2.7-6,6-6s6,2.7,6,6v100.7h100.7c3.3,0,6,2.7,6,6
				S386.7,175.9,383.4,175.9z"/>
		</g>
	</g>
	<g>
		<path class="st0" d="M383.4,175.9c-1.4,0-2.8-0.5-3.9-1.4c-0.4-0.3-5-4.5-54.1-54.4c-45.8-46.5-51.9-51.8-52.5-52.2
			c0.2,0.2,0.3,0.2,0.3,0.2l6.9-9.8c2.4,1.6,22.5,21.6,53.8,53.4c47.5,48.2,53.1,53.4,53.4,53.7c2.5,2.2,2.7,5.9,0.6,8.4
			C386.8,175.2,385.1,175.9,383.4,175.9z"/>
	</g>
</g>
</svg>
