<?xml version="1.0" encoding="iso-8859-1"?>
<!-- Generator: Adobe Illustrator 29.6.1, SVG Export Plug-In . SVG Version: 9.03 Build 0)  -->
<svg version="1.1" id="Layer_1" xmlns="http://www.w3.org/2000/svg" xmlns:xlink="http://www.w3.org/1999/xlink" x="0px" y="0px"
	 viewBox="0 0 500 500" style="enable-background:new 0 0 500 500;" xml:space="preserve">
<g>
	<g>
		<path style="fill:#F9423A;" d="M383.43,442.57H116.57c-3.313,0-6-2.687-6-6V63.43c0-3.313,2.687-6,6-6h160.121
			c1.592,0,3.117,0.632,4.243,1.757l106.739,106.75c1.125,1.125,1.757,2.651,1.757,4.243v266.39
			C389.43,439.884,386.743,442.57,383.43,442.57z M122.57,430.57h254.86V172.665L274.205,69.43H122.57V430.57z"/>
	</g>
	<g>
		<path style="fill:#F9423A;" d="M383.43,176.18H276.691c-3.313,0-6-2.687-6-6V63.43c0-3.313,2.687-6,6-6s6,2.687,6,6v100.75H383.43
			c3.313,0,6,2.687,6,6S386.743,176.18,383.43,176.18z"/>
	</g>
	<g>
		<path style="fill:#F9423A;" d="M250,389.67c-3.313,0-6-2.687-6-6v-67.38h-67.39c-3.313,0-6-2.687-6-6s2.687-6,6-6H244V236.9
			c0-3.313,2.687-6,6-6s6,2.687,6,6v67.39h67.39c3.313,0,6,2.687,6,6s-2.687,6-6,6H256v67.38C256,386.983,253.314,389.67,250,389.67
			z"/>
	</g>
</g>
</svg>
