<?xml version="1.0" encoding="utf-8"?>
<!-- Generator: Adobe Illustrator 27.5.0, SVG Export Plug-In . SVG Version: 6.00 Build 0)  -->
<svg version="1.1" id="Layer_1" xmlns="http://www.w3.org/2000/svg" xmlns:xlink="http://www.w3.org/1999/xlink" x="0px" y="0px"
	 viewBox="0 0 500 500" style="enable-background:new 0 0 500 500;" xml:space="preserve">
<style type="text/css">
	.st0{fill:#F9423A;}
	.st1{fill:none;stroke:#F9423A;stroke-width:12;stroke-linecap:round;stroke-linejoin:round;}
</style>
<g>
	<g transform="translate(115 65)">
		<g>
			<path class="st0" d="M73.4,324.5h-19c-3.3,0-6-2.7-6-6v-53.4c0-3.3,2.7-6,6-6h19c15,0,27.4,12.3,27.5,27.3V297
				C100.9,312.2,88.6,324.5,73.4,324.5z M60.4,312.5h13c8.5,0,15.5-7,15.5-15.5v-10.5c-0.1-8.5-7-15.4-15.5-15.4h-13V312.5z"/>
		</g>
		<g>
			<path class="st0" d="M136.6,325.2h-0.5c-14.4,0-26.3-11.6-26.4-25.9v-15c0.1-14.4,12-26,26.4-26h0.5c14.3,0,26.1,11.6,26.4,25.9
				v0.1v14.9C162.9,313.6,151,325.2,136.6,325.2z M136.1,270.3c-7.7,0-14.3,6.4-14.4,14.1v14.8c0.1,7.6,6.7,14,14.4,14h0.5
				c7.7,0,14.3-6.4,14.4-14.1v-14.8c-0.2-7.8-6.6-14.1-14.4-14.1h-0.5V270.3z"/>
		</g>
		<g>
			<path class="st0" d="M203.8,325.4c-1.9,0-3.9-0.1-6.1-0.3c-14.1-1.5-25.6-14.4-25.6-28.8v-8.9c0-7.9,3.1-15.3,8.7-20.8
				c5.6-5.5,13-8.4,20.9-8.2c9.1,0.1,14.2,1.8,14.8,2c3.1,1.1,4.8,4.5,3.6,7.7c-1.1,3.1-4.5,4.7-7.6,3.7c-0.2-0.1-4-1.3-11-1.4
				c-4.7-0.1-9,1.6-12.3,4.8c-3.3,3.2-5.1,7.5-5.1,12.2v8.9c0,8.3,6.8,16,14.8,16.8c9,1,14.1-1.1,14.1-1.1c3-1.4,6.5,0,7.9,3
				s0,6.6-3,8C217.5,323.2,212.5,325.4,203.8,325.4z"/>
		</g>
	</g>
	<g>
		<path class="st0" d="M383.5,442.3H116.6c-3.3,0-6-2.7-6-6V63.2c0-3.3,2.7-6,6-6h160.1c1.6,0,3.1,0.6,4.2,1.8l106.8,106.7
			c1.1,1.1,1.8,2.7,1.8,4.2v266.4C389.5,439.6,386.8,442.3,383.5,442.3z M122.6,430.3h254.9V172.4L274.2,69.2H122.6V430.3z"/>
	</g>
	<g>
		<path class="st0" d="M383.4,175.9H276.7c-3.3,0-6-2.7-6-6V63.2c0-3.3,2.7-6,6-6s6,2.7,6,6v100.7h100.7c3.3,0,6,2.7,6,6
			S386.7,175.9,383.4,175.9z"/>
	</g>
	<g>
		<path class="st0" d="M383.4,175.9c-1.4,0-2.8-0.5-3.9-1.4c-0.4-0.3-5-4.5-54.1-54.4c-45.8-46.5-51.9-51.8-52.5-52.2
			c0.2,0.2,0.3,0.2,0.3,0.2l6.9-9.8c2.4,1.6,22.5,21.6,53.8,53.4c47.5,48.2,53.1,53.4,53.4,53.7c2.5,2.2,2.7,5.9,0.6,8.4
			C386.8,175.2,385.1,175.9,383.4,175.9z"/>
	</g>
	<g>
		<path class="st1" d="M0,500"/>
	</g>
</g>
</svg>
