<?xml version="1.0" encoding="utf-8"?>
<!-- Generator: Adobe Illustrator 27.5.0, SVG Export Plug-In . SVG Version: 6.00 Build 0)  -->
<svg version="1.1" id="Layer_1" xmlns="http://www.w3.org/2000/svg" xmlns:xlink="http://www.w3.org/1999/xlink" x="0px" y="0px"
	 viewBox="0 0 500 500" style="enable-background:new 0 0 500 500;" xml:space="preserve">
<style type="text/css">
	.st0{fill:#F9423A;}
	.st1{fill:none;stroke:#F9423A;stroke-width:12;stroke-linecap:round;stroke-linejoin:round;}
</style>
<g>
	<g>
		<g transform="translate(115 65)">
			<g>
				<path class="st0" d="M147.5,337.6h-25.1c-9.2,0-16.6-7.4-16.6-16.6v-7.5c-3.2-1.5-6.3-3.3-9.3-5.4l-6.6,3.8
					c-3.9,2.2-8.4,2.8-12.6,1.7c-4.3-1.1-7.9-3.9-10.1-7.8L54.6,284c-4.6-8-1.8-18.2,6.1-22.7l6.6-3.8c-0.1-1.8-0.2-3.6-0.2-5.4
					s0.1-3.6,0.2-5.4l-6.6-3.8c-8-4.7-10.7-14.6-6.1-22.7l12.6-21.8c4.7-8,14.7-10.7,22.7-6.1l6.7,3.9c2.9-2,6-3.8,9.3-5.3v-7.7
					c0-9.2,7.4-16.6,16.6-16.6h25.1c9.2,0,16.6,7.4,16.6,16.6v7.7c3.2,1.5,6.3,3.3,9.3,5.4l6.6-3.8c8-4.6,18.2-1.8,22.7,6.1
					l12.6,21.8c2.2,3.9,2.8,8.4,1.7,12.6c-1.1,4.3-3.9,7.9-7.8,10.1l-6.6,3.8c0.1,1.8,0.2,3.6,0.2,5.4s-0.1,3.6-0.2,5.4l6.6,3.8
					c3.8,2.2,6.6,5.7,7.8,10c1.1,4.3,0.6,8.7-1.7,12.5l-12.6,21.8c-4.7,8-14.7,10.7-22.7,6.1l-6.7-3.9c-2.9,2-6,3.8-9.3,5.3v7.7
					C164.1,330.2,156.7,337.6,147.5,337.6z M96.9,295c1.3,0,2.6,0.4,3.7,1.3c4.1,3.2,8.6,5.8,13.5,7.8c2.3,0.9,3.7,3.1,3.7,5.6V321
					c0,2.5,2.1,4.6,4.6,4.6h25.1c2.5,0,4.6-2.1,4.6-4.6v-11.6c0-2.4,1.5-4.6,3.7-5.5c5.1-2.1,9.5-4.7,13.5-7.8
					c1.9-1.5,4.6-1.7,6.7-0.5l10,5.8c2.2,1.3,5,0.5,6.3-1.8l12.6-21.8c0.6-1,0.8-2.2,0.5-3.4c-0.3-1.1-1.1-2.1-2.1-2.7l0,0l-10-5.8
					c-2.1-1.2-3.3-3.6-2.9-6c0.4-2.5,0.5-5.1,0.5-7.8s-0.2-5.2-0.5-7.8c-0.3-2.4,0.8-4.8,2.9-6l10-5.8c1.1-0.6,1.8-1.6,2.2-2.8
					c0.3-1.2,0.2-2.5-0.5-3.6l-12.6-21.8c-1.3-2.2-4.1-3-6.3-1.7l-10,5.8c-2.1,1.2-4.8,1-6.7-0.5c-4.1-3.2-8.6-5.8-13.5-7.8
					c-2.3-0.9-3.7-3.1-3.7-5.6v-11.6c0-2.5-2.1-4.6-4.6-4.6h-25.1c-2.5,0-4.6,2.1-4.6,4.6v11.6c0,2.4-1.5,4.6-3.7,5.5
					c-5.1,2.1-9.5,4.7-13.5,7.8c-1.9,1.5-4.6,1.7-6.7,0.5l-10-5.8c-2.2-1.3-5-0.5-6.3,1.8l-12.7,22c-1.3,2.2-0.5,5,1.7,6.3l10,5.8
					c2.1,1.2,3.3,3.6,2.9,6c-0.4,2.5-0.5,5.1-0.5,7.8s0.2,5.2,0.5,7.8c0.3,2.4-0.8,4.8-2.9,6l-10,5.8c-2.2,1.3-3,4.1-1.7,6.3
					l12.6,21.8c0.6,1.1,1.6,1.8,2.8,2.2c1.2,0.3,2.5,0.2,3.6-0.5l10-5.8C94.8,295.3,95.9,295,96.9,295z M135,289.8
					c-20.7,0-37.6-16.9-37.6-37.6s16.9-37.6,37.6-37.6s37.6,16.9,37.6,37.6S155.7,289.8,135,289.8z M135,226.6
					c-14.1,0-25.6,11.5-25.6,25.6s11.5,25.6,25.6,25.6s25.6-11.5,25.6-25.6S149.1,226.6,135,226.6z"/>
			</g>
		</g>
		<g>
			<g>
				<path class="st0" d="M383.5,442.3H116.6c-3.3,0-6-2.7-6-6V63.2c0-3.3,2.7-6,6-6h160.1c1.6,0,3.1,0.6,4.2,1.8l106.8,106.7
					c1.1,1.1,1.8,2.7,1.8,4.2v266.4C389.5,439.6,386.8,442.3,383.5,442.3z M122.6,430.3h254.9V172.4L274.2,69.2H122.6V430.3z"/>
			</g>
			<g>
				<path class="st0" d="M383.4,175.9H276.7c-3.3,0-6-2.7-6-6V63.2c0-3.3,2.7-6,6-6s6,2.7,6,6v100.7h100.7c3.3,0,6,2.7,6,6
					S386.7,175.9,383.4,175.9z"/>
			</g>
		</g>
		<g>
			<path class="st0" d="M383.4,175.9c-1.4,0-2.8-0.5-3.9-1.4c-0.4-0.3-5-4.5-54.1-54.4c-45.8-46.5-51.9-51.8-52.5-52.2
				c0.2,0.2,0.3,0.2,0.3,0.2l6.9-9.8c2.4,1.6,22.5,21.6,53.8,53.4c47.5,48.2,53.1,53.4,53.4,53.7c2.5,2.2,2.7,5.9,0.6,8.4
				C386.8,175.2,385.1,175.9,383.4,175.9z"/>
		</g>
	</g>
	<g>
		<path class="st1" d="M0,500"/>
	</g>
</g>
</svg>
