<?xml version="1.0" encoding="utf-8"?>
<!-- Generator: Adobe Illustrator 27.5.0, SVG Export Plug-In . SVG Version: 6.00 Build 0)  -->
<svg version="1.1" id="Layer_1" xmlns="http://www.w3.org/2000/svg" xmlns:xlink="http://www.w3.org/1999/xlink" x="0px" y="0px"
	 viewBox="0 0 500 500" style="enable-background:new 0 0 500 500;" xml:space="preserve">
<style type="text/css">
	.st0{fill:#F9423A;}
	.st1{display:none;fill:none;stroke:#F9423A;stroke-width:12;stroke-linecap:round;stroke-linejoin:round;}
	.st2{fill:none;stroke:#F9423A;stroke-width:12;stroke-linecap:round;stroke-linejoin:round;}
</style>
<g>
	<g>
		<path class="st0" d="M202,418.4c-27.8,0-57.6-11-85.3-31.8c-29.5-22.1-51.6-51.9-59.2-79.6c-8.8-32.4,3.3-58.1,33.2-70.5
			c31.5-13.1,55-14.8,71.8-5.3c25.7,14.6,31.2,52.5,37,92.7c4.3,29.6,8.7,60.1,20.9,85c0.8,1.7,0.8,3.8-0.1,5.5s-2.6,2.9-4.5,3.1
			C211.3,418.1,206.6,418.4,202,418.4z M137.4,237.1c-11.4,0-25.3,3.5-42.1,10.5C64.4,260.3,64,285.2,69,303.8
			c6.8,24.9,27.8,52.9,54.8,73.2c26.6,20,56.1,30.4,82.2,29.3c-10.3-24.8-14.4-53.1-18.4-80.7c-5.4-37.2-10.5-72.3-31.1-84
			C151.2,238.6,144.9,237.1,137.4,237.1z"/>
		<g>
			<path class="st0" d="M118.3,291.8c-1.7,0-3.4-0.7-4.5-2.1c-1.3-1.5-30.4-36.3-8.1-94.9c1.2-3.1,4.6-4.7,7.7-3.5s4.7,4.6,3.5,7.7
				c-19.7,51.7,4.9,81.6,6,82.9c2.1,2.5,1.8,6.3-0.7,8.4C121.1,291.3,119.7,291.8,118.3,291.8z"/>
		</g>
		<path class="st0" d="M342.4,420.6c-11.7,0-23.5-4.2-35-12.6c-27.4-20.2-41-39.5-41.5-58.8c-0.7-29.5,29-53.8,60.4-79.5
			c23.1-18.9,47.1-38.5,62.1-61.7c1-1.6,2.8-2.6,4.7-2.7c1.9-0.1,3.8,0.7,5,2.2c20,24.8,28.8,60.6,24.6,100.9
			c-3.8,36.7-17.9,71-37.8,91.7C372,413.7,357.3,420.6,342.4,420.6z M393.6,221.6c-15.9,21.6-38.1,39.8-59.7,57.4
			c-29.1,23.8-56.6,46.2-56,69.9c0.4,15.4,12.4,31.6,36.6,49.4c26.9,19.9,48.5,7.4,61.8-6.5c17.8-18.6,31.1-51.1,34.5-84.7
			C414.3,274,408,243.4,393.6,221.6z"/>
		<g>
			<path class="st0" d="M263,416.6c-2.8,0-5.4-2-5.9-4.9c-0.6-3.3,1.6-6.4,4.8-7c54.4-9.8,67.4-46.3,68-47.8
				c1.1-3.1,4.5-4.8,7.6-3.8c3.1,1.1,4.8,4.4,3.8,7.6c-0.6,1.8-15.5,44.7-77.2,55.8C263.7,416.6,263.3,416.6,263,416.6z"/>
		</g>
		<path class="st0" d="M291.7,206.7c-21.3,0-46.4-9.5-72.5-19.4c-28-10.6-56.9-21.5-84.5-22.9c-1.9-0.1-3.7-1.1-4.7-2.7
			c-1-1.6-1.3-3.6-0.6-5.4c11.5-29.7,38.1-55.2,75-71.8c33.6-15.1,70.4-20,98.3-13.2c32.6,8,49.3,31,45.6,63.3
			c-3.8,33.9-13.6,55.2-30.1,65.3C310.3,204.7,301.4,206.7,291.7,206.7z M143.9,153.1c26.7,3,53.5,13.1,79.6,23
			c35.1,13.3,68.3,25.9,88.5,13.6c13.1-8,21.1-26.5,24.5-56.4c3.7-33.2-17.8-45.7-36.6-50.3c-25.1-6.1-59.7-1.4-90.5,12.5
			C179,109,155.6,129.8,143.9,153.1z"/>
		<g>
			<path class="st0" d="M372.9,177.8c-1.7,0-3.4-0.7-4.6-2.1c-35.6-42.3-73.7-35.3-75.3-35c-3.2,0.6-6.4-1.5-7.1-4.7
				s1.4-6.4,4.7-7.1c1.9-0.4,46.5-9,86.9,39c2.1,2.5,1.8,6.3-0.7,8.5C375.6,177.3,374.3,177.8,372.9,177.8z"/>
		</g>
	</g>
	<g>
		<g>
			<path class="st1" d="M0,500"/>
		</g>
		<g>
			<path class="st2" d="M0,500"/>
		</g>
		<g>
			<path class="st2" d="M0,500"/>
		</g>
		<g>
			<path class="st2" d="M0,500"/>
		</g>
		<g>
			<path class="st2" d="M0,500"/>
		</g>
		<g>
			<path class="st2" d="M0,500"/>
		</g>
		<g>
			<path class="st2" d="M0,500"/>
		</g>
		<g>
			<path class="st2" d="M0,500"/>
		</g>
		<g>
			<path class="st2" d="M0,500"/>
		</g>
		<g>
			<path class="st2" d="M0,500"/>
		</g>
		<g>
			<path class="st2" d="M0,500"/>
		</g>
		<g>
			<path class="st2" d="M0,500"/>
		</g>
	</g>
</g>
</svg>
