<?xml version="1.0" encoding="iso-8859-1"?>
<!-- Generator: Adobe Illustrator 29.6.1, SVG Export Plug-In . SVG Version: 9.03 Build 0)  -->
<svg version="1.1" id="Layer_1" xmlns="http://www.w3.org/2000/svg" xmlns:xlink="http://www.w3.org/1999/xlink" x="0px" y="0px"
	 viewBox="0 0 500 500" style="enable-background:new 0 0 500 500;" xml:space="preserve">
<g>
	<g>
		<path style="fill:#F9423A;" d="M145.65,329.3h-12v-56.6h12V329.3z M145.65,259.3h-12v-56.6h12V259.3z M145.65,189.3h-12v-56.6h12
			V189.3z"/>
	</g>
	<g>
		<path style="fill:#F9423A;" d="M135.457,386.901c-0.3,0-0.604-0.022-0.909-0.069c-15.702-2.387-27.098-15.69-27.098-31.632
			c0-17.645,14.355-32,32-32c17.319,0,31.373,13.565,31.996,30.884c0.119,3.312-2.469,6.093-5.78,6.212
			c-3.303,0.134-6.093-2.469-6.212-5.78c-0.39-10.831-9.176-19.315-20.004-19.315c-11.028,0-20,8.972-20,20
			c0,9.966,7.108,18.279,16.902,19.769c3.276,0.498,5.528,3.558,5.03,6.833C140.93,384.772,138.372,386.901,135.457,386.901z
			 M135.457,316.901c-0.3,0-0.604-0.022-0.909-0.069c-15.702-2.387-27.098-15.69-27.098-31.632c0-17.645,14.355-32,32-32
			c17.319,0,31.373,13.565,31.996,30.884c0.119,3.312-2.469,6.093-5.78,6.212c-3.303,0.134-6.093-2.469-6.212-5.78
			c-0.39-10.831-9.176-19.315-20.004-19.315c-11.028,0-20,8.972-20,20c0,9.966,7.108,18.279,16.902,19.769
			c3.276,0.498,5.528,3.558,5.03,6.833C140.93,314.772,138.372,316.901,135.457,316.901z M135.457,246.901
			c-0.3,0-0.604-0.022-0.909-0.069c-15.702-2.387-27.099-15.69-27.099-31.632c0-17.645,14.355-32,32-32
			c17.319,0,31.373,13.566,31.996,30.884c0.119,3.312-2.469,6.093-5.78,6.212c-3.325,0.111-6.093-2.469-6.212-5.78
			c-0.39-10.831-9.176-19.315-20.004-19.315c-11.028,0-20,8.972-20,20c0,9.966,7.108,18.279,16.901,19.768
			c3.276,0.498,5.528,3.558,5.031,6.834C140.93,244.772,138.373,246.901,135.457,246.901z M135.457,176.901
			c-0.3,0-0.604-0.022-0.909-0.069c-15.702-2.387-27.099-15.69-27.099-31.632c0-17.645,14.355-32,32-32
			c17.319,0,31.373,13.566,31.996,30.884c0.119,3.312-2.469,6.093-5.78,6.212c-3.325,0.111-6.093-2.469-6.212-5.78
			c-0.39-10.831-9.176-19.315-20.004-19.315c-11.028,0-20,8.972-20,20c0,9.966,7.108,18.279,16.901,19.768
			c3.276,0.498,5.528,3.558,5.031,6.834C140.93,174.772,138.373,176.901,135.457,176.901z"/>
	</g>
	<g>
		<path style="fill:#F9423A;" d="M289.205,276.379h-28.491c-14.36,0-26.043-11.683-26.043-26.043v-8.448
			c0-14.36,11.683-26.043,26.043-26.043h8.448c14.36,0,26.043,11.683,26.043,26.043v28.491
			C295.205,273.692,292.519,276.379,289.205,276.379z M260.714,227.845c-7.743,0-14.043,6.3-14.043,14.043v8.448
			c0,7.743,6.3,14.043,14.043,14.043h22.491v-22.491c0-7.743-6.3-14.043-14.043-14.043H260.714z"/>
	</g>
	<g>
		<path style="fill:#F9423A;" d="M267.126,310c-0.028,0-0.056,0-0.084,0c-35.006,0-63.492-28.486-63.492-63.5s28.486-63.5,63.5-63.5
			c35.038,0,63.543,28.505,63.543,63.543c0,10.319-8.65,29.836-41.388,29.836c-3.313,0-6-2.687-6-6s2.687-6,6-6
			c28.101,0,29.34-16.079,29.389-17.912C318.593,218.122,295.471,195,267.05,195c-28.397,0-51.5,23.103-51.5,51.5
			s23.103,51.5,51.5,51.5c0.022,0,0.046,0,0.068,0c11.679,0,23.109-4.027,32.204-11.347c2.581-2.077,6.358-1.668,8.437,0.913
			c2.077,2.582,1.668,6.358-0.913,8.437C295.627,305.03,281.524,310,267.126,310z"/>
	</g>
	<g>
		<path style="fill:#F9423A;" d="M386.55,421h-245c-3.314,0-6-2.687-6-6v-72.1h12V409h233V91h-233v34.3h-12V85c0-3.314,2.686-6,6-6
			h245c3.313,0,6,2.686,6,6v330C392.55,418.313,389.864,421,386.55,421z"/>
	</g>
</g>
</svg>
