<?xml version="1.0" encoding="utf-8"?>
<!-- Generator: Adobe Illustrator 27.5.0, SVG Export Plug-In . SVG Version: 6.00 Build 0)  -->
<svg version="1.1" id="Layer_1" xmlns="http://www.w3.org/2000/svg" xmlns:xlink="http://www.w3.org/1999/xlink" x="0px" y="0px"
	 viewBox="0 0 500 500" style="enable-background:new 0 0 500 500;" xml:space="preserve">
<style type="text/css">
	.st0{fill:#F9423A;}
	.st1{display:none;fill:none;stroke:#F9423A;stroke-width:12;stroke-linecap:round;stroke-linejoin:round;}
	.st2{fill:none;stroke:#F9423A;stroke-width:12;stroke-linecap:round;stroke-linejoin:round;}
</style>
<g>
	<g>
		<g>
			<path class="st0" d="M250,419.2c-93.3,0-169.2-75.9-169.2-169.2S156.7,80.8,250,80.8S419.2,156.7,419.2,250
				S343.3,419.2,250,419.2z M250,92.8c-86.7,0-157.2,70.5-157.2,157.2S163.3,407.2,250,407.2S407.2,336.7,407.2,250
				S336.7,92.8,250,92.8z"/>
		</g>
		<g>
			<path class="st0" d="M206.4,331.1c-2,0-3.9-1-5.1-2.8c-1.8-2.8-1-6.5,1.8-8.3c14.2-9.1,30.6-13.8,47.6-13.8s33.5,4.8,47.6,13.8
				c2.8,1.8,3.6,5.5,1.8,8.3c-1.8,2.8-5.5,3.6-8.3,1.8c-12.2-7.8-26.4-12-41.2-12c-14.7,0-28.9,4.1-41.2,12
				C208.6,330.8,207.5,331.1,206.4,331.1z"/>
		</g>
		<g>
			<path class="st0" d="M311.7,211c-8.8,0-15.9,7.1-15.9,15.9c0,8.8,7.1,15.9,15.9,15.9s15.9-7.1,15.9-15.9
				C327.5,218.1,320.4,211,311.7,211L311.7,211z"/>
		</g>
		<g>
			<path class="st0" d="M345.7,196.9c-1.6,0-3.2-0.6-4.3-1.9c-19.5-20.4-44.3-17.1-44.5-17.1c-3.3,0.5-6.3-1.8-6.8-5.1
				s1.8-6.3,5.1-6.8c1.3-0.2,31.1-4.2,54.9,20.7c2.3,2.4,2.2,6.2-0.2,8.5C348.7,196.3,347.2,196.9,345.7,196.9z"/>
		</g>
		<g>
			<path class="st0" d="M191,211c8.8,0,15.9,7.1,15.9,15.9c0,8.8-7.1,15.9-15.9,15.9c-8.8,0-15.9-7.1-15.9-15.9S182.2,211,191,211
				L191,211z"/>
		</g>
		<g>
			<path class="st0" d="M156.9,196.9c-1.5,0-3-0.6-4.1-1.7c-2.4-2.3-2.5-6.1-0.2-8.5c23.8-24.8,53.6-20.9,54.9-20.7
				c3.3,0.5,5.6,3.5,5.1,6.8s-3.5,5.6-6.8,5.1c-1.1-0.1-25.2-3.1-44.5,17.1C160.1,196.3,158.5,196.9,156.9,196.9z"/>
		</g>
	</g>
	<g>
		<g>
			<g>
				<path class="st1" d="M0,500"/>
			</g>
		</g>
		<g>
			<g>
				<path class="st2" d="M0,500"/>
			</g>
		</g>
		<g>
			<g>
				<path class="st2" d="M0,500"/>
			</g>
		</g>
		<g>
			<g>
				<path class="st2" d="M0,500"/>
			</g>
		</g>
		<g>
			<g>
				<path class="st2" d="M0,500"/>
			</g>
		</g>
		<g>
			<g>
				<path class="st2" d="M0,500"/>
			</g>
		</g>
		<g>
			<g>
				<path class="st2" d="M0,500"/>
			</g>
		</g>
		<g>
			<g>
				<path class="st2" d="M0,500"/>
			</g>
		</g>
		<g>
			<g>
				<path class="st2" d="M0,500"/>
			</g>
		</g>
		<g>
			<g>
				<path class="st2" d="M0,500"/>
			</g>
		</g>
		<g>
			<g>
				<path class="st2" d="M0,500"/>
			</g>
		</g>
		<g>
			<g>
				<path class="st2" d="M0,500"/>
			</g>
		</g>
	</g>
</g>
</svg>
