<?xml version="1.0" encoding="utf-8"?>
<!-- Generator: Adobe Illustrator 27.5.0, SVG Export Plug-In . SVG Version: 6.00 Build 0)  -->
<svg version="1.1" id="Layer_1" xmlns="http://www.w3.org/2000/svg" xmlns:xlink="http://www.w3.org/1999/xlink" x="0px" y="0px"
	 viewBox="0 0 500 500" style="enable-background:new 0 0 500 500;" xml:space="preserve">
<style type="text/css">
	.st0{clip-path:url(#SVGID_00000075879357262758389600000006731520114850531768_);}
	.st1{fill:#F9423A;}
</style>
<g>
	<g>
		<g>
			<defs>
				<rect id="SVGID_1_" width="500" height="500"/>
			</defs>
			<clipPath id="SVGID_00000131336642485553490680000017274975220968329656_">
				<use xlink:href="#SVGID_1_"  style="overflow:visible;"/>
			</clipPath>
			<g style="clip-path:url(#SVGID_00000131336642485553490680000017274975220968329656_);">
				<g>
					<path class="st1" d="M196,151.7c-1,0-2-0.1-3-0.4l-17.5-4.7c-6.1-1.6-11.3-5.5-14.5-11.1s-4.1-12.1-2.4-18.3l4.3-15.9
						c1.6-6.1,5.6-11.3,11.1-14.4c5.5-3.2,11.9-4,18.1-2.4l5.6,1.5c6.1,1.6,11.2,5.6,14.4,11.1s4,11.9,2.4,18.1l-7.5,28
						c-0.8,3-2.8,5.5-5.4,7C199.8,151.2,197.9,151.7,196,151.7z M196.2,139.7L196.2,139.7L196.2,139.7z M186,95.7
						c-2.1,0-4.1,0.5-6,1.6c-2.8,1.6-4.7,4.1-5.5,7.1l-4.3,15.9c-0.8,3.1-0.4,6.4,1.2,9.1c1.6,2.7,4.1,4.7,7.1,5.5l0,0l17,4.5
						l7.3-27.4c0.8-3.1,0.4-6.3-1.2-9c-1.6-2.8-4.1-4.7-7.1-5.5l-5.6-1.5C188,95.8,187,95.7,186,95.7z"/>
				</g>
				<g>
					<path class="st1" d="M266.4,389.4h-46.2c-3.1,0-5.6-2.3-6-5.3l-9.4-82.2h-15.4v56.5c0,17.1-13.9,31-31,31H89.9
						c-3.3,0-6-2.7-6-6s2.7-6,6-6h68.5c10.5,0,19-8.5,19-19v-56.5h-62.5c-17.1,0-31-13.9-31-31v-27.8c0-12.8-1.3-25.6-3.8-38
						l-9.5-47.3c-0.7-3.2,1.5-6.4,4.7-7.1c3.3-0.7,6.4,1.5,7.1,4.7l9.5,47.3c2.7,13.2,4,26.8,4,40.4v27.8c0,10.5,8.5,19,19,19h6.4
						c-4.1-5.3-6.6-11.9-6.6-19.1v-10.6c0-3.3,2.7-6,6-6s6,2.7,6,6v10.6c0,10.5,8.5,19.1,19,19.1h64.5c3.1,0,5.6,2.3,6,5.3l9.4,82.2
						h35.2c-2.1-5.8-12.3-10.5-12.4-10.6c-2-0.9-3.4-2.8-3.6-5l-7.3-82.2c0-0.1,0-0.1,0-0.2c-0.4-7.4-6.3-13-13.8-13l-46.3-0.2
						c-3.3,0-6-2.7-6-6s2.7-6,6-6l0,0l46.3,0.2c13.6,0.1,24.8,10.8,25.7,24.3l7,78.7c9.3,5,20.5,15.1,15.6,28.1
						C271.2,387.8,268.9,389.4,266.4,389.4z"/>
				</g>
				<g>
					<path class="st1" d="M390,390h-72c-3.3,0-6-2.7-6-6s2.7-6,6-6h72c7.7,0,14-6.3,14-14V256H250c-3.3,0-6-2.7-6-6v-19.4
						c0-3.3,2.7-6,6-6s6,2.7,6,6V244h148.2v-14.7h-139c-3.3,0-6-2.7-6-6s2.7-6,6-6h33.9l21.4-62.6c0.8-2.4,3.1-4.1,5.7-4.1h43.9
						c1.9,0,3.8,0.9,4.9,2.5s1.4,3.6,0.8,5.4l-20.1,58.8h54.5c3.3,0,6,2.7,6,6V250c0,0.5-0.1,1.1-0.2,1.5V364
						C416,378.3,404.3,390,390,390z M311.8,217.3H343l18.7-54.7h-31.2L311.8,217.3z"/>
				</g>
				<g>
					<path class="st1" d="M177.4,266.3h-56.6c-1.8,0-3.5-0.8-4.6-2.2s-1.6-3.2-1.2-5l16.4-80.9c3.2-15.6,17.1-27,33.1-27
						c7.9,0,15.6,2.8,21.7,7.9c0.1,0.1,0.2,0.1,0.3,0.2L221,185l52.4,12.2c2.4,0.6,4.3,2.6,4.6,5.1c0.2,1.3,1.4,12.7-5.6,21.6
						c-4.2,5.3-10.2,8.5-17.9,9.4c-0.7,0.1-1.4,0-2.1-0.1l-47.5-11.1c-0.8-0.2-1.6-0.5-2.2-1l-9.7-7.2l-9.6,47.6
						C182.7,264.3,180.3,266.3,177.4,266.3z M128.1,254.3h44.4l9.8-48.4l-24.6-18.3c-2.7-2-3.2-5.7-1.2-8.4s5.7-3.2,8.4-1.2l4.7,3.5
						l39.2,29.3l45.2,10.6c9.4-1.6,11.6-8.6,12-13.4l-49.1-11.4c-0.8-0.2-1.6-0.5-2.2-1l-37-27.6c-0.3-0.2-0.5-0.4-0.7-0.6
						c-3.7-2.6-8-4-12.6-4c-10.3,0-19.3,7.3-21.3,17.4L128.1,254.3z"/>
				</g>
			</g>
		</g>
	</g>
</g>
</svg>
