<?xml version="1.0" encoding="utf-8"?>
<!-- Generator: Adobe Illustrator 27.5.0, SVG Export Plug-In . SVG Version: 6.00 Build 0)  -->
<svg version="1.1" id="Layer_1" xmlns="http://www.w3.org/2000/svg" xmlns:xlink="http://www.w3.org/1999/xlink" x="0px" y="0px"
	 viewBox="0 0 500 500" style="enable-background:new 0 0 500 500;" xml:space="preserve">
<style type="text/css">
	.st0{clip-path:url(#SVGID_00000152242361463150838310000009381482093582539707_);}
	.st1{fill:#F9423A;}
	.st2{display:none;fill:none;stroke:#F9423A;stroke-width:12;stroke-linecap:round;stroke-linejoin:round;}
	.st3{fill:none;stroke:#F9423A;stroke-width:12;stroke-linecap:round;stroke-linejoin:round;}
</style>
<g>
	<g>
		<g>
			<defs>
				<rect id="SVGID_1_" width="500" height="500"/>
			</defs>
			<clipPath id="SVGID_00000023265883401601319020000009959088533115696301_">
				<use xlink:href="#SVGID_1_"  style="overflow:visible;"/>
			</clipPath>
			<g style="clip-path:url(#SVGID_00000023265883401601319020000009959088533115696301_);">
				<g>
					<path class="st1" d="M220.9,423c-0.7,0-1.4-0.1-2.1-0.4c-2.6-1-4.1-3.6-3.8-6.3l13.4-114.4h-74.8c-2.1,0-4-1.1-5.1-2.9
						s-1.2-4-0.2-5.9L259.6,80.2c1.3-2.5,4.3-3.8,7-3c2.8,0.8,4.5,3.5,4.3,6.3L256.6,231h89.8c2.2,0,4.3,1.2,5.3,3.2
						s0.9,4.4-0.4,6.2l-125.5,180C224.7,422.1,222.8,423,220.9,423z M163.5,289.9h71.6c1.7,0,3.3,0.7,4.5,2c1.1,1.3,1.7,3,1.5,4.7
						L229.6,394l105.3-150.9H250c-1.7,0-3.3-0.7-4.4-2c-1.1-1.3-1.7-2.9-1.5-4.6L256,113L163.5,289.9z"/>
				</g>
				<g>
					<g>
						<path class="st2" d="M0,500"/>
					</g>
					<g>
						<path class="st3" d="M0,500"/>
					</g>
					<g>
						<path class="st3" d="M0,500"/>
					</g>
					<g>
						<path class="st3" d="M0,500"/>
					</g>
					<g>
						<path class="st3" d="M0,500"/>
					</g>
					<g>
						<path class="st3" d="M0,500"/>
					</g>
					<g>
						<path class="st3" d="M0,500"/>
					</g>
					<g>
						<path class="st3" d="M0,500"/>
					</g>
					<g>
						<path class="st3" d="M0,500"/>
					</g>
					<g>
						<path class="st3" d="M0,500"/>
					</g>
					<g>
						<path class="st3" d="M0,500"/>
					</g>
					<g>
						<path class="st3" d="M0,500"/>
					</g>
				</g>
			</g>
		</g>
	</g>
</g>
</svg>
