<?xml version="1.0" encoding="utf-8"?>
<!-- Generator: Adobe Illustrator 27.5.0, SVG Export Plug-In . SVG Version: 6.00 Build 0)  -->
<svg version="1.1" id="Layer_1" xmlns="http://www.w3.org/2000/svg" xmlns:xlink="http://www.w3.org/1999/xlink" x="0px" y="0px"
	 viewBox="0 0 500 500" style="enable-background:new 0 0 500 500;" xml:space="preserve">
<style type="text/css">
	.st0{fill:#F9423A;}
	.st1{fill:none;stroke:#F9423A;stroke-width:12;stroke-linecap:round;stroke-linejoin:round;}
</style>
<g>
	<g>
		<g>
			<path class="st0" d="M371.5,416.1h-36c-1.6,0-3.2-0.7-4.3-1.9c-1.1-1.2-1.7-2.8-1.7-4.4l7.4-158.6c0.2-3.3,3-5.9,6.3-5.7
				s5.9,3,5.7,6.3l-7.1,152.3h23.4l-7.1-152.3c-0.2-3.3,2.4-6.1,5.7-6.3c3.3-0.1,6.1,2.4,6.3,5.7l7.4,158.6c0.1,1.6-0.5,3.2-1.7,4.4
				C374.7,415.4,373.1,416.1,371.5,416.1z"/>
		</g>
		<g>
			<path class="st0" d="M165,416.2h-36c-1.6,0-3.2-0.7-4.3-1.9s-1.7-2.8-1.7-4.4l7.4-158.6c0.2-3.3,3-5.9,6.3-5.7s5.9,3,5.7,6.3
				l-7.1,152.3h23.4l-7.1-152.3c-0.2-3.3,2.4-6.1,5.7-6.3c3.3-0.1,6.1,2.4,6.3,5.7l7.4,158.6c0.1,1.6-0.5,3.2-1.7,4.4
				S166.6,416.2,165,416.2z"/>
		</g>
		<g>
			<g>
				<path class="st0" d="M241.5,288.4c-0.6,0-1.3-0.1-1.9-0.3l-75-24.7c-2.1-0.7-4.2-1.6-6-2.8c-4-2.6-7-6.3-8.6-10.6
					c-1.2-3.1,0.3-6.6,3.4-7.8c3.1-1.2,6.6,0.3,7.8,3.4c0.7,1.9,2.2,3.6,4,4.8c0.8,0.5,1.9,1,3.1,1.4l47.7,15.7l-23.9-21.3
					c-2.5-2.2-2.7-6-0.5-8.5s6-2.7,8.5-0.5l45.4,40.5c2.1,1.9,2.6,5,1.2,7.5C245.6,287.3,243.6,288.4,241.5,288.4z M52.6,288.3
					c-2.1,0-4.1-1.1-5.2-3c-1.4-2.5-0.9-5.6,1.2-7.5l58.8-52.4c1.3-1.2,2.7-2.3,4.4-3.3c0.1,0,0.2-0.1,0.3-0.1
					c0.3-0.2,0.7-0.4,1.2-0.6c4-1.9,8.4-2.7,12.7-2.1c-0.8-2.2-1.3-4.5-1.5-6.8c-0.1-2.2,0.1-4.4,0.6-6.7l16.1-77.2
					c0.6-2.8,3-4.8,5.9-4.8s5.3,2,5.9,4.8l16.1,77.2c0.4,1.9,0.6,3.7,0.6,5.4c0,2.5-0.4,4.9-1.2,7.2c2.8-0.6,6-0.4,9.8,1.5
					c3,1.5,4.1,5.1,2.6,8.1s-5.1,4.1-8.1,2.6c-1.5-0.8-1.6-0.8-5.3,1.2c-0.4,0.2-0.9,0.5-1.4,0.7c-2.9,1.5-6.6,0.4-8.1-2.5
					c-0.5-0.9-0.7-1.9-0.7-2.9c-0.3-0.2-0.6-0.4-1-0.6c-2.6-2-3.1-5.8-1.1-8.4c1.5-2,2.4-4.3,2.4-6.7c0-0.8-0.1-1.8-0.3-2.8v-0.1
					L147,159.1l-10.2,49.1v0.1c-0.3,1.3-0.4,2.4-0.4,3.4c0.1,2.2,0.9,4.3,2.3,6c2.1,2.6,1.7,6.3-0.9,8.4c-0.5,0.4-1,0.7-1.5,0.9
					c0,0.8-0.2,1.6-0.6,2.4c-1.5,3-5.1,4.2-8,2.8c-3-1.5-6.4-1.4-9.4,0.1c-0.1,0.1-0.2,0.1-0.4,0.2c-0.1,0-0.1,0.1-0.2,0.1
					c-0.8,0.5-1.4,1-2,1.5c-0.1,0.1-0.2,0.2-0.3,0.2L78,267.6l47.6-15.7h0.1c1.1-0.3,1.9-0.7,2.5-1c2-1.2,3.6-3,4.5-5.1
					c1.3-3.1,4.8-4.5,7.9-3.2c3.1,1.3,4.5,4.8,3.2,7.9c-1.9,4.5-5.3,8.3-9.5,10.7c-1.4,0.8-3.1,1.5-5,2.1L54.5,288
					C53.9,288.2,53.2,288.3,52.6,288.3z"/>
			</g>
			<g>
				<path class="st0" d="M147,255.7c-12.6,0-22.9-10.3-22.9-22.9c0-12.6,10.3-22.9,22.9-22.9s22.9,10.3,22.9,22.9
					S159.6,255.7,147,255.7z M147,221.9c-6,0-10.9,4.9-10.9,10.9s4.9,10.9,10.9,10.9s10.9-4.9,10.9-10.9
					C157.9,226.8,153,221.9,147,221.9z"/>
			</g>
		</g>
		<g>
			<g>
				<path class="st0" d="M259,288.4c-2.1,0-4.1-1.1-5.2-3c-1.4-2.5-0.9-5.6,1.2-7.5l45.4-40.5c2.5-2.2,6.3-2,8.5,0.5s2,6.3-0.5,8.5
					l-23.9,21.3l47.6-15.7h0.1c1.1-0.3,1.9-0.7,2.5-1c2-1.2,3.6-3,4.5-5.1c1.3-3.1,4.8-4.5,7.9-3.2s4.5,4.8,3.2,7.9
					c-1.9,4.5-5.3,8.3-9.5,10.7c-1.4,0.8-3.1,1.5-5,2.1l-74.9,24.7C260.3,288.3,259.6,288.4,259,288.4z M448.1,288.4
					c-0.6,0-1.3-0.1-1.9-0.3l-75-24.7c-2.1-0.7-4.2-1.6-6-2.8c-4-2.6-7-6.3-8.7-10.6c-1.2-3.1,0.3-6.6,3.4-7.8s6.6,0.3,7.8,3.4
					c0.7,1.9,2.2,3.6,4,4.8c0.8,0.5,1.9,1,3.1,1.4l47.7,15.7l-37.4-33.3c0,0-0.1,0-0.1-0.1c-0.9-0.8-1.9-1.5-2.9-2.1
					c-3-1.5-6.6-1.5-9.6,0.1c-2.9,1.5-6.6,0.4-8.1-2.5c-0.5-0.9-0.7-1.9-0.7-2.9c-0.3-0.2-0.6-0.4-1-0.6c-2.6-2-3.1-5.8-1.1-8.4
					c1.5-2,2.4-4.3,2.4-6.7c0-0.8-0.1-1.8-0.3-2.7v-0.1l-10.2-49.1l-10.2,49.1c0,0.1,0,0.1,0,0.2c-0.3,1.3-0.4,2.4-0.4,3.4
					c0.1,2.2,0.9,4.3,2.3,6c2.1,2.6,1.7,6.3-0.9,8.4c-0.5,0.4-1,0.7-1.5,0.9c0,0.8-0.2,1.6-0.6,2.4c-1.5,3-5,4.2-8,2.8l-0.8-0.4
					c-4.3-2.1-4.7-2.1-6.2-1.3c-3,1.5-6.6,0.2-8-2.8c-1.5-3-0.2-6.6,2.8-8c3.9-1.9,7.2-2,10.2-1.3c-0.6-1.9-1-3.9-1.1-6
					c-0.1-2.2,0.1-4.4,0.6-6.7l16.1-77.2c0.6-2.8,3-4.8,5.9-4.8s5.3,2,5.9,4.8l16.1,77.2c0.4,1.9,0.6,3.7,0.6,5.4
					c0,2.8-0.5,5.6-1.5,8.2c4.5-0.6,9.1,0.2,13.2,2.3c0,0,0.1,0,0.1,0.1c1.9,1,3.7,2.3,5.4,3.8l58.9,52.5c2.1,1.9,2.6,5,1.2,7.5
					C452.2,287.3,450.2,288.4,448.1,288.4z"/>
			</g>
			<g>
				<path class="st0" d="M353.5,255.7c-12.6,0-22.9-10.3-22.9-22.9c0-12.6,10.3-22.9,22.9-22.9s22.9,10.3,22.9,22.9
					S366.1,255.7,353.5,255.7z M353.5,221.9c-6,0-10.9,4.9-10.9,10.9s4.9,10.9,10.9,10.9s10.9-4.9,10.9-10.9
					C364.4,226.8,359.5,221.9,353.5,221.9z"/>
			</g>
		</g>
		<g>
			<path class="st0" d="M271.3,416.1h-42.6c-1.6,0-3.2-0.7-4.3-1.9c-1.1-1.2-1.7-2.8-1.7-4.4l8.7-188.1c0.2-3.3,3-5.9,6.3-5.7
				s5.9,3,5.7,6.3L235,404.1h30l-8.4-181.8c-0.2-3.3,2.4-6.1,5.7-6.3c3.3-0.1,6.1,2.4,6.3,5.7l8.7,188.1c0.1,1.6-0.5,3.2-1.7,4.4
				C274.5,415.4,272.9,416.1,271.3,416.1z"/>
		</g>
		<g>
			<g>
				<path class="st0" d="M362,264.6c-0.6,0-1.3-0.1-1.9-0.3l-88.7-29.2c-2.4-0.6-4.7-1.7-7.1-3.2c-4.5-2.9-7.9-7-9.8-12
					c-1.2-3.1,0.3-6.6,3.4-7.8s6.6,0.3,7.8,3.4c1,2.6,2.8,4.8,5.2,6.4c1.4,0.9,2.5,1.4,3.7,1.7c0.1,0,0.3,0.1,0.4,0.1l61.5,20.3
					l-48.3-43.1c-0.1-0.1-0.3-0.3-0.4-0.4c-0.6-0.6-1.4-1.2-2.4-1.8c-0.3-0.1-0.6-0.3-1-0.5c-3.9-1.9-8.4-1.9-12.3,0.2
					c-2.9,1.5-6.6,0.4-8.1-2.5c-0.6-1.2-0.8-2.4-0.6-3.6c-0.7-0.2-1.3-0.6-1.8-1c-2.6-2.1-3-5.9-0.9-8.4c1.8-2.2,2.8-4.8,3-7.6v-0.9
					c0-1.2-0.1-2.3-0.4-3.4c0-0.1,0-0.2-0.1-0.2L250,107.4l-13.1,63.4c0,0.1,0,0.2-0.1,0.2c-0.3,1.1-0.4,2.3-0.4,3.4v0.9
					c0.3,2.9,1.3,5.6,3,7.7c2.1,2.6,1.7,6.4-0.9,8.4c-0.7,0.5-1.4,0.9-2.2,1.1c0.1,1-0.1,2.1-0.6,3.1c-1.4,3-5,4.2-8,2.8
					c-3.8-1.8-8.2-1.8-12.1,0c-0.4,0.2-0.7,0.4-0.9,0.4c-1,0.6-1.9,1.2-2.4,1.8c-0.1,0.1-0.3,0.3-0.4,0.4l-48.3,43.1l61.5-20.3
					c0.1,0,0.3-0.1,0.4-0.1c0.6-0.2,1.3-0.5,2.1-0.8c0.2-0.1,0.4-0.2,0.6-0.3c0.3-0.2,0.6-0.3,0.7-0.4c0.1-0.1,0.2-0.1,0.3-0.2
					c2.2-1.4,3.9-3.5,5-6c1.3-3.1,4.8-4.5,7.8-3.2c3.1,1.3,4.5,4.8,3.2,7.8c-2,4.8-5.3,8.8-9.5,11.5c-0.7,0.5-1.4,0.9-2,1.2
					c-0.2,0.1-0.3,0.2-0.5,0.3s-0.3,0.2-0.5,0.3c-1.2,0.5-2.6,1.2-4.2,1.6l-88.7,29.2c-2.7,0.9-5.7-0.2-7.1-2.7s-0.9-5.6,1.2-7.5
					l69.6-62.1c1.3-1.4,3-2.7,5-3.8c0.5-0.3,0.9-0.5,1.2-0.6c0.1-0.1,0.2-0.1,0.3-0.1c5.3-2.6,11.2-3.3,16.8-2.2
					c-1.4-2.9-2.3-6.2-2.5-9.6c0-0.1,0-0.3,0-0.4v-1.1c0-2.1,0.2-4.2,0.7-6.2l19-91.5c0.6-2.8,3-4.8,5.9-4.8l0,0
					c2.8,0,5.3,2,5.9,4.8l19.1,91.5c0.5,2.1,0.7,4.1,0.7,6.2v1.1c0,0.1,0,0.2,0,0.3c-0.2,3.4-1,6.7-2.5,9.7
					c5.7-1.2,11.7-0.4,16.9,2.3c0.1,0,0.1,0.1,0.2,0.1c0.3,0.1,0.7,0.3,1.2,0.6c2,1.1,3.7,2.4,5,3.8l69.6,62.1
					c2.1,1.9,2.6,5,1.2,7.5C366.1,263.5,364.1,264.6,362,264.6z M215,198.3c-0.1,0-0.1,0.1-0.2,0.1C214.9,198.4,215,198.3,215,198.3
					z M285,198.3L285,198.3L285,198.3z M285,198.3L285,198.3L285,198.3z M285,198.3L285,198.3L285,198.3z M290.6,187.8L290.6,187.8
					L290.6,187.8z M209.4,187.8L209.4,187.8L209.4,187.8z M290.6,187.8L290.6,187.8L290.6,187.8z M209.6,187.7
					c-0.1,0-0.1,0.1-0.2,0.1C209.4,187.8,209.5,187.7,209.6,187.7z M290.6,187.8L290.6,187.8L290.6,187.8z M290.6,187.8L290.6,187.8
					L290.6,187.8z M290.6,187.8L290.6,187.8L290.6,187.8z M290.6,187.8L290.6,187.8L290.6,187.8z"/>
			</g>
			<g>
				<path class="st0" d="M250,225.8c-14.3,0-26-11.7-26-26s11.7-26,26-26c14.3,0,26,11.7,26,26S264.3,225.8,250,225.8z M250,185.8
					c-7.7,0-14,6.3-14,14s6.3,14,14,14c7.7,0,14-6.3,14-14S257.7,185.8,250,185.8z"/>
			</g>
		</g>
		<g>
			<path class="st0" d="M410,422.6H89.8c-3.3,0-6-2.7-6-6s2.7-6,6-6H410c3.3,0,6,2.7,6,6S413.3,422.6,410,422.6z"/>
		</g>
	</g>
	<path class="st1" d="M0,500"/>
</g>
</svg>
