<?xml version="1.0" encoding="iso-8859-1"?>
<!-- Generator: Adobe Illustrator 29.6.1, SVG Export Plug-In . SVG Version: 9.03 Build 0)  -->
<svg version="1.1" id="Layer_1" xmlns="http://www.w3.org/2000/svg" xmlns:xlink="http://www.w3.org/1999/xlink" x="0px" y="0px"
	 viewBox="0 0 500 500" style="enable-background:new 0 0 500 500;" xml:space="preserve">
<defs>
	<filter id="Adobe_OpacityMaskFilter" filterUnits="userSpaceOnUse" x="154" y="214" width="262" height="217">
		<feColorMatrix  type="matrix" values="1 0 0 0 0  0 1 0 0 0  0 0 1 0 0  0 0 0 1 0"/>
	</filter>
</defs>
<mask maskUnits="userSpaceOnUse" x="154" y="214" width="262" height="217" id="WUI9zMEfEVa_00000137112806153855344790000013910363752514302386_">
	<path style="fill:#FFFFFF;filter:url(#Adobe_OpacityMaskFilter);" d="M130,245h51.667L215,280l33.333-35H320
		c11.046,0,20-8.954,20-20v-25h95v245H130V245z"/>
</mask>
<g style="mask:url(#WUI9zMEfEVa_00000137112806153855344790000013910363752514302386_);">
	<g>
		<path style="fill:#F9423A;" d="M285,431c-1.643,0-3.213-0.673-4.345-1.862L249.096,396H180c-14.336,0-26-11.663-26-26V240
			c0-14.336,11.664-26,26-26h210c14.337,0,26,11.664,26,26v130c0,14.337-11.663,26-26,26h-69.096l-31.56,33.138
			C288.213,430.327,286.643,431,285,431z M180,226c-7.72,0-14,6.28-14,14v130c0,7.72,6.28,14,14,14h71.667
			c1.642,0,3.212,0.673,4.345,1.862L285,416.3l28.988-30.438c1.133-1.189,2.703-1.862,4.345-1.862H390c7.72,0,14-6.28,14-14V240
			c0-7.72-6.28-14-14-14H180z"/>
	</g>
</g>
<g>
	<path style="fill:#F9423A;" d="M285.767,366c-1.592,0-3.118-0.632-4.243-1.758l-36.266-36.266
		c-5.98-5.981-9.268-13.933-9.257-22.389c0.011-8.443,3.311-16.371,9.292-22.323c5.858-5.874,13.996-9.251,22.312-9.251
		c0.023,0,0.047,0,0.07,0c6.455,0,12.809,2.04,18.077,5.715c6.267-4.422,13.917-6.411,21.702-5.526
		c7.229,0.812,13.741,3.958,18.821,9.098c5.867,5.853,9.245,14.003,9.235,22.333c0.01,8.316-3.368,16.467-9.266,22.35
		l-36.235,36.259C288.885,365.367,287.358,366,285.767,366z M267.618,286.014c-5.166,0-10.206,2.092-13.845,5.74
		c-3.722,3.704-5.767,8.616-5.773,13.849c-0.006,5.246,2.033,10.179,5.743,13.89l32.021,32.021l31.999-32.021
		c0.003-0.002,0.005-0.005,0.007-0.007c3.654-3.645,5.746-8.693,5.74-13.854c0.006-5.174-2.086-10.223-5.74-13.867
		c-3.159-3.196-7.183-5.136-11.663-5.639c-5.976-0.682-11.83,1.37-16.064,5.624c-1.127,1.132-2.67,1.779-4.266,1.779
		c-0.018,0-0.034,0-0.051,0c-1.614-0.015-3.167-0.665-4.286-1.829c-3.586-3.596-8.627-5.688-13.778-5.688
		C267.647,286.014,267.633,286.013,267.618,286.014z"/>
</g>
<g>
	<path style="fill:#F9423A;" d="M248.178,201H210c-0.647,0-1.29-0.104-1.903-0.31l-17.854-5.97l3.806-11.381L210.977,189h37.2
		c1.115,0,2.087-0.794,2.311-1.888l6.584-32.237c0.195-0.955-0.219-1.64-0.483-1.964s-0.853-0.867-1.827-0.867H235
		c-3.313,0-6-2.687-6-6v-13.303c0-5.597-3.937-10.292-9.186-11.462l-3.341,15.929c-2.092,9.98-11.012,17.224-21.209,17.224h-0.001
		h-3.117v-12h3.117c4.551,0,8.532-3.232,9.465-7.686l3.937-18.769c0.846-4.043,4.46-6.979,8.593-6.979
		C230.349,109,241,119.651,241,132.742v7.303h13.762c4.33,0,8.385,1.924,11.123,5.278c2.738,3.354,3.812,7.711,2.945,11.954
		l-6.585,32.239C260.884,196.17,254.968,200.999,248.178,201z"/>
</g>
<g>
	<path style="fill:#F9423A;" d="M192.145,198.612H160c-3.313,0-6-2.687-6-6v-47.761c0-3.313,2.687-6,6-6h32.145c3.313,0,6,2.687,6,6
		v47.761C198.145,195.925,195.458,198.612,192.145,198.612z M166,186.612h20.145v-35.761H166V186.612z"/>
</g>
<g>
	<path style="fill:#F9423A;" d="M215,286c-1.642,0-3.212-0.673-4.345-1.862L179.096,251H110c-14.336,0-26-11.664-26-26V95
		c0-14.336,11.664-26,26-26h210c14.337,0,26,11.664,26,26v130c0,14.336-11.663,26-26,26h-69.096l-31.56,33.138
		C218.212,285.327,216.642,286,215,286z M110,81c-7.72,0-14,6.28-14,14v130c0,7.72,6.28,14,14,14h71.667
		c1.642,0,3.212,0.673,4.345,1.862L215,271.3l28.988-30.438c1.132-1.189,2.703-1.862,4.345-1.862H320c7.72,0,14-6.28,14-14V95
		c0-7.72-6.28-14-14-14H110z"/>
</g>
</svg>
