<?xml version="1.0" encoding="iso-8859-1"?>
<!-- Generator: Adobe Illustrator 29.6.1, SVG Export Plug-In . SVG Version: 9.03 Build 0)  -->
<svg version="1.1" id="Layer_1" xmlns="http://www.w3.org/2000/svg" xmlns:xlink="http://www.w3.org/1999/xlink" x="0px" y="0px"
	 viewBox="0 0 500 500" style="enable-background:new 0 0 500 500;" xml:space="preserve">
<g>
	<g>
		<path style="fill:#F9423A;" d="M236.65,443.25c-15.882,0-32.066-3.236-46.802-9.359c-0.238-0.099-0.468-0.213-0.69-0.341
			c-5.154-2.071-10.493-3.43-15.88-4.038l-20.718-2.401c-8.745-1.074-15.309-8.449-15.309-17.16v-20.9
			c0-37.771,30.729-68.5,68.5-68.5h5.8c3.313,0,6,2.687,6,6s-2.687,6-6,6h-5.8c-31.154,0-56.5,25.346-56.5,56.5v20.9
			c0,2.659,2.034,4.914,4.731,5.245l20.66,2.395c6.693,0.756,13.329,2.478,19.703,5.116c0.246,0.102,0.484,0.22,0.713,0.353
			c13.127,5.36,27.494,8.191,41.593,8.191c14.626,0,28.884-2.871,42.378-8.532c6.123-2.516,12.511-4.167,19.026-4.928l21.915-2.501
			c2.647-0.279,4.681-2.578,4.681-5.239V389.15c0-31.154-25.346-56.5-56.5-56.5h-5.801c-3.313,0-6-2.687-6-6s2.687-6,6-6h5.801
			c37.771,0,68.5,30.729,68.5,68.5v20.899c0,8.865-6.608,16.245-15.372,17.167l-21.848,2.494
			c-5.413,0.632-10.734,2.009-15.802,4.089C268.699,440.064,252.879,443.25,236.65,443.25z M375.55,164.15h-92.4
			c-3.313,0-6-2.686-6-6v-47.7c0-29.61,24.135-53.7,53.8-53.7h44.6c29.61,0,53.7,24.09,53.7,53.7S405.16,164.15,375.55,164.15z
			 M289.15,152.15h86.399c22.993,0,41.7-18.707,41.7-41.7c0-22.994-18.707-41.7-41.7-41.7h-44.6c-23.049,0-41.8,18.707-41.8,41.7
			L289.15,152.15L289.15,152.15z"/>
	</g>
	<g>
		<path style="fill:#F9423A;" d="M236.85,357.95c-17.369,0-31.5-14.131-31.5-31.5v-14.2c0-3.313,2.687-6,6-6s6,2.687,6,6v14.2
			c0,10.752,8.748,19.5,19.5,19.5s19.5-8.748,19.5-19.5v-14.3c0-3.313,2.687-6,6-6s6,2.687,6,6v14.3
			C268.35,343.819,254.219,357.95,236.85,357.95z"/>
	</g>
	<g>
		<path style="fill:#F9423A;" d="M236.85,326.15c-13.241,0-25.8-5.071-35.362-14.278c-9.581-9.226-15.098-21.593-15.535-34.824
			l-1-29.897c-0.002-0.067-0.003-0.134-0.003-0.201v-0.2c0-3.313,2.687-6,6-6s6,2.687,6,6v0.1l0.997,29.8
			c0.333,10.094,4.547,19.532,11.865,26.578c7.315,7.044,16.917,10.923,27.039,10.923c7.921,0,15.566-2.369,22.109-6.851
			c10.183-7.028,16.274-18.205,16.695-30.652l1-27.317c0.122-3.311,2.902-5.877,6.216-5.776c3.312,0.122,5.897,2.904,5.776,6.216
			l-1,27.3c-0.55,16.269-8.528,30.897-21.889,40.119C257.191,323.056,247.202,326.15,236.85,326.15z"/>
	</g>
	<g>
		<path style="fill:#F9423A;" d="M282.651,255.55c-0.332,0-0.667-0.027-1.002-0.084c-2.242-0.38-4.078-1.994-4.739-4.171
			c-0.922-3.032-1.604-6.049-2.266-8.967c-2.344-10.359-4.574-20.212-17.595-31.284c-13.332,24.918-37.909,40.765-65.755,41.902
			c-1.627,0.057-3.221-0.535-4.4-1.667c-0.202-0.193-0.388-0.399-0.559-0.616l-0.014-0.016
			c-4.177-4.944-17.519-22.953-13.802-47.108c1.931-13.521,7.472-23.106,10.603-27.611c2.47-3.55,6.167-5.893,10.415-6.601
			c4.268-0.713,8.552,0.313,12.06,2.886l11.84,8.456c1.314,0.963,3.022,1.109,4.518,0.426c9.265-4.131,27.408-10.365,45.417-5.972
			c0.047,0.011,0.093,0.023,0.14,0.036c0.561,0.151,13.805,3.83,21.271,15.325c8.45,12.898,11.645,44.886-1.285,62.605
			C286.356,254.649,284.547,255.55,282.651,255.55z M197.05,246.95h0.01H197.05z M196.149,181.109c-0.212,0-0.426,0.018-0.639,0.053
			c-1.03,0.172-1.93,0.745-2.535,1.614c-2.522,3.63-6.995,11.387-8.585,22.522c-2.561,16.643,5.131,29.695,9.411,35.466
			c24.411-2.116,45.508-17.739,55.524-41.357c0.71-1.675,2.142-2.937,3.893-3.431c1.748-0.496,3.631-0.169,5.112,0.888
			c16.045,11.432,22.074,22.272,25.29,32.281c1.494-12.248-0.824-25.9-4.89-32.107c-4.73-7.284-13.531-10.052-14.314-10.286
			c-14.504-3.493-29.729,1.803-37.524,5.277c-5.397,2.467-11.735,1.847-16.491-1.642l-11.839-8.456
			C197.814,181.384,196.987,181.109,196.149,181.109z"/>
	</g>
	<g>
		<path style="fill:#F9423A;" d="M351.05,264.25c-1.535,0-3.071-0.586-4.242-1.758l-18.3-18.299c-0.569-0.569-1-1.224-1.293-1.923
			c-0.001-0.001-0.001-0.002-0.001-0.003c-0.001-0.001-0.002-0.003-0.002-0.004c-0.298-0.711-0.462-1.493-0.462-2.312
			s0.164-1.599,0.461-2.31c0.291-0.698,0.719-1.352,1.285-1.921l18.3-18.4c2.336-2.35,6.136-2.359,8.485-0.023
			c2.349,2.337,2.359,6.136,0.022,8.485l-8.124,8.169h48.07c3.313,0,6,2.686,6,6s-2.687,6-6,6h-48.015l8.057,8.058
			c2.344,2.343,2.344,6.142,0,8.484C354.121,263.664,352.585,264.25,351.05,264.25z M120.95,264.25
			c-1.536,0-3.071-0.586-4.243-1.758c-2.343-2.343-2.343-6.142,0-8.484l8.057-8.058H76.75c-3.314,0-6-2.686-6-6s2.686-6,6-6h48.071
			l-8.125-8.169c-2.336-2.35-2.326-6.148,0.023-8.485s6.148-2.327,8.485,0.023l18.3,18.4c0.566,0.569,0.994,1.223,1.285,1.921
			c0.297,0.711,0.461,1.491,0.461,2.31s-0.164,1.601-0.461,2.312c-0.001,0.001-0.001,0.003-0.002,0.004
			c0,0.001-0.001,0.002-0.001,0.003c-0.292,0.699-0.724,1.354-1.292,1.923l-18.3,18.299
			C124.021,263.664,122.486,264.25,120.95,264.25z M236.85,146.15L236.85,146.15L236.85,146.15c-0.006,0-0.012,0-0.018,0l0,0
			c-0.81-0.002-1.581-0.165-2.285-0.458c-0.696-0.289-1.35-0.715-1.918-1.278c-0.001-0.001-0.002-0.002-0.003-0.003
			c-0.003-0.003-0.006-0.006-0.009-0.009c-0.002-0.002-0.003-0.003-0.005-0.005c-0.001-0.001-0.003-0.002-0.004-0.004l-18.3-18.3
			c-2.343-2.343-2.343-6.142,0-8.485s6.142-2.343,8.485,0l8.058,8.058V77.65c0-3.313,2.687-6,6-6c3.314,0,6,2.687,6,6v48.015
			l8.058-8.058c2.343-2.343,6.143-2.342,8.485,0c2.343,2.343,2.343,6.142-0.001,8.485l-18.286,18.286
			c-0.045,0.045-0.092,0.091-0.138,0.135c-0.001,0.001-0.002,0.001-0.003,0.002c-0.002,0.002-0.005,0.005-0.007,0.007
			c-0.539,0.506-1.147,0.895-1.794,1.165c-0.001,0.001-0.003,0.002-0.006,0.002c-0.705,0.294-1.479,0.458-2.29,0.46l0,0
			C236.862,146.15,236.856,146.15,236.85,146.15z"/>
	</g>
	<g>
		<path style="fill:#F9423A;" d="M353.354,139.551c-0.068,0-0.141,0-0.209,0c-0.968,0-1.948-0.234-2.857-0.728
			c-10.707-5.812-26.704-21.86-27.624-35.674c-0.678-11.722,7.49-17.768,12.065-19.413c6.427-2.563,13.284-1.287,18.521,3.036
			c5.236-4.322,12.094-5.602,18.521-3.036c4.575,1.645,12.743,7.691,12.069,19.36c-0.795,13.779-16.84,29.872-27.628,35.727
			C355.303,139.316,354.321,139.551,353.354,139.551z M338.828,95.016c-1.137,0.456-4.484,2.245-4.188,7.388
			c0.442,6.642,9.396,18.056,18.605,24.196c9.14-6.124,18.238-17.692,18.613-24.196c0.297-5.144-3.051-6.933-4.188-7.389
			c-0.142-0.043-0.127-0.044-0.293-0.113c-3.943-1.612-7.223,1.137-8.854,4.008c-0.276,0.51-0.628,0.983-1.05,1.401
			c-0.513,0.508-1.106,0.913-1.748,1.203c-0.797,0.362-1.639,0.536-2.471,0.536c-0.004,0-0.008,0-0.012,0
			c-0.822,0-1.653-0.169-2.442-0.523c-0.666-0.297-1.28-0.715-1.808-1.246c-0.408-0.41-0.749-0.873-1.019-1.37
			c-1.632-2.872-4.912-5.619-8.854-4.008C338.955,94.972,338.97,94.973,338.828,95.016z"/>
	</g>
</g>
</svg>
