<?xml version="1.0" encoding="utf-8"?>
<!-- Generator: Adobe Illustrator 27.5.0, SVG Export Plug-In . SVG Version: 6.00 Build 0)  -->
<svg version="1.1" id="Layer_1" xmlns="http://www.w3.org/2000/svg" xmlns:xlink="http://www.w3.org/1999/xlink" x="0px" y="0px"
	 viewBox="0 0 500 500" style="enable-background:new 0 0 500 500;" xml:space="preserve">
<style type="text/css">
	.st0{fill:none;}
	.st1{fill:#F9423A;}
	.st2{fill:#F84239;}
	.st3{display:none;fill:none;stroke:#F84239;stroke-width:12.95;stroke-linecap:round;stroke-linejoin:round;}
	.st4{fill:none;stroke:#F84239;stroke-width:12.95;stroke-linecap:round;stroke-linejoin:round;}
	.st5{fill:none;stroke:#F9423A;stroke-width:12;stroke-linecap:round;stroke-linejoin:round;}
</style>
<g>
	<g>
		<path class="st0" d="M194.4,241.1c-4.7-3.3-9-7-13.1-11.1l-86.2-86.4 M408.6,143.6L322.4,230c-2.7,2.7-5.5,5.2-8.5,7.6"/>
	</g>
	<g>
		<path class="st1" d="M307.9,250.6c-1.5,0-3.1-0.6-4.2-1.8c-2.3-2.3-2.3-6.1,0-8.5l100.7-100.9c2.3-2.3,6.1-2.4,8.5,0
			c2.3,2.3,2.3,6.1,0,8.5L312.1,248.8C311,250,309.4,250.6,307.9,250.6z"/>
	</g>
	<g>
		<path class="st2" d="M196,250.8c-1.5,0-3.1-0.6-4.2-1.8l-101-101.2c-2.3-2.3-2.3-6.1,0-8.5c2.3-2.3,6.1-2.3,8.5,0l101,101.2
			c2.3,2.3,2.3,6.1,0,8.5C199.1,250.2,197.5,250.8,196,250.8z"/>
	</g>
	<g>
		<path class="st1" d="M406.3,332.7c-1.4,0-2.8-0.5-3.9-1.5l-78.7-68.5c-5.6-5-11.9-9.3-18.6-12.8c-2.9-1.5-4-5.2-2.5-8.1
			s5.2-4,8.1-2.5c7.5,4,14.5,8.8,20.9,14.4l78.7,68.5c2.5,2.2,2.8,6,0.6,8.5C409.6,332,408,332.7,406.3,332.7z M99.2,331.2
			c-1.7,0-3.3-0.7-4.5-2.1c-2.2-2.5-1.9-6.3,0.6-8.5l77.6-67.3c6.1-5.3,12.9-10,20.2-13.9c2.9-1.6,6.6-0.5,8.1,2.4
			c1.6,2.9,0.5,6.6-2.4,8.1c-6.5,3.5-12.6,7.7-18,12.5l-77.6,67.3C102,330.7,100.6,331.2,99.2,331.2z"/>
	</g>
	<g>
		<g>
			<g>
				<path class="st3" d="M0,500"/>
			</g>
		</g>
		<g>
			<g>
				<path class="st4" d="M0,500"/>
			</g>
		</g>
		<g>
			<g>
				<path class="st4" d="M0,500"/>
			</g>
		</g>
		<g>
			<g>
				<path class="st4" d="M0,500"/>
			</g>
		</g>
		<g>
			<g>
				<path class="st4" d="M0,500"/>
			</g>
		</g>
		<g>
			<g>
				<path class="st4" d="M0,500"/>
			</g>
		</g>
		<g>
			<g>
				<path class="st4" d="M0,500"/>
			</g>
		</g>
		<g>
			<g>
				<path class="st4" d="M0,500"/>
			</g>
		</g>
		<g>
			<g>
				<path class="st4" d="M0,500"/>
			</g>
		</g>
		<g>
			<g>
				<path class="st4" d="M0,500"/>
			</g>
		</g>
		<g>
			<g>
				<path class="st4" d="M0,500"/>
			</g>
		</g>
		<g>
			<g>
				<path class="st4" d="M0,500"/>
			</g>
		</g>
	</g>
	<g>
		<g>
			<g>
				<g>
					<path class="st1" d="M411.2,357.7H92.8c-3.3,0-6-2.7-6-6V140.9c0-3.3,2.7-6,6-6h318.4c3.3,0,6,2.7,6,6v210.8
						C417.2,355,414.5,357.7,411.2,357.7z M98.8,345.7h306.4V146.9H98.8V345.7z M251.9,291.4c-11.5,0-22.3-4.5-30.4-12.6L191.8,249
						c-2.3-2.3-2.3-6.1,0-8.5c2.3-2.3,6.1-2.3,8.5,0l29.7,29.7c5.9,5.9,13.7,9.1,21.9,9.1c0,0,0,0,0.1,0c8.2,0,16-3.2,21.8-9.1
						l29.9-30c2.3-2.3,6.1-2.4,8.5,0c2.3,2.3,2.4,6.1,0,8.5l-29.9,30C274.2,286.9,263.4,291.4,251.9,291.4L251.9,291.4z"/>
				</g>
			</g>
		</g>
		<g>
			<g>
				<g>
					<path class="st5" d="M0,500"/>
				</g>
			</g>
		</g>
	</g>
</g>
</svg>
