<?xml version="1.0" encoding="utf-8"?>
<!-- Generator: Adobe Illustrator 27.5.0, SVG Export Plug-In . SVG Version: 6.00 Build 0)  -->
<svg version="1.1" id="Layer_1" xmlns="http://www.w3.org/2000/svg" xmlns:xlink="http://www.w3.org/1999/xlink" x="0px" y="0px"
	 viewBox="0 0 500 500" style="enable-background:new 0 0 500 500;" xml:space="preserve">
<style type="text/css">
	.st0{fill:#F9423A;}
	.st1{fill:none;stroke:#F9423A;stroke-width:12;stroke-linecap:round;stroke-linejoin:round;}
</style>
<g>
	<g>
		<path class="st0" d="M193.2,218.3c-1.5,0-3.1-0.6-4.2-1.8c-1.5-1.5-2.9-2.9-4.2-4.2c-2.6-2.6-5-5-7.6-7.6l-86.3-86.5
			c-2.3-2.3-2.3-6.1,0-8.5c2.3-2.3,6.1-2.3,8.5,0l86.2,86.4c2.7,2.6,5.1,5.1,7.7,7.7c1.3,1.4,2.7,2.7,4.2,4.2c2.3,2.3,2.3,6.1,0,8.5
			C196.3,217.7,194.7,218.3,193.2,218.3z M313.9,214.9c-1.6,0-3.3-0.7-4.4-2c-2.2-2.5-2-6.2,0.4-8.5c2.1-1.9,3.9-3.7,5.6-5.5
			c0.9-0.9,1.8-1.9,2.7-2.8l86.2-86.4c2.3-2.3,6.1-2.4,8.5,0c2.3,2.3,2.4,6.1,0,8.5l-86.2,86.4c-0.9,0.9-1.7,1.7-2.6,2.6
			c-1.9,1.9-3.8,3.9-6.2,6.1C316.8,214.4,315.3,214.9,313.9,214.9z"/>
	</g>
	<g>
		<path class="st0" d="M251.8,261.8C251.8,261.8,251.9,261.8,251.8,261.8c-11.5,0-22.3-4.5-30.4-12.6l-130.6-131
			c-2.3-2.3-2.3-6.1,0-8.5c2.3-2.3,6.1-2.3,8.5,0L230,240.6c5.8,5.9,13.6,9.1,21.9,9.1s16.1-3.2,21.9-9.1l130.6-130.9
			c2.3-2.3,6.1-2.4,8.5,0c2.3,2.3,2.4,6.1,0,8.5L282.2,249.1C274.2,257.3,263.4,261.8,251.8,261.8z"/>
	</g>
	<g>
		<path class="st0" d="M411.1,328.1H305.3c-3.3,0-6-2.7-6-6s2.7-6,6-6h99.8V117.3H98.8v198.8h100.7c3.3,0,6,2.7,6,6s-2.7,6-6,6H92.8
			c-3.3,0-6-2.7-6-6V111.3c0-3.3,2.7-6,6-6h318.3c3.3,0,6,2.7,6,6v210.8C417.1,325.4,414.4,328.1,411.1,328.1z"/>
	</g>
	<g>
		<path class="st0" d="M411.2,307.2c-1.4,0-2.8-0.5-4-1.5l-95.3-84.5c-2.5-2.2-2.7-6-0.5-8.5s6-2.7,8.5-0.5l95.3,84.5
			c2.5,2.2,2.7,6,0.5,8.5C414.5,306.5,412.9,307.2,411.2,307.2z M95.1,305.3c-1.7,0-3.3-0.7-4.5-2c-2.2-2.5-2-6.3,0.5-8.5l94-83.2
			c2.5-2.2,6.3-2,8.5,0.5s2,6.3-0.5,8.5l-94,83.2C97.9,304.8,96.5,305.3,95.1,305.3z"/>
	</g>
	<g>
		<path class="st0" d="M251.9,420.4L251.9,420.4c-3.3,0-6-2.7-6-6l0.1-118.2l-19.6,19.6c-2.3,2.3-6.1,2.3-8.5,0
			c-2.3-2.3-2.3-6.1,0-8.5l30.1-30.1c2.3-2.3,6.1-2.3,8.5,0l30.1,30.1c2.3,2.3,2.3,6.1,0,8.5c-2.3,2.3-6.1,2.3-8.5,0l-20.1-20
			l-0.1,118.6C257.9,417.7,255.2,420.4,251.9,420.4z"/>
	</g>
	<g>
		<path class="st1" d="M0,500"/>
	</g>
</g>
</svg>
