<?xml version="1.0" encoding="utf-8"?>
<!-- Generator: Adobe Illustrator 27.5.0, SVG Export Plug-In . SVG Version: 6.00 Build 0)  -->
<svg version="1.1" id="Layer_1" xmlns="http://www.w3.org/2000/svg" xmlns:xlink="http://www.w3.org/1999/xlink" x="0px" y="0px"
	 viewBox="0 0 500 500" style="enable-background:new 0 0 500 500;" xml:space="preserve">
<style type="text/css">
	.st0{fill:none;}
	.st1{fill:#F9423A;}
	.st2{display:none;fill:none;stroke:#F9423A;stroke-width:3.5;stroke-linecap:round;stroke-linejoin:round;}
	.st3{fill:none;stroke:#F9423A;stroke-width:3.5;stroke-linecap:round;stroke-linejoin:round;}
	.st4{fill:none;stroke:#F9423A;stroke-width:12;stroke-linecap:round;stroke-linejoin:round;}
</style>
<g>
	<g>
		<g>
			<path class="st0" d="M194.4,241.1c-4.7-3.3-9-7-13.1-11.1l-86.2-86.4 M408.6,143.6L322.4,230c-2.7,2.7-5.5,5.2-8.5,7.6"/>
		</g>
		<g>
			<path class="st1" d="M251.8,291.4C251.8,291.4,251.9,291.4,251.8,291.4c-11.5,0-22.3-4.5-30.4-12.6l-130.6-131
				c-2.3-2.3-2.3-6.1,0-8.5c2.3-2.3,6.1-2.3,8.5,0L230,270.2c5.8,5.9,13.6,9.1,21.9,9.1s16.1-3.2,21.9-9.1l130.6-130.9
				c2.3-2.3,6.1-2.3,8.5,0c2.3,2.3,2.4,6.1,0,8.5L282.2,278.7C274.2,286.9,263.4,291.4,251.8,291.4z"/>
		</g>
		<g>
			<path class="st1" d="M306.1,357.7H92.8c-3.3,0-6-2.7-6-6V140.9c0-3.3,2.7-6,6-6h318.4c3.3,0,6,2.7,6,6v138.8
				c0,2.2-1.2,4.2-3.2,5.3c-1.9,1-4.3,0.9-6.1-0.3c-10.2-6.7-22.1-10.2-34.4-10.2c-34.7,0-62.9,28.2-62.9,62.9c0,4.5,0.5,8.9,1.4,13
				c0.4,1.8-0.1,3.6-1.2,5C309.6,356.9,307.9,357.7,306.1,357.7z M98.8,345.7h200.3c-0.3-2.7-0.5-5.5-0.5-8.3
				c0-41.3,33.6-74.9,74.9-74.9c11.1,0,21.9,2.4,31.7,7V146.9H98.8V345.7z"/>
		</g>
	</g>
	<g>
		<path class="st1" d="M93.2,337.3c-1.6,0-3.3-0.7-4.5-2c-2.2-2.5-2-6.3,0.5-8.5l99.8-89.5c2.5-2.2,6.3-2,8.5,0.5s2,6.3-0.5,8.5
			l-99.8,89.5C96.1,336.8,94.6,337.3,93.2,337.3z M352.2,278.4c-1.3,0-2.5-0.4-3.6-1.2L314,251.1c-2.6-2-3.2-5.8-1.2-8.4
			c2-2.6,5.8-3.2,8.4-1.2l34.6,26.1c2.6,2,3.2,5.8,1.2,8.4C355.8,277.6,354,278.4,352.2,278.4z"/>
	</g>
	<g>
		<path class="st1" d="M373.5,412.3c-35.2,0-66-25-73.3-59.4c-1.1-5-1.6-10.2-1.6-15.5c0-41.3,33.6-74.9,74.9-74.9
			c14.6,0,28.8,4.2,41,12.2c21.2,13.9,33.9,37.3,33.9,62.7C448.4,378.7,414.8,412.3,373.5,412.3z M373.5,274.5
			c-34.7,0-62.9,28.2-62.9,62.9c0,4.5,0.5,8.9,1.4,13c6.1,28.9,32,49.9,61.5,49.9c34.7,0,62.9-28.2,62.9-62.9
			c0-21.3-10.6-41-28.5-52.7C397.7,278,385.8,274.5,373.5,274.5z"/>
	</g>
	<g>
		<path class="st1" d="M359.2,373.7c-1.6,0-3.1-0.6-4.2-1.8l-21.1-21.1c-2.3-2.3-2.3-6.1,0-8.5c2.3-2.3,6.1-2.3,8.5,0l16.9,16.9
			l45.8-45.8c2.3-2.3,6.1-2.3,8.5,0c2.3,2.3,2.3,6.1,0,8.5l-50,50.1C362.3,373.1,360.8,373.7,359.2,373.7L359.2,373.7z"/>
	</g>
	<g>
		<g>
			<path class="st2" d="M0,500"/>
		</g>
		<g>
			<path class="st3" d="M0,500"/>
		</g>
		<g>
			<path class="st3" d="M0,500"/>
		</g>
		<g>
			<path class="st3" d="M0,500"/>
		</g>
		<g>
			<path class="st3" d="M0,500"/>
		</g>
		<g>
			<path class="st3" d="M0,500"/>
		</g>
		<g>
			<path class="st3" d="M0,500"/>
		</g>
		<g>
			<path class="st3" d="M0,500"/>
		</g>
		<g>
			<path class="st3" d="M0,500"/>
		</g>
		<g>
			<path class="st3" d="M0,500"/>
		</g>
		<g>
			<path class="st3" d="M0,500"/>
		</g>
		<g>
			<path class="st3" d="M0,500"/>
		</g>
	</g>
	<g>
		<path class="st4" d="M0,500"/>
	</g>
</g>
</svg>
