<?xml version="1.0" encoding="utf-8"?>
<!-- Generator: Adobe Illustrator 27.5.0, SVG Export Plug-In . SVG Version: 6.00 Build 0)  -->
<svg version="1.1" id="Layer_1" xmlns="http://www.w3.org/2000/svg" xmlns:xlink="http://www.w3.org/1999/xlink" x="0px" y="0px"
	 viewBox="0 0 500 500" style="enable-background:new 0 0 500 500;" xml:space="preserve">
<style type="text/css">
	.st0{fill:#F9423A;}
	.st1{display:none;fill:none;stroke:#F9423A;stroke-width:12;stroke-linecap:round;stroke-linejoin:round;}
	.st2{fill:none;stroke:#F9423A;stroke-width:12;stroke-linecap:round;stroke-linejoin:round;}
</style>
<g>
	<g>
		<g>
			<path class="st0" d="M314.1,214.6c-3.3,0-6-2.7-6-6v-40.1c0-28.8-23.4-52.2-52.2-52.2h-12c-28.8,0-52.2,23.4-52.2,52.2v40.1
				c0,3.3-2.7,6-6,6s-6-2.7-6-6v-40.1c0-35.4,28.8-64.2,64.2-64.2h12c35.4,0,64.2,28.8,64.2,64.2v40.1
				C320.1,211.9,317.4,214.6,314.1,214.6z"/>
		</g>
		<g>
			<g>
				<path class="st0" d="M343.6,395.7H156.2c-10.3,0-18.6-8.3-18.6-18.6V221.3c0-10.3,8.3-18.6,18.6-18.6h187.4
					c10.3,0,18.6,8.3,18.6,18.6v155.8C362.2,387.4,353.9,395.7,343.6,395.7z M156.2,214.7c-3.6,0-6.6,3-6.6,6.6v155.8
					c0,3.6,3,6.6,6.6,6.6h187.4c3.6,0,6.6-3,6.6-6.6V221.3c0-3.6-3-6.6-6.6-6.6H156.2z"/>
			</g>
			<g>
				<path class="st0" d="M249.9,362.7c-3.3,0-6-2.7-6-6v-13.6c-9.7-1.9-18.6-7.2-24.8-15.1c-2.1-2.6-1.6-6.4,1-8.4
					c2.6-2.1,6.4-1.6,8.4,1c5.1,6.5,12.8,10.5,20.9,11.2c0.5,0,1.1,0,1.6,0.1c1.4,0,2.8,0,4.2-0.2c2.9-0.4,7-1.4,10.3-4.1
					c2.7-2.3,4.3-5.3,4.4-8.1c0.2-8.7-6.1-11.3-20.5-15.3c-12.5-3.5-29.7-8.2-27.6-27.3c0.9-9.3,8-17.8,17.8-21
					c1.4-0.5,2.8-0.8,4.3-1.1v-13.2c0-3.3,2.7-6,6-6c3.3,0,6,2.7,6,6V255c9.9,1.9,19.2,8.2,24.7,17.6c1.7,2.9,0.7,6.5-2.2,8.2
					c-2.9,1.7-6.5,0.7-8.2-2.2c-4.2-7.3-12.2-11.9-20-12.2c-0.3,0-0.7,0-1,0c-2,0-4,0.3-5.9,0.9c-5.2,1.7-9.2,6.1-9.6,10.8
					c-0.8,7.8,3.8,10.3,18.9,14.5c12.6,3.5,29.8,8.2,29.3,27.2c-0.1,6.3-3.3,12.5-8.6,17c-4.4,3.7-10.1,6.1-16.6,6.9
					c-0.3,0-0.6,0.1-0.8,0.1v13C255.9,360,253.2,362.7,249.9,362.7z M356.4,331.4h-26.2c-3.3,0-6-2.7-6-6s2.7-6,6-6h26.2
					c3.3,0,6,2.7,6,6S359.7,331.4,356.4,331.4z M169.9,331.4h-26.2c-3.3,0-6-2.7-6-6s2.7-6,6-6h26.2c3.3,0,6,2.7,6,6
					S173.2,331.4,169.9,331.4z M356.4,278.7h-26.2c-3.3,0-6-2.7-6-6s2.7-6,6-6h26.2c3.3,0,6,2.7,6,6S359.7,278.7,356.4,278.7z
					 M169.9,278.7h-26.2c-3.3,0-6-2.7-6-6s2.7-6,6-6h26.2c3.3,0,6,2.7,6,6S173.2,278.7,169.9,278.7z"/>
			</g>
		</g>
	</g>
	<g>
		<g>
			<g>
				<path class="st1" d="M0,500"/>
			</g>
		</g>
		<g>
			<g>
				<path class="st2" d="M0,500"/>
			</g>
		</g>
		<g>
			<g>
				<path class="st2" d="M0,500"/>
			</g>
		</g>
		<g>
			<g>
				<path class="st2" d="M0,500"/>
			</g>
		</g>
		<g>
			<g>
				<path class="st2" d="M0,500"/>
			</g>
		</g>
		<g>
			<g>
				<path class="st2" d="M0,500"/>
			</g>
		</g>
		<g>
			<g>
				<path class="st2" d="M0,500"/>
			</g>
		</g>
		<g>
			<g>
				<path class="st2" d="M0,500"/>
			</g>
		</g>
		<g>
			<g>
				<path class="st2" d="M0,500"/>
			</g>
		</g>
		<g>
			<g>
				<path class="st2" d="M0,500"/>
			</g>
		</g>
		<g>
			<g>
				<path class="st2" d="M0,500"/>
			</g>
		</g>
		<g>
			<g>
				<path class="st2" d="M0,500"/>
			</g>
		</g>
	</g>
	<g>
		<path class="st2" d="M0,500"/>
	</g>
</g>
</svg>
