<?xml version="1.0" encoding="iso-8859-1"?>
<!-- Generator: Adobe Illustrator 29.6.1, SVG Export Plug-In . SVG Version: 9.03 Build 0)  -->
<svg version="1.1" id="Layer_1" xmlns="http://www.w3.org/2000/svg" xmlns:xlink="http://www.w3.org/1999/xlink" x="0px" y="0px"
	 viewBox="0 0 500 500" style="enable-background:new 0 0 500 500;" xml:space="preserve">
<g>
	<g>
		<path style="fill:#F9423A;" d="M122.526,426c-13.321,0-24.158-10.837-24.158-24.158V316.63h-0.264
			c-13.321,0-24.158-10.837-24.158-24.157c0-13.319,10.837-24.156,24.158-24.156h91.212c3.313,0,6,2.687,6,6s-2.687,6-6,6H98.104
			c-6.704,0-12.158,5.453-12.158,12.156S91.4,304.63,98.104,304.63h91.106c3.313,0,6,2.687,6,6s-2.687,6-6,6h-42.527v36.633h127.473
			c3.313,0,6,2.687,6,6s-2.687,6-6,6H146.683v24.315h127.473c3.313,0,6,2.687,6,6s-2.687,6-6,6H146.683v0.264
			C146.683,415.163,135.846,426,122.526,426z M110.368,395.578v6.264c0,6.704,5.454,12.158,12.158,12.158
			c6.704,0,12.157-5.454,12.157-12.158V316.63h-24.315V395.578z M401.918,401.578c-0.01,0-0.02,0-0.029,0h-91.311
			c-3.313,0-6-2.687-6-6s2.687-6,6-6h91.317c0.005,0,0.01,0,0.016,0c3.25,0,6.298-1.262,8.592-3.555
			c2.289-2.289,3.551-5.345,3.551-8.604c0-6.703-5.454-12.157-12.158-12.157h-91.424c-3.313,0-6-2.687-6-6s2.687-6,6-6h91.424
			c13.321,0,24.158,10.837,24.158,24.157c0,6.465-2.51,12.535-7.067,17.091C414.426,399.069,408.365,401.578,401.918,401.578z
			 M395.419,316.631c-3.313,0-6-2.687-6-6v-36.314c0-3.313,2.687-6,6-6s6,2.687,6,6v36.314
			C401.419,313.944,398.733,316.631,395.419,316.631z M359.105,316.631H225.524c-3.313,0-6-2.687-6-6s2.687-6,6-6h133.581
			c3.313,0,6,2.687,6,6S362.418,316.631,359.105,316.631z M359.105,280.316H225.524c-3.313,0-6-2.687-6-6s2.687-6,6-6h133.581
			c3.313,0,6,2.687,6,6S362.418,280.316,359.105,280.316z M359.104,146.843h-133.58c-3.313,0-6-2.686-6-6c0-3.313,2.687-6,6-6
			h133.58c3.313,0,6,2.687,6,6C365.104,144.157,362.417,146.843,359.104,146.843z M189.21,146.843H98.104
			c-13.321,0-24.158-10.836-24.158-24.157s10.837-24.158,24.158-24.158h91.106c3.313,0,6,2.687,6,6c0,3.314-2.687,6-6,6H98.104
			c-6.704,0-12.158,5.454-12.158,12.158c0,6.703,5.454,12.157,12.158,12.157h91.106c3.313,0,6,2.687,6,6
			C195.21,144.157,192.524,146.843,189.21,146.843z M359.104,110.528h-133.58c-3.313,0-6-2.686-6-6c0-3.313,2.687-6,6-6h133.58
			c3.313,0,6,2.687,6,6C365.104,107.842,362.417,110.528,359.104,110.528z"/>
	</g>
	<g>
		<path style="fill:#F9423A;" d="M395.419,365.263c-3.313,0-6-2.687-6-6V225.684c0-3.313,2.687-6,6-6s6,2.687,6,6v133.579
			C401.419,362.576,398.733,365.263,395.419,365.263z M359.105,365.263c-3.313,0-6-2.687-6-6V225.684c0-3.313,2.687-6,6-6
			s6,2.687,6,6v133.579C365.105,362.576,362.418,365.263,359.105,365.263z M225.525,365.263c-3.313,0-6-2.687-6-6V225.684
			c0-3.313,2.687-6,6-6c3.314,0,6,2.687,6,6v133.579C231.525,362.576,228.839,365.263,225.525,365.263z M189.21,365.263
			c-3.314,0-6-2.687-6-6V225.684c0-3.313,2.686-6,6-6s6,2.687,6,6v133.579C195.21,362.576,192.524,365.263,189.21,365.263z
			 M395.419,195.369c-3.313,0-6-2.687-6-6V98.157c0.005-3.256-1.257-6.31-3.553-8.607c-2.288-2.289-5.345-3.55-8.604-3.55h-0.154
			c-6.635,0.028-12.031,5.471-12.003,12.132v91.237c0,3.313-2.687,6-6,6s-6-2.687-6-6V98.157
			c-0.056-13.252,10.7-24.101,23.978-24.157h0.18c6.466,0,12.536,2.51,17.092,7.067c4.565,4.569,7.074,10.641,7.065,17.099v91.204
			C401.419,192.683,398.733,195.369,395.419,195.369z M225.525,195.369c-3.313,0-6-2.687-6-6V98.157
			c0.004-3.256-1.257-6.31-3.553-8.607c-2.29-2.289-5.346-3.55-8.605-3.55c-6.704,0-12.157,5.454-12.157,12.157v91.212
			c0,3.313-2.686,6-6,6s-6-2.687-6-6V98.157c0-13.32,10.837-24.157,24.157-24.157c6.464,0,12.534,2.51,17.091,7.066
			c4.566,4.569,7.076,10.641,7.066,17.099v91.204C231.525,192.683,228.839,195.369,225.525,195.369z"/>
	</g>
	<g>
		<path style="fill:#F9423A;" d="M292.316,426c-13.321,0-24.158-10.837-24.158-24.158v-91.211c0-3.313,2.687-6,6-6s6,2.687,6,6
			v91.211c0,6.704,5.454,12.158,12.158,12.158c6.703,0,12.156-5.454,12.156-12.158v-91.211c0-3.313,2.687-6,6-6s6,2.687,6,6v91.211
			C316.472,415.163,305.635,426,292.316,426z M310.472,280.316c-3.313,0-6-2.687-6-6V140.843c0-3.313,2.687-6,6-6s6,2.687,6,6
			v42.526h85.424c13.321,0,24.158,10.837,24.158,24.157c0,6.465-2.51,12.535-7.067,17.092c-4.561,4.558-10.62,7.066-17.064,7.066
			c-0.012,0-0.023,0-0.035,0h-85.415v42.632C316.472,277.63,313.785,280.316,310.472,280.316z M316.472,219.684h85.424
			c0.006,0,0.012,0,0.018,0c3.25,0,6.297-1.261,8.59-3.553c2.289-2.289,3.551-5.346,3.551-8.605c0-6.703-5.454-12.157-12.158-12.157
			h-85.424v24.315H316.472z M274.157,280.316c-3.313,0-6-2.687-6-6v-42.632H146.683v42.632c0,3.313-2.686,6-6,6
			c-3.313,0-6-2.687-6-6V140.843c0-3.313,2.687-6,6-6c3.314,0,6,2.687,6,6v42.526h121.474v-42.526c0-3.313,2.687-6,6-6s6,2.687,6,6
			v133.474C280.157,277.63,277.471,280.316,274.157,280.316z M146.683,219.684h121.474v-24.315H146.683V219.684z M104.368,280.316
			c-3.313,0-6-2.687-6-6V140.843c0-3.313,2.687-6,6-6c3.314,0,6,2.687,6,6v133.474C110.368,277.63,107.682,280.316,104.368,280.316z
			"/>
	</g>
</g>
</svg>
