<?xml version="1.0" encoding="utf-8"?>
<!-- Generator: Adobe Illustrator 27.5.0, SVG Export Plug-In . SVG Version: 6.00 Build 0)  -->
<svg version="1.1" id="Layer_1" xmlns="http://www.w3.org/2000/svg" xmlns:xlink="http://www.w3.org/1999/xlink" x="0px" y="0px"
	 viewBox="0 0 500 500" style="enable-background:new 0 0 500 500;" xml:space="preserve">
<style type="text/css">
	.st0{fill:#F9423A;}
	.st1{display:none;fill:none;stroke:#F84239;stroke-width:12;stroke-linecap:round;stroke-linejoin:round;}
	.st2{fill:none;stroke:#F84239;stroke-width:12;stroke-linecap:round;stroke-linejoin:round;}
</style>
<g>
	<g>
		<g>
			<path class="st0" d="M162.1,415.9c-3.3,0-6-2.7-6-6v-80.7h-28.2v80.7c0,3.3-2.7,6-6,6s-6-2.7-6-6v-86.7c0-3.3,2.7-6,6-6h40.2
				c3.3,0,6,2.7,6,6v86.7C168.1,413.2,165.4,415.9,162.1,415.9z M306,127.6c-11.7,0-21.3-9.6-21.3-21.3c0-5.2-4.1-9.3-9.3-9.3
				c-5.2,0-9.3,4.1-9.3,9.3c0,11.7-9.6,21.3-21.3,21.3c-11.7,0-21.3-9.6-21.3-21.3c0-5.2-4-9.3-9.2-9.3c-5.2,0-9.3,4.1-9.3,9.3
				c0,11.7-9.6,21.3-21.3,21.3c-11.7,0-21.3-9.6-21.3-21.3c0-5.2-4-9.3-9.2-9.3c-5.2,0-9.3,4.1-9.3,9.3v0.6c0,3.3-2.7,6-6,6
				s-6-2.7-6-6v-0.6c0-11.7,9.6-21.3,21.3-21.3c11.7,0,21.2,9.6,21.2,21.3c0,5.2,4.1,9.3,9.3,9.3c5.2,0,9.3-4.1,9.3-9.3
				c0-11.7,9.6-21.3,21.3-21.3c11.7,0,21.2,9.6,21.2,21.3c0,5.2,4.1,9.3,9.3,9.3s9.3-4.1,9.3-9.3c0-11.7,9.6-21.3,21.3-21.3
				s21.3,9.6,21.3,21.3c0,5.2,4.1,9.3,9.3,9.3c5.1,0,9.3-4.2,9.3-9.3v-0.8c0-3.3,2.7-6,6-6s6,2.7,6,6v0.8
				C327.3,118,317.7,127.6,306,127.6z"/>
		</g>
		<g>
			<path class="st0" d="M405,415.9H93.6c-3.3,0-6-2.7-6-6V298.8c0-0.3,0-0.6,0.1-0.9l22.4-155.8c0.4-3,3-5.1,5.9-5.1h44.5
				c3.1,0,5.8,2.4,6,5.6l10.2,142.6l68.5-68.5c1.7-1.7,4.3-2.2,6.5-1.3c2.2,0.9,3.7,3.1,3.7,5.5v63.3l67.6-67.6
				c1.7-1.7,4.3-2.2,6.5-1.3c2.2,0.9,3.7,3.1,3.7,5.5v63.3l67.6-67.6c1.7-1.7,4.3-2.2,6.5-1.3c2.2,0.9,3.7,3.1,3.7,5.5v189
				C411,413.2,408.3,415.9,405,415.9z M99.6,403.9H399V235.4l-67.6,67.6c-1.7,1.7-4.3,2.2-6.5,1.3c-2.2-0.9-3.7-3.1-3.7-5.5v-63.3
				l-67.6,67.6c-1.7,1.7-4.3,2.2-6.5,1.3c-2.2-0.9-3.7-3.1-3.7-5.5v-63.3l-67.6,67.6c-1.7,1.7-4.1,2.2-6.3,1.4
				c-2.2-0.8-3.7-2.9-3.9-5.2L154.9,149h-33.7L99.6,299.2V403.9z"/>
		</g>
		<g>
			<path class="st0" d="M375.4,365h-80.1c-3.3,0-6-2.7-6-6v-31.5c0-3.3,2.7-6,6-6h80.1c3.3,0,6,2.7,6,6V359
				C381.4,362.3,378.7,365,375.4,365z M301.3,353h68.1v-19.5h-68.1V353z M268.6,365h-80.1c-3.3,0-6-2.7-6-6v-31.5c0-3.3,2.7-6,6-6
				h80.1c3.3,0,6,2.7,6,6V359C274.6,362.3,271.9,365,268.6,365z M194.5,353h68.1v-19.5h-68.1V353z"/>
		</g>
	</g>
	<g>
		<g>
			<g>
				<path class="st1" d="M0,500"/>
			</g>
		</g>
		<g>
			<g>
				<path class="st2" d="M0,500"/>
			</g>
		</g>
		<g>
			<g>
				<path class="st2" d="M0,500"/>
			</g>
		</g>
		<g>
			<g>
				<path class="st2" d="M0,500"/>
			</g>
		</g>
		<g>
			<g>
				<path class="st2" d="M0,500"/>
			</g>
		</g>
		<g>
			<g>
				<path class="st2" d="M0,500"/>
			</g>
		</g>
		<g>
			<g>
				<path class="st2" d="M0,500"/>
			</g>
		</g>
		<g>
			<g>
				<path class="st2" d="M0,500"/>
			</g>
		</g>
		<g>
			<g>
				<path class="st2" d="M0,500"/>
			</g>
		</g>
		<g>
			<g>
				<path class="st2" d="M0,500"/>
			</g>
		</g>
		<g>
			<g>
				<path class="st2" d="M0,500"/>
			</g>
		</g>
		<g>
			<g>
				<path class="st2" d="M0,500"/>
			</g>
		</g>
	</g>
</g>
</svg>
