<?xml version="1.0" encoding="iso-8859-1"?>
<!-- Generator: Adobe Illustrator 29.6.1, SVG Export Plug-In . SVG Version: 9.03 Build 0)  -->
<svg version="1.1" id="Layer_1" xmlns="http://www.w3.org/2000/svg" xmlns:xlink="http://www.w3.org/1999/xlink" x="0px" y="0px"
	 viewBox="0 0 500 500" style="enable-background:new 0 0 500 500;" xml:space="preserve">
<g>
	<g>
		<path style="fill:#F9423A;" d="M174.955,405.861c-3.313,0-6-2.687-6-6V274.545c0-3.313,2.687-6,6-6s6,2.687,6,6V399.86
			C180.955,403.174,178.268,405.861,174.955,405.861z"/>
	</g>
	<g>
		<path style="fill:#F9423A;" d="M302.455,303.032c-15.108,0-30.218-3.816-45.221-11.448c-26.767-13.617-52.791-13.617-79.559,0
			c-1.861,0.946-4.078,0.857-5.857-0.232c-1.779-1.092-2.863-3.028-2.863-5.115v-111.38c0-2.258,1.267-4.324,3.279-5.348
			c30.007-15.265,60.435-15.265,90.441,0l0,0c26.768,13.617,52.791,13.617,79.559,0c2.33-1.186,5.155-0.728,6.991,1.133
			c1.835,1.859,2.256,4.692,1.041,7.005l-31.037,59.091l30.721,46.176c0.949,1.426,1.243,3.189,0.809,4.846
			c-0.435,1.657-1.557,3.049-3.083,3.825C332.673,299.215,317.563,303.032,302.455,303.032z M217.455,269.439
			c15.109,0,30.217,3.816,45.221,11.449c24.723,12.576,48.809,13.537,73.434,2.884l-28.842-43.351
			c-1.216-1.827-1.337-4.171-0.316-6.114l24.946-47.495c-24.857,8.188-49.904,5.985-74.663-6.609l0,0
			c-25.672-13.059-50.664-13.595-76.279-1.602v98.285C193.085,271.921,205.269,269.439,217.455,269.439z"/>
	</g>
	<g>
		<path style="fill:#F9423A;" d="M249.955,423.455c-44.427,0-88.854-16.911-122.677-50.733c-67.644-67.643-67.644-177.708,0-245.353
			c32.771-32.772,76.344-50.823,122.676-50.823c0.003,0-0.002,0,0,0c46.334,0,89.903,18.049,122.676,50.823
			c32.775,32.773,50.824,76.341,50.824,122.676c0,46.334-18.05,89.903-50.824,122.676
			C338.809,406.543,294.382,423.455,249.955,423.455z M249.954,88.545c-43.13,0-83.684,16.801-114.191,47.309
			c-62.965,62.966-62.965,165.418,0,228.383s165.416,62.965,228.383,0c30.508-30.508,47.309-71.062,47.309-114.192
			s-16.801-83.684-47.309-114.191S293.084,88.545,249.954,88.545z"/>
	</g>
</g>
</svg>
