<?xml version="1.0" encoding="utf-8"?>
<!-- Generator: Adobe Illustrator 27.5.0, SVG Export Plug-In . SVG Version: 6.00 Build 0)  -->
<svg version="1.1" id="Layer_1" xmlns="http://www.w3.org/2000/svg" xmlns:xlink="http://www.w3.org/1999/xlink" x="0px" y="0px"
	 viewBox="0 0 500 500" style="enable-background:new 0 0 500 500;" xml:space="preserve">
<style type="text/css">
	.st0{clip-path:url(#SVGID_00000137122799620791674980000010904705024958309821_);}
	.st1{fill:#F9423A;}
	.st2{display:none;fill:none;stroke:#F9423A;stroke-width:12;stroke-linecap:round;stroke-linejoin:round;}
	.st3{fill:none;stroke:#F9423A;stroke-width:12;stroke-linecap:round;stroke-linejoin:round;}
</style>
<g>
	<g>
		<g>
			<defs>
				<rect id="SVGID_1_" width="500" height="500"/>
			</defs>
			<clipPath id="SVGID_00000102517123939499009270000008999602718406722187_">
				<use xlink:href="#SVGID_1_"  style="overflow:visible;"/>
			</clipPath>
			<g style="clip-path:url(#SVGID_00000102517123939499009270000008999602718406722187_);">
				<g>
					<g>
						<path class="st1" d="M395.5,376.2L395.5,376.2c-20-0.1-292.3-0.5-295-0.5c-3.3,0-6-2.7-6-6L94,129.3c0-1.6,0.6-3.1,1.8-4.3
							c1.1-1.1,2.7-1.8,4.2-1.8l0,0l79.7,0.1c1.8,0,3.5,0.8,4.7,2.3l22.2,27.8l189.5,0.3c3.3,0,6,2.7,6,6c0,0.2,0,17.7,0.1,42.3
							c0,3.3-2.7,6-6,6l0,0c-3.3,0-6-2.7-6-6c-0.1-16.1-0.1-29.2-0.1-36.3l-186.4-0.3c-1.8,0-3.5-0.8-4.7-2.3l-22.2-27.8l-70.8-0.1
							l0.5,228.4c40.3,0.1,270.7,0.4,289,0.5c3.3,0,6,2.7,6,6C401.5,373.5,398.8,376.2,395.5,376.2z"/>
					</g>
					<g>
						<path class="st1" d="M396.2,376.3c-3.3,0-6-2.7-6-6v-161h-284v160c0,3.3-2.7,6-6,6s-6-2.7-6-6v-166c0-3.3,2.7-6,6-6h296
							c3.3,0,6,2.7,6,6v167C402.2,373.6,399.5,376.3,396.2,376.3z"/>
					</g>
				</g>
				<g>
					<g>
						<path class="st2" d="M0,500"/>
					</g>
					<g>
						<path class="st3" d="M0,500"/>
					</g>
					<g>
						<path class="st3" d="M0,500"/>
					</g>
					<g>
						<path class="st3" d="M0,500"/>
					</g>
					<g>
						<path class="st3" d="M0,500"/>
					</g>
					<g>
						<path class="st3" d="M0,500"/>
					</g>
					<g>
						<path class="st3" d="M0,500"/>
					</g>
					<g>
						<path class="st3" d="M0,500"/>
					</g>
					<g>
						<path class="st3" d="M0,500"/>
					</g>
					<g>
						<path class="st3" d="M0,500"/>
					</g>
					<g>
						<path class="st3" d="M0,500"/>
					</g>
					<g>
						<path class="st3" d="M0,500"/>
					</g>
				</g>
			</g>
		</g>
	</g>
</g>
</svg>
