<?xml version="1.0" encoding="utf-8"?>
<!-- Generator: Adobe Illustrator 27.5.0, SVG Export Plug-In . SVG Version: 6.00 Build 0)  -->
<svg version="1.1" id="Layer_1" xmlns="http://www.w3.org/2000/svg" xmlns:xlink="http://www.w3.org/1999/xlink" x="0px" y="0px"
	 viewBox="0 0 500 500" style="enable-background:new 0 0 500 500;" xml:space="preserve">
<style type="text/css">
	.st0{clip-path:url(#SVGID_00000160889018804562901080000005022899580282222238_);}
	.st1{fill:#F9423A;}
	.st2{display:none;fill:none;stroke:#F9423A;stroke-width:12.95;stroke-linecap:round;stroke-linejoin:round;}
	.st3{fill:none;stroke:#F9423A;stroke-width:12.95;stroke-linecap:round;stroke-linejoin:round;}
</style>
<g>
	<g>
		<defs>
			<rect id="SVGID_1_" width="500" height="500"/>
		</defs>
		<clipPath id="SVGID_00000171677916566530908670000016845230503427920052_">
			<use xlink:href="#SVGID_1_"  style="overflow:visible;"/>
		</clipPath>
		<g style="clip-path:url(#SVGID_00000171677916566530908670000016845230503427920052_);">
			<g>
				<g>
					<path class="st1" d="M254.7,348.3c-0.6,0-1.3-0.1-1.9-0.3c-3.4-1-5.3-4.7-4.3-8.1l22.5-73.4l-32.9,31.1
						c-2.6,2.5-6.7,2.3-9.2-0.3c-2.5-2.6-2.3-6.7,0.3-9.2l50.5-47.7c1.6-1.7,4.2-2.5,6.6-1.7c2.5,0.8,4.1,2.8,4.5,5.2l21.5,45.2
						c1.5,3.2,0.2,7.1-3.1,8.6c-3.2,1.5-7.1,0.2-8.6-3.1l-15-31.5l-24.7,80.6C260,346.5,257.5,348.3,254.7,348.3z"/>
				</g>
				<g>
					<path class="st1" d="M362.3,376.8C362.3,376.8,362.3,376.8,362.3,376.8l-295-0.5c-3.6,0-6.5-2.9-6.5-6.5l-0.5-240.4
						c0-1.7,0.7-3.4,1.9-4.6c1.2-1.2,2.9-1.9,4.6-1.9c0,0,0,0,0,0l79.7,0.1c2,0,3.8,0.9,5.1,2.4l22.1,27.7l189.3,0.3
						c3.6,0,6.5,2.9,6.5,6.5c0,0.2,0,22.9,0.1,52.9c0,3.6-2.9,6.5-6.5,6.5c0,0,0,0,0,0c-3.6,0-6.5-2.9-6.5-6.5
						c-0.1-20.5-0.1-37.6-0.1-46.5l-185.9-0.3c-2,0-3.8-0.9-5.1-2.4L143.4,136l-70.1-0.1l0.5,227.5l288.5,0.5c3.6,0,6.5,2.9,6.5,6.5
						C368.8,373.9,365.9,376.8,362.3,376.8z"/>
				</g>
				<g>
					<path class="st1" d="M362.8,376.9c-0.9,0-1.7-0.2-2.6-0.5c-3.3-1.4-4.8-5.2-3.3-8.5l63.5-145.5H138.5L72.7,372.1
						c-1.4,3.3-5.3,4.8-8.5,3.3c-3.3-1.4-4.8-5.3-3.3-8.5l67.5-153.7c1-2.4,3.4-3.9,5.9-3.9h296c2.2,0,4.2,1.1,5.4,2.9
						c1.2,1.8,1.4,4.1,0.5,6.1L368.7,373C367.7,375.4,365.3,376.9,362.8,376.9z"/>
				</g>
			</g>
			<g>
				<g>
					<g>
						<path class="st2" d="M0,500"/>
					</g>
				</g>
				<g>
					<g>
						<path class="st3" d="M0,500"/>
					</g>
				</g>
				<g>
					<g>
						<path class="st3" d="M0,500"/>
					</g>
				</g>
				<g>
					<g>
						<path class="st3" d="M0,500"/>
					</g>
				</g>
				<g>
					<g>
						<path class="st3" d="M0,500"/>
					</g>
				</g>
				<g>
					<g>
						<path class="st3" d="M0,500"/>
					</g>
				</g>
				<g>
					<g>
						<path class="st3" d="M0,500"/>
					</g>
				</g>
				<g>
					<g>
						<path class="st3" d="M0,500"/>
					</g>
				</g>
				<g>
					<g>
						<path class="st3" d="M0,500"/>
					</g>
				</g>
				<g>
					<g>
						<path class="st3" d="M0,500"/>
					</g>
				</g>
				<g>
					<g>
						<path class="st3" d="M0,500"/>
					</g>
				</g>
				<g>
					<g>
						<path class="st3" d="M0,500"/>
					</g>
				</g>
			</g>
		</g>
	</g>
</g>
</svg>
