<?xml version="1.0" encoding="utf-8"?>
<!-- Generator: Adobe Illustrator 27.5.0, SVG Export Plug-In . SVG Version: 6.00 Build 0)  -->
<svg version="1.1" id="Layer_1" xmlns="http://www.w3.org/2000/svg" xmlns:xlink="http://www.w3.org/1999/xlink" x="0px" y="0px"
	 viewBox="0 0 500 500" style="enable-background:new 0 0 500 500;" xml:space="preserve">
<style type="text/css">
	.st0{fill:#FFFFFF;}
	.st1{fill:#F9423A;}
	.st2{display:none;fill:none;stroke:#F9423A;stroke-width:12;stroke-linecap:round;stroke-linejoin:round;}
	.st3{fill:none;stroke:#F9423A;stroke-width:12;stroke-linecap:round;stroke-linejoin:round;}
</style>
<g>
	<g>
		<g>
			<path class="st0" d="M280.5,327.3h-68.2v-48.1h7.6V268c0-12.4,11-22.5,24.5-22.5h3.7c13.5,0,24.5,10,24.5,22.3v11.4h7.9V327.3z
				 M224.3,315.3h44.2v-24.1h-44.2V315.3z M231.9,279.2h28.7v-11.4c0-5.7-5.6-10.3-12.5-10.3h-3.7c-6.9,0-12.5,4.7-12.5,10.5
				L231.9,279.2L231.9,279.2z"/>
		</g>
		<g>
			<path class="st1" d="M280.5,327.3h-68.2v-48.1h68.2V327.3z M224.3,315.3h44.2v-24.1h-44.2V315.3z"/>
		</g>
		<g>
			<path class="st1" d="M274.5,285.2v36.1h-56.2v-36.1H274.5z"/>
		</g>
		<g>
			<path class="st1" d="M225.9,290.5c-3.3,0-6-2.7-6-6V268c0-12.4,11-22.5,24.5-22.5h3.7c13.5,0,24.5,10,24.5,22.3v16.3
				c0,3.3-2.7,6-6,6s-6-2.7-6-6v-16.3c0-5.7-5.6-10.3-12.5-10.3h-3.7c-6.9,0-12.5,4.7-12.5,10.5v16.5
				C231.9,287.8,229.2,290.5,225.9,290.5z"/>
		</g>
		<g>
			<path class="st1" d="M395.5,376.2L395.5,376.2c-20-0.1-292.3-0.5-295-0.5c-3.3,0-6-2.7-6-6L94,129.3c0-1.6,0.6-3.1,1.8-4.3
				c1.1-1.1,2.7-1.8,4.2-1.8l0,0l79.7,0.1c1.8,0,3.5,0.8,4.7,2.3l22.2,27.8l189.5,0.3c3.3,0,6,2.7,6,6c0,0.2,0,17.7,0.1,42.3
				c0,3.3-2.7,6-6,6l0,0c-3.3,0-6-2.7-6-6c-0.1-16.1-0.1-29.2-0.1-36.3l-186.4-0.3c-1.8,0-3.5-0.8-4.7-2.3l-22.2-27.8l-70.8-0.1
				l0.5,228.4c40.3,0.1,270.7,0.4,289,0.5c3.3,0,6,2.7,6,6C401.5,373.5,398.8,376.2,395.5,376.2z"/>
		</g>
		<g>
			<path class="st1" d="M396.2,376.3c-3.3,0-6-2.7-6-6v-161h-284v160c0,3.3-2.7,6-6,6s-6-2.7-6-6v-166c0-3.3,2.7-6,6-6h296
				c3.3,0,6,2.7,6,6v167C402.2,373.6,399.5,376.3,396.2,376.3z"/>
		</g>
	</g>
	<g>
		<g>
			<path class="st2" d="M0,500"/>
		</g>
		<g>
			<path class="st3" d="M0,500"/>
		</g>
		<g>
			<path class="st3" d="M0,500"/>
		</g>
		<g>
			<path class="st3" d="M0,500"/>
		</g>
		<g>
			<path class="st3" d="M0,500"/>
		</g>
		<g>
			<path class="st3" d="M0,500"/>
		</g>
		<g>
			<path class="st3" d="M0,500"/>
		</g>
		<g>
			<path class="st3" d="M0,500"/>
		</g>
		<g>
			<path class="st3" d="M0,500"/>
		</g>
		<g>
			<path class="st3" d="M0,500"/>
		</g>
		<g>
			<path class="st3" d="M0,500"/>
		</g>
		<g>
			<path class="st3" d="M0,500"/>
		</g>
	</g>
</g>
</svg>
