<?xml version="1.0" encoding="utf-8"?>
<!-- Generator: Adobe Illustrator 27.5.0, SVG Export Plug-In . SVG Version: 6.00 Build 0)  -->
<svg version="1.1" id="Layer_1" xmlns="http://www.w3.org/2000/svg" xmlns:xlink="http://www.w3.org/1999/xlink" x="0px" y="0px"
	 viewBox="0 0 500 500" style="enable-background:new 0 0 500 500;" xml:space="preserve">
<style type="text/css">
	.st0{clip-path:url(#SVGID_00000179636326810172040930000010001582456161395588_);}
	.st1{fill:#F9423A;}
	.st2{display:none;fill:none;stroke:#F9423A;stroke-width:12.95;stroke-linecap:round;stroke-linejoin:round;}
	.st3{fill:none;stroke:#F9423A;stroke-width:12.95;stroke-linecap:round;stroke-linejoin:round;}
</style>
<g>
	<g>
		<g>
			<defs>
				<rect id="SVGID_1_" width="500" height="500"/>
			</defs>
			<clipPath id="SVGID_00000098912315766443565130000010680892430790812579_">
				<use xlink:href="#SVGID_1_"  style="overflow:visible;"/>
			</clipPath>
			<g style="clip-path:url(#SVGID_00000098912315766443565130000010680892430790812579_);">
				<g>
					<g>
						<path class="st1" d="M301.8,300.8c0,9.5-7.7,17.2-17.3,17.2c-0.9,0-1.8-0.1-2.6-0.2l1.3,7.9h-74.4l-0.4-7.5
							c-0.7,0.1-1.3,0.1-2,0.1c-8.1,0-14.8-6.6-14.8-14.8s6.7-14.8,14.8-14.8c3.2,0,6.1,1,8.6,2.7c-0.2-1.4-0.3-2.9-0.3-4.4
							c0-16.7,13.5-30.2,30.2-30.2c16.4,0,29.8,13.1,30.2,29.4c2.7-1.8,6-2.8,9.5-2.8l0,0C294,283.5,301.8,291.3,301.8,300.8z"/>
					</g>
					<g>
						<path class="st1" d="M206.4,324.9c-11.7,0-21.3-9.5-21.3-21.3s9.5-21.3,21.3-21.3c11.7,0,21.3,9.5,21.3,21.3
							S218.1,324.9,206.4,324.9z M206.4,295.3c-4.6,0-8.3,3.7-8.3,8.3c0,4.6,3.7,8.3,8.3,8.3s8.3-3.7,8.3-8.3S211,295.3,206.4,295.3
							z M284.5,324.6c-13.1,0-23.8-10.7-23.8-23.8s10.7-23.8,23.8-23.8s23.8,10.7,23.8,23.8S297.6,324.6,284.5,324.6z M284.5,290
							c-6,0-10.8,4.9-10.8,10.8c0,6.1,4.8,10.8,10.8,10.8s10.8-4.8,10.8-10.8S290.5,290,284.5,290z"/>
					</g>
					<g>
						<path class="st1" d="M244.9,323.8c-20.2,0-36.7-16.5-36.7-36.7s16.5-36.7,36.7-36.7s36.7,16.5,36.7,36.7
							S265.1,323.8,244.9,323.8z M244.9,263.4c-13.1,0-23.7,10.6-23.7,23.7s10.6,23.7,23.7,23.7c13.1,0,23.7-10.6,23.7-23.7
							S258,263.4,244.9,263.4z"/>
					</g>
					<g>
						<path class="st1" d="M395.5,376.2L395.5,376.2c-20-0.1-292.3-0.5-295-0.5c-3.3,0-6-2.7-6-6L94,129.3c0-1.6,0.6-3.1,1.8-4.3
							c1.1-1.1,2.7-1.8,4.2-1.8l0,0l79.7,0.1c1.8,0,3.5,0.8,4.7,2.3l22.2,27.8l189.5,0.3c3.3,0,6,2.7,6,6c0,0.2,0,17.8,0.1,42.3
							c0,3.3-2.7,6-6,6l0,0c-3.3,0-6-2.7-6-6c-0.1-16.1-0.1-29.2-0.1-36.3l-186.4-0.3c-1.8,0-3.5-0.8-4.7-2.3l-22.2-27.8l-70.8-0.1
							l0.5,228.4c40.3,0.1,270.7,0.4,289,0.5c3.3,0,6,2.7,6,6C401.5,373.5,398.8,376.2,395.5,376.2z"/>
					</g>
					<g>
						<path class="st1" d="M396.2,376.3c-3.3,0-6-2.7-6-6v-161h-284v160c0,3.3-2.7,6-6,6s-6-2.7-6-6v-166c0-3.3,2.7-6,6-6h296
							c3.3,0,6,2.7,6,6v167C402.2,373.6,399.5,376.3,396.2,376.3z"/>
					</g>
				</g>
				<g>
					<g>
						<path class="st2" d="M0,500"/>
					</g>
					<g>
						<path class="st3" d="M0,500"/>
					</g>
					<g>
						<path class="st3" d="M0,500"/>
					</g>
					<g>
						<path class="st3" d="M0,500"/>
					</g>
					<g>
						<path class="st3" d="M0,500"/>
					</g>
					<g>
						<path class="st3" d="M0,500"/>
					</g>
					<g>
						<path class="st3" d="M0,500"/>
					</g>
					<g>
						<path class="st3" d="M0,500"/>
					</g>
					<g>
						<path class="st3" d="M0,500"/>
					</g>
					<g>
						<path class="st3" d="M0,500"/>
					</g>
					<g>
						<path class="st3" d="M0,500"/>
					</g>
					<g>
						<path class="st3" d="M0,500"/>
					</g>
				</g>
			</g>
		</g>
	</g>
</g>
</svg>
