<?xml version="1.0" encoding="utf-8"?>
<!-- Generator: Adobe Illustrator 27.5.0, SVG Export Plug-In . SVG Version: 6.00 Build 0)  -->
<svg version="1.1" id="Layer_1" xmlns="http://www.w3.org/2000/svg" xmlns:xlink="http://www.w3.org/1999/xlink" x="0px" y="0px"
	 viewBox="0 0 500 500" style="enable-background:new 0 0 500 500;" xml:space="preserve">
<style type="text/css">
	.st0{clip-path:url(#SVGID_00000137834945337678969550000015042090461722970298_);}
	.st1{display:none;fill:none;}
	.st2{fill:none;}
	.st3{fill:#F9423A;}
	.st4{fill:none;stroke:#F9423A;stroke-width:12;stroke-linecap:round;stroke-linejoin:round;}
</style>
<g>
	<g>
		<g>
			<defs>
				<rect id="SVGID_1_" width="500" height="500"/>
			</defs>
			<clipPath id="SVGID_00000095340184799833453070000011553171593197493413_">
				<use xlink:href="#SVGID_1_"  style="overflow:visible;"/>
			</clipPath>
			<g style="clip-path:url(#SVGID_00000095340184799833453070000011553171593197493413_);">
				<g>
					<g>
						<g>
							<path class="st1" d="M0,500"/>
						</g>
					</g>
					<g>
						<g>
							<path class="st2" d="M0,500"/>
						</g>
					</g>
				</g>
				<g>
					<g>
						<path class="st3" d="M286.9,323.7c-3.3,0-6-2.7-6-6v-10.8c0-0.3-0.2-0.5-0.5-0.5h-60.9c-0.3,0-0.5,0.2-0.5,0.5v10.8
							c0,3.3-2.7,6-6,6s-6-2.7-6-6v-10.8c0-6.9,5.6-12.5,12.5-12.5h24.3v-8.9c0-3.3,2.7-6,6-6s6,2.7,6,6v8.9h24.6
							c6.9,0,12.5,5.6,12.5,12.5v10.8C292.9,321,290.2,323.7,286.9,323.7z"/>
					</g>
				</g>
				<g>
					<g>
						<g>
							<path class="st3" d="M210.7,442.1H103.9c-3.3,0-6-2.7-6-6v-49.2h-8.5c-3.3,0-6-2.7-6-6v-32.5c0-3.3,2.7-6,6-6h44.5
								c3.3,0,6,2.7,6,6s-2.7,6-6,6H95.4v20.5h123.8v-20.5h-38.5c-3.3,0-6-2.7-6-6s2.7-6,6-6h44.5c3.3,0,6,2.7,6,6v32.5
								c0,3.3-2.7,6-6,6h-8.5v49.2C216.7,439.4,214,442.1,210.7,442.1z M178.2,430.1h26.5v-43.2h-94.8v43.2h26.4V411
								c0-3.3,2.7-6,6-6h29.9c3.3,0,6,2.7,6,6L178.2,430.1L178.2,430.1z M148.3,430.1h17.9V417h-17.9V430.1z"/>
						</g>
					</g>
					<g>
						<g>
							<path class="st3" d="M157.3,368.1c-16.6,0-29.6-9.5-29.6-21.7s13-21.7,29.6-21.7s29.6,9.5,29.6,21.7S173.9,368.1,157.3,368.1
								z M157.3,336.7c-10.1,0-17.6,5.1-17.6,9.7s7.5,9.7,17.6,9.7s17.6-5.1,17.6-9.7C174.9,341.8,167.4,336.7,157.3,336.7z"/>
						</g>
					</g>
				</g>
				<g>
					<g>
						<g>
							<path class="st3" d="M396.1,442.1H289.3c-3.3,0-6-2.7-6-6v-49.2h-8.5c-3.3,0-6-2.7-6-6v-32.5c0-3.3,2.7-6,6-6h44.5
								c3.3,0,6,2.7,6,6s-2.7,6-6,6h-38.5v20.5h123.8v-20.5h-38.5c-3.3,0-6-2.7-6-6s2.7-6,6-6h44.5c3.3,0,6,2.7,6,6v32.5
								c0,3.3-2.7,6-6,6h-8.5v49.2C402.1,439.4,399.4,442.1,396.1,442.1z M363.7,430.1h26.4v-43.2h-94.8v43.2h26.5V411
								c0-3.3,2.7-6,6-6h29.9c3.3,0,6,2.7,6,6L363.7,430.1L363.7,430.1z M333.8,430.1h17.9V417h-17.9V430.1z"/>
						</g>
					</g>
					<g>
						<g>
							<path class="st3" d="M342.7,368.1c-16.6,0-29.6-9.5-29.6-21.7c0-12,13-21.6,29.6-21.7c16.6,0,29.6,9.5,29.6,21.7
								S359.3,368.1,342.7,368.1z M342.7,336.7c-10.1,0.1-17.6,5.2-17.6,9.7c0,4.6,7.5,9.7,17.6,9.7s17.6-5.1,17.6-9.7
								C360.3,341.8,352.8,336.7,342.7,336.7z"/>
						</g>
					</g>
				</g>
				<g>
					<g>
						<g>
							<path class="st3" d="M313.2,270H187.7c-3.3,0-6-2.7-6-6V64c0-3.3,2.7-6,6-6h125.5c3.3,0,6,2.7,6,6v200
								C319.2,267.3,316.5,270,313.2,270z M193.7,258h113.5V70H193.7V258z"/>
						</g>
					</g>
					<g>
						<g>
							<path class="st3" d="M360,270h-46.8c-3.3,0-6-2.7-6-6s2.7-6,6-6H354V106.7h-40.8c-3.3,0-6-2.7-6-6s2.7-6,6-6H360
								c3.3,0,6,2.7,6,6V264C366,267.3,363.3,270,360,270z M274.6,270c-3.3,0-6-2.7-6-6v-34h-37.2v34c0,3.3-2.7,6-6,6s-6-2.7-6-6
								v-40c0-3.3,2.7-6,6-6h49.2c3.3,0,6,2.7,6,6v40C280.6,267.3,277.9,270,274.6,270z M187.4,270h-46.8c-3.3,0-6-2.7-6-6V100.7
								c0-3.3,2.7-6,6-6h46.8c3.3,0,6,2.7,6,6s-2.7,6-6,6h-40.8V258h40.8c3.3,0,6,2.7,6,6S190.7,270,187.4,270z M336.6,205
								c-3.3,0-6-2.7-6-6v-13.4c0-3.3,2.7-6,6-6s6,2.7,6,6V199C342.6,202.3,339.9,205,336.6,205z M277.1,205c-3.3,0-6-2.7-6-6v-13.4
								c0-3.3,2.7-6,6-6s6,2.7,6,6V199C283.1,202.3,280.4,205,277.1,205z M250.4,205c-3.3,0-6-2.7-6-6v-13.4c0-3.3,2.7-6,6-6
								s6,2.7,6,6V199C256.4,202.3,253.7,205,250.4,205z M223.7,205c-3.3,0-6-2.7-6-6v-13.4c0-3.3,2.7-6,6-6s6,2.7,6,6V199
								C229.7,202.3,227,205,223.7,205z M164,205c-3.3,0-6-2.7-6-6v-13.4c0-3.3,2.7-6,6-6s6,2.7,6,6V199
								C170,202.3,167.3,205,164,205z M336.6,168.2c-3.3,0-6-2.7-6-6v-13.3c0-3.3,2.7-6,6-6s6,2.7,6,6v13.3
								C342.6,165.5,339.9,168.2,336.6,168.2z M276.7,168.2c-3.3,0-6-2.7-6-6v-13.3c0-3.3,2.7-6,6-6s6,2.7,6,6v13.3
								C282.7,165.5,280,168.2,276.7,168.2z M250,168.2c-3.3,0-6-2.7-6-6v-13.3c0-3.3,2.7-6,6-6s6,2.7,6,6v13.3
								C256,165.5,253.3,168.2,250,168.2z M223.3,168.2c-3.3,0-6-2.7-6-6v-13.3c0-3.3,2.7-6,6-6s6,2.7,6,6v13.3
								C229.3,165.5,226.6,168.2,223.3,168.2z M164,168.2c-3.3,0-6-2.7-6-6v-13.3c0-3.3,2.7-6,6-6s6,2.7,6,6v13.3
								C170,165.5,167.3,168.2,164,168.2z M250,129.6c-17.6,0-31.3-10-31.3-22.8S232.4,84,250,84s31.3,10,31.3,22.8
								S267.6,129.6,250,129.6z M250,96c-11.4,0-19.3,5.7-19.3,10.8c0,5.1,7.9,10.8,19.3,10.8c11.4,0,19.3-5.7,19.3-10.8
								S261.4,96,250,96z"/>
						</g>
					</g>
				</g>
				<g>
					<g>
						<path class="st4" d="M0,500"/>
					</g>
				</g>
			</g>
		</g>
	</g>
</g>
</svg>
