<?xml version="1.0" encoding="utf-8"?>
<!-- Generator: Adobe Illustrator 27.5.0, SVG Export Plug-In . SVG Version: 6.00 Build 0)  -->
<svg version="1.1" id="Layer_1" xmlns="http://www.w3.org/2000/svg" xmlns:xlink="http://www.w3.org/1999/xlink" x="0px" y="0px"
	 viewBox="0 0 500 500" style="enable-background:new 0 0 500 500;" xml:space="preserve">
<style type="text/css">
	.st0{clip-path:url(#SVGID_00000016758102135254608380000005241041157783798703_);}
	.st1{filter:url(#Adobe_OpacityMaskFilter);}
	.st2{clip-path:url(#SVGID_00000060718886836840387920000012022552231753313443_);}
	.st3{clip-path:url(#SVGID_00000117667303658218189930000013764043439817999518_);}
	.st4{clip-path:url(#SVGID_00000003069987134163994410000005444226774041969798_);fill:#FFFFFF;fill-opacity:0;}
	
		.st5{clip-path:url(#SVGID_00000060718886836840387920000012022552231753313443_);mask:url(#e_00000124840170877985977520000009522273466624165560_);}
	.st6{fill:none;}
	.st7{fill:#F9423A;}
</style>
<g>
	<g>
		<g>
			<defs>
				<rect id="SVGID_1_" width="500" height="500"/>
			</defs>
			<clipPath id="SVGID_00000176019247978809867550000012511125731388620937_">
				<use xlink:href="#SVGID_1_"  style="overflow:visible;"/>
			</clipPath>
			<g style="clip-path:url(#SVGID_00000176019247978809867550000012511125731388620937_);">
				<g>
					<g>
						<g>
							<defs>
								<rect id="SVGID_00000110441100700688540570000013314088993593772699_" width="500" height="500"/>
							</defs>
							<clipPath id="SVGID_00000018944813319681804520000001435705992864386692_">
								<use xlink:href="#SVGID_00000110441100700688540570000013314088993593772699_"  style="overflow:visible;"/>
							</clipPath>
							<defs>
								<filter id="Adobe_OpacityMaskFilter" filterUnits="userSpaceOnUse" x="0" y="-134.6" width="257" height="634.6">
									<feColorMatrix  type="matrix" values="1 0 0 0 0  0 1 0 0 0  0 0 1 0 0  0 0 0 1 0"/>
								</filter>
							</defs>
							
								<mask maskUnits="userSpaceOnUse" x="0" y="-134.6" width="257" height="634.6" id="e_00000124840170877985977520000009522273466624165560_">
								<g class="st1">
									<g>
										<g>
											<g>
												<defs>
													<rect id="SVGID_00000073714538240056995180000008899966500423039880_" width="500" height="500"/>
												</defs>
												
													<clipPath id="SVGID_00000104690569194851920670000014366832411359437239_" style="clip-path:url(#SVGID_00000018944813319681804520000001435705992864386692_);">
													<use xlink:href="#SVGID_00000073714538240056995180000008899966500423039880_"  style="overflow:visible;"/>
												</clipPath>
											</g>
											<g>
												<defs>
													<rect id="SVGID_00000096757095569218626500000000888410415162167455_" width="500" height="500"/>
												</defs>
												<defs>
													<rect id="SVGID_00000178897220255618715330000018378210171175242662_" width="500" height="500"/>
												</defs>
												
													<clipPath id="SVGID_00000005944901621377554030000013755770190930513033_" style="clip-path:url(#SVGID_00000018944813319681804520000001435705992864386692_);">
													<use xlink:href="#SVGID_00000096757095569218626500000000888410415162167455_"  style="overflow:visible;"/>
												</clipPath>
												
													<clipPath id="SVGID_00000085237392288348188160000017237220705803294093_" style="clip-path:url(#SVGID_00000005944901621377554030000013755770190930513033_);">
													<use xlink:href="#SVGID_00000178897220255618715330000018378210171175242662_"  style="overflow:visible;"/>
												</clipPath>
												
													<rect style="clip-path:url(#SVGID_00000085237392288348188160000017237220705803294093_);fill:#FFFFFF;fill-opacity:0;" width="500" height="500"/>
											</g>
										</g>
									</g>
								</g>
							</mask>
							
								<g style="clip-path:url(#SVGID_00000018944813319681804520000001435705992864386692_);mask:url(#e_00000124840170877985977520000009522273466624165560_);">
								<g>
									<path class="st6" d="M0,500"/>
								</g>
								<g>
									<path class="st6" d="M0,500"/>
								</g>
								<g>
									<path class="st6" d="M0,500"/>
								</g>
								<g>
									<path class="st6" d="M0,500"/>
								</g>
								<g>
									<path class="st6" d="M0,500"/>
								</g>
								<g>
									<path class="st6" d="M0,500"/>
								</g>
								<g>
									<path class="st6" d="M0,500"/>
								</g>
								<g>
									<path class="st6" d="M0,500"/>
								</g>
								<g>
									<path class="st6" d="M0,500"/>
								</g>
								<g>
									<path class="st7" d="M211-42.6c-1.5,0-3.1-0.6-4.2-1.8l-40-40c-2.3-2.3-2.3-6.1,0-8.5l40-40c2.3-2.3,6.1-2.3,8.5,0l40,40
										c2.3,2.3,2.3,6.1,0,8.5l-40,40C214.1-43.2,212.5-42.6,211-42.6z M179.5-88.6L211-57.1l31.5-31.5L211-120.1L179.5-88.6z"/>
								</g>
							</g>
						</g>
					</g>
				</g>
				<g>
					<path class="st7" d="M225.4,415c-0.8,0-1.6-0.1-2.3-0.5c-2.2-0.9-3.7-3.1-3.7-5.5V250.9L125.7,144c-1.5-1.1-2.5-2.9-2.5-4.9
						V89.9c0-3.3,2.7-6,6-6h241.7c1.6,0,3.1,0.6,4.2,1.8c1.1,1.1,1.8,2.7,1.8,4.3l-0.1,49.1c0,2.5-1.6,4.7-3.8,5.6l-92.5,106.2V360
						c0,1.6-0.6,3.1-1.8,4.2l-49.1,49.2C228.5,414.4,227,415,225.4,415z M142.7,145l87.3,99.6c1,1.1,1.5,2.5,1.5,4v145.9l37.1-37.2
						V248.5c0-1.4,0.5-2.8,1.5-3.9l86.7-99.6H142.7z M135.2,133h229.6l0.1-37.1H135.2V133z"/>
				</g>
			</g>
		</g>
	</g>
</g>
</svg>
