<?xml version="1.0" encoding="iso-8859-1"?>
<!-- Generator: Adobe Illustrator 29.6.1, SVG Export Plug-In . SVG Version: 9.03 Build 0)  -->
<svg version="1.1" id="Layer_1" xmlns="http://www.w3.org/2000/svg" xmlns:xlink="http://www.w3.org/1999/xlink" x="0px" y="0px"
	 viewBox="0 0 500 500" style="enable-background:new 0 0 500 500;" xml:space="preserve">
<g>
	<g>
		<path style="fill:#F9423A;" d="M276,316h-50c-14.336,0-26-11.663-26-26v-50c0-3.313,2.687-6,6-6h4v-9c0-22.607,18.393-41,41-41
			s41,18.393,41,41v9h4c3.313,0,6,2.687,6,6v50C302,304.337,290.337,316,276,316z M212,246v44c0,7.72,6.28,14,14,14h50
			c7.72,0,14-6.28,14-14v-44H212z M222,234h58v-9c0-15.991-13.01-29-29-29c-15.991,0-29,13.009-29,29V234z"/>
	</g>
	<g>
		<path style="fill:#F9423A;" d="M380,416H120c-19.851,0-36-16.149-36-36V120c0-19.851,16.149-36,36-36h260
			c19.851,0,36,16.149,36,36v260C416,399.851,399.851,416,380,416z M120,96c-13.233,0-24,10.767-24,24v260c0,13.233,10.767,24,24,24
			h260c13.233,0,24-10.767,24-24V120c0-13.233-10.767-24-24-24H120z"/>
	</g>
	<g>
		<path style="fill:#F9423A;" d="M265,281h-30c-3.313,0-6-2.687-6-6s2.687-6,6-6h30c3.313,0,6,2.687,6,6S268.313,281,265,281z
			 M260.107,149.3c-1.925,0-3.815-0.924-4.975-2.638l-9-13.3c-0.672-0.993-1.031-2.164-1.031-3.363v-12.2c0-3.314,2.687-6,6-6
			s6,2.686,6,6v10.361l7.969,11.776c1.857,2.745,1.139,6.475-1.606,8.332C262.434,148.966,261.265,149.3,260.107,149.3z"/>
	</g>
	<g>
		<path style="fill:#F9423A;" d="M201.107,165.3c-1.924,0-3.815-0.924-4.975-2.638l-9-13.3c-0.672-0.993-1.031-2.164-1.031-3.363
			v-12.3c0-3.313,2.687-6,6-6s6,2.687,6,6v10.46l7.969,11.776c1.857,2.745,1.138,6.475-1.606,8.332
			C203.434,164.966,202.265,165.3,201.107,165.3z M242.097,149.3c-1.157,0-2.327-0.334-3.357-1.031
			c-2.745-1.857-3.464-5.587-1.607-8.332l3.201-4.73l-2.982-0.225c-3.305-0.248-5.782-3.128-5.533-6.433
			c0.248-3.305,3.132-5.789,6.433-5.533l12.85,0.966l12.851-0.966c3.305-0.244,6.185,2.228,6.434,5.533
			c0.248,3.304-2.229,6.185-5.533,6.433l-10.407,0.783l-7.373,10.896C245.912,148.376,244.021,149.3,242.097,149.3z"/>
	</g>
	<g>
		<path style="fill:#F9423A;" d="M157.605,208.201c-1.925,0-3.815-0.924-4.975-2.638l-9-13.3c-0.672-0.993-1.031-2.164-1.031-3.363
			v-12.3c0-3.313,2.687-6,6-6s6,2.687,6,6v10.46l7.969,11.777c1.857,2.745,1.138,6.475-1.606,8.332
			C159.932,207.867,158.763,208.201,157.605,208.201z M183.097,165.3c-1.157,0-2.327-0.334-3.357-1.031
			c-2.744-1.857-3.463-5.587-1.606-8.332l3.201-4.729l-2.982-0.225c-3.305-0.248-5.782-3.128-5.533-6.433s3.131-5.783,6.433-5.533
			l12.851,0.966l12.85-0.966c3.312-0.253,6.185,2.229,6.433,5.533c0.249,3.304-2.229,6.185-5.533,6.433l-10.405,0.783l-7.374,10.897
			C186.912,164.376,185.021,165.3,183.097,165.3z"/>
	</g>
	<g>
		<path style="fill:#F9423A;" d="M139.607,269.901c-1.925,0-3.815-0.925-4.975-2.639l-9-13.3c-0.672-0.993-1.031-2.164-1.031-3.363
			v-12.3c0-3.313,2.687-6,6-6c3.313,0,6,2.687,6,6v10.461l7.969,11.777c1.857,2.744,1.138,6.475-1.606,8.331
			C141.934,269.566,140.765,269.901,139.607,269.901z M139.595,208.1c-1.164,0-2.34-0.338-3.375-1.043
			c-2.738-1.867-3.444-5.6-1.578-8.337l3.151-4.622l-2.847-0.216c-3.304-0.25-5.78-3.132-5.53-6.436
			c0.251-3.304,3.14-5.776,6.436-5.53l12.749,0.966l12.849-0.966c3.312-0.252,6.185,2.229,6.433,5.533
			c0.249,3.304-2.229,6.185-5.533,6.433l-10.419,0.784l-7.373,10.813C143.396,207.183,141.512,208.1,139.595,208.1z"/>
	</g>
	<g>
		<path style="fill:#F9423A;" d="M158.306,326.801c-1.924,0-3.815-0.925-4.975-2.639l-9-13.3c-0.672-0.992-1.031-2.164-1.031-3.362
			v-12.3c0-3.313,2.687-6,6-6s6,2.687,6,6v10.461l7.969,11.776c1.857,2.744,1.138,6.475-1.606,8.331
			C160.633,326.466,159.463,326.801,158.306,326.801z M121.597,269.901c-1.157,0-2.327-0.334-3.357-1.032
			c-2.744-1.856-3.463-5.587-1.606-8.331l3.201-4.73l-2.983-0.225c-3.305-0.248-5.782-3.128-5.533-6.433
			c0.249-3.304,3.13-5.792,6.433-5.533l12.849,0.966l12.749-0.966c3.298-0.247,6.186,2.226,6.436,5.53s-2.226,6.186-5.53,6.436
			l-10.308,0.781l-7.375,10.898C125.412,268.977,123.521,269.901,121.597,269.901z"/>
	</g>
	<g>
		<path style="fill:#F9423A;" d="M200.605,369.601c-1.917,0-3.801-0.917-4.962-2.621l-9-13.199c-0.689-1.01-1.053-2.206-1.043-3.429
			l0.1-12.301c0.027-3.314,2.718-5.967,6.049-5.951c3.313,0.027,5.978,2.735,5.951,6.049l-0.085,10.423l7.942,11.648
			c1.867,2.737,1.161,6.471-1.577,8.337C202.946,369.262,201.77,369.601,200.605,369.601z M140.295,326.801
			c-1.157,0-2.327-0.334-3.357-1.032c-2.744-1.856-3.463-5.587-1.606-8.331l3.201-4.73l-2.982-0.224
			c-3.305-0.249-5.782-3.129-5.533-6.434c0.248-3.305,3.126-5.769,6.433-5.533l12.85,0.967l12.851-0.967
			c3.308-0.228,6.185,2.229,6.433,5.533c0.249,3.305-2.229,6.185-5.533,6.434l-10.406,0.782l-7.374,10.896
			C144.11,325.876,142.22,326.801,140.295,326.801z"/>
	</g>
	<g>
		<path style="fill:#F9423A;" d="M260.107,390.4c-1.925,0-3.815-0.925-4.976-2.639l-9-13.301c-0.672-0.992-1.031-2.164-1.031-3.362
			v-12.199c0-3.313,2.687-6,6-6s6,2.687,6,6v10.36l7.97,11.777c1.856,2.744,1.138,6.475-1.607,8.332
			C262.434,390.065,261.264,390.4,260.107,390.4z M182.595,369.6c-1.164,0-2.34-0.339-3.375-1.044
			c-2.738-1.866-3.444-5.6-1.577-8.337l3.201-4.694l-2.942-0.245c-3.302-0.275-5.756-3.176-5.481-6.478
			c0.275-3.303,3.172-5.752,6.478-5.481l12.726,1.062l12.826-0.965c3.307-0.228,6.185,2.229,6.433,5.533
			c0.249,3.305-2.229,6.185-5.533,6.434l-10.42,0.783l-7.372,10.812C186.396,368.683,184.512,369.6,182.595,369.6z"/>
	</g>
	<g>
		<path style="fill:#F9423A;" d="M242.097,390.401c-1.157,0-2.327-0.334-3.357-1.031c-2.745-1.857-3.464-5.588-1.607-8.332
			l3.201-4.731l-2.983-0.224c-3.305-0.249-5.782-3.129-5.533-6.434c0.249-3.304,3.131-5.763,6.433-5.533l12.85,0.967l12.851-0.967
			c3.305-0.227,6.185,2.229,6.434,5.533c0.248,3.305-2.229,6.185-5.533,6.434l-10.406,0.782l-7.374,10.897
			C245.912,389.477,244.021,390.401,242.097,390.401z M320.107,369.901c-1.925,0-3.815-0.925-4.976-2.639l-9-13.301
			c-0.671-0.992-1.03-2.164-1.03-3.362v-12.3c0-3.313,2.687-6,6-6s6,2.687,6,6v10.461l7.97,11.777
			c1.856,2.744,1.138,6.475-1.607,8.332C322.434,369.566,321.264,369.901,320.107,369.901z"/>
	</g>
	<g>
		<path style="fill:#F9423A;" d="M302.096,369.901c-1.156,0-2.326-0.334-3.356-1.031c-2.744-1.857-3.464-5.588-1.607-8.332
			l3.201-4.731l-2.982-0.224c-3.304-0.249-5.781-3.129-5.533-6.434c0.249-3.305,3.136-5.763,6.434-5.533l12.85,0.967l12.851-0.967
			c3.302-0.228,6.185,2.229,6.434,5.533c0.248,3.305-2.229,6.185-5.533,6.434l-10.406,0.782l-7.374,10.897
			C305.911,368.977,304.021,369.901,302.096,369.901z M362.008,326.801c-1.925,0-3.815-0.925-4.975-2.639l-9-13.3
			c-0.672-0.992-1.031-2.164-1.031-3.362v-12.3c0-3.313,2.687-6,6-6s6,2.687,6,6v10.461l7.969,11.776
			c1.857,2.744,1.139,6.475-1.606,8.331C364.334,326.466,363.164,326.801,362.008,326.801z"/>
	</g>
	<g>
		<path style="fill:#F9423A;" d="M343.996,326.801c-1.157,0-2.326-0.334-3.356-1.032c-2.745-1.856-3.464-5.587-1.606-8.331l3.2-4.73
			l-2.982-0.224c-3.304-0.249-5.781-3.129-5.533-6.434c0.249-3.305,3.128-5.786,6.434-5.533l12.85,0.967l12.85-0.967
			c3.309-0.223,6.185,2.229,6.434,5.533c0.248,3.305-2.229,6.185-5.533,6.434l-10.406,0.782l-7.374,10.896
			C347.812,325.876,345.921,326.801,343.996,326.801z M380.707,269.901c-1.925,0-3.815-0.925-4.975-2.639l-9-13.3
			c-0.672-0.993-1.031-2.164-1.031-3.363v-12.3c0-3.313,2.687-6,6-6s6,2.687,6,6v10.461l7.969,11.777
			c1.857,2.744,1.139,6.475-1.606,8.331C383.033,269.566,381.863,269.901,380.707,269.901z"/>
	</g>
	<g>
		<path style="fill:#F9423A;" d="M362.695,269.901c-1.156,0-2.326-0.334-3.356-1.032c-2.745-1.856-3.464-5.587-1.606-8.331l3.2-4.73
			l-2.982-0.225c-3.304-0.248-5.781-3.128-5.533-6.433c0.249-3.305,3.126-5.786,6.434-5.533l12.85,0.966l12.85-0.966
			c3.312-0.249,6.185,2.228,6.434,5.533c0.248,3.305-2.229,6.185-5.533,6.433l-10.406,0.782l-7.374,10.897
			C366.511,268.977,364.62,269.901,362.695,269.901z M362.605,208.101c-1.925,0-3.815-0.924-4.975-2.638l-9-13.3
			c-0.672-0.993-1.031-2.164-1.031-3.363v-12.2c0-3.313,2.687-6,6-6s6,2.687,6,6v10.36l7.969,11.777
			c1.857,2.745,1.139,6.475-1.606,8.332C364.932,207.767,363.762,208.101,362.605,208.101z"/>
	</g>
	<g>
		<path style="fill:#F9423A;" d="M344.594,208.101c-1.156,0-2.326-0.334-3.356-1.031c-2.745-1.857-3.464-5.587-1.606-8.332
			l3.204-4.736l-2.888-0.219c-3.305-0.25-5.78-3.132-5.529-6.436c0.25-3.305,3.13-5.787,6.436-5.53l12.748,0.966l12.849-0.966
			c3.309-0.245,6.185,2.229,6.434,5.533c0.248,3.304-2.229,6.185-5.533,6.433l-10.408,0.783l-7.374,10.897
			C348.409,207.177,346.519,208.101,344.594,208.101z M319.207,165.3c-1.925,0-3.815-0.924-4.975-2.638l-9-13.3
			c-0.672-0.993-1.031-2.164-1.031-3.363v-12.3c0-3.313,2.687-6,6-6s6,2.687,6,6v10.46l7.969,11.776
			c1.857,2.745,1.139,6.475-1.606,8.332C321.533,164.966,320.363,165.3,319.207,165.3z"/>
	</g>
	<g>
		<path style="fill:#F9423A;" d="M301.097,165.201c-1.175,0-2.361-0.344-3.4-1.061c-2.729-1.881-3.415-5.617-1.534-8.346
			l3.168-4.595l-2.88-0.217c-3.304-0.248-5.781-3.128-5.533-6.433c0.249-3.305,3.132-5.782,6.434-5.533l12.85,0.966l12.85-0.966
			c3.31-0.245,6.185,2.229,6.434,5.533c0.248,3.304-2.229,6.185-5.533,6.433l-10.437,0.785l-7.473,10.838
			C304.877,164.294,303.003,165.201,301.097,165.201z"/>
	</g>
</g>
</svg>
