<?xml version="1.0" encoding="utf-8"?>
<!-- Generator: Adobe Illustrator 27.5.0, SVG Export Plug-In . SVG Version: 6.00 Build 0)  -->
<svg version="1.1" id="Layer_1" xmlns="http://www.w3.org/2000/svg" xmlns:xlink="http://www.w3.org/1999/xlink" x="0px" y="0px"
	 viewBox="0 0 500 500" style="enable-background:new 0 0 500 500;" xml:space="preserve">
<style type="text/css">
	.st0{fill:#F9423A;}
	.st1{display:none;fill:none;stroke:#F9423A;stroke-width:12;stroke-linecap:round;stroke-linejoin:round;}
	.st2{fill:none;stroke:#F9423A;stroke-width:12;stroke-linecap:round;stroke-linejoin:round;}
</style>
<g>
	<g>
		<g>
			<path class="st0" d="M271.5,421.8h-45.2c-3.3,0-6-2.7-6-6v-25.1c-5.9-1.2-11.8-2.8-17.4-4.7l-12.5,21.7c-0.8,1.4-2.1,2.4-3.6,2.8
				s-3.2,0.2-4.6-0.6l-39.1-22.6c-2.9-1.7-3.8-5.3-2.2-8.2l12.5-21.6c-2.2-1.9-4.3-3.9-6.5-6.1c-2-2-4-4.2-6.2-6.6L119,357.2
				c-2.9,1.7-6.5,0.7-8.2-2.2l-22.6-39.1c-0.8-1.4-1-3-0.6-4.6c0.4-1.5,1.4-2.8,2.8-3.6l21.7-12.5c-1.9-5.6-3.4-11.4-4.7-17.4h-25
				c-3.3,0-6-2.7-6-6v-45.2c0-3.3,2.7-6,6-6h25c1.2-5.9,2.8-11.8,4.7-17.4l-21.7-12.5c-1.4-0.8-2.4-2.1-2.8-3.6s-0.2-3.2,0.6-4.6
				l22.6-39.1c1.7-2.9,5.3-3.8,8.2-2.2l21.6,12.5c1.9-2.2,3.9-4.3,6.1-6.5c2-2,4.2-4,6.6-6.2l-12.5-21.7c-1.7-2.9-0.7-6.5,2.2-8.2
				l39.1-22.6c1.4-0.8,3-1,4.6-0.6c1.5,0.4,2.8,1.4,3.6,2.8l12.5,21.7c5.6-1.9,11.4-3.4,17.4-4.7v-25c0-3.3,2.7-6,6-6h45.2
				c3.3,0,6,2.7,6,6v25c5.9,1.2,11.8,2.8,17.4,4.7l12.5-21.7c0.8-1.4,2.1-2.4,3.6-2.8s3.2-0.2,4.6,0.6l39.1,22.6
				c2.9,1.7,3.8,5.3,2.2,8.2l-12.5,21.6c2.2,1.9,4.3,3.9,6.5,6.1c2,2,4,4.2,6.2,6.6l21.7-12.5c2.9-1.7,6.5-0.7,8.2,2.2l22.6,39.1
				c0.8,1.4,1,3,0.6,4.6c-0.4,1.5-1.4,2.8-2.8,3.6l-21.7,12.5c1.9,5.6,3.4,11.4,4.7,17.4h25c3.3,0,6,2.7,6,6v45.2c0,3.3-2.7,6-6,6
				c-7.6,0-18.8,0-25,0c-1.2,6-2.8,11.8-4.7,17.5l21.7,12.5c1.4,0.8,2.4,2.1,2.8,3.6s0.2,3.2-0.6,4.6L387,355.1
				c-1.7,2.9-5.3,3.8-8.2,2.2l-21.6-12.5c-1.9,2.2-3.9,4.3-6.1,6.5c-2,2-4.2,4-6.6,6.2l12.5,21.7c1.7,2.9,0.7,6.5-2.2,8.2L315.6,410
				c-1.4,0.8-3,1-4.6,0.6c-1.5-0.4-2.8-1.4-3.6-2.8l-12.5-21.7c-5.6,1.9-11.4,3.4-17.4,4.7v25C277.5,419.1,274.8,421.8,271.5,421.8z
				 M232.3,409.8h33.2v-24c0-2.9,2.1-5.4,5-5.9c8.8-1.5,17.2-3.7,25-6.7c2.8-1.1,5.9,0.1,7.3,2.6l12,20.8l28.7-16.6l-12-20.8
				c-1.5-2.5-0.9-5.8,1.4-7.6c3.8-3.1,6.9-6,9.7-8.7c3.2-3.2,6-6.3,8.6-9.5c1.9-2.3,5.1-2.9,7.7-1.4l20.8,12l16.6-28.7l-20.8-12
				c-2.5-1.5-3.7-4.6-2.6-7.3c3-7.9,5.2-16.3,6.7-25c0.1-0.4,0.2-0.9,0.4-1.3c1.5-3.7,5.1-3.7,6.8-3.7c0.8,0,2,0,3.4,0
				c2.8,0,6.6,0,10.3,0c3.2,0,6.4,0,9,0v-33.2h-24c-2.9,0-5.4-2.1-5.9-5c-1.5-8.8-3.7-17.2-6.7-25c-1-2.8,0.1-5.9,2.6-7.3l20.8-12
				l-16.6-28.7l-20.8,12c-2.5,1.5-5.8,0.9-7.6-1.4c-3.1-3.8-6-6.9-8.7-9.7c-3.2-3.2-6.3-6-9.5-8.6c-2.3-1.9-2.9-5.1-1.4-7.7l12-20.8
				L315,102l-12,20.8c-1.5,2.5-4.6,3.7-7.3,2.6c-7.9-3-16.3-5.2-25-6.7c-2.9-0.5-5-3-5-5.9v-24h-33.2v24c0,2.9-2.1,5.4-5,5.9
				c-8.8,1.5-17.2,3.7-25,6.7c-2.8,1-5.9-0.1-7.3-2.6l-12-20.8l-28.7,16.6l12,20.8c1.5,2.5,0.9,5.8-1.4,7.6c-3.8,3.1-6.9,6-9.7,8.7
				c-3.2,3.2-6,6.3-8.6,9.5c-1.9,2.3-5.1,2.9-7.7,1.4l-20.8-12l-16.6,28.7l20.8,12c2.5,1.5,3.7,4.6,2.6,7.3c-3,7.9-5.2,16.3-6.7,25
				c-0.5,2.9-3,5-5.9,5h-24v33.2h24c2.9,0,5.4,2.1,5.9,5c1.5,8.8,3.7,17.2,6.7,25c1,2.8-0.1,5.9-2.6,7.3l-20.8,12l16.6,28.7l20.8-12
				c2.5-1.5,5.8-0.9,7.6,1.4c3.1,3.8,6,7,8.7,9.7c3.2,3.2,6.3,6,9.5,8.6c2.3,1.9,2.9,5.1,1.4,7.7l-12,20.8l28.7,16.6l12-20.8
				c1.5-2.5,4.6-3.7,7.3-2.6c7.9,3,16.3,5.2,25,6.7c2.9,0.5,5,3,5,5.9V409.8L232.3,409.8z"/>
		</g>
		<g>
			<path class="st0" d="M249.9,326.7c-19.9,0-39.8-7.6-54.9-22.7c-30.3-30.3-30.3-79.5,0-109.8s79.5-30.3,109.8,0s30.3,79.5,0,109.8
				C289.7,319.2,269.8,326.7,249.9,326.7z M249.9,183.6c-16.8,0-33.6,6.4-46.4,19.2c-25.6,25.6-25.6,67.2,0,92.8s67.2,25.6,92.8,0
				c25.6-25.6,25.6-67.2,0-92.8C283.6,189.9,266.8,183.6,249.9,183.6z"/>
		</g>
	</g>
	<g>
		<g>
			<path class="st1" d="M0,500"/>
		</g>
		<g>
			<path class="st2" d="M0,500"/>
		</g>
		<g>
			<path class="st2" d="M0,500"/>
		</g>
		<g>
			<path class="st2" d="M0,500"/>
		</g>
		<g>
			<path class="st2" d="M0,500"/>
		</g>
		<g>
			<path class="st2" d="M0,500"/>
		</g>
		<g>
			<path class="st2" d="M0,500"/>
		</g>
		<g>
			<path class="st2" d="M0,500"/>
		</g>
		<g>
			<path class="st2" d="M0,500"/>
		</g>
		<g>
			<path class="st2" d="M0,500"/>
		</g>
		<g>
			<path class="st2" d="M0,500"/>
		</g>
		<g>
			<path class="st2" d="M0,500"/>
		</g>
	</g>
</g>
</svg>
