<?xml version="1.0" encoding="utf-8"?>
<!-- Generator: Adobe Illustrator 27.5.0, SVG Export Plug-In . SVG Version: 6.00 Build 0)  -->
<svg version="1.1" id="Layer_1" xmlns="http://www.w3.org/2000/svg" xmlns:xlink="http://www.w3.org/1999/xlink" x="0px" y="0px"
	 viewBox="0 0 500 500" style="enable-background:new 0 0 500 500;" xml:space="preserve">
<style type="text/css">
	.st0{fill:#F9423A;}
	.st1{fill:none;stroke:#F84239;stroke-width:12;stroke-linecap:round;}
</style>
<g>
	<g>
		<g>
			<path class="st0" d="M250,254.7c-0.5,0-1-0.1-1.5-0.2L82.9,212.2c-2.6-0.7-4.5-3-4.5-5.8L78,162.5c-0.1-0.4-0.1-0.8-0.1-1.1
				c0-2.7,1.9-5.1,4.5-5.8l165.7-42.8c1-0.3,2-0.3,3,0l165.5,42.8c0.8,0.2,1.5,0.5,2.1,1l0,0l0,0c0.3,0.3,0.7,0.5,1,0.9
				c0.9,1,1.5,2.4,1.5,3.9l0,0l0,0l0,0v0.1l-0.5,44.1c0,2.7-1.9,5.1-4.5,5.7l-164.7,43.2C251,254.6,250.5,254.7,250,254.7z
				 M90.4,201.7L250,242.5l158.8-41.6l0.4-31.7L251,210c-1,0.3-2,0.3-3,0L90.1,169.2L90.4,201.7z M107.9,161.4L249.5,198l141.7-36.6
				l-141.6-36.6L107.9,161.4z"/>
		</g>
		<g>
			<path class="st0" d="M250.5,432.4c-0.6,0-1.2-0.1-1.7-0.3L105.7,389c-2.5-0.8-4.3-3.1-4.3-5.7l-0.4-89l-0.4-80.2
				c0-1.8,0.8-3.6,2.3-4.7c1.4-1.1,3.3-1.6,5.1-1.2l141.1,32.6c0.4-0.1,0.7-0.1,1.1-0.1l0,0c0.5,0,0.9,0.1,1.4,0.2l139.8-34.5
				c1.8-0.4,3.7,0,5.1,1.1c1.5,1.1,2.3,2.9,2.3,4.7l0.1,82.8v87.3c0,2.6-1.7,5-4.2,5.7l-142.4,44.1
				C251.7,432.3,251.1,432.4,250.5,432.4z M113.4,378.8l131,39.5l-0.1-103.2l-0.1-63.1l-131.6-30.4l0.4,72.6L113.4,378.8z
				 M256.2,252.1l0.1,63l0.1,103.2l130.5-40.4V295l-0.1-75.1L256.2,252.1z"/>
		</g>
		<g>
			<path class="st0" d="M171,408.5L171,408.5c-3.3,0-6-2.7-6-6l0.2-89.9l0.2-78.6l-9-2.6c-2.6-0.7-4.4-3.1-4.4-5.8l0.1-42.3
				c0-2.6,1.7-4.9,4.1-5.7l91.8-30c1.6-0.5,3.2-0.3,4.5,0.3l91.1,29.7c2.5,0.8,4.1,3.1,4.1,5.7l-0.1,40.9c0,2.6-1.7,4.9-4.2,5.7
				l-9.2,3l0.2,74.1l0.3,95c0,3.3-2.7,6-6,6l0,0c-3.3,0-6-2.7-6-6l-0.3-95l-0.2-78.5c0-2.6,1.7-4.9,4.2-5.7l9.2-3l0.1-32.2l-86-28
				l-85.7,28l-0.1,33.4l9,2.6c2.6,0.7,4.4,3.1,4.4,5.8l-0.2,83.1l-0.2,89.9C177,405.8,174.3,408.5,171,408.5z"/>
		</g>
		<g>
			<path class="st0" d="M252.6,160c-1.9,0-3.8-1-4.9-2.5c-36.2-5.2-64.2-14.1-83.2-26.6c-16.8-11-25.9-24.6-25.8-38.5
				c0.1-16.4,13.7-30,32.3-32.3c28.3-3.5,68.1,18.5,87.4,92.3c0.8,3.2-1.1,6.5-4.3,7.3C253.6,159.9,253.1,160,252.6,160z M177,71.8
				c-1.5,0-3,0.1-4.5,0.3c-12.8,1.6-21.8,10-21.8,20.5c-0.1,17.5,24.4,41.3,93,52.2C226.9,90.8,198.7,71.8,177,71.8z"/>
		</g>
		<g>
			<path class="st0" d="M250.5,160c-0.5,0-1-0.1-1.5-0.2c-3.2-0.8-5.1-4.1-4.3-7.3c19-73.6,58.4-95.8,86.3-92.3
				c18.5,2.3,32,15.8,32.2,32.2c0.1,13.8-8.9,27.5-25.5,38.5c-18.8,12.5-46.5,21.4-82.2,26.6C254.3,159,252.5,160,250.5,160z
				 M325.3,71.8c-21.4,0-49.3,19-65.9,72.9c67.8-10.9,91.9-34.7,91.8-52.2c-0.1-10.5-9-18.9-21.6-20.4
				C328.1,71.9,326.7,71.8,325.3,71.8z"/>
		</g>
	</g>
	<path class="st1" d="M0,500"/>
</g>
</svg>
