<?xml version="1.0" encoding="utf-8"?>
<!-- Generator: Adobe Illustrator 27.5.0, SVG Export Plug-In . SVG Version: 6.00 Build 0)  -->
<svg version="1.1" id="Layer_1" xmlns="http://www.w3.org/2000/svg" xmlns:xlink="http://www.w3.org/1999/xlink" x="0px" y="0px"
	 viewBox="0 0 500 500" style="enable-background:new 0 0 500 500;" xml:space="preserve">
<style type="text/css">
	.st0{clip-path:url(#SVGID_00000032639923495648017390000012138215373970754977_);}
	.st1{display:none;fill:none;}
	.st2{fill:none;}
	.st3{fill:#F9423A;}
	.st4{display:none;fill:none;stroke:#F9423A;stroke-width:12.04;stroke-linecap:round;stroke-linejoin:round;}
	.st5{fill:none;stroke:#F9423A;stroke-width:12.04;stroke-linecap:round;stroke-linejoin:round;}
</style>
<g>
	<g>
		<g>
			<defs>
				<rect id="SVGID_1_" width="500" height="500"/>
			</defs>
			<clipPath id="SVGID_00000166655526161132170100000008205182224989286537_">
				<use xlink:href="#SVGID_1_"  style="overflow:visible;"/>
			</clipPath>
			<g style="clip-path:url(#SVGID_00000166655526161132170100000008205182224989286537_);">
				<g>
					<path class="st1" d="M0,500"/>
					<path class="st2" d="M0,500"/>
					<path class="st2" d="M0,500"/>
					<path class="st2" d="M0,500"/>
				</g>
				<g>
					<g>
						<path class="st3" d="M193,362.5c-3.3,0-6-2.7-6-6V250.6c-1.5-0.5-3-1.2-4.3-2c-36.6,19.1-47.8,18.8-53,12.5l-0.1-0.1
							c-3.3-4.2-1.9-8.8-0.6-13.3c0.8-2.7,1.7-5.8,2.2-9.7H89.9c-3.3,0-6-2.7-6-6s2.7-6,6-6H131c-0.6-3.9-1.7-7-2.5-9.6
							c-1.4-4.2-3.1-9,0.3-13.2c5-6.4,15.5-6.6,51,11.7c2.1-1.8,4.6-3.3,7.3-4.2V144c0-3.3,2.7-6,6-6s6,2.7,6,6v66.4
							c3.2,0.8,6,2.4,8.4,4.5c35.5-18.2,46-18,51-11.6c3.3,4.2,1.7,8.9,0.3,13.1c-0.9,2.6-1.9,5.7-2.5,9.6h154c3.3,0,6,2.7,6,6
							s-2.7,6-6,6H255.9c0.5,3.9,1.4,7.1,2.2,9.7c1.3,4.5,2.7,9.1-0.6,13.3l-0.1,0.1c-5.2,6.4-16.4,6.6-53-12.4
							c-1.7,1-3.5,1.8-5.5,2.3v105.5C199,359.8,196.3,362.5,193,362.5z M139.4,211.5c0.1,0.4,0.3,0.7,0.4,1.1
							c1.4,4.1,3.5,10.2,3.7,18.9c0.2,9-1.7,15.5-3,19.7c-0.2,0.6-0.4,1.2-0.5,1.8c3.4-0.2,12.4-2.3,34.5-13.6
							c-1.2-2.6-1.9-5.6-1.9-8.7c0-1.9,0.3-3.8,0.7-5.6C152.3,214.4,143.1,211.9,139.4,211.5z M212.7,239.4
							c22,11.3,31,13.3,34.4,13.6c-0.2-0.6-0.4-1.2-0.5-1.8c-1.3-4.3-3.2-10.7-3-19.7c0.2-8.7,2.3-14.8,3.7-18.9
							c0.1-0.4,0.2-0.7,0.4-1.1c-3.7,0.5-12.8,2.9-33.8,13.6c0.5,1.8,0.8,3.7,0.8,5.6C214.6,233.8,213.9,236.8,212.7,239.4z
							 M193.6,221.7c-5,0-9,4-9,9s4,9,9,9c2.4,0,4.5-0.9,6.1-2.4l0.1-0.1c1.7-1.6,2.8-3.9,2.8-6.5c0-1.6-0.4-3.1-1.1-4.4
							c-0.3-0.3-0.6-0.7-0.8-1.1v-0.1C199,223,196.4,221.7,193.6,221.7z"/>
					</g>
					<g>
						<path class="st3" d="M392.9,362.7H107.1c-12.8,0-23.2-10.4-23.2-23.2V160.4c0-12.8,10.4-23.2,23.2-23.2H393
							c12.8,0,23.2,10.4,23.2,23.2v179.1C416.1,352.3,405.6,362.7,392.9,362.7z M107.1,149.2c-6.2,0-11.2,5-11.2,11.2v179.1
							c0,6.2,5,11.2,11.2,11.2h285.8c6.2,0,11.2-5.1,11.3-11.3v-179c0-6.2-5-11.2-11.2-11.2L107.1,149.2L107.1,149.2z M370.1,322.7
							H339c-3.3,0-6-2.7-6-6s2.7-6,6-6h31.1c3.3,0,6,2.7,6,6S373.4,322.7,370.1,322.7z M311.5,322.7H248c-3.3,0-6-2.7-6-6s2.7-6,6-6
							h63.5c3.3,0,6,2.7,6,6S314.8,322.7,311.5,322.7z"/>
					</g>
				</g>
				<g>
					<g>
						<path class="st4" d="M0,500"/>
					</g>
					<g>
						<path class="st5" d="M0,500"/>
					</g>
					<g>
						<path class="st5" d="M0,500"/>
					</g>
					<g>
						<path class="st5" d="M0,500"/>
					</g>
					<g>
						<path class="st5" d="M0,500"/>
					</g>
					<g>
						<path class="st5" d="M0,500"/>
					</g>
					<g>
						<path class="st5" d="M0,500"/>
					</g>
					<g>
						<path class="st5" d="M0,500"/>
					</g>
					<g>
						<path class="st5" d="M0,500"/>
					</g>
					<g>
						<path class="st5" d="M0,500"/>
					</g>
					<g>
						<path class="st5" d="M0,500"/>
					</g>
					<g>
						<path class="st5" d="M0,500"/>
					</g>
				</g>
			</g>
		</g>
	</g>
</g>
</svg>
