<?xml version="1.0" encoding="utf-8"?>
<!-- Generator: Adobe Illustrator 27.5.0, SVG Export Plug-In . SVG Version: 6.00 Build 0)  -->
<svg version="1.1" id="Layer_1" xmlns="http://www.w3.org/2000/svg" xmlns:xlink="http://www.w3.org/1999/xlink" x="0px" y="0px"
	 viewBox="0 0 500 500" style="enable-background:new 0 0 500 500;" xml:space="preserve">
<style type="text/css">
	.st0{fill:none;}
	.st1{fill:#F9423A;}
	.st2{fill:none;stroke:#F9423A;stroke-width:12;stroke-linecap:round;stroke-linejoin:round;}
</style>
<g>
	<g transform="translate(50.87 37.375) scale(.7965)">
		<g>
			<path class="st0" d="M0,500"/>
		</g>
		<g>
			<path class="st0" d="M0,500"/>
		</g>
		<g>
			<path class="st0" d="M0,500"/>
		</g>
		<g>
			<path class="st0" d="M0,500"/>
		</g>
		<g>
			<path class="st0" d="M0,500"/>
		</g>
		<g>
			<path class="st0" d="M0,500"/>
		</g>
		<g>
			<path class="st0" d="M0,500"/>
		</g>
		<g>
			<g>
				<path class="st1" d="M255.4,355.9v1.9c0.6,0,1.2,0,1.9,0.1c0-0.6,0-1.3,0-1.9C256.6,355.9,256,355.9,255.4,355.9z"/>
			</g>
		</g>
		<g>
			<g>
				<path class="st1" d="M434.4,242.1h-59.3c-1.1-42.2-11.1-82.2-28.3-114.4c9.1-3.3,17.8-7.2,26-11.5c1.8-1,3.2-2.6,3.8-4.7
					c0.6-2,0.4-4.1-0.5-6c-1-1.8-2.6-3.2-4.6-3.8c-2-0.6-4.1-0.4-6,0.5c-8.4,4.4-17.4,8.3-26.8,11.6c-23.6-36.3-55.1-56.3-88.8-56.3
					h-0.1c-33,0-63.7,20.3-86.6,57c-10.2-3.5-19.9-7.6-28.9-12.3c-1.8-1-4-1.2-6-0.6c-2,0.6-3.8,2-4.7,3.9c-1,1.8-1.2,3.9-0.6,6
					c0.6,2,2,3.7,3.9,4.7c8.9,4.7,18.4,8.8,28.4,12.3c-16.5,32.2-25.9,71.7-27,113.5H65.4c-4.3,0-7.9,3.5-7.9,7.9s3.5,7.9,7.9,7.9
					h62.9c1.1,41.9,10.5,81.4,27,113.5c-10,3.5-19.5,7.6-28.3,12.3c-3.8,2-5.3,6.8-3.3,10.7c1.4,2.6,4,4.2,6.9,4.2
					c0.9,0,2.3-0.2,3.7-0.9c9-4.7,18.7-8.8,28.9-12.3c23,36.8,53.8,57,86.7,57c0.1,0,0.2,0,0.3,0h0.2c21.8-0.1,43.1-8.8,61.7-25
					c3.3-2.9,3.6-7.9,0.8-11.2c-2.9-3.3-7.9-3.6-11.2-0.8c-14,12.3-29,19.3-44.8,20.9c0.1-15,0.3-33.1,0.3-54.6
					c18.3,0.5,36.1,2.6,53.2,6.4c4.3,0.9,8.5-1.8,9.4-6.1c0.9-4.3-1.8-8.5-6-9.4c-18.3-4-37.3-6.2-56.5-6.7c0,0.6,0,1.3,0,1.9
					c-0.6,0-1.2,0-1.9-0.1v-1.9c0.6,0,1.3,0,1.9,0c0.1-27.7,0.1-60.3,0.1-98h102c-0.7,24.2-4.4,47.6-11.2,69.7
					c-1.3,4.2,1,8.5,5.2,9.8c0.8,0.3,1.6,0.4,2.4,0.4c3.4,0,6.4-2.2,7.5-5.5c7.2-23.7,11.2-48.7,11.8-74.4h59.3
					c4.3,0,7.9-3.5,7.9-7.9S438.7,242.1,434.4,242.1z M242,73.9c0,3.8,0.1,7.5,0.1,11.1c0,4.6,0.1,9,0.1,13.3l0,6.6
					c0,7.7,0.1,15.4,0.1,23.4c-22.2-0.6-43.8-3.6-63.8-9C195.6,93.6,217.6,76.9,242,73.9z M170.3,133.4c22.5,6.4,47,10.1,72.1,10.7
					c0.1,24.2,0.2,53.5,0.2,98h-98.5C145.2,200.6,154.9,162.7,170.3,133.4z M242.1,426.1c-23.6-2.9-45.8-18.9-63.3-45.5
					c20-5.3,41.5-8.4,63.6-8.9C242.3,398,242.2,415.3,242.1,426.1z M242.5,355.9c-25,0.6-49.5,4.3-72,10.7
					c-16.1-30.3-25.3-68.4-26.4-108.7h98.5C242.6,298.5,242.5,330.7,242.5,355.9z M257,103.8l0-6.5c-0.1-5.3-0.1-10.7-0.1-16.4
					c0-2.3,0-4.7,0-7.1c24.6,2.5,47.8,18.2,66.3,45.1c-20.6,5.7-43,9-66,9.5C257.1,119.9,257.1,111.9,257,103.8z M257.4,242.1
					c0-44.4-0.1-73.8-0.2-98c25.9-0.6,51.3-4.5,74.5-11.4c16.8,30.3,26.5,68.7,27.7,109.4H257.4z"/>
			</g>
		</g>
		<g>
			<g>
				<path class="st1" d="M255.4,355.9v1.9c0.6,0,1.2,0,1.9,0.1c0-0.6,0-1.3,0-1.9C256.6,355.9,256,355.9,255.4,355.9z"/>
			</g>
		</g>
	</g>
	<g>
		<path class="st1" d="M249.9,389.5c-84.4,0-153-68.6-153-153s68.6-153,153-153s153,68.6,153,153c0,24.6-6,49-17.3,70.7
			c-0.7,1.4-2,2.5-3.6,3s-3.2,0.3-4.6-0.5c-7.5-4.1-15.6-6.2-24.3-6.2c-27.8,0-50.4,22.6-50.4,50.4c0,6.4,1.2,12.6,3.5,18.5
			c0.6,1.5,0.5,3.2-0.1,4.6c-0.7,1.5-1.9,2.6-3.4,3.2C285.7,386.3,268,389.5,249.9,389.5z M249.9,95.5c-77.7,0-141,63.3-141,141
			s63.3,141,141,141c14.7,0,29.2-2.3,43.1-6.7c-1.5-5.5-2.3-11.2-2.3-17c0-34.4,28-62.4,62.4-62.4c8.6,0,16.8,1.7,24.5,5
			c8.7-18.6,13.3-39.2,13.3-59.9C390.9,158.8,327.6,95.5,249.9,95.5z"/>
	</g>
	<g>
		<path class="st1" d="M339.9,372.9c-1.5,0-3.1-0.6-4.2-1.8c-2.3-2.3-2.3-6.1,0-8.5l11.4-11.4v-34.9c0-3.3,2.7-6,6-6s6,2.7,6,6v37.3
			c0,0,0,0,0,0.1c0,1.6-0.6,3.1-1.8,4.3l-13.2,13.2C343,372.3,341.4,372.9,339.9,372.9z"/>
	</g>
	<g>
		<path class="st1" d="M353,416.2c-25.8,0-48.6-15.5-58-39.5c-2.9-7.3-4.3-15-4.3-22.9c0-34.4,28-62.4,62.4-62.4
			c10.7,0,21.1,2.7,30.1,7.8c19.8,10.9,32.2,31.9,32.2,54.6C415.4,388.2,387.4,416.2,353,416.2z M353.1,303.4
			c-27.8,0-50.4,22.6-50.4,50.4c0,6.4,1.2,12.6,3.5,18.5c7.5,19.1,26.3,31.9,46.8,31.9c27.8,0,50.4-22.6,50.4-50.4
			c0-18.4-10-35.3-26-44.1C370.1,305.6,361.7,303.4,353.1,303.4z"/>
	</g>
	<g>
		<path class="st2" d="M0,500"/>
	</g>
</g>
</svg>
