<?xml version="1.0" encoding="utf-8"?>
<!-- Generator: Adobe Illustrator 27.5.0, SVG Export Plug-In . SVG Version: 6.00 Build 0)  -->
<svg version="1.1" id="Layer_1" xmlns="http://www.w3.org/2000/svg" xmlns:xlink="http://www.w3.org/1999/xlink" x="0px" y="0px"
	 viewBox="0 0 500 500" style="enable-background:new 0 0 500 500;" xml:space="preserve">
<style type="text/css">
	.st0{fill:#F9423A;}
	.st1{fill:none;}
	.st2{display:none;fill:none;stroke:#F9423A;stroke-width:4.9;stroke-linecap:round;stroke-linejoin:round;}
	.st3{fill:none;stroke:#F9423A;stroke-width:4.9;stroke-linecap:round;stroke-linejoin:round;}
</style>
<g>
	<path class="st0" d="M185.4,437.5h-68.3c-7,0-12.7-5.7-12.7-12.7v-37c0-7,5.7-12.7,12.7-12.7h1.4v-14.5l-47-53
		c-5.3-6-8.2-13.8-8.2-21.8v-90c0-13,10.6-23.6,23.6-23.6s23.6,10.6,23.6,23.6l-0.2,66.1c1.1-0.5,2.3-0.9,3.5-1.2
		c11.5-3.2,24.4,0.6,32.9,9.6l48.3,51.8c1,1.1,1.6,2.6,1.6,4.1v49.1c3,0.5,5.8,2.2,7.7,4.6c2.4,3.1,3.3,7,2.4,10.9l-9.1,36.9
		C196.4,433.4,191.3,437.5,185.4,437.5z M117.1,387.1c-0.4,0-0.7,0.3-0.7,0.7v37c0,0.4,0.3,0.7,0.7,0.7h68.3c0.3,0,0.5-0.1,0.5-0.3
		c0-0.1,0-0.2,0.1-0.3l9.1-37c0.1-0.2-0.1-0.5-0.2-0.6c-0.1-0.2-0.3-0.3-0.5-0.3L117.1,387.1L117.1,387.1z M130.5,375.1h54.1v-46.5
		l-46.7-50.1c-5.4-5.8-13.6-8.2-20.9-6.2c-5,1.3-6.4,3.7-6.7,6.2v0.2l34.5,38.7c1,1.1,1.5,2.6,1.5,4c0,1.7-0.7,3.3-2,4.5
		c-2.5,2.2-6.3,2-8.5-0.5l-36-40.4l0,0l0,0l0,0l0,0l0,0l0,0l0,0l0,0l0,0l0,0l0,0l0,0l0,0l0,0l0,0l0,0l0,0l0,0l0,0l0,0l0,0l0,0l0,0
		l0,0l0,0l0,0l0,0l0,0l0,0c-0.4-0.5-0.7-1-1-1.6l0,0l0,0l0,0l0,0l0,0l0,0l0,0l0,0l0,0l0,0l0,0l0,0l0,0l0,0l0,0l0,0l0,0l0,0l0,0l0,0
		l0,0l0,0l0,0l0,0l0,0l0,0l0,0l0,0l0,0l0,0l0,0l0,0l0,0c-0.1-0.3-0.2-0.7-0.3-1l0,0v-0.1l0,0c0-0.2-0.1-0.4-0.1-0.6
		c-0.1-1.1-0.1-2.2,0-3.3l0.2-82.4c0-6.4-5.2-11.6-11.6-11.6s-11.6,5.2-11.6,11.6v90c0,5.1,1.9,10,5.2,13.8l48.5,54.7
		c1,1.1,1.5,2.5,1.5,4v16.6H130.5z"/>
</g>
<g>
	<path class="st0" d="M382.9,437.5h-68.3c-5.9,0-11-4.1-12.3-9.8l-9.1-36.9c-0.9-3.9,0-7.8,2.4-10.9c2-2.5,4.7-4.1,7.7-4.6v-49.1
		c0-1.5,0.6-3,1.6-4.1l48.3-51.8c8.4-9,21.3-12.8,32.9-9.6c1.2,0.3,2.4,0.7,3.4,1.2l-0.2-66.1c0-13,10.6-23.6,23.6-23.6
		s23.6,10.6,23.6,23.6v90c0,8-2.9,15.7-8.2,21.8l-47,53v14.5h1.4c7,0,12.7,5.7,12.7,12.7v37C395.6,431.8,389.9,437.5,382.9,437.5z
		 M305.6,387.1c-0.2,0-0.4,0.1-0.5,0.3c-0.1,0.1-0.2,0.4-0.2,0.6l9.1,37c0,0.1,0,0.2,0.1,0.3c0,0.1,0.2,0.3,0.5,0.3h68.3
		c0.4,0,0.7-0.3,0.7-0.7v-37c0-0.4-0.3-0.7-0.7-0.7L305.6,387.1L305.6,387.1z M315.4,375.1h54.1v-16.8c0-1.5,0.5-2.9,1.5-4
		l48.5-54.7c3.3-3.8,5.2-8.7,5.2-13.8v-90c0-6.4-5.2-11.6-11.6-11.6s-11.6,5.2-11.6,11.6l0.2,82.3c0.1,1.1,0.1,2.1,0,3.3
		c0,0.2,0,0.4-0.1,0.6l0,0v0.1l0,0c-0.1,0.3-0.2,0.7-0.3,1l0,0l0,0l0,0l0,0l0,0l0,0l0,0l0,0l0,0l0,0l0,0l0,0l0,0l0,0l0,0l0,0l0,0
		l0,0l0,0l0,0l0,0l0,0l0,0l0,0l0,0l0,0l0,0l0,0l0,0l0,0l0,0l0,0l0,0c-0.2,0.6-0.6,1.1-1,1.6l0,0l0,0l0,0l0,0l0,0l0,0l0,0l0,0l0,0
		l0,0l0,0l0,0l0,0l0,0l0,0l0,0l0,0l0,0l0,0l0,0l0,0l0,0l0,0l0,0l0,0l0,0l0,0l0,0l0,0l-36,40.4c-2.2,2.5-6,2.7-8.5,0.5
		c-1.3-1.2-2-2.8-2-4.5c0-1.4,0.5-2.8,1.5-4l34.5-38.7v-0.2c-0.3-2.5-1.7-4.9-6.7-6.2c-7.3-2-15.5,0.4-20.9,6.2l-46.7,50.1v46.8
		H315.4z"/>
</g>
<path class="st1" d="M118,297"/>
<path class="st1" d="M118,297"/>
<path class="st1" d="M118,297"/>
<path class="st1" d="M118,297"/>
<path class="st1" d="M118,297"/>
<path class="st1" d="M118,297"/>
<path class="st1" d="M118,297"/>
<g>
	<g>
		<path class="st0" d="M250,271.9L250,271.9c-18.3,0-35.2-11.2-47.8-31.6c-12.1-19.6-18.8-45.7-18.8-73.3s6.7-53.6,18.8-73.3
			c12.6-20.4,29.6-31.6,47.8-31.6c0.1,0,0.1,0,0.2,0l0,0l0,0c0.6,0,1.1,0.1,1.6,0.3l0,0l0,0l0,0l0,0l0,0l0,0l0,0l0,0l0,0l0,0l0,0
			l0,0l0,0l0,0l0,0l0,0l0,0l0,0l0,0l0,0l0,0l0,0l0,0l0,0l0,0l0,0l0,0l0,0l0,0l0,0l0,0l0,0l0,0l0,0l0,0l0,0l0,0l0,0l0,0l0,0l0,0l0,0
			l0,0l0,0l0,0l0,0l0,0l0,0l0,0l0,0l0,0l0,0l0,0l0,0l0,0l0,0l0,0l0,0l0,0l0,0l0,0l0,0l0,0l0,0l0,0l0,0l0,0l0,0l0,0l0,0l0,0l0,0l0,0
			l0,0l0,0l0,0l0,0l0,0l0,0l0,0l0,0l0,0l0,0l0,0l0,0l0,0l0,0l0,0l0,0l0,0l0,0l0,0l0,0l0,0l0,0l0,0l0,0l0,0l0,0l0,0l0,0l0,0l0,0l0,0
			l0,0l0,0l0,0l0,0l0,0l0,0l0,0l0,0l0,0l0,0l0,0l0,0l0,0l0,0l0,0l0,0l0,0l0,0l0,0l0,0l0,0l0,0l0,0l0,0l0,0l0,0
			c1.4,0.9,2.4,2.4,2.4,4.2c0,10,0.1,18.2,0.1,26.4c0.1,17.7,0.2,35.9,0.2,73.6c0,52.4-0.1,81.4-0.3,100c0,0.6-0.1,1.1-0.3,1.7l0,0
			l0,0c-0.2,0.6-0.5,1.1-0.9,1.5l0,0l0,0l0,0l0,0l0,0l0,0l0,0c-0.6,0.6-1.3,1.1-2.1,1.4l0,0l0,0C251,271.8,250.5,271.9,250,271.9z
			 M245.1,72.3c-12.9,1.9-25.1,11.2-34.6,26.6c-11.2,18.1-17.3,42.3-17.3,68.1s6.2,50,17.3,68.1c9.5,15.5,21.7,24.8,34.6,26.6
			c0.2-18.7,0.2-47,0.2-94.8c0-37.7-0.1-55.9-0.2-73.5C245.2,86.7,245.1,80,245.1,72.3z"/>
	</g>
	<g>
		<path class="st0" d="M250,271.9c-2.7,0-4.9-2.2-4.9-4.9s2.2-4.9,4.9-4.9c32.4,0,58.8-42.7,58.8-95.1c0-25.8-6.4-49.9-17.9-68.1
			c-11.1-17.4-25.6-27-40.9-27c-2.7,0-4.9-2.2-4.9-4.9s2.2-4.9,4.9-4.9c18.7,0,36.2,11.2,49.1,31.6c12.5,19.7,19.5,45.7,19.5,73.3
			s-6.9,53.7-19.4,73.3C286.2,260.7,268.8,271.9,250,271.9z"/>
	</g>
	<g>
		<path class="st0" d="M350,171.9H150c-2.7,0-4.9-2.2-4.9-4.9s2.2-4.9,4.9-4.9h200c2.7,0,4.9,2.2,4.9,4.9S352.7,171.9,350,171.9z"/>
	</g>
	<g>
		<path class="st0" d="M314.6,248.2c-0.8,0-1.5-0.2-2.3-0.6c-17.4-9.1-39.6-14-62.4-14c-22.9,0-45,5-62.3,14
			c-2.4,1.3-5.4,0.3-6.6-2.1c-1.3-2.4-0.3-5.4,2.1-6.6c18.7-9.8,42.4-15.2,66.9-15.2c24.4,0,48.2,5.4,67,15.2
			c2.4,1.2,3.3,4.2,2.1,6.6C318.1,247.2,316.4,248.2,314.6,248.2z M250,110.2c-24.4,0-48.2-5.4-67-15.2c-2.4-1.2-3.3-4.2-2.1-6.6
			s4.2-3.3,6.6-2.1c17.4,9.1,39.6,14,62.4,14c22.9,0,45-5,62.3-14c2.4-1.3,5.4-0.3,6.6,2.1c1.3,2.4,0.3,5.4-2.1,6.6
			C298.2,104.8,274.4,110.2,250,110.2z"/>
	</g>
	<g>
		<path class="st0" d="M250,271.9c-57.8,0-104.9-47.1-104.9-104.9S192.2,62.1,250,62.1S354.9,109.2,354.9,167S307.8,271.9,250,271.9
			z M250,71.9c-52.4,0-95.1,42.7-95.1,95.1s42.7,95.1,95.1,95.1s95.1-42.7,95.1-95.1S302.4,71.9,250,71.9z"/>
	</g>
</g>
<g>
	<g>
		<path class="st2" d="M0,500"/>
	</g>
	<g>
		<path class="st3" d="M0,500"/>
	</g>
	<g>
		<path class="st3" d="M0,500"/>
	</g>
	<g>
		<path class="st3" d="M0,500"/>
	</g>
	<g>
		<path class="st3" d="M0,500"/>
	</g>
	<g>
		<path class="st3" d="M0,500"/>
	</g>
	<g>
		<path class="st3" d="M0,500"/>
	</g>
	<g>
		<path class="st3" d="M0,500"/>
	</g>
	<g>
		<path class="st3" d="M0,500"/>
	</g>
	<g>
		<path class="st3" d="M0,500"/>
	</g>
	<g>
		<path class="st3" d="M0,500"/>
	</g>
	<g>
		<path class="st3" d="M0,500"/>
	</g>
</g>
</svg>
