<?xml version="1.0" encoding="utf-8"?>
<!-- Generator: Adobe Illustrator 27.5.0, SVG Export Plug-In . SVG Version: 6.00 Build 0)  -->
<svg version="1.1" id="Layer_1" xmlns="http://www.w3.org/2000/svg" xmlns:xlink="http://www.w3.org/1999/xlink" x="0px" y="0px"
	 viewBox="0 0 500 500" style="enable-background:new 0 0 500 500;" xml:space="preserve">
<style type="text/css">
	.st0{fill:#F9423A;}
</style>
<g>
	<g>
		<path class="st0" d="M251,417c-92.6,0-168-75.4-168-168S158.4,81,251,81c37.6,0,73,12.1,102.5,35l5.4,4.2L355,124l2.9,20.8
			l20.4,2.9l3.9-3.9l4.1,5.6c21.4,28.9,32.7,63.4,32.7,99.6C419,341.6,343.6,417,251,417z M251,93c-86,0-156,70-156,156
			s70,156,156,156s156-70,156-156c0-32.2-9.6-62.9-27.9-89l-31.8-4.6l-4.6-32.6C316,103.3,284.4,93,251,93z M251,371
			c-67.3,0-122-54.7-122-122s54.7-122,122-122s122,54.7,122,122S318.3,371,251,371z M251,139c-60.7,0-110,49.3-110,110
			s49.3,110,110,110s110-49.3,110-110S311.7,139,251,139z M251,323c-40.8,0-74-33.2-74-74s33.2-74,74-74s74,33.2,74,74
			S291.8,323,251,323z M251,187c-34.2,0-62,27.8-62,62s27.8,62,62,62s62-27.8,62-62S285.2,187,251,187z"/>
	</g>
	<g>
		<path class="st0" d="M251,278c-16,0-29-13-29-29s13-29,29-29s29,13,29,29S267,278,251,278z M251,232c-9.4,0-17,7.6-17,17
			s7.6,17,17,17s17-7.6,17-17S260.4,232,251,232z"/>
	</g>
	<g>
		<path class="st0" d="M251,226c-12.7,0-23,10.3-23,23c0,12.7,10.3,23,23,23c12.7,0,23-10.3,23-23S263.7,226,251,226z"/>
	</g>
	<g>
		<path class="st0" d="M253,255.9c-1.5,0-3.1-0.6-4.2-1.8c-2.3-2.3-2.3-6.1,0-8.5l100.4-100.4c2.3-2.3,6.1-2.3,8.5,0
			c2.3,2.3,2.3,6.1,0,8.5L257.2,254.1C256.1,255.3,254.5,255.9,253,255.9z"/>
	</g>
	<g>
		<path class="st0" d="M380.4,160c-0.3,0-0.6,0-0.8-0.1l-27.9-3.9c-2.7-0.4-4.7-2.5-5.1-5.1l-3.9-28.2c-0.2-1.8,0.3-3.6,1.5-4.9
			l1.2-1.3c0.1-0.1,0.1-0.1,0.2-0.2l35.6-35.5c1.6-1.6,4-2.2,6.1-1.4c2.2,0.7,3.7,2.6,4,4.9l3.3,23.5l23.6,3.5
			c2.2,0.3,4.1,1.9,4.8,4.1c0.7,2.2,0.1,4.5-1.5,6.1l-35.8,35.8c-0.1,0.1-0.1,0.1-0.2,0.2l-1.1,1C383.3,159.4,381.9,160,380.4,160z
			 M357.8,144.8l20.5,2.9l26.3-26.3l-16.2-2.4c-2.6-0.4-4.7-2.5-5.1-5.1l-2.2-16L354.9,124L357.8,144.8z"/>
	</g>
</g>
</svg>
