<?xml version="1.0" encoding="utf-8"?>
<!-- Generator: Adobe Illustrator 27.5.0, SVG Export Plug-In . SVG Version: 6.00 Build 0)  -->
<svg version="1.1" id="Layer_1" xmlns="http://www.w3.org/2000/svg" xmlns:xlink="http://www.w3.org/1999/xlink" x="0px" y="0px"
	 viewBox="0 0 500 500" style="enable-background:new 0 0 500 500;" xml:space="preserve">
<style type="text/css">
	.st0{fill:#F9423A;}
	.st1{display:none;fill:#F9423A;}
</style>
<g>
	<g>
		<g>
			<path class="st0" d="M258.6,387c-3.8,0-8.2-0.6-13.3-2c-35.9-9.8-122.1-97.5-125.8-101.2c-2.3-2.4-2.3-6.2,0.1-8.5
				c2.4-2.3,6.2-2.3,8.5,0.1c24.3,24.7,93.2,90.6,120.4,98c8,2.2,13.3,1.7,16.5,0.7c-7.3-6.6-16.5-17.1-30.3-32.7
				c-5.1-5.8-10.9-12.4-17.5-19.8c-2.2-2.5-2-6.3,0.5-8.5c2.5-2.2,6.3-2,8.5,0.5c6.6,7.4,12.4,14,17.5,19.8
				c16,18.2,25.7,29.2,32.7,34.7c6,4.7,8.4,4.3,12.1,2.3c4.3-2.3,8.5-6.8,11.6-11.1c-7.2-6.6-16.4-17.1-30.1-32.6
				c-5.1-5.8-10.9-12.4-17.5-19.8c-2.2-2.5-2-6.3,0.5-8.5c2.5-2.2,6.3-2,8.5,0.5c6.6,7.4,12.4,14,17.5,19.8
				c15.2,17.3,24.7,28.1,31.6,33.8c0.2,0.1,0.4,0.2,0.6,0.3c0.7,0.4,1.2,0.9,1.7,1.5c5.2,3.8,7.5,3.3,10.9,1.4
				c3.8-2.1,7.6-5.9,10.6-9.8c-0.7-0.5-1.5-1.1-2.2-1.7c-7.9-6.2-17.8-17.5-34.3-36.2c-5.1-5.8-10.9-12.4-17.5-19.8
				c-2.2-2.5-2-6.3,0.5-8.5c2.5-2.2,6.3-2,8.5,0.5c6.6,7.4,12.4,14,17.5,19.8c16,18.2,25.7,29.2,32.7,34.7c1.4,1.1,2.6,1.9,3.7,2.5
				c1.1,0,2.2,0.2,3.2,0.8c0.2,0.1,0.4,0.2,0.6,0.4c1.6,0.1,3-0.5,4.6-1.4c0.1,0,0.1-0.1,0.2-0.1c1-0.6,4.8-3.8,5.8-4.9
				c5.4-6.5,1.1-15.8-5.1-21.8c-18.3-17.3-58.6-53.3-82.9-73.6c-9.8,8.5-34.4,27.8-54.5,26.6c-12.4-0.8-18.5-6.9-21.4-11.9
				c-6.2-10.4-3.9-23.9,0-32.3c2.9-6.3,12.7-18.9,24.9-30.2h-67.2c-3.3,0-6-2.7-6-6c0-3.3,2.7-6,6-6h82.1c8.7-5.9,17.6-10,25.6-10.1
				c22-0.3,87.9,14.6,90.7,15.2c3.2,0.7,5.3,3.9,4.5,7.2c-0.7,3.2-4,5.3-7.2,4.5c-0.7-0.2-66.1-15-87.3-15c-0.2,0-0.4,0-0.6,0
				c-17.5,0.2-49,33.1-54.6,45.3c-2.8,6.2-3.9,15.4-0.5,21.2c2.2,3.7,6.1,5.7,11.9,6.1c16.2,1,41.2-19.1,49.5-26.9
				c2.2-2.1,5.6-2.2,7.9-0.3c23.8,19.7,68,59,87.5,77.5c0.8,0.7,1.5,1.5,2.2,2.2l18.6-15.1c2.6-2.1,6.4-1.7,8.4,0.9
				c2.1,2.6,1.7,6.4-0.9,8.4l-19.6,15.9c3.7,8.5,3.7,18.1-2.7,25.8c0,0-0.1,0.1-0.1,0.1c-1.6,1.8-6.8,6.4-9.4,7.8
				c-3.9,2.1-7.7,3-11.4,2.8c-3.4,4.8-9.2,11.9-16.5,15.8c-6.9,3.7-13,3.8-19.8,0.2c-3.4,4.7-8.9,10.9-15.5,14.5
				c-6.4,3.5-12.3,3.8-18.5,0.8C272.4,384.4,266.9,387,258.6,387z"/>
		</g>
		<g>
			<path class="st0" d="M438.8,305.7h-50c-2.5,0-4.8-1.6-5.6-4l-43.5-120.2c-0.7-2-0.3-4.2,1-5.8c0.7-0.8,16.8-20.3,54.1-28.8
				c21.5-5,43.6-3.1,44.5-3c3.1,0.3,5.5,2.9,5.5,6v149.8C444.8,303,442.1,305.7,438.8,305.7z M393,293.7h39.8V155.6
				c-7.6-0.2-21.8-0.1-35.4,3c-25.6,5.8-40,17.4-45.2,22.3L393,293.7z M118.5,305.7h-50c-3.3,0-6-2.7-6-6V149.9c0-3.2,2.5-5.9,5.8-6
				c0.9,0,22.6-0.9,44,3c31.5,5.6,44.3,13.5,44.8,13.8c2.2,1.4,3.3,4.1,2.6,6.6l-35.4,133.9C123.6,303.9,121.2,305.7,118.5,305.7z
				 M74.5,293.7h39.4l33-124.7c-5.5-2.4-17.2-6.8-36.7-10.3c-13.7-2.5-28-2.9-35.6-2.9V293.7z"/>
		</g>
		<g>
			<path class="st0" d="M117,187.9c0,5.8-4.7,10.5-10.5,10.5S96,193.7,96,187.9s4.7-10.5,10.5-10.5S117,182.1,117,187.9z
				 M390.2,187.9c0,5.8,4.7,10.5,10.5,10.5s10.5-4.7,10.5-10.5s-4.7-10.5-10.5-10.5S390.2,182.1,390.2,187.9z"/>
		</g>
	</g>
	<g>
		<g>
			<g>
				<path class="st1" d="M0,500"/>
			</g>
		</g>
		<g>
			<g>
				<path class="st0" d="M0,500"/>
			</g>
		</g>
		<g>
			<g>
				<path class="st0" d="M0,500"/>
			</g>
		</g>
		<g>
			<g>
				<path class="st0" d="M0,500"/>
			</g>
		</g>
		<g>
			<g>
				<path class="st0" d="M0,500"/>
			</g>
		</g>
		<g>
			<g>
				<path class="st0" d="M0,500"/>
			</g>
		</g>
		<g>
			<g>
				<path class="st0" d="M0,500"/>
			</g>
		</g>
		<g>
			<g>
				<path class="st0" d="M0,500"/>
			</g>
		</g>
		<g>
			<g>
				<path class="st0" d="M0,500"/>
			</g>
		</g>
		<g>
			<g>
				<path class="st0" d="M0,500"/>
			</g>
		</g>
		<g>
			<g>
				<path class="st0" d="M0,500"/>
			</g>
		</g>
		<g>
			<g>
				<path class="st0" d="M0,500"/>
			</g>
		</g>
	</g>
</g>
</svg>
