<?xml version="1.0" encoding="utf-8"?>
<!-- Generator: Adobe Illustrator 27.5.0, SVG Export Plug-In . SVG Version: 6.00 Build 0)  -->
<svg version="1.1" id="Layer_1" xmlns="http://www.w3.org/2000/svg" xmlns:xlink="http://www.w3.org/1999/xlink" x="0px" y="0px"
	 viewBox="0 0 500 500" style="enable-background:new 0 0 500 500;" xml:space="preserve">
<style type="text/css">
	.st0{fill:#F9423A;}
	.st1{display:none;fill:none;stroke:#F9423A;stroke-width:12;stroke-linecap:round;stroke-linejoin:round;}
	.st2{fill:none;stroke:#F9423A;stroke-width:12;stroke-linecap:round;stroke-linejoin:round;}
</style>
<g>
	<g>
		<path class="st0" d="M406.8,374.2l-17.7-26.4l-10.5-32.5l-15.5-55.4c-2.1-7.1-7.1-13.2-13.6-16.6c-0.3-0.1-0.5-0.2-0.8-0.3
			l-28.5-9.9V113c0-16-13.1-29.1-29.1-29.1h-106c-16,0-29.1,13.1-29.1,29.1v222.1c0,16,13.1,29.1,29.1,29.1H237l53.9,49.8l17.4,26.2
			c0.9,1.3,2.2,2.2,3.8,2.5c0.4,0.1,0.8,0.1,1.2,0.1c1.2,0,2.3-0.3,3.5-1.1l88.4-59.2C407.9,380.7,408.6,377,406.8,374.2z
			 M238.1,352.2h-53c-9.4,0-17.1-7.7-17.1-17.1V113c0-9.4,7.7-17.1,17.1-17.1h106c9.4,0,17.1,7.7,17.1,17.1v115.5l-27-10.5
			c-0.2,0-0.3-0.1-0.4-0.1c-1.9-0.6-4.7-0.9-7.1-1.2c-0.1,0-0.2,0-0.2,0c-0.4-0.1-0.9-0.1-1.3-0.1c-11.7,0-22.1,7.5-25.9,18.5
			c-2.3,6.9-1.8,14.3,1.4,20.8c3.3,6.6,8.9,11.4,15.7,13.7l44.8,15.4v50.1c0,9.4-7.7,17.1-17.1,17.1h-50.8
			C239.6,352.1,238.8,352.1,238.1,352.2z M254.6,364.2H291c16,0,29.1-13.1,29.1-29.1v-54.3c0-0.4,0-0.8-0.1-1.2
			c-0.1-0.9-0.5-1.7-1-2.4s-1.1-1.3-1.9-1.7c-0.3-0.2-0.7-0.4-1.1-0.5l-48.7-16.9c-3.9-1.2-7-4-8.8-7.6c-1.8-3.6-2.1-7.8-0.8-11.6
			c2.1-6,7.7-10.1,14.1-10.3c0.2,0.1,0.3,0.1,0.5,0.1c2.9,0.3,4.2,0.6,4.7,0.7l34.9,13.5c0.2,0.1,0.3,0.1,0.5,0.2l31.9,11.1
			c3.5,1.9,6.1,5.2,7.2,9.1l15.5,55.4c0.1,0.1,0.1,0.1,0.1,0.2l9.4,29.2c-12.8,8.6-55.1,37-80.8,54.1L254.6,364.2z M314.9,428.5
			l-11.4-17.1c25-16.7,64.6-43.2,78.4-52.4l11.4,17L314.9,428.5z"/>
		<path class="st0" d="M257.4,123h-38.7c-3.3,0-6-2.7-6-6s2.7-6,6-6h38.7c3.3,0,6,2.7,6,6S260.7,123,257.4,123z"/>
	</g>
	<g>
		<g>
			<path class="st1" d="M0,500"/>
		</g>
		<g>
			<path class="st2" d="M0,500"/>
		</g>
		<g>
			<path class="st2" d="M0,500"/>
		</g>
		<g>
			<path class="st2" d="M0,500"/>
		</g>
		<g>
			<path class="st2" d="M0,500"/>
		</g>
		<g>
			<path class="st2" d="M0,500"/>
		</g>
		<g>
			<path class="st2" d="M0,500"/>
		</g>
		<g>
			<path class="st2" d="M0,500"/>
		</g>
		<g>
			<path class="st2" d="M0,500"/>
		</g>
		<g>
			<path class="st2" d="M0,500"/>
		</g>
		<g>
			<path class="st2" d="M0,500"/>
		</g>
		<g>
			<path class="st2" d="M0,500"/>
		</g>
	</g>
</g>
</svg>
