<?xml version="1.0" encoding="iso-8859-1"?>
<!-- Generator: Adobe Illustrator 29.6.1, SVG Export Plug-In . SVG Version: 9.03 Build 0)  -->
<svg version="1.1" id="Layer_1" xmlns="http://www.w3.org/2000/svg" xmlns:xlink="http://www.w3.org/1999/xlink" x="0px" y="0px"
	 viewBox="0 0 500 500" style="enable-background:new 0 0 500 500;" xml:space="preserve">
<g>
	<path style="fill:#F9423A;" d="M283.428,431.001c-0.396,0-0.797-0.039-1.2-0.121c-3.247-0.659-5.346-3.827-4.686-7.074
		l20.851-102.649H168.169l-21.336,105.038c-0.659,3.248-3.825,5.348-7.074,4.686c-3.248-0.659-5.345-3.827-4.686-7.074
		l20.851-102.649H80.469c-3.313,0-6-2.687-6-6s2.687-6,6-6h77.892l26.254-129.25h-76.802c-3.313,0-6-2.687-6-6s2.687-6,6-6h79.24
		l19.114-94.101c0.66-3.247,3.826-5.346,7.074-4.686s5.345,3.827,4.686,7.074l-18.629,91.712h130.224l19.114-94.101
		c0.66-3.247,3.82-5.346,7.074-4.686c3.247,0.66,5.346,3.827,4.686,7.074l-18.629,91.712h77.764c3.313,0,6,2.687,6,6s-2.687,6-6,6
		H339.33l-26.254,129.25h79.112c3.313,0,6,2.687,6,6s-2.687,6-6,6h-81.55l-21.336,105.038
		C288.724,429.039,286.223,431.001,283.428,431.001z M170.607,309.156H300.83l26.254-129.25H196.861L170.607,309.156z"/>
</g>
</svg>
