<?xml version="1.0" encoding="utf-8"?>
<!-- Generator: Adobe Illustrator 27.5.0, SVG Export Plug-In . SVG Version: 6.00 Build 0)  -->
<svg version="1.1" id="Layer_1" xmlns="http://www.w3.org/2000/svg" xmlns:xlink="http://www.w3.org/1999/xlink" x="0px" y="0px"
	 viewBox="0 0 500 500" style="enable-background:new 0 0 500 500;" xml:space="preserve">
<style type="text/css">
	.st0{clip-path:url(#SVGID_00000028287746697360618220000007361253241280149406_);}
	.st1{fill:#F9423A;}
	.st2{fill:none;stroke:#F9423A;stroke-width:12;stroke-linecap:round;stroke-linejoin:round;}
</style>
<g>
	<g>
		<g>
			<defs>
				<rect id="SVGID_1_" width="500" height="500"/>
			</defs>
			<clipPath id="SVGID_00000029745832159890234960000015234304304940673695_">
				<use xlink:href="#SVGID_1_"  style="overflow:visible;"/>
			</clipPath>
			<g style="clip-path:url(#SVGID_00000029745832159890234960000015234304304940673695_);">
				<g>
					<path class="st1" d="M175.1,416.1h-38.5c-3.3,0-6-2.7-6-6V89.9c0-3.3,2.7-6,6-6h38.5c3.3,0,6,2.7,6,6v320.2
						C181.1,413.4,178.4,416.1,175.1,416.1z M142.6,404.1h26.5V95.9h-26.5V404.1z"/>
				</g>
				<g>
					<g>
						<path class="st1" d="M363.8,416c-2.5,0-4.9-1.6-5.7-4.1c-0.4-1.3-0.4-2.6,0-3.8l-0.1-78.4c0-3.3,2.7-6,6-6l0,0
							c3.3,0,6,2.7,6,6l0.1,80.2c0,2.6-1.7,4.9-4.1,5.7l-0.3,0.1C365.1,415.9,364.4,416,363.8,416z M363.8,183.4L363.8,183.4
							c-3.3,0-6-2.7-6-6l0.4-85.7c-1-3.1,0.7-6.5,3.8-7.5l0.3-0.1c1.8-0.6,3.8-0.3,5.4,0.8c1.6,1.1,2.5,3,2.5,4.9l-0.4,87.7
							C369.8,180.7,367.1,183.4,363.8,183.4z"/>
					</g>
					<g>
						<path class="st1" d="M364.4,334.9c-1.8,0-3.6-0.8-4.8-2.3c-2-2.6-1.5-6.4,1.1-8.4l21.5-16.6c0.2-0.1,0.3-0.2,0.5-0.4
							c4.5-2.8,7.3-7.8,7.3-13V212c0-5.3-2.7-10.2-7.3-13c-0.2-0.1-0.3-0.2-0.5-0.4L360.7,182c-2.6-2-3.1-5.8-1.1-8.4
							c2-2.6,5.8-3.1,8.4-1.1l21.3,16.4c7.9,5,12.7,13.6,12.7,23v82.2c0,9.3-4.8,18.1-12.7,23L368,333.5
							C367,334.5,365.7,334.9,364.4,334.9z"/>
					</g>
				</g>
				<g>
					<g>
						<path class="st1" d="M280.4,334.8h-25.2c-3.3,0-6-2.7-6-6V308h-20.8c-3.3,0-6-2.7-6-6v-25.2c0-3.3,2.7-6,6-6h20.8V250
							c0-3.3,2.7-6,6-6h25.2c3.3,0,6,2.7,6,6v20.8h20.8c3.3,0,6,2.7,6,6V302c0,3.3-2.7,6-6,6h-20.8v20.8
							C286.4,332.1,283.7,334.8,280.4,334.8z M261.2,322.8h13.2V302c0-3.3,2.7-6,6-6h20.8v-13.2h-20.8c-3.3,0-6-2.7-6-6V256h-13.2
							v20.8c0,3.3-2.7,6-6,6h-20.8V296h20.8c3.3,0,6,2.7,6,6V322.8z"/>
					</g>
					<g>
						<path class="st1" d="M364.2,416H175.9c-3.3,0-6-2.7-6-6s2.7-6,6-6h182.3V95.7H175.9c-3.3,0-6-2.7-6-6s2.7-6,6-6h188.3
							c3.3,0,6,2.7,6,6V410C370.2,413.3,367.5,416,364.2,416z M312.5,175.6H223c-4.7,0-8.5-3.8-8.5-8.5v-28.5c0-4.7,3.8-8.5,8.5-8.5
							h89.5c4.7,0,8.5,3.8,8.5,8.5v28.5C321,171.8,317.2,175.6,312.5,175.6z M226.5,163.6H309v-21.5h-82.5V163.6z"/>
					</g>
				</g>
				<g>
					<path class="st2" d="M0,500"/>
				</g>
			</g>
		</g>
	</g>
</g>
</svg>
