<?xml version="1.0" encoding="utf-8"?>
<!-- Generator: Adobe Illustrator 27.5.0, SVG Export Plug-In . SVG Version: 6.00 Build 0)  -->
<svg version="1.1" id="Layer_1" xmlns="http://www.w3.org/2000/svg" xmlns:xlink="http://www.w3.org/1999/xlink" x="0px" y="0px"
	 viewBox="0 0 500 500" style="enable-background:new 0 0 500 500;" xml:space="preserve">
<style type="text/css">
	.st0{clip-path:url(#SVGID_00000008126820182824673100000017122314135656293771_);}
	.st1{fill:#F9423A;}
	.st2{fill:none;stroke:#F9423A;stroke-width:12;stroke-linecap:round;stroke-linejoin:round;}
</style>
<g>
	<g>
		<g>
			<defs>
				<rect id="SVGID_1_" width="500" height="500"/>
			</defs>
			<clipPath id="SVGID_00000060720966041234277200000009607201021606713760_">
				<use xlink:href="#SVGID_1_"  style="overflow:visible;"/>
			</clipPath>
			<g style="clip-path:url(#SVGID_00000060720966041234277200000009607201021606713760_);">
				<g>
					<g>
						<path class="st1" d="M203.2,89.9c5.7,0,10.8,2.2,12.4,5.4l3,5.9c1.3,2.5,5.3,4.3,9.8,4.3h43.1c4.5,0,8.5-1.7,9.8-4.3l3-5.9
							c1.6-3.2,6.7-5.4,12.4-5.4"/>
					</g>
					<g>
						<path class="st1" d="M271.5,111.5h-43.1c-6.8,0-12.7-3-15.1-7.5l-3-5.9c-0.4-0.6-3-2.1-7.1-2.1c-3.3,0-6-2.7-6-6s2.7-6,6-6
							c8.1,0,15.1,3.4,17.8,8.7l2.9,5.7c0.4,0.4,2,1.2,4.5,1.2h43.1c2.5,0,4.1-0.8,4.5-1.1l2.9-5.8c2.6-5.3,9.6-8.7,17.7-8.7
							c3.3,0,6,2.7,6,6s-2.7,6-6,6c-4,0-6.6,1.5-7.1,2.1l-3,5.9C284.3,108.6,278.5,111.5,271.5,111.5z M275.9,98.5L275.9,98.5
							L275.9,98.5z M276.1,98.3L276.1,98.3L276.1,98.3z"/>
					</g>
					<g>
						<path class="st1" d="M324.7,416.1H175.3c-9.9,0-18-8.1-18-18V101.9c0-9.9,8.1-18,18-18h149.5c9.9,0,18,8.1,18,18v296.2
							C342.7,408.1,334.5,416.1,324.7,416.1z M175.3,95.9c-3.3,0-6,2.7-6,6v296.2c0,3.3,2.7,6,6,6h149.4c3.3,0,6-2.7,6.1-6.1V101.9
							c0-3.3-2.7-6-6-6C324.8,95.9,175.3,95.9,175.3,95.9z M283.6,327.5h-67.2c-12.4,0-22.5-10.1-22.5-22.5s10.1-22.5,22.5-22.5
							h67.2c12.4,0,22.5,10.1,22.5,22.5S296,327.5,283.6,327.5z M216.4,294.5c-5.8,0-10.5,4.7-10.5,10.5s4.7,10.5,10.5,10.5h67.2
							c5.8,0,10.5-4.7,10.5-10.5s-4.7-10.5-10.5-10.5H216.4z"/>
					</g>
					<g>
						<path class="st1" d="M289.8,396.5h-79.5c-3.3,0-6-2.7-6-6s2.7-6,6-6h79.5c3.3,0,6,2.7,6,6S293.1,396.5,289.8,396.5z
							 M262.7,255.4h-25.2c-3.3,0-6-2.7-6-6v-20.8h-20.8c-3.3,0-6-2.7-6-6v-25.2c0-3.3,2.7-6,6-6h20.8v-20.8c0-3.3,2.7-6,6-6h25.2
							c3.3,0,6,2.7,6,6v20.8h20.8c3.3,0,6,2.7,6,6v25.2c0,3.3-2.7,6-6,6h-20.8v20.8C268.7,252.7,266,255.4,262.7,255.4z
							 M243.5,243.4h13.2v-20.8c0-3.3,2.7-6,6-6h20.8v-13.2h-20.8c-3.3,0-6-2.7-6-6v-20.8h-13.2v20.8c0,3.3-2.7,6-6,6h-20.8v13.2
							h20.8c3.3,0,6,2.7,6,6L243.5,243.4L243.5,243.4z"/>
					</g>
				</g>
				<g>
					<path class="st2" d="M0,500"/>
				</g>
			</g>
		</g>
	</g>
</g>
</svg>
