<?xml version="1.0" encoding="utf-8"?>
<!-- Generator: Adobe Illustrator 27.5.0, SVG Export Plug-In . SVG Version: 6.00 Build 0)  -->
<svg version="1.1" id="Layer_1" xmlns="http://www.w3.org/2000/svg" xmlns:xlink="http://www.w3.org/1999/xlink" x="0px" y="0px"
	 viewBox="0 0 500 500" style="enable-background:new 0 0 500 500;" xml:space="preserve">
<style type="text/css">
	.st0{fill:#F9423A;}
	.st1{fill:none;stroke:#F9423A;stroke-width:12;stroke-linecap:round;stroke-linejoin:round;}
</style>
<g>
	<g>
		<path class="st0" d="M409.4,146.9h-88.8c-3.3,0-6-2.7-6-6s2.7-6,6-6h88.8c3.3,0,6,2.7,6,6S412.7,146.9,409.4,146.9z M173.7,146.9
			L173.7,146.9H91.1c-3.3,0-6-2.7-6-6v-29c0-15.7,12.7-28.4,28.4-28.4h65c2,0,3.8,1,4.9,2.6c1.1,1.6,1.4,3.7,0.7,5.5
			c-2.7,7.4-4.9,16-6,23.5c-1.1,8-0.7,16.1,1.3,24c0.2,0.6,0.3,1.2,0.3,1.8C179.7,144.2,177,146.9,173.7,146.9z M97.1,134.9h69.3
			c-1.1-7.1-1.1-14.4-0.1-21.5l0,0c0.9-5.8,2.2-11.9,4-17.8h-56.7c-9,0-16.4,7.4-16.4,16.4L97.1,134.9L97.1,134.9z"/>
	</g>
	<g>
		<path class="st0" d="M168.9,121.3h-0.1c-3.3,0-6-2.7-6-6s2.7-6,6-6h0.1c3.3,0,6,2.7,6,6S172.2,121.3,168.9,121.3z M145.4,121.3
			h-0.1c-3.3,0-6-2.7-6-6s2.7-6,6-6h0.1c3.3,0,6,2.7,6,6S148.7,121.3,145.4,121.3z M119.6,121.2L119.6,121.2c-3.4,0-6.1-2.7-6.1-6
			s2.7-6,6-6h0.1c3.3,0,6,2.7,6,6S122.9,121.2,119.6,121.2z"/>
	</g>
	<g>
		<path class="st0" d="M245.2,415.2c-2.8,0-5.2-1.9-5.9-4.7L210.2,278c-0.7-3.2,1.3-6.4,4.6-7.1c3.2-0.7,6.4,1.3,7.1,4.6l27.5,125.4
			L278,275.4c0.7-3.2,4-5.2,7.2-4.5s5.3,4,4.5,7.2l-30.1,132.2c-0.7,3.2-4,5.2-7.2,4.5c-1.1-0.3-2.1-0.8-2.8-1.5
			c-0.8,0.9-1.9,1.6-3.2,1.8C246.1,415.2,245.6,415.2,245.2,415.2z"/>
	</g>
	<g>
		<path class="st0" d="M324.1,328.1c-3.3,0-6-2.7-6-6v-38.7c0-3.3,2.7-6,6-6s6,2.7,6,6v38.7C330.1,325.4,327.4,328.1,324.1,328.1z"
			/>
	</g>
	<g>
		<path class="st0" d="M324.1,359c-11.9,0-21.5-9.6-21.5-21.5s9.6-21.5,21.5-21.5s21.5,9.6,21.5,21.5S336,359,324.1,359z M324.1,328
			c-5.2,0-9.5,4.3-9.5,9.5s4.3,9.5,9.5,9.5c5.3,0,9.5-4.2,9.5-9.5S329.4,328,324.1,328z"/>
	</g>
	<g>
		<path class="st0" d="M176,341c-3.3,0-6-2.7-6-6v-51.7c0-3.3,2.7-6,6-6s6,2.7,6,6V335C182,338.3,179.3,341,176,341z"/>
	</g>
	<g>
		<path class="st0" d="M159.1,382.4c-1.7,0-3.2-0.7-4.3-1.8c-1.1-1.1-1.8-2.6-1.8-4.3c0-0.4,0-0.7,0.1-1.1L153,349
			c0-11,10.3-20,23-20s23,9,23,20l-0.1,27.3v0.1l0,0l0,0l0,0c-0.1,2.9-2.1,5.2-4.8,5.8l0,0l0,0l0,0l0,0c-0.4,0.1-0.7,0.1-1.1,0.1
			l0,0h-4.6c-3.3,0-6-2.7-6-6c0-2.8,2-5.2,4.6-5.8V349c0-4.3-5-8-11-8s-11,3.7-11,8l0.1,21.5c2.6,0.6,4.6,3,4.6,5.8c0,3.3-2.7,6-6,6
			h-3.5C159.8,382.4,159.5,382.4,159.1,382.4z"/>
	</g>
	<g>
		<path class="st0" d="M250,316.6c-22,0-39.9-17.9-39.9-39.9v-18.9c0-3.3,2.7-6,6-6s6,2.7,6,6v18.9c0,15.4,12.5,27.9,27.9,27.9
			s27.9-12.5,27.9-27.9v-18.9c0-3.3,2.7-6,6-6s6,2.7,6,6v18.9C289.9,298.7,272,316.6,250,316.6z"/>
	</g>
	<g>
		<path class="st0" d="M125.5,416.3c-3.3,0-6-2.7-6-6v-50.6c0-49.1,39.9-89,89-89h7.6c3.3,0,6,2.7,6,6s-2.7,6-6,6h-7.6
			c-42.5,0-77,34.5-77,77v50.6C131.5,413.6,128.8,416.3,125.5,416.3z M374.4,415.4L374.4,415.4c-3.3,0-6-2.7-6-6l0.1-49.7
			c0-42.4-34.5-77-77-77h-7.6c-3.3,0-6-2.7-6-6s2.7-6,6-6h7.6c49.1,0,89,39.9,89,89l-0.1,49.7C380.4,412.7,377.7,415.4,374.4,415.4z
			 M250,274c-17.1,0-33.3-6.5-45.6-18.4s-19.4-27.8-20-44.9l-1.1-40.1c-0.1-3.3,2.5-6.1,5.8-6.2c3.3-0.1,6.1,2.5,6.2,5.8l1.1,40.1
			c1,29,24.5,51.7,53.6,51.7s52.6-22.7,53.6-51.7l1.3-37.1c0.1-3.3,2.9-5.9,6.2-5.8c3.3,0.1,5.9,2.9,5.8,6.2l-1.3,37.1
			c-0.6,17.1-7.7,33-20,44.9C283.3,267.5,267.1,274,250,274z"/>
	</g>
	<g>
		<path class="st0" d="M189.2,176.6c-1.6,0-3.2-0.6-4.4-1.9c-0.5-0.5-11.8-12.8-16.8-32.3c-0.8-3.2,1.1-6.5,4.3-7.3s6.5,1.1,7.3,4.3
			c4.2,16.4,13.9,27,14,27.1c2.2,2.4,2.1,6.2-0.3,8.5C192.1,176.1,190.7,176.6,189.2,176.6z"/>
	</g>
	<g>
		<path class="st0" d="M389,415.8H113.6c-15.7,0-28.4-12.7-28.4-28.4V140.9c0-3.3,2.7-6,6-6h75.2c-1.1-7.3-1.2-14.5-0.1-21.6
			c1.2-8.4,3.6-17.6,6.6-25.9c1.6-4.4,4.1-10.6,7.3-15.1c3-4.3,7.4-7.1,12.6-7.9c5.1-0.8,10.3,0.4,14.5,3.5l15.8,11.3
			c2.4,1.7,5.4,2,8.1,0.8c11.8-5.4,35.3-13.6,58.9-7.8c0.1,0,0.1,0,0.2,0c0.5,0.1,11.1,3.1,20.1,11.4H389
			c15.7,0,28.4,12.7,28.4,28.4v275.4C417.4,403.1,404.7,415.8,389,415.8z M97.2,146.9v240.5c0,9,7.4,16.4,16.4,16.4H389
			c9,0,16.4-7.4,16.4-16.4V112c0-9-7.4-16.4-16.4-16.4h-80.9c-1.6,0-3.2-0.7-4.3-1.8c-6.8-6.9-15.7-9.7-16.5-10
			c-20.8-5-42.7,3.3-51.1,7.2c-6.6,2.9-14.2,2.1-19.9-2l-15.9-11.3l-0.1-0.1c-1.6-1.2-3.5-1.7-5.4-1.4c-1.9,0.3-3.5,1.4-4.6,3
			c0,0,0,0.1-0.1,0.1c-1.9,2.6-3.9,6.9-5.8,12.2c-2.7,7.5-4.9,16-6,23.6c-1.2,8-0.8,16,1.4,24.3c0.5,1.8,0.1,3.7-1.1,5.2
			c-1.1,1.5-2.9,2.3-4.7,2.3L97.2,146.9L97.2,146.9z"/>
	</g>
	<g>
		<path class="st0" d="M310.9,180.1c-0.3,0-0.7,0-1-0.1c-2.2-0.4-4.1-2-4.7-4.2c-1.2-4-2.1-7.9-3-11.7c-3.3-14.6-6.5-28.5-26-44.2
			c-17.1,33.7-49.8,55.3-86.9,56.8c-3.3,0.1-6.1-2.4-6.2-5.8c-0.1-3.3,2.4-6.1,5.8-6.2c35.4-1.4,65.1-22.6,79.5-56.4
			c0.7-1.7,2.1-2.9,3.9-3.4s3.6-0.2,5.1,0.9c25.1,17.9,31.4,34.7,35.1,49.9c1.1-4.5,1.9-9.6,2.2-15.1c1-16.6-2-34.4-7.1-42.2
			c-1-1.6-2.2-3.1-3.6-4.4c-2.3-2.3-2.3-6.1,0-8.5c2.3-2.3,6.1-2.3,8.5,0c2,2,3.7,4.1,5.2,6.4c6.6,10.1,10.3,30,9.1,49.5
			c-0.7,10.8-3.1,25.8-11,36.4C314.6,179.2,312.8,180.1,310.9,180.1z"/>
	</g>
	<g>
		<path class="st1" d="M0,500"/>
	</g>
</g>
</svg>
