<?xml version="1.0" encoding="utf-8"?>
<!-- Generator: Adobe Illustrator 27.5.0, SVG Export Plug-In . SVG Version: 6.00 Build 0)  -->
<svg version="1.1" id="Layer_1" xmlns="http://www.w3.org/2000/svg" xmlns:xlink="http://www.w3.org/1999/xlink" x="0px" y="0px"
	 viewBox="0 0 500 500" style="enable-background:new 0 0 500 500;" xml:space="preserve">
<style type="text/css">
	.st0{fill:#F9423A;}
	.st1{fill:none;}
</style>
<g>
	<g>
		<path class="st0" d="M250.1,416c-1.6,0-3.1-0.6-4.2-1.8l-145-145c-42.3-42.3-42.3-111,0-153.3c20.5-20.5,47.7-31.8,76.6-31.8
			c27,0,52.6,9.8,72.5,27.8c23-20.8,53.6-30.7,84.7-27.2c24.8,2.8,47.1,13.5,64.5,31.1c20.5,20.5,31.7,47.7,31.7,76.6
			s-11.3,56.2-31.8,76.6L254.3,414C253.2,415.4,251.7,416,250.1,416L250.1,416z M177.5,96.2c-25.7,0-49.9,10-68.2,28.2
			c-37.6,37.6-37.6,98.7,0,136.3l140.8,140.8l140.6-140.8l0,0c18.2-18.2,28.2-42.4,28.2-68.2s-10-49.9-28.2-68.2
			c-15.5-15.6-35.3-25.2-57.3-27.7c-29.4-3.3-58.1,6.7-79,27.7l-0.1,0.1c-2.3,2.3-6.1,2.3-8.5,0l-0.1-0.1
			C227.4,106.2,203.2,96.2,177.5,96.2z"/>
		<path class="st0" d="M103.8,185.6c-0.3,0-0.6,0-1-0.1c-3.3-0.5-5.5-3.6-5-6.9c2.5-15.4,10.5-30,23.9-43.4
			c16.8-16.8,35.7-24.4,61.1-24.4c9.8,0,21,3.3,33.3,9.7c2.9,1.5,4.1,5.2,2.5,8.1c-1.6,2.9-5.2,4.1-8.1,2.5
			c-10.5-5.5-19.8-8.3-27.7-8.3c-22.3,0-38,6.2-52.7,20.8c-11.6,11.6-18.5,23.9-20.5,36.8C109.3,183.5,106.7,185.6,103.8,185.6z"/>
	</g>
	<path class="st1" d="M0,500"/>
</g>
</svg>
