<?xml version="1.0" encoding="iso-8859-1"?>
<!-- Generator: Adobe Illustrator 29.6.1, SVG Export Plug-In . SVG Version: 9.03 Build 0)  -->
<svg version="1.1" id="Layer_1" xmlns="http://www.w3.org/2000/svg" xmlns:xlink="http://www.w3.org/1999/xlink" x="0px" y="0px"
	 viewBox="0 0 500 500" style="enable-background:new 0 0 500 500;" xml:space="preserve">
<g>
	<path style="fill:#F9423A;" d="M396.8,402.75h-66.7c-3.313,0-6-2.687-6-6s2.687-6,6-6h60.7v-191.2c0-3.313,2.687-6,6-6s6,2.687,6,6
		v197.2C402.8,400.063,400.113,402.75,396.8,402.75z M169.9,402.75h-66.7c-3.313,0-6-2.687-6-6v-197.2c0-3.313,2.687-6,6-6
		s6,2.687,6,6v191.2h60.7c3.313,0,6,2.687,6,6S173.213,402.75,169.9,402.75z M356.8,171.55c-3.313,0-6-2.687-6-6v-69.6h-41.4v25.1
		c0,3.313-2.687,6-6,6s-6-2.687-6-6v-31.1c0-3.313,2.687-6,6-6h53.4c3.313,0,6,2.687,6,6v75.6
		C362.8,168.863,360.113,171.55,356.8,171.55z"/>
</g>
<g>
	<path style="fill:#F9423A;" d="M423.497,227.15c-1.354,0-2.717-0.456-3.839-1.391L250,84.36L80.341,225.759
		c-2.545,2.123-6.329,1.779-8.45-0.768c-2.122-2.545-1.778-6.329,0.768-8.45l173.5-144.6c2.225-1.854,5.457-1.854,7.683,0
		l173.5,144.6c2.545,2.121,2.889,5.905,0.768,8.45C426.923,226.415,425.216,227.15,423.497,227.15z"/>
</g>
<g>
	<path style="fill:#F9423A;" d="M290.1,356.149H210c-3.313,0-6-2.687-6-6s2.687-6,6-6h80.1c3.313,0,6,2.687,6,6
		S293.413,356.149,290.1,356.149z M290.1,322.75H210c-3.313,0-6-2.687-6-6s2.687-6,6-6h80.1c3.313,0,6,2.687,6,6
		S293.413,322.75,290.1,322.75z"/>
</g>
<g>
	<path style="fill:#F9423A;" d="M290,389.45h-40c-3.313,0-6-2.687-6-6s2.687-6,6-6h40c3.313,0,6,2.687,6,6
		S293.313,389.45,290,389.45z"/>
</g>
<g>
	<path style="fill:#F9423A;" d="M330.1,429.45H170c-3.313,0-6-2.687-6-6v-226.8c0-3.313,2.687-6,6-6h93.4c3.313,0,6,2.687,6,6
		s-2.687,6-6,6H176v214.8h148.1V263.349c0-3.313,2.687-6,6-6s6,2.687,6,6V423.45C336.1,426.764,333.413,429.45,330.1,429.45z"/>
</g>
<g>
	<path style="fill:#F9423A;" d="M330,269.349h-66.7c-3.313,0-6-2.687-6-6v-66.7c0-2.427,1.462-4.615,3.704-5.543
		c2.239-0.929,4.821-0.416,6.538,1.301l66.7,66.7c1.717,1.716,2.229,4.296,1.301,6.538S332.427,269.349,330,269.349z M269.3,257.349
		h46.215L269.3,211.135V257.349z"/>
</g>
</svg>
