<?xml version="1.0" encoding="iso-8859-1"?>
<!-- Generator: Adobe Illustrator 29.6.1, SVG Export Plug-In . SVG Version: 9.03 Build 0)  -->
<svg version="1.1" id="Layer_1" xmlns="http://www.w3.org/2000/svg" xmlns:xlink="http://www.w3.org/1999/xlink" x="0px" y="0px"
	 viewBox="0 0 500 500" style="enable-background:new 0 0 500 500;" xml:space="preserve">
<g>
	<path style="fill:#F9423A;" d="M190,316H90c-3.313,0-6-2.687-6-6V90c0-3.313,2.687-6,6-6h220c3.313,0,6,2.687,6,6v100
		c0,3.313-2.687,6-6,6s-6-2.687-6-6V96H96v208h94c3.313,0,6,2.687,6,6S193.313,316,190,316z"/>
</g>
<g>
	<path style="fill:#F9423A;" d="M410,416H190c-3.313,0-6-2.687-6-6V310c0-3.313,2.687-6,6-6s6,2.687,6,6v94h208V196h-94
		c-3.313,0-6-2.687-6-6s2.687-6,6-6h100c3.313,0,6,2.687,6,6v220C416,413.313,413.313,416,410,416z"/>
</g>
<g>
	<path style="fill:#F9423A;" d="M190,190v-6c-3.314,0-6,2.686-6,6H190z M310,190h6v-6h-6V190z M310,310v6c3.314,0,6-2.686,6-6H310z
		 M190,310h-6v6h6V310z M190,196h120v-12H190V196z M304,190v120h12V190H304z M310,304H190v12h120V304z M196,310V190h-12v120H196z"/>
</g>
</svg>
