<?xml version="1.0" encoding="utf-8"?>
<!-- Generator: Adobe Illustrator 27.5.0, SVG Export Plug-In . SVG Version: 6.00 Build 0)  -->
<svg version="1.1" id="Layer_1" xmlns="http://www.w3.org/2000/svg" xmlns:xlink="http://www.w3.org/1999/xlink" x="0px" y="0px"
	 viewBox="0 0 500 500" style="enable-background:new 0 0 500 500;" xml:space="preserve">
<style type="text/css">
	.st0{fill:#F9423A;}
	.st1{fill:none;stroke:#F9423A;stroke-width:12;stroke-linecap:round;stroke-linejoin:round;}
</style>
<g>
	<g>
		<path class="st0" d="M313,369.4H133.1c-22.6,0-41-18.4-41-41V164.6c0-22.6,18.4-41,41-41h56.3v-19.4c0-11.2,9.1-20.3,20.3-20.3
			h80.7c11.2,0,20.3,9.1,20.3,20.3v19.4h56.2c10.9,0,21.2,4.3,29,12.1c7.7,7.8,12,18.1,11.9,28.9v161.6c0,2-1,3.9-2.7,5
			s-3.8,1.3-5.7,0.5l-49.8-21.8l-72.2,31.4l38,16.5c2.6,1.1,4.1,3.9,3.5,6.7S315.8,369.4,313,369.4z M133.1,135.6c-16,0-29,13-29,29
			v163.8c0,16,13,29,29,29h151.1L260,346.9c-2.2-1-3.6-3.1-3.6-5.5s1.4-4.5,3.6-5.5l87.2-38c1.5-0.7,3.3-0.7,4.8,0l43.8,19.1V164.6
			c0-7.7-3-14.9-8.4-20.4c-5.5-5.5-12.8-8.6-20.5-8.6H133.1z M201.4,123.6h97.3v-19.4c0-4.6-3.7-8.3-8.3-8.3h-80.7
			c-4.6,0-8.3,3.7-8.3,8.3L201.4,123.6L201.4,123.6z"/>
	</g>
	<g>
		<path class="st0" d="M286.6,305.4h-73.2c-3.3,0-6-2.7-6-6V270H98.1c-3.3,0-6-2.7-6-6s2.7-6,6-6h303.8c3.3,0,6,2.7,6,6s-2.7,6-6,6
			H292.6v29.4C292.6,302.7,289.9,305.4,286.6,305.4z M219.4,293.4h61.2V270h-61.2L219.4,293.4L219.4,293.4z"/>
	</g>
	<g>
		<g>
			<path class="st0" d="M436.9,395.4c-1.5,0-3.1-0.6-4.2-1.8c-1.9-1.9-1.9-2.4-1.9-13.3c0-5.3,0-12.4,0.1-19.5
				c0-7.1,0.1-14.1,0.1-19.4c0-3.3,2.7-6,6-6s6,2.7,6,6c0,5.3,0,12.4-0.1,19.5c-0.1,11.1-0.2,24.8,0,27.4c0.3,1.9-0.2,3.9-1.7,5.3
				C440,394.8,438.4,395.4,436.9,395.4z M442.8,388.5L442.8,388.5L442.8,388.5z M441.4,385.4L441.4,385.4L441.4,385.4z M441.4,385.4
				L441.4,385.4L441.4,385.4z M441.4,385.4L441.4,385.4L441.4,385.4z M441.2,385.2c0.1,0.1,0.1,0.1,0.2,0.2
				C441.3,385.3,441.2,385.3,441.2,385.2z M441.2,385.2L441.2,385.2L441.2,385.2z M441.2,385.2L441.2,385.2L441.2,385.2z
				 M441.2,385.2L441.2,385.2L441.2,385.2z M441.2,385.2L441.2,385.2L441.2,385.2z M441.2,385.2L441.2,385.2L441.2,385.2z
				 M441.2,385.2L441.2,385.2L441.2,385.2z M441.2,385.2L441.2,385.2L441.2,385.2z M441.1,385.2L441.1,385.2L441.1,385.2z"/>
		</g>
		<g>
			<path class="st0" d="M437.1,395.3h-0.4c-3.3,0-6-2.7-6-6s2.7-6,6-6h0.4c3.3,0,6,2.7,6,6S440.4,395.3,437.1,395.3z"/>
		</g>
		<g>
			<path class="st0" d="M349.7,416.9c-23.8,0-43.4-5.5-52.5-14.6c-1.1-1.1-1.8-2.7-1.8-4.2v-39.7c0-3.3,2.7-6,6-6s6,2.7,6,6v37
				c7.7,5.8,24.1,9.6,42.3,9.6s34.6-3.8,42.3-9.6v-37.1c0-3.3,2.7-6,6-6s6,2.7,6,6v39.8c0,1.6-0.6,3.1-1.8,4.2
				C393.1,411.5,373.5,416.9,349.7,416.9z"/>
		</g>
		<g>
			<path class="st0" d="M349.6,385.4c-0.8,0-1.6-0.2-2.4-0.5l-36.6-16l-50.6-22c-2.2-1-3.6-3.1-3.6-5.5s1.4-4.5,3.6-5.5l87.2-38
				c1.5-0.7,3.3-0.7,4.8,0l52.3,22.7l35,15.3c2.2,1,3.6,3.1,3.6,5.5s-1.4,4.5-3.6,5.5l-87.3,38C351.2,385.2,350.4,385.4,349.6,385.4
				z M277.4,341.4l38,16.5l34.2,15l72.3-31.5l-22.4-9.8l-49.9-21.7L277.4,341.4z"/>
		</g>
	</g>
	<g>
		<path class="st1" d="M0,500"/>
	</g>
</g>
</svg>
