<?xml version="1.0" encoding="iso-8859-1"?>
<!-- Generator: Adobe Illustrator 29.6.1, SVG Export Plug-In . SVG Version: 9.03 Build 0)  -->
<svg version="1.1" id="Layer_1" xmlns="http://www.w3.org/2000/svg" xmlns:xlink="http://www.w3.org/1999/xlink" x="0px" y="0px"
	 viewBox="0 0 500 500" style="enable-background:new 0 0 500 500;" xml:space="preserve">
<g>
	<g>
		<path style="fill:#F9423A;" d="M436.5,355.2H382c-3.313,0-6-2.687-6-6s2.687-6,6-6h48.5V156.8H382c-3.313,0-6-2.687-6-6
			c0-3.314,2.687-6,6-6h54.5c3.313,0,6,2.686,6,6v198.4C442.5,352.513,439.813,355.2,436.5,355.2z M118.2,355.2H63.5
			c-3.313,0-6-2.687-6-6V150.8c0-3.314,2.687-6,6-6h54.7c3.313,0,6,2.686,6,6c0,3.313-2.687,6-6,6H69.5v186.4h48.7
			c3.313,0,6,2.687,6,6S121.514,355.2,118.2,355.2z"/>
	</g>
	<g>
		<path style="fill:#F9423A;" d="M330.998,387.9h-212.1c-2.143,0-4.124-1.144-5.195-2.999c-1.072-1.855-1.073-4.142-0.002-5.998
			l53-91.899l53.104-91.808c1.073-1.854,3.052-2.996,5.194-2.996c0.001,0,0.001,0,0.002,0c2.143,0.001,4.123,1.145,5.194,3l53,91.8
			l26.103,45.305c1.654,2.871,0.667,6.54-2.204,8.194c-2.872,1.651-6.54,0.666-8.194-2.204l-26.1-45.3l-47.806-82.804
			l-47.901,82.812L129.285,375.9h201.713c3.313,0,6,2.687,6,6S334.312,387.9,330.998,387.9z"/>
	</g>
	<g>
		<path style="fill:#F9423A;" d="M381.901,387.9h-104.6c-2.142,0-4.121-1.142-5.193-2.995s-1.076-4.139-0.008-5.995l26.1-45.4
			l26.206-45.314c1.073-1.854,3.053-2.996,5.194-2.996s4.121,1.142,5.194,2.996l26.2,45.301l26.107,45.413
			c1.068,1.856,1.064,4.142-0.008,5.995S384.043,387.9,381.901,387.9z M287.671,375.9h83.86L350.6,339.491l-20.999-36.307
			l-21.005,36.32L287.671,375.9z"/>
	</g>
	<g>
		<path style="fill:#F9423A;" d="M381.999,387.9h-263.8c-3.313,0-6-2.687-6-6V118.1c0-3.313,2.687-6,6-6h263.8c3.313,0,6,2.687,6,6
			v263.8C387.999,385.213,385.312,387.9,381.999,387.9z M124.199,375.9h251.8V124.1h-251.8
			C124.199,124.1,124.199,375.9,124.199,375.9z"/>
	</g>
	<g>
		<path style="fill:#F9423A;" d="M313.902,222c-19.74,0-35.801-16.06-35.801-35.8s16.061-35.8,35.801-35.8s35.8,16.06,35.8,35.8
			S333.643,222,313.902,222z M313.902,162.4c-13.124,0-23.801,10.677-23.801,23.8s10.677,23.8,23.801,23.8
			c13.123,0,23.8-10.677,23.8-23.8S327.025,162.4,313.902,162.4z"/>
	</g>
</g>
</svg>
