<?xml version="1.0" encoding="utf-8"?>
<!-- Generator: Adobe Illustrator 27.5.0, SVG Export Plug-In . SVG Version: 6.00 Build 0)  -->
<svg version="1.1" id="Layer_1" xmlns="http://www.w3.org/2000/svg" xmlns:xlink="http://www.w3.org/1999/xlink" x="0px" y="0px"
	 viewBox="0 0 500 500" style="enable-background:new 0 0 500 500;" xml:space="preserve">
<style type="text/css">
	.st0{fill:#F9423A;}
</style>
<g>
	<g transform="translate(115 65)">
		<g>
			<g>
				<path class="st0" d="M95,152.3H41.6c-3.3,0-6,2.7-6,6s2.7,6,6,6H95c3.3,0,6-2.7,6-6S98.3,152.3,95,152.3z M228.4,152.3H135
					c-3.3,0-6,2.7-6,6s2.7,6,6,6h93.4c3.3,0,6-2.7,6-6S231.7,152.3,228.4,152.3z"/>
				<path class="st0" d="M228.4,179H41.6c-3.3,0-6,2.7-6,6v146.8c0,3.3,2.7,6,6,6h186.8c3.3,0,6-2.7,6-6V185
					C234.4,181.7,231.7,179,228.4,179z M101,191h121.4v24.7H101V191z M47.6,191H89v24.7H47.6V191z M89,325.8H47.6v-24.7H89V325.8z
					 M89,289.1H47.6v-24.7H89V289.1z M89,252.4H47.6v-24.7H89V252.4z M222.4,325.8H101v-24.7h121.4V325.8z M222.4,289.1H101v-24.7
					h121.4V289.1z M222.4,252.4H101v-24.7h121.4V252.4z"/>
			</g>
		</g>
		<path class="st0" d="M61.3,124.5c-3.3,0-6-2.7-6-6v-5.4L41.8,113c-3.3,0-6-2.7-6-6s2.7-6,6-6l0,0l25.1,0.2c2.1,0,4.1-0.8,5.6-2.3
			c1.6-1.6,2.5-3.7,2.5-6c0-4.6-3.7-8.4-8.3-8.4h-11c-11.2,0-20.4-9.2-20.4-20.4c0-11.1,8.9-20.1,19.9-20.4v-5.5c0-3.3,2.7-6,6-6
			c3.3,0,6,2.7,6,6v5.5H78c3.3,0,6,2.7,6,6s-2.7,6-6,6H62.4c-0.7,0.1-1.5,0.1-2.2,0h-4.4c-4.6,0-8.4,3.8-8.4,8.4s3.8,8.4,8.4,8.4h11
			c11.2,0,20.3,9.2,20.3,20.4c0,5.5-2.2,10.6-6.1,14.5c-3.7,3.7-8.6,5.7-13.7,5.8v5.3C67.3,121.8,64.6,124.5,61.3,124.5z"/>
	</g>
	<g>
		<g>
			<path class="st0" d="M383.5,442.3H116.6c-3.3,0-6-2.7-6-6V63.2c0-3.3,2.7-6,6-6h160.1c1.6,0,3.1,0.6,4.2,1.8l106.8,106.7
				c1.1,1.1,1.8,2.7,1.8,4.2v266.4C389.5,439.6,386.8,442.3,383.5,442.3z M122.6,430.3h254.9V172.4L274.2,69.2H122.6V430.3z"/>
		</g>
		<g>
			<path class="st0" d="M383.4,175.9H276.7c-3.3,0-6-2.7-6-6V63.2c0-3.3,2.7-6,6-6s6,2.7,6,6v100.7h100.7c3.3,0,6,2.7,6,6
				S386.7,175.9,383.4,175.9z"/>
		</g>
	</g>
	<g>
		<path class="st0" d="M383.4,175.9c-1.4,0-2.8-0.5-3.9-1.4c-0.4-0.3-5-4.5-54.1-54.4c-45.8-46.5-51.9-51.8-52.5-52.2
			c0.2,0.2,0.3,0.2,0.3,0.2l6.9-9.8c2.4,1.6,22.5,21.6,53.8,53.4c47.5,48.2,53.1,53.4,53.4,53.7c2.5,2.2,2.7,5.9,0.6,8.4
			C386.8,175.2,385.1,175.9,383.4,175.9z"/>
	</g>
</g>
</svg>
