<?xml version="1.0" encoding="utf-8"?>
<!-- Generator: Adobe Illustrator 27.5.0, SVG Export Plug-In . SVG Version: 6.00 Build 0)  -->
<svg version="1.1" id="Layer_1" xmlns="http://www.w3.org/2000/svg" xmlns:xlink="http://www.w3.org/1999/xlink" x="0px" y="0px"
	 viewBox="0 0 500 500" style="enable-background:new 0 0 500 500;" xml:space="preserve">
<style type="text/css">
	.st0{fill:#F9423A;}
	.st1{display:none;fill:none;stroke:#F9423A;stroke-width:12;stroke-linecap:round;stroke-linejoin:round;}
	.st2{fill:none;stroke:#F9423A;stroke-width:12;stroke-linecap:round;stroke-linejoin:round;}
</style>
<g>
	<g>
		<path class="st0" d="M259.3,383.5c-1.2,0-2.5-0.4-3.6-1.2l-22-16.2c-1.5-1.1-2.4-2.9-2.4-4.8s0.9-3.7,2.4-4.8l22-16.2
			c2.7-2,6.4-1.4,8.4,1.3c2,2.7,1.4,6.4-1.3,8.4l-15.4,11.4l15.4,11.4c2.7,2,3.2,5.7,1.3,8.4C263,382.7,261.1,383.5,259.3,383.5z"/>
	</g>
	<g>
		<path class="st0" d="M321.6,383.5c-1.8,0-3.7-0.8-4.8-2.4c-2-2.7-1.4-6.4,1.3-8.4l15.4-11.4L318,349.9c-2.7-2-3.2-5.7-1.3-8.4
			c2-2.7,5.7-3.2,8.4-1.3l22,16.2c1.5,1.1,2.4,2.9,2.4,4.8s-0.9,3.7-2.4,4.8l-22,16.2C324.1,383.1,322.8,383.5,321.6,383.5z"/>
	</g>
	<g>
		<path class="st0" d="M285,383.5c-0.6,0-1.2-0.1-1.9-0.3c-3.2-1-4.9-4.4-3.9-7.6l10.5-32.4c1-3.2,4.4-4.9,7.6-3.9s4.9,4.4,3.9,7.6
			l-10.5,32.4C289.9,381.9,287.5,383.5,285,383.5z"/>
	</g>
	<g>
		<path class="st0" d="M250,316.6c-22,0-39.9-17.9-39.9-39.9v-18.9c0-3.3,2.7-6,6-6s6,2.7,6,6v18.9c0,15.4,12.5,27.9,27.9,27.9
			s27.9-12.5,27.9-27.9v-18.9c0-3.3,2.7-6,6-6s6,2.7,6,6v18.9C289.9,298.7,272,316.6,250,316.6z"/>
	</g>
	<g>
		<path class="st0" d="M250,429.7h-0.3c-21.3,0-41.9-4.1-61.4-12.3c-0.1-0.1-0.3-0.1-0.4-0.2l0,0c-7.1-2.9-14.6-4.9-22.3-5.8
			l-27.5-3.2c-10.6-1.3-18.6-10.2-18.6-20.9v-27.8c0-49.1,39.9-89,89-89h7.6c3.3,0,6,2.7,6,6s-2.7,6-6,6h-7.6c-42.5,0-77,34.5-77,77
			v27.8c0,4.6,3.4,8.4,8,8.9l27.5,3.2c8.9,1.1,17.6,3.3,25.7,6.7c0.1,0.1,0.3,0.1,0.4,0.2l0,0c17.9,7.5,37,11.3,56.6,11.3h0.3
			c19.5,0,38.6-3.8,56.8-11.4c7.8-3.3,16.2-5.4,24.7-6.4l29-3.4c4.6-0.5,8-4.4,8-8.9v-27.8c0-42.5-34.5-77-77-77h-7.6
			c-3.3,0-6-2.7-6-6s2.7-6,6-6h7.6c49.1,0,89,39.9,89,89v27.8c0,10.6-8,19.6-18.6,20.9l-29,3.4c-7.5,0.8-14.7,2.7-21.5,5.6
			C291.8,425.5,271.1,429.7,250,429.7z M250,274c-17.1,0-33.3-6.5-45.6-18.4s-19.4-27.8-20-44.9l-1.1-40.1c-0.1-3.3,2.5-6.1,5.8-6.2
			c3.3-0.1,6.1,2.5,6.2,5.8l1.1,40.1c1,29,24.5,51.7,53.6,51.7s52.6-22.7,53.6-51.7l1.3-37.1c0.1-3.3,2.9-5.9,6.2-5.8
			c3.3,0.1,5.9,2.9,5.8,6.2l-1.3,37.1c-0.6,17.1-7.7,33-20,44.9C283.3,267.5,267.1,274,250,274z"/>
	</g>
	<g>
		<path class="st0" d="M310.9,180.1c-0.3,0-0.7,0-1-0.1c-2.2-0.4-4.1-2-4.7-4.2c-1.2-4-2.1-7.9-3-11.7c-3.3-14.6-6.5-28.5-26-44.2
			c-17.1,33.7-49.8,55.3-86.9,56.8c-2.4,0.1-4.6-1.3-5.6-3.4c-4.7-5.6-22-28.8-17.3-60.1c2.7-17.8,9.8-30.1,13.8-35.9
			c3-4.3,7.5-7.1,12.7-7.9c5.1-0.8,10.2,0.4,14.4,3.5l15.8,11.3c2.4,1.8,5.4,2,8,0.8c11.9-5.4,35.4-13.6,59-7.9c0.1,0,0.1,0,0.2,0
			c0.7,0.2,17.6,5,27.1,19.5c10.7,16.4,14.8,58.6-1.7,81C314.6,179.2,312.8,180.1,310.9,180.1z M195.9,81.1c-0.4,0-0.8,0-1.1,0.1
			c-1.9,0.3-3.6,1.4-4.7,3c-3.4,4.9-9.5,15.5-11.8,30.8c-3.6,24.5,9.2,43.6,13.8,49.5c34-2.5,62.4-23.4,76.3-56.3
			c0.7-1.7,2.1-2.9,3.9-3.4s3.6-0.2,5.1,0.9c25.3,18.1,31.5,35,35.2,50.3c4.8-18.5,1.5-42.5-5.2-52.8S288.2,89,287.2,88.7
			c-20.8-5-42.7,3.3-51.1,7.2c-6.6,3-14.2,2.2-20-2l-15.8-11.3l-0.1-0.1C198.9,81.6,197.4,81.1,195.9,81.1z"/>
	</g>
	<g>
		<path class="st0" d="M236,205h-46.5c-3.3,0-6-2.7-6-6v-28.9c0-3.3,2.7-6,6-6H236c3.3,0,6,2.7,6,6V199C242,202.3,239.3,205,236,205
			z M195.5,193H230v-16.9h-34.5V193z"/>
	</g>
	<g>
		<path class="st0" d="M310.5,205H264c-3.3,0-6-2.7-6-6v-28.9c0-3.3,2.7-6,6-6h46.5c3.3,0,6,2.7,6,6V199
			C316.5,202.3,313.8,205,310.5,205z M270,193h34.5v-16.9H270V193z"/>
	</g>
	<g>
		<path class="st0" d="M264,187.5h-28c-3.3,0-6-2.7-6-6s2.7-6,6-6h28c3.3,0,6,2.7,6,6S267.3,187.5,264,187.5z"/>
	</g>
	<g>
		<g>
			<path class="st1" d="M0,500"/>
		</g>
		<g>
			<path class="st2" d="M0,500"/>
		</g>
		<g>
			<path class="st2" d="M0,500"/>
		</g>
		<g>
			<path class="st2" d="M0,500"/>
		</g>
		<g>
			<path class="st2" d="M0,500"/>
		</g>
		<g>
			<path class="st2" d="M0,500"/>
		</g>
		<g>
			<path class="st2" d="M0,500"/>
		</g>
		<g>
			<path class="st2" d="M0,500"/>
		</g>
		<g>
			<path class="st2" d="M0,500"/>
		</g>
		<g>
			<path class="st2" d="M0,500"/>
		</g>
		<g>
			<path class="st2" d="M0,500"/>
		</g>
		<g>
			<path class="st2" d="M0,500"/>
		</g>
	</g>
</g>
</svg>
