<?xml version="1.0" encoding="iso-8859-1"?>
<!-- Generator: Adobe Illustrator 29.6.1, SVG Export Plug-In . SVG Version: 9.03 Build 0)  -->
<svg version="1.1" id="Layer_1" xmlns="http://www.w3.org/2000/svg" xmlns:xlink="http://www.w3.org/1999/xlink" x="0px" y="0px"
	 viewBox="0 0 500 500" style="enable-background:new 0 0 500 500;" xml:space="preserve">
<g>
	<path style="fill:#F9423A;" d="M185,103.5c-14.336,0-26-11.664-26-26s11.664-26,26-26s26,11.664,26,26S199.336,103.5,185,103.5z
		 M185,63.5c-7.72,0-14,6.28-14,14s6.28,14,14,14s14-6.28,14-14S192.72,63.5,185,63.5z"/>
</g>
<g>
	<path style="fill:#F9423A;" d="M236,157.5h-12v-10c0-13.234-10.766-24-24-24h-30c-13.234,0-24,10.766-24,24v10h-12v-10
		c0-19.851,16.149-36,36-36h30c19.851,0,36,16.149,36,36V157.5z"/>
</g>
<g>
	<path style="fill:#F9423A;" d="M305,103.5c-14.337,0-26-11.664-26-26s11.663-26,26-26s26,11.664,26,26S319.337,103.5,305,103.5z
		 M305,63.5c-7.72,0-14,6.28-14,14s6.28,14,14,14s14-6.28,14-14S312.72,63.5,305,63.5z"/>
</g>
<g>
	<path style="fill:#F9423A;" d="M380,203.5H110c-3.313,0-6-2.687-6-6v-40c0-3.313,2.687-6,6-6h144v-4c0-19.851,16.149-36,36-36h30
		c19.851,0,36,16.149,36,36v4h24c3.313,0,6,2.687,6,6v40C386,200.813,383.313,203.5,380,203.5z M116,191.5h258v-28H116V191.5z
		 M266,151.5h78v-4c0-13.234-10.767-24-24-24h-30c-13.233,0-24,10.766-24,24V151.5z"/>
</g>
<defs>
	<filter id="Adobe_OpacityMaskFilter" filterUnits="userSpaceOnUse" x="105.986" y="193.04" width="278.026" height="225.46">
		<feColorMatrix  type="matrix" values="1 0 0 0 0  0 1 0 0 0  0 0 1 0 0  0 0 0 1 0"/>
	</filter>
</defs>
<mask maskUnits="userSpaceOnUse" x="105.986" y="193.04" width="278.026" height="225.46" id="_x35_0IGu5bJfsa_00000178189290979028555470000006246201258869685921_">
	<path style="fill:#FFFFFF;filter:url(#Adobe_OpacityMaskFilter);" d="M418.021,162.926h-340v260h193.428
		C258.226,410.192,250,392.307,250,372.5c0-38.66,31.34-70,70-70s70,31.34,70,70c0,19.807-8.226,37.692-21.449,50.426h49.47V162.926
		z"/>
</mask>
<g style="mask:url(#_x35_0IGu5bJfsa_00000178189290979028555470000006246201258869685921_);">
	<g>
		<path style="fill:#F9423A;" d="M210,418.5c-1.158,0-2.308-0.335-3.303-0.991c-1.684-1.11-2.697-2.992-2.697-5.009V290.172
			l-98.014-88.212l8.027-8.92l100,90c1.265,1.138,1.986,2.759,1.986,4.46v115.9l58-24.856V287.5c0-1.701,0.722-3.322,1.986-4.46
			l100-90l8.027,8.92L286,290.172V382.5c0,2.4-1.431,4.569-3.637,5.515l-70,30C211.605,418.34,210.801,418.5,210,418.5z"/>
	</g>
</g>
<g>
	<path style="fill:#F9423A;" d="M320,448.5c-41.906,0-76-34.094-76-76s34.094-76,76-76s76,34.094,76,76S361.906,448.5,320,448.5z
		 M320,308.5c-35.29,0-64,28.71-64,64s28.71,64,64,64s64-28.71,64-64S355.29,308.5,320,308.5z"/>
</g>
<g>
	<path style="fill:#F9423A;" d="M320,418.5c-3.313,0-6-2.687-6-6v-4h-14c-3.313,0-6-2.687-6-6s2.687-6,6-6h25c4.963,0,9-4.037,9-9
		s-4.037-9-9-9h-10c-11.579,0-21-9.421-21-21c0-11.244,8.883-20.453,20-20.977V332.5c0-3.313,2.687-6,6-6s6,2.687,6,6v4h13
		c3.313,0,6,2.687,6,6s-2.687,6-6,6h-24c-4.963,0-9,4.037-9,9s4.037,9,9,9h10c11.579,0,21,9.421,21,21
		c0,11.244-8.883,20.453-20,20.977v4.023C326,415.813,323.313,418.5,320,418.5z"/>
</g>
</svg>
