<?xml version="1.0" encoding="utf-8"?>
<!-- Generator: Adobe Illustrator 27.5.0, SVG Export Plug-In . SVG Version: 6.00 Build 0)  -->
<svg version="1.1" id="Layer_1" xmlns="http://www.w3.org/2000/svg" xmlns:xlink="http://www.w3.org/1999/xlink" x="0px" y="0px"
	 viewBox="0 0 500 500" style="enable-background:new 0 0 500 500;" xml:space="preserve">
<style type="text/css">
	.st0{fill:#F9423A;}
	.st1{display:none;fill:none;stroke:#F9423A;stroke-width:12;stroke-linecap:round;stroke-linejoin:round;}
	.st2{fill:none;stroke:#F9423A;stroke-width:12;stroke-linecap:round;stroke-linejoin:round;}
</style>
<g>
	<g>
		<path class="st0" d="M385.4,374.4H275c-11.1,0-20.3-5.3-29.3-10.4c-9.6-5.5-19.5-11.2-32.5-11.2c-9.6,0-23.6-0.2-23.8-0.2
			c-3.3,0-6-2.8-5.9-6.1c0-3.3,2.7-5.9,6-5.9h0.1c0.1,0,14.1,0.2,23.6,0.2c16.2,0,28,6.8,38.5,12.8c8.3,4.7,15.5,8.8,23.3,8.8h110.4
			c5.6,0,10.2-4.6,10.2-10.3s-4.6-10.3-10.2-10.3H381c-3.3,0-6-2.7-6-6s2.7-6,6-6h15.5c8.6,0,15.6-7,15.6-15.7s-7-15.7-15.6-15.7
			h-2.6c-3.3,0-6-2.7-6-6s2.7-6,6-6h13c9.6,0,17.5-7.9,17.5-17.7s-7.9-17.7-17.5-17.7h-1.6c-3.3,0-6-2.7-6-6s2.7-6,6-6h1.8
			c9.5,0,17.3-7.8,17.3-17.4s-7.8-17.4-17.3-17.4h-62.9c-11.5,0-20.8-9.3-20.8-20.8v-62.8c0-14.6-11.9-26.5-26.5-26.5
			c-3.8,0-6.9,3.1-6.9,6.9v34.1c0,20.3-10.1,40.6-28.4,57.2c-14.7,13.3-33.2,22.5-46,22.8h-0.1l-26.6,0.2l0,0c-3.3,0-6-2.7-6-6
			s2.6-6,6-6l26.5-0.2c18.8-0.6,62.7-29.8,62.7-68V101c0-10.4,8.5-18.9,18.9-18.9c21.2,0,38.5,17.3,38.5,38.5v62.8
			c0,4.9,3.9,8.8,8.8,8.8h62.9c16.2,0,29.3,13.2,29.3,29.4c0,9.6-4.6,18.1-11.7,23.5c7.1,5.4,11.7,14,11.7,23.6
			c0,12.6-7.8,23.3-18.7,27.7c4,4.8,6.4,11,6.4,17.7c0,12.5-8.3,23.1-19.7,26.5c2,3.4,3.2,7.3,3.2,11.5
			C407.6,364.4,397.6,374.4,385.4,374.4z"/>
	</g>
	<g>
		<path class="st0" d="M189.4,359.6H96.2c-3.3,0-6-2.7-6-6V189.8c0-3.3,2.7-6,6-6h93.1c3.3,0,6,2.7,6,6c0,0,0,40.9,0.1,81.9
			c0,20.5,0,40.9,0,56.3c0,7.7,0,14.1,0,18.6c0,2.2,0,4,0,5.2c0,2.7,0,4.3-1.8,6.1C192.5,359,191,359.6,189.4,359.6z M102.2,347.6
			h81.2c0-22.2-0.1-102.7-0.1-151.8h-81.1C102.2,195.8,102.2,347.6,102.2,347.6z"/>
	</g>
	<g>
		<g>
			<g>
				<path class="st1" d="M0,500"/>
			</g>
		</g>
		<g>
			<g>
				<g>
					<path class="st2" d="M0,500"/>
				</g>
			</g>
		</g>
		<g>
			<g>
				<g>
					<path class="st2" d="M0,500"/>
				</g>
			</g>
		</g>
		<g>
			<g>
				<g>
					<path class="st2" d="M0,500"/>
				</g>
			</g>
		</g>
		<g>
			<g>
				<g>
					<path class="st2" d="M0,500"/>
				</g>
			</g>
		</g>
		<g>
			<g>
				<g>
					<path class="st2" d="M0,500"/>
				</g>
			</g>
		</g>
		<g>
			<g>
				<g>
					<path class="st2" d="M0,500"/>
				</g>
			</g>
		</g>
		<g>
			<g>
				<g>
					<path class="st2" d="M0,500"/>
				</g>
			</g>
		</g>
		<g>
			<g>
				<g>
					<path class="st2" d="M0,500"/>
				</g>
			</g>
		</g>
		<g>
			<g>
				<g>
					<path class="st2" d="M0,500"/>
				</g>
			</g>
		</g>
		<g>
			<g>
				<g>
					<path class="st2" d="M0,500"/>
				</g>
			</g>
		</g>
		<g>
			<g>
				<g>
					<path class="st2" d="M0,500"/>
				</g>
			</g>
		</g>
	</g>
</g>
</svg>
