<?xml version="1.0" encoding="utf-8"?>
<!-- Generator: Adobe Illustrator 27.5.0, SVG Export Plug-In . SVG Version: 6.00 Build 0)  -->
<svg version="1.1" id="Layer_1" xmlns="http://www.w3.org/2000/svg" xmlns:xlink="http://www.w3.org/1999/xlink" x="0px" y="0px"
	 viewBox="0 0 500 500" style="enable-background:new 0 0 500 500;" xml:space="preserve">
<style type="text/css">
	.st0{clip-path:url(#SVGID_00000138554072660552669350000013216003825966835080_);}
	.st1{opacity:0;clip-path:url(#SVGID_00000134209758072366887100000009834980240925568148_);}
	.st2{fill:#F84239;}
	.st3{fill:none;stroke:#F84239;stroke-width:12;stroke-linecap:round;stroke-linejoin:round;}
	.st4{clip-path:url(#SVGID_00000155109984192622951670000005234347592687275958_);}
	.st5{fill:none;stroke:#F84239;stroke-width:14;stroke-linecap:round;stroke-linejoin:round;stroke-dasharray:0.25,25;}
</style>
<g>
	<g>
		<defs>
			<rect id="SVGID_1_" width="500" height="500"/>
		</defs>
		<clipPath id="SVGID_00000155865288908651734480000005952669549059379614_">
			<use xlink:href="#SVGID_1_"  style="overflow:visible;"/>
		</clipPath>
		<g style="clip-path:url(#SVGID_00000155865288908651734480000005952669549059379614_);">
			<g>
				<g>
					<defs>
						<rect id="SVGID_00000032617252495607373930000015481514495016573364_" width="500" height="500"/>
					</defs>
					<clipPath id="SVGID_00000148620329114144187510000002252797942549745539_">
						<use xlink:href="#SVGID_00000032617252495607373930000015481514495016573364_"  style="overflow:visible;"/>
					</clipPath>
					<g style="opacity:0;clip-path:url(#SVGID_00000148620329114144187510000002252797942549745539_);">
						<g>
							<path class="st2" d="M207.6,389.1h-89.5c-11.5,0-20.9-9.4-20.9-20.9v-31.9c0-11.5,9.4-20.9,20.9-20.9h89.5
								c11.5,0,20.9,9.4,20.9,20.9v31.9C228.5,379.7,219.1,389.1,207.6,389.1z M118.1,327.4c-4.9,0-8.9,4-8.9,8.9v31.9
								c0,4.9,4,8.9,8.9,8.9h89.5c4.9,0,8.9-4,8.9-8.9v-31.9c0-4.9-4-8.9-8.9-8.9H118.1z"/>
						</g>
						<g>
							<path class="st2" d="M381.9,389.1h-89c-11.5,0-20.9-9.4-20.9-20.9v-31.9c0-11.5,9.4-20.9,20.9-20.9h89
								c11.5,0,20.9,9.4,20.9,20.9v31.9C402.8,379.7,393.4,389.1,381.9,389.1z M292.9,327.4c-4.9,0-8.9,4-8.9,8.9v31.9
								c0,4.9,4,8.9,8.9,8.9h89c4.9,0,8.9-4,8.9-8.9v-31.9c0-4.9-4-8.9-8.9-8.9H292.9z"/>
						</g>
						<g>
							<g>
								<path class="st2" d="M395.2,219.5H104.8c-11.5,0-20.9-9.4-20.9-20.9V132c0-11.5,9.4-20.9,20.9-20.9h290.5
									c11.5,0,20.9,9.4,20.9,20.9v66.6C416.1,210.1,406.8,219.5,395.2,219.5z M104.8,123.2c-4.9,0-8.9,4-8.9,8.9v66.6
									c0,4.9,4,8.9,8.9,8.9h290.5c4.9,0,8.9-4,8.9-8.9V132c0-4.9-4-8.9-8.9-8.9L104.8,123.2L104.8,123.2z"/>
							</g>
							<g>
								<path class="st2" d="M139.2,188.8c-12.9,0-23.5-10.5-23.5-23.5s10.5-23.5,23.5-23.5c0.2,0,0.4,0,0.5,0
									c12.6,0.3,22.9,10.8,22.9,23.5s-10.3,23.2-23,23.5C139.5,188.8,139.4,188.8,139.2,188.8z M139.2,153.9
									c-6.3,0-11.5,5.1-11.5,11.5c0,6.3,5.1,11.5,11.5,11.5h0.2c6.2-0.1,11.2-5.3,11.2-11.5s-5-11.3-11.2-11.5H139.2z"/>
							</g>
						</g>
						<g>
							<path class="st2" d="M315.2,302.2c-2.1,0-4.2-1.2-5.3-3.2l-28.4-53.4c-1.6-2.9-0.4-6.6,2.5-8.1c2.9-1.6,6.6-0.4,8.1,2.5
								l28.4,53.4c1.6,2.9,0.4,6.6-2.5,8.1C317.1,301.9,316.1,302.2,315.2,302.2z M185.2,302c-0.9,0-1.9-0.2-2.8-0.7
								c-2.9-1.6-4-5.2-2.5-8.1l28.4-53.4c1.6-2.9,5.2-4,8.1-2.5c2.9,1.6,4,5.2,2.5,8.1l-28.4,53.4C189.4,300.9,187.3,302,185.2,302
								z"/>
						</g>
						<g>
							<path class="st3" d="M199.3,269.3"/>
						</g>
						<g>
							<path class="st2" d="M375.1,186.7h-0.2c-3.9,0-7-3.1-7-7s3.1-7,7-7h0.2c3.9,0,7,3.1,7,7S378.9,186.7,375.1,186.7z
								 M347.8,186.7h-0.2c-3.9,0-7-3.1-7-7s3.1-7,7-7h0.2c3.9,0,7,3.1,7,7S351.7,186.7,347.8,186.7z M320.5,186.7h-0.2
								c-3.9,0-7-3.1-7-7s3.1-7,7-7h0.2c3.9,0,7,3.1,7,7S324.4,186.7,320.5,186.7z M293.2,186.7H293c-3.9,0-7-3.1-7-7s3.1-7,7-7h0.2
								c3.9,0,7,3.1,7,7S297.1,186.7,293.2,186.7z M266,186.7h-0.2c-3.9,0-7-3.1-7-7s3.1-7,7-7h0.2c3.9,0,7,3.1,7,7
								S269.8,186.7,266,186.7z M238.7,186.7h-0.2c-3.9,0-7-3.1-7-7s3.1-7,7-7h0.2c3.9,0,7,3.1,7,7S242.6,186.7,238.7,186.7z
								 M375.1,158.1h-0.2c-3.9,0-7-3.1-7-7s3.1-7,7-7h0.2c3.9,0,7,3.1,7,7S378.9,158.1,375.1,158.1z M347.8,158.1h-0.2
								c-3.9,0-7-3.1-7-7s3.1-7,7-7h0.2c3.9,0,7,3.1,7,7S351.7,158.1,347.8,158.1z M320.5,158.1h-0.2c-3.9,0-7-3.1-7-7s3.1-7,7-7
								h0.2c3.9,0,7,3.1,7,7S324.4,158.1,320.5,158.1z M293.2,158.1H293c-3.9,0-7-3.1-7-7s3.1-7,7-7h0.2c3.9,0,7,3.1,7,7
								S297.1,158.1,293.2,158.1z M266,158.1h-0.2c-3.9,0-7-3.1-7-7s3.1-7,7-7h0.2c3.9,0,7,3.1,7,7S269.8,158.1,266,158.1z
								 M238.7,158.1h-0.2c-3.9,0-7-3.1-7-7s3.1-7,7-7h0.2c3.9,0,7,3.1,7,7S242.6,158.1,238.7,158.1z"/>
						</g>
					</g>
				</g>
			</g>
			<g>
				<g>
					<defs>
						<rect id="SVGID_00000139982993248636659020000015527309484864213664_" width="500" height="500"/>
					</defs>
					<clipPath id="SVGID_00000042712721855393711720000013151775786567758772_">
						<use xlink:href="#SVGID_00000139982993248636659020000015527309484864213664_"  style="overflow:visible;"/>
					</clipPath>
					<g style="clip-path:url(#SVGID_00000042712721855393711720000013151775786567758772_);">
						<g>
							<path class="st2" d="M207.6,389.1h-89.5c-11.5,0-20.9-9.4-20.9-20.9v-31.9c0-11.5,9.4-20.9,20.9-20.9h89.5
								c11.5,0,20.9,9.4,20.9,20.9v31.9C228.5,379.7,219.1,389.1,207.6,389.1z M118.1,327.4c-4.9,0-8.9,4-8.9,8.9v31.9
								c0,4.9,4,8.9,8.9,8.9h89.5c4.9,0,8.9-4,8.9-8.9v-31.9c0-4.9-4-8.9-8.9-8.9H118.1z"/>
						</g>
						<g>
							<path class="st2" d="M381.9,389.1h-89c-11.5,0-20.9-9.4-20.9-20.9v-31.9c0-11.5,9.4-20.9,20.9-20.9h89
								c11.5,0,20.9,9.4,20.9,20.9v31.9C402.8,379.7,393.4,389.1,381.9,389.1z M292.9,327.4c-4.9,0-8.9,4-8.9,8.9v31.9
								c0,4.9,4,8.9,8.9,8.9h89c4.9,0,8.9-4,8.9-8.9v-31.9c0-4.9-4-8.9-8.9-8.9H292.9z"/>
						</g>
						<g>
							<g>
								<path class="st2" d="M395.2,219.5H104.8c-11.5,0-20.9-9.4-20.9-20.9V132c0-11.5,9.4-20.9,20.9-20.9h290.5
									c11.5,0,20.9,9.4,20.9,20.9v66.6C416.1,210.1,406.8,219.5,395.2,219.5z M104.8,123.2c-4.9,0-8.9,4-8.9,8.9v66.6
									c0,4.9,4,8.9,8.9,8.9h290.5c4.9,0,8.9-4,8.9-8.9V132c0-4.9-4-8.9-8.9-8.9L104.8,123.2L104.8,123.2z"/>
							</g>
							<g>
								<path class="st2" d="M139.2,188.8c-12.9,0-23.5-10.5-23.5-23.5s10.5-23.5,23.5-23.5s23.5,10.5,23.5,23.5
									S152.1,188.8,139.2,188.8z M139.2,153.9c-6.3,0-11.5,5.1-11.5,11.5c0,6.3,5.1,11.5,11.5,11.5s11.5-5.1,11.5-11.5
									C150.6,159,145.5,153.9,139.2,153.9z"/>
							</g>
						</g>
						<g>
							<path class="st2" d="M315.2,302.2c-2.1,0-4.2-1.2-5.3-3.2l-28.4-53.4c-1.6-2.9-0.4-6.6,2.5-8.1c2.9-1.6,6.6-0.4,8.1,2.5
								l28.4,53.4c1.6,2.9,0.4,6.6-2.5,8.1C317.1,301.9,316.1,302.2,315.2,302.2z M185.2,302c-0.9,0-1.9-0.2-2.8-0.7
								c-2.9-1.6-4-5.2-2.5-8.1l28.4-53.4c1.6-2.9,5.2-4,8.1-2.5c2.9,1.6,4,5.2,2.5,8.1l-28.4,53.4C189.4,300.9,187.3,302,185.2,302
								z"/>
						</g>
						<g>
							<path class="st3" d="M199.3,269.3"/>
						</g>
						<g>
							<path class="st2" d="M375.1,186.7h-0.2c-3.9,0-7-3.1-7-7s3.1-7,7-7h0.2c3.9,0,7,3.1,7,7S378.9,186.7,375.1,186.7z
								 M347.8,186.7h-0.2c-3.9,0-7-3.1-7-7s3.1-7,7-7h0.2c3.9,0,7,3.1,7,7S351.7,186.7,347.8,186.7z M320.5,186.7h-0.2
								c-3.9,0-7-3.1-7-7s3.1-7,7-7h0.2c3.9,0,7,3.1,7,7S324.4,186.7,320.5,186.7z M293.2,186.7H293c-3.9,0-7-3.1-7-7s3.1-7,7-7h0.2
								c3.9,0,7,3.1,7,7S297.1,186.7,293.2,186.7z M266,186.7h-0.2c-3.9,0-7-3.1-7-7s3.1-7,7-7h0.2c3.9,0,7,3.1,7,7
								S269.8,186.7,266,186.7z M238.7,186.7h-0.2c-3.9,0-7-3.1-7-7s3.1-7,7-7h0.2c3.9,0,7,3.1,7,7S242.6,186.7,238.7,186.7z
								 M375.1,158.1h-0.2c-3.9,0-7-3.1-7-7s3.1-7,7-7h0.2c3.9,0,7,3.1,7,7S378.9,158.1,375.1,158.1z M347.8,158.1h-0.2
								c-3.9,0-7-3.1-7-7s3.1-7,7-7h0.2c3.9,0,7,3.1,7,7S351.7,158.1,347.8,158.1z M320.5,158.1h-0.2c-3.9,0-7-3.1-7-7s3.1-7,7-7
								h0.2c3.9,0,7,3.1,7,7S324.4,158.1,320.5,158.1z M293.2,158.1H293c-3.9,0-7-3.1-7-7s3.1-7,7-7h0.2c3.9,0,7,3.1,7,7
								S297.1,158.1,293.2,158.1z M266,158.1h-0.2c-3.9,0-7-3.1-7-7s3.1-7,7-7h0.2c3.9,0,7,3.1,7,7S269.8,158.1,266,158.1z
								 M238.7,158.1h-0.2c-3.9,0-7-3.1-7-7s3.1-7,7-7h0.2c3.9,0,7,3.1,7,7S242.6,158.1,238.7,158.1z"/>
						</g>
					</g>
				</g>
			</g>
			<g>
				<path class="st5" d="M0,500"/>
			</g>
		</g>
	</g>
</g>
</svg>
