<?xml version="1.0" encoding="utf-8"?>
<!-- Generator: Adobe Illustrator 27.5.0, SVG Export Plug-In . SVG Version: 6.00 Build 0)  -->
<svg version="1.1" id="Layer_1" xmlns="http://www.w3.org/2000/svg" xmlns:xlink="http://www.w3.org/1999/xlink" x="0px" y="0px"
	 viewBox="0 0 500 500" style="enable-background:new 0 0 500 500;" xml:space="preserve">
<style type="text/css">
	.st0{fill:#F9423A;}
	.st1{fill:none;stroke:#F9423A;stroke-width:3.64;stroke-linecap:round;stroke-linejoin:round;}
</style>
<g>
	<g>
		<path class="st0" d="M250,414.2c-1.5,0-2.9-0.5-4.1-1.6c-3.6-3.3-88.8-82.5-112.4-155.7l0,0c-4.2-12.9-6.3-25.9-6.3-38.9
			c0-33.8,14.1-66.5,38.8-89.6c25-23.5,57.8-35.2,92.2-32.9c60.8,3.9,110,52.7,114.3,113.5c1.1,15-0.6,30.2-5,45.1
			c-19,63.7-109.4,154.4-113.2,158.2C253.1,413.6,251.5,414.2,250,414.2z M249.9,107.3c-28.3,0-55,10.5-75.7,29.9
			c-22.6,21.2-35,49.9-35,80.8c0,11.7,1.9,23.5,5.7,35.1l0,0c19.7,61.1,87.3,129.4,104.9,146.5c18-18.7,90.2-95.6,106.1-149
			c4-13.6,5.6-27.3,4.6-40.8c-3.9-54.8-48.2-98.8-103.1-102.3C254.9,107.4,252.4,107.3,249.9,107.3z"/>
		<path class="st0" d="M250,279.1c-33.6,0-61-27.4-61-61s27.4-61,61-61s61,27.4,61,61S283.6,279.1,250,279.1z M250,169.1
			c-27,0-49,22-49,49s22,49,49,49s49-22,49-49S277,169.1,250,169.1z"/>
	</g>
	<path class="st1" d="M0,500"/>
</g>
</svg>
