<?xml version="1.0" encoding="utf-8"?>
<!-- Generator: Adobe Illustrator 27.5.0, SVG Export Plug-In . SVG Version: 6.00 Build 0)  -->
<svg version="1.1" id="Layer_1" xmlns="http://www.w3.org/2000/svg" xmlns:xlink="http://www.w3.org/1999/xlink" x="0px" y="0px"
	 viewBox="0 0 500 500" style="enable-background:new 0 0 500 500;" xml:space="preserve">
<style type="text/css">
	.st0{fill:#F9423A;}
	.st1{fill:none;stroke:#F9423A;stroke-width:2.94;stroke-linecap:round;stroke-linejoin:round;}
</style>
<g>
	<g>
		<path class="st0" d="M412.2,415.7H87.1c-2.2,0-4.2-1.1-5.3-3c-1.1-1.9-1.2-4.2-0.2-6.1l46.9-90c1.1-2.1,3.2-3.4,5.5-3.4h54.8
			c3.4,0,6.2,2.8,6.2,6.2s-2.8,6.2-6.2,6.2h-51.1l-40.4,77.5h304.6l-40.4-77.5h-51.2c-3.4,0-6.2-2.8-6.2-6.2s2.8-6.2,6.2-6.2h55
			c2.3,0,4.5,1.3,5.5,3.4l46.9,90c1,1.9,0.9,4.2-0.2,6.1S414.4,415.7,412.2,415.7z"/>
		<path class="st0" d="M250.1,377.5c-2.2,0-4.3-1.2-5.4-3.1l-82-142.9l0,0c-3.7-6.5-6.5-12.5-8.4-18.2c-3.4-10.3-5.2-21.1-5.2-32
			c0-27.8,11.6-54.6,31.9-73.7c20.6-19.3,47.5-28.9,75.8-27.1c50,3.2,90.4,43.3,94,93.3c0.9,12.6-0.5,25.1-4.2,37.2
			c-2.1,6.7-5.1,13.5-9.2,20.7l-81.9,142.7C254.3,376.3,252.3,377.5,250.1,377.5z M173.4,225.3L250,358.7l76.5-133.3
			c3.7-6.4,6.3-12.3,8.1-18.1c3.2-10.6,4.5-21.6,3.7-32.6c-3.2-43.8-38.6-79-82.4-81.8c-24.8-1.6-48.4,6.8-66.4,23.8
			c-18,16.9-28,39.9-28,64.6c0,9.6,1.5,19,4.5,28C167.7,214.2,170.1,219.5,173.4,225.3L173.4,225.3z"/>
		<path class="st0" d="M250,232.1c-28,0-50.8-22.8-50.8-50.8s22.8-50.8,50.8-50.8s50.8,22.8,50.8,50.8S278.1,232.1,250,232.1z
			 M250,142.9c-21.2,0-38.4,17.2-38.4,38.4s17.2,38.4,38.4,38.4s38.4-17.2,38.4-38.4S271.2,142.9,250,142.9z"/>
	</g>
	<path class="st1" d="M0,500"/>
</g>
</svg>
