<?xml version="1.0" encoding="iso-8859-1"?>
<!-- Generator: Adobe Illustrator 29.6.1, SVG Export Plug-In . SVG Version: 9.03 Build 0)  -->
<svg version="1.1" id="Layer_1" xmlns="http://www.w3.org/2000/svg" xmlns:xlink="http://www.w3.org/1999/xlink" x="0px" y="0px"
	 viewBox="0 0 500 500" style="enable-background:new 0 0 500 500;" xml:space="preserve">
<g>
	<g>
		<path style="fill:#F9423A;" d="M376.596,249.32c-1.314,0-2.639-0.43-3.745-1.315c-2.587-2.07-3.006-5.846-0.936-8.433l53.38-66.71
			c1.593-1.99,4.267-2.757,6.671-1.913s4.014,3.114,4.014,5.662v50.885l11.582,11.583c2.344,2.343,2.344,6.142,0,8.485
			c-2.342,2.343-6.143,2.343-8.484,0l-9.1-9.099l-9.107,9.101c-2.345,2.343-6.143,2.341-8.485-0.003
			c-2.343-2.344-2.341-6.143,0.003-8.485l11.592-11.583v-33.782l-42.695,53.357C380.1,248.549,378.356,249.32,376.596,249.32z
			 M256.506,249.32c-1.314,0-2.639-0.43-3.745-1.315c-2.587-2.07-3.006-5.846-0.936-8.433l53.38-66.71
			c1.593-1.99,4.266-2.757,6.671-1.913c2.404,0.844,4.014,3.114,4.014,5.662v50.885l11.582,11.583c2.344,2.343,2.344,6.142,0,8.485
			c-2.342,2.343-6.143,2.343-8.484,0l-9.1-9.099l-9.107,9.101c-2.345,2.343-6.143,2.341-8.485-0.003
			c-2.343-2.344-2.341-6.143,0.003-8.485l11.592-11.583v-33.782l-42.695,53.357C260.01,248.549,258.266,249.32,256.506,249.32z"/>
	</g>
	<g>
		<path style="fill:#F9423A;" d="M127.31,291.56H56.36c-3.314,0-6-2.687-6-6s2.686-6,6-6h70.95c3.313,0,6,2.687,6,6
			S130.623,291.56,127.31,291.56z M376.61,291.55h-26.69c-3.313,0-6-2.687-6-6v-82.26c0-3.313,2.687-6,6-6h26.69
			c3.313,0,6,2.687,6,6v82.26C382.61,288.863,379.923,291.55,376.61,291.55z M355.919,279.55h14.69v-70.26h-14.69V279.55z
			 M256.52,291.55h-26.69c-3.313,0-6-2.687-6-6v-82.26c0-3.313,2.687-6,6-6h26.69c3.313,0,6,2.687,6,6v82.26
			C262.52,288.863,259.833,291.55,256.52,291.55z M235.83,279.55h14.69v-70.26h-14.69V279.55z"/>
	</g>
	<g>
		<path style="fill:#F9423A;" d="M416.98,356.08H107.36c-31.43,0-57-25.57-57-57v-42.41c0-3.313,2.687-6,6-6h47.38v-87.41
			c0-3.313,2.687-6,6-6c3.314,0,6,2.687,6,6v7.35h47.37c3.313,0,6,2.686,6,6v74.06h20.69c3.314,0,6,2.687,6,6v13.08
			c0,5.409,4.401,9.81,9.81,9.81h238.02c1.591,0,3.117,0.632,4.242,1.758l0.011,0.011c1.715,1.714,2.229,4.293,1.303,6.534
			l-26.66,64.51C421.597,354.616,419.409,356.08,416.98,356.08z M62.36,262.67v36.41c0,24.813,20.187,45,45,45h305.607
			l21.705-52.521H205.61c-12.026,0-21.81-9.784-21.81-21.81v-7.08h-20.083c-0.399,0.039-0.814,0.039-1.213,0h-52.157
			c-0.399,0.039-0.813,0.039-1.213,0L62.36,262.67L62.36,262.67z M115.74,250.67h41.37v-68.06h-41.37
			C115.74,182.61,115.74,250.67,115.74,250.67z M138.7,235.78h-4.55c-3.313,0-6-2.687-6-6s2.687-6,6-6h4.55c3.313,0,6,2.687,6,6
			S142.013,235.78,138.7,235.78z M138.7,209.29h-4.55c-3.313,0-6-2.686-6-6c0-3.313,2.687-6,6-6h4.55c3.313,0,6,2.687,6,6
			C144.7,206.604,142.013,209.29,138.7,209.29z"/>
	</g>
	<g>
		<path style="fill:#F9423A;" d="M69.717,262.671c-0.248,0-0.499-0.016-0.751-0.047c-3.288-0.411-5.621-3.41-5.209-6.698
			L76.253,155.92H56.36c-3.313,0-6-2.687-6-6s2.687-6,6-6h53.38c3.313,0,6,2.687,6,6v26.19c0,3.313-2.687,6-6,6s-6-2.687-6-6v-20.19
			H88.347L75.663,257.414C75.284,260.449,72.699,262.67,69.717,262.671z"/>
	</g>
</g>
</svg>
