<?xml version="1.0" encoding="utf-8"?>
<!-- Generator: Adobe Illustrator 27.5.0, SVG Export Plug-In . SVG Version: 6.00 Build 0)  -->
<svg version="1.1" id="Layer_1" xmlns="http://www.w3.org/2000/svg" xmlns:xlink="http://www.w3.org/1999/xlink" x="0px" y="0px"
	 viewBox="0 0 500 500" style="enable-background:new 0 0 500 500;" xml:space="preserve">
<style type="text/css">
	.st0{clip-path:url(#SVGID_00000155145609385802083940000015509567315397341856_);}
	.st1{fill:#F9423A;}
</style>
<g>
	<g>
		<g>
			<defs>
				<rect id="SVGID_1_" width="500" height="500"/>
			</defs>
			<clipPath id="SVGID_00000142173355560053022000000012011901564496838310_">
				<use xlink:href="#SVGID_1_"  style="overflow:visible;"/>
			</clipPath>
			<g style="clip-path:url(#SVGID_00000142173355560053022000000012011901564496838310_);">
				<g>
					<g>
						<path class="st1" d="M324.6,328.4H197.1c-3.3,0-6-2.7-6-6s2.7-6,6-6h127.5c3.3,0,6,2.7,6,6S327.9,328.4,324.6,328.4z
							 M141.1,328.4H63.2c-3.3,0-6-2.7-6-6V153.9c0-3.3,2.7-6,6-6H353c3.3,0,6,2.7,6,6v139.7c0,3.3-2.7,6-6,6s-6-2.7-6-6v-15.9H69.2
							v38.7h71.9c3.3,0,6,2.7,6,6S144.4,328.4,141.1,328.4z M310.3,265.7H347V159.9h-36.7V265.7z M262.1,265.7h36.2V159.9h-36.2
							V265.7z M213.9,265.7h36.2V159.9h-36.2V265.7z M165.6,265.7h36.3V159.9h-36.3V265.7z M117.4,265.7h36.2V159.9h-36.2
							C117.4,159.9,117.4,265.7,117.4,265.7z M69.2,265.7h36.2V159.9H69.2V265.7z M436.9,256.5h-53.4c-3.3,0-6-2.7-6-6v-37.3
							c0-3.3,2.7-6,6-6H436c3.3,0,6,2.7,6,6s-2.7,6-6,6h-46.5v25.3h47.4c3.3,0,6,2.7,6,6S440.2,256.5,436.9,256.5z"/>
					</g>
					<g>
						<path class="st1" d="M436.8,328.4h-56.3c-3.3,0-6-2.7-6-6s2.7-6,6-6h50.3v-95.1c0-2.3-0.3-4.6-0.7-6.8
							c-3.2-14.7-16.3-25.2-31.3-25.2H359v104.3c0,3.3-2.7,6-6,6s-6-2.7-6-6V183.3c0-3.3,2.7-6,6-6h45.8c20.6,0,38.6,14.6,43,34.6
							c0.7,2.9,1,6.1,1,9.4v101.1C442.8,325.7,440.1,328.4,436.8,328.4z M392.1,284.7h-8.7c-3.3,0-6-2.7-6-6s2.7-6,6-6h8.7
							c3.3,0,6,2.7,6,6S395.4,284.7,392.1,284.7z"/>
					</g>
				</g>
				<g>
					<path class="st1" d="M352.6,357.5c-18.7,0-34-15.3-34-34s15.3-34,34-34s34,15.3,34,34S371.3,357.5,352.6,357.5z M352.6,301.5
						c-12.1,0-22,9.9-22,22s9.9,22,22,22s22-9.9,22-22S364.7,301.5,352.6,301.5z M169.1,357.5c-18.7,0-34-15.3-34-34s15.3-34,34-34
						s34,15.3,34,34S187.8,357.5,169.1,357.5z M169.1,301.5c-12.1,0-22,9.9-22,22s9.9,22,22,22s22-9.9,22-22
						S181.2,301.5,169.1,301.5z M352.6,329.5c-3.3,0-6-2.7-6-6s2.6-6,6-6h0.1c3.3,0,6,2.7,6,6S355.9,329.5,352.6,329.5z
						 M169.2,329.5h-0.1c-3.3,0-6-2.7-6-6s2.7-6,6-6h0.1c3.3,0,6,2.7,6,6S172.5,329.5,169.2,329.5z"/>
				</g>
			</g>
		</g>
	</g>
</g>
</svg>
