<?xml version="1.0" encoding="utf-8"?>
<!-- Generator: Adobe Illustrator 27.5.0, SVG Export Plug-In . SVG Version: 6.00 Build 0)  -->
<svg version="1.1" id="Layer_1" xmlns="http://www.w3.org/2000/svg" xmlns:xlink="http://www.w3.org/1999/xlink" x="0px" y="0px"
	 viewBox="0 0 500 500" style="enable-background:new 0 0 500 500;" xml:space="preserve">
<style type="text/css">
	.st0{fill:#F9423A;}
	.st1{display:none;fill:none;stroke:#F9423A;stroke-width:12.04;stroke-linecap:round;stroke-linejoin:round;}
	.st2{fill:none;stroke:#F9423A;stroke-width:12.04;stroke-linecap:round;stroke-linejoin:round;}
</style>
<g>
	<g>
		<path class="st0" d="M251.4,276.4c-2.2,0-4.4-0.2-6.8-0.7c-3.3-0.6-5.4-3.8-4.8-7c0.6-3.3,3.8-5.4,7-4.8c5.3,1,9.4,0.4,12.7-1.9
			c3.1-2.2,4.9-5.6,5.9-8.1l-49.1-29.1c-1-0.6-1.8-1.5-2.3-2.5l-26.6-53.9c-1.5-3-0.2-6.6,2.7-8c3-1.5,6.6-0.2,8,2.7l25.8,52.3
			l51.5,30.5c2.1,1.2,3.2,3.6,2.9,6c-0.1,0.5-2,12.8-11.8,19.8C262.2,274.8,257.1,276.4,251.4,276.4z"/>
	</g>
	<g>
		<path class="st0" d="M118.6,436.8c-1,0-1.9-0.2-2.8-0.7c-3-1.6-5.9-3.1-8.9-4.7c-2.9-1.6-5.9-3.1-8.8-4.7
			c-14-7.3-30.7-16.2-30.8-16.3c-1.4-0.8-2.5-2-2.9-3.6s-0.3-3.2,0.5-4.6l7.1-13.1l34.4-63.3l-8.2-93.4c-0.3-3.3,2.1-6.2,5.4-6.5
			s6.2,2.1,6.5,5.4l8.4,95.2c0.1,1.2-0.1,2.4-0.7,3.4l-39.5,72.7c6.1,3.2,16.3,8.7,25.4,13.4c3,1.6,5.9,3.1,8.9,4.7
			c1.5,0.8,2.9,1.6,4.4,2.3c1.9-6.3-4.9-17.6-7.2-20.8c-1.5-2-1.6-4.7-0.2-6.7l36.6-58.3l10.3-81.2c0.4-3.3,3.4-5.6,6.7-5.2
			c3.3,0.4,5.6,3.4,5.2,6.7L157.9,340c-0.1,0.9-0.4,1.7-0.9,2.4l-35.2,56.1c6.8,10.7,12.7,27.7,0.4,36.9
			C121.2,436.4,119.9,436.8,118.6,436.8z"/>
	</g>
	<g>
		<path class="st0" d="M205.2,139.2c-1.7,0-3.3-0.3-4.9-1l-17.6-7.6l0,0c-13.6-5.9-20-21.8-14.2-35.5l6.5-15.2
			c6-13.7,21.9-20.1,35.6-14.1l4.1,1.8c6.6,2.9,11.7,8.1,14.4,14.9s2.6,14.1-0.3,20.7l-12.3,28.7c-1.3,3-3.7,5.4-6.8,6.6
			C208.3,138.9,206.7,139.2,205.2,139.2z M187.5,119.6l17.6,7.6c0.1,0,0.1,0.1,0.2,0c0.1,0,0.2-0.1,0.2-0.2l12.3-28.7
			c3.3-7.5-0.4-16.6-7.9-19.8l-4.1-1.8c-3.6-1.6-7.7-1.6-11.5-0.1s-6.7,4.3-8.3,8l-6.5,15.2C176.3,107.4,179.9,116.3,187.5,119.6z"
			/>
	</g>
	<g>
		<path class="st0" d="M153.3,439.6c-1.6,0-3.1-0.6-4.2-1.7c-1.1-1.1-1.8-2.7-1.8-4.3v-14.9l-1.1-75.2c0-3.3,2.6-6,5.9-6.1h0.1
			c3.3,0,5.9,2.6,6,5.9l1.1,75.3v9c6.9,0,18.5-0.1,28.8-0.3c3.7,0,7.2-0.1,10.3-0.1c1.8,0,3.4,0,4.8,0c-1.2-6.5-12.6-13.2-16.2-14.8
			c-2.2-1-3.6-3.3-3.5-5.8l3.8-66.7L156,257.6c-1.2-3.1,0.4-6.6,3.5-7.7c3.1-1.2,6.6,0.4,7.7,3.5l31.8,83.5c0.3,0.8,0.4,1.6,0.4,2.5
			l-3.7,64.1c11,6.2,24.4,18.2,17.9,32.3c-0.9,2.1-3,3.4-5.3,3.5c-2,0.1-5.5,0.1-10,0.1c-3.1,0-6.6,0-10.2,0.1
			C172.4,439.5,153.5,439.6,153.3,439.6L153.3,439.6z"/>
	</g>
	<g>
		<path class="st0" d="M162.4,262.9c-0.8,0-1.6-0.2-2.4-0.5l-58.3-25.1c-3-1.3-4.4-4.8-3.1-7.9l29.6-69c4-9.3,11.4-16.5,20.8-20.2
			c9.4-3.7,19.6-3.6,28.9,0.5c9.3,4,16.4,11.3,20.2,20.7c3.7,9.4,3.6,19.6-0.5,28.9l-6.7,15.6c-1.3,3-4.8,4.5-7.9,3.1
			c-3-1.3-4.5-4.8-3.1-7.9l6.7-15.6c2.7-6.3,2.9-13.3,0.3-19.7c-2.5-6.4-7.4-11.4-13.8-14.2c-6.3-2.7-13.3-2.9-19.7-0.3
			c-6.4,2.5-11.4,7.4-14.2,13.8L112,228.7l47.3,20.4l4.2-9.8c1.3-3,4.8-4.4,7.9-3.1c3,1.3,4.4,4.8,3.1,7.9l-6.6,15.3
			C166.9,261.5,164.7,262.9,162.4,262.9z"/>
	</g>
	<g>
		<path class="st0" d="M338.1,405.6c-2.4,0-4.7-1.5-5.6-3.9l-27.9-75.9c-0.5-1.5-0.5-3.1,0.2-4.6c0.7-1.4,1.9-2.6,3.4-3.1l77.2-28.3
			c0.7-0.2,1.4-0.4,2.1-0.4c4.2,0,5.3,2.9,6.9,7.2c0.8,2.1,1.9,5,3.2,8.6c2.6,7.1,6.1,16.6,9.6,26.1c7,19,13.9,38,13.9,38
			c1.1,3.1-0.5,6.6-3.6,7.7l-77.2,28.3C339.5,405.5,338.8,405.6,338.1,405.6z M317.9,327.3l23.8,64.6l65.9-24.2
			c-8.5-23.1-19.3-52.6-23.7-64.6L317.9,327.3z"/>
	</g>
	<g>
		<path class="st0" d="M322.4,325.1c-2.4,0-4.7-1.5-5.6-3.9l-32.3-87.9c-0.5-1.5-0.5-3.1,0.2-4.6s1.9-2.6,3.4-3.1l50.2-18.4
			c3.1-1.1,6.6,0.5,7.7,3.6l32.3,87.9c0.5,1.5,0.5,3.1-0.2,4.6c-0.7,1.4-1.9,2.6-3.4,3.1l-50.2,18.4
			C323.8,325,323.1,325.1,322.4,325.1z M297.8,234.8l28.2,76.6l38.9-14.3l-28.2-76.6L297.8,234.8z"/>
	</g>
	<g>
		<path class="st0" d="M312,435.6c-3.8,0-7.6-0.8-11.2-2.5c-6.5-3-11.4-8.4-13.9-15.1l0,0c-4.3-11.9,0.4-24.9,10.6-31.6l-55.8-152.7
			l-14.3,13.1c-2.4,2.2-6.2,2.1-8.5-0.4c-2.2-2.4-2.1-6.2,0.4-8.5l20.9-19.1c1.5-1.4,3.5-1.9,5.5-1.4c1.9,0.5,3.5,1.9,4.2,3.8
			l58.9,161.1c4.9-0.6,9.9,0.1,14.5,2.3c4.7,2.2,8.6,5.6,11.4,10l91.2-33.6c3.1-1.1,6.6,0.4,7.7,3.6c1.1,3.1-0.4,6.6-3.6,7.7
			l-91.3,33.6c0.6,4.8-0.2,9.7-2.3,14.2c-3,6.5-8.4,11.4-15.1,13.9C318.3,435,315.1,435.6,312,435.6z M298.2,413.9
			c1.3,3.7,4.1,6.6,7.6,8.3c3.6,1.7,7.6,1.8,11.2,0.4c3.7-1.4,6.7-4.1,8.3-7.6c1.6-3.6,1.8-7.6,0.4-11.2c-1.4-3.7-4.1-6.7-7.6-8.3
			c-3.4-1.6-7.1-1.8-10.7-0.6c-0.2,0.1-0.3,0.1-0.5,0.2s-0.3,0.1-0.5,0.2C299.3,398.2,295.5,406.5,298.2,413.9L298.2,413.9z"/>
	</g>
	<g>
		<path class="st0" d="M224.2,280.6c-2.2,0-4.5-0.2-6.9-0.7c-0.7-0.1-1.3-0.4-1.9-0.7l-47-27.9c-0.9-0.6-1.7-1.4-2.2-2.3l-40.8-76.1
			c-1.6-2.9-0.5-6.6,2.5-8.1c2.9-1.6,6.6-0.5,8.1,2.5l40,74.6l44.6,26.5c4.8,0.8,8.6,0.1,11.7-2c3.1-2.2,4.9-5.6,5.9-8.2L189,229
			c-1-0.6-1.8-1.5-2.3-2.5l-26.6-53.9c-1.5-3-0.2-6.6,2.7-8c3-1.5,6.6-0.2,8,2.7l25.8,52.3l51.5,30.5c2.1,1.2,3.2,3.6,2.9,6
			c-0.1,0.5-2,12.9-11.8,19.9C234.9,279,229.8,280.6,224.2,280.6z"/>
	</g>
	<g>
		<path class="st0" d="M224.2,280.6c-2.2,0-4.5-0.2-6.9-0.7c-0.7-0.1-1.3-0.4-1.9-0.7l-47-27.9c-0.9-0.6-1.7-1.4-2.2-2.3l-40.8-76.1
			c-1.6-2.9-0.5-6.6,2.5-8.1c2.9-1.6,6.6-0.5,8.1,2.5l40,74.6l44.6,26.5c4.8,0.8,8.6,0.1,11.7-2c3.1-2.2,4.9-5.6,5.9-8.2L189,229
			c-1-0.6-1.8-1.5-2.3-2.5l-26.6-53.9c-1.5-3-0.2-6.6,2.7-8c3-1.5,6.6-0.2,8,2.7l25.8,52.3l51.5,30.5c2.1,1.2,3.2,3.6,2.9,6
			c-0.1,0.5-2,12.9-11.8,19.9C234.9,279,229.8,280.6,224.2,280.6z"/>
	</g>
	<g>
		<g>
			<path class="st1" d="M0,500"/>
		</g>
		<g>
			<path class="st2" d="M0,500"/>
		</g>
		<g>
			<path class="st2" d="M0,500"/>
		</g>
		<g>
			<path class="st2" d="M0,500"/>
		</g>
		<g>
			<path class="st2" d="M0,500"/>
		</g>
		<g>
			<path class="st2" d="M0,500"/>
		</g>
		<g>
			<path class="st2" d="M0,500"/>
		</g>
		<g>
			<path class="st2" d="M0,500"/>
		</g>
		<g>
			<path class="st2" d="M0,500"/>
		</g>
		<g>
			<path class="st2" d="M0,500"/>
		</g>
		<g>
			<path class="st2" d="M0,500"/>
		</g>
		<g>
			<path class="st2" d="M0,500"/>
		</g>
		<g>
			<path class="st2" d="M0,500"/>
		</g>
		<g>
			<path class="st2" d="M0,500"/>
		</g>
		<g>
			<path class="st2" d="M0,500"/>
		</g>
		<g>
			<path class="st2" d="M0,500"/>
		</g>
		<g>
			<path class="st2" d="M0,500"/>
		</g>
		<g>
			<path class="st2" d="M0,500"/>
		</g>
		<g>
			<path class="st2" d="M0,500"/>
		</g>
		<g>
			<path class="st2" d="M0,500"/>
		</g>
		<g>
			<path class="st2" d="M0,500"/>
		</g>
		<g>
			<path class="st2" d="M0,500"/>
		</g>
		<g>
			<path class="st2" d="M0,500"/>
		</g>
	</g>
</g>
</svg>
