<?xml version="1.0" encoding="utf-8"?>
<!-- Generator: Adobe Illustrator 27.5.0, SVG Export Plug-In . SVG Version: 6.00 Build 0)  -->
<svg version="1.1" id="Layer_1" xmlns="http://www.w3.org/2000/svg" xmlns:xlink="http://www.w3.org/1999/xlink" x="0px" y="0px"
	 viewBox="0 0 500 500" style="enable-background:new 0 0 500 500;" xml:space="preserve">
<style type="text/css">
	.st0{clip-path:url(#SVGID_00000137133195539334371660000009342628299090818962_);}
	.st1{fill:#F9423A;}
</style>
<g>
	<g>
		<g>
			<defs>
				<rect id="SVGID_1_" width="500" height="500"/>
			</defs>
			<clipPath id="SVGID_00000026121064053542424660000012206593127830078648_">
				<use xlink:href="#SVGID_1_"  style="overflow:visible;"/>
			</clipPath>
			<g style="clip-path:url(#SVGID_00000026121064053542424660000012206593127830078648_);">
				<g>
					<path class="st1" d="M218.2,281.6c-1.7,0-3.5-0.7-4.6-2.2c-2.1-2.6-1.7-6.3,0.8-8.4l24.3-20H63c-3.3,0-6-2.7-6-6s2.7-6,6-6
						h175.7l-24.3-20c-2.6-2.1-2.9-5.9-0.8-8.4c2.1-2.6,5.9-2.9,8.4-0.8l37.2,30.5c0.2,0.1,0.4,0.3,0.5,0.5c0.5,0.5,0.9,1.1,1.2,1.7
						c0.1,0.2,0.2,0.4,0.2,0.6l0,0l0,0l0,0l0,0l0,0l0,0l0,0l0,0l0,0l0,0c0.1,0.2,0.1,0.4,0.2,0.6l0,0l0,0l0,0l0,0
						c0.1,0.5,0.2,0.9,0.2,1.4c0,0.4,0,0.9-0.1,1.3l0,0l0,0l0,0l0,0c-0.1,0.2-0.1,0.5-0.2,0.7l0,0l0,0l0,0l0,0l0,0l0,0l0,0l0,0l0,0
						l0,0c-0.1,0.2-0.1,0.3-0.2,0.5c-0.3,0.6-0.7,1.2-1.2,1.7c-0.2,0.2-0.3,0.3-0.5,0.5L222,280.2
						C220.9,281.2,219.5,281.6,218.2,281.6z"/>
				</g>
				<g>
					<path class="st1" d="M359.7,383.2c-17.1,0-31.3-12.4-34.2-28.7H188.6c-2.9,16.3-17.1,28.7-34.2,28.7s-31.3-12.4-34.2-28.7H89.9
						c-3.3,0-6-2.7-6-6v-68.8c0-3.3,2.7-6,6-6s6,2.7,6,6v62.8h24.3c2.9-16.3,17.1-28.7,34.2-28.7s31.3,12.4,34.2,28.7h114.2V157.9
						H95.9v52.3c0,3.3-2.7,6-6,6s-6-2.7-6-6v-58.3c0-3.3,2.7-6,6-6h218.9c3.3,0,6,2.7,6,6v38.4h34c17.3,0,33.2,10.1,40.4,25.8
						l26.2,56.4c0.4,0.7,0.6,1.6,0.6,2.4c0,0.1,0,0.1,0,0.2v73.4c0,3.3-2.7,6-6,6h-16.2C391,370.8,376.8,383.2,359.7,383.2z
						 M359.7,325.8c-12.5,0-22.7,10.2-22.7,22.7s10.2,22.7,22.7,22.7c12.1,0,21.9-9.4,22.7-21.3c-0.1-0.4-0.2-0.9-0.2-1.4
						s0.1-0.9,0.2-1.4C381.6,335.2,371.8,325.8,359.7,325.8z M154.4,325.8c-12.5,0-22.7,10.2-22.7,22.7s10.2,22.7,22.7,22.7
						s22.7-10.2,22.7-22.7S166.9,325.8,154.4,325.8z M393.9,342.5h10.2v-61.4h-89.3v61.4h10.7c2.9-16.3,17.1-28.7,34.2-28.7
						S391,326.2,393.9,342.5z M314.8,269.1h85.9l-22.3-48c-5.3-11.4-16.9-18.8-29.6-18.8h-34V269.1z"/>
				</g>
			</g>
		</g>
	</g>
</g>
</svg>
