<?xml version="1.0" encoding="utf-8"?>
<!-- Generator: Adobe Illustrator 27.5.0, SVG Export Plug-In . SVG Version: 6.00 Build 0)  -->
<svg version="1.1" id="Layer_1" xmlns="http://www.w3.org/2000/svg" xmlns:xlink="http://www.w3.org/1999/xlink" x="0px" y="0px"
	 viewBox="0 0 500 500" style="enable-background:new 0 0 500 500;" xml:space="preserve">
<style type="text/css">
	.st0{fill:#F9423A;}
	.st1{display:none;fill:none;stroke:#F84239;stroke-width:12;stroke-linecap:round;stroke-linejoin:round;}
	.st2{fill:none;stroke:#F84239;stroke-width:12;stroke-linecap:round;stroke-linejoin:round;}
</style>
<g>
	<g>
		<g>
			<path class="st0" d="M220.1,371.5c-40.4,0-78.3-15.7-106.9-44.3C84.7,298.7,69,260.7,69,220.4c0-40.4,15.7-78.3,44.3-106.9
				c28.6-28.6,66.5-44.3,106.9-44.3c40.4,0,78.3,15.7,106.9,44.3l0,0c28.6,28.6,44.3,66.5,44.3,106.9c0,40.4-15.7,78.3-44.3,106.9
				C298.5,355.8,260.5,371.5,220.1,371.5z M220.1,81.2c-37.2,0-72.1,14.5-98.4,40.8C95.5,148.2,81,183.2,81,220.4
				s14.5,72.1,40.8,98.4c26.3,26.3,61.2,40.8,98.4,40.8s72.1-14.5,98.4-40.8c26.3-26.3,40.8-61.2,40.8-98.4s-14.5-72.1-40.8-98.4
				l0,0C292.3,95.7,257.3,81.2,220.1,81.2z"/>
		</g>
		<g>
			<path class="st0" d="M413.2,417.5c-1.5,0-3-0.6-4.2-1.7l-88-86.5c-2.4-2.3-2.4-6.1-0.1-8.5c2.3-2.4,6.1-2.4,8.5-0.1l88,86.5
				c2.4,2.3,2.4,6.1,0.1,8.5C416.3,416.9,414.8,417.5,413.2,417.5z"/>
		</g>
		<g>
			<path class="st0" d="M220.3,221.2c-3.3,0-6-2.7-6-6v-57.8c0-3.3,2.7-6,6-6s6,2.7,6,6v57.8C226.3,218.5,223.6,221.2,220.3,221.2z"
				/>
		</g>
		<g>
			<path class="st0" d="M220.3,285.5c-3.3,0-6-2.7-6-6v-57.8c0-3.3,2.7-6,6-6s6,2.7,6,6v57.8C226.3,282.8,223.6,285.5,220.3,285.5z"
				/>
		</g>
		<g>
			<path class="st0" d="M281.3,224.5h-57.7c-3.3,0-6-2.7-6-6s2.7-6,6-6h57.7c3.3,0,6,2.7,6,6S284.6,224.5,281.3,224.5z"/>
		</g>
		<g>
			<path class="st0" d="M217,224.5h-57.7c-3.3,0-6-2.7-6-6s2.7-6,6-6H217c3.3,0,6,2.7,6,6S220.3,224.5,217,224.5z"/>
		</g>
	</g>
	<g>
		<g>
			<g>
				<path class="st1" d="M0,500"/>
			</g>
		</g>
		<g>
			<g>
				<path class="st2" d="M0,500"/>
			</g>
		</g>
		<g>
			<g>
				<path class="st2" d="M0,500"/>
			</g>
		</g>
		<g>
			<g>
				<path class="st2" d="M0,500"/>
			</g>
		</g>
		<g>
			<g>
				<path class="st2" d="M0,500"/>
			</g>
		</g>
		<g>
			<g>
				<path class="st2" d="M0,500"/>
			</g>
		</g>
		<g>
			<g>
				<path class="st2" d="M0,500"/>
			</g>
		</g>
		<g>
			<g>
				<path class="st2" d="M0,500"/>
			</g>
		</g>
		<g>
			<g>
				<path class="st2" d="M0,500"/>
			</g>
		</g>
		<g>
			<g>
				<path class="st2" d="M0,500"/>
			</g>
		</g>
		<g>
			<g>
				<path class="st2" d="M0,500"/>
			</g>
		</g>
		<g>
			<g>
				<path class="st2" d="M0,500"/>
			</g>
		</g>
	</g>
</g>
</svg>
