<?xml version="1.0" encoding="utf-8"?>
<!-- Generator: Adobe Illustrator 27.5.0, SVG Export Plug-In . SVG Version: 6.00 Build 0)  -->
<svg version="1.1" id="Layer_1" xmlns="http://www.w3.org/2000/svg" xmlns:xlink="http://www.w3.org/1999/xlink" x="0px" y="0px"
	 viewBox="0 0 500 500" style="enable-background:new 0 0 500 500;" xml:space="preserve">
<style type="text/css">
	.st0{fill:#F84239;}
	.st1{fill:#F9423A;}
	.st2{fill:none;stroke:#F84239;stroke-width:12.015;stroke-linecap:round;stroke-linejoin:round;}
</style>
<g>
	<g>
		<path class="st0" d="M84.6,291.8c-3.2,0-5.8-2.5-6-5.7c-0.1-1.7-0.2-3.6-0.3-5.7c-1.6-32.8-5-101.1,26.6-134.2
			c11.7-12.3,27-18.5,45.5-18.5h0.7c11.2,0,21.4,2.3,30.3,7c2.9,1.5,4.1,5.1,2.6,8.1c-1.5,2.9-5.1,4.1-8.1,2.6
			c-7.2-3.7-15.5-5.6-24.7-5.6h-0.7c-15.3,0-27.3,4.8-36.8,14.8c-28,29.4-24.8,94.2-23.3,125.3c0.1,2.1,0.2,4,0.3,5.7
			c0.1,3.3-2.4,6.1-5.7,6.3C84.8,291.8,84.7,291.8,84.6,291.8z"/>
	</g>
	<g>
		<g>
			<path class="st1" d="M152.4,273.6h-1.1c-28.9,0-52.4-23.5-52.4-52.4v-22.7c0-3.3,2.7-6,6-6s6,2.7,6,6v22.7
				c0,22.3,18.1,40.4,40.4,40.4h1.1c16.8,0,32.1-10.6,37.9-26.5c1.1-3.1,4.6-4.7,7.7-3.6c3.1,1.1,4.7,4.6,3.6,7.7
				C194,259.8,174.2,273.6,152.4,273.6z"/>
		</g>
		<g>
			<path class="st1" d="M101.9,205.1c-1.3,0-2.5-0.4-3.6-1.2c-1.4-1-2.2-2.5-2.4-4.2c-0.3-2.9-2.8-28.7,0.4-40.3
				c0.9-3.2,4.2-5.1,7.4-4.2c3.2,0.9,5.1,4.2,4.2,7.4c-1.7,6.2-1.2,19.9-0.6,29.2c48-12.2,56.6-40.1,56.9-41.3
				c0.5-1.8,1.8-3.2,3.5-3.9s3.6-0.6,5.2,0.3c4.7,2.6,9.1,5.9,12.9,9.9c2.3,2.4,2.3,6.2-0.1,8.5c-2.4,2.3-6.2,2.3-8.5-0.1
				c-1.4-1.5-2.9-2.8-4.5-4.1c-6.1,11.5-23.2,33.5-66.4,43.3h-0.1l-3,0.6C102.7,205.1,102.3,205.1,101.9,205.1z"/>
		</g>
	</g>
	<g>
		<g>
			<path class="st1" d="M138.3,389.5c-13.3,0-20.3-3.1-27-6c-6.2-2.7-12.6-5.6-25.8-6.6H71.1c-9.6,0-17.5-7.9-17.5-17.5v-23.6
				c0-35.8,29.1-64.9,64.8-65l1.1-0.1v-8.5c0-3.3,2.7-6,6-6s6,2.7,6,6v14.2c0,3.2-2.5,5.8-5.7,6l-6.9,0.4c-0.1,0-0.2,0-0.3,0
				c-29.2,0-53,23.8-53,53v23.6c0,3,2.5,5.5,5.5,5.5h14.6c0.2,0,0.3,0,0.5,0c15.4,1.2,23.1,4.6,30,7.6c6.3,2.8,11.4,5,22.2,5
				c3.3,0,6,2.7,6,6S141.6,389.5,138.3,389.5z"/>
		</g>
		<g>
			<path class="st1" d="M206.3,287.4c-0.8,0-1.5-0.1-2.3-0.4c-6.7-2.8-13.7-4.2-20.7-4.2c-0.1,0-0.2,0-0.3,0l-6.9-0.4
				c-3.2-0.2-5.7-2.8-5.7-6v-14.6c0-3.3,2.7-6,6-6s6,2.7,6,6v8.9l1.1,0.1c8.5,0,17,1.7,25.1,5c3.1,1.3,4.5,4.8,3.3,7.8
				C210.9,286,208.7,287.4,206.3,287.4z"/>
		</g>
		<g>
			<path class="st1" d="M154,315.6c-26.9,0-50.2-17.4-50.9-38.1c-0.1-3.3,2.5-6.1,5.8-6.2s6.1,2.5,6.2,5.8
				c0.5,14.1,18.7,26.5,38.9,26.5c3.3,0,6,2.7,6,6S157.3,315.6,154,315.6z"/>
		</g>
	</g>
	<g>
		<path class="st1" d="M416.4,291.8c-0.1,0-0.2,0-0.3,0c-3.3-0.1-5.9-2.9-5.7-6.3c0.1-1.7,0.2-3.7,0.3-5.7
			c1.5-31.1,4.7-95.9-23.3-125.3c-9.5-9.9-21.5-14.8-36.8-14.8h-0.7c-13,0-24.1,3.8-32.9,11.2c-2.5,2.1-6.3,1.8-8.5-0.7
			c-2.1-2.5-1.8-6.3,0.7-8.5c11.1-9.3,24.8-14,40.7-14h0.7c18.5,0,33.8,6.2,45.5,18.5c31.5,33.1,28.2,101.4,26.6,134.2
			c-0.1,2.1-0.2,4-0.3,5.7C422.3,289.3,419.6,291.8,416.4,291.8z"/>
	</g>
	<g>
		<g>
			<path class="st1" d="M350.8,273.6h-1.1c-28.6,0-51-22.8-51-51.9c0-3.3,2.7-6,6-6s6,2.7,6,6c0,22.4,17.1,39.9,39,39.9h1.1
				c22.3,0,40.4-18.1,40.4-40.4v-25.4c0-3.3,2.7-6,6-6s6,2.7,6,6v25.4C403.2,250.1,379.7,273.6,350.8,273.6z"/>
		</g>
		<g>
			<path class="st1" d="M304.6,204.5c-2.7,0-5.2-1.9-5.8-4.7c-0.7-3.2,1.3-6.4,4.5-7.2c51.7-11.7,59.1-41.6,59.2-41.9
				c0.4-1.8,1.7-3.4,3.4-4.1c1.7-0.8,3.7-0.7,5.3,0.2c9.3,5.1,17.2,13.4,22.8,22.4c-0.1-3.1-0.1-5.9-0.2-7.7
				c-0.1-3.3,2.5-6.1,5.8-6.2c3.3-0.1,6.1,2.5,6.2,5.8c0.7,24.1-0.2,34.6-3.6,40.1c-1.5,2.4-4.4,3.4-7.1,2.5s-4.3-3.5-4-6.3l0,0
				c0,0,0-0.5,0-1.3c0-0.1,0-0.3,0-0.4c0-9.8-8.4-25.5-20-34.6c-5.9,11.7-22.2,33.4-65.2,43.2C305.5,204.5,305,204.5,304.6,204.5z"
				/>
		</g>
	</g>
	<g>
		<g>
			<path class="st1" d="M363.7,389.5c-3.3,0-6-2.7-6-6s2.7-6,6-6c10.8,0,15.8-2.2,22.2-5c6.8-3,14.6-6.4,30-7.6c0.2,0,0.3,0,0.5,0
				H431c3,0,5.5-2.5,5.5-5.5v-23.6c0-29.2-23.8-53-53-53c-0.1,0-0.2,0-0.3,0l-6.9-0.4c-3.2-0.2-5.7-2.8-5.7-6v-14.2c0-3.3,2.7-6,6-6
				s6,2.7,6,6v8.5l1.1,0.1c35.8,0.1,64.8,29.2,64.8,65v23.6c0,9.6-7.9,17.5-17.5,17.5h-14.4c-13.2,1-19.6,3.9-25.8,6.6
				C384,386.4,377,389.5,363.7,389.5z"/>
		</g>
		<g>
			<path class="st1" d="M293.9,288.2c-2.2,0-4.3-1.2-5.4-3.3c-1.5-3-0.3-6.6,2.6-8.1c8.6-4.3,16.2-6,27.3-6l1.1-0.1v-8.9
				c0-3.3,2.7-6,6-6s6,2.7,6,6v14.6c0,3.2-2.5,5.8-5.7,6l-6.9,0.4c-0.1,0-0.2,0-0.3,0c-9.3,0-15.2,1.3-22.1,4.8
				C295.7,288,294.8,288.2,293.9,288.2z"/>
		</g>
		<g>
			<path class="st1" d="M347,315.4c-3.3,0-6-2.7-6-6s2.7-6,6-6c20.4,0,39.4-12.5,39.9-26.3c0.1-3.3,2.9-5.9,6.2-5.8
				c3.3,0.1,5.9,2.9,5.8,6.2C398.1,300.2,371.4,315.4,347,315.4z"/>
		</g>
	</g>
	<g>
		<g>
			<path class="st1" d="M250.1,278.4h-1.3c-33.4,0-60.5-27.1-60.5-60.5v-26.7c0-3.3,2.7-6,6-6s6,2.7,6,6v26.7
				c0,26.7,21.8,48.5,48.5,48.5h1.3c26.7,0,48.5-21.8,48.5-48.5V188c0-3.3,2.7-6,6-6s6,2.7,6,6v29.9
				C310.6,251.3,283.5,278.4,250.1,278.4z"/>
		</g>
		<g>
			<path class="st1" d="M190.8,197.9c-2.5,0-4.8-1.6-5.7-4.1c-0.2-0.7-6.1-18.2-8.4-38.2c-3.2-28.5,2.5-47.2,17-55.5
				c5.2-3,13.1-2.8,18.2,0.6c3.5,2.2,6.8,5.3,9.5,7.8c1.1,1,2.1,2,2.9,2.6c1.1,0.9,2.4,1.4,3.7,1.3c1.9-0.1,6.8-0.7,12.1-3.5
				c0.2-0.1,0.4-0.2,0.6-0.3c23.9-9.5,45.1-9.1,59.9,1.1c10.6,7.3,16.5,19.2,16.2,32.5c-0.1,5.3-0.1,10.3,0,15.1
				c0.2,18.2,0.3,32.6-9.1,38.4c-1.9,1.2-4.3,1.2-6.3,0.1c-1.9-1.2-3-3.3-2.9-5.5c0.1-1.3,1.2-27.9-24.9-45.1
				c-6.6,13.2-26.7,41.1-81.7,52.4C191.6,197.9,191.2,197.9,190.8,197.9z M202.2,110.1c-1,0-1.9,0.2-2.5,0.5
				c-18.9,10.9-11,53.3-4.8,74.3c59.9-14.2,70-49.3,70.1-49.7c0.5-1.8,1.7-3.2,3.4-3.9c1.7-0.7,3.6-0.7,5.2,0.2
				c17.1,9,26.4,21.3,31.3,32.4c0-2.1,0-4.1,0-6.2c0-4.9-0.1-10.1,0-15.5c0.2-9.3-3.8-17.3-11.1-22.3c-11.1-7.7-28.7-7.7-48.3,0
				c-7.1,3.7-13.6,4.6-16.9,4.7h-0.1c-4.2,0.1-8.4-1.3-11.8-4.1c-1.1-0.9-2.2-1.9-3.4-3.1c-2.5-2.3-5.3-4.8-7.9-6.5
				C204.6,110.4,203.3,110.1,202.2,110.1z"/>
		</g>
	</g>
	<g>
		<g>
			<path class="st1" d="M297.1,378.1h-3.8c-11.2,0-20.4-9.2-20.4-20.4v-2c0-0.4,0-0.8,0.1-1.2c0.1-3.8,0.3-7.3,0.6-10.1
				c0.4-3,1.3-10,7.5-10h0.2c1.8,0,3.4,0.7,5.7,2.6c5.4-3.2,11.1-3.2,16.5,0c2.6-2.1,4.1-2.6,5.7-2.6h0.2c6.1,0,7,6.8,7.4,10
				c0.4,3.1,0.6,6.9,0.7,11c0,0.1,0,0.2,0,0.3v2C317.5,368.9,308.3,378.1,297.1,378.1z M284.9,357.8c0,4.6,3.8,8.3,8.4,8.3h3.8
				c4.6,0,8.4-3.8,8.4-8.4v-1c0-2.3-0.1-4.3-0.2-6c-0.5,0.1-0.9,0.2-1.4,0.2l0,0c-1.6,0-3.1-0.6-4.2-1.8c-3.3-3.3-5.4-3.3-8.9,0
				c-1.1,1.1-2.7,1.7-4.3,1.7c-0.5,0-0.9-0.1-1.4-0.2c-0.1,1.7-0.1,3.7-0.1,6C285,357.1,285,357.4,284.9,357.8z M311.8,345.7
				L311.8,345.7L311.8,345.7z M250,315.7h-2.2c-18.9,0-34.2-15.3-34.2-34.2v-17.6c0-3.3,2.7-6,6-6s6,2.7,6,6v17.6
				c0,12.2,10,22.2,22.2,22.2h2.2c12.2,0,22.2-10,22.2-22.2v-16.8c0-3.3,2.7-6,6-6s6,2.7,6,6v16.8
				C284.2,300.4,268.9,315.7,250,315.7z"/>
		</g>
		<g>
			<path class="st1" d="M279,356.7c0-9,0.9-16.3,2.1-16.3h0.2c0.5,0,2.1,1.2,5.3,4.5c5.8-5.7,11.6-5.7,17.3,0
				c3.2-3.3,4.9-4.5,5.3-4.5h0.2c1.1,0,2.1,7.3,2.1,16.3v-1v2c0,8-6.5,14.4-14.4,14.4h-3.8c-8,0-14.4-6.5-14.4-14.4v-2"/>
		</g>
		<g>
			<path class="st1" d="M265.2,414.6H235c-15.6,0-23.8-3.6-31.6-7c-7.5-3.3-15.2-6.7-31-8h-17.1c-10.8,0-19.6-8.8-19.6-19.6v-28
				c0-41.9,34.1-76,75.9-76.1l7.9-0.4c3.3-0.2,6.1,2.4,6.3,5.7c0.2,3.3-2.4,6.1-5.7,6.3l-8,0.4c-0.1,0-0.2,0-0.3,0
				c-35.3,0-64.1,28.8-64.1,64.1v28c0,4.2,3.4,7.6,7.6,7.6h17.3c0.2,0,0.3,0,0.5,0c18,1.4,27.1,5.4,35.1,9c7.6,3.4,13.7,6,26.8,6
				h30.2c13.1,0,19.1-2.7,26.7-6c8-3.5,17.1-7.5,35.2-9c0.2,0,0.3,0,0.5,0h17.3c4.2,0,7.6-3.4,7.6-7.6v-28
				c0-35.3-28.8-64.1-64.1-64.1c-0.1,0-0.2,0-0.3,0l-8-0.4c-3.3-0.2-5.9-3-5.7-6.3c0.2-3.3,3-5.9,6.3-5.7l7.9,0.4
				c41.9,0.1,75.9,34.2,75.9,76.1v28c0,10.8-8.8,19.6-19.6,19.6h-17.1c-15.9,1.3-23.6,4.7-31.1,8C288.9,411,280.8,414.6,265.2,414.6
				z"/>
		</g>
	</g>
	<g>
		<path class="st2" d="M0,500"/>
	</g>
</g>
</svg>
