<?xml version="1.0" encoding="utf-8"?>
<!-- Generator: Adobe Illustrator 27.5.0, SVG Export Plug-In . SVG Version: 6.00 Build 0)  -->
<svg version="1.1" id="Layer_1" xmlns="http://www.w3.org/2000/svg" xmlns:xlink="http://www.w3.org/1999/xlink" x="0px" y="0px"
	 viewBox="0 0 500 500" style="enable-background:new 0 0 500 500;" xml:space="preserve">
<style type="text/css">
	.st0{fill:#F9423A;}
	.st1{fill:none;stroke:#F84239;stroke-width:12;stroke-linecap:round;stroke-linejoin:round;}
</style>
<g>
	<g>
		<path class="st0" d="M325.7,240.2c-12,0-21.9-9.8-22-21.9v-31c0-12.1,9.9-22,22-22c3.5,0,6.8,0.8,9.8,2.3V152
			c0-47.1-38.4-85.5-85.5-85.5c-22.7,0-44.1,8.9-60.4,25.1s-25.1,37.7-25.1,60.5v15.6c3-1.5,6.4-2.4,10-2.4c12.1,0,22,9.9,22,22
			v30.9c0,12.1-9.9,22-22,22s-22-9.9-22-22v-66.1c0-26,10.2-50.5,28.7-68.9s42.9-28.7,68.8-28.7c53.8,0,97.5,43.7,97.5,97.5v32.3
			c0.1,1,0.2,2,0.2,3v30.9C347.7,230.3,337.8,240.2,325.7,240.2z M325.7,177.3c-5.5,0-10,4.5-10,10v30.9c0.1,5.5,4.5,10,10,10
			s10-4.5,10-10v-29.3c-0.1-0.5-0.2-1-0.2-1.5v-2.1C334.6,180.7,330.5,177.3,325.7,177.3z M174.5,177.3c-5.5,0-10,4.5-10,10v30.9
			c0,5.5,4.5,10,10,10s10-4.5,10-10v-30.9C184.5,181.8,180,177.3,174.5,177.3z"/>
	</g>
	<g>
		<path class="st0" d="M302.5,384.5c-15.1,0-27.4-12.3-27.4-27.4v-21.4c0-3.3,2.7-6,6-6h42.8c3.3,0,6,2.7,6,6v21.4
			C329.9,372.2,317.6,384.5,302.5,384.5z M287.1,341.7v15.4c0,8.5,6.9,15.4,15.4,15.4s15.4-6.9,15.4-15.4v-15.4H287.1z"/>
	</g>
	<g>
		<path class="st0" d="M250,316.6c-22,0-39.9-17.9-39.9-39.9v-18.9c0-3.3,2.7-6,6-6s6,2.7,6,6v18.9c0,15.4,12.5,27.9,27.9,27.9
			s27.9-12.5,27.9-27.9v-18.9c0-3.3,2.7-6,6-6s6,2.7,6,6v18.9C289.9,298.7,272,316.6,250,316.6z"/>
	</g>
	<g>
		<path class="st0" d="M250,429.7h-0.3c-21.3,0-41.9-4.1-61.4-12.3c-0.1-0.1-0.3-0.1-0.4-0.2l0,0c-7.1-2.9-14.6-4.9-22.3-5.8
			l-27.5-3.2c-10.6-1.3-18.6-10.2-18.6-20.9v-27.8c0-49.1,39.9-89,89-89h7.6c3.3,0,6,2.7,6,6s-2.7,6-6,6h-7.6c-42.5,0-77,34.5-77,77
			v27.8c0,4.6,3.4,8.4,8,8.9l27.5,3.2c8.9,1.1,17.6,3.3,25.7,6.7c0.1,0.1,0.3,0.1,0.4,0.2l0,0c17.9,7.5,37,11.3,56.6,11.3h0.3
			c19.5,0,38.6-3.8,56.8-11.4c7.8-3.3,16.2-5.4,24.7-6.4l29-3.4c4.6-0.5,8-4.4,8-8.9v-27.8c0-42.5-34.5-77-77-77h-7.6
			c-3.3,0-6-2.7-6-6s2.7-6,6-6h7.6c49.1,0,89,39.9,89,89v27.8c0,10.6-8,19.6-18.6,20.9l-29,3.4c-7.5,0.8-14.7,2.7-21.5,5.6
			C291.8,425.5,271.1,429.7,250,429.7z M250,274c-17.1,0-33.3-6.5-45.6-18.4s-19.4-27.8-20-44.9l-1.1-40.1c-0.1-3.3,2.5-6.1,5.8-6.2
			c3.3-0.1,6.1,2.5,6.2,5.8l1.1,40.1c1,29,24.5,51.7,53.6,51.7s52.6-22.7,53.6-51.7l1.3-37.1c0.1-3.3,2.9-5.9,6.2-5.8
			c3.3,0.1,5.9,2.9,5.8,6.2l-1.3,37.1c-0.6,17.1-7.7,33-20,44.9C283.3,267.5,267.1,274,250,274z"/>
	</g>
	<g>
		<path class="st0" d="M310.9,180.1c-0.3,0-0.7,0-1-0.1c-2.2-0.4-4.1-2-4.7-4.2c-1.2-4-2.1-7.9-3-11.7c-3.3-14.6-6.5-28.5-26-44.2
			c-17.1,33.7-49.8,55.3-86.9,56.8c-2.4,0.1-4.6-1.3-5.6-3.4c-4.7-5.6-22-28.8-17.3-60.1c2.7-17.8,9.8-30.1,13.8-35.9
			c3-4.3,7.5-7.1,12.7-7.9c5.1-0.8,10.2,0.4,14.4,3.5l15.8,11.3c2.4,1.8,5.4,2,8,0.8c11.9-5.4,35.4-13.6,59-7.9c0.1,0,0.1,0,0.2,0
			c0.7,0.2,17.6,5,27.1,19.5c10.7,16.4,14.8,58.6-1.7,81C314.6,179.2,312.8,180.1,310.9,180.1z M195.9,81.1c-0.4,0-0.8,0-1.1,0.1
			c-1.9,0.3-3.6,1.4-4.7,3c-3.4,4.9-9.5,15.5-11.8,30.8c-3.6,24.5,9.2,43.6,13.8,49.5c34-2.5,62.4-23.4,76.3-56.3
			c0.7-1.7,2.1-2.9,3.9-3.4s3.6-0.2,5.1,0.9c25.3,18.1,31.5,35,35.2,50.3c4.8-18.5,1.5-42.5-5.2-52.8S288.2,89,287.2,88.7
			c-20.8-5-42.7,3.3-51.1,7.2c-6.6,3-14.2,2.2-20-2l-15.8-11.3l-0.1-0.1C198.9,81.6,197.4,81.1,195.9,81.1z"/>
	</g>
	<g>
		<path class="st0" d="M264.2,242.3h-7.5c-6.4,0-11.6-5.2-11.6-11.6c0-6.4,5.2-11.6,11.6-11.6h7.5c6.4,0,11.6,5.2,11.6,11.6
			C275.8,237.1,270.6,242.3,264.2,242.3z M264.2,231.1L264.2,231.1L264.2,231.1z"/>
	</g>
	<g>
		<path class="st0" d="M269.3,236.7c-2.9,0-5.5-2.1-5.9-5.1c-0.5-3.3,1.8-6.3,5.1-6.8l15.5-2.3c5.6-0.8,10.8-2.7,15.7-5.8
			c13.6-8.7,38.7-24.3,39-24.4c2.8-1.7,6.5-0.9,8.3,1.9c1.7,2.8,0.9,6.5-1.9,8.3c-0.3,0.2-25.3,15.7-38.8,24.3
			c-6.3,4-13.2,6.6-20.4,7.6l-15.5,2.3C269.9,236.7,269.6,236.7,269.3,236.7z"/>
	</g>
	<path class="st1" d="M0,500"/>
</g>
</svg>
