<?xml version="1.0" encoding="utf-8"?>
<!-- Generator: Adobe Illustrator 27.5.0, SVG Export Plug-In . SVG Version: 6.00 Build 0)  -->
<svg version="1.1" id="Layer_1" xmlns="http://www.w3.org/2000/svg" xmlns:xlink="http://www.w3.org/1999/xlink" x="0px" y="0px"
	 viewBox="0 0 500 500" style="enable-background:new 0 0 500 500;" xml:space="preserve">
<style type="text/css">
	.st0{fill:#F9423A;}
	.st1{fill:none;stroke:#F9423A;stroke-width:12;stroke-linecap:round;stroke-linejoin:round;}
</style>
<g>
	<g>
		<path class="st0" d="M394.2,332.4c-2.1,0-4.1-1.1-5.2-3l-8.3-14.4c-0.5-0.9-1.8-1.2-2.7-0.7l-7.5,4.4c-2.1,1.3-4.8,1.1-6.8-0.5
			c-2.9-2.3-6.2-4.2-9.7-5.6c-2.3-0.9-3.8-3.1-3.8-5.6v-8.7c0-1.1-0.9-2-2-2h-16.5c-2.6,0-4.9-1.7-5.7-4.2
			c-2.5-8.1-7.2-15.5-13.5-21.4c-1.2-1.1-1.8-2.6-1.9-4.2c0-1.6,0.6-3.2,1.7-4.3c9.5-9.9,22.3-15.3,35.9-15.3H392
			c27.4,0,49.7,22.3,49.7,49.6V311c0,7-5.3,12.9-12.3,13.8l-15.3,1.8c-3.5,0.4-7,1.4-10.5,2.8c-2.5,1.1-5,1.9-7.5,2.7
			C395.5,332.3,394.9,332.4,394.2,332.4z M379,302c4.8,0,9.5,2.5,12.1,7l5.8,10.1c0.7-0.3,1.3-0.5,2-0.8h0.1c4.5-1.8,9.1-3,13.7-3.6
			l15.3-1.8c1-0.1,1.7-0.9,1.7-1.8v-14.6c0-20.7-16.9-37.6-37.7-37.6h-43.7c-8.4,0-16.4,2.7-23,7.8c4.6,5.3,8.2,11.3,10.7,17.7h12.3
			c7.7,0,14,6.3,14,14v4.8c1.9,1,3.8,2,5.6,3.2l4.1-2.4C374.2,302.6,376.6,302,379,302z M370.4,229.6c-9.3,0-18.1-3.6-24.9-10.1
			c-6.7-6.5-10.6-15.2-10.9-24.5l-1-27.8c-0.3-9.8,3.2-19,10-26.1c6.8-7,15.9-10.9,25.7-10.9h1.9c9.7,0,18.8,3.8,25.6,10.8
			c6.9,7,10.5,16.4,10.3,26.2l-1,27.9C405.5,214.4,389.8,229.6,370.4,229.6z M369.3,142.2c-6.5,0-12.5,2.6-17,7.3
			s-6.9,10.8-6.7,17.3l1,27.8c0.2,6.2,2.8,12,7.3,16.3s10.4,6.7,16.5,6.7c12.9,0,23.3-10.1,23.7-22.9l1-27.8
			c0.2-6.5-2.3-12.8-6.9-17.5c-4.5-4.6-10.6-7.2-17-7.2L369.3,142.2L369.3,142.2z"/>
	</g>
	<g>
		<path class="st0" d="M129.7,336.1c-11.2,0-22.2-2.2-32.8-6.4c-0.2-0.1-0.5-0.1-0.7-0.2c-3.6-1.5-7.3-2.4-11.1-2.9l-14.5-1.7
			c-7-0.7-12.3-6.6-12.3-13.8v-14.6c0-27.4,22.3-49.7,49.7-49.7h43.6c14.2,0,27.8,6.1,37.4,16.7c2.1,2.4,2,6-0.2,8.2
			c-9.3,9.4-14.4,21.7-14.4,34.9v14.8c0,2.8-1.9,5.2-4.6,5.8c-2.3,0.5-4.4,1.2-6.5,2.1C152.8,333.8,141.2,336.1,129.7,336.1z
			 M100.2,318.1c0.2,0.1,0.4,0.1,0.6,0.2c9.3,3.8,19,5.8,28.8,5.8c9.9,0,19.9-2,29-5.8c1.2-0.5,2.5-1,3.7-1.4v-10.3
			c0-14.3,4.9-27.9,13.8-38.8c-6.9-5.8-15.6-9-24.6-9H108c-20.8,0-37.7,16.9-37.7,37.7v14.6c0,1,0.7,1.7,1.6,1.8H72l14.5,1.7
			C91.2,315.2,95.7,316.3,100.2,318.1z M129.7,229.6c-19.4,0-35.1-15.2-35.7-34.5l-1-27.8c-0.3-9.9,3.3-19.1,10.1-26.2
			c6.8-7,15.9-10.9,25.7-10.9h1.9c9.8,0,18.9,3.9,25.7,10.9c6.8,7.1,10.4,16.3,10,26.1l-1,27.8C164.7,214.5,149,229.6,129.7,229.6z
			 M128.8,142.3c-6.5,0-12.5,2.6-17.1,7.2c-4.5,4.7-6.9,10.9-6.7,17.4l1,27.8c0.4,12.9,10.8,22.9,23.7,22.9
			c12.8,0,23.2-10.1,23.7-22.9l1-27.8c0.2-6.5-2.1-12.6-6.7-17.3c-4.5-4.7-10.6-7.3-17.1-7.3L128.8,142.3L128.8,142.3z"/>
	</g>
	<g>
		<path class="st0" d="M251.4,226.5c-24.8,0-44.9-19.4-45.7-44.2l-1.3-37.2c-0.4-12.5,4.1-24.3,12.8-33.3s20.4-14,32.9-14h2.6
			c12.5,0,24.2,5,32.9,14c8.7,9,13.2,20.8,12.8,33.3l-1.3,37.2C296.3,207.1,276.2,226.5,251.4,226.5z M250.1,109.8
			c-9.3,0-17.9,3.7-24.3,10.3c-6.4,6.6-9.7,15.4-9.4,24.6l1.3,37.2c0.6,18.3,15.4,32.6,33.7,32.6s33.1-14.3,33.7-32.6l1.3-37.2
			c0.3-9.2-3-18-9.4-24.6s-15-10.3-24.3-10.3C252.7,109.8,250.1,109.8,250.1,109.8z"/>
	</g>
	<g>
		<path class="st0" d="M251.1,355.6c-14.3,0-28.1-2.7-41.2-8.1c-0.2-0.1-0.4-0.1-0.6-0.2c-4.6-1.9-9.4-3.2-14.5-3.8l-18.2-2.1
			c-8.1-1-14.2-7.8-14.2-15.9V307c0-16.3,6.3-31.7,17.8-43.3c11.5-11.7,27-18.1,43.5-18.1H279c15.6,0,30.4,5.9,41.9,16.5
			c7.7,7.1,13.5,16.2,16.7,26.5c0.6,1.8,0.2,3.8-0.9,5.3s-2.9,2.4-4.8,2.4h-2.4c-1.1,0-2,0.9-2,2v8.7c0,2.5-1.5,4.7-3.8,5.6
			c-3.5,1.4-6.8,3.3-9.7,5.6c-1.9,1.5-4.6,1.7-6.8,0.5l-7.5-4.4c-0.6-0.3-1.2-0.3-1.5-0.2c-0.3,0.1-0.8,0.3-1.2,0.9l-9.5,16.4
			c-0.5,0.9-0.2,2.2,0.7,2.7l4.4,2.6c2,1.2,3.1,3.3,2.9,5.6c-0.2,2.3-1.6,4.3-3.7,5.1C278.7,352.9,265,355.6,251.1,355.6z
			 M213.3,335.9c0.2,0.1,0.5,0.1,0.7,0.2c11.7,4.9,24.2,7.4,37.1,7.4c8.9,0,17.7-1.2,26.3-3.7c-2.6-4.2-2.9-9.8-0.2-14.4l9.5-16.4
			c1.9-3.2,4.9-5.5,8.5-6.5s7.4-0.5,10.6,1.4l4.1,2.4c1.8-1.2,3.6-2.3,5.6-3.2v-4.8c0-5.6,3.3-10.5,8.1-12.7
			c-2.7-5.6-6.4-10.6-10.9-14.8c-9.3-8.6-21.2-13.3-33.8-13.3h-55.3c-13.3,0-25.7,5.2-34.9,14.5c-9.3,9.4-14.4,21.7-14.4,34.9v18.5
			c0,2,1.5,3.7,3.6,3.9l18.3,2.1C202.2,332.3,208,333.8,213.3,335.9z"/>
	</g>
	<g>
		<path class="st0" d="M348.4,415.9h-18.9c-7.7,0-14-6.3-14-14V397c-2-1-3.8-2-5.5-3.2l-4.1,2.4c-3.3,1.9-7,2.4-10.6,1.4
			s-6.6-3.3-8.5-6.5l-9.5-16.4c-1.9-3.2-2.4-7-1.4-10.6s3.3-6.6,6.5-8.5l4.1-2.4c-0.1-1.1-0.1-2.2-0.1-3.2c0-1.1,0-2.1,0.1-3.3
			l-4.2-2.5c-6.6-3.8-8.9-12.4-5-19.1l9.5-16.4c1.9-3.2,4.9-5.5,8.5-6.5s7.4-0.5,10.6,1.4l4.1,2.4c1.8-1.2,3.6-2.3,5.6-3.2V298
			c0-7.7,6.3-14,14-14h18.9c7.7,0,14,6.3,14,14v4.9c2,1,3.8,2,5.5,3.2l4.1-2.4c6.7-3.9,15.3-1.6,19.1,5.1l9.4,16.3
			c1.9,3.2,2.4,7,1.4,10.6s-3.3,6.6-6.5,8.5l-4.1,2.4c0.1,1.1,0.1,2.2,0.1,3.3c0,1.1,0,2.2-0.1,3.3l4.1,2.4c6.6,3.8,8.9,12.3,5.2,19
			c0,0,0,0.1-0.1,0.1l-9.5,16.4c-3.9,6.7-12.4,8.9-19.1,5.1l-4.1-2.4c-1.8,1.2-3.6,2.3-5.6,3.2v4.8
			C362.4,409.6,356.1,415.9,348.4,415.9z M310.3,380.7c1.3,0,2.6,0.4,3.7,1.3c2.7,2.2,6,4,9.8,5.7c2.2,0.9,3.7,3.1,3.7,5.5v8.7
			c0,1.1,0.9,2,2,2h18.9c1.1,0,2-0.9,2-2v-8.7c0-2.5,1.5-4.7,3.8-5.6c3.5-1.4,6.8-3.3,9.7-5.6c1.9-1.5,4.6-1.7,6.8-0.5l7.5,4.4
			c0.9,0.5,2.1,0.2,2.7-0.7l9.5-16.3c0.5-1,0.2-2.2-0.8-2.8l0,0l-7.5-4.4c-2.1-1.2-3.2-3.6-2.9-6c0.3-2,0.4-3.9,0.4-5.7
			c0-1.7-0.1-3.4-0.4-5.7c-0.3-2.4,0.8-4.8,2.9-6l7.5-4.4c0.6-0.4,0.9-0.9,0.9-1.2c0.1-0.3,0.2-0.9-0.2-1.5l-9.4-16.3
			c-0.5-0.9-1.8-1.2-2.7-0.7l-7.5,4.4c-2.1,1.3-4.8,1.1-6.8-0.5c-2.7-2.2-6-4-9.8-5.7c-2.2-0.9-3.7-3.1-3.7-5.5v-8.7
			c0-1.1-0.9-2-2-2h-18.9c-1.1,0-2,0.9-2,2v8.7c0,2.5-1.5,4.7-3.8,5.6c-3.5,1.4-6.8,3.3-9.7,5.6c-1.9,1.5-4.6,1.7-6.8,0.5l-7.5-4.4
			c-0.6-0.3-1.2-0.3-1.5-0.2c-0.3,0.1-0.8,0.3-1.2,0.9l-9.5,16.4c-0.4,0.6-0.3,1.2-0.2,1.5c0.1,0.3,0.3,0.8,0.9,1.2l7.5,4.4
			c2.1,1.2,3.3,3.6,2.9,6c-0.3,2-0.4,3.9-0.4,5.7c0,1.7,0.1,3.4,0.4,5.7c0.3,2.4-0.8,4.8-3,6l-7.5,4.3c-0.6,0.3-0.8,0.9-0.9,1.2
			c-0.1,0.3-0.2,0.9,0.2,1.5l9.5,16.4c0.4,0.6,0.9,0.8,1.2,0.9c0.3,0.1,0.9,0.2,1.5-0.2l7.5-4.4C308.2,381,309.3,380.7,310.3,380.7z
			 M395.5,371.8L395.5,371.8L395.5,371.8z M338.9,378.3c-15.5,0-28.2-12.7-28.2-28.2c0-6.8,2.4-13.4,6.9-18.4
			c3.8-4.4,9.1-7.6,14.8-9c2-0.5,4.2-0.8,6.5-0.8c15.5,0,28.2,12.7,28.2,28.2C367.1,365.6,354.4,378.3,338.9,378.3z M338.9,333.9
			c-1.3,0-2.5,0.1-3.6,0.4c-3.4,0.8-6.4,2.6-8.6,5.2c-2.6,2.9-4,6.7-4,10.6c0,8.9,7.3,16.2,16.2,16.2s16.2-7.3,16.2-16.2
			S347.8,333.9,338.9,333.9z"/>
	</g>
	<g>
		<path class="st1" d="M0,500"/>
	</g>
</g>
</svg>
