<?xml version="1.0" encoding="utf-8"?>
<!-- Generator: Adobe Illustrator 27.5.0, SVG Export Plug-In . SVG Version: 6.00 Build 0)  -->
<svg version="1.1" id="Layer_1" xmlns="http://www.w3.org/2000/svg" xmlns:xlink="http://www.w3.org/1999/xlink" x="0px" y="0px"
	 viewBox="0 0 500 500" style="enable-background:new 0 0 500 500;" xml:space="preserve">
<style type="text/css">
	.st0{clip-path:url(#SVGID_00000083803255921687672240000017109796260395015597_);}
	.st1{fill:#F9423A;}
	.st2{fill:none;}
</style>
<g>
	<g>
		<g>
			<defs>
				<rect id="SVGID_1_" width="500" height="500"/>
			</defs>
			<clipPath id="SVGID_00000074423942067716884540000001071129599172567199_">
				<use xlink:href="#SVGID_1_"  style="overflow:visible;"/>
			</clipPath>
			<g style="clip-path:url(#SVGID_00000074423942067716884540000001071129599172567199_);">
				<g>
					<g>
						<path class="st1" d="M248,343c-36.4,0-66-29.6-66-66V149c0-36.4,29.6-66,66-66s66,29.6,66,66v128C314,313.4,284.4,343,248,343
							z M194.6,284.8c3.5,24.2,23.1,43.2,47.5,45.9l-0.1-45.8L194.6,284.8z M254,284.9l0.1,45.8c24.3-2.7,43.8-21.7,47.3-45.8H254z
							 M194,272.8l108,0.1V149c0-29.8-24.2-54-54-54s-54,24.2-54,54V272.8z"/>
					</g>
					<g>
						<path class="st1" d="M306.3,256.6h-21c-3.3,0-6-2.7-6-6s2.7-6,6-6h21c3.3,0,6,2.7,6,6C312.3,253.9,309.6,256.6,306.3,256.6z
							 M209.9,256.5h-21.2c-3.3,0-6-2.7-6-6s2.7-6,6-6h21.2c3.3,0,6,2.7,6,6S213.2,256.5,209.9,256.5z M306.3,232.6h-12
							c-3.3,0-6-2.7-6-6s2.7-6,6-6h12c3.3,0,6,2.7,6,6S309.6,232.6,306.3,232.6z M200.8,232.5h-12.1c-3.3,0-6-2.7-6-6s2.7-6,6-6
							h12.1c3.3,0,6,2.7,6,6S204.1,232.5,200.8,232.5z"/>
					</g>
				</g>
				<g>
					<g>
						<path class="st1" d="M248,373c-51.8,0-94-42.2-94-94v-22.5c0-3.3,2.7-6,6-6s6,2.7,6,6V279c0,45.2,36.8,82,82,82s82-36.8,82-82
							v-22.2c0-3.3,2.7-6,6-6s6,2.7,6,6V279C342,330.8,299.8,373,248,373z"/>
					</g>
					<g>
						<path class="st1" d="M286.1,415h-73c-3.3,0-6-2.7-6-6s2.7-6,6-6h30.6v-35.5c0-3.3,2.7-6,6-6s6,2.7,6,6V403h30.4
							c3.3,0,6,2.7,6,6S289.4,415,286.1,415z"/>
					</g>
				</g>
				<g>
					<path class="st2" d="M160,215v-1.5 M129.9,215v-1.5 M99.9,215v-1.5 M69.9,215v-1.5 M39.9,215v-1.5 M160,214.5v1.5 M129.9,214.5
						v1.5 M99.9,214.5v1.5 M69.9,214.5v1.5 M39.9,214.5v1.5 M336,215.5V214 M366.1,215.5V214 M396.1,215.5V214 M426.1,215.5V214
						 M456.1,215.5V214 M336,216v1.5 M366.1,216v1.5 M396.1,216v1.5 M426.1,216v1.5 M456.1,216v1.5"/>
				</g>
			</g>
		</g>
	</g>
</g>
</svg>
