<?xml version="1.0" encoding="iso-8859-1"?>
<!-- Generator: Adobe Illustrator 29.6.1, SVG Export Plug-In . SVG Version: 9.03 Build 0)  -->
<svg version="1.1" id="Layer_1" xmlns="http://www.w3.org/2000/svg" xmlns:xlink="http://www.w3.org/1999/xlink" x="0px" y="0px"
	 viewBox="0 0 500 500" style="enable-background:new 0 0 500 500;" xml:space="preserve">
<g>
	<defs>
		<filter id="Adobe_OpacityMaskFilter" filterUnits="userSpaceOnUse" x="83.999" y="71.008" width="332.001" height="357.983">
			<feColorMatrix  type="matrix" values="1 0 0 0 0  0 1 0 0 0  0 0 1 0 0  0 0 0 1 0"/>
		</filter>
	</defs>
	
		<mask maskUnits="userSpaceOnUse" x="83.999" y="71.008" width="332.001" height="357.983" id="oZMzqlB_Vka_00000173120628654930815210000011251786875492108941_">
		<path style="fill-rule:evenodd;clip-rule:evenodd;fill:#FFFFFF;filter:url(#Adobe_OpacityMaskFilter);" d="M434.348,60.634H66.695
			v379.263h367.653L434.348,60.634z M390,102.992H110l1.113,122.327l81.051,80.704l58.231-45.555l57.287,45.035L390,223.07V102.992z
			"/>
	</mask>
	<g style="mask:url(#oZMzqlB_Vka_00000173120628654930815210000011251786875492108941_);">
		<g>
			<path style="fill:#F9423A;" d="M410,428.992H90c-3.313,0-6-2.687-6-6V213.044c-0.001-0.119,0.001-0.238,0.008-0.357
				c0.065-1.298,0.543-2.487,1.305-3.439l0,0c0.002-0.002,0.004-0.005,0.006-0.008c0.172-0.214,0.359-0.418,0.563-0.61
				L218.428,83.54c17.704-16.708,45.439-16.709,63.145,0l132.546,125.09c0.203,0.192,0.391,0.396,0.562,0.61
				c0.002,0.003,0.005,0.006,0.007,0.008l0,0c0.762,0.952,1.239,2.142,1.305,3.439c0.006,0.119,0.009,0.238,0.008,0.357v209.949
				C416,426.306,413.312,428.992,410,428.992z M96,416.992h308v-198H96V416.992z M105.1,206.992h289.8L273.336,92.266
				c-13.086-12.351-33.586-12.351-46.672,0L105.1,206.992z"/>
		</g>
		<g>
			<path style="fill:#F9423A;" d="M410,428.992H90c-3.314,0-6-2.687-6-6v-19c0-1.73,0.747-3.376,2.049-4.516l104.027-91.024
				c34.163-29.892,85.686-29.891,119.848,0l104.027,91.024c1.302,1.14,2.049,2.785,2.049,4.516v19
				C416,426.306,413.312,428.992,410,428.992z M96,416.992h308v-10.277l-101.979-89.231c-29.655-25.949-74.385-25.949-104.043,0
				L96,406.715V416.992z"/>
		</g>
		<g>
			<path style="fill:#F9423A;" d="M308.133,320.86c-1.535,0-3.071-0.586-4.242-1.758c-2.344-2.343-2.344-6.142,0-8.484
				L405.758,208.75c2.342-2.343,6.143-2.343,8.484,0c2.344,2.343,2.344,6.142,0,8.485L312.375,319.102
				C311.204,320.274,309.668,320.86,308.133,320.86z M191.867,320.86c-1.536,0-3.071-0.586-4.243-1.758L85.757,217.235
				c-2.343-2.343-2.343-6.142,0-8.485s6.143-2.343,8.485,0L196.11,310.617c2.343,2.343,2.343,6.142,0,8.484
				C194.938,320.274,193.403,320.86,191.867,320.86z"/>
		</g>
	</g>
	<defs>
		
			<filter id="Adobe_OpacityMaskFilter_00000111160670580317307650000004941648610015806118_" filterUnits="userSpaceOnUse" x="104" y="96.992" width="292" height="232">
			<feColorMatrix  type="matrix" values="1 0 0 0 0  0 1 0 0 0  0 0 1 0 0  0 0 0 1 0"/>
		</filter>
	</defs>
	
		<mask maskUnits="userSpaceOnUse" x="104" y="96.992" width="292" height="232" id="bUzt0GQXJNb_00000035498216199803594900000010852563998538596521_">
		<path style="fill:#FFFFFF;filter:url(#Adobe_OpacityMaskFilter_00000111160670580317307650000004941648610015806118_);" d="
			M303.891,310.62l101.866-101.867c2.343-2.343,6.142-2.344,8.485-0.001c0,0,0,0,0.001,0.001V88.258H85.757v120.494
			c2.343-2.343,6.142-2.344,8.485-0.001c0,0,0,0,0.001,0.001l101.866,101.867L303.891,310.62z"/>
	</mask>
	<g style="mask:url(#bUzt0GQXJNb_00000035498216199803594900000010852563998538596521_);">
		<g>
			<path style="fill:#F9423A;" d="M390,328.992H110c-3.313,0-6-2.687-6-6v-220c0-3.313,2.687-6,6-6h280c3.313,0,6,2.687,6,6v220
				C396,326.306,393.312,328.992,390,328.992z M116,316.992h268v-208H116V316.992z"/>
		</g>
	</g>
	<g>
		<path style="fill:#F9423A;" d="M330,188.992c-17.094,0-31-13.907-31-31s13.906-31,31-31s31,13.907,31,31
			S347.094,188.992,330,188.992z M330,138.992c-10.477,0-19,8.523-19,19s8.523,19,19,19s19-8.523,19-19S340.477,138.992,330,138.992
			z"/>
	</g>
	<g>
		<path style="fill:#F9423A;" d="M343.639,285.354c-1.536,0-3.071-0.586-4.243-1.758l-90.756-90.758l-27.578,27.578
			c-2.343,2.343-6.143,2.343-8.485,0c-2.343-2.343-2.343-6.142,0-8.485l31.82-31.82c1.125-1.125,2.651-1.757,4.243-1.757l0,0
			c1.591,0,3.118,0.632,4.243,1.757l95,95.002c2.343,2.343,2.343,6.142-0.001,8.484C346.71,284.768,345.174,285.354,343.639,285.354
			z"/>
	</g>
	<g>
		<path style="fill:#F9423A;" d="M191.866,320.86c-1.536,0-3.071-0.586-4.243-1.758L85.757,217.235
			c-2.343-2.343-2.343-6.142,0-8.485s6.142-2.343,8.485,0l101.866,101.868c2.343,2.343,2.343,6.142,0,8.485
			C194.938,320.274,193.401,320.86,191.866,320.86z M308.133,320.86c-1.535,0-3.071-0.586-4.242-1.758
			c-2.155-2.154-2.328-5.54-0.521-7.894l-147.731-147.73l-41.397,41.396c-2.343,2.343-6.142,2.343-8.485,0s-2.343-6.142,0-8.485
			l45.64-45.639c2.343-2.343,6.142-2.343,8.485,0l151.937,151.938l93.938-93.938c2.342-2.343,6.143-2.343,8.484,0
			c2.344,2.343,2.344,6.142,0,8.485L312.375,319.102C311.204,320.274,309.668,320.86,308.133,320.86z"/>
	</g>
	<g>
		<path style="fill:#F9423A;" d="M305.971,318.965c-1.402,0-2.811-0.488-3.949-1.484c-29.658-25.951-74.387-25.951-104.043,0
			c-2.494,2.183-6.284,1.929-8.467-0.564c-2.182-2.494-1.929-6.284,0.564-8.467c34.161-29.892,85.684-29.891,119.848,0
			c2.493,2.183,2.746,5.973,0.564,8.467C309.302,318.272,307.641,318.965,305.971,318.965z"/>
	</g>
</g>
</svg>
