<?xml version="1.0" encoding="iso-8859-1"?>
<!-- Generator: Adobe Illustrator 29.6.1, SVG Export Plug-In . SVG Version: 9.03 Build 0)  -->
<svg version="1.1" id="Layer_1" xmlns="http://www.w3.org/2000/svg" xmlns:xlink="http://www.w3.org/1999/xlink" x="0px" y="0px"
	 viewBox="0 0 500 500" style="enable-background:new 0 0 500 500;" xml:space="preserve">
<defs>
	<filter id="Adobe_OpacityMaskFilter" filterUnits="userSpaceOnUse" x="101.5" y="149" width="337" height="242">
		<feColorMatrix  type="matrix" values="1 0 0 0 0  0 1 0 0 0  0 0 1 0 0  0 0 0 1 0"/>
	</filter>
</defs>
<mask maskUnits="userSpaceOnUse" x="101.5" y="149" width="337" height="242" id="_x30_ULHywS1a0a_00000069362955881939580850000008321024730940256905_">
	<path style="fill-rule:evenodd;clip-rule:evenodd;fill:#FFFFFF;filter:url(#Adobe_OpacityMaskFilter);" d="M447.5,99.067H50.743
		V401.45H447.5V99.067z M392.5,115h-325v230h325V115z"/>
</mask>
<g style="mask:url(#_x30_ULHywS1a0a_00000069362955881939580850000008321024730940256905_);">
	<g>
		<path style="fill:#F9423A;" d="M432.5,391h-325c-3.314,0-6-2.687-6-6V155c0-3.314,2.686-6,6-6h325c3.313,0,6,2.686,6,6v230
			C438.5,388.313,435.813,391,432.5,391z M113.5,379h313V161h-313V379z"/>
	</g>
</g>
<g>
	<path style="fill:#F9423A;" d="M392.5,351h-325c-3.314,0-6-2.687-6-6V115c0-3.314,2.686-6,6-6h325c3.313,0,6,2.686,6,6v230
		C398.5,348.313,395.813,351,392.5,351z M73.5,339h313V121h-313V339z"/>
</g>
<g>
	<path style="fill:#F9423A;" d="M327.5,316h-195c-3.313,0-6-2.687-6-6c0-13.233-10.766-24-24-24c-3.313,0-6-2.687-6-6V180
		c0-3.313,2.687-6,6-6c13.234,0,24-10.766,24-24c0-3.313,2.687-6,6-6h195c3.313,0,6,2.687,6,6c0,13.234,10.767,24,24,24
		c3.313,0,6,2.687,6,6v100c0,3.313-2.687,6-6,6c-13.233,0-24,10.767-24,24C333.5,313.313,330.813,316,327.5,316z M138,304h184
		c2.536-15.053,14.447-26.964,29.5-29.5v-89c-15.053-2.536-26.964-14.447-29.5-29.5H138c-2.536,15.053-14.447,26.964-29.5,29.5v89
		C123.553,277.036,135.464,288.947,138,304z"/>
</g>
<g>
	<path style="fill:#F9423A;" d="M300.01,237.5c-4.143,0-7.505-3.358-7.505-7.5s3.353-7.5,7.495-7.5h0.01c4.143,0,7.5,3.358,7.5,7.5
		S304.152,237.5,300.01,237.5z M160,237.5c-4.142,0-7.505-3.358-7.505-7.5s3.353-7.5,7.495-7.5H160c4.142,0,7.5,3.358,7.5,7.5
		S164.142,237.5,160,237.5z"/>
</g>
<g>
	<path style="fill:#F9423A;" d="M230,271c-22.607,0-41-18.393-41-41s18.393-41,41-41s41,18.393,41,41S252.607,271,230,271z M230,201
		c-15.991,0-29,13.009-29,29s13.009,29,29,29s29-13.009,29-29S245.991,201,230,201z"/>
</g>
</svg>
