<?xml version="1.0" encoding="utf-8"?>
<!-- Generator: Adobe Illustrator 27.5.0, SVG Export Plug-In . SVG Version: 6.00 Build 0)  -->
<svg version="1.1" id="Layer_1" xmlns="http://www.w3.org/2000/svg" xmlns:xlink="http://www.w3.org/1999/xlink" x="0px" y="0px"
	 viewBox="0 0 500 500" style="enable-background:new 0 0 500 500;" xml:space="preserve">
<style type="text/css">
	.st0{clip-path:url(#SVGID_00000106146117435369459540000017111597273645282236_);}
	.st1{fill:#F9423A;}
</style>
<g>
	<g>
		<g>
			<defs>
				<rect id="SVGID_1_" width="500" height="500"/>
			</defs>
			<clipPath id="SVGID_00000065773476289640863650000003049179970714803871_">
				<use xlink:href="#SVGID_1_"  style="overflow:visible;"/>
			</clipPath>
			<g style="clip-path:url(#SVGID_00000065773476289640863650000003049179970714803871_);">
				<g>
					<path class="st1" d="M225.9,325.2c-0.7,0-1.3-0.1-2-0.3c-2.5-0.9-4-3.2-4-5.7c0-0.7,0.1-1.3,0.3-2l49-138.4
						c1.1-3.1,4.5-4.8,7.7-3.7c2.5,0.9,4,3.2,4,5.7c0,0.7-0.1,1.3-0.3,2l-49,138.4C230.7,323.7,228.4,325.2,225.9,325.2z
						 M173.7,321.4c-2,0-3.9-1-5-2.7L95.9,206.9v108.5c0,3.3-2.7,6-6,6s-6-2.7-6-6V186.7c0-2.7,1.7-5,4.3-5.8
						c2.5-0.8,5.3,0.3,6.7,2.5l72.8,111.8V186.7c0-3.3,2.7-6,6-6s6,2.7,6,6v128.7c0,2.7-1.7,5-4.3,5.8
						C174.8,321.3,174.3,321.4,173.7,321.4z M409.6,320.3c-2.4,0-4.6-1.4-5.5-3.7l-11.6-27.9H317l-12.5,28c-1.3,3-4.9,4.4-7.9,3
						c-3-1.3-4.4-4.9-3-7.9l13.7-30.9c0.1-0.5,0.3-0.9,0.6-1.3l42.9-96.5c1-2.2,3.1-3.6,5.5-3.6c0,0,0,0,0.1,0
						c2.4,0,4.5,1.5,5.5,3.7L415.1,312c1.3,3.1-0.2,6.6-3.2,7.8C411.1,320.2,410.4,320.3,409.6,320.3z M322.3,276.7h65.2L356,200.8
						L322.3,276.7z"/>
				</g>
			</g>
		</g>
	</g>
</g>
</svg>
