<?xml version="1.0" encoding="utf-8"?>
<!-- Generator: Adobe Illustrator 27.5.0, SVG Export Plug-In . SVG Version: 6.00 Build 0)  -->
<svg version="1.1" id="Layer_1" xmlns="http://www.w3.org/2000/svg" xmlns:xlink="http://www.w3.org/1999/xlink" x="0px" y="0px"
	 viewBox="0 0 500 500" style="enable-background:new 0 0 500 500;" xml:space="preserve">
<style type="text/css">
	.st0{clip-path:url(#SVGID_00000182497850778701934630000017662347985695123092_);}
	.st1{fill:#F9423A;}
</style>
<g>
	<g>
		<g>
			<defs>
				<rect id="SVGID_1_" width="500" height="500"/>
			</defs>
			<clipPath id="SVGID_00000021826745874523907830000012069105221829331118_">
				<use xlink:href="#SVGID_1_"  style="overflow:visible;"/>
			</clipPath>
			<g style="clip-path:url(#SVGID_00000021826745874523907830000012069105221829331118_);">
				<g>
					<path class="st1" d="M177.5,426c-1.3,0-2.6-0.4-3.7-1.2c-8.5-6.6-17.2-13.6-24.6-19.9c-1.3-1.1-2.1-2.8-2.1-4.6v-26.8h-44.3
						c-3.3,0-6-2.7-6-6v-35.2h-7c-3.3,0-6-2.7-6-6s2.7-6,6-6h7v-35.5h-7c-3.3,0-6-2.7-6-6s2.7-6,6-6h7v-35.5h-7c-3.3,0-6-2.7-6-6
						s2.7-6,6-6h7v-35.4h-7c-3.3,0-6-2.7-6-6s2.7-6,6-6h7v-35.5h-7c-3.3,0-6-2.7-6-6s2.7-6,6-6h7V95.2c0-3.3,2.7-6,6-6H247
						c0-3.3,2.7-6,6-6s6,2.7,6,6h15.8c19.1,0,34.6,15.5,34.6,34.6V339c0,19-15.5,34.5-34.6,34.5H259c0,3.3-2.7,6-6,6s-6-2.7-6-6
						h-37.3c0.2,5-0.1,10.7-0.3,16.3c-0.2,3.8-0.3,7.4-0.3,10.5c0,1.7-0.7,3.4-2,4.5c-8.6,7.6-16.4,13.9-26.5,20.3
						C179.7,425.7,178.6,426,177.5,426z M159.2,397.5c5.7,4.8,12.2,10.1,18.6,15.1c7-4.7,13-9.6,19.4-15.1c0.1-2.6,0.2-5.3,0.3-8.2
						c0.2-5.4,0.5-11.3,0.3-15.8h-38.6L159.2,397.5L159.2,397.5z M259.1,361.5h15.8c12.5,0,22.6-10.1,22.6-22.5V123.8
						c0-12.5-10.1-22.6-22.6-22.6h-15.8V361.5z M203.3,361.5h43.8V101.2H108.9v29.2h7.7c3.3,0,6,2.7,6,6s-2.7,6-6,6h-7.7v35.5h7.7
						c3.3,0,6,2.7,6,6s-2.7,6-6,6h-7.7v35.4h7.7c3.3,0,6,2.7,6,6s-2.7,6-6,6h-7.7v35.5h7.7c3.3,0,6,2.7,6,6s-2.7,6-6,6h-7.7v35.5
						h7.7c3.3,0,6,2.7,6,6s-2.7,6-6,6h-7.7v29.2h94.2C203.2,361.5,203.2,361.5,203.3,361.5z M397.1,416.2H355c-3.3,0-6-2.7-6-6
						V149.5c0-0.1,0-0.1,0-0.2l0,0l0,0c0-0.7,0.2-1.3,0.4-1.9l21-59.5c0.8-2.4,3.1-4,5.7-4s4.8,1.6,5.7,4l20.7,58.6
						c0.5,0.9,0.8,1.9,0.8,3v260.7C403.1,413.5,400.4,416.2,397.1,416.2z M361,404.2h30.1v-26.4H361V404.2z M361,365.8h30.1V155.5
						H361V365.8z M363.5,143.5h25L376,108L363.5,143.5z"/>
				</g>
			</g>
		</g>
	</g>
</g>
</svg>
