<?xml version="1.0" encoding="utf-8"?>
<!-- Generator: Adobe Illustrator 27.5.0, SVG Export Plug-In . SVG Version: 6.00 Build 0)  -->
<svg version="1.1" id="Layer_1" xmlns="http://www.w3.org/2000/svg" xmlns:xlink="http://www.w3.org/1999/xlink" x="0px" y="0px"
	 viewBox="0 0 500 500" style="enable-background:new 0 0 500 500;" xml:space="preserve">
<style type="text/css">
	.st0{fill:#F9423A;}
	.st1{display:none;fill:none;stroke:#F84239;stroke-width:12.04;stroke-linecap:round;stroke-linejoin:round;}
	.st2{fill:none;stroke:#F84239;stroke-width:12.04;stroke-linecap:round;stroke-linejoin:round;}
</style>
<g>
	<path class="st0" d="M378.7,340.6c-0.2,0-0.4,0-0.6,0l-69.2-6.9c-1.6-0.2-3-0.9-4-2.2s-1.5-2.8-1.3-4.4l6.9-69.2
		c0.2-1.6,0.9-3,2.2-4c1.2-1,2.8-1.5,4.4-1.3l69.2,6.9c3.3,0.3,5.7,3.3,5.4,6.6l-6.9,69.2C384.4,338.3,381.8,340.6,378.7,340.6z
		 M316.1,322.3l57.3,5.7l5.7-57.3l-57.3-5.7L316.1,322.3z"/>
</g>
<g>
	<path class="st0" d="M349.3,288.2c-0.4,0-0.8,0-1.2-0.1c-0.4-0.1-0.8-0.2-1.1-0.3c-0.4-0.2-0.7-0.3-1-0.6c-0.3-0.2-0.6-0.5-0.9-0.8
		s-0.5-0.6-0.8-0.9c-0.2-0.3-0.4-0.7-0.5-1c-0.2-0.4-0.3-0.7-0.3-1.1c-0.1-0.4-0.1-0.8-0.1-1.2c0-0.4,0-0.8,0.1-1.2
		c0.1-0.4,0.2-0.8,0.3-1.1c0.2-0.4,0.3-0.7,0.5-1s0.5-0.6,0.8-0.9c1.4-1.4,3.5-2,5.4-1.6c0.4,0.1,0.8,0.2,1.1,0.3
		c0.4,0.1,0.7,0.3,1,0.5s0.6,0.5,0.9,0.8c1.1,1.1,1.8,2.7,1.8,4.2c0,0.4,0,0.8-0.1,1.2c-0.1,0.4-0.2,0.8-0.3,1.1
		c-0.2,0.4-0.3,0.7-0.5,1s-0.5,0.6-0.8,0.9s-0.6,0.5-0.9,0.8c-0.3,0.2-0.7,0.4-1,0.6c-0.4,0.1-0.7,0.3-1.1,0.3
		C350.1,288.2,349.7,288.2,349.3,288.2z"/>
</g>
<g>
	<path class="st0" d="M158.7,191.8c-0.4,0-0.8,0-1.2-0.1s-0.8-0.2-1.1-0.3c-0.4-0.1-0.7-0.3-1-0.5s-0.6-0.5-0.9-0.8
		c-0.3-0.3-0.5-0.6-0.8-0.9c-0.2-0.3-0.4-0.7-0.6-1c-0.1-0.4-0.3-0.7-0.3-1.1c-0.1-0.4-0.1-0.8-0.1-1.2s0-0.8,0.1-1.2
		s0.2-0.8,0.3-1.1c0.2-0.4,0.3-0.7,0.6-1c0.2-0.3,0.5-0.6,0.8-0.9c0.3-0.3,0.6-0.5,0.9-0.8c0.3-0.2,0.7-0.4,1-0.6
		c0.4-0.1,0.7-0.3,1.1-0.3c0.8-0.2,1.6-0.2,2.3,0c0.4,0.1,0.8,0.2,1.1,0.3c0.4,0.1,0.7,0.3,1,0.6c0.3,0.2,0.6,0.5,0.9,0.8
		c0.3,0.3,0.5,0.6,0.8,0.9c0.2,0.3,0.4,0.7,0.5,1c0.1,0.4,0.3,0.7,0.3,1.1c0.1,0.4,0.1,0.8,0.1,1.2s0,0.8-0.1,1.2s-0.2,0.8-0.3,1.1
		c-0.1,0.4-0.3,0.7-0.5,1s-0.5,0.6-0.8,0.9c-0.3,0.3-0.6,0.5-0.9,0.8c-0.3,0.2-0.7,0.4-1,0.5c-0.4,0.1-0.7,0.3-1.1,0.3
		C159.5,191.8,159.1,191.8,158.7,191.8z"/>
</g>
<g>
	<path class="st0" d="M172.1,296.8h-26.8c-3.3,0-6-2.7-6-6s2.7-6,6-6h26.8c3.3,0,6,2.7,6,6S175.4,296.8,172.1,296.8z"/>
</g>
<g>
	<path class="st0" d="M422.6,378.3H77.4c-3.3,0-6-2.7-6-6V127.7c0-3.3,2.7-6,6-6h345.3c1.6,0,3.1,0.6,4.2,1.8
		c1.1,1.1,1.8,2.7,1.8,4.2l-0.1,244.6C428.6,375.6,425.9,378.3,422.6,378.3z M83.4,366.3h333.2l0.1-232.6H83.4V366.3z"/>
</g>
<g>
	<path class="st0" d="M423.5,378.3h-347c-3.3,0-6-2.7-6-6V127.7c0-3.3,2.7-6,6-6h346.9c3.3,0,6,2.7,6,6l0.1,244.6
		c0,1.6-0.6,3.1-1.8,4.2C426.6,377.7,425.1,378.3,423.5,378.3z M82.5,366.3h335l-0.1-232.6H82.5V366.3z"/>
</g>
<g>
	<path class="st0" d="M197.5,342.7h-77.6c-3.3,0-6-2.7-6-6V163.3c0-3.3,2.7-6,6-6h77.6c3.3,0,6,2.7,6,6v173.4
		C203.5,340,200.8,342.7,197.5,342.7z M125.9,330.7h65.6V169.3h-65.6V330.7z"/>
</g>
<g>
	<path class="st0" d="M172.1,265.4h-26.8c-3.3,0-6-2.7-6-6s2.7-6,6-6h26.8c3.3,0,6,2.7,6,6S175.4,265.4,172.1,265.4z"/>
</g>
<g>
	<path class="st0" d="M172.1,235.4h-26.8c-3.3,0-6-2.7-6-6s2.7-6,6-6h26.8c3.3,0,6,2.7,6,6S175.4,235.4,172.1,235.4z"/>
</g>
<g>
	<path class="st0" d="M243.7,251.6c-2.8,0-5.4-2-5.9-4.9l-12.4-68.4c-0.3-1.6,0.1-3.2,1-4.5s2.3-2.2,3.9-2.5l68.4-12.4
		c1.6-0.3,3.2,0.1,4.5,1s2.2,2.3,2.5,3.9l12.4,68.4c0.6,3.3-1.6,6.4-4.8,7l-68.4,12.4C244.4,251.6,244,251.6,243.7,251.6z
		 M238.3,182l10.3,56.6l56.6-10.3l-10.3-56.6L238.3,182z"/>
</g>
<g>
	<path class="st0" d="M268.9,194.9c-1.6,0-3.1-0.6-4.2-1.8c-0.3-0.3-0.5-0.6-0.8-0.9c-0.2-0.3-0.4-0.7-0.6-1
		c-0.1-0.4-0.3-0.7-0.3-1.1c-0.1-0.4-0.1-0.8-0.1-1.2c0-1.6,0.6-3.1,1.8-4.2c1.1-1.1,2.7-1.8,4.2-1.8s3.1,0.6,4.2,1.8
		c1.1,1.1,1.8,2.7,1.8,4.2s-0.6,3.1-1.8,4.2C272,194.3,270.5,194.9,268.9,194.9z"/>
</g>
<g>
	<g>
		<path class="st1" d="M0,500"/>
	</g>
	<g>
		<path class="st2" d="M0,500"/>
	</g>
	<g>
		<path class="st2" d="M0,500"/>
	</g>
	<g>
		<path class="st2" d="M0,500"/>
	</g>
	<g>
		<path class="st2" d="M0,500"/>
	</g>
	<g>
		<path class="st2" d="M0,500"/>
	</g>
	<g>
		<path class="st2" d="M0,500"/>
	</g>
	<g>
		<path class="st2" d="M0,500"/>
	</g>
	<g>
		<path class="st2" d="M0,500"/>
	</g>
	<g>
		<path class="st2" d="M0,500"/>
	</g>
	<g>
		<path class="st2" d="M0,500"/>
	</g>
	<g>
		<path class="st2" d="M0,500"/>
	</g>
</g>
</svg>
