<?xml version="1.0" encoding="utf-8"?>
<!-- Generator: Adobe Illustrator 27.5.0, SVG Export Plug-In . SVG Version: 6.00 Build 0)  -->
<svg version="1.1" id="Layer_1" xmlns="http://www.w3.org/2000/svg" xmlns:xlink="http://www.w3.org/1999/xlink" x="0px" y="0px"
	 viewBox="0 0 500 500" style="enable-background:new 0 0 500 500;" xml:space="preserve">
<style type="text/css">
	.st0{fill:#F9423A;}
</style>
<g>
	<g>
		<path class="st0" d="M291.7,389.5h-83.4c-2.8,0-5.2-1.9-5.8-4.6s0.7-5.5,3.2-6.7c6-3,12.8-15.4,17.2-26h-121c-9.9,0-18-8.1-18-18
			V128.6c0-9.9,8.1-18,18-18h296.2c9.9,0,18,8.1,18,18v205.5c0,9.9-8.1,18-18,18h-121c4.4,10.6,11.2,23,17.3,26
			c2.5,1.2,3.8,4,3.2,6.7C296.9,387.6,294.5,389.5,291.7,389.5z M222.9,377.5h54.3c-6.1-8.6-10.7-19.5-12.9-25.4h-28.4
			C233.6,358,229,368.9,222.9,377.5z M268.5,340.1h129.6c3.3,0,6-2.7,6-6V128.6c0-3.3-2.7-6-6-6H101.9c-3.3,0-6,2.7-6,6v205.5
			c0,3.3,2.7,6,6,6h129.6h0.1h36.6C268.4,340.1,268.4,340.1,268.5,340.1z M383.5,303H116.6c-3.3,0-6-2.7-6-6V143.3c0-3.3,2.7-6,6-6
			h266.9c3.3,0,6,2.7,6,6V297C389.5,300.3,386.8,303,383.5,303z M122.6,291h254.9V149.3H122.6V291z"/>
	</g>
	<g>
		<path class="st0" d="M250,330.6h-0.1c-5,0-9-4-9-9s4-9,9-9h0.1c5,0,9,4,9,9S255,330.6,250,330.6z"/>
	</g>
	<g>
		<path class="st0" d="M280.1,272.1h-60.2c-2.5,0-4.8-1.6-5.6-4l-20.9-58c-0.7-1.8-0.4-3.9,0.7-5.5c1.1-1.6,3-2.6,4.9-2.6h9.5
			l20.5-31.3c1.8-2.8,5.5-3.5,8.3-1.7s3.5,5.5,1.7,8.3L222.8,202h54.4L261,177.4c-1.8-2.8-1-6.5,1.7-8.3c2.8-1.8,6.5-1,8.3,1.7
			l20.5,31.3h9.5c2,0,3.8,1,4.9,2.6s1.4,3.6,0.7,5.5l-20.9,58C284.9,270.5,282.6,272.1,280.1,272.1z M224.1,260.1h51.8l8.2-22.7H216
			L224.1,260.1z M211.6,225.4h76.8l4.1-11.3h-4.1c-0.1,0-0.1,0-0.2,0h-76.4c-0.1,0-0.1,0-0.2,0h-4.1L211.6,225.4z"/>
	</g>
</g>
</svg>
