<?xml version="1.0" encoding="utf-8"?>
<!-- Generator: Adobe Illustrator 27.5.0, SVG Export Plug-In . SVG Version: 6.00 Build 0)  -->
<svg version="1.1" id="Layer_1" xmlns="http://www.w3.org/2000/svg" xmlns:xlink="http://www.w3.org/1999/xlink" x="0px" y="0px"
	 viewBox="0 0 500 500" style="enable-background:new 0 0 500 500;" xml:space="preserve">
<style type="text/css">
	.st0{clip-path:url(#SVGID_00000103253538774832504700000010534717559288257169_);}
	.st1{fill:#F9423A;}
	.st2{fill:none;stroke:#F9423A;stroke-width:12;stroke-linecap:round;stroke-linejoin:round;}
</style>
<g>
	<g>
		<g>
			<defs>
				<rect id="SVGID_1_" width="500" height="500"/>
			</defs>
			<clipPath id="SVGID_00000130635077262385551860000005737712717597341578_">
				<use xlink:href="#SVGID_1_"  style="overflow:visible;"/>
			</clipPath>
			<g style="clip-path:url(#SVGID_00000130635077262385551860000005737712717597341578_);">
				<g>
					<g>
						<path class="st1" d="M202.8,312h-32.7c-3.3,0-6-2.7-6-6v-28.8h-28.8c-3.3,0-6-2.7-6-6v-32.7c0-3.3,2.7-6,6-6h28.8v-28.8
							c0-3.3,2.7-6,6-6h32.7c3.3,0,6,2.7,6,6v28.8l28.8,0.1c3.3,0,6,2.7,6,6v32.7c0,3.3-2.7,6-6,6h-28.8V306
							C208.8,309.3,206.1,312,202.8,312z M176.1,300h20.7v-28.7c0-3.3,2.7-6,6-6h28.8v-20.7l-28.8-0.1c-3.3,0-6-2.7-6-6v-28.8h-20.7
							v28.8c0,3.3-2.7,6-6,6h-28.8v20.7h28.8c3.3,0,6,2.7,6,6V300z"/>
					</g>
					<g>
						<path class="st1" d="M374.5,389.4h-249c-19.4,0-35.2-15.8-35.2-35.2v-160c0-19.4,15.8-35.2,35.2-35.2h249.1
							c19.4,0,35.2,15.8,35.2,35.2v160C409.7,373.6,393.8,389.4,374.5,389.4z M125.5,171c-12.8,0-23.2,10.4-23.2,23.2v160
							c0,12.8,10.4,23.2,23.2,23.2h249c12.8,0,23.2-10.4,23.3-23.2v-160c0-12.8-10.4-23.2-23.2-23.2L125.5,171L125.5,171z"/>
					</g>
					<g>
						<path class="st1" d="M363.7,350.1h-33.6c-3.3,0-6-2.7-6-6s2.7-6,6-6h33.6c3.3,0,6,2.7,6,6S367,350.1,363.7,350.1z
							 M363.7,316.5h-33.6c-3.3,0-6-2.7-6-6s2.7-6,6-6h33.6c3.3,0,6,2.7,6,6S367,316.5,363.7,316.5z M363.7,282.9h-33.6
							c-3.3,0-6-2.7-6-6s2.7-6,6-6h33.6c3.3,0,6,2.7,6,6S367,282.9,363.7,282.9z M178.5,171c-0.5,0-1-0.1-1.5-0.2
							c-3.2-0.8-5.2-4.1-4.4-7.3c7.7-30.7,40.2-52.9,77.3-52.9s69.7,22.3,77.3,52.9c0.8,3.2-1.2,6.5-4.4,7.3
							c-3.2,0.8-6.5-1.1-7.3-4.4c-6.4-25.4-34-43.9-65.7-43.9s-59.3,18.4-65.7,43.9C183.6,169.2,181.2,171,178.5,171z"/>
					</g>
				</g>
				<g>
					<path class="st2" d="M0,500"/>
				</g>
			</g>
		</g>
	</g>
</g>
</svg>
