<?xml version="1.0" encoding="utf-8"?>
<!-- Generator: Adobe Illustrator 27.5.0, SVG Export Plug-In . SVG Version: 6.00 Build 0)  -->
<svg version="1.1" id="Layer_1" xmlns="http://www.w3.org/2000/svg" xmlns:xlink="http://www.w3.org/1999/xlink" x="0px" y="0px"
	 viewBox="0 0 500 500" style="enable-background:new 0 0 500 500;" xml:space="preserve">
<style type="text/css">
	.st0{fill:#F9423A;}
</style>
<g>
	<g>
		<g>
			<path class="st0" d="M247.7,433.7c-102.6,0-186-83.4-186-186s83.4-186,186-186c3.3,0,6,2.7,6,6s-2.7,6-6,6
				c-95.9,0-174,78.1-174,174s78.1,174,174,174c90.1,0,168.2-76.7,174-171c0.2-3.3,3-5.8,6.4-5.6c3.3,0.2,5.8,3.1,5.6,6.4
				c-2.9,47.6-23.6,92.9-58.1,127.5C340.4,414.2,294.9,433.7,247.7,433.7z"/>
		</g>
	</g>
	<g>
		<path class="st0" d="M247.9,258.4c-1.6,0-3.1-0.6-4.2-1.8c-1.1-1.1-1.8-2.7-1.8-4.3l0.4-182.2c-0.3-0.7-0.5-1.5-0.5-2.4
			c0-3.3,2.7-6,6-6c102.6,0,186,83.4,186,186v3.4c0,2.4-1.4,4.5-3.4,5.4c-1.1,1-2.5,1.7-4.1,1.7L247.9,258.4L247.9,258.4z
			 M254.3,73.9l-0.4,172.5l167.9-0.1C421,153.2,346.7,77.3,254.3,73.9z"/>
	</g>
</g>
</svg>
