<?xml version="1.0" encoding="utf-8"?>
<!-- Generator: Adobe Illustrator 27.5.0, SVG Export Plug-In . SVG Version: 6.00 Build 0)  -->
<svg version="1.1" id="Layer_1" xmlns="http://www.w3.org/2000/svg" xmlns:xlink="http://www.w3.org/1999/xlink" x="0px" y="0px"
	 viewBox="0 0 500 500" style="enable-background:new 0 0 500 500;" xml:space="preserve">
<style type="text/css">
	.st0{fill:#F9423A;}
</style>
<g>
	<path class="st0" d="M247.8,61.7c-0.4,0-0.8,0-1.2,0.1c-38.2,0.2-76.7,13.3-108.5,36.9c-31.1,23-54.7,54.9-66.6,90.1l0,0
		c-0.2,0.4-0.5,0.8-0.6,1.3c-0.2,0.4-0.2,0.7-0.3,1.1c-5.8,15.6-8.8,34.6-8.8,56.6c0,102.6,83.4,186,186,186
		c41,0,87.8-17.7,119.2-44.9c0.3-0.3,0.6-0.7,0.9-1c16.7-14.7,32.5-36.1,44.6-60.6c12.7-25.4,20.2-51.9,21.2-74.9
		c0.1-0.4,0.1-0.9,0.1-1.3v-3.4C433.8,145.1,350.4,61.7,247.8,61.7z M254.3,73.9c92.4,3.4,166.7,79.3,167.5,172.4l-167.9,0.1
		L254.3,73.9z M242.3,73.9l-0.4,170v0.2L199.6,229l-115-41C108.7,123.2,173.4,76.3,242.3,73.9z M247.8,421.8
		c-95.9,0-174-78.1-174-174c0-18.5,2.2-34.6,6.5-48l128.1,45l36,12.7l0.5,0.6l109.6,125.5C325.3,406.9,284.1,421.8,247.8,421.8z
		 M363.5,375.7L261,258.4l160.2-0.2C417.3,298.4,393.2,347.5,363.5,375.7z"/>
	<path class="st0" d="M244.9,258.1c-0.2-0.1-0.5-0.3-0.7-0.5l-35.8-12.8l36,12.7L244.9,258.1z"/>
</g>
<path class="st0" d="M199.6,229l42.3,15.1v-0.2L199.6,229z"/>
</svg>
