<?xml version="1.0" encoding="utf-8"?>
<!-- Generator: Adobe Illustrator 27.5.0, SVG Export Plug-In . SVG Version: 6.00 Build 0)  -->
<svg version="1.1" id="Layer_1" xmlns="http://www.w3.org/2000/svg" xmlns:xlink="http://www.w3.org/1999/xlink" x="0px" y="0px"
	 viewBox="0 0 500 500" style="enable-background:new 0 0 500 500;" xml:space="preserve">
<style type="text/css">
	.st0{clip-path:url(#SVGID_00000152250093405228759080000014569636187637301149_);}
	.st1{fill:#F9423A;}
</style>
<g>
	<g>
		<g>
			<defs>
				<rect id="SVGID_1_" width="500" height="500"/>
			</defs>
			<clipPath id="SVGID_00000113330015140089168770000013316502132240718522_">
				<use xlink:href="#SVGID_1_"  style="overflow:visible;"/>
			</clipPath>
			<g style="clip-path:url(#SVGID_00000113330015140089168770000013316502132240718522_);">
				<g>
					<path class="st1" d="M154.5,416c-1.1,0-2.1-0.3-3.1-0.9c-2.8-1.7-3.7-5.4-2-8.2l61-100.5l-81-49.1c-2.8-1.7-3.7-5.4-2-8.2
						l4.5-7.5c16.8-27.7,50.7-38.7,79.9-27.7l39.3-64.8l-5.2-58.8c-0.2-2.3,0.9-4.4,2.8-5.6c1.9-1.2,4.4-1.2,6.3,0l141.7,85.9
						c1.9,1.2,3,3.3,2.9,5.6c-0.2,2.3-1.6,4.2-3.7,5.1L341.3,204l-39.2,64.8c9.8,8.8,16.7,20.3,19.9,33.4c4.2,17.2,1.5,34.9-7.6,50
						l-4.4,7.5c-0.8,1.4-2.1,2.4-3.7,2.8s-3.2,0.2-4.6-0.7l-81-49.1l-61,100.5C158.5,415,156.5,416,154.5,416z M140.7,250.2
						l161.9,98.1l1.3-2.3c0,0,0-0.1,0.1-0.1c7.5-12.4,9.7-26.9,6.3-41c-3.5-14.1-12.2-26-24.5-33.4l-69.1-41.9
						c-25.6-15.5-59-7.3-74.5,18.3L140.7,250.2z M222.6,219.2c0.1,0,0.1,0.1,0.2,0.1l69.1,41.9c0.1,0.1,0.2,0.1,0.4,0.2l36.6-60.4
						l-69.6-42.3L222.6,219.2z M262.9,146.9l74.7,45.4l42.6-17.7L258.8,101L262.9,146.9z"/>
				</g>
			</g>
		</g>
	</g>
</g>
</svg>
