<?xml version="1.0" encoding="utf-8"?>
<!-- Generator: Adobe Illustrator 27.5.0, SVG Export Plug-In . SVG Version: 6.00 Build 0)  -->
<svg version="1.1" id="Layer_1" xmlns="http://www.w3.org/2000/svg" xmlns:xlink="http://www.w3.org/1999/xlink" x="0px" y="0px"
	 viewBox="0 0 500 500" style="enable-background:new 0 0 500 500;" xml:space="preserve">
<style type="text/css">
	.st0{fill:#F9423A;}
	.st1{display:none;fill:none;stroke:#F9423A;stroke-width:12;stroke-linecap:round;stroke-linejoin:round;}
	.st2{fill:none;stroke:#F9423A;stroke-width:12;stroke-linecap:round;stroke-linejoin:round;}
</style>
<g>
	<g>
		<path class="st0" d="M226.8,259.6h-43.1c-3.3,0-6-2.7-6-6v-33.5c0-3.3,2.7-6,6-6h43.1c3.3,0,6,2.7,6,6v33.5
			C232.8,256.9,230.1,259.6,226.8,259.6z M189.7,247.6h31.1v-21.5h-31.1V247.6z"/>
	</g>
	<g>
		<path class="st0" d="M226.8,323.4h-43.1c-3.3,0-6-2.7-6-6v-33.5c0-3.3,2.7-6,6-6h43.1c3.3,0,6,2.7,6,6v33.5
			C232.8,320.7,230.1,323.4,226.8,323.4z M189.7,311.4h31.1v-21.5h-31.1V311.4z"/>
	</g>
	<g>
		<path class="st0" d="M306.4,259.6h-43.1c-3.3,0-6-2.7-6-6v-33.5c0-3.3,2.7-6,6-6h43.1c3.3,0,6,2.7,6,6v33.5
			C312.4,256.9,309.7,259.6,306.4,259.6z M269.3,247.6h31.1v-21.5h-31.1V247.6z"/>
	</g>
	<g>
		<path class="st0" d="M306.8,442.8H183.2c-12.8,0-23.2-10.4-23.2-23.2v-61.5c0-1.9,0.9-3.7,2.5-4.9c1.6-1.1,3.6-1.4,5.4-0.8
			c1.4,0.5,2.9,0.7,4.7,0.7h144.8c1.8,0,3.3-0.2,4.6-0.7c1.8-0.6,3.9-0.4,5.5,0.8c1.6,1.1,2.5,2.9,2.5,4.9v61.5
			C330,432.4,319.6,442.8,306.8,442.8z M172,365.1v54.5c0,6.2,5,11.2,11.2,11.2h123.6c6.2,0,11.2-5,11.2-11.2v-54.5
			c-0.2,0-0.4,0-0.6,0H172.6C172.4,365.1,172.2,365.1,172,365.1z"/>
	</g>
	<g>
		<path class="st0" d="M295.5,442H273c-3.3,0-6-2.7-6-6v-76.9c0-3.3,2.7-6,6-6h22.5c3.3,0,6,2.7,6,6V436
			C301.5,439.3,298.8,442,295.5,442z M279,430h10.5v-64.9H279V430z"/>
	</g>
	<g>
		<rect x="273" y="359.1" class="st0" width="22.5" height="76.9"/>
	</g>
	<g>
		<path class="st0" d="M226.8,323.4h-43.1c-3.3,0-6-2.7-6-6v-33.5c0-3.3,2.7-6,6-6h43.1c3.3,0,6,2.7,6,6v33.5
			C232.8,320.7,230.1,323.4,226.8,323.4z M189.7,311.4h31.1v-21.5h-31.1V311.4z M368.8,307.9h-27.3c-3.3,0-6-2.7-6-6s2.7-6,6-6h21.6
			l9.9-185.3h-21.1c-3.3,0-6-2.7-6-6s2.7-6,6-6h27.4c1.6,0,3.2,0.7,4.4,1.9c1.1,1.2,1.7,2.8,1.6,4.4l-10.5,197.3
			C374.6,305.4,372,307.9,368.8,307.9z M306.4,259.6h-43.1c-3.3,0-6-2.7-6-6v-33.5c0-3.3,2.7-6,6-6h43.1c3.3,0,6,2.7,6,6v33.5
			C312.4,256.9,309.7,259.6,306.4,259.6z M269.3,247.6h31.1v-21.5h-31.1V247.6z M226.8,259.6h-43.1c-3.3,0-6-2.7-6-6v-33.5
			c0-3.3,2.7-6,6-6h43.1c3.3,0,6,2.7,6,6v33.5C232.8,256.9,230.1,259.6,226.8,259.6z M189.7,247.6h31.1v-21.5h-31.1V247.6z
			 M296.7,196.9H193.4c-8.7,0-15.7-7-15.7-15.7v-78.3c0-8.7,7-15.7,15.7-15.7h103.3c8.7,0,15.7,7,15.7,15.7v78.3
			C312.4,189.9,305.4,196.9,296.7,196.9z M189.7,181.2c0,2,1.7,3.7,3.7,3.7h103.3c2,0,3.7-1.7,3.7-3.7v-78.3c0-2.1-1.6-3.7-3.7-3.7
			H193.4c-2,0-3.7,1.7-3.7,3.7V181.2z"/>
	</g>
	<g>
		<path class="st0" d="M317.6,365.1H172.8c-3.1,0-5.8-0.4-8.4-1.3c-11.2-3.5-19.1-13.7-19.8-25.4l-12.5-236.6
			c-0.6-11.7,3.5-22.9,11.6-31.4s19-13.2,30.7-13.2h141.3c11.7,0,22.7,4.7,30.8,13.2c8.1,8.5,12.3,19.6,11.8,31.3v0.1l-0.2,3.1
			l-10.4,197.2l-1.9,36.3c-0.6,11.7-8.5,21.9-19.7,25.4C323.4,364.7,320.7,365.1,317.6,365.1z M174.4,69.2c-8.4,0-16.2,3.4-22,9.5
			s-8.7,14.1-8.3,22.5l12.5,236.6c0.4,6.8,4.8,12.6,11.4,14.6h0.1c1.4,0.5,2.9,0.7,4.7,0.7h144.8c1.8,0,3.3-0.2,4.7-0.7h0.1
			c6.5-2,11.1-7.9,11.4-14.6l1.9-36.3l10.4-197.3l0.2-3.1c0.3-8.4-2.7-16.3-8.5-22.4c-5.8-6.1-13.7-9.5-22.1-9.5H174.4z
			 M352.3,101.4L352.3,101.4L352.3,101.4z M226.8,323.4h-43.1c-3.3,0-6-2.7-6-6v-33.5c0-3.3,2.7-6,6-6h43.1c3.3,0,6,2.7,6,6v33.5
			C232.8,320.7,230.1,323.4,226.8,323.4z M189.7,311.4h31.1v-21.5h-31.1V311.4z M306.4,259.6h-43.1c-3.3,0-6-2.7-6-6v-33.5
			c0-3.3,2.7-6,6-6h43.1c3.3,0,6,2.7,6,6v33.5C312.4,256.9,309.7,259.6,306.4,259.6z M269.3,247.6h31.1v-21.5h-31.1V247.6z
			 M226.8,259.6h-43.1c-3.3,0-6-2.7-6-6v-33.5c0-3.3,2.7-6,6-6h43.1c3.3,0,6,2.7,6,6v33.5C232.8,256.9,230.1,259.6,226.8,259.6z
			 M189.7,247.6h31.1v-21.5h-31.1V247.6z M296.7,196.9H193.4c-8.7,0-15.7-7-15.7-15.7v-78.3c0-8.7,7-15.7,15.7-15.7h103.3
			c8.7,0,15.7,7,15.7,15.7v78.3C312.4,189.9,305.4,196.9,296.7,196.9z M193.4,99.2c-2,0-3.7,1.7-3.7,3.7v78.3c0,2.1,1.6,3.7,3.7,3.7
			h103.3c2,0,3.7-1.7,3.7-3.7v-78.3c0-2-1.7-3.7-3.7-3.7H193.4z"/>
	</g>
	<g>
		<path class="st0" d="M306.4,323.4h-43.1c-3.3,0-6-2.7-6-6v-33.5c0-3.3,2.7-6,6-6h43.1c3.3,0,6,2.7,6,6v33.5
			C312.4,320.7,309.7,323.4,306.4,323.4z M269.3,311.4h31.1v-21.5h-31.1V311.4z M245.1,178.5c-3.3,0-6-2.7-6-6v-5
			c-4.9-1.4-9.4-4.4-12.6-8.5c-2-2.6-1.6-6.4,1-8.4s6.4-1.6,8.4,1c2.2,2.8,5.7,4.6,9.2,4.9c0.2,0,0.4,0,0.6,0c0.6,0,1.1,0,1.7-0.1
			c1.7-0.3,3.1-0.8,4.1-1.6c0.8-0.7,1.3-1.5,1.3-2.3c0-2.1-1.2-3.1-8.8-5.2c-6.7-1.9-18-5-16.7-17.5v-0.1c0.8-6,5.4-11.4,11.4-13.3
			c0.1,0,0.2-0.1,0.4-0.1v-4.8c0-3.3,2.7-6,6-6s6,2.7,6,6v5c5.1,1.6,9.7,5.1,12.6,10c1.7,2.9,0.7,6.5-2.2,8.2
			c-2.9,1.7-6.5,0.7-8.2-2.2s-4.7-4.8-7.8-5c-0.4,0-0.8,0-1.1,0c-0.7,0-1.3,0.1-1.9,0.3c-1.6,0.5-3,2-3.2,3.4
			c-0.2,1.5-0.1,2.3,8,4.5c6.7,1.8,17.8,4.9,17.6,17.1v0.1c-0.2,4.1-2.2,8.1-5.6,11l-0.1,0.1c-2.2,1.8-4.9,3-7.9,3.8v4.6
			C251.1,175.8,248.4,178.5,245.1,178.5z"/>
	</g>
	<g>
		<path class="st1" d="M0,500"/>
		<path class="st2" d="M0,500"/>
	</g>
	<g>
		<path class="st1" d="M0,500"/>
		<path class="st2" d="M0,500"/>
		<path class="st2" d="M0,500"/>
	</g>
	<g>
		<path class="st1" d="M0,500"/>
		<path class="st2" d="M0,500"/>
		<path class="st2" d="M0,500"/>
	</g>
	<g>
		<g>
			<path class="st1" d="M0,500"/>
		</g>
		<g>
			<path class="st2" d="M0,500"/>
		</g>
	</g>
	<g>
		<path class="st2" d="M0,500"/>
	</g>
</g>
</svg>
