<?xml version="1.0" encoding="iso-8859-1"?>
<!-- Generator: Adobe Illustrator 29.6.1, SVG Export Plug-In . SVG Version: 9.03 Build 0)  -->
<svg version="1.1" id="Layer_1" xmlns="http://www.w3.org/2000/svg" xmlns:xlink="http://www.w3.org/1999/xlink" x="0px" y="0px"
	 viewBox="0 0 500 500" style="enable-background:new 0 0 500 500;" xml:space="preserve">
<g>
	<g>
		<path style="fill:#F9423A;" d="M375,391c-3.313,0-6-2.687-6-6V186H131v199c0,3.313-2.686,6-6,6s-6-2.687-6-6v-44H85
			c-3.314,0-6-2.687-6-6V205c0-3.314,2.686-6,6-6h34v-19c0-3.314,2.686-6,6-6h19v-68.083c-2.837-0.476-5-2.944-5-5.917
			c0-3.314,2.686-6,6-6h19V75c0-3.314,2.686-6,6-6s6,2.686,6,6v19h19c3.314,0,6,2.686,6,6c0,2.973-2.163,5.441-5,5.917V174h28
			v-68.083c-2.837-0.476-5-2.944-5-5.917c0-3.314,2.686-6,6-6h19V75c0-3.314,2.686-6,6-6c3.313,0,6,2.686,6,6v19h19
			c3.313,0,6,2.686,6,6c0,2.973-2.162,5.441-5,5.917V174h28v-68.083c-2.838-0.476-5-2.944-5-5.917c0-3.314,2.687-6,6-6h19V75
			c0-3.314,2.687-6,6-6s6,2.686,6,6v19h19c3.313,0,6,2.686,6,6c0,2.973-2.162,5.441-5,5.917V174h19c3.313,0,6,2.686,6,6v19h34
			c3.313,0,6,2.686,6,6v130c0,3.313-2.687,6-6,6h-34v44C381,388.313,378.313,391,375,391z M381,329h28V211h-28V329z M91,329h28V211
			H91V329z M316,174h28v-28h-28V174z M236,174h28v-28h-28V174z M156,174h28v-28h-28V174z M316,134h28v-28h-28V134z M236,134h28v-28
			h-28V134z M156,134h28v-28h-28V134z"/>
	</g>
	<g>
		<path style="fill:#F9423A;" d="M238.999,351c-0.737,0-1.481-0.136-2.195-0.416C234.509,349.681,233,347.466,233,345v-43.091h-38
			c-2.388,0-4.548-1.416-5.501-3.604c-0.953-2.189-0.517-4.735,1.109-6.483l66-70.909c1.68-1.806,4.294-2.397,6.588-1.496
			C265.491,220.32,267,222.535,267,225v43.091h38c2.388,0,4.548,1.416,5.501,3.604c0.953,2.189,0.518,4.735-1.109,6.483l-66,70.909
			C242.234,350.332,240.633,351,238.999,351z M208.781,289.909H239c3.313,0,6,2.687,6,6v33.838l46.219-49.656H261
			c-3.313,0-6-2.687-6-6v-33.838L208.781,289.909z"/>
	</g>
	<g>
		<path style="fill:#F9423A;" d="M381,431H121c-8.822,0-16-7.178-16-16v-20c0-8.822,7.178-16,16-16h260c8.822,0,16,7.178,16,16v20
			C397,423.822,389.822,431,381,431z M121,391c-2.206,0-4,1.794-4,4v20c0,2.206,1.794,4,4,4h260c2.206,0,4-1.794,4-4v-20
			c0-2.206-1.794-4-4-4H121z M238.999,351c-0.737,0-1.481-0.136-2.195-0.416C234.509,349.681,233,347.466,233,345v-43.091h-38
			c-2.388,0-4.548-1.416-5.501-3.604c-0.953-2.189-0.517-4.735,1.109-6.483l66-70.909c1.68-1.806,4.297-2.397,6.588-1.496
			C265.491,220.32,267,222.535,267,225v43.091h38c2.388,0,4.548,1.416,5.501,3.604c0.953,2.189,0.518,4.735-1.109,6.483l-66,70.909
			C242.234,350.332,240.633,351,238.999,351z M208.781,289.909H239c3.313,0,6,2.687,6,6v33.838l46.219-49.656H261
			c-3.313,0-6-2.687-6-6v-33.838L208.781,289.909z"/>
	</g>
</g>
</svg>
