<?xml version="1.0" encoding="iso-8859-1"?>
<!-- Generator: Adobe Illustrator 29.6.1, SVG Export Plug-In . SVG Version: 9.03 Build 0)  -->
<svg version="1.1" id="Layer_1" xmlns="http://www.w3.org/2000/svg" xmlns:xlink="http://www.w3.org/1999/xlink" x="0px" y="0px"
	 viewBox="0 0 500 500" style="enable-background:new 0 0 500 500;" xml:space="preserve">
<defs>
	<filter id="Adobe_OpacityMaskFilter" filterUnits="userSpaceOnUse" x="191.5" y="79" width="213" height="177.001">
		<feColorMatrix  type="matrix" values="1 0 0 0 0  0 1 0 0 0  0 0 1 0 0  0 0 0 1 0"/>
	</filter>
</defs>
<mask maskUnits="userSpaceOnUse" x="191.5" y="79" width="213" height="177.001" id="UnbnVMvhO0a_00000063591902739503983490000011006573748520175293_">
	<path style="fill-rule:evenodd;clip-rule:evenodd;fill:#FFFFFF;filter:url(#Adobe_OpacityMaskFilter);" d="M416.5,74h-336v176h336
		V74z M92.5,185c0,16.569,13.432,30,30,30h90v-0.112c14.016-1.263,25-13.043,25-27.388c0-15.188-12.312-27.5-27.5-27.5
		c-2.678,0-5.267,0.383-7.715,1.097C200.344,143.604,185.511,130,167.5,130c-16.594,0-30.49,11.547-34.092,27.045
		c-3.477-1.356-7.176-2.05-10.908-2.045C105.932,155,92.5,168.431,92.5,185"/>
</mask>
<g style="mask:url(#UnbnVMvhO0a_00000063591902739503983490000011006573748520175293_);">
	<g>
		<path style="fill:#F9423A;" d="M297.5,256c-3.313,0-6-2.687-6-6v-37c0-11.58,9.421-21,21-21h46c18.748,0,34-15.252,34-34
			s-15.252-34-34-34c-0.009,0-0.018,0-0.026,0c-3.83,0-7.601,0.639-11.212,1.899c-1.536,0.537-3.229,0.426-4.683-0.309
			c-1.455-0.735-2.548-2.029-3.028-3.586C333.828,103.459,316.929,91,297.5,91c-22.071,0-40.831,16.479-43.639,38.331
			c-0.247,1.92-1.404,3.603-3.109,4.52c-1.704,0.917-3.747,0.955-5.485,0.102c-3.949-1.938-8.363-2.988-12.758-2.952
			c-16,0-29.009,13.009-29.009,29v90c0,3.313-2.687,6-6,6s-6-2.687-6-6v-90c0-22.607,18.393-41,41-41
			c3.713-0.026,7.353,0.496,10.904,1.473C249.86,96.377,271.935,79,297.5,79c22.758,0,42.788,13.436,51.514,33.98
			c3.112-0.655,6.265-0.959,9.491-0.98c25.359,0,45.995,20.636,45.995,46s-20.636,46-46,46h-46c-4.963,0-9,4.038-9,9v37
			C303.5,253.313,300.813,256,297.5,256z"/>
	</g>
</g>
<defs>
	
		<filter id="Adobe_OpacityMaskFilter_00000169526401658037203630000007955752612557654701_" filterUnits="userSpaceOnUse" x="61.499" y="289" width="377.001" height="132">
		<feColorMatrix  type="matrix" values="1 0 0 0 0  0 1 0 0 0  0 0 1 0 0  0 0 0 1 0"/>
	</filter>
</defs>
<mask maskUnits="userSpaceOnUse" x="61.499" y="289" width="377.001" height="132" id="YW2hWreZhzb_00000065757236784660905190000017279404347311093683_">
	
		<path style="fill-rule:evenodd;clip-rule:evenodd;fill:#FFFFFF;filter:url(#Adobe_OpacityMaskFilter_00000169526401658037203630000007955752612557654701_);" d="
		M449.5,240h-398v191h398V240z M312.5,250h-130v17.162c0,36.664-5.761,73.101-17.072,107.977L152.5,415h190l-12.928-39.861
		c-11.311-34.876-17.072-71.313-17.072-107.977V250z"/>
</mask>
<g style="mask:url(#YW2hWreZhzb_00000065757236784660905190000017279404347311093683_);">
	<g>
		<path style="fill:#F9423A;" d="M432.5,421h-145c-1.899,0-3.688-0.899-4.819-2.426c-1.132-1.525-1.474-3.497-0.923-5.315
			l12.644-41.694c5.54-18.265,8.349-37.206,8.349-56.298V295c0-3.313,2.687-6,6-6h98.75c3.313,0,6,2.687,6,6v15.317
			c0,4.668,0.167,9.319,0.499,13.951c0.022,0.189,0.037,0.382,0.042,0.575c1.291,17.276,4.888,34.26,10.739,50.659l13.371,37.481
			c0.655,1.837,0.377,3.878-0.747,5.473S434.451,421,432.5,421z M295.589,409h128.4l-10.512-29.465
			c-5.618-15.747-9.279-32.003-10.942-48.535h-88.386c-1.142,14.925-3.908,29.684-8.264,44.047L295.589,409z M314.716,319h86.966
			c-0.121-2.889-0.182-5.782-0.182-8.683V301h-86.75v14.267C314.75,316.512,314.738,317.757,314.716,319z M207.5,421h-140
			c-1.882,0-3.656-0.884-4.79-2.386c-1.134-1.503-1.497-3.451-0.98-5.261l11.937-41.823c4.354-15.255,6.91-30.949,7.625-46.775
			c0.001-0.02,0.002-0.039,0.003-0.06c0.137-3.046,0.205-6.099,0.205-9.152V295c0-3.313,2.687-6,6-6h98.75c3.313,0,6,2.687,6,6
			v18.784c0,20.073,2.954,39.991,8.779,59.199l12.213,40.275c0.551,1.818,0.209,3.79-0.923,5.315
			C211.187,420.101,209.4,421,207.5,421z M75.452,409H199.41l-9.865-32.534c-4.498-14.832-7.379-30.062-8.609-45.466h-87.99
			c-1.063,14.822-3.653,29.506-7.74,43.823L75.452,409z M93.472,319h86.841c-0.042-1.737-0.063-3.477-0.063-5.216V301H93.5v14.543
			C93.5,316.696,93.491,317.848,93.472,319z"/>
	</g>
</g>
<g>
	<path style="fill:#F9423A;" d="M342.5,421h-190c-1.92,0-3.724-0.919-4.853-2.472c-1.129-1.554-1.447-3.553-0.854-5.379
		l12.928-39.861c11.134-34.33,16.779-70.036,16.779-106.126V250c0-3.313,2.687-6,6-6h130c3.313,0,6,2.687,6,6v17.162
		c0,36.091,5.646,71.797,16.779,106.125l12.928,39.862c0.593,1.826,0.275,3.825-0.854,5.379C346.224,420.081,344.42,421,342.5,421z
		 M160.754,409h173.492l-10.381-32.011c-11.522-35.526-17.365-72.478-17.365-109.827V256h-118v11.162
		c0,37.35-5.842,74.301-17.364,109.827L160.754,409z"/>
</g>
<g>
	<path style="fill:#F9423A;" d="M237.497,376c-1.382,0-2.77-0.475-3.902-1.444c-2.516-2.156-2.807-5.944-0.651-8.46L254.455,341
		H227.5c-2.343,0-4.472-1.364-5.451-3.493s-0.629-4.633,0.896-6.411l30-35c2.156-2.517,5.946-2.808,8.46-0.651
		c2.517,2.156,2.808,5.944,0.651,8.46L240.545,329H267.5c2.343,0,4.472,1.364,5.451,3.493s0.629,4.633-0.896,6.411l-30,35
		C240.869,375.289,239.188,376,237.497,376z M212.5,221h-90c-19.851,0-36-16.149-36-36s16.149-36,36-36
		c2.352,0,4.674,0.225,6.951,0.67C135.594,134.289,150.459,124,167.5,124c18.748,0,34.76,12.573,39.548,30.128
		c0.981-0.086,1.941-0.158,2.958-0.128c18.467,0,33.495,15.028,33.495,33.5c0,17.034-12.469,31.104-29.209,33.228
		C213.725,220.905,213.124,221,212.5,221z M212.5,214.888h0.01H212.5z M122.5,161c-13.233,0-24,10.767-24,24s10.767,24,24,24h88.845
		c0.202-0.04,0.407-0.069,0.616-0.087c11.139-1.004,19.539-10.21,19.539-21.413c0-11.855-9.645-21.5-21.5-21.5
		c-0.007,0-0.014,0-0.02,0c-2.041,0-4.062,0.289-6.017,0.858c-1.702,0.494-3.534,0.213-5.008-0.77s-2.438-2.568-2.633-4.329
		C194.692,147.074,182.301,136,167.5,136c-13.566,0-25.182,9.212-28.248,22.403c-0.394,1.696-1.506,3.138-3.046,3.95
		c-1.541,0.812-3.358,0.915-4.98,0.282C128.448,161.55,125.512,161,122.5,161z"/>
</g>
</svg>
