<?xml version="1.0" encoding="iso-8859-1"?>
<!-- Generator: Adobe Illustrator 29.6.1, SVG Export Plug-In . SVG Version: 9.03 Build 0)  -->
<svg version="1.1" id="Layer_1" xmlns="http://www.w3.org/2000/svg" xmlns:xlink="http://www.w3.org/1999/xlink" x="0px" y="0px"
	 viewBox="0 0 500 500" style="enable-background:new 0 0 500 500;" xml:space="preserve">
<g>
	<g>
		<path style="fill:#F9423A;" d="M410,327.7H90c-3.314,0-6-2.687-6-6V116.9c0-3.313,2.686-6,6-6h154v-21c0-3.313,2.686-6,6-6
			c3.313,0,6,2.687,6,6v21h154c3.313,0,6,2.687,6,6v204.8C416,325.013,413.313,327.7,410,327.7z M96,315.7h308v-18.4H96V315.7z
			 M96,285.3h308V122.9H96V285.3z"/>
	</g>
	<g>
		<path style="fill:#F9423A;" d="M250,261.7c-31.209,0-56.6-25.391-56.6-56.6s25.391-56.6,56.6-56.6s56.6,25.391,56.6,56.6
			S281.209,261.7,250,261.7z M250,160.5c-24.593,0-44.6,20.007-44.6,44.6c0,24.592,20.007,44.6,44.6,44.6s44.6-20.007,44.6-44.6
			S274.593,160.5,250,160.5z"/>
	</g>
	<g>
		<path style="fill:#F9423A;" d="M384.2,416.1h-40.3c-3.313,0-6-2.687-6-6s2.687-6,6-6h14.2v-27.3H141.9v27.3h14
			c3.313,0,6,2.687,6,6s-2.687,6-6,6h-40.4c-3.313,0-6-2.687-6-6s2.687-6,6-6h14.4v-82.3c0-3.313,2.687-6,6-6s6,2.687,6,6v43h216.2
			v-43c0-3.313,2.687-6,6-6s6,2.687,6,6v82.3h14.1c3.313,0,6,2.687,6,6S387.514,416.1,384.2,416.1z M387.25,267.8
			c-3.313,0-6.05-2.687-6.05-6s2.637-6,5.95-6h0.1c3.313,0,6,2.687,6,6S390.563,267.8,387.25,267.8z M113.1,267.8H113
			c-3.313,0-6-2.687-6-6s2.687-6,6-6h0.1c3.313,0,6,2.687,6,6S116.414,267.8,113.1,267.8z M387.05,238.656
			c-3.313,0-6.05-2.686-6.05-6c0-3.313,2.637-6,5.95-6h0.1c3.313,0,6,2.687,6,6C393.05,235.97,390.363,238.656,387.05,238.656z
			 M112.9,238.656h-0.1c-3.313,0-6-2.686-6-6c0-3.313,2.687-6,6-6h0.1c3.313,0,6,2.687,6,6
			C118.9,235.97,116.213,238.656,112.9,238.656z M300.6,211.1H250c-3.313,0-6-2.687-6-6v-50.6c0-3.313,2.687-6,6-6s6,2.687,6,6v44.6
			h44.6c3.313,0,6,2.687,6,6S303.913,211.1,300.6,211.1z M387.05,209.4c-3.313,0-6.05-2.687-6.05-6s2.637-6,5.95-6h0.1
			c3.313,0,6,2.687,6,6S390.363,209.4,387.05,209.4z M112.9,209.4h-0.1c-3.313,0-6-2.687-6-6s2.687-6,6-6h0.1c3.313,0,6,2.687,6,6
			S116.213,209.4,112.9,209.4z M387.151,180.093h-0.101c-3.313,0-6-2.687-6-6c0-3.314,2.687-6,6-6h0.101c3.313,0,6,2.686,6,6
			C393.151,177.406,390.465,180.093,387.151,180.093z M113,180.093h-0.1c-3.313,0-6-2.687-6-6c0-3.314,2.687-6,6-6h0.1
			c3.313,0,6,2.686,6,6C119,177.406,116.313,180.093,113,180.093z M387.151,151h-0.101c-3.313,0-6-2.687-6-6s2.687-6,6-6h0.101
			c3.313,0,6,2.687,6,6S390.465,151,387.151,151z M113,151h-0.1c-3.313,0-6-2.687-6-6s2.687-6,6-6h0.1c3.313,0,6,2.687,6,6
			S116.313,151,113,151z"/>
	</g>
</g>
</svg>
