<?xml version="1.0" encoding="iso-8859-1"?>
<!-- Generator: Adobe Illustrator 29.6.1, SVG Export Plug-In . SVG Version: 9.03 Build 0)  -->
<svg version="1.1" id="Layer_1" xmlns="http://www.w3.org/2000/svg" xmlns:xlink="http://www.w3.org/1999/xlink" x="0px" y="0px"
	 viewBox="0 0 500 500" style="enable-background:new 0 0 500 500;" xml:space="preserve">
<g>
	<g>
		<path style="fill:#F9423A;" d="M123.995,429.25c-1.171,0-2.354-0.342-3.392-1.055c-2.731-1.877-3.425-5.611-1.549-8.343
			l58.106-84.604H72.5c-3.313,0-6-2.687-6-6v-230c0-3.313,2.687-6,6-6h172v-16.5c0-3.313,2.687-6,6-6s6,2.687,6,6v16.5h171
			c3.313,0,6,2.687,6,6v230c0,3.313-2.687,6-6,6H325.412l60.458,83.995c1.936,2.689,1.324,6.438-1.365,8.375
			c-2.689,1.935-6.438,1.324-8.375-1.365l-65.5-91c-0.001-0.001-0.002-0.003-0.003-0.005H191.696
			c-0.078,0.135-0.161,0.267-0.25,0.396l-62.5,91C127.783,428.34,125.905,429.25,123.995,429.25z M78.5,323.25h343v-218h-343V323.25
			z"/>
	</g>
	<g>
		<path style="fill:#F9423A;" d="M375.5,308.25h-251c-3.313,0-6-2.687-6-6s2.687-6,6-6h251c3.313,0,6,2.687,6,6
			S378.813,308.25,375.5,308.25z"/>
	</g>
</g>
</svg>
