<?xml version="1.0" encoding="utf-8"?>
<!-- Generator: Adobe Illustrator 27.5.0, SVG Export Plug-In . SVG Version: 6.00 Build 0)  -->
<svg version="1.1" id="Layer_1" xmlns="http://www.w3.org/2000/svg" xmlns:xlink="http://www.w3.org/1999/xlink" x="0px" y="0px"
	 viewBox="0 0 500 500" style="enable-background:new 0 0 500 500;" xml:space="preserve">
<style type="text/css">
	.st0{clip-path:url(#SVGID_00000128478854033426430720000005702959907914011558_);}
	.st1{clip-path:url(#SVGID_00000023998096273921089600000011208233711894820530_);}
	.st2{fill:#F9423A;}
	.st3{opacity:0;clip-path:url(#SVGID_00000106864877824209130700000006845902169018479015_);}
	.st4{fill:none;stroke:#F9423A;stroke-width:18;stroke-linecap:round;stroke-linejoin:round;}
</style>
<g>
	<g>
		<g>
			<defs>
				<rect id="SVGID_1_" width="500" height="500"/>
			</defs>
			<clipPath id="SVGID_00000007396993664198736740000004062182584097897917_">
				<use xlink:href="#SVGID_1_"  style="overflow:visible;"/>
			</clipPath>
			<g style="clip-path:url(#SVGID_00000007396993664198736740000004062182584097897917_);">
				<g>
					<g>
						<g>
							<defs>
								<rect id="SVGID_00000051347411336377999160000000531486367144790461_" width="500" height="500"/>
							</defs>
							<clipPath id="SVGID_00000171692781899055898440000008639483068084956802_">
								<use xlink:href="#SVGID_00000051347411336377999160000000531486367144790461_"  style="overflow:visible;"/>
							</clipPath>
							<g style="clip-path:url(#SVGID_00000171692781899055898440000008639483068084956802_);">
								<g>
									<path class="st2" d="M190.6,315.9c-1.5,0-3.1-0.6-4.2-1.8c-2.3-2.3-2.3-6.1,0-8.5l10-10c-5.7-8.4-8.4-18.9-7.1-29.3
										c0.4-3.3,3.4-5.6,6.7-5.2s5.6,3.4,5.2,6.7c-1,8.4,1.6,17.1,6.9,23.5c0.2,0.2,0.5,0.4,0.7,0.6c0.4,0.4,0.7,0.8,1,1.2
										c0.9,1,1.9,1.8,3,2.6c3.6,2.7,7.3,4.3,10.8,4.7c3.6,0.4,7.1-0.7,9.4-2.9c6.6-6.3,3.9-12.9-3.8-26.5
										c-6.6-11.7-15.7-27.6-0.3-40c7.5-6.1,18.9-7.1,28.2-2.3c1.4,0.7,2.7,1.5,4,2.4l10-10c2.3-2.3,6.1-2.3,8.5,0
										c2.3,2.3,2.3,6.1,0,8.5l-10.1,10.1c5.9,8.7,8.1,20.1,5.3,30.9c-0.8,3.2-4.1,5.1-7.3,4.3c-3.2-0.8-5.1-4.1-4.3-7.3
										c2.9-11.1-2.2-23.5-11.5-28.2c-5.1-2.6-11.4-2.3-15.2,0.9c-6.8,5.4-4.3,11.4,3.2,24.7c6.6,11.7,15.7,27.7,1.6,41.2
										c-4.9,4.6-11.7,6.8-18.8,6.1c-5.8-0.6-11.5-2.9-16.9-7.1c-0.3-0.2-0.6-0.5-0.9-0.7l-9.7,9.7
										C193.7,315.3,192.1,315.9,190.6,315.9z"/>
								</g>
								<g>
									<path class="st2" d="M212.1,414c-1.5,0-3.1-0.6-4.2-1.8L86.7,291c-1.1-1.1-1.8-2.7-1.8-4.2s0.6-3.1,1.8-4.2l169.8-169.8
										c1.1-1.1,2.7-1.8,4.2-1.8l0,0l120.6,0.6c3.3,0,6,2.7,6,6l0.6,120.6c0,1.6-0.6,3.1-1.8,4.3L216.3,412.2
										C215.2,413.4,213.6,414,212.1,414z M99.4,286.8l112.7,112.7l163.8-163.8l-0.6-112.2L263.2,123L99.4,286.8z"/>
								</g>
								<g>
									<path class="st2" d="M338.8,169.1c-0.6,0-1.2-0.1-1.8-0.2c-0.6-0.1-1.1-0.3-1.7-0.5c-0.5-0.2-1.1-0.5-1.6-0.8
										s-1-0.7-1.4-1.1c-1.7-1.7-2.6-4-2.6-6.4c0-0.6,0.1-1.2,0.2-1.8s0.3-1.1,0.5-1.7c0.2-0.5,0.5-1.1,0.8-1.6s0.7-0.9,1.1-1.4
										c0.4-0.4,0.9-0.8,1.4-1.1s1-0.6,1.6-0.8c0.5-0.2,1.1-0.4,1.7-0.5c2.9-0.6,6,0.4,8.1,2.5c0.4,0.4,0.8,0.9,1.1,1.4
										c0.3,0.5,0.6,1,0.8,1.6c0.2,0.5,0.4,1.1,0.5,1.7c0.1,0.6,0.2,1.2,0.2,1.8c0,2.4-1,4.7-2.6,6.4
										C343.5,168.1,341.2,169.1,338.8,169.1z"/>
								</g>
							</g>
						</g>
					</g>
				</g>
				<g>
					<g>
						<g>
							<defs>
								<rect id="SVGID_00000021825501783342311360000012979911727988332991_" width="500" height="500"/>
							</defs>
							<clipPath id="SVGID_00000080895056185608390960000007342474856128855743_">
								<use xlink:href="#SVGID_00000021825501783342311360000012979911727988332991_"  style="overflow:visible;"/>
							</clipPath>
							<g style="opacity:0;clip-path:url(#SVGID_00000080895056185608390960000007342474856128855743_);">
								<g>
									<path class="st2" d="M190.6,315.9c-1.5,0-3.1-0.6-4.2-1.8c-2.3-2.3-2.3-6.1,0-8.5l10-10c-5.7-8.4-8.4-18.9-7.1-29.3
										c0.4-3.3,3.4-5.6,6.7-5.2s5.6,3.4,5.2,6.7c-1,8.4,1.6,17.1,6.9,23.5c0.2,0.2,0.5,0.4,0.7,0.6c0.4,0.4,0.7,0.8,1,1.2
										c0.9,1,1.9,1.8,3,2.6c3.6,2.7,7.3,4.3,10.8,4.7c3.6,0.4,7.1-0.7,9.4-2.9c6.6-6.3,3.9-12.9-3.8-26.5
										c-6.6-11.7-15.7-27.6-0.3-40c7.5-6.1,18.9-7.1,28.2-2.3c1.4,0.7,2.7,1.5,4,2.4l10-10c2.3-2.3,6.1-2.3,8.5,0
										c2.3,2.3,2.3,6.1,0,8.5l-10.1,10.1c5.9,8.7,8.1,20.1,5.3,30.9c-0.8,3.2-4.1,5.1-7.3,4.3c-3.2-0.8-5.1-4.1-4.3-7.3
										c2.9-11.1-2.2-23.5-11.5-28.2c-5.1-2.6-11.4-2.3-15.2,0.9c-6.8,5.4-4.3,11.4,3.2,24.7c6.6,11.7,15.7,27.7,1.6,41.2
										c-4.9,4.6-11.7,6.8-18.8,6.1c-5.8-0.6-11.5-2.9-16.9-7.1c-0.3-0.2-0.6-0.5-0.9-0.7l-9.7,9.7
										C193.7,315.3,192.1,315.9,190.6,315.9z"/>
								</g>
								<g>
									<path class="st2" d="M212.1,414c-1.5,0-3.1-0.6-4.2-1.8L86.7,291c-1.1-1.1-1.8-2.7-1.8-4.2s0.6-3.1,1.8-4.2l169.8-169.8
										c1.1-1.1,2.7-1.8,4.2-1.8l0,0l120.6,0.6c3.3,0,6,2.7,6,6l0.6,120.6c0,1.6-0.6,3.1-1.8,4.3L216.3,412.2
										C215.2,413.4,213.6,414,212.1,414z M99.4,286.8l112.7,112.7l163.8-163.8l-0.6-112.2L263.2,123L99.4,286.8z"/>
								</g>
								<g>
									<path class="st2" d="M338.8,166.1c-1.6,0-3.1-0.6-4.2-1.8c-0.3-0.3-0.5-0.6-0.8-0.9c-0.2-0.3-0.4-0.7-0.5-1
										c-0.2-0.4-0.3-0.7-0.3-1.1c-0.1-0.4-0.1-0.8-0.1-1.2c0-1.6,0.6-3.1,1.8-4.2c1.4-1.4,3.5-2,5.4-1.6c0.4,0.1,0.8,0.2,1.1,0.3
										c0.4,0.1,0.7,0.3,1,0.5s0.6,0.5,0.9,0.8c1.1,1.1,1.8,2.7,1.8,4.2c0,0.4,0,0.8-0.1,1.2s-0.2,0.8-0.3,1.1
										c-0.2,0.4-0.3,0.7-0.5,1s-0.5,0.6-0.8,0.9c-0.3,0.3-0.6,0.5-0.9,0.8c-0.3,0.2-0.7,0.4-1,0.5c-0.4,0.2-0.7,0.3-1.1,0.3
										C339.6,166.1,339.2,166.1,338.8,166.1z"/>
								</g>
							</g>
						</g>
					</g>
				</g>
				<g>
					<path class="st4" d="M0,500"/>
				</g>
			</g>
		</g>
	</g>
</g>
</svg>
