<?xml version="1.0" encoding="iso-8859-1"?>
<!-- Generator: Adobe Illustrator 29.6.1, SVG Export Plug-In . SVG Version: 9.03 Build 0)  -->
<svg version="1.1" id="Layer_1" xmlns="http://www.w3.org/2000/svg" xmlns:xlink="http://www.w3.org/1999/xlink" x="0px" y="0px"
	 viewBox="0 0 500 500" style="enable-background:new 0 0 500 500;" xml:space="preserve">
<defs>
	<filter id="Adobe_OpacityMaskFilter" filterUnits="userSpaceOnUse" x="234.004" y="258.998" width="156.555" height="182.001">
		<feColorMatrix  type="matrix" values="1 0 0 0 0  0 1 0 0 0  0 0 1 0 0  0 0 0 1 0"/>
	</filter>
</defs>
<mask maskUnits="userSpaceOnUse" x="234.004" y="258.998" width="156.555" height="182.001" id="yWDWO_N3Jfa_00000149363132410230452410000010743713213911237556_">
	<path style="fill:#FFFFFF;filter:url(#Adobe_OpacityMaskFilter);" d="M381.571,272.935l-6.263-18.369
		c-1.357-3.978-0.178-8.381,2.984-11.15c6.411-5.613,16.494-2.048,17.952,6.347l33.938,195.425H69.884l33.878-195.424
		c1.456-8.394,11.537-11.96,17.947-6.348c3.162,2.769,4.341,7.172,2.984,11.15l-6.264,18.369
		c-4.053,11.888,3.305,24.622,15.628,27.046l19.046,3.747c4.131,0.812,7.361,4.042,8.174,8.173l3.747,19.041
		c2.424,12.322,15.155,19.679,27.042,15.629l18.375-6.261c3.977-1.355,8.379-0.176,11.147,2.985l12.806,14.627
		c8.263,9.439,22.949,9.439,31.213,0l12.804-14.626c2.769-3.162,7.172-4.341,11.15-2.984l18.37,6.264
		c11.887,4.053,24.622-3.305,27.046-15.628l3.747-19.046c0.812-4.131,4.043-7.362,8.174-8.174l19.045-3.747
		C378.267,297.557,385.625,284.823,381.571,272.935"/>
</mask>
<g style="mask:url(#yWDWO_N3Jfa_00000149363132410230452410000010743713213911237556_);">
	<g>
		<path style="fill:#F9423A;" d="M301.136,440.999c-2.331,0-4.452-1.351-5.438-3.465l-61.131-131.102
			c-1.4-3.003-0.101-6.572,2.902-7.973l83.423-38.899c3.004-1.398,6.573-0.1,7.973,2.902l61.131,131.092
			c0.99,2.124,0.654,4.63-0.861,6.417c-1.517,1.787-3.938,2.526-6.189,1.898l-53.428-14.917L306.6,437.477
			c-0.968,2.134-3.089,3.509-5.433,3.521C301.156,440.999,301.146,440.999,301.136,440.999z M247.979,306.8l53.082,113.84
			l19.653-43.327c1.223-2.695,4.229-4.094,7.077-3.301l45.816,12.792l-53.082-113.831L247.979,306.8z"/>
	</g>
</g>
<defs>
	
		<filter id="Adobe_OpacityMaskFilter_00000173149508541009492780000008718385991177250457_" filterUnits="userSpaceOnUse" x="109.004" y="259" width="156.556" height="181.999">
		<feColorMatrix  type="matrix" values="1 0 0 0 0  0 1 0 0 0  0 0 1 0 0  0 0 0 1 0"/>
	</filter>
</defs>
<mask maskUnits="userSpaceOnUse" x="109.004" y="259" width="156.556" height="181.999" id="T-ZTEIM980b_00000149349115305778633580000004358361923753966228_">
	<path style="fill:#FFFFFF;filter:url(#Adobe_OpacityMaskFilter_00000173149508541009492780000008718385991177250457_);" d="
		M381.571,272.935l-6.263-18.369c-1.357-3.978-0.178-8.381,2.984-11.15c6.411-5.613,16.494-2.048,17.952,6.347l33.938,195.425
		H69.884l33.878-195.424c1.456-8.394,11.537-11.96,17.947-6.348c3.162,2.769,4.341,7.172,2.984,11.15l-6.264,18.369
		c-4.053,11.888,3.305,24.622,15.628,27.046l19.046,3.747c4.131,0.812,7.361,4.042,8.174,8.173l3.747,19.041
		c2.424,12.322,15.155,19.679,27.042,15.629l18.375-6.261c3.977-1.355,8.379-0.176,11.147,2.985l12.806,14.627
		c8.263,9.439,22.949,9.439,31.213,0l12.804-14.626c2.769-3.162,7.172-4.341,11.15-2.984l18.37,6.264
		c11.887,4.053,24.622-3.305,27.046-15.628l3.747-19.046c0.812-4.131,4.043-7.362,8.174-8.174l19.045-3.747
		C378.267,297.557,385.625,284.823,381.571,272.935"/>
</mask>
<g style="mask:url(#T-ZTEIM980b_00000149349115305778633580000004358361923753966228_);">
	<g>
		<path style="fill:#F9423A;" d="M198.428,440.999c-0.01,0-0.021,0-0.032,0c-2.343-0.013-4.464-1.388-5.433-3.521l-22.917-50.523
			l-53.427,14.925c-2.255,0.632-4.674-0.11-6.19-1.897c-1.516-1.787-1.853-4.293-0.862-6.416l61.131-131.102
			c0.672-1.442,1.891-2.559,3.386-3.103c1.496-0.545,3.147-0.472,4.588,0.2l83.423,38.908c3.003,1.4,4.302,4.971,2.901,7.974
			l-61.13,131.092C202.88,439.648,200.759,440.999,198.428,440.999z M173.387,373.79c2.305,0,4.471,1.335,5.463,3.522l19.653,43.328
			l53.082-113.832l-72.547-33.836l-53.082,113.839l45.815-12.799C172.309,373.862,172.852,373.79,173.387,373.79z"/>
	</g>
</g>
<g>
	<path style="fill:#F9423A;" d="M250,371.002c-7.709,0-15.043-3.327-20.121-9.128l-12.806-14.627
		c-1.171-1.338-3.017-1.833-4.698-1.258L194,352.251c-7.304,2.489-15.327,1.701-22.008-2.161
		c-6.681-3.861-11.367-10.418-12.856-17.989l-3.747-19.041c-0.344-1.749-1.696-3.101-3.444-3.444l-19.046-3.746
		c-7.574-1.49-14.132-6.178-17.993-12.86s-4.647-14.705-2.156-22.011l6.264-18.368c0.574-1.684,0.08-3.528-1.258-4.699
		l-14.626-12.806c-5.8-5.077-9.127-12.41-9.127-20.119s3.326-15.044,9.126-20.123l14.627-12.805
		c1.338-1.171,1.832-3.015,1.257-4.698l-6.264-18.37c-2.491-7.305-1.705-15.328,2.156-22.01c3.861-6.683,10.419-11.37,17.993-12.86
		l19.046-3.747c1.748-0.344,3.1-1.696,3.444-3.444l3.747-19.045c1.49-7.574,6.178-14.132,12.86-17.993
		c6.682-3.861,14.706-4.646,22.01-2.155l18.368,6.262c1.682,0.575,3.528,0.08,4.699-1.258l12.804-14.628
		c5.077-5.802,12.412-9.13,20.123-9.13s15.045,3.328,20.123,9.13l12.803,14.627c1.172,1.338,3.012,1.833,4.699,1.259l18.368-6.263
		c7.306-2.49,15.328-1.705,22.01,2.156c6.684,3.861,11.371,10.42,12.86,17.993l3.747,19.045c0.345,1.749,1.696,3.101,3.444,3.445
		l19.046,3.747c7.573,1.49,14.132,6.177,17.993,12.861c3.861,6.683,4.647,14.705,2.156,22.009l-6.265,18.37
		c-0.573,1.683-0.08,3.527,1.258,4.698l14.627,12.805l0,0c5.801,5.079,9.127,12.413,9.127,20.123
		c-0.001,7.708-3.327,15.042-9.127,20.119l-14.626,12.805c-1.339,1.172-1.832,3.017-1.259,4.7L387.248,271
		c2.491,7.306,1.705,15.327-2.156,22.01c-3.861,6.684-10.419,11.37-17.992,12.86l-19.047,3.747c-1.748,0.344-3.1,1.696-3.443,3.444
		l-3.748,19.047c-1.489,7.572-6.177,14.13-12.858,17.991s-14.704,4.648-22.011,2.157l-18.37-6.265
		c-1.682-0.57-3.527-0.08-4.698,1.258l-12.806,14.626C265.043,367.675,257.709,371.002,250,371.002z M213.809,333.748
		c4.629,0,9.12,1.97,12.293,5.595l12.806,14.627c2.799,3.198,6.842,5.032,11.092,5.032c4.249,0,8.292-1.834,11.091-5.032
		l12.806-14.626c4.389-5.012,11.296-6.863,17.601-4.711l18.369,6.265c4.029,1.372,8.451,0.938,12.135-1.189
		c3.684-2.129,6.268-5.744,7.089-9.918l3.747-19.046c1.287-6.549,6.352-11.614,12.9-12.903l19.048-3.746
		c4.175-0.822,7.79-3.406,9.918-7.09c2.129-3.685,2.562-8.106,1.189-12.134l-6.265-18.368c-2.15-6.306-0.3-13.215,4.713-17.602
		l14.625-12.804c3.197-2.799,5.031-6.842,5.031-11.091c0-4.25-1.834-8.293-5.031-11.093L374.34,191.11
		c-5.012-4.386-6.862-11.295-4.712-17.601l6.265-18.37c1.373-4.026,0.939-8.449-1.189-12.133c-2.129-3.685-5.744-6.269-9.919-7.09
		l-19.046-3.747c-6.549-1.288-11.613-6.353-12.902-12.903l-3.746-19.044c-0.822-4.175-3.406-7.791-7.09-9.919
		s-8.105-2.561-12.134-1.188l-18.368,6.263c-6.307,2.148-13.216,0.3-17.603-4.714l-12.803-14.627
		c-2.8-3.199-6.843-5.033-11.093-5.033s-8.294,1.834-11.093,5.033l-12.804,14.628c-4.386,5.013-11.296,6.864-17.603,4.713
		l-18.367-6.262c-4.027-1.374-8.45-0.941-12.134,1.188c-3.684,2.128-6.268,5.744-7.089,9.919l-3.747,19.045
		c-1.288,6.55-6.353,11.615-12.902,12.903l-19.046,3.747c-4.175,0.821-7.79,3.405-9.919,7.089s-2.562,8.106-1.189,12.133
		l6.264,18.37c2.151,6.304,0.302,13.213-4.71,17.601l-14.627,12.804c-3.198,2.799-5.032,6.843-5.031,11.093
		c0,4.25,1.834,8.292,5.031,11.091l14.626,12.806c5.012,4.386,6.861,11.295,4.712,17.601l-6.265,18.368
		c-1.373,4.027-0.94,8.45,1.189,12.134c2.128,3.684,5.744,6.268,9.919,7.09l19.045,3.746c6.55,1.288,11.614,6.353,12.903,12.902
		l3.747,19.041c0.821,4.174,3.404,7.788,7.087,9.917c3.684,2.129,8.105,2.562,12.132,1.19l18.375-6.262
		C210.248,334.036,212.039,333.748,213.809,333.748z"/>
</g>
<g>
	<path style="fill:#F9423A;" d="M250.005,320.999c-58.449,0-106-47.552-106-106c0-58.449,47.551-106,106-106
		c58.448,0,106,47.551,106,106C356.005,273.447,308.453,320.999,250.005,320.999z M250.005,120.999c-51.832,0-94,42.168-94,94
		s42.168,94,94,94s94-42.168,94-94S301.837,120.999,250.005,120.999z"/>
</g>
<g>
	<path style="fill:#F9423A;" d="M219.101,265.89c-1.248,0-2.488-0.389-3.535-1.151c-1.845-1.346-2.766-3.62-2.378-5.869
		l5.372-31.109l-22.731-22.041c-1.642-1.592-2.236-3.98-1.531-6.156c0.705-2.176,2.585-3.762,4.849-4.089l31.436-4.548
		l14.048-28.324c1.013-2.042,3.095-3.334,5.375-3.334c2.279,0,4.362,1.292,5.375,3.334l14.048,28.324l31.437,4.548
		c2.264,0.327,4.145,1.914,4.849,4.09c0.705,2.176,0.111,4.563-1.531,6.156l-22.73,22.041l5.371,31.109
		c0.389,2.249-0.533,4.523-2.377,5.869c-1.844,1.344-4.291,1.527-6.315,0.469l-28.125-14.707l-28.125,14.707
		C221.005,265.665,220.051,265.89,219.101,265.89z M212.945,205.602l16.242,15.749c1.423,1.38,2.073,3.375,1.736,5.329
		l-3.845,22.268l20.146-10.534c1.742-0.911,3.818-0.911,5.561,0l20.146,10.534l-3.845-22.268c-0.338-1.954,0.312-3.948,1.735-5.329
		l16.242-15.749l-22.472-3.251c-1.951-0.282-3.64-1.505-4.516-3.272l-10.072-20.307l-10.072,20.307
		c-0.876,1.767-2.564,2.99-4.516,3.272L212.945,205.602z"/>
</g>
</svg>
