<?xml version="1.0" encoding="utf-8"?>
<!-- Generator: Adobe Illustrator 27.5.0, SVG Export Plug-In . SVG Version: 6.00 Build 0)  -->
<svg version="1.1" id="Layer_1" xmlns="http://www.w3.org/2000/svg" xmlns:xlink="http://www.w3.org/1999/xlink" x="0px" y="0px"
	 viewBox="0 0 500 500" style="enable-background:new 0 0 500 500;" xml:space="preserve">
<style type="text/css">
	.st0{fill:#F9423A;}
	.st1{display:none;fill:none;stroke:#F9423A;stroke-width:12.04;stroke-linecap:round;stroke-linejoin:round;}
	.st2{fill:none;stroke:#F9423A;stroke-width:12.04;stroke-linecap:round;stroke-linejoin:round;}
</style>
<g>
	<g>
		<path class="st0" d="M137.7,346.5c-3.3,0-6-2.7-6-6v-43.4c0-3.3,2.7-6,6-6s6,2.7,6,6v43.4C143.7,343.8,141,346.5,137.7,346.5z"/>
	</g>
	<g>
		<path class="st0" d="M137.7,230c-3.3,0-6-2.7-6-6v-52.9c0-28.9,23.5-52.4,52.4-52.4H202c3.3,0,6,2.7,6,6c0,3.3-2.7,6-6,6h-17.9
			c-22.3,0-40.4,18.1-40.4,40.4V224C143.7,227.3,141,230,137.7,230z"/>
	</g>
	<g>
		<path class="st0" d="M361.6,227.6c-3.3,0-6-2.7-6-6v-50.5c0-22.3-18.1-40.4-40.4-40.4h-16.4c-3.3,0-6-2.7-6-6s2.7-6,6-6h16.4
			c28.9,0,52.4,23.5,52.4,52.4v50.5C367.6,224.9,364.9,227.6,361.6,227.6z"/>
	</g>
	<g>
		<path class="st0" d="M361.6,346.7c-3.3,0-6-2.7-6-6v-43.6c0-3.3,2.7-6,6-6s6,2.7,6,6v43.6C367.6,344,364.9,346.7,361.6,346.7z"/>
	</g>
	<g>
		<path class="st0" d="M174.1,416.1h-72.8c-9.9,0-18-8.1-18-18v-45.6c0-9.9,8.1-18,18-18h72.8c9.9,0,18,8.1,18,18v45.6
			C192.1,408,184,416.1,174.1,416.1z M101.3,346.5c-3.3,0-6,2.7-6,6v45.6c0,3.3,2.7,6,6,6h72.8c3.3,0,6-2.7,6-6v-45.6
			c0-3.3-2.7-6-6-6H101.3z"/>
	</g>
	<g>
		<path class="st0" d="M173.8,300.1H101c-9.9,0-18-8.1-18-18v-45.6c0-9.9,8.1-18,18-18h72.8c9.9,0,18,8.1,18,18v45.6
			C191.8,292,183.7,300.1,173.8,300.1z M101,230.5c-3.3,0-6,2.7-6,6v45.6c0,3.3,2.7,6,6,6h72.8c3.3,0,6-2.7,6-6v-45.6
			c0-3.3-2.7-6-6-6H101z"/>
	</g>
	<g>
		<path class="st0" d="M286.8,165.6H214c-9.9,0-18-8.1-18-18V102c0-9.9,8.1-18,18-18h72.8c9.9,0,18,8.1,18,18v45.6
			C304.8,157.5,296.7,165.6,286.8,165.6z M214,96c-3.3,0-6,2.7-6,6v45.6c0,3.3,2.7,6,6,6h72.8c3.3,0,6-2.7,6-6V102c0-3.3-2.7-6-6-6
			H214z"/>
	</g>
	<g>
		<path class="st0" d="M398,299.6h-72.8c-9.9,0-18-8.1-18-18V236c0-9.9,8.1-18,18-18H398c9.9,0,18,8.1,18,18v45.6
			C416,291.5,407.9,299.6,398,299.6z M325.2,230c-3.3,0-6,2.7-6,6v45.6c0,3.3,2.7,6,6,6H398c3.3,0,6-2.7,6-6V236c0-3.3-2.7-6-6-6
			H325.2z"/>
	</g>
	<g>
		<path class="st0" d="M398,416.3h-72.8c-9.9,0-18-8.1-18-18v-45.6c0-9.9,8.1-18,18-18H398c9.9,0,18,8.1,18,18v45.6
			C416,408.2,407.9,416.3,398,416.3z M325.2,346.7c-3.3,0-6,2.7-6,6v45.6c0,3.3,2.7,6,6,6H398c3.3,0,6-2.7,6-6v-45.6
			c0-3.3-2.7-6-6-6H325.2z"/>
	</g>
	<g>
		<g>
			<path class="st1" d="M0,500"/>
		</g>
		<g>
			<path class="st2" d="M0,500"/>
		</g>
		<g>
			<path class="st2" d="M0,500"/>
		</g>
		<g>
			<path class="st2" d="M0,500"/>
		</g>
		<g>
			<path class="st2" d="M0,500"/>
		</g>
		<g>
			<path class="st2" d="M0,500"/>
		</g>
		<g>
			<path class="st2" d="M0,500"/>
		</g>
		<g>
			<path class="st2" d="M0,500"/>
		</g>
		<g>
			<path class="st2" d="M0,500"/>
		</g>
		<g>
			<path class="st2" d="M0,500"/>
		</g>
		<g>
			<path class="st2" d="M0,500"/>
		</g>
		<g>
			<path class="st2" d="M0,500"/>
		</g>
	</g>
</g>
</svg>
