<?xml version="1.0" encoding="iso-8859-1"?>
<!-- Generator: Adobe Illustrator 29.6.1, SVG Export Plug-In . SVG Version: 9.03 Build 0)  -->
<svg version="1.1" id="Layer_1" xmlns="http://www.w3.org/2000/svg" xmlns:xlink="http://www.w3.org/1999/xlink" x="0px" y="0px"
	 viewBox="0 0 500 500" style="enable-background:new 0 0 500 500;" xml:space="preserve">
<g>
	<g>
		<path style="fill:#F9423A;" d="M385,134.323H146.661c-20.767,0-37.661-16.895-37.661-37.662C109,75.895,125.895,59,146.661,59H385
			c3.313,0,6,2.686,6,6v63.323C391,131.637,388.313,134.323,385,134.323z M146.661,71C132.512,71,121,82.512,121,96.661
			c0,14.15,11.512,25.662,25.661,25.662H379V71H146.661z"/>
	</g>
	<g>
		<path style="fill:#F9423A;" d="M385,441H146.661c-10.098,0-19.566-3.907-26.66-11.002c-7.094-7.094-11.001-16.52-11.001-26.544
			V96.662c0-3.314,2.686-6,6-6s6,2.686,6,6v306.792c0,6.817,2.659,13.231,7.487,18.06c4.828,4.827,11.282,7.486,18.174,7.486H379
			V128.208c0-3.314,2.687-6,6-6s6,2.686,6,6V435C391,438.313,388.313,441,385,441z"/>
	</g>
	<g>
		<path style="fill:#F9423A;" d="M294.057,315c-1.72,0-3.426-0.735-4.613-2.159c-2.12-2.547-1.776-6.33,0.77-8.451l30.423-25.344
			l-30.431-25.442c-2.542-2.126-2.88-5.91-0.755-8.452c2.127-2.543,5.909-2.88,8.452-0.754l35.946,30.054
			c1.365,1.142,2.153,2.83,2.151,4.609c-0.002,1.778-0.793,3.466-2.159,4.604l-35.946,29.945
			C296.772,314.544,295.411,315,294.057,315z M205.846,315c-1.357,0-2.721-0.457-3.844-1.396l-35.849-29.945
			c-1.363-1.139-2.152-2.822-2.153-4.599s0.784-3.463,2.145-4.604l35.85-30.055c2.539-2.127,6.324-1.796,8.453,0.743
			s1.796,6.324-0.744,8.453l-30.354,25.448l30.347,25.35c2.543,2.124,2.882,5.908,0.758,8.451
			C209.267,314.268,207.562,315,205.846,315z"/>
	</g>
	<g>
		<path style="fill:#F9423A;" d="M236.013,321.002c-0.705,0-1.421-0.125-2.119-0.389c-3.1-1.171-4.664-4.633-3.494-7.733l27.191-72
			c1.171-3.101,4.632-4.663,7.733-3.494c3.1,1.171,4.664,4.633,3.493,7.733l-27.191,72
			C240.72,319.521,238.438,321.002,236.013,321.002z"/>
	</g>
</g>
</svg>
