<?xml version="1.0" encoding="utf-8"?>
<!-- Generator: Adobe Illustrator 27.5.0, SVG Export Plug-In . SVG Version: 6.00 Build 0)  -->
<svg version="1.1" id="Layer_1" xmlns="http://www.w3.org/2000/svg" xmlns:xlink="http://www.w3.org/1999/xlink" x="0px" y="0px"
	 viewBox="0 0 500 500" style="enable-background:new 0 0 500 500;" xml:space="preserve">
<style type="text/css">
	.st0{fill:#F9423A;}
	.st1{display:none;fill:none;stroke:#F9423A;stroke-width:12.04;stroke-linecap:round;stroke-linejoin:round;}
	.st2{fill:none;stroke:#F9423A;stroke-width:12.04;stroke-linecap:round;stroke-linejoin:round;}
</style>
<g>
	<g>
		<path class="st0" d="M259.8,240h-42.3c-3.3,0-6-2.7-6-6s2.7-6,6-6h42.3c14.1,0,25.5-11.4,25.5-25.5v-38.6c0-3.3,2.7-6,6-6
			s6,2.7,6,6v38.6C297.3,223.2,280.5,240,259.8,240z"/>
	</g>
	<g>
		<path class="st0" d="M152.9,327.6c-3.3,0-6-2.7-6-6V271c0-3.3,2.7-6,6-6s6,2.7,6,6v50.6C158.9,324.9,156.2,327.6,152.9,327.6z"/>
	</g>
	<g>
		<path class="st0" d="M298.1,364.4h-79.7c-3.3,0-6-2.7-6-6s2.7-6,6-6h79.7c3.3,0,6,2.7,6,6S301.4,364.4,298.1,364.4z"/>
	</g>
	<g>
		<path class="st0" d="M325.3,130.6h-45.8c-3.3,0-6-2.7-6-6s2.7-6,6-6h45.8c3.3,0,6,2.7,6,6S328.6,130.6,325.3,130.6z"/>
	</g>
	<g>
		<path class="st0" d="M254.6,130.6c-1.6,0-3.1-0.6-4.2-1.8c-0.3-0.3-0.5-0.6-0.8-0.9c-0.2-0.3-0.4-0.7-0.5-1
			c-0.2-0.4-0.3-0.7-0.3-1.1c-0.1-0.4-0.1-0.8-0.1-1.2c0-0.4,0-0.8,0.1-1.2c0.1-0.4,0.2-0.8,0.3-1.1c0.1-0.4,0.3-0.7,0.5-1
			s0.5-0.6,0.8-0.9c1.4-1.4,3.5-2,5.4-1.6c0.4,0.1,0.8,0.2,1.1,0.3c0.4,0.1,0.7,0.3,1,0.5s0.6,0.5,0.9,0.8s0.5,0.6,0.8,0.9
			c0.2,0.3,0.4,0.7,0.5,1c0.2,0.4,0.3,0.7,0.3,1.1c0.1,0.4,0.1,0.8,0.1,1.2c0,1.6-0.6,3.1-1.8,4.2c-0.3,0.3-0.6,0.5-0.9,0.8
			c-0.3,0.2-0.7,0.4-1,0.5c-0.4,0.2-0.7,0.3-1.1,0.3C255.4,130.6,255,130.6,254.6,130.6z"/>
	</g>
	<g>
		<path class="st0" d="M238.8,165.7c-9.9,0-18-8.1-18-18v-45.6c0-9.9,8.1-18,18-18L341.6,84c9.9,0,18,8.1,18,18v45.6
			c0,9.9-8.1,18-18,18L238.8,165.7z M341.6,96l-102.8,0.1c-3.3,0-6,2.7-6,6v45.6c0,3.3,2.7,6,6,6l102.8-0.1l0,0c3.3,0,6-2.7,6-6V102
			C347.6,98.7,344.9,96,341.6,96z"/>
	</g>
	<g>
		<path class="st0" d="M187.3,239.1h-45.8c-3.3,0-6-2.7-6-6s2.7-6,6-6h45.8c3.3,0,6,2.7,6,6S190.6,239.1,187.3,239.1z"/>
	</g>
	<g>
		<path class="st0" d="M116.6,239.1c-0.4,0-0.8,0-1.2-0.1c-0.4-0.1-0.8-0.2-1.1-0.3c-0.4-0.1-0.7-0.3-1-0.5s-0.6-0.5-0.9-0.8
			s-0.5-0.6-0.8-0.9c-0.2-0.3-0.4-0.7-0.5-1c-0.2-0.4-0.3-0.7-0.3-1.1c-0.1-0.4-0.1-0.8-0.1-1.2s0-0.8,0.1-1.2s0.2-0.8,0.3-1.1
			c0.1-0.4,0.3-0.7,0.5-1s0.5-0.6,0.8-0.9c0.3-0.3,0.6-0.5,0.9-0.8c0.3-0.2,0.7-0.4,1-0.5c0.4-0.2,0.7-0.3,1.1-0.3
			c2-0.4,4,0.2,5.4,1.6c0.3,0.3,0.5,0.6,0.8,0.9c0.2,0.3,0.4,0.7,0.5,1c0.2,0.4,0.3,0.7,0.3,1.1c0.1,0.4,0.1,0.8,0.1,1.2
			s0,0.8-0.1,1.2s-0.2,0.8-0.3,1.1c-0.1,0.4-0.3,0.7-0.5,1s-0.5,0.6-0.8,0.9c-0.3,0.3-0.6,0.5-0.9,0.8c-0.3,0.2-0.7,0.4-1,0.5
			c-0.4,0.2-0.7,0.3-1.1,0.3C117.4,239.1,117,239.1,116.6,239.1z"/>
	</g>
	<g>
		<path class="st0" d="M100.8,274.2c-9.9,0-18-8.1-18-18v-45.6c0-9.9,8.1-18,18-18l102.8-0.1c9.9,0,18,8.1,18,18v45.6
			c0,9.9-8.1,18-18,18L100.8,274.2z M203.6,204.5l-102.8,0.1c-3.3,0-6,2.7-6,6v45.6c0,3.3,2.7,6,6,6l102.8-0.1l0,0c3.3,0,6-2.7,6-6
			v-45.6C209.6,207.2,206.9,204.5,203.6,204.5z"/>
	</g>
	<g>
		<path class="st0" d="M186.3,364.6h-45.8c-3.3,0-6-2.7-6-6s2.7-6,6-6h45.8c3.3,0,6,2.7,6,6S189.6,364.6,186.3,364.6z"/>
	</g>
	<g>
		<path class="st0" d="M115.6,364.6c-0.4,0-0.8,0-1.2-0.1c-0.4-0.1-0.8-0.2-1.1-0.3c-0.4-0.1-0.7-0.3-1-0.5s-0.6-0.5-0.9-0.8
			c-1.1-1.1-1.8-2.7-1.8-4.2s0.6-3.1,1.8-4.2c0.3-0.3,0.6-0.5,0.9-0.8c0.3-0.2,0.7-0.4,1-0.5c0.4-0.1,0.7-0.3,1.1-0.3
			c0.8-0.2,1.6-0.2,2.3,0c0.4,0.1,0.8,0.2,1.1,0.3c0.4,0.2,0.7,0.3,1,0.5s0.6,0.5,0.9,0.8c1.1,1.1,1.8,2.7,1.8,4.2
			c0,0.4,0,0.8-0.1,1.2c-0.1,0.4-0.2,0.8-0.3,1.1c-0.1,0.4-0.3,0.7-0.5,1s-0.5,0.6-0.8,0.9s-0.6,0.5-0.9,0.8c-0.3,0.2-0.7,0.4-1,0.5
			c-0.4,0.2-0.7,0.3-1.1,0.3C116.4,364.6,116,364.6,115.6,364.6z"/>
	</g>
	<g>
		<path class="st0" d="M99.8,399.7c-9.9,0-18-8.1-18-18v-45.6c0-9.9,8.1-18,18-18l102.8-0.1c9.9,0,18,8.1,18,18v45.6
			c0,9.9-8.1,18-18,18L99.8,399.7z M202.6,330l-102.8,0.1c-3.3,0-6,2.7-6,6v45.6c0,3.3,2.7,6,6,6l102.8-0.1l0,0c3.3,0,6-2.7,6-6V336
			C208.6,332.7,205.9,330,202.6,330z"/>
	</g>
	<g>
		<g>
			<path class="st0" d="M354.2,416.5c-32,0-58.1-26.1-58.1-58.1s26.1-58.1,58.1-58.1s58.1,26.1,58.1,58.1
				C412.3,390.4,386.2,416.5,354.2,416.5z M354.2,312.3c-25.4,0-46.1,20.7-46.1,46.1s20.7,46.1,46.1,46.1s46.1-20.7,46.1-46.1
				C400.3,333,379.6,312.3,354.2,312.3z"/>
		</g>
		<g>
			<path class="st0" d="M353.1,377.2L353.1,377.2c-1.6,0-3.1-0.6-4.2-1.8L330,356.5c-2.3-2.3-2.3-6.1,0-8.5c2.3-2.3,6.1-2.3,8.5,0
				l14.7,14.7l52.4-52.4c2.3-2.3,6.1-2.3,8.5,0c2.3,2.3,2.3,6.1,0,8.5l-56.6,56.6C356.2,376.6,354.7,377.2,353.1,377.2z"/>
		</g>
	</g>
	<g>
		<g>
			<g>
				<path class="st1" d="M0,500"/>
			</g>
		</g>
		<g>
			<g>
				<path class="st2" d="M0,500"/>
			</g>
		</g>
		<g>
			<g>
				<path class="st2" d="M0,500"/>
			</g>
		</g>
		<g>
			<g>
				<path class="st2" d="M0,500"/>
			</g>
		</g>
		<g>
			<g>
				<path class="st2" d="M0,500"/>
			</g>
		</g>
		<g>
			<g>
				<path class="st2" d="M0,500"/>
			</g>
		</g>
		<g>
			<g>
				<path class="st2" d="M0,500"/>
			</g>
		</g>
		<g>
			<g>
				<path class="st2" d="M0,500"/>
			</g>
		</g>
		<g>
			<g>
				<path class="st2" d="M0,500"/>
			</g>
		</g>
		<g>
			<g>
				<path class="st2" d="M0,500"/>
			</g>
		</g>
		<g>
			<g>
				<path class="st2" d="M0,500"/>
			</g>
		</g>
		<g>
			<g>
				<path class="st2" d="M0,500"/>
			</g>
		</g>
	</g>
</g>
</svg>
