<?xml version="1.0" encoding="utf-8"?>
<!-- Generator: Adobe Illustrator 27.5.0, SVG Export Plug-In . SVG Version: 6.00 Build 0)  -->
<svg version="1.1" id="Layer_1" xmlns="http://www.w3.org/2000/svg" xmlns:xlink="http://www.w3.org/1999/xlink" x="0px" y="0px"
	 viewBox="0 0 500 500" style="enable-background:new 0 0 500 500;" xml:space="preserve">
<style type="text/css">
	.st0{display:none;}
	.st1{display:inline;fill:#F9423A;}
	.st2{fill:#F9423A;}
	.st3{fill:none;}
	.st4{display:none;fill:none;}
</style>
<g transform="translate(115 65)">
	<g class="st0">
		<path class="st1" d="M35.6,221.7v0.3c0,0,0-0.1,0-0.2C35.6,221.8,35.6,221.8,35.6,221.7z M234.4,221.8c0,0.1,0,0.1,0,0.2v-0.3
			C234.4,221.8,234.4,221.8,234.4,221.8z M228.4,337.7H41.6c-2.9,0-5.3-2.1-5.9-4.8c0.5,2.8,3,4.9,5.9,4.9L228.4,337.7
			c2.9,0.1,5.4-2,5.9-4.8C233.7,335.6,231.3,337.7,228.4,337.7z M101,301L101,301l121.4,0.1V301H101z M101,263.5v0.9h121.4v-0.9H101
			z M101,252.4v0.3h121.4v-0.3H101z M47.6,301L47.6,301l41.4,0.1V301H47.6z M47.6,263.5v0.9H89v-0.9H47.6z M47.6,252.4v0.3H89v-0.3
			H47.6z"/>
	</g>
	<g>
		<path class="st2" d="M101,227.7v0.3h121.4v-0.3H101z M47.6,228H89v-0.3H47.6V228z M101,263.5v1.2h121.4v-1.2H101z M47.6,263.5v1.2
			H89v-1.2H47.6z"/>
	</g>
	<g>
		<path class="st2" d="M101,325.7L101,325.7l121.4,0.1v-0.1H101z M101,288.2v0.9h121.4v-0.9H101z M101,251.5v1.2h121.4v-1.2H101z
			 M47.6,325.7L47.6,325.7l41.4,0.1v-0.1H47.6z M47.6,288.2v0.9H89v-0.9H47.6z M47.6,251.5v1.2H89v-1.2H47.6z M228.4,139H135
			c-3.3,0-6,2.7-6,6s2.7,6,6,6h93.4c3.3,0,6-2.7,6-6S231.7,139,228.4,139z M95,139H41.6c-3.3,0-6,2.7-6,6s2.7,6,6,6H95
			c3.3,0,6-2.7,6-6S98.3,139,95,139z"/>
		<path class="st2" d="M234.4,185c0-3.3-2.7-6-6-6H41.6c-3.3,0-6,2.7-6,6v36.7c0,0,0,0.1,0,0.1c0,0.1,0,0.1,0,0.2v109.7
			c0,0.2,0,0.4,0,0.6c0,0.2,0,0.4,0.1,0.6c0.6,2.7,3,4.8,5.9,4.8h186.8c2.9,0,5.3-2.1,5.9-4.8c0-0.2,0.1-0.4,0.1-0.6
			c0-0.2,0-0.4,0-0.6V222c0,0,0-0.1,0-0.2c0,0,0-0.1,0-0.1V185z M47.6,191H89v24.7H47.6V191z M89,325.8H47.6V301H89V325.8z
			 M89,289.1H47.6v-25.6H89V289.1z M89,252.7H47.6v-25H89V252.7z M222.4,325.8H101V301h121.4V325.8z M222.4,289.1H101v-25.6h121.4
			V289.1z M222.4,252.7H101v-25h121.4V252.7z M222.4,215.7H101V191h121.4V215.7z"/>
	</g>
</g>
<g>
	<path class="st2" d="M383.4,176L383.4,176H276.7c-3.3,0-6-2.7-6-6V63.2c0,0,0,0,0-0.1c0-0.8,0.2-1.6,0.5-2.3s0.7-1.3,1.2-1.9l0,0
		l0,0l0.1-0.1c0.5-0.5,1.2-0.9,1.8-1.2c0.7-0.3,1.5-0.5,2.3-0.5l0,0l0,0l0,0l0,0h0.1l0,0l0,0l0,0l0,0c0.8,0,1.5,0.2,2.2,0.4
		c0.7,0.3,1.4,0.7,2,1.3l0,0l0,0l0,0l0,0l0,0l0,0l0,0l106.7,106.8l0,0l0,0l0,0l0,0l0,0l0,0l0,0l0,0l0,0l0,0c0.6,0.6,1,1.2,1.3,1.9
		s0.4,1.4,0.5,2.2l0,0l0,0v0.1l0,0l0,0c0,0.8-0.2,1.5-0.5,2.2s-0.7,1.4-1.3,2c-0.6,0.6-1.2,1-1.9,1.3C385,175.8,384.3,176,383.4,176
		C383.5,176,383.5,176,383.4,176C383.5,176,383.5,176,383.4,176L383.4,176L383.4,176L383.4,176z M282.7,164h86.2l-86.2-86.3V164z"/>
</g>
<g>
	<path class="st2" d="M383.5,442.3H116.6c-3.3,0-6-2.7-6-6V63.2c0-3.3,2.7-6,6-6h160.1c3.3,0,6,2.7,6,6s-2.7,6-6,6H122.6v361.1
		h254.9V169.9c0-3.3,2.7-6,6-6s6,2.7,6,6v266.4C389.5,439.6,386.8,442.3,383.5,442.3z"/>
</g>
<path class="st3" d="M0,500"/>
<path class="st3" d="M0,500"/>
<path class="st3" d="M0,500"/>
<g>
	<path class="st4" d="M0,500"/>
	<path class="st3" d="M0,500"/>
</g>
<g>
	<g>
		<path class="st4" d="M0,500"/>
	</g>
	<g>
		<path class="st3" d="M0,500"/>
	</g>
</g>
<g>
	<path class="st3" d="M0,500"/>
</g>
</svg>
