<?xml version="1.0" encoding="utf-8"?>
<!-- Generator: Adobe Illustrator 27.5.0, SVG Export Plug-In . SVG Version: 6.00 Build 0)  -->
<svg version="1.1" id="Layer_1" xmlns="http://www.w3.org/2000/svg" xmlns:xlink="http://www.w3.org/1999/xlink" x="0px" y="0px"
	 viewBox="0 0 500 500" style="enable-background:new 0 0 500 500;" xml:space="preserve">
<style type="text/css">
	.st0{fill:#F9423A;}
	.st1{fill:none;stroke:#F9423A;stroke-width:12;stroke-linecap:round;stroke-linejoin:round;stroke-dasharray:0,0;}
	.st2{fill:none;stroke:#F9423A;stroke-width:12;stroke-linecap:round;stroke-linejoin:round;}
	.st3{fill:none;stroke:#F84239;stroke-width:12;stroke-linecap:round;stroke-linejoin:round;stroke-dasharray:0,0;}
</style>
<g>
	<g transform="translate(56.5 243.5)">
		<g>
			<path class="st0" d="M166.7,172.7H33.3c-3.3,0-6-2.7-6-6V33.3c0-3.3,2.7-6,6-6h133.4c3.3,0,6,2.7,6,6v133.4
				C172.7,170,170,172.7,166.7,172.7z M39.3,160.7h121.4V39.3H39.3V160.7z"/>
		</g>
		<g>
			<path class="st1" d="M100,100.1"/>
		</g>
		<g>
			<path class="st0" d="M140,146H60c-3.3,0-6-2.7-6-6V60c0-3.3,2.7-6,6-6h80c3.3,0,6,2.7,6,6v80C146,143.3,143.3,146,140,146z
				 M66,134h68V66H66V134z"/>
		</g>
		<g>
			<path class="st2" d="M0,200"/>
		</g>
		<g>
			<path class="st2" d="M0,200"/>
		</g>
		<g>
			<path class="st1" d="M100,100.1"/>
		</g>
		<g>
			<path class="st1" d="M0,200"/>
		</g>
		<g>
			<path class="st1" d="M0,200"/>
		</g>
		<g>
			<path class="st1" d="M0,200"/>
		</g>
		<g>
			<path class="st1" d="M0,200"/>
		</g>
	</g>
	<g transform="rotate(-90 156.75 100.25)">
		<g>
			<path class="st0" d="M27.3,166.7V33.3c0-3.3,2.7-6,6-6h133.4c3.3,0,6,2.7,6,6v133.4c0,3.3-2.7,6-6,6H33.3
				C30,172.7,27.3,170,27.3,166.7z M39.3,39.3v121.4h121.4V39.3H39.3z"/>
		</g>
		<g>
			<path class="st1" d="M100,100.1"/>
		</g>
		<g>
			<path class="st0" d="M54,140V60c0-3.3,2.7-6,6-6h80c3.3,0,6,2.7,6,6v80c0,3.3-2.7,6-6,6H60C56.7,146,54,143.3,54,140z M66,66v68
				h68V66H66z"/>
		</g>
		<g>
			<path class="st2" d="M0,200"/>
		</g>
		<g>
			<path class="st2" d="M0,200"/>
		</g>
		<g>
			<path class="st1" d="M100,100.1"/>
		</g>
		<g>
			<path class="st1" d="M0,200"/>
		</g>
		<g>
			<path class="st1" d="M0,200"/>
		</g>
		<g>
			<path class="st1" d="M0,200"/>
		</g>
		<g>
			<path class="st1" d="M0,200"/>
		</g>
	</g>
	<g transform="rotate(180 221.5 128.5)">
		<g>
			<path class="st0" d="M33.3,27.3h133.4c3.3,0,6,2.7,6,6v133.4c0,3.3-2.7,6-6,6H33.3c-3.3,0-6-2.7-6-6V33.3
				C27.3,30,30,27.3,33.3,27.3z M160.7,39.3H39.3v121.4h121.4V39.3z"/>
		</g>
		<g>
			<path class="st1" d="M100,100.1"/>
		</g>
		<g>
			<path class="st0" d="M60,54h80c3.3,0,6,2.7,6,6v80c0,3.3-2.7,6-6,6H60c-3.3,0-6-2.7-6-6V60C54,56.7,56.7,54,60,54z M134,66H66v68
				h68V66z"/>
		</g>
		<g>
			<path class="st2" d="M0,200"/>
		</g>
		<g>
			<path class="st2" d="M0,200"/>
		</g>
		<g>
			<path class="st1" d="M100,100.1"/>
		</g>
		<g>
			<path class="st1" d="M0,200"/>
		</g>
		<g>
			<path class="st1" d="M0,200"/>
		</g>
		<g>
			<path class="st1" d="M0,200"/>
		</g>
		<g>
			<path class="st1" d="M0,200"/>
		</g>
	</g>
	<g>
		<g>
			<path class="st0" d="M303.4,415.9c-3.3,0-6-2.7-6-6v-53.2c0-3.3,2.7-6,6-6s6,2.7,6,6v53.2C309.4,413.2,306.7,415.9,303.4,415.9z
				 M383.4,362.5L383.4,362.5c-3.3,0-6-2.7-6-6l0.1-47.7h-68.1v21.7c0,3.3-2.7,6-6,6s-6-2.7-6-6v-27.7c0-3.3,2.7-6,6-6h80.1
				c1.6,0,3.1,0.6,4.2,1.8c1.1,1.1,1.8,2.7,1.8,4.2l-0.1,53.7C389.4,359.8,386.7,362.5,383.4,362.5z"/>
		</g>
		<g>
			<path class="st0" d="M410,415.9h-80c-3.3,0-6-2.7-6-6V330c0-3.3,2.7-6,6-6h27.1c3.3,0,6,2.7,6,6v47h19.7c3.3,0,6,2.7,6,6
				s-2.7,6-6,6h-25.7c-3.3,0-6-2.7-6-6v-47H336v67.9h68l0.1-100.3c0-3.3,2.7-6,6-6l0,0c3.3,0,6,2.7,6,6L416,409.9
				C416,413.2,413.3,415.9,410,415.9z"/>
		</g>
		<g>
			<path class="st0" d="M276.7,415.9c-3.3,0-6-2.7-6-6V276.7c0-3.3,2.7-6,6-6h132.8c3.3,0,6,2.7,6,6s-2.7,6-6,6H282.7v127.2
				C282.7,413.2,280,415.9,276.7,415.9z"/>
		</g>
		<g>
			<path class="st1" d="M0,500"/>
		</g>
		<g>
			<path class="st1" d="M0,500"/>
		</g>
		<g>
			<path class="st1" d="M0,500"/>
		</g>
		<g>
			<path class="st1" d="M0,500"/>
		</g>
	</g>
</g>
<g>
	<path class="st3" d="M0,500"/>
</g>
</svg>
