<?xml version="1.0" encoding="iso-8859-1"?>
<!-- Generator: Adobe Illustrator 29.6.1, SVG Export Plug-In . SVG Version: 9.03 Build 0)  -->
<svg version="1.1" id="Layer_1" xmlns="http://www.w3.org/2000/svg" xmlns:xlink="http://www.w3.org/1999/xlink" x="0px" y="0px"
	 viewBox="0 0 500 500" style="enable-background:new 0 0 500 500;" xml:space="preserve">
<g>
	<path style="fill:#F9423A;" d="M165.811,243.5c-3.166,0-5.813-2.478-5.986-5.677c-0.124-2.296,0.784-8.771,11.861-19.281
		c2.173-2,4.446-6.247,4.446-9.727c0-5.688-4.628-10.316-10.316-10.316c-5.785,0-10.316,4.531-10.316,10.316c0,3.313-2.687,6-6,6
		s-6-2.687-6-6c0-12.305,10.011-22.316,22.316-22.316s22.316,10.011,22.316,22.316c0,7.529-4.145,14.714-8.253,18.494
		c-6.739,6.395-7.918,9.949-8.072,10.521c-0.163,3.02-2.58,5.494-5.668,5.661C166.029,243.497,165.919,243.5,165.811,243.5z
		 M171.808,237.187c0,0.002,0,0.004,0,0.007C171.808,237.192,171.808,237.189,171.808,237.187z M171.807,237.177
		c0,0.003,0,0.006,0,0.009C171.808,237.183,171.807,237.18,171.807,237.177z"/>
</g>
<g>
	<path style="fill:#F9423A;" d="M165,267.5c-4.142,0-7.505-3.357-7.505-7.5c0-4.142,3.353-7.5,7.495-7.5H165
		c4.142,0,7.5,3.358,7.5,7.5C172.5,264.143,169.142,267.5,165,267.5z"/>
</g>
<defs>
	<filter id="Adobe_OpacityMaskFilter" filterUnits="userSpaceOnUse" x="71.5" y="146.5" width="212" height="222">
		<feColorMatrix  type="matrix" values="1 0 0 0 0  0 1 0 0 0  0 0 1 0 0  0 0 0 1 0"/>
	</filter>
</defs>
<mask maskUnits="userSpaceOnUse" x="71.5" y="146.5" width="212" height="222" id="OMNauD5MRma_00000020380353226548399750000017711471074174345632_">
	<path style="fill:#FFFFFF;filter:url(#Adobe_OpacityMaskFilter);" d="M258,141.504l-0.5-0.004h-160c-17.12,0-31,13.879-31,31v115
		c0,17.121,13.88,31,31,31h32.134l46.727,51.399c4.087,4.495,11.044,4.826,15.539,0.739c2.293-2.085,3.6-5.039,3.6-8.138v-44h32.024
		L205,247.5l33-12l20,20V141.504z"/>
</mask>
<g style="mask:url(#OMNauD5MRma_00000020380353226548399750000017711471074174345632_);">
	<g>
		<path style="fill:#F9423A;" d="M184.501,368.5c-1.659,0-3.281-0.688-4.441-1.964L131.846,313.5H97.5c-14.336,0-26-11.663-26-26
			v-115c0-14.336,11.664-26,26-26h160c14.337,0,26,11.664,26,26v115c0,14.337-11.663,26-26,26h-67v49
			c0,2.479-1.524,4.702-3.836,5.597C185.96,368.368,185.227,368.5,184.501,368.5z M97.5,158.5c-7.72,0-14,6.28-14,14v115
			c0,7.72,6.28,14,14,14h37c1.69,0,3.303,0.713,4.439,1.964L178.5,346.98V307.5c0-3.313,2.687-6,6-6h73c7.72,0,14-6.28,14-14v-115
			c0-7.72-6.28-14-14-14H97.5z"/>
	</g>
</g>
<g>
	<path style="fill:#F9423A;" d="M408.498,377.5h-12v-20c0-0.764,0.146-1.52,0.429-2.229l10.345-25.861
		c6.122-15.304,9.227-31.423,9.227-47.909V227.5h12v54.001c0,18.02-3.393,35.639-10.084,52.366l-9.916,24.788L408.498,377.5
		L408.498,377.5z M283.498,377.5h-12v-17.202l-20.307-17.028c-16.763-14.058-28.616-32.657-34.277-53.787l-16.976-63.355
		c-1.279-4.773-0.623-9.759,1.848-14.039c2.471-4.28,6.461-7.341,11.235-8.619c11.222-3.009,22.944-1.464,33.007,4.345
		c7.976,4.605,14.152,11.454,17.868,19.686h4.602v15.738c0,3.011-2.231,5.556-5.217,5.949c-2.987,0.392-5.8-1.488-6.579-4.396
		l-1.998-7.457c-2.178-8.127-7.39-14.92-14.676-19.127s-15.776-5.325-23.902-3.146c-1.678,0.449-3.08,1.525-3.948,3.028
		c-0.868,1.504-1.099,3.255-0.649,4.933l16.976,63.356c5.021,18.738,15.532,35.231,30.397,47.697l22.451,18.827
		c1.359,1.141,2.145,2.823,2.145,4.598L283.498,377.5L283.498,377.5z"/>
</g>
<g>
	<path style="fill:#F9423A;" d="M272.073,284.988c-2.649,0-5.073-1.769-5.792-4.449l-14.188-52.951
		c-0.858-3.201,1.042-6.491,4.242-7.349c0.055-0.015,0.109-0.029,0.164-0.042V117.5c0-14.336,11.663-26,26-26
		c5.491,0,10.589,1.71,14.79,4.627C300.14,84.861,310.361,76.5,322.5,76.5s22.36,8.361,25.21,19.627
		c4.201-2.917,9.299-4.627,14.79-4.627c14.337,0,26,11.664,26,26v8.1c4.044-2.594,8.85-4.1,14-4.1c14.337,0,26,11.664,26,26v80
		c0,3.313-2.687,6-6,6s-6-2.687-6-6v-80c0-7.72-6.28-14-14-14s-14,6.28-14,14v80c0,3.313-2.687,6-6,6s-6-2.687-6-6v-110
		c0-7.72-6.28-14-14-14s-14,6.28-14,14v110c0,3.313-2.687,6-6,6s-6-2.687-6-6v-125c0-7.72-6.28-14-14-14s-14,6.28-14,14v125
		c0,3.313-2.687,6-6,6s-6-2.687-6-6v-110c0-7.72-6.28-14-14-14s-14,6.28-14,14v110c0,2.082-1.06,3.915-2.669,4.991l12.042,44.942
		c0.857,3.201-1.042,6.491-4.243,7.349C273.11,284.921,272.587,284.988,272.073,284.988z"/>
</g>
<g>
	<path style="fill:#F9423A;" d="M407.5,423.5h-135c-3.313,0-6-2.687-6-6v-40c0-3.313,2.687-6,6-6h135c3.313,0,6,2.687,6,6v40
		C413.5,420.813,410.813,423.5,407.5,423.5z M278.5,411.5h123v-28h-123V411.5z"/>
</g>
</svg>
