<?xml version="1.0" encoding="utf-8"?>
<!-- Generator: Adobe Illustrator 27.5.0, SVG Export Plug-In . SVG Version: 6.00 Build 0)  -->
<svg version="1.1" id="Layer_1" xmlns="http://www.w3.org/2000/svg" xmlns:xlink="http://www.w3.org/1999/xlink" x="0px" y="0px"
	 viewBox="0 0 500 500" style="enable-background:new 0 0 500 500;" xml:space="preserve">
<style type="text/css">
	.st0{clip-path:url(#SVGID_00000166653795381296167990000001783360070807366046_);}
	.st1{fill:#F9423A;}
	.st2{display:none;fill:#F9423A;}
</style>
<g>
	<g>
		<g>
			<defs>
				<rect id="SVGID_1_" width="500" height="500"/>
			</defs>
			<clipPath id="SVGID_00000016775411287896710310000010817067412129291659_">
				<use xlink:href="#SVGID_1_"  style="overflow:visible;"/>
			</clipPath>
			<g style="clip-path:url(#SVGID_00000016775411287896710310000010817067412129291659_);">
				<g>
					<path class="st1" d="M415,421H250c-94.3,0-171-76.7-171-171S155.7,79,250,79s171,76.7,171,171v165C421,418.3,418.3,421,415,421
						z M250,91c-87.7,0-159,71.3-159,159s71.3,159,159,159h159V250C409,162.3,337.7,91,250,91z"/>
				</g>
				<g>
					<g>
						<path class="st1" d="M244.8,292.6c-3,0-5.6-2.2-6-5.3c-0.4-3.7-2-23,11-36.7c3.2-3.4,7.2-6.5,11.3-9.8
							c11.6-9.2,23.6-18.8,23.6-35.3c0-19-15.8-31.8-30.6-31.8c-17.8,0-25.4,10.9-25.7,11.3c-1.8,2.8-5.5,3.5-8.3,1.7
							s-3.5-5.6-1.7-8.3c0.4-0.7,11.3-16.7,35.7-16.7c20.5,0,42.6,16.7,42.6,43.8c0,22.4-15.6,34.8-28.1,44.7
							c-3.8,3.1-7.5,5.9-10.1,8.7c-9.5,9.9-8,25.2-7.8,26.9c0.4,3.3-2,6.3-5.2,6.7C245.3,292.6,245,292.6,244.8,292.6z"/>
					</g>
					<g>
						<path class="st1" d="M257.1,329c0,6.3-5.1,11.5-11.5,11.5s-11.5-5.1-11.5-11.5s5.1-11.5,11.5-11.5S257.1,322.7,257.1,329z"/>
					</g>
				</g>
				<g>
					<g>
						<path class="st2" d="M0,500"/>
					</g>
					<g>
						<path class="st1" d="M0,500"/>
					</g>
					<g>
						<path class="st1" d="M0,500"/>
					</g>
					<g>
						<path class="st1" d="M0,500"/>
					</g>
					<g>
						<path class="st1" d="M0,500"/>
					</g>
					<g>
						<path class="st1" d="M0,500"/>
					</g>
					<g>
						<path class="st1" d="M0,500"/>
					</g>
					<g>
						<path class="st1" d="M0,500"/>
					</g>
					<g>
						<path class="st1" d="M0,500"/>
					</g>
					<g>
						<path class="st1" d="M0,500"/>
					</g>
					<g>
						<path class="st1" d="M0,500"/>
					</g>
					<g>
						<path class="st1" d="M0,500"/>
					</g>
				</g>
			</g>
		</g>
	</g>
</g>
</svg>
