<?xml version="1.0" encoding="iso-8859-1"?>
<!-- Generator: Adobe Illustrator 29.6.1, SVG Export Plug-In . SVG Version: 9.03 Build 0)  -->
<svg version="1.1" id="Layer_1" xmlns="http://www.w3.org/2000/svg" xmlns:xlink="http://www.w3.org/1999/xlink" x="0px" y="0px"
	 viewBox="0 0 500 500" style="enable-background:new 0 0 500 500;" xml:space="preserve">
<g>
	<path style="fill:#F9423A;" d="M312.559,430.2c-1.935,0-3.797-0.938-4.938-2.59l-46.899-67.9c-1.419-2.054-1.418-4.771,0.002-6.823
		l46.899-67.8c1.492-2.158,4.214-3.096,6.723-2.314c2.506,0.782,4.212,3.103,4.212,5.728v30c0,3.313-2.687,6-6,6s-6-2.687-6-6
		v-10.779l-33.605,48.582l33.605,48.653V394.2c0-3.313,2.687-6,6-6s6,2.687,6,6v30c0,2.626-1.707,4.946-4.214,5.729
		C313.754,430.112,313.152,430.2,312.559,430.2z"/>
</g>
<g>
	<path style="fill:#F9423A;" d="M354.958,400.2h-42.4c-3.313,0-6-2.687-6-6s2.687-6,6-6h42.4c12.326,0,23.775-6.689,29.88-17.459
		l25.95-46.041h-98.23c-3.313,0-6-2.687-6-6s2.687-6,6-6h108.5c2.133,0,4.104,1.132,5.181,2.974
		c1.076,1.841,1.094,4.114,0.046,5.973l-31,55C387.046,391.18,371.597,400.2,354.958,400.2z M354.458,300.201
		c-2.105,0-4.105-1.112-5.196-3.002l-32.9-57c-0.796-1.378-1.011-3.016-0.599-4.553s1.418-2.848,2.796-3.643l65.5-37.8
		c2.869-1.656,6.536-0.674,8.194,2.195l36,62.3c4.91,8.607,4.903,18.805-0.001,27.308c-4.874,8.452-13.644,13.534-23.458,13.594
		l-49.183,0.489C355.227,300.164,354.84,300.201,354.458,300.201z M329.754,239.397l28.091,48.668l46.854-0.466
		c5.527-0.033,10.438-2.87,13.159-7.589c2.751-4.77,2.746-10.503-0.012-15.338l-32.982-57.079L329.754,239.397z"/>
</g>
<g>
	<path style="fill:#F9423A;" d="M192.057,292.8c-1.028,0-2.062-0.264-2.997-0.803l-26-15c-2.87-1.656-3.854-5.325-2.199-8.195
		c1.657-2.87,5.326-3.854,8.196-2.199l9.347,5.393l-25.292-53.378L94.18,223.42l9.483,5.486c2.868,1.659,3.848,5.33,2.188,8.198
		c-1.659,2.869-5.331,3.847-8.198,2.188l-26.1-15.1c-2.271-1.314-3.425-3.952-2.849-6.512c0.577-2.56,2.75-4.448,5.366-4.661
		l82.2-6.7c2.483-0.209,4.841,1.155,5.909,3.411l35.301,74.5c1.124,2.372,0.575,5.2-1.354,6.979
		C194.99,292.259,193.529,292.8,192.057,292.8z"/>
</g>
<g>
	<path style="fill:#F9423A;" d="M232.558,400.4h-72.1c-9.837,0-18.67-5.083-23.629-13.598c-4.93-8.466-5.001-18.583-0.189-27.063
		l24.794-43.891c1.064-1.884,3.061-3.049,5.224-3.049h65.9c3.313,0,6,2.687,6,6V394.4C238.558,397.714,235.872,400.4,232.558,400.4z
		 M170.16,324.8l-23.078,40.852c-2.686,4.733-2.64,10.379,0.117,15.113c2.785,4.781,7.741,7.636,13.259,7.636h66.1V324.8H170.16z
		 M111.858,371.8c-2.12,0-4.083-1.118-5.163-2.943l-32.2-54.399c-8.484-14.33-8.576-32.243-0.239-46.747L95.463,231
		c1.658-2.87,5.327-3.852,8.196-2.194c2.87,1.657,3.852,5.327,2.194,8.196l-21.2,36.7c-6.178,10.749-6.116,24.027,0.168,34.643
		l26.969,45.562l49.07-85.104c1.656-2.871,5.325-3.854,8.195-2.201c2.871,1.655,3.856,5.324,2.201,8.195l-54.2,94
		c-1.065,1.848-3.031,2.99-5.164,3.003C111.881,371.8,111.869,371.8,111.858,371.8z M335.66,198.6c-0.182,0-0.364-0.008-0.549-0.025
		l-82-7.5c-2.613-0.239-4.769-2.149-5.319-4.715c-0.551-2.566,0.63-5.193,2.915-6.484l26.2-14.8
		c2.887-1.632,6.546-0.612,8.175,2.273c1.63,2.885,0.612,6.545-2.272,8.175l-9.473,5.351l58.744,5.373l25.864-53.019l-9.452,5.303
		c-2.894,1.621-6.547,0.592-8.168-2.297c-1.622-2.89-0.594-6.547,2.297-8.169l26.2-14.7c2.29-1.285,5.147-0.931,7.055,0.87
		c1.908,1.802,2.424,4.635,1.273,6.994l-36.1,74C340.039,197.305,337.936,198.6,335.66,198.6z"/>
</g>
<g>
	<path style="fill:#F9423A;" d="M203.958,210.1c-1.065,0-2.122-0.284-3.054-0.835l-65.1-38.5c-1.371-0.811-2.363-2.133-2.758-3.676
		c-0.395-1.542-0.161-3.179,0.651-4.549l36.7-61.9c4.958-8.424,13.735-13.453,23.482-13.453c0.04,0,0.078,0,0.118,0
		c9.816,0.041,18.623,5.167,23.557,13.712l24.524,42.672c0.22,0.265,0.417,0.55,0.591,0.855c1.068,1.871,1.051,4.171-0.045,6.026
		l-33.5,56.7c-0.81,1.37-2.13,2.363-3.672,2.759C204.959,210.038,204.457,210.1,203.958,210.1z M147.082,163.493l54.763,32.387
		l28.617-48.436l-23.307-40.554c-2.77-4.796-7.709-7.679-13.208-7.702c-0.022,0-0.044,0-0.066,0c-5.453,0-10.365,2.821-13.152,7.556
		L147.082,163.493z M279.764,176.401c-2.098,0-4.134-1.102-5.235-3.06l-53.2-94.6c-1.044-1.858-1.025-4.13,0.051-5.97
		s3.048-2.971,5.179-2.971h63.3c16.655,0,32.073,9.071,40.237,23.672l20.789,36.882c1.627,2.887,0.606,6.546-2.28,8.173
		c-2.891,1.627-6.548,0.605-8.173-2.28l-20.8-36.9c-6.056-10.83-17.46-17.546-29.773-17.546h-53.042l48.171,85.659
		c1.625,2.888,0.6,6.546-2.288,8.171C281.769,176.152,280.759,176.401,279.764,176.401z"/>
</g>
</svg>
