<?xml version="1.0" encoding="utf-8"?>
<!-- Generator: Adobe Illustrator 27.5.0, SVG Export Plug-In . SVG Version: 6.00 Build 0)  -->
<svg version="1.1" id="Layer_1" xmlns="http://www.w3.org/2000/svg" xmlns:xlink="http://www.w3.org/1999/xlink" x="0px" y="0px"
	 viewBox="0 0 500 500" style="enable-background:new 0 0 500 500;" xml:space="preserve">
<style type="text/css">
	.st0{clip-path:url(#SVGID_00000162334104031549349440000010828004320287824774_);}
	.st1{fill:#F9423A;}
	.st2{fill:none;stroke:#F9423A;stroke-width:12;stroke-linecap:round;stroke-linejoin:round;}
	.st3{display:none;fill:none;stroke:#F9423A;stroke-width:12;stroke-linecap:round;stroke-linejoin:round;}
</style>
<g>
	<g>
		<g>
			<defs>
				<rect id="SVGID_1_" width="500" height="500"/>
			</defs>
			<clipPath id="SVGID_00000047032400996553625350000010708273402218717885_">
				<use xlink:href="#SVGID_1_"  style="overflow:visible;"/>
			</clipPath>
			<g style="clip-path:url(#SVGID_00000047032400996553625350000010708273402218717885_);">
				<g>
					<path class="st1" d="M324.7,416.1H175.3c-9.9,0-18-8.1-18-18V101.9c0-9.9,8.1-18,18-18h149.5c9.9,0,18,8.1,18,18v296.2
						C342.7,408.1,334.5,416.1,324.7,416.1z M175.3,95.9c-3.3,0-6,2.7-6,6v296.2c0,3.3,2.7,6,6,6h149.4c3.3,0,6-2.7,6.1-6.1V101.9
						c0-3.3-2.7-6-6-6C324.8,95.9,175.3,95.9,175.3,95.9z"/>
				</g>
				<path class="st2" d="M0,500"/>
				<path class="st2" d="M0,500"/>
				<path class="st2" d="M0,500"/>
				<g>
					<g>
						<path class="st1" d="M203.2,89.9c5.7,0,10.8,2.2,12.4,5.4l3,5.9c1.3,2.5,5.3,4.3,9.8,4.3h43.1c4.5,0,8.5-1.7,9.8-4.3l3-5.9
							c1.6-3.2,6.7-5.4,12.4-5.4"/>
					</g>
					<g>
						<path class="st1" d="M271.5,111.5h-43.1c-6.8,0-12.7-3-15.1-7.5l-3-5.9c-0.4-0.6-3-2.1-7.1-2.1c-3.3,0-6-2.7-6-6s2.7-6,6-6
							c8.1,0,15.1,3.4,17.8,8.7l2.9,5.7c0.4,0.4,2,1.2,4.5,1.2h43.1c2.5,0,4.1-0.8,4.5-1.1l2.9-5.8c2.6-5.3,9.6-8.7,17.7-8.7
							c3.3,0,6,2.7,6,6s-2.7,6-6,6c-4,0-6.6,1.5-7.1,2.1l-3,5.9C284.3,108.6,278.5,111.5,271.5,111.5z M275.9,98.5L275.9,98.5
							L275.9,98.5z M276.1,98.3L276.1,98.3L276.1,98.3z"/>
					</g>
				</g>
				<g>
					<g>
						<path class="st3" d="M0,500"/>
					</g>
					<g>
						<path class="st2" d="M0,500"/>
					</g>
				</g>
				<g>
					<g>
						<path class="st1" d="M289.8,396.5h-79.5c-3.3,0-6-2.7-6-6s2.7-6,6-6h79.5c3.3,0,6,2.7,6,6S293.1,396.5,289.8,396.5z"/>
					</g>
				</g>
				<g>
					<path class="st2" d="M0,500"/>
				</g>
				<g>
					<path class="st2" d="M0,500"/>
				</g>
				<g>
					<g>
						<path class="st1" d="M290,236h-80c-3.3,0-6-2.7-6-6v-66.8c0-3.3,2.7-6,6-6h80c3.3,0,6,2.7,6,6V230
							C296,233.3,293.3,236,290,236z M216,224h68v-54.8h-68V224z"/>
					</g>
				</g>
				<g>
					<g>
						<path class="st1" d="M290,338.4h-80c-3.3,0-6-2.7-6-6s2.7-6,6-6h80c3.3,0,6,2.7,6,6S293.3,338.4,290,338.4z M290,305h-80
							c-3.3,0-6-2.7-6-6s2.7-6,6-6h80c3.3,0,6,2.7,6,6S293.3,305,290,305z M290,271.5h-80c-3.3,0-6-2.7-6-6s2.7-6,6-6h80
							c3.3,0,6,2.7,6,6S293.3,271.5,290,271.5z"/>
					</g>
				</g>
			</g>
		</g>
	</g>
</g>
</svg>
