<?xml version="1.0" encoding="utf-8"?>
<!-- Generator: Adobe Illustrator 27.5.0, SVG Export Plug-In . SVG Version: 6.00 Build 0)  -->
<svg version="1.1" id="Layer_1" xmlns="http://www.w3.org/2000/svg" xmlns:xlink="http://www.w3.org/1999/xlink" x="0px" y="0px"
	 viewBox="0 0 500 500" style="enable-background:new 0 0 500 500;" xml:space="preserve">
<style type="text/css">
	.st0{clip-path:url(#SVGID_00000086650652420382967290000017563699976861331109_);}
	.st1{opacity:0;clip-path:url(#SVGID_00000159447016105248810970000003054977631015796650_);}
	.st2{fill:#F9423A;}
	.st3{opacity:0;clip-path:url(#SVGID_00000054948747607844538150000007822320887481800623_);}
	.st4{clip-path:url(#SVGID_00000072997811383751362530000012320782374480089782_);}
	.st5{fill:none;stroke:#F9423A;stroke-width:12;stroke-linecap:round;stroke-linejoin:round;}
</style>
<g>
	<g>
		<g>
			<defs>
				<rect id="SVGID_1_" width="500" height="500"/>
			</defs>
			<clipPath id="SVGID_00000024686046508636878120000008890710000934268303_">
				<use xlink:href="#SVGID_1_"  style="overflow:visible;"/>
			</clipPath>
			<g style="clip-path:url(#SVGID_00000024686046508636878120000008890710000934268303_);">
				<g>
					<g>
						<g>
							<defs>
								<rect id="SVGID_00000077290628137040058170000011161322936210017450_" width="500" height="500"/>
							</defs>
							<clipPath id="SVGID_00000119091879231657537040000012436860775279537040_">
								<use xlink:href="#SVGID_00000077290628137040058170000011161322936210017450_"  style="overflow:visible;"/>
							</clipPath>
							<g style="opacity:0;clip-path:url(#SVGID_00000119091879231657537040000012436860775279537040_);">
								<g>
									<path class="st2" d="M182,282.7c-0.5,0-1.1-0.1-1.6-0.2c-3.2-0.9-5-4.2-4.1-7.4l15.2-53.4c0.7-2.6,3.1-4.4,5.8-4.4h16.2
										c2.7,0,5.1,1.9,5.8,4.5l13.7,53.4c0.8,3.2-1.1,6.5-4.3,7.3s-6.5-1.1-7.3-4.3l-2-8h-29.1l-2.3,8.1
										C187,281,184.6,282.7,182,282.7z M193.5,258.2h22.7l-7.4-28.9h-7L193.5,258.2z M310.3,282.7c-3.3,0-6-2.7-6-6v-53.3
										c0-3.3,2.7-6,6-6s6,2.7,6,6v53.3C316.3,280,313.6,282.7,310.3,282.7z M250,282.7c-3.3,0-6-2.7-6-6v-53.4c0-3.3,2.7-6,6-6
										h20c12.7,0,23.1,10.4,23.1,23.1c0,12.7-10.4,23.1-23.1,23.1h-14v13.2C256,280,253.3,282.7,250,282.7z M256,251.5h14
										c6.1,0,11.1-5,11.1-11.1s-5-11.1-11.1-11.1h-14V251.5z"/>
								</g>
								<g>
									<path class="st2" d="M250,362.7c-62.1,0-112.7-50.6-112.7-112.7S187.9,137.3,250,137.3S362.7,187.9,362.7,250
										S312.1,362.7,250,362.7z M250,149.3c-55.5,0-100.7,45.2-100.7,100.7S194.5,350.7,250,350.7S350.7,305.5,350.7,250
										S305.5,149.3,250,149.3z"/>
								</g>
								<g>
									<path class="st2" d="M279.5,442.9h-59.1c-17,0-30.9-13.9-30.9-30.9v-7.1c-15.7-6.1-30.2-14.6-43.3-25.1l-6.2,3.5
										c-14.7,8.5-33.6,3.5-42.2-11.3l-29.6-51.2c-4.1-7.1-5.2-15.5-3.1-23.4c2.1-8,7.2-14.6,14.4-18.8l6.1-3.5
										c-1.3-8.1-1.9-16.5-1.9-25.1c0-8.1,0.6-16.5,1.9-25.1l-6.1-3.5c-14.8-8.6-19.8-27.5-11.3-42.2L97.8,128
										c8.6-14.8,27.5-19.8,42.2-11.3l6.2,3.5c13.1-10.6,27.7-19,43.3-25.1v-7c0-17,13.9-30.9,30.9-30.9h59.1
										c17,0,30.9,13.9,30.9,30.9v7c15.7,6.1,30.2,14.6,43.3,25.1l6.2-3.5c14.7-8.5,33.6-3.5,42.2,11.3l29.6,51.2
										c8.5,14.7,3.5,33.6-11.3,42.2l-6.1,3.5c1.3,8.1,1.9,16.5,1.9,25.1c0,8.1-0.6,16.5-1.9,25.1l6.1,3.5
										c7.1,4.1,12.2,10.7,14.4,18.6c2.2,8,1.1,16.4-3.1,23.7l-29.6,51.2c-8.6,14.8-27.5,19.8-42.2,11.3l-6.2-3.5
										c-13.1,10.6-27.7,19-43.3,25.1v7C310.4,429,296.5,442.9,279.5,442.9z M146.8,366.6c1.4,0,2.8,0.5,3.9,1.4
										c13.9,11.8,29.7,20.9,46.9,27.1c2.4,0.9,4,3.1,4,5.6V412c0,10.4,8.5,18.9,18.9,18.9h59.1c10.4,0,18.9-8.5,18.9-18.9v-11.2
										c0-2.5,1.6-4.8,4-5.6c17.1-6.2,32.9-15.3,46.9-27.1c1.9-1.6,4.7-1.9,6.9-0.6l9.8,5.6c9,5.2,20.6,2.1,25.8-6.9l29.6-51.2
										c2.5-4.4,3.2-9.6,1.9-14.5c-1.3-4.9-4.4-8.9-8.8-11.4l0,0l-9.7-5.6c-2.2-1.3-3.3-3.7-2.9-6.2c1.6-9.3,2.4-18.5,2.4-27.2
										c0-9.4-0.8-18.5-2.4-27.1c-0.5-2.5,0.7-5,2.9-6.3l9.7-5.6c9-5.2,12.1-16.8,6.9-25.8L391.7,134c-5.2-9-16.8-12.1-25.8-6.9
										l-9.8,5.6c-2.2,1.3-4.9,1-6.9-0.6c-13.9-11.8-29.7-20.9-46.9-27.1c-2.4-0.9-4-3.1-4-5.6V88.2c0-10.4-8.5-18.9-18.9-18.9
										h-59.1c-10.4,0-18.9,8.5-18.9,18.9v11.2c0,2.5-1.6,4.8-4,5.6c-17.1,6.2-32.9,15.3-46.9,27.1c-1.9,1.6-4.7,1.9-6.9,0.6
										l-9.8-5.6c-9-5.2-20.6-2.1-25.8,6.9l-29.6,51.2c-5.2,9-2.1,20.6,6.9,25.8l9.7,5.6c2.2,1.3,3.3,3.7,2.9,6.2
										c-1.6,9.3-2.4,18.5-2.4,27.2c0,9.4,0.8,18.5,2.4,27.1c0.5,2.5-0.7,5-2.9,6.3l-9.7,5.6c-4.4,2.5-7.5,6.6-8.8,11.5
										s-0.6,10,1.9,14.3L108,366c5.2,9,16.8,12.1,25.8,6.9l9.8-5.6C144.8,366.9,145.8,366.6,146.8,366.6z"/>
								</g>
							</g>
						</g>
					</g>
				</g>
				<g>
					<g>
						<g>
							<defs>
								<rect id="SVGID_00000065762747351446076480000014907789896365275318_" width="500" height="500"/>
							</defs>
							<clipPath id="SVGID_00000165221307499856503160000001013366116905191834_">
								<use xlink:href="#SVGID_00000065762747351446076480000014907789896365275318_"  style="overflow:visible;"/>
							</clipPath>
							<g style="opacity:0;clip-path:url(#SVGID_00000165221307499856503160000001013366116905191834_);">
								<g>
									<path class="st2" d="M182,282.7c-0.5,0-1.1-0.1-1.6-0.2c-3.2-0.9-5-4.2-4.1-7.4l15.2-53.4c0.7-2.6,3.1-4.4,5.8-4.4h16.2
										c2.7,0,5.1,1.9,5.8,4.5l13.7,53.4c0.8,3.2-1.1,6.5-4.3,7.3s-6.5-1.1-7.3-4.3l-2-8h-29.1l-2.3,8.1
										C187,281,184.6,282.7,182,282.7z M193.5,258.2h22.7l-7.4-28.9h-7L193.5,258.2z M310.3,282.7c-3.3,0-6-2.7-6-6v-53.3
										c0-3.3,2.7-6,6-6s6,2.7,6,6v53.3C316.3,280,313.6,282.7,310.3,282.7z M250,282.7c-3.3,0-6-2.7-6-6v-53.4c0-3.3,2.7-6,6-6
										h20c12.7,0,23.1,10.4,23.1,23.1c0,12.7-10.4,23.1-23.1,23.1h-14v13.2C256,280,253.3,282.7,250,282.7z M256,251.5h14
										c6.1,0,11.1-5,11.1-11.1s-5-11.1-11.1-11.1h-14V251.5z"/>
								</g>
								<g>
									<path class="st2" d="M250,362.7c-62.1,0-112.7-50.6-112.7-112.7S187.9,137.3,250,137.3S362.7,187.9,362.7,250
										S312.1,362.7,250,362.7z M250,149.3c-55.5,0-100.7,45.2-100.7,100.7S194.5,350.7,250,350.7S350.7,305.5,350.7,250
										S305.5,149.3,250,149.3z"/>
								</g>
								<g>
									<path class="st2" d="M279.5,442.9h-59.1c-17,0-30.9-13.9-30.9-30.9v-7.1c-15.7-6.1-30.2-14.6-43.3-25.1l-6.2,3.5
										c-14.7,8.5-33.6,3.5-42.2-11.3l-29.6-51.2c-4.1-7.1-5.2-15.5-3.1-23.4c2.1-8,7.2-14.6,14.4-18.8l6.1-3.5
										c-1.3-8.1-1.9-16.5-1.9-25.1c0-8.1,0.6-16.5,1.9-25.1l-6.1-3.5c-14.8-8.6-19.8-27.5-11.3-42.2L97.8,128
										c8.6-14.8,27.5-19.8,42.2-11.3l6.2,3.5c13.1-10.6,27.7-19,43.3-25.1v-7c0-17,13.9-30.9,30.9-30.9h59.1
										c17,0,30.9,13.9,30.9,30.9v7c15.7,6.1,30.2,14.6,43.3,25.1l6.2-3.5c14.7-8.5,33.6-3.5,42.2,11.3l29.6,51.2
										c8.5,14.7,3.5,33.6-11.3,42.2l-6.1,3.5c1.3,8.1,1.9,16.5,1.9,25.1c0,8.1-0.6,16.5-1.9,25.1l6.1,3.5
										c7.1,4.1,12.2,10.7,14.4,18.6c2.2,8,1.1,16.4-3.1,23.7l-29.6,51.2c-8.6,14.8-27.5,19.8-42.2,11.3l-6.2-3.5
										c-13.1,10.6-27.7,19-43.3,25.1v7C310.4,429,296.5,442.9,279.5,442.9z M146.8,366.6c1.4,0,2.8,0.5,3.9,1.4
										c13.9,11.8,29.7,20.9,46.9,27.1c2.4,0.9,4,3.1,4,5.6V412c0,10.4,8.5,18.9,18.9,18.9h59.1c10.4,0,18.9-8.5,18.9-18.9v-11.2
										c0-2.5,1.6-4.8,4-5.6c17.1-6.2,32.9-15.3,46.9-27.1c1.9-1.6,4.7-1.9,6.9-0.6l9.8,5.6c9,5.2,20.6,2.1,25.8-6.9l29.6-51.2
										c2.5-4.4,3.2-9.6,1.9-14.5c-1.3-4.9-4.4-8.9-8.8-11.4l0,0l-9.7-5.6c-2.2-1.3-3.3-3.7-2.9-6.2c1.6-9.3,2.4-18.5,2.4-27.2
										c0-9.4-0.8-18.5-2.4-27.1c-0.5-2.5,0.7-5,2.9-6.3l9.7-5.6c9-5.2,12.1-16.8,6.9-25.8L391.7,134c-5.2-9-16.8-12.1-25.8-6.9
										l-9.8,5.6c-2.2,1.3-4.9,1-6.9-0.6c-13.9-11.8-29.7-20.9-46.9-27.1c-2.4-0.9-4-3.1-4-5.6V88.2c0-10.4-8.5-18.9-18.9-18.9
										h-59.1c-10.4,0-18.9,8.5-18.9,18.9v11.2c0,2.5-1.6,4.8-4,5.6c-17.1,6.2-32.9,15.3-46.9,27.1c-1.9,1.6-4.7,1.9-6.9,0.6
										l-9.8-5.6c-9-5.2-20.6-2.1-25.8,6.9l-29.6,51.2c-5.2,9-2.1,20.6,6.9,25.8l9.7,5.6c2.2,1.3,3.3,3.7,2.9,6.2
										c-1.6,9.3-2.4,18.5-2.4,27.2c0,9.4,0.8,18.5,2.4,27.1c0.5,2.5-0.7,5-2.9,6.3l-9.7,5.6c-4.4,2.5-7.5,6.6-8.8,11.5
										s-0.6,10,1.9,14.3L108,366c5.2,9,16.8,12.1,25.8,6.9l9.8-5.6C144.8,366.9,145.8,366.6,146.8,366.6z"/>
								</g>
							</g>
						</g>
					</g>
				</g>
				<g>
					<g>
						<g>
							<defs>
								<rect id="SVGID_00000075128665490701996250000011612668620599674536_" width="500" height="500"/>
							</defs>
							<clipPath id="SVGID_00000084525446719157339890000002906392313395149458_">
								<use xlink:href="#SVGID_00000075128665490701996250000011612668620599674536_"  style="overflow:visible;"/>
							</clipPath>
							<g style="clip-path:url(#SVGID_00000084525446719157339890000002906392313395149458_);">
								<g>
									<path class="st2" d="M182,282.7c-0.5,0-1.1-0.1-1.6-0.2c-3.2-0.9-5-4.2-4.1-7.4l15.2-53.4c0.7-2.6,3.1-4.4,5.8-4.4h16.2
										c2.7,0,5.1,1.9,5.8,4.5l13.7,53.4c0.8,3.2-1.1,6.5-4.3,7.3s-6.5-1.1-7.3-4.3l-2-8h-29.1l-2.3,8.1
										C187,281,184.6,282.7,182,282.7z M193.5,258.2h22.7l-7.4-28.9h-7L193.5,258.2z M310.3,282.7c-3.3,0-6-2.7-6-6v-53.3
										c0-3.3,2.7-6,6-6s6,2.7,6,6v53.3C316.3,280,313.6,282.7,310.3,282.7z M250,282.7c-3.3,0-6-2.7-6-6v-53.4c0-3.3,2.7-6,6-6
										h20c12.7,0,23.1,10.4,23.1,23.1c0,12.7-10.4,23.1-23.1,23.1h-14v13.2C256,280,253.3,282.7,250,282.7z M256,251.5h14
										c6.1,0,11.1-5,11.1-11.1s-5-11.1-11.1-11.1h-14V251.5z"/>
								</g>
								<g>
									<path class="st2" d="M250,362.7c-62.1,0-112.7-50.6-112.7-112.7S187.9,137.3,250,137.3S362.7,187.9,362.7,250
										S312.1,362.7,250,362.7z M250,149.3c-55.5,0-100.7,45.2-100.7,100.7S194.5,350.7,250,350.7S350.7,305.5,350.7,250
										S305.5,149.3,250,149.3z"/>
								</g>
								<g>
									<path class="st2" d="M279.5,442.9h-59.1c-17,0-30.9-13.9-30.9-30.9v-7.1c-15.7-6.1-30.2-14.6-43.3-25.1l-6.2,3.5
										c-14.7,8.5-33.6,3.5-42.2-11.3l-29.6-51.2c-4.1-7.1-5.2-15.5-3.1-23.4c2.1-8,7.2-14.6,14.4-18.8l6.1-3.5
										c-1.3-8.1-1.9-16.5-1.9-25.1c0-8.1,0.6-16.5,1.9-25.1l-6.1-3.5c-14.8-8.6-19.8-27.5-11.3-42.2L97.8,128
										c8.6-14.8,27.5-19.8,42.2-11.3l6.2,3.5c13.1-10.6,27.7-19,43.3-25.1v-7c0-17,13.9-30.9,30.9-30.9h59.1
										c17,0,30.9,13.9,30.9,30.9v7c15.7,6.1,30.2,14.6,43.3,25.1l6.2-3.5c14.7-8.5,33.6-3.5,42.2,11.3l29.6,51.2
										c8.5,14.7,3.5,33.6-11.3,42.2l-6.1,3.5c1.3,8.1,1.9,16.5,1.9,25.1c0,8.1-0.6,16.5-1.9,25.1l6.1,3.5
										c7.1,4.1,12.2,10.7,14.4,18.6c2.2,8,1.1,16.4-3.1,23.7l-29.6,51.2c-8.6,14.8-27.5,19.8-42.2,11.3l-6.2-3.5
										c-13.1,10.6-27.7,19-43.3,25.1v7C310.4,429,296.5,442.9,279.5,442.9z M146.8,366.6c1.4,0,2.8,0.5,3.9,1.4
										c13.9,11.8,29.7,20.9,46.9,27.1c2.4,0.9,4,3.1,4,5.6V412c0,10.4,8.5,18.9,18.9,18.9h59.1c10.4,0,18.9-8.5,18.9-18.9v-11.2
										c0-2.5,1.6-4.8,4-5.6c17.1-6.2,32.9-15.3,46.9-27.1c1.9-1.6,4.7-1.9,6.9-0.6l9.8,5.6c9,5.2,20.6,2.1,25.8-6.9l29.6-51.2
										c2.5-4.4,3.2-9.6,1.9-14.5c-1.3-4.9-4.4-8.9-8.8-11.4l0,0l-9.7-5.6c-2.2-1.3-3.3-3.7-2.9-6.2c1.6-9.3,2.4-18.5,2.4-27.2
										c0-9.4-0.8-18.5-2.4-27.1c-0.5-2.5,0.7-5,2.9-6.3l9.7-5.6c9-5.2,12.1-16.8,6.9-25.8L391.7,134c-5.2-9-16.8-12.1-25.8-6.9
										l-9.8,5.6c-2.2,1.3-4.9,1-6.9-0.6c-13.9-11.8-29.7-20.9-46.9-27.1c-2.4-0.9-4-3.1-4-5.6V88.2c0-10.4-8.5-18.9-18.9-18.9
										h-59.1c-10.4,0-18.9,8.5-18.9,18.9v11.2c0,2.5-1.6,4.8-4,5.6c-17.1,6.2-32.9,15.3-46.9,27.1c-1.9,1.6-4.7,1.9-6.9,0.6
										l-9.8-5.6c-9-5.2-20.6-2.1-25.8,6.9l-29.6,51.2c-5.2,9-2.1,20.6,6.9,25.8l9.7,5.6c2.2,1.3,3.3,3.7,2.9,6.2
										c-1.6,9.3-2.4,18.5-2.4,27.2c0,9.4,0.8,18.5,2.4,27.1c0.5,2.5-0.7,5-2.9,6.3l-9.7,5.6c-4.4,2.5-7.5,6.6-8.8,11.5
										s-0.6,10,1.9,14.3L108,366c5.2,9,16.8,12.1,25.8,6.9l9.8-5.6C144.8,366.9,145.8,366.6,146.8,366.6z"/>
								</g>
							</g>
						</g>
					</g>
				</g>
				<g>
					<path class="st5" d="M0,500"/>
				</g>
			</g>
		</g>
	</g>
</g>
</svg>
