<?xml version="1.0" encoding="iso-8859-1"?>
<!-- Generator: Adobe Illustrator 29.6.1, SVG Export Plug-In . SVG Version: 9.03 Build 0)  -->
<svg version="1.1" id="Layer_1" xmlns="http://www.w3.org/2000/svg" xmlns:xlink="http://www.w3.org/1999/xlink" x="0px" y="0px"
	 viewBox="0 0 500 500" style="enable-background:new 0 0 500 500;" xml:space="preserve">
<g>
	<g>
		<path style="fill:#F9423A;" d="M206.036,418.5H84.987c-7.304,0-14.312-3.099-19.229-8.5c-4.916-5.402-7.342-12.671-6.655-19.941
			l22.935-243.122c0.291-3.082,2.878-5.437,5.974-5.437h180c3.096,0,5.683,2.354,5.974,5.437l5.661,60
			c0.312,3.299-2.111,6.226-5.41,6.537c-3.291,0.312-6.226-2.11-6.537-5.41l-5.148-54.563H93.472L71.05,391.186
			c-0.375,3.974,0.897,7.786,3.583,10.737c2.686,2.952,6.363,4.577,10.354,4.577h121.05c3.313,0,6,2.687,6,6
			S209.35,418.5,206.036,418.5z"/>
	</g>
	<g>
		<path style="fill:#F9423A;" d="M380.012,238.5c-3.313,0-6-2.687-6-6v-35c0-21.505-17.495-39-39-39s-39,17.495-39,39v35
			c0,3.313-2.687,6-6,6s-6-2.687-6-6v-35c0-28.122,22.879-51,51-51s51,22.878,51,51v35C386.012,235.813,383.325,238.5,380.012,238.5
			z M223.012,183.5c-3.313,0-6-2.687-6-6v-45c0-21.505-17.495-39-39-39s-39,17.495-39,39v45c0,3.313-2.687,6-6,6s-6-2.687-6-6v-45
			c0-28.122,22.878-51,51-51s51,22.878,51,51v45C229.012,180.813,226.325,183.5,223.012,183.5z"/>
	</g>
	<g>
		<path style="fill:#F9423A;" d="M415.012,418.5h-96c-3.313,0-6-2.687-6-6s2.687-6,6-6h96c7.72,0,14-6.28,14-14v-179h-188v64
			c0,3.313-2.687,6-6,6s-6-2.687-6-6v-70c0-3.313,2.687-6,6-6h200c3.313,0,6,2.687,6,6v185
			C441.012,406.837,429.348,418.5,415.012,418.5z"/>
	</g>
	<g>
		<path style="fill:#F9423A;" d="M328.012,418.5h-140c-14.336,0-26-11.663-26-26v-115c0-3.313,2.686-6,6-6h180c3.313,0,6,2.687,6,6
			v115C354.012,406.837,342.348,418.5,328.012,418.5z M174.012,283.5v109c0,7.72,6.28,14,14,14h140c7.72,0,14-6.28,14-14v-109
			H174.012z"/>
	</g>
	<g>
		<path style="fill:#F9423A;" d="M258.012,368.5c-22.607,0-41-18.393-41-41v-20c0-3.313,2.687-6,6-6s6,2.687,6,6v20
			c0,15.99,13.009,29,29,29c15.99,0,29-13.01,29-29v-20c0-3.313,2.687-6,6-6s6,2.687,6,6v20
			C299.012,350.107,280.619,368.5,258.012,368.5z"/>
	</g>
</g>
</svg>
