<?xml version="1.0" encoding="utf-8"?>
<!-- Generator: Adobe Illustrator 27.5.0, SVG Export Plug-In . SVG Version: 6.00 Build 0)  -->
<svg version="1.1" id="Layer_1" xmlns="http://www.w3.org/2000/svg" xmlns:xlink="http://www.w3.org/1999/xlink" x="0px" y="0px"
	 viewBox="0 0 500 500" style="enable-background:new 0 0 500 500;" xml:space="preserve">
<style type="text/css">
	.st0{clip-path:url(#SVGID_00000007394278253216468010000005268690268042425773_);}
	.st1{fill:#F9423A;}
</style>
<g>
	<g>
		<g>
			<defs>
				<rect id="SVGID_1_" width="500" height="500"/>
			</defs>
			<clipPath id="SVGID_00000151540475811643284590000013880187396822043578_">
				<use xlink:href="#SVGID_1_"  style="overflow:visible;"/>
			</clipPath>
			<g style="clip-path:url(#SVGID_00000151540475811643284590000013880187396822043578_);">
				<g>
					<path class="st1" d="M343.7,256c-40.1,0-72.7-32.6-72.7-72.7s32.6-72.7,72.7-72.7s72.7,32.6,72.7,72.7S383.8,256,343.7,256z
						 M343.7,122.6c-33.5,0-60.7,27.2-60.7,60.7s27.2,60.7,60.7,60.7s60.7-27.2,60.7-60.7C404.4,149.8,377.2,122.6,343.7,122.6z
						 M320.5,212.5c-1.5,0-3.1-0.6-4.2-1.8c-2.3-2.3-2.3-6.1,0-8.5l19-19l-19.1-19.1c-2.3-2.3-2.3-6.1,0-8.5c2.3-2.3,6.1-2.3,8.5,0
						l19.1,19.1l18.9-18.9c2.3-2.3,6.1-2.3,8.5,0c2.3,2.3,2.3,6.1,0,8.5l-18.9,18.9l18.1,18.1c2.3,2.3,2.3,6.1,0,8.5
						c-2.3,2.3-6.1,2.3-8.5,0l-18.1-18.1l-19,19C323.6,211.9,322,212.5,320.5,212.5z"/>
				</g>
				<g>
					<g>
						<path class="st1" d="M139.9,213.9c-1.5,0-3.1-0.6-4.2-1.8l-16.8-16.8c-2.3-2.3-2.3-6.1,0-8.5c2.3-2.3,6.1-2.3,8.5,0l12.6,12.6
							l43.8-43.8c2.3-2.3,6.1-2.3,8.5,0c2.3,2.3,2.3,6.1,0,8.5l-48,48C143,213.3,141.4,213.9,139.9,213.9z"/>
					</g>
					<g>
						<path class="st1" d="M156.3,256c-40.1,0-72.7-32.6-72.7-72.7s32.6-72.7,72.7-72.7s72.7,32.6,72.7,72.7S196.4,256,156.3,256z
							 M156.3,122.6c-33.5,0-60.7,27.2-60.7,60.7s27.2,60.7,60.7,60.7s60.7-27.2,60.7-60.7S189.8,122.6,156.3,122.6z"/>
					</g>
				</g>
				<g>
					<path class="st1" d="M400.1,369.2h-86.2c-3.3,0-6-2.7-6-6s2.7-6,6-6h86.2c3.3,0,6,2.7,6,6S403.4,369.2,400.1,369.2z M288,369.2
						h-0.7c-3.3,0-6-2.7-6-6s2.7-6,6-6h0.7c3.3,0,6,2.7,6,6S291.3,369.2,288,369.2z M212.7,369.2h-86.2c-3.3,0-6-2.7-6-6s2.7-6,6-6
						h86.2c3.3,0,6,2.7,6,6S216,369.2,212.7,369.2z M100.6,369.2h-0.7c-3.3,0-6-2.7-6-6s2.7-6,6-6h0.7c3.3,0,6,2.7,6,6
						S103.9,369.2,100.6,369.2z M400.1,318h-86.2c-3.3,0-6-2.7-6-6s2.7-6,6-6h86.2c3.3,0,6,2.7,6,6S403.4,318,400.1,318z M288,318
						h-0.7c-3.3,0-6-2.7-6-6s2.7-6,6-6h0.7c3.3,0,6,2.7,6,6S291.3,318,288,318z M212.7,318h-86.2c-3.3,0-6-2.7-6-6s2.7-6,6-6h86.2
						c3.3,0,6,2.7,6,6S216,318,212.7,318z M100.6,318h-0.7c-3.3,0-6-2.7-6-6s2.7-6,6-6h0.7c3.3,0,6,2.7,6,6S103.9,318,100.6,318z"/>
				</g>
			</g>
		</g>
	</g>
</g>
</svg>
