<?xml version="1.0" encoding="utf-8"?>
<!-- Generator: Adobe Illustrator 27.5.0, SVG Export Plug-In . SVG Version: 6.00 Build 0)  -->
<svg version="1.1" id="Layer_1" xmlns="http://www.w3.org/2000/svg" xmlns:xlink="http://www.w3.org/1999/xlink" x="0px" y="0px"
	 viewBox="0 0 500 500" style="enable-background:new 0 0 500 500;" xml:space="preserve">
<style type="text/css">
	.st0{fill:#F9423A;}
	.st1{fill:none;}
</style>
<g>
	<g>
		<g>
			<path class="st0" d="M250,389.4H89.9c-3.3,0-6-2.7-6-6V118.3c0-3.3,2.7-6,6-6H250c3.3,0,6,2.7,6,6v265.1
				C256,386.7,253.3,389.4,250,389.4z M95.9,377.4H244V124.3H95.9V377.4z"/>
		</g>
		<g>
			<path class="st0" d="M410.1,389.4H250c-3.3,0-6-2.7-6-6V118.3c0-3.3,2.7-6,6-6h160.1c3.3,0,6,2.7,6,6v265.1
				C416.1,386.7,413.4,389.4,410.1,389.4z M256,377.4h148.1V124.3H256V377.4z"/>
		</g>
		<g>
			<path class="st0" d="M372.7,343.2h-58.6c-3.3,0-6-2.7-6-6s2.7-6,6-6h58.6c3.3,0,6,2.7,6,6S376,343.2,372.7,343.2z M289,343.2
				h-0.5c-3.3,0-6-2.7-6-6s2.7-6,6-6h0.5c3.3,0,6,2.7,6,6S292.3,343.2,289,343.2z M152.3,343.2c-1.6,0-3.1-0.6-4.2-1.8l-17.6-17.6
				c-2.3-2.3-2.3-6.1,0-8.5c2.3-2.3,6.1-2.3,8.5,0l13.4,13.4l48.6-48.6c2.3-2.3,6.1-2.3,8.5,0c2.3,2.3,2.3,6.1,0,8.5l-52.8,52.8
				C155.4,342.6,153.9,343.2,152.3,343.2z M372.7,310.7h-58.6c-3.3,0-6-2.7-6-6s2.7-6,6-6h58.6c3.3,0,6,2.7,6,6
				S376,310.7,372.7,310.7z M289,310.7h-0.5c-3.3,0-6-2.7-6-6s2.7-6,6-6h0.5c3.3,0,6,2.7,6,6S292.3,310.7,289,310.7z M372.7,278.1
				h-58.6c-3.3,0-6-2.7-6-6s2.7-6,6-6h58.6c3.3,0,6,2.7,6,6S376,278.1,372.7,278.1z M289,278.1h-0.5c-3.3,0-6-2.7-6-6s2.7-6,6-6h0.5
				c3.3,0,6,2.7,6,6S292.3,278.1,289,278.1z M211.8,235.7h-58.6c-3.3,0-6-2.7-6-6s2.7-6,6-6h58.6c3.3,0,6,2.7,6,6
				S215.1,235.7,211.8,235.7z M128.1,235.7h-0.5c-3.3,0-6-2.7-6-6s2.7-6,6-6h0.5c3.3,0,6,2.7,6,6S131.4,235.7,128.1,235.7z
				 M355.5,220.4c-1.5,0-3.1-0.6-4.2-1.8L330.6,198l-20.7,20.7c-2.3,2.3-6.1,2.3-8.5,0c-2.3-2.3-2.3-6.1,0-8.5l20.7-20.7l-20.7-20.7
				c-2.3-2.3-2.3-6.1,0-8.5c2.3-2.3,6.1-2.3,8.5,0l20.7,20.7l20.7-20.7c2.3-2.3,6.1-2.3,8.5,0c2.3,2.3,2.3,6.1,0,8.5l-20.7,20.7
				l20.7,20.7c2.3,2.3,2.3,6.1,0,8.5C358.6,219.8,357,220.4,355.5,220.4z M211.8,203.1h-58.6c-3.3,0-6-2.7-6-6s2.7-6,6-6h58.6
				c3.3,0,6,2.7,6,6C217.8,200.4,215.1,203.1,211.8,203.1z M128.1,203.1h-0.5c-3.3,0-6-2.7-6-6s2.7-6,6-6h0.5c3.3,0,6,2.7,6,6
				C134.1,200.4,131.4,203.1,128.1,203.1z M211.8,170.6h-58.6c-3.3,0-6-2.7-6-6s2.7-6,6-6h58.6c3.3,0,6,2.7,6,6
				C217.8,167.9,215.1,170.6,211.8,170.6z M128.1,170.6h-0.5c-3.3,0-6-2.7-6-6s2.7-6,6-6h0.5c3.3,0,6,2.7,6,6
				C134.1,167.9,131.4,170.6,128.1,170.6z"/>
		</g>
	</g>
	<g>
		<path class="st1" d="M0,500"/>
	</g>
</g>
</svg>
