<?xml version="1.0" encoding="iso-8859-1"?>
<!-- Generator: Adobe Illustrator 29.6.1, SVG Export Plug-In . SVG Version: 9.03 Build 0)  -->
<svg version="1.1" id="Layer_1" xmlns="http://www.w3.org/2000/svg" xmlns:xlink="http://www.w3.org/1999/xlink" x="0px" y="0px"
	 viewBox="0 0 500 500" style="enable-background:new 0 0 500 500;" xml:space="preserve">
<g>
	<path style="fill:#F9423A;" d="M338.51,424.75h-22.74c-11.254,0-20.41-9.146-20.41-20.39v-4.376
		c-3.693,0.336-7.394,0.506-11.06,0.506h-35.61c-5.234,0-10.45-0.335-15.58-0.999v19.259c0,3.313-2.687,6-6,6h-22.74
		c-11.254,0-20.41-9.146-20.41-20.39v-22.648c-16.365-10.401-30.09-24.674-39.83-41.455c-10.631-18.318-16.25-39.262-16.25-60.567
		c0-9.378,1.062-18.594,3.128-27.509H118.9c-0.068,0-0.136-0.002-0.204-0.004c-7.086-0.24-18.286-3.503-25.232-12.857H79.02
		c-3.313,0-6-2.686-6-6s2.687-6,6-6h9.114c-0.57-2.64-0.884-5.536-0.884-8.71c0-9.258,3.951-14.861,7.266-17.932
		c4.18-3.872,9.773-6.003,15.751-6.003c10.783,0,22.243,7.604,22.243,21.695c0,5.922-2.093,11.104-6.052,14.987
		c-4.327,4.242-10.08,6.232-14.757,7.162c3.41,1.353,6.425,1.613,7.34,1.662h15.416c5.898-17.097,15.653-32.766,28.82-45.933
		c17.247-17.257,38.98-28.76,62.851-33.263c3.253-0.618,6.394,1.527,7.008,4.784c0.614,3.256-1.527,6.394-4.784,7.008
		c-21.487,4.054-41.055,14.412-56.588,29.955c-20.562,20.562-31.884,47.892-31.884,76.958c0,19.192,5.059,38.054,14.629,54.544
		c9.293,16.013,22.615,29.489,38.523,38.974c1.815,1.082,2.928,3.04,2.928,5.153v26c0,4.626,3.773,8.39,8.41,8.39h16.74v-19.934
		c-0.014-0.237-0.015-0.478,0-0.72V379.1c0-3.313,2.687-6,6-6s6,2.687,6,6v8.279c5.113,0.738,10.334,1.111,15.58,1.111h35.61
		c3.664,0,7.366-0.188,11.06-0.561v-8.83c0-3.313,2.687-6,6-6s6,2.687,6,6v25.261c0,4.626,3.772,8.39,8.41,8.39h16.74v-31.84
		c0-2.217,1.223-4.254,3.18-5.296c9.354-4.981,17.956-11.366,25.568-18.978c14.985-14.985,25.196-33.79,29.53-54.382
		c0.584-2.777,3.033-4.765,5.871-4.765h5.07c7.306,0,13.25-5.944,13.25-13.25v-18.96c0-7.307-5.944-13.25-13.25-13.25h-7.62
		c-2.639,0-4.968-1.725-5.738-4.249c-7.792-25.526-24.724-47.258-47.676-61.193c-1.706-1.037-2.786-2.854-2.879-4.848
		c-0.057-1.206-0.978-25.506,14.136-44.996c-14.019,0.089-24.874,3.116-33.581,9.266c-2.707,1.912-6.45,1.268-8.362-1.439
		s-1.268-6.45,1.438-8.362c18.056-12.753,39.916-12.238,54.794-10.739c2.438,0.246,4.483,1.95,5.163,4.306s-0.142,4.887-2.074,6.395
		c-16.562,12.919-19.116,34.154-19.479,41.994c22.73,14.694,39.809,36.438,48.614,61.865h3.265c13.923,0,25.25,11.328,25.25,25.25
		v18.96c0,13.923-11.327,25.25-25.25,25.25h-0.303c-5.32,21.008-16.211,40.159-31.685,55.632
		c-7.583,7.583-16.058,14.072-25.232,19.327v34.301C344.51,422.063,341.824,424.75,338.51,424.75z M100.632,227.32h3.018
		c0.095,0,0.189,0.002,0.292,0.002c2.799,0,10.332-0.799,14.137-4.555c1.659-1.638,2.432-3.67,2.432-6.397
		c0-7.653-6.438-9.695-10.243-9.695c-2.945,0-5.643,0.997-7.597,2.807c-2.269,2.102-3.42,5.173-3.42,9.128
		C99.25,222.025,99.766,224.9,100.632,227.32z"/>
</g>
<g>
	<path style="fill:#F9423A;" d="M264.68,189.25c-31.43,0-57-25.57-57-57s25.57-57,57-57s57,25.57,57,57S296.11,189.25,264.68,189.25
		z M264.68,87.25c-24.813,0-45,20.187-45,45s20.187,45,45,45s45-20.187,45-45S289.494,87.25,264.68,87.25z"/>
</g>
<g>
	<path style="fill:#F9423A;" d="M300.619,201.242c-0.685,0-1.382-0.118-2.062-0.368c-0.033-0.01-9.399-3.125-34.968-3.134
		c-0.038,0-0.078,0-0.116,0c-24.642,0-31.912,2.929-31.989,2.961c0.124-0.052,0.179-0.084,0.179-0.084l-5.324-10.754
		c1.392-0.689,9.72-4.123,37.132-4.123c0.042,0,0.08,0,0.122,0c27.762,0.01,38.014,3.471,39.091,3.866
		c3.111,1.14,4.71,4.586,3.57,7.697C305.364,199.734,303.065,201.242,300.619,201.242z"/>
</g>
<g>
	<path style="fill:#F9423A;" d="M338.43,213c-7.52,0-13.63,6.1-13.63,13.63s6.1,13.63,13.63,13.63s13.63-6.1,13.63-13.63
		S345.95,213,338.43,213"/>
</g>
</svg>
