<?xml version="1.0" encoding="utf-8"?>
<!-- Generator: Adobe Illustrator 27.5.0, SVG Export Plug-In . SVG Version: 6.00 Build 0)  -->
<svg version="1.1" id="Layer_1" xmlns="http://www.w3.org/2000/svg" xmlns:xlink="http://www.w3.org/1999/xlink" x="0px" y="0px"
	 viewBox="0 0 500 500" style="enable-background:new 0 0 500 500;" xml:space="preserve">
<style type="text/css">
	.st0{fill:#F9423A;}
	.st1{display:none;fill:none;stroke:#F84239;stroke-width:12;}
	.st2{fill:none;stroke:#F84239;stroke-width:12;}
</style>
<g>
	<g>
		<g>
			<path class="st0" d="M317.7,413.1H182.4c-3.3,0-6-2.7-6-6v-27.6c0-3.3,2.7-6,6-6h11.8c0.2-4,0.8-9.4,2-14.2
				c2.4-9.3,11.9-12.8,17.2-13.4c0.2,0,0.4,0,0.7,0h18.4L232,151.2c0-1.6,0.6-3.1,1.8-4.3c1.1-1.1,2.7-1.8,4.2-1.8h22.7
				c3.3,0,6,2.7,6,6l0.4,194.7h16.7c2-0.1,11.2,0.5,18.6,12.7c2.3,3.8,3.2,10.1,3.6,14.9h11.8c3.3,0,6,2.7,6,6v27.6
				C323.7,410.4,321,413.1,317.7,413.1z M188.4,401.1h123.3v-15.6H188.4V401.1z M206.2,373.5h87.6c-0.3-3.8-1-7.3-1.8-8.7
				c0,0,0,0,0,0c-3.7-6-7.3-6.8-8.1-6.9c-0.1,0,0,0-0.2,0h-69.4c-1.1,0.2-5.8,1.2-6.6,4.4C206.9,365.9,206.4,370.1,206.2,373.5z
				 M244.4,345.9h10.7l-0.4-188.7H244L244.4,345.9z"/>
		</g>
		<g>
			<path class="st0" d="M120.6,168c-2.6,0-4.9-1.7-5.7-4.2c-1-3.2,0.8-6.5,4-7.5l101.3-31c3.2-1,6.5,0.8,7.5,4c1,3.2-0.8,6.5-4,7.5
				l-101.3,31C121.8,167.9,121.2,168,120.6,168z M275.8,120.6c-2.6,0-4.9-1.7-5.7-4.2c-1-3.2,0.8-6.5,4-7.5l105.2-32.2
				c3.2-1,6.5,0.8,7.5,4c1,3.2-0.8,6.5-4,7.5l-105.2,32.2C277,120.5,276.4,120.6,275.8,120.6z"/>
		</g>
		<g>
			<path class="st0" d="M120.7,324.2c-32.8,0-59.5-26.7-59.5-59.4c0-1.2,0.4-2.5,1.1-3.6c0,0,0.1-0.1,0.1-0.1l52.2-69.3v-30
				c0-3.3,2.7-6,6-6s6,2.7,6,6v30l52.4,69.3c0,0,0.1,0.1,0.1,0.1c0.8,1.1,1.1,2.3,1.1,3.6C180.2,297.5,153.5,324.2,120.7,324.2z
				 M73.6,270.9c3,23.3,23,41.3,47.1,41.3c24.1,0,44.1-18.1,47.1-41.4C133.5,271.4,101.8,271.5,73.6,270.9z M79,259
				c25.3,0.5,53.2,0.5,83.3,0l-41.7-55.2L79,259z"/>
		</g>
		<g>
			<path class="st0" d="M380.7,245c-32.8,0-59.5-26.7-59.5-59.4c0-1.2,0.3-2.5,1.1-3.5c0,0,0.1-0.1,0.1-0.1l52.2-69.3v-30
				c0-3.3,2.7-6,6-6s6,2.7,6,6v30l52.4,69.3c0,0,0.1,0.1,0.1,0.1c0.8,1.1,1.2,2.3,1.1,3.6C440.2,218.3,413.5,245,380.7,245z
				 M333.6,191.7c3,23.3,23,41.3,47.1,41.3c24.1,0,44.1-18.1,47.1-41.4C391.2,192.3,360.9,192.3,333.6,191.7z M339,179.8
				c24.5,0.5,51.4,0.5,83.3-0.1l-41.7-55.2L339,179.8z"/>
		</g>
		<g>
			<path class="st0" d="M249.1,156.3c-14.4,0-27.7-9.3-32.1-23.8c-2.6-8.6-1.8-17.7,2.4-25.6c4.2-7.9,11.3-13.7,19.8-16.4l0,0
				c17.7-5.3,36.5,4.7,42,22.3c5.5,17.7-4.5,36.5-22.3,42C255.7,155.8,252.4,156.3,249.1,156.3z M242.7,102
				c-5.5,1.7-10.1,5.5-12.8,10.5c-2.7,5.1-3.3,10.9-1.6,16.5c1.7,5.5,5.5,10.1,10.5,12.8c5.1,2.7,10.9,3.3,16.5,1.6
				c11.4-3.5,17.8-15.6,14.3-27C266.3,105,254.1,98.6,242.7,102z"/>
		</g>
	</g>
	<g>
		<g>
			<g>
				<path class="st1" d="M0,500"/>
			</g>
		</g>
		<g>
			<g>
				<path class="st2" d="M0,500"/>
			</g>
		</g>
		<g>
			<g>
				<path class="st2" d="M0,500"/>
			</g>
		</g>
		<g>
			<g>
				<path class="st2" d="M0,500"/>
			</g>
		</g>
		<g>
			<g>
				<path class="st2" d="M0,500"/>
			</g>
		</g>
		<g>
			<g>
				<path class="st2" d="M0,500"/>
			</g>
		</g>
		<g>
			<g>
				<path class="st2" d="M0,500"/>
			</g>
		</g>
		<g>
			<g>
				<path class="st2" d="M0,500"/>
			</g>
		</g>
		<g>
			<g>
				<path class="st2" d="M0,500"/>
			</g>
		</g>
		<g>
			<g>
				<path class="st2" d="M0,500"/>
			</g>
		</g>
		<g>
			<g>
				<path class="st2" d="M0,500"/>
			</g>
		</g>
		<g>
			<g>
				<path class="st2" d="M0,500"/>
			</g>
		</g>
	</g>
</g>
</svg>
