<?xml version="1.0" encoding="utf-8"?>
<!-- Generator: Adobe Illustrator 27.5.0, SVG Export Plug-In . SVG Version: 6.00 Build 0)  -->
<svg version="1.1" id="Layer_1" xmlns="http://www.w3.org/2000/svg" xmlns:xlink="http://www.w3.org/1999/xlink" x="0px" y="0px"
	 viewBox="0 0 500 500" style="enable-background:new 0 0 500 500;" xml:space="preserve">
<style type="text/css">
	.st0{fill:#F9423A;}
</style>
<g>
	<g>
		<g>
			<g>
				<g>
					<path class="st0" d="M120.8,393.2c-1.6,0-3.1-0.6-4.2-1.8l-0.3-0.3c-1.2-1.2-1.9-2.9-1.7-4.6l5.6-89.6c0.2-3.3,3-5.8,6.4-5.6
						c3.3,0.2,5.8,3.1,5.6,6.4l-4.6,73.8l116.6-120.8L123.3,134l7.1,73.5c0.3,3.3-2.1,6.2-5.4,6.6c-3.3,0.3-6.2-2.1-6.6-5.4
						l-8.7-89.4c-0.2-1.8,0.5-3.6,1.7-4.8l0.3-0.3c1.2-1.2,2.9-1.8,4.6-1.7l89.6,5.6c3.3,0.2,5.8,3.1,5.6,6.4s-3.1,5.8-6.4,5.6
						l-73.7-4.6l121,116.5L369,121.2l-73.5,7.1c-3.3,0.3-6.2-2.1-6.6-5.4s2.1-6.2,5.4-6.6l89.4-8.7c1.8-0.2,3.6,0.5,4.8,1.7l0.3,0.3
						c1.2,1.2,1.9,2.9,1.7,4.6l-5.6,89.6c-0.2,3.3-3.1,5.8-6.4,5.6s-5.8-3.1-5.6-6.4l4.6-73.7l-116.4,121l120.7,116.6l-7.2-73.5
						c-0.3-3.3,2.1-6.2,5.4-6.6c3.3-0.3,6.2,2.1,6.6,5.4l8.7,89.4c0.2,1.8-0.5,3.6-1.7,4.8l-0.3,0.3c-1.2,1.2-2.9,1.9-4.6,1.7
						l-89.6-5.6c-3.3-0.2-5.8-3.1-5.6-6.4c0.2-3.3,3.1-5.8,6.4-5.6l73.6,4.6L252.7,259L136.2,379.7l73.4-7.1
						c3.3-0.3,6.2,2.1,6.6,5.4c0.3,3.3-2.1,6.2-5.4,6.6l-89.4,8.7C121.2,393.2,121,393.2,120.8,393.2z"/>
				</g>
			</g>
		</g>
	</g>
</g>
</svg>
