<?xml version="1.0" encoding="utf-8"?>
<!-- Generator: Adobe Illustrator 27.5.0, SVG Export Plug-In . SVG Version: 6.00 Build 0)  -->
<svg version="1.1" id="Layer_1" xmlns="http://www.w3.org/2000/svg" xmlns:xlink="http://www.w3.org/1999/xlink" x="0px" y="0px"
	 viewBox="0 0 500 500" style="enable-background:new 0 0 500 500;" xml:space="preserve">
<style type="text/css">
	.st0{fill:#F9423A;}
	.st1{display:none;fill:none;stroke:#F9423A;stroke-width:12;stroke-linecap:round;stroke-linejoin:round;}
	.st2{fill:none;stroke:#F9423A;stroke-width:12;stroke-linecap:round;stroke-linejoin:round;}
</style>
<g>
	<g>
		<g>
			<path class="st0" d="M277.9,282.6c-0.4,0-0.8,0-1.3,0s-1,0-1.5,0H259c-3.3,0-6-2.7-6-6s2.7-6,6-6h16.2c0.5,0,1.1,0,1.6,0
				c0.7,0,1.5,0,2.2,0c0.2-3.1,2.8-5.6,6-5.6c3.3,0,6,2.7,6,6c0,1.4,0,5.6-3,8.6C285.1,282.4,281.5,282.6,277.9,282.6z M215,282.6
				h-16.3c-9.5,0-17.2-7.7-17.2-17.2v-16.3c0-3.3,2.7-6,6-6s6,2.7,6,6v16.3c0,2.9,2.3,5.2,5.2,5.2H215c3.3,0,6,2.7,6,6
				S218.3,282.6,215,282.6z M257.4,233.1h-62.5c-3.3,0-6-2.7-6-6s2.7-6,6-6h62.5c3.3,0,6,2.7,6,6S260.7,233.1,257.4,233.1z
				 M286.5,211.2c-3.3,0-6-2.7-6-6v-16.3c0-2.9-2.3-5.2-5.2-5.2H259c-3.3,0-6-2.7-6-6s2.7-6,6-6h16.3c9.5,0,17.2,7.7,17.2,17.2v16.3
				C292.5,208.5,289.8,211.2,286.5,211.2z M187.5,211.1c-3.3,0-6-2.7-6-6v-16.3c0-9.5,7.7-17.2,17.2-17.2H215c3.3,0,6,2.7,6,6
				s-2.7,6-6,6h-16.3c-2.9,0-5.2,2.3-5.2,5.2v16.3C193.5,208.4,190.8,211.1,187.5,211.1z"/>
		</g>
		<g>
			<path class="st0" d="M291.1,364.2h-106c-16,0-29.1-13.1-29.1-29.1V113c0-16,13.1-29.1,29.1-29.1h106c16,0,29.1,13.1,29.1,29.1
				v119.3c0,3.3-2.7,6-6,6s-6-2.7-6-6V113c0-9.4-7.7-17.1-17.1-17.1h-106c-9.4,0-17.1,7.7-17.1,17.1v222.1c0,9.4,7.7,17.1,17.1,17.1
				h106c9.4,0,17.1-7.7,17.1-17.1v-54.4c0-3.3,2.7-6,6-6s6,2.7,6,6v54.4C320.2,351.1,307.1,364.2,291.1,364.2z M257.4,123h-38.7
				c-3.3,0-6-2.7-6-6s2.7-6,6-6h38.7c3.3,0,6,2.7,6,6S260.7,123,257.4,123z"/>
		</g>
		<g>
			<g>
				<path class="st0" d="M295.1,415.8c-1.5,0-2.9-0.5-4.1-1.6l-55.9-51.7c-2.4-2.2-2.6-6-0.3-8.5c2.2-2.4,6-2.6,8.5-0.3l52.4,48.5
					c25.7-17.1,68-45.5,80.8-54.1l-9.4-29.2c0-0.1,0-0.1-0.1-0.2l-15.5-55.4c-1.1-3.9-3.7-7.2-7.2-9.1l-32.1-11.1
					c-0.1,0-0.1,0-0.2-0.1l-35-13.6c-0.5-0.1-1.8-0.4-4.7-0.7c-0.2,0-0.3,0-0.5-0.1c-6.4,0.2-12,4.3-14.1,10.3
					c-1.3,3.8-1,7.9,0.8,11.6c1.8,3.7,4.9,6.4,8.8,7.7l48.9,16.8c2.4,0.8,4,3.1,4,5.7v54.4c0,3.3-2.7,6-6,6s-6-2.7-6-6V285
					l-44.8-15.4c-6.8-2.3-12.4-7.2-15.7-13.7c-3.2-6.6-3.7-13.9-1.4-20.8c3.8-11,14.2-18.4,25.9-18.4c0.4,0,0.9,0,1.3,0.1
					c0,0,0.1,0,0.2,0c2.4,0.3,5.2,0.6,7.1,1.2c0.1,0,0.2,0.1,0.4,0.1l35.1,13.7l32.4,11.3c0.3,0.1,0.5,0.2,0.8,0.3
					c6.5,3.4,11.5,9.5,13.6,16.6l15.5,55.4l10.8,33.4c0.8,2.5-0.1,5.3-2.4,6.8c0,0-59,39.5-88.5,59.2
					C297.4,415.5,296.3,415.8,295.1,415.8z"/>
			</g>
			<g>
				<path class="st0" d="M313.3,442.8c-0.4,0-0.8,0-1.2-0.1c-1.6-0.3-2.9-1.2-3.8-2.5l-18-26.9c-1.8-2.8-1.1-6.5,1.6-8.3
					c2.8-1.8,6.5-1.1,8.3,1.6l14.7,21.9l78.4-52.5l-14.6-22c-1.8-2.8-1.1-6.5,1.6-8.3c2.8-1.8,6.5-1.1,8.3,1.6l18,26.9
					c1.8,2.8,1.1,6.5-1.6,8.3l-88.4,59.2C315.6,442.5,314.5,442.8,313.3,442.8z"/>
			</g>
		</g>
	</g>
	<g>
		<g>
			<path class="st1" d="M0,500"/>
		</g>
		<g>
			<path class="st2" d="M0,500"/>
		</g>
		<g>
			<path class="st2" d="M0,500"/>
		</g>
		<g>
			<path class="st2" d="M0,500"/>
		</g>
		<g>
			<path class="st2" d="M0,500"/>
		</g>
		<g>
			<path class="st2" d="M0,500"/>
		</g>
		<g>
			<path class="st2" d="M0,500"/>
		</g>
		<g>
			<path class="st2" d="M0,500"/>
		</g>
		<g>
			<path class="st2" d="M0,500"/>
		</g>
		<g>
			<path class="st2" d="M0,500"/>
		</g>
		<g>
			<path class="st2" d="M0,500"/>
		</g>
		<g>
			<path class="st2" d="M0,500"/>
		</g>
	</g>
</g>
</svg>
