<?xml version="1.0" encoding="iso-8859-1"?>
<!-- Generator: Adobe Illustrator 29.6.1, SVG Export Plug-In . SVG Version: 9.03 Build 0)  -->
<svg version="1.1" id="Layer_1" xmlns="http://www.w3.org/2000/svg" xmlns:xlink="http://www.w3.org/1999/xlink" x="0px" y="0px"
	 viewBox="0 0 500 500" style="enable-background:new 0 0 500 500;" xml:space="preserve">
<g>
	<g>
		<path style="fill:#F9423A;" d="M275,286h-50c-14.336,0-26-11.663-26-26v-45c0-3.313,2.687-6,6-6h9v-9c0-19.851,16.149-36,36-36
			s36,16.149,36,36v9h9c3.313,0,6,2.687,6,6v45C301,274.337,289.337,286,275,286z M211,221v39c0,7.72,6.28,14,14,14h50
			c7.72,0,14-6.28,14-14v-39H211z M226,209h48v-9c0-13.233-10.767-24-24-24s-24,10.767-24,24V209z"/>
	</g>
	<g>
		<path style="fill:#F9423A;" d="M250,259c-3.313,0-6-2.687-6-6v-10c0-3.313,2.687-6,6-6s6,2.687,6,6v10
			C256,256.313,253.313,259,250,259z"/>
	</g>
	<g>
		<path style="fill:#F9423A;" d="M317,381H177c-19.851,0-36-16.149-36-36s16.149-36,36-36h140c19.851,0,36,16.149,36,36
			S336.851,381,317,381z M177,321c-13.234,0-24,10.767-24,24s10.766,24,24,24h140c13.233,0,24-10.767,24-24s-10.767-24-24-24H177z"
			/>
	</g>
	<g>
		<path style="fill:#F9423A;" d="M302.4,352.5h-0.1c-4.143,0-7.5-3.357-7.5-7.5s3.357-7.5,7.5-7.5h0.101c4.143,0,7.5,3.357,7.5,7.5
			S306.543,352.5,302.4,352.5z M267.3,352.5c-4.143,0-7.55-3.357-7.55-7.5s3.308-7.5,7.45-7.5h0.1c4.143,0,7.5,3.357,7.5,7.5
			S271.442,352.5,267.3,352.5z M232.2,352.5h-0.1c-4.142,0-7.5-3.357-7.5-7.5s3.358-7.5,7.5-7.5h0.1c4.142,0,7.5,3.357,7.5,7.5
			S236.342,352.5,232.2,352.5z M197.1,352.5H197c-4.142,0-7.5-3.357-7.5-7.5s3.358-7.5,7.5-7.5h0.1c4.142,0,7.5,3.357,7.5,7.5
			S201.242,352.5,197.1,352.5z"/>
	</g>
	<g>
		<path style="fill:#F9423A;" d="M390,416H110c-14.336,0-26-11.663-26-26V110c0-14.336,11.664-26,26-26h280
			c14.337,0,26,11.664,26,26v280C416,404.337,404.337,416,390,416z M110,96c-7.72,0-14,6.28-14,14v280c0,7.72,6.28,14,14,14h280
			c7.72,0,14-6.28,14-14V110c0-7.72-6.28-14-14-14H110z"/>
	</g>
	<g>
		<path style="fill:#F9423A;" d="M410,146H90c-3.314,0-6-2.686-6-6s2.686-6,6-6h320c3.313,0,6,2.686,6,6S413.313,146,410,146z"/>
	</g>
	<g>
		<path style="fill:#F9423A;" d="M185.398,122.5h-0.1c-4.142,0-7.5-3.358-7.5-7.5s3.358-7.5,7.5-7.5h0.1c4.142,0,7.5,3.358,7.5,7.5
			S189.54,122.5,185.398,122.5z M155.298,122.5H155.1c-4.142,0-7.5-3.358-7.5-7.5s3.358-7.5,7.5-7.5h0.198
			c4.142,0,7.5,3.358,7.5,7.5S159.44,122.5,155.298,122.5z M125.1,122.5H125c-4.142,0-7.5-3.358-7.5-7.5s3.358-7.5,7.5-7.5h0.1
			c4.142,0,7.5,3.358,7.5,7.5S129.242,122.5,125.1,122.5z"/>
	</g>
</g>
</svg>
