<?xml version="1.0" encoding="utf-8"?>
<!-- Generator: Adobe Illustrator 27.5.0, SVG Export Plug-In . SVG Version: 6.00 Build 0)  -->
<svg version="1.1" id="Layer_1" xmlns="http://www.w3.org/2000/svg" xmlns:xlink="http://www.w3.org/1999/xlink" x="0px" y="0px"
	 viewBox="0 0 500 500" style="enable-background:new 0 0 500 500;" xml:space="preserve">
<style type="text/css">
	.st0{clip-path:url(#SVGID_00000131341819484527184570000015585751612501293217_);}
	.st1{fill:#F9423A;}
	.st2{display:none;fill:none;stroke:#F9423A;stroke-width:12;stroke-linecap:round;stroke-linejoin:round;}
	.st3{fill:none;stroke:#F9423A;stroke-width:12;stroke-linecap:round;stroke-linejoin:round;}
</style>
<g>
	<g>
		<g>
			<defs>
				<rect id="SVGID_1_" width="500" height="500"/>
			</defs>
			<clipPath id="SVGID_00000089561988967919765340000002860498962412416387_">
				<use xlink:href="#SVGID_1_"  style="overflow:visible;"/>
			</clipPath>
			<g style="clip-path:url(#SVGID_00000089561988967919765340000002860498962412416387_);">
				<g>
					<path class="st1" d="M252,426.5c-1.1,0-2.2-0.3-3.2-0.9c-63.3-39.6-106.8-96.2-129.2-168c-17.8-57.2-17-107.1-16.7-128.5
						c0-2.2,0.1-4,0.1-5.5c0-2.9,2.1-5.5,5-5.9c44.6-7.2,140.7-46.3,141.7-46.7c1.5-0.6,3.1-0.6,4.5,0c1,0.4,97.1,39.4,141.7,46.7
						c2.9,0.5,5,3,5,5.9c0,1.5,0,3.3,0.1,5.5c0.4,21.3,1.2,71.2-16.7,128.5c-22.4,71.9-65.9,128.4-129.2,168
						C254.2,426.2,253.1,426.5,252,426.5z M114.9,128.6c0,0.2,0,0.4,0,0.7C112.3,289,187.2,371.8,252,413.4
						c64.8-41.6,139.7-124.4,137.1-284.1c0-0.2,0-0.5,0-0.7C345.2,120.1,266.7,88.9,252,83C237.3,88.9,158.8,120.2,114.9,128.6z"/>
				</g>
				<g>
					<path class="st1" d="M224.9,299.6c-1.6,0-3.1-0.6-4.2-1.8l-45.1-45.1c-2.3-2.3-2.3-6.1,0-8.5c2.3-2.3,6.1-2.3,8.5,0l40.8,40.8
						l102.7-103c2.3-2.3,6.1-2.4,8.5,0c2.3,2.3,2.4,6.1,0,8.5l-107,107.4C228,299,226.5,299.6,224.9,299.6L224.9,299.6z"/>
				</g>
				<g>
					<g>
						<path class="st2" d="M0,500"/>
					</g>
					<g>
						<path class="st3" d="M0,500"/>
					</g>
					<g>
						<path class="st3" d="M0,500"/>
					</g>
					<g>
						<path class="st3" d="M0,500"/>
					</g>
					<g>
						<path class="st3" d="M0,500"/>
					</g>
					<g>
						<path class="st3" d="M0,500"/>
					</g>
					<g>
						<path class="st3" d="M0,500"/>
					</g>
					<g>
						<path class="st3" d="M0,500"/>
					</g>
					<g>
						<path class="st3" d="M0,500"/>
					</g>
					<g>
						<path class="st3" d="M0,500"/>
					</g>
					<g>
						<path class="st3" d="M0,500"/>
					</g>
					<g>
						<path class="st3" d="M0,500"/>
					</g>
				</g>
			</g>
		</g>
	</g>
</g>
</svg>
