<?xml version="1.0" encoding="iso-8859-1"?>
<!-- Generator: Adobe Illustrator 29.6.1, SVG Export Plug-In . SVG Version: 9.03 Build 0)  -->
<svg version="1.1" id="Layer_1" xmlns="http://www.w3.org/2000/svg" xmlns:xlink="http://www.w3.org/1999/xlink" x="0px" y="0px"
	 viewBox="0 0 500 500" style="enable-background:new 0 0 500 500;" xml:space="preserve">
<defs>
	<filter id="Adobe_OpacityMaskFilter" filterUnits="userSpaceOnUse" x="61.5" y="101.5" width="372" height="277">
		<feColorMatrix  type="matrix" values="1 0 0 0 0  0 1 0 0 0  0 0 1 0 0  0 0 0 1 0"/>
	</filter>
</defs>
<mask maskUnits="userSpaceOnUse" x="61.5" y="101.5" width="372" height="277" id="InfPETz_WZa_00000069387534571118619150000005080937753357902997_">
	<path style="fill:#FFFFFF;filter:url(#Adobe_OpacityMaskFilter);" d="M447.5,88.174H48.514V393.95H367.5v-1.45
		c-66.255-32.376-65.445-80.178-64.894-112.719v-0.002c0.048-2.822,0.094-5.53,0.094-8.102c20.768-3.032,64.8-19.177,64.8-19.177
		s44.032,16.145,64.8,19.181l15.2-0.003V88.174z"/>
</mask>
<g style="mask:url(#InfPETz_WZa_00000069387534571118619150000005080937753357902997_);">
	<defs>
		
			<filter id="Adobe_OpacityMaskFilter_00000096054824315009955190000011084602427110313113_" filterUnits="userSpaceOnUse" x="101.5" y="141.5" width="332" height="237">
			<feColorMatrix  type="matrix" values="1 0 0 0 0  0 1 0 0 0  0 0 1 0 0  0 0 0 1 0"/>
		</filter>
	</defs>
	
		<mask maskUnits="userSpaceOnUse" x="101.5" y="141.5" width="332" height="237" id="mxFQHccS3ob_00000029029936222986143500000016591855100043116442_">
		
			<path style="fill-rule:evenodd;clip-rule:evenodd;fill:#FFFFFF;filter:url(#Adobe_OpacityMaskFilter_00000096054824315009955190000011084602427110313113_);" d="
			M447.5,91.567H50.743V393.95H447.5V91.567z M392.5,107.5h-325v230h325V107.5z"/>
	</mask>
	<g style="mask:url(#mxFQHccS3ob_00000029029936222986143500000016591855100043116442_);">
		<g>
			<path style="fill:#F9423A;" d="M427.5,378.5h-320c-3.314,0-6-2.687-6-6v-225c0-3.314,2.686-6,6-6h320c3.313,0,6,2.686,6,6v225
				C433.5,375.813,430.813,378.5,427.5,378.5z M113.5,366.5h308v-213h-308V366.5z"/>
		</g>
	</g>
	<g>
		<path style="fill:#F9423A;" d="M392.5,343.5h-325c-3.314,0-6-2.687-6-6v-230c0-3.314,2.686-6,6-6h325c3.313,0,6,2.686,6,6v230
			C398.5,340.813,395.813,343.5,392.5,343.5z M73.5,331.5h313v-218h-313V331.5z"/>
	</g>
	<g>
		<path style="fill:#F9423A;" d="M327.5,308.5h-195c-3.313,0-6-2.687-6-6c0-13.233-10.766-24-24-24c-3.313,0-6-2.687-6-6v-100
			c0-3.313,2.687-6,6-6c13.234,0,24-10.766,24-24c0-3.313,2.687-6,6-6h195c3.313,0,6,2.687,6,6c0,13.234,10.767,24,24,24
			c3.313,0,6,2.687,6,6v100c0,3.313-2.687,6-6,6c-13.233,0-24,10.767-24,24C333.5,305.813,330.813,308.5,327.5,308.5z M138,296.5
			h184c2.536-15.053,14.447-26.964,29.5-29.5v-89c-15.053-2.536-26.964-14.447-29.5-29.5H138c-2.536,15.053-14.447,26.964-29.5,29.5
			v89C123.552,269.536,135.463,281.447,138,296.5z"/>
	</g>
	<g>
		<path style="fill:#F9423A;" d="M300.009,230c-4.143,0-7.505-3.358-7.505-7.5s3.353-7.5,7.495-7.5h0.01c4.143,0,7.5,3.358,7.5,7.5
			S304.152,230,300.009,230z M160,230c-4.142,0-7.505-3.358-7.505-7.5s3.353-7.5,7.495-7.5H160c4.142,0,7.5,3.358,7.5,7.5
			S164.142,230,160,230z"/>
	</g>
	<g>
		<path style="fill:#F9423A;" d="M230,263.5c-22.607,0-41-18.393-41-41s18.393-41,41-41s41,18.393,41,41S252.607,263.5,230,263.5z
			 M230,193.5c-15.991,0-29,13.009-29,29s13.009,29,29,29s29-13.009,29-29S245.99,193.5,230,193.5z"/>
	</g>
</g>
<g>
	<path style="fill:#F9423A;" d="M367.5,398.5c-0.901,0-1.803-0.203-2.634-0.609c-30.68-14.991-50.448-34.441-60.438-59.464
		c-8.458-21.186-8.104-42.013-7.821-58.748c0.048-2.818,0.093-5.479,0.093-8.002c0-2.979,2.186-5.507,5.133-5.938
		c19.912-2.907,63.167-18.713,63.602-18.873c1.334-0.488,2.797-0.488,4.131,0c0.435,0.16,43.689,15.967,63.603,18.878
		c2.947,0.431,5.132,2.958,5.132,5.937c0,2.521,0.045,5.184,0.093,8.001c0.283,16.734,0.637,37.561-7.821,58.746
		c-9.989,25.021-29.758,44.472-60.438,59.463C369.302,398.297,368.401,398.5,367.5,398.5z M308.657,276.72
		c-0.016,1.034-0.033,2.087-0.052,3.162c-0.539,31.839-1.279,75.276,58.895,105.913c60.174-30.637,59.434-74.072,58.895-105.91
		c-0.019-1.075-0.036-2.128-0.052-3.162c-19.574-3.926-50.512-14.842-58.843-17.841C359.17,261.881,328.232,272.796,308.657,276.72z
		"/>
</g>
<g>
	<path style="fill:#F9423A;" d="M358.667,348.5c-0.001,0-0.002,0-0.003,0c-1.623-0.001-3.177-0.659-4.307-1.825l-16.167-16.688
		c-2.306-2.38-2.245-6.179,0.135-8.484c2.38-2.308,6.181-2.244,8.484,0.135l11.862,12.244l34.523-35.562
		c2.307-2.376,6.106-2.434,8.484-0.125c2.377,2.308,2.434,6.106,0.125,8.484l-38.833,40
		C361.841,347.843,360.289,348.5,358.667,348.5z"/>
</g>
</svg>
