<?xml version="1.0" encoding="iso-8859-1"?>
<!-- Generator: Adobe Illustrator 29.6.1, SVG Export Plug-In . SVG Version: 9.03 Build 0)  -->
<svg version="1.1" id="Layer_1" xmlns="http://www.w3.org/2000/svg" xmlns:xlink="http://www.w3.org/1999/xlink" x="0px" y="0px"
	 viewBox="0 0 500 500" style="enable-background:new 0 0 500 500;" xml:space="preserve">
<defs>
	<filter id="Adobe_OpacityMaskFilter" filterUnits="userSpaceOnUse" x="74" y="79" width="332" height="332">
		<feColorMatrix  type="matrix" values="1 0 0 0 0  0 1 0 0 0  0 0 1 0 0  0 0 0 1 0"/>
	</filter>
</defs>
<mask maskUnits="userSpaceOnUse" x="74" y="79" width="332" height="332" id="xtSmSScw7pa_00000070796720424885078510000010705212216083887294_">
	<path style="fill:#FFFFFF;filter:url(#Adobe_OpacityMaskFilter);" d="M415,70H65v350h350v-11.771c-3.793,4.31-9.259,6.778-15,6.771
		h-70c-11.046,0-20-8.954-20-20v-65h15v-25c0-22.091,17.909-40,40-40s40,17.909,40,40v25h10V70z"/>
</mask>
<g style="mask:url(#xtSmSScw7pa_00000070796720424885078510000010705212216083887294_);">
	<g>
		<path style="fill:#F9423A;" d="M380,411H100c-14.336,0-26-11.663-26-26V105c0-14.336,11.664-26,26-26h280
			c14.337,0,26,11.664,26,26v280C406,399.337,394.337,411,380,411z M100,91c-7.72,0-14,6.28-14,14v280c0,7.72,6.28,14,14,14h280
			c7.72,0,14-6.28,14-14V105c0-7.72-6.28-14-14-14H100z"/>
	</g>
</g>
<g>
	<path style="fill:#F9423A;" d="M400,141H80c-3.314,0-6-2.686-6-6s2.686-6,6-6h320c3.313,0,6,2.686,6,6S403.313,141,400,141z"/>
</g>
<g>
	<path style="fill:#F9423A;" d="M175.398,117.5h-0.1c-4.142,0-7.5-3.358-7.5-7.5s3.358-7.5,7.5-7.5h0.1c4.142,0,7.5,3.358,7.5,7.5
		S179.54,117.5,175.398,117.5z M145.298,117.5H145.1c-4.142,0-7.5-3.358-7.5-7.5s3.358-7.5,7.5-7.5h0.198c4.142,0,7.5,3.358,7.5,7.5
		S149.44,117.5,145.298,117.5z M115.1,117.5H115c-4.142,0-7.5-3.358-7.5-7.5s3.358-7.5,7.5-7.5h0.1c4.142,0,7.5,3.358,7.5,7.5
		S119.242,117.5,115.1,117.5z"/>
</g>
<g>
	<path style="fill:#F9423A;" d="M160,251c-14.336,0-26-11.664-26-26s11.664-26,26-26s26,11.664,26,26S174.336,251,160,251z M160,211
		c-7.72,0-14,6.28-14,14s6.28,14,14,14s14-6.28,14-14S167.72,211,160,211z"/>
</g>
<g>
	<path style="fill:#F9423A;" d="M205,311h-90c-3.313,0-6-2.687-6-6v-10c0-19.851,16.149-36,36-36h30c19.851,0,36,16.149,36,36v10
		C211,308.313,208.313,311,205,311z M121,299h78v-4c0-13.233-10.766-24-24-24h-30c-13.234,0-24,10.767-24,24V299z"/>
</g>
<g>
	<path style="fill:#F9423A;" d="M295,311h-50c-3.313,0-6-2.687-6-6s2.687-6,6-6h50c3.313,0,6,2.687,6,6S298.313,311,295,311z
		 M345,276H245c-3.313,0-6-2.687-6-6s2.687-6,6-6h100c3.313,0,6,2.687,6,6S348.313,276,345,276z M365,241H245c-3.313,0-6-2.687-6-6
		s2.687-6,6-6h120c3.313,0,6,2.687,6,6S368.313,241,365,241z"/>
</g>
<g>
	<path style="fill:#F9423A;" d="M400,421h-70c-14.337,0-26-11.663-26-26v-65c0-3.313,2.687-6,6-6h110c3.313,0,6,2.687,6,6v65
		C426,409.337,414.337,421,400,421z M316,336v59c0,7.72,6.28,14,14,14h70c7.72,0,14-6.28,14-14v-59H316z"/>
</g>
<g>
	<path style="fill:#F9423A;" d="M365,391c-3.313,0-6-2.687-6-6v-20c0-3.313,2.687-6,6-6s6,2.687,6,6v20
		C371,388.313,368.313,391,365,391z"/>
</g>
<g>
	<path style="fill:#F9423A;" d="M405,336c-3.313,0-6-2.687-6-6v-25c0-18.748-15.252-34-34-34s-34,15.252-34,34v25
		c0,3.313-2.687,6-6,6s-6-2.687-6-6v-25c0-25.364,20.636-46,46-46s46,20.636,46,46v25C411,333.313,408.313,336,405,336z"/>
</g>
</svg>
