<?xml version="1.0" encoding="iso-8859-1"?>
<!-- Generator: Adobe Illustrator 29.6.1, SVG Export Plug-In . SVG Version: 9.03 Build 0)  -->
<svg version="1.1" id="Layer_1" xmlns="http://www.w3.org/2000/svg" xmlns:xlink="http://www.w3.org/1999/xlink" x="0px" y="0px"
	 viewBox="0 0 500 500" style="enable-background:new 0 0 500 500;" xml:space="preserve">
<g>
	<path style="fill:#F9423A;" d="M415.059,207.1c-9.83-14.14-23.32-25.11-39.14-31.84c-19.93-44.41-63.94-72.97-112.82-72.97
		c-44.63,0-85.4,23.83-107.51,62.51c-2.2-0.44-4.44-0.7-6.72-0.78c-0.52-0.02-1.04-0.03-1.57-0.03h-0.1c-0.01,0-0.01,0-0.02,0
		c-23.44,0.07-42.48,19.15-42.48,42.6c0,1.61,0.09,3.19,0.27,4.76c-22.36,13.5-36.07,37.53-36.07,63.74
		c0,41.08,33.42,74.5,74.5,74.5h56.452c-3.119-3.96-5.846-7.967-8.231-12h-48.221c-34.46,0-62.5-28.04-62.5-62.5
		c0-23.21,12.84-44.39,33.5-55.29c2.41-1.27,3.66-4.01,3.05-6.66c-0.51-2.17-0.75-4.32-0.75-6.55c0-16.84,13.68-30.55,30.5-30.6
		c0.4,0,0.8,0.01,1.2,0.02c12.38,0.49,23.4,8.53,27.66,20.32c0.88,2.44,3.19,3.96,5.64,3.96c0.68,0,1.37-0.11,2.04-0.36
		c3.12-1.13,4.73-4.56,3.6-7.68c-3.7-10.23-11.06-18.42-20.27-23.3c20.2-33.87,56.43-54.66,96.03-54.66
		c44.89,0,85.23,26.67,102.78,67.95c0.11,0.27,0.25,0.53,0.4,0.77c5.66,13.48,8.52,27.9,8.52,42.87c0,0.12-0.08,11.85-4.08,26.09
		c-0.89,3.19,0.97,6.5,4.16,7.4c0.54,0.15,1.09,0.22,1.62,0.22c2.62,0,5.03-1.73,5.78-4.38c4.47-15.91,4.52-28.78,4.52-29.32
		c0-11.66-1.57-23.03-4.68-33.95c22.99,14.23,37.13,39.17,36.98,66.85c0,43.45-35.35,78.8-78.8,78.8h-21.001
		c-2.385,4.033-5.112,8.04-8.231,12h29.231c50.07,0,90.8-40.73,90.8-90.77C431.199,240.23,425.659,222.35,415.059,207.1z"/>
	<g>
		<path style="fill:#F9423A;" d="M255.459,397.71c-0.89,0-1.779-0.198-2.602-0.594c-85.152-40.98-84.103-102.003-83.408-142.384
			c0.059-3.427,0.115-6.663,0.115-9.736c0-2.983,2.192-5.514,5.146-5.939c24.702-3.552,78.173-22.796,78.71-22.99
			c1.318-0.475,2.758-0.475,4.076,0c0.537,0.194,54.008,19.438,78.711,22.995c2.952,0.425,5.145,2.956,5.145,5.939
			c0,3.072,0.056,6.31,0.114,9.736c0.695,40.378,1.745,101.398-83.406,142.379C257.239,397.511,256.349,397.71,255.459,397.71z
			 M181.526,250.074c-0.021,1.584-0.049,3.202-0.078,4.865c-0.673,39.106-1.588,92.504,74.011,130.092
			c75.598-37.587,74.683-90.983,74.01-130.088c-0.028-1.663-0.057-3.281-0.077-4.865c-24.336-4.621-64.346-18.588-73.933-21.996
			C245.872,231.49,205.863,245.457,181.526,250.074z"/>
	</g>
	<g>
		<path style="fill:#F9423A;" d="M243.72,337.435c-1.591,0-3.117-0.632-4.243-1.758l-21.316-21.316
			c-2.343-2.343-2.343-6.142,0-8.485c2.343-2.342,6.142-2.343,8.485,0.001l17.066,17.066l46.29-46.442
			c2.339-2.348,6.137-2.354,8.485-0.013c2.347,2.339,2.353,6.138,0.013,8.485l-50.531,50.697c-1.125,1.129-2.652,1.764-4.245,1.765
			C243.724,337.435,243.722,337.435,243.72,337.435z"/>
	</g>
</g>
</svg>
