<?xml version="1.0" encoding="utf-8"?>
<!-- Generator: Adobe Illustrator 27.5.0, SVG Export Plug-In . SVG Version: 6.00 Build 0)  -->
<svg version="1.1" id="Layer_1" xmlns="http://www.w3.org/2000/svg" xmlns:xlink="http://www.w3.org/1999/xlink" x="0px" y="0px"
	 viewBox="0 0 500 500" style="enable-background:new 0 0 500 500;" xml:space="preserve">
<style type="text/css">
	.st0{clip-path:url(#SVGID_00000150084927586462364990000002399076057091032497_);}
	.st1{fill:#F9423A;}
	.st2{display:none;fill:none;stroke:#F9423A;stroke-width:12;stroke-linecap:round;stroke-linejoin:round;}
	.st3{fill:none;stroke:#F9423A;stroke-width:12;stroke-linecap:round;stroke-linejoin:round;}
</style>
<g>
	<g>
		<g>
			<defs>
				<rect id="SVGID_1_" width="500" height="500"/>
			</defs>
			<clipPath id="SVGID_00000140014991406753517190000016632614544542358680_">
				<use xlink:href="#SVGID_1_"  style="overflow:visible;"/>
			</clipPath>
			<g style="clip-path:url(#SVGID_00000140014991406753517190000016632614544542358680_);">
				<g>
					<g>
						<path class="st1" d="M289.4,336.5h-71.5c-3.3,0-6-2.7-6-6V313c-13.8-9.9-23.7-24.2-28.1-40.5l-9.1-33.3
							c-1.9-7.2,2.1-14.6,9.1-16.9c6.7-2.2,13.8-1.6,20.1,1.7c1.7,0.9,3.3,2,4.8,3.2v-53.4c0-9.1,7.4-16.5,16.5-16.5
							c2.2,0,4.3,0.4,6.2,1.1c1.9-7.4,8.6-12.9,16.6-12.9c7.3,0,13.5,4.5,16,10.9c1.8-0.7,3.7-1,5.8-1c9.8,0,17.8,8,17.8,17.8v1.7
							c1.6-0.5,3.3-0.7,5-0.7c9.4,0,17.1,7.7,17.1,17.1v47.3c0.1,0.5,0.2,1,0.2,1.6c0,0.1-0.1,10-0.1,32.2
							c0,20.1-10.2,34.7-14.3,39.7v18.5C295.4,333.8,292.7,336.5,289.4,336.5z M223.9,324.5h59.5v-14.7c0-1.5,0.6-3,1.7-4.1
							c0.1-0.1,12.6-13.7,12.6-33.4c0-16.5,0.1-26.2,0.1-30.2c-0.1-0.5-0.2-1-0.2-1.5v-49.4c0-2.8-2.3-5.1-5.1-5.1
							c-2.4,0-4.5,1.8-5,4.1v50.5c0,3.3-2.7,6-6,6c-1.7,0-3.2-0.7-4.3-1.8c-1.1-1.1-1.8-2.6-1.8-4.3v-49.4c0-0.6,0-1.2,0.1-1.9
							v-16.2c0-3.2-2.6-5.8-5.8-5.8c-2.5,0-4.5,2-4.5,4.5v68.8c0,3.3-2.7,6-6,6h-0.1c-3.3,0-6-2.7-6-6v-78.1c0-2.8-2.3-5.1-5.1-5.1
							s-5.1,2.3-5.1,5.1v10.6c0.1,0.6,0.1,1.3,0.1,1.9v65.6c0,3.3-2.7,6-6,6h-0.1c-3.3,0-6-2.7-6-6v-66.7c-0.5-2.7-2.9-4.7-5.7-4.7
							c-2.5,0-4.5,2-4.5,4.5v65.2c0.1,0.4,0.1,0.8,0.1,1.1l-0.1,13.5c0,3-2.2,5.5-5.1,5.9c-2.9,0.4-5.7-1.4-6.6-4.2l-3.7-12.3
							c-1.1-3.6-3.5-6.6-6.9-8.3c-3.4-1.8-7.2-2.1-10.8-0.9c-1,0.3-1.5,1.3-1.3,2.3l9.1,33.3c3.9,14.5,13.1,27.1,25.8,35.5
							c1.7,1.1,2.7,3,2.7,5L223.9,324.5L223.9,324.5z"/>
					</g>
					<g>
						<path class="st1" d="M250,416.1c-0.1,0-0.1,0-0.2,0c-1.1,0-2.2-0.3-3.2-0.9c-32.6-13.9-60.6-36.9-83.1-68.5
							c-18.1-25.4-32.7-56.3-43.5-91.8c-18.3-60.3-19.1-112.5-19.2-114.7c0-2.2,1.2-4.3,3.2-5.4c0.7-0.4,66.4-35.2,144.9-50.8
							c1.3-0.3,2.5-0.1,3.6,0.4c77.8,15.7,142.8,50.2,143.4,50.5c2,1.1,3.2,3.1,3.2,5.4c0,2.2-0.9,54.4-19.2,114.7
							c-10.8,35.6-25.4,66.5-43.5,91.8c-22.5,31.6-50.5,54.7-83.1,68.5C252.2,415.8,251.1,416.1,250,416.1z M112.9,143.6
							c0.5,12.9,3.5,58.2,18.6,108c16.1,53,49.7,122,118.4,151.9c68.7-29.9,102.3-98.9,118.4-151.9c15.1-49.8,18.1-95,18.6-108
							c-14-7.1-70.9-34.4-137.2-47.7C183.4,109.4,126.9,136.6,112.9,143.6z"/>
					</g>
				</g>
				<g>
					<g>
						<g>
							<path class="st2" d="M0,500"/>
						</g>
					</g>
					<g>
						<g>
							<path class="st3" d="M0,500"/>
						</g>
					</g>
					<g>
						<g>
							<path class="st3" d="M0,500"/>
						</g>
					</g>
					<g>
						<g>
							<path class="st3" d="M0,500"/>
						</g>
					</g>
					<g>
						<g>
							<path class="st3" d="M0,500"/>
						</g>
					</g>
					<g>
						<g>
							<path class="st3" d="M0,500"/>
						</g>
					</g>
					<g>
						<g>
							<path class="st3" d="M0,500"/>
						</g>
					</g>
					<g>
						<g>
							<path class="st3" d="M0,500"/>
						</g>
					</g>
					<g>
						<g>
							<path class="st3" d="M0,500"/>
						</g>
					</g>
					<g>
						<g>
							<path class="st3" d="M0,500"/>
						</g>
					</g>
					<g>
						<g>
							<path class="st3" d="M0,500"/>
						</g>
					</g>
					<g>
						<g>
							<path class="st3" d="M0,500"/>
						</g>
					</g>
				</g>
			</g>
		</g>
	</g>
</g>
</svg>
