<?xml version="1.0" encoding="utf-8"?>
<!-- Generator: Adobe Illustrator 27.5.0, SVG Export Plug-In . SVG Version: 6.00 Build 0)  -->
<svg version="1.1" id="Layer_1" xmlns="http://www.w3.org/2000/svg" xmlns:xlink="http://www.w3.org/1999/xlink" x="0px" y="0px"
	 viewBox="0 0 500 500" style="enable-background:new 0 0 500 500;" xml:space="preserve">
<style type="text/css">
	.st0{fill:#F9423A;}
	.st1{display:none;fill:none;stroke:#F9423A;stroke-width:3.5;stroke-linecap:round;stroke-linejoin:round;}
	.st2{fill:none;stroke:#F9423A;stroke-width:3.5;stroke-linecap:round;stroke-linejoin:round;}
</style>
<g>
	<g>
		<g>
			<path class="st0" d="M233.9,244.8c-3.3,0-6-2.7-6-6v-70.6c0-32.4-26.4-58.8-58.8-58.8h-10.9c-32.4,0-58.8,23.1-58.9,51.4
				l-0.1,57.4c0,3.3-2.7,6-6,6l0,0c-3.3,0-6-2.7-6-6l0.1-57.4c0.1-35,31.9-63.4,70.9-63.4h10.9c39,0,70.8,31.8,70.8,70.8v70.6
				C239.9,242.1,237.2,244.8,233.9,244.8z"/>
		</g>
		<g>
			<path class="st0" d="M374,399.5H248.4c-25.1,0-45.6-20.5-45.6-45.6V239.5c0-3.1,2.1-5.7,5.2-6.5c0.5-0.1,1-0.2,1.5-0.2H413
				c3.7,0,6.8,3,6.8,6.7v40.3c0,0.1,0,0.3,0,0.4c-0.1,3-0.2,45.5-0.2,73.7C419.6,379,399.1,399.5,374,399.5z M214.8,244.8v109.1
				c0,18.5,15.1,33.6,33.6,33.6H374c18.5,0,33.6-15.1,33.6-33.6l0,0c0,0,0-18.5,0.1-37.1c0-9.3,0-18.5,0.1-25.5c0-3.5,0-6.4,0-8.4
				c0-1,0-1.8,0-2.4c0-0.3,0-0.5,0-0.8l0,0v-35L214.8,244.8L214.8,244.8z"/>
		</g>
		<g>
			<path class="st0" d="M310.8,352.3c-20.1-0.1-36.4-16.4-36.4-36.4c0-20.1,16.3-36.4,36.4-36.4s36.4,16.3,36.4,36.4
				C347.2,336,330.9,352.3,310.8,352.3z M310.8,291.5c-13.5,0-24.4,10.9-24.4,24.4c0,13.4,11,24.3,24.4,24.4
				c13.4,0,24.4-10.9,24.4-24.4S324.3,291.5,310.8,291.5z"/>
		</g>
	</g>
	<g>
		<g>
			<path class="st1" d="M0,500"/>
		</g>
		<g>
			<path class="st2" d="M0,500"/>
		</g>
		<g>
			<path class="st2" d="M0,500"/>
		</g>
		<g>
			<path class="st2" d="M0,500"/>
		</g>
		<g>
			<path class="st2" d="M0,500"/>
		</g>
		<g>
			<path class="st2" d="M0,500"/>
		</g>
		<g>
			<path class="st2" d="M0,500"/>
		</g>
		<g>
			<path class="st2" d="M0,500"/>
		</g>
		<g>
			<path class="st2" d="M0,500"/>
		</g>
		<g>
			<path class="st2" d="M0,500"/>
		</g>
		<g>
			<path class="st2" d="M0,500"/>
		</g>
		<g>
			<path class="st2" d="M0,500"/>
		</g>
	</g>
</g>
</svg>
