<?xml version="1.0" encoding="utf-8"?>
<!-- Generator: Adobe Illustrator 27.5.0, SVG Export Plug-In . SVG Version: 6.00 Build 0)  -->
<svg version="1.1" id="Layer_1" xmlns="http://www.w3.org/2000/svg" xmlns:xlink="http://www.w3.org/1999/xlink" x="0px" y="0px"
	 viewBox="0 0 500 500" style="enable-background:new 0 0 500 500;" xml:space="preserve">
<style type="text/css">
	.st0{clip-path:url(#SVGID_00000142161215808024246610000002812419008527734973_);}
	.st1{fill:#F9423A;}
	.st2{fill:none;}
	.st3{display:none;fill:none;stroke:#F9423A;stroke-width:10.472;}
	.st4{fill:none;stroke:#F9423A;stroke-width:10.472;}
</style>
<g>
	<g>
		<g>
			<defs>
				<rect id="SVGID_1_" width="500" height="500"/>
			</defs>
			<clipPath id="SVGID_00000025419368192618859180000011285029402391185341_">
				<use xlink:href="#SVGID_1_"  style="overflow:visible;"/>
			</clipPath>
			<g style="clip-path:url(#SVGID_00000025419368192618859180000011285029402391185341_);">
				<g>
					<path class="st1" d="M394,373.8H106.2c-11.6,0-21-9.4-21-21v-48.5c0-11.6,9.4-21,21-21H394c11.6,0,21,9.4,21,21v48.5
						C415,364.4,405.6,373.8,394,373.8z M106.2,295.3c-5,0-9,4-9,9v48.5c0,5,4,9,9,9H394c5,0,9-4,9-9v-48.5c0-5-4-9-9-9H106.2z"/>
				</g>
				<g>
					<g>
						<path class="st1" d="M241.6,311.7c4.1,0,7.5,3.2,7.5,7.2s-3.4,7.2-7.5,7.2s-7.5-3.2-7.5-7.2
							C234.1,315,237.5,311.7,241.6,311.7z"/>
					</g>
					<g>
						<path class="st2" d="M241.6,311.7c4.1,0,7.5,3.2,7.5,7.2s-3.4,7.2-7.5,7.2s-7.5-3.2-7.5-7.2
							C234.1,315,237.5,311.7,241.6,311.7z"/>
					</g>
					<g>
						<path class="st1" d="M265,311.7c4.1,0,7.5,3.2,7.5,7.2s-3.4,7.2-7.5,7.2s-7.5-3.2-7.5-7.2C257.5,315,260.8,311.7,265,311.7z"
							/>
					</g>
					<g>
						<path class="st2" d="M265,311.7c4.1,0,7.5,3.2,7.5,7.2s-3.4,7.2-7.5,7.2s-7.5-3.2-7.5-7.2C257.5,315,260.8,311.7,265,311.7z"
							/>
					</g>
					<g>
						<path class="st1" d="M288.3,311.7c4.1,0,7.5,3.2,7.5,7.2s-3.4,7.2-7.5,7.2s-7.5-3.2-7.5-7.2
							C280.9,315,284.2,311.7,288.3,311.7z"/>
					</g>
					<g>
						<path class="st2" d="M288.3,311.7c4.1,0,7.5,3.2,7.5,7.2s-3.4,7.2-7.5,7.2s-7.5-3.2-7.5-7.2
							C280.9,315,284.2,311.7,288.3,311.7z"/>
					</g>
					<g>
						<path class="st1" d="M311.7,311.7c4.1,0,7.5,3.2,7.5,7.2s-3.4,7.2-7.5,7.2s-7.5-3.2-7.5-7.2
							C304.2,315,307.6,311.7,311.7,311.7z"/>
					</g>
					<g>
						<path class="st2" d="M311.7,311.7c4.1,0,7.5,3.2,7.5,7.2s-3.4,7.2-7.5,7.2s-7.5-3.2-7.5-7.2
							C304.2,315,307.6,311.7,311.7,311.7z"/>
					</g>
					<g>
						<path class="st1" d="M335.1,311.7c4.1,0,7.5,3.2,7.5,7.2s-3.4,7.2-7.5,7.2s-7.5-3.2-7.5-7.2C327.6,315,331,311.7,335.1,311.7z
							"/>
					</g>
					<g>
						<path class="st2" d="M335.1,311.7c4.1,0,7.5,3.2,7.5,7.2s-3.4,7.2-7.5,7.2s-7.5-3.2-7.5-7.2C327.6,315,331,311.7,335.1,311.7z
							"/>
					</g>
					<g>
						<path class="st1" d="M358.5,311.7c4.1,0,7.5,3.2,7.5,7.2s-3.4,7.2-7.5,7.2s-7.5-3.2-7.5-7.2C351,315,354.3,311.7,358.5,311.7z
							"/>
					</g>
					<g>
						<path class="st2" d="M358.5,311.7c4.1,0,7.5,3.2,7.5,7.2s-3.4,7.2-7.5,7.2s-7.5-3.2-7.5-7.2C351,315,354.3,311.7,358.5,311.7z
							"/>
					</g>
					<g>
						<path class="st1" d="M381.8,311.7c4.1,0,7.5,3.2,7.5,7.2s-3.4,7.2-7.5,7.2s-7.5-3.2-7.5-7.2
							C374.4,315,377.7,311.7,381.8,311.7z"/>
					</g>
					<g>
						<path class="st2" d="M381.8,311.7c4.1,0,7.5,3.2,7.5,7.2s-3.4,7.2-7.5,7.2s-7.5-3.2-7.5-7.2
							C374.4,315,377.7,311.7,381.8,311.7z"/>
					</g>
					<g>
						<path class="st1" d="M241.6,335.1c4.1,0,7.5,3.2,7.5,7.2s-3.4,7.2-7.5,7.2s-7.5-3.2-7.5-7.2
							C234.1,338.4,237.5,335.1,241.6,335.1L241.6,335.1z"/>
					</g>
					<g>
						<path class="st2" d="M241.6,335.1c4.1,0,7.5,3.2,7.5,7.2s-3.4,7.2-7.5,7.2s-7.5-3.2-7.5-7.2
							C234.1,338.4,237.5,335.1,241.6,335.1L241.6,335.1z"/>
					</g>
					<g>
						<path class="st1" d="M265,335.1c4.1,0,7.5,3.2,7.5,7.2s-3.4,7.2-7.5,7.2s-7.5-3.2-7.5-7.2C257.5,338.4,260.8,335.1,265,335.1
							L265,335.1z"/>
					</g>
					<g>
						<path class="st2" d="M265,335.1c4.1,0,7.5,3.2,7.5,7.2s-3.4,7.2-7.5,7.2s-7.5-3.2-7.5-7.2C257.5,338.4,260.8,335.1,265,335.1
							L265,335.1z"/>
					</g>
					<g>
						<path class="st1" d="M288.3,335.1c4.1,0,7.5,3.2,7.5,7.2s-3.4,7.2-7.5,7.2s-7.5-3.2-7.5-7.2
							C280.9,338.4,284.2,335.1,288.3,335.1L288.3,335.1z"/>
					</g>
					<g>
						<path class="st2" d="M288.3,335.1c4.1,0,7.5,3.2,7.5,7.2s-3.4,7.2-7.5,7.2s-7.5-3.2-7.5-7.2
							C280.9,338.4,284.2,335.1,288.3,335.1L288.3,335.1z"/>
					</g>
					<g>
						<path class="st1" d="M311.7,335.1c4.1,0,7.5,3.2,7.5,7.2s-3.4,7.2-7.5,7.2s-7.5-3.2-7.5-7.2
							C304.2,338.4,307.6,335.1,311.7,335.1L311.7,335.1z"/>
					</g>
					<g>
						<path class="st2" d="M311.7,335.1c4.1,0,7.5,3.2,7.5,7.2s-3.4,7.2-7.5,7.2s-7.5-3.2-7.5-7.2
							C304.2,338.4,307.6,335.1,311.7,335.1L311.7,335.1z"/>
					</g>
					<g>
						<path class="st1" d="M335.1,335.1c4.1,0,7.5,3.2,7.5,7.2s-3.4,7.2-7.5,7.2s-7.5-3.2-7.5-7.2
							C327.6,338.4,331,335.1,335.1,335.1L335.1,335.1z"/>
					</g>
					<g>
						<path class="st2" d="M335.1,335.1c4.1,0,7.5,3.2,7.5,7.2s-3.4,7.2-7.5,7.2s-7.5-3.2-7.5-7.2
							C327.6,338.4,331,335.1,335.1,335.1L335.1,335.1z"/>
					</g>
					<g>
						<path class="st1" d="M358.5,335.1c4.1,0,7.5,3.2,7.5,7.2s-3.4,7.2-7.5,7.2s-7.5-3.2-7.5-7.2
							C351,338.4,354.3,335.1,358.5,335.1L358.5,335.1z"/>
					</g>
					<g>
						<path class="st2" d="M358.5,335.1c4.1,0,7.5,3.2,7.5,7.2s-3.4,7.2-7.5,7.2s-7.5-3.2-7.5-7.2
							C351,338.4,354.3,335.1,358.5,335.1L358.5,335.1z"/>
					</g>
					<g>
						<path class="st1" d="M381.8,335.1c4.1,0,7.5,3.2,7.5,7.2s-3.4,7.2-7.5,7.2s-7.5-3.2-7.5-7.2
							C374.4,338.4,377.7,335.1,381.8,335.1L381.8,335.1z"/>
					</g>
					<g>
						<path class="st2" d="M381.8,335.1c4.1,0,7.5,3.2,7.5,7.2s-3.4,7.2-7.5,7.2s-7.5-3.2-7.5-7.2
							C374.4,338.4,377.7,335.1,381.8,335.1L381.8,335.1z"/>
					</g>
					<g>
						<path class="st1" d="M136.9,351.5c-11.6,0-21-9.4-21-21s9.4-21,21-21s21,9.4,21,21S148.5,351.5,136.9,351.5z M136.9,321.5
							c-5,0-9,4-9,9s4,9,9,9s9-4,9-9S141.9,321.5,136.9,321.5z"/>
					</g>
				</g>
				<g>
					<path class="st1" d="M394,295.3H106.2c-11.6,0-21-9.4-21-21v-48.5c0-11.6,9.4-21,21-21H394c11.6,0,21,9.4,21,21v48.5
						C415,285.9,405.6,295.3,394,295.3z M106.2,216.8c-5,0-9,4-9,9v48.5c0,5,4,9,9,9H394c5,0,9-4,9-9v-48.5c0-5-4-9-9-9L106.2,216.8
						L106.2,216.8z"/>
				</g>
				<g>
					<g>
						<path class="st1" d="M241.6,233.2c4.1,0,7.5,3.2,7.5,7.2s-3.4,7.2-7.5,7.2s-7.5-3.2-7.5-7.2S237.5,233.2,241.6,233.2z"/>
					</g>
					<g>
						<path class="st2" d="M241.6,233.2c4.1,0,7.5,3.2,7.5,7.2s-3.4,7.2-7.5,7.2s-7.5-3.2-7.5-7.2S237.5,233.2,241.6,233.2z"/>
					</g>
					<g>
						<path class="st1" d="M265,233.2c4.1,0,7.5,3.2,7.5,7.2s-3.4,7.2-7.5,7.2s-7.5-3.2-7.5-7.2S260.8,233.2,265,233.2z"/>
					</g>
					<g>
						<path class="st2" d="M265,233.2c4.1,0,7.5,3.2,7.5,7.2s-3.4,7.2-7.5,7.2s-7.5-3.2-7.5-7.2S260.8,233.2,265,233.2z"/>
					</g>
					<g>
						<path class="st1" d="M288.3,233.2c4.1,0,7.5,3.2,7.5,7.2s-3.4,7.2-7.5,7.2s-7.5-3.2-7.5-7.2
							C280.9,236.4,284.2,233.2,288.3,233.2z"/>
					</g>
					<g>
						<path class="st2" d="M288.3,233.2c4.1,0,7.5,3.2,7.5,7.2s-3.4,7.2-7.5,7.2s-7.5-3.2-7.5-7.2
							C280.9,236.4,284.2,233.2,288.3,233.2z"/>
					</g>
					<g>
						<path class="st1" d="M311.7,233.2c4.1,0,7.5,3.2,7.5,7.2s-3.4,7.2-7.5,7.2s-7.5-3.2-7.5-7.2S307.6,233.2,311.7,233.2z"/>
					</g>
					<g>
						<path class="st2" d="M311.7,233.2c4.1,0,7.5,3.2,7.5,7.2s-3.4,7.2-7.5,7.2s-7.5-3.2-7.5-7.2S307.6,233.2,311.7,233.2z"/>
					</g>
					<g>
						<path class="st1" d="M335.1,233.2c4.1,0,7.5,3.2,7.5,7.2s-3.4,7.2-7.5,7.2s-7.5-3.2-7.5-7.2S331,233.2,335.1,233.2z"/>
					</g>
					<g>
						<path class="st2" d="M335.1,233.2c4.1,0,7.5,3.2,7.5,7.2s-3.4,7.2-7.5,7.2s-7.5-3.2-7.5-7.2S331,233.2,335.1,233.2z"/>
					</g>
					<g>
						<path class="st1" d="M358.5,233.2c4.1,0,7.5,3.2,7.5,7.2s-3.4,7.2-7.5,7.2s-7.5-3.2-7.5-7.2S354.3,233.2,358.5,233.2z"/>
					</g>
					<g>
						<path class="st2" d="M358.5,233.2c4.1,0,7.5,3.2,7.5,7.2s-3.4,7.2-7.5,7.2s-7.5-3.2-7.5-7.2S354.3,233.2,358.5,233.2z"/>
					</g>
					<g>
						<path class="st1" d="M381.8,233.2c4.1,0,7.5,3.2,7.5,7.2s-3.4,7.2-7.5,7.2s-7.5-3.2-7.5-7.2
							C374.4,236.4,377.7,233.2,381.8,233.2z"/>
					</g>
					<g>
						<path class="st2" d="M381.8,233.2c4.1,0,7.5,3.2,7.5,7.2s-3.4,7.2-7.5,7.2s-7.5-3.2-7.5-7.2
							C374.4,236.4,377.7,233.2,381.8,233.2z"/>
					</g>
					<g>
						<path class="st1" d="M241.6,256.6c4.1,0,7.5,3.2,7.5,7.2s-3.4,7.2-7.5,7.2s-7.5-3.2-7.5-7.2
							C234.1,259.8,237.5,256.6,241.6,256.6L241.6,256.6z"/>
					</g>
					<g>
						<path class="st2" d="M241.6,256.6c4.1,0,7.5,3.2,7.5,7.2s-3.4,7.2-7.5,7.2s-7.5-3.2-7.5-7.2
							C234.1,259.8,237.5,256.6,241.6,256.6L241.6,256.6z"/>
					</g>
					<g>
						<path class="st1" d="M265,256.6c4.1,0,7.5,3.2,7.5,7.2s-3.4,7.2-7.5,7.2s-7.5-3.2-7.5-7.2C257.5,259.8,260.8,256.6,265,256.6
							L265,256.6z"/>
					</g>
					<g>
						<path class="st2" d="M265,256.6c4.1,0,7.5,3.2,7.5,7.2s-3.4,7.2-7.5,7.2s-7.5-3.2-7.5-7.2C257.5,259.8,260.8,256.6,265,256.6
							L265,256.6z"/>
					</g>
					<g>
						<path class="st1" d="M288.3,256.6c4.1,0,7.5,3.2,7.5,7.2s-3.4,7.2-7.5,7.2s-7.5-3.2-7.5-7.2
							C280.9,259.8,284.2,256.6,288.3,256.6L288.3,256.6z"/>
					</g>
					<g>
						<path class="st2" d="M288.3,256.6c4.1,0,7.5,3.2,7.5,7.2s-3.4,7.2-7.5,7.2s-7.5-3.2-7.5-7.2
							C280.9,259.8,284.2,256.6,288.3,256.6L288.3,256.6z"/>
					</g>
					<g>
						<path class="st1" d="M311.7,256.6c4.1,0,7.5,3.2,7.5,7.2s-3.4,7.2-7.5,7.2s-7.5-3.2-7.5-7.2
							C304.2,259.8,307.6,256.6,311.7,256.6L311.7,256.6z"/>
					</g>
					<g>
						<path class="st2" d="M311.7,256.6c4.1,0,7.5,3.2,7.5,7.2s-3.4,7.2-7.5,7.2s-7.5-3.2-7.5-7.2
							C304.2,259.8,307.6,256.6,311.7,256.6L311.7,256.6z"/>
					</g>
					<g>
						<path class="st1" d="M335.1,256.6c4.1,0,7.5,3.2,7.5,7.2s-3.4,7.2-7.5,7.2s-7.5-3.2-7.5-7.2
							C327.6,259.8,331,256.6,335.1,256.6L335.1,256.6z"/>
					</g>
					<g>
						<path class="st2" d="M335.1,256.6c4.1,0,7.5,3.2,7.5,7.2s-3.4,7.2-7.5,7.2s-7.5-3.2-7.5-7.2
							C327.6,259.8,331,256.6,335.1,256.6L335.1,256.6z"/>
					</g>
					<g>
						<path class="st1" d="M358.5,256.6c4.1,0,7.5,3.2,7.5,7.2s-3.4,7.2-7.5,7.2s-7.5-3.2-7.5-7.2
							C351,259.8,354.3,256.6,358.5,256.6L358.5,256.6z"/>
					</g>
					<g>
						<path class="st2" d="M358.5,256.6c4.1,0,7.5,3.2,7.5,7.2s-3.4,7.2-7.5,7.2s-7.5-3.2-7.5-7.2
							C351,259.8,354.3,256.6,358.5,256.6L358.5,256.6z"/>
					</g>
					<g>
						<path class="st1" d="M381.8,256.6c4.1,0,7.5,3.2,7.5,7.2s-3.4,7.2-7.5,7.2s-7.5-3.2-7.5-7.2
							C374.4,259.8,377.7,256.6,381.8,256.6L381.8,256.6z"/>
					</g>
					<g>
						<path class="st2" d="M381.8,256.6c4.1,0,7.5,3.2,7.5,7.2s-3.4,7.2-7.5,7.2s-7.5-3.2-7.5-7.2
							C374.4,259.8,377.7,256.6,381.8,256.6L381.8,256.6z"/>
					</g>
					<g>
						<path class="st1" d="M136.9,272.9c-11.6,0-21-9.4-21-21s9.4-21,21-21s21,9.4,21,21S148.5,272.9,136.9,272.9z M136.9,242.9
							c-5,0-9,4-9,9s4,9,9,9s9-4,9-9S141.9,242.9,136.9,242.9z"/>
					</g>
				</g>
				<g>
					<path class="st1" d="M394,216.7H106.2c-11.6,0-21-9.4-21-21v-48.5c0-11.6,9.4-21,21-21H394c11.6,0,21,9.4,21,21v48.5
						C415,207.3,405.6,216.7,394,216.7z M106.2,138.2c-5,0-9,4-9,9v48.5c0,5,4,9,9,9H394c5,0,9-4,9-9v-48.5c0-5-4-9-9-9H106.2z"/>
				</g>
				<g>
					<g>
						<path class="st1" d="M241.6,154.7c4.1,0,7.5,3.2,7.5,7.2s-3.4,7.2-7.5,7.2s-7.5-3.2-7.5-7.2S237.5,154.7,241.6,154.7z"/>
					</g>
					<g>
						<path class="st2" d="M241.6,154.7c4.1,0,7.5,3.2,7.5,7.2s-3.4,7.2-7.5,7.2s-7.5-3.2-7.5-7.2S237.5,154.7,241.6,154.7z"/>
					</g>
					<g>
						<path class="st1" d="M265,154.7c4.1,0,7.5,3.2,7.5,7.2s-3.4,7.2-7.5,7.2s-7.5-3.2-7.5-7.2S260.8,154.7,265,154.7z"/>
					</g>
					<g>
						<path class="st2" d="M265,154.7c4.1,0,7.5,3.2,7.5,7.2s-3.4,7.2-7.5,7.2s-7.5-3.2-7.5-7.2S260.8,154.7,265,154.7z"/>
					</g>
					<g>
						<path class="st1" d="M288.3,154.7c4.1,0,7.5,3.2,7.5,7.2s-3.4,7.2-7.5,7.2s-7.5-3.2-7.5-7.2
							C280.9,157.9,284.2,154.7,288.3,154.7z"/>
					</g>
					<g>
						<path class="st2" d="M288.3,154.7c4.1,0,7.5,3.2,7.5,7.2s-3.4,7.2-7.5,7.2s-7.5-3.2-7.5-7.2
							C280.9,157.9,284.2,154.7,288.3,154.7z"/>
					</g>
					<g>
						<path class="st1" d="M311.7,154.7c4.1,0,7.5,3.2,7.5,7.2s-3.4,7.2-7.5,7.2s-7.5-3.2-7.5-7.2S307.6,154.7,311.7,154.7z"/>
					</g>
					<g>
						<path class="st2" d="M311.7,154.7c4.1,0,7.5,3.2,7.5,7.2s-3.4,7.2-7.5,7.2s-7.5-3.2-7.5-7.2S307.6,154.7,311.7,154.7z"/>
					</g>
					<g>
						<path class="st1" d="M335.1,154.7c4.1,0,7.5,3.2,7.5,7.2s-3.4,7.2-7.5,7.2s-7.5-3.2-7.5-7.2S331,154.7,335.1,154.7z"/>
					</g>
					<g>
						<path class="st2" d="M335.1,154.7c4.1,0,7.5,3.2,7.5,7.2s-3.4,7.2-7.5,7.2s-7.5-3.2-7.5-7.2S331,154.7,335.1,154.7z"/>
					</g>
					<g>
						<path class="st1" d="M358.5,154.7c4.1,0,7.5,3.2,7.5,7.2s-3.4,7.2-7.5,7.2s-7.5-3.2-7.5-7.2S354.3,154.7,358.5,154.7z"/>
					</g>
					<g>
						<path class="st2" d="M358.5,154.7c4.1,0,7.5,3.2,7.5,7.2s-3.4,7.2-7.5,7.2s-7.5-3.2-7.5-7.2S354.3,154.7,358.5,154.7z"/>
					</g>
					<g>
						<path class="st1" d="M381.8,154.7c4.1,0,7.5,3.2,7.5,7.2s-3.4,7.2-7.5,7.2s-7.5-3.2-7.5-7.2
							C374.4,157.9,377.7,154.7,381.8,154.7z"/>
					</g>
					<g>
						<path class="st1" d="M381.8,154.7c4.1,0,7.5,3.2,7.5,7.2s-3.4,7.2-7.5,7.2s-7.5-3.2-7.5-7.2
							C374.4,157.9,377.7,154.7,381.8,154.7z"/>
					</g>
					<g>
						<path class="st2" d="M381.8,154.7c4.1,0,7.5,3.2,7.5,7.2s-3.4,7.2-7.5,7.2s-7.5-3.2-7.5-7.2
							C374.4,157.9,377.7,154.7,381.8,154.7z"/>
					</g>
					<g>
						<path class="st1" d="M241.6,178c4.1,0,7.5,3.2,7.5,7.2s-3.4,7.2-7.5,7.2s-7.5-3.2-7.5-7.2C234.1,181.3,237.5,178,241.6,178
							L241.6,178z"/>
					</g>
					<g>
						<path class="st2" d="M241.6,178c4.1,0,7.5,3.2,7.5,7.2s-3.4,7.2-7.5,7.2s-7.5-3.2-7.5-7.2C234.1,181.3,237.5,178,241.6,178
							L241.6,178z"/>
					</g>
					<g>
						<path class="st1" d="M265,178c4.1,0,7.5,3.2,7.5,7.2s-3.4,7.2-7.5,7.2s-7.5-3.2-7.5-7.2C257.5,181.3,260.8,178,265,178
							L265,178z"/>
					</g>
					<g>
						<path class="st2" d="M265,178c4.1,0,7.5,3.2,7.5,7.2s-3.4,7.2-7.5,7.2s-7.5-3.2-7.5-7.2C257.5,181.3,260.8,178,265,178
							L265,178z"/>
					</g>
					<g>
						<path class="st1" d="M288.3,178c4.1,0,7.5,3.2,7.5,7.2s-3.4,7.2-7.5,7.2s-7.5-3.2-7.5-7.2C280.9,181.3,284.2,178,288.3,178
							L288.3,178z"/>
					</g>
					<g>
						<path class="st1" d="M288.3,178c4.1,0,7.5,3.2,7.5,7.2s-3.4,7.2-7.5,7.2s-7.5-3.2-7.5-7.2C280.9,181.3,284.2,178,288.3,178
							L288.3,178z"/>
					</g>
					<g>
						<path class="st2" d="M288.3,178c4.1,0,7.5,3.2,7.5,7.2s-3.4,7.2-7.5,7.2s-7.5-3.2-7.5-7.2C280.9,181.3,284.2,178,288.3,178
							L288.3,178z"/>
					</g>
					<g>
						<path class="st1" d="M311.7,178c4.1,0,7.5,3.2,7.5,7.2s-3.4,7.2-7.5,7.2s-7.5-3.2-7.5-7.2C304.2,181.3,307.6,178,311.7,178
							L311.7,178z"/>
					</g>
					<g>
						<path class="st2" d="M311.7,178c4.1,0,7.5,3.2,7.5,7.2s-3.4,7.2-7.5,7.2s-7.5-3.2-7.5-7.2C304.2,181.3,307.6,178,311.7,178
							L311.7,178z"/>
					</g>
					<g>
						<path class="st1" d="M335.1,178c4.1,0,7.5,3.2,7.5,7.2s-3.4,7.2-7.5,7.2s-7.5-3.2-7.5-7.2C327.6,181.3,331,178,335.1,178
							L335.1,178z"/>
					</g>
					<g>
						<path class="st2" d="M335.1,178c4.1,0,7.5,3.2,7.5,7.2s-3.4,7.2-7.5,7.2s-7.5-3.2-7.5-7.2C327.6,181.3,331,178,335.1,178
							L335.1,178z"/>
					</g>
					<g>
						<path class="st1" d="M358.5,178c4.1,0,7.5,3.2,7.5,7.2s-3.4,7.2-7.5,7.2s-7.5-3.2-7.5-7.2C351,181.3,354.3,178,358.5,178
							L358.5,178z"/>
					</g>
					<g>
						<path class="st2" d="M358.5,178c4.1,0,7.5,3.2,7.5,7.2s-3.4,7.2-7.5,7.2s-7.5-3.2-7.5-7.2C351,181.3,354.3,178,358.5,178
							L358.5,178z"/>
					</g>
					<g>
						<path class="st1" d="M381.8,178c4.1,0,7.5,3.2,7.5,7.2s-3.4,7.2-7.5,7.2s-7.5-3.2-7.5-7.2C374.4,181.3,377.7,178,381.8,178
							L381.8,178z"/>
					</g>
					<g>
						<path class="st2" d="M381.8,178c4.1,0,7.5,3.2,7.5,7.2s-3.4,7.2-7.5,7.2s-7.5-3.2-7.5-7.2C374.4,181.3,377.7,178,381.8,178
							L381.8,178z"/>
					</g>
					<g>
						<path class="st1" d="M136.9,194.4c-11.6,0-21-9.4-21-21s9.4-21,21-21s21,9.4,21,21S148.5,194.4,136.9,194.4z M136.9,164.4
							c-5,0-9,4-9,9s4,9,9,9s9-4,9-9S141.9,164.4,136.9,164.4z"/>
					</g>
				</g>
				<g>
					<g>
						<path class="st3" d="M0,500"/>
					</g>
					<g>
						<path class="st4" d="M0,500"/>
					</g>
					<g>
						<path class="st4" d="M0,500"/>
					</g>
					<g>
						<path class="st4" d="M0,500"/>
					</g>
					<g>
						<path class="st4" d="M0,500"/>
					</g>
					<g>
						<path class="st4" d="M0,500"/>
					</g>
					<g>
						<path class="st4" d="M0,500"/>
					</g>
					<g>
						<path class="st4" d="M0,500"/>
					</g>
					<g>
						<path class="st4" d="M0,500"/>
					</g>
					<g>
						<path class="st4" d="M0,500"/>
					</g>
					<g>
						<path class="st4" d="M0,500"/>
					</g>
					<g>
						<path class="st4" d="M0,500"/>
					</g>
				</g>
			</g>
		</g>
	</g>
</g>
</svg>
