<?xml version="1.0" encoding="utf-8"?>
<!-- Generator: Adobe Illustrator 27.5.0, SVG Export Plug-In . SVG Version: 6.00 Build 0)  -->
<svg version="1.1" id="Layer_1" xmlns="http://www.w3.org/2000/svg" xmlns:xlink="http://www.w3.org/1999/xlink" x="0px" y="0px"
	 viewBox="0 0 500 500" style="enable-background:new 0 0 500 500;" xml:space="preserve">
<style type="text/css">
	.st0{fill:#F9423A;}
	.st1{fill:none;stroke:#F9423A;stroke-width:12;stroke-linecap:round;stroke-linejoin:round;}
</style>
<g>
	<g>
		<g>
			<path class="st0" d="M382.9,437.5h-68.3c-5.9,0-11-4.1-12.3-9.8l-9.1-36.9c-0.9-3.9,0-7.8,2.4-10.9c2-2.5,4.7-4.1,7.7-4.6v-49.1
				c0-1.5,0.6-3,1.6-4.1l48.3-51.8c8.4-9,21.3-12.8,32.9-9.6c1.2,0.3,2.4,0.7,3.4,1.2l-0.2-66.1c0-13,10.6-23.6,23.6-23.6
				s23.6,10.6,23.6,23.6v90c0,8-2.9,15.7-8.2,21.8l-47,53v14.5h1.4c7,0,12.7,5.7,12.7,12.7v37C395.6,431.8,389.9,437.5,382.9,437.5z
				 M305.6,387.1c-0.2,0-0.4,0.1-0.5,0.3c-0.1,0.1-0.2,0.4-0.2,0.6l9.1,37c0,0.1,0,0.2,0.1,0.3c0,0.1,0.2,0.3,0.5,0.3h68.3
				c0.4,0,0.7-0.3,0.7-0.7v-37c0-0.4-0.3-0.7-0.7-0.7L305.6,387.1L305.6,387.1z M315.4,375.1h54.1v-16.8c0-1.5,0.5-2.9,1.5-4
				l48.5-54.7c3.3-3.8,5.2-8.7,5.2-13.8v-90c0-6.4-5.2-11.6-11.6-11.6s-11.6,5.2-11.6,11.6l0.2,82.3c0.1,1.1,0.1,2.1,0,3.3
				c0,0.2,0,0.4-0.1,0.6l0,0v0.1l0,0c-0.1,0.3-0.2,0.7-0.3,1l0,0l0,0l0,0l0,0l0,0l0,0l0,0l0,0l0,0l0,0l0,0l0,0l0,0l0,0l0,0l0,0l0,0
				l0,0l0,0l0,0l0,0l0,0l0,0l0,0l0,0l0,0l0,0l0,0l0,0l0,0l0,0l0,0l0,0c-0.2,0.6-0.6,1.1-1,1.6l0,0l0,0l0,0l0,0l0,0l0,0l0,0l0,0l0,0
				l0,0l0,0l0,0l0,0l0,0l0,0l0,0l0,0l0,0l0,0l0,0l0,0l0,0l0,0l0,0l0,0l0,0l0,0l0,0l0,0l-36,40.4c-2.2,2.5-6,2.7-8.5,0.5
				c-1.3-1.2-2-2.8-2-4.5c0-1.4,0.5-2.8,1.5-4l34.5-38.7v-0.2c-0.3-2.5-1.7-4.9-6.7-6.2c-7.3-2-15.5,0.4-20.9,6.2l-46.7,50.1v46.8
				H315.4z"/>
		</g>
		<g>
			<path class="st0" d="M185.4,437.5h-68.3c-7,0-12.7-5.7-12.7-12.7v-37c0-7,5.7-12.7,12.7-12.7h1.4v-14.5l-47-53
				c-5.3-6-8.2-13.8-8.2-21.8v-90c0-13,10.6-23.6,23.6-23.6s23.6,10.6,23.6,23.6l-0.2,66.1c1.1-0.5,2.3-0.9,3.5-1.2
				c11.5-3.2,24.4,0.6,32.9,9.6l48.3,51.8c1,1.1,1.6,2.6,1.6,4.1v49.1c3,0.5,5.8,2.2,7.7,4.6c2.4,3.1,3.3,7,2.4,10.9l-9.1,36.9
				C196.4,433.4,191.3,437.5,185.4,437.5z M117.1,387.1c-0.4,0-0.7,0.3-0.7,0.7v37c0,0.4,0.3,0.7,0.7,0.7h68.3
				c0.3,0,0.5-0.1,0.5-0.3c0-0.1,0-0.2,0.1-0.3l9.1-37c0.1-0.2-0.1-0.5-0.2-0.6c-0.1-0.2-0.3-0.3-0.5-0.3L117.1,387.1L117.1,387.1z
				 M130.5,375.1h54.1v-46.5l-46.7-50.1c-5.4-5.8-13.6-8.2-20.9-6.2c-5,1.3-6.4,3.7-6.7,6.2v0.2l34.5,38.7c1,1.1,1.5,2.6,1.5,4
				c0,1.7-0.7,3.3-2,4.5c-2.5,2.2-6.3,2-8.5-0.5l-36-40.4l0,0l0,0l0,0l0,0l0,0l0,0l0,0l0,0l0,0l0,0l0,0l0,0l0,0l0,0l0,0l0,0l0,0l0,0
				l0,0l0,0l0,0l0,0l0,0l0,0l0,0l0,0l0,0l0,0l0,0c-0.4-0.5-0.7-1-1-1.6l0,0l0,0l0,0l0,0l0,0l0,0l0,0l0,0l0,0l0,0l0,0l0,0l0,0l0,0
				l0,0l0,0l0,0l0,0l0,0l0,0l0,0l0,0l0,0l0,0l0,0l0,0l0,0l0,0l0,0l0,0l0,0l0,0l0,0c-0.1-0.3-0.2-0.7-0.3-1l0,0v-0.1l0,0
				c0-0.2-0.1-0.4-0.1-0.6c-0.1-1.1-0.1-2.2,0-3.3l0.2-82.4c0-6.4-5.2-11.6-11.6-11.6s-11.6,5.2-11.6,11.6v90c0,5.1,1.9,10,5.2,13.8
				l48.5,54.7c1,1.1,1.5,2.5,1.5,4v16.6H130.5z"/>
		</g>
		<g>
			<g>
				<path class="st0" d="M279,169.9c-1.5,0-3.1-0.6-4.2-1.8c-2.3-2.3-2.3-6.1,0-8.5l13.1-13.1c1.4-1.4,3.5-2,5.5-1.6
					c9.8,2.1,19.9-0.9,26.9-7.9c6-6,9-14.1,8.5-22.2l-17.5,17.4c-1.8,1.8-4.5,2.3-6.8,1.2l-12.9-6.1c0,0-0.1,0-0.1-0.1l-0.2-0.1
					c-1.2-0.6-2.1-1.5-2.7-2.7l-0.1-0.2c0,0,0-0.1-0.1-0.1l-6.1-12.9c-1.1-2.3-0.6-5,1.2-6.8l25.2-25.1c2.3-2.3,6.1-2.3,8.5,0
					c2.3,2.3,2.3,6.1,0,8.5L295,110l3.5,7.3l7.3,3.5l22.1-22c1.4-1.4,3.5-2,5.4-1.6c2,0.4,3.6,1.8,4.4,3.6c6.3,15.4,2.8,33-9,44.8
					c-9.1,9.1-21.8,13.4-34.6,11.7l-10.9,10.9C282.1,169.3,280.5,169.9,279,169.9z"/>
			</g>
			<g>
				<path class="st0" d="M200.5,256.7c-5.3,0-10.6-1-15.7-3.1c-1.9-0.8-3.2-2.4-3.6-4.4c-0.4-2,0.2-4,1.6-5.4l21.6-21.5l-3.5-7.3
					l-7.3-3.5L172,233c-1.4,1.4-3.5,2-5.4,1.6c-2-0.4-3.6-1.8-4.4-3.6c-6.3-15.4-2.8-33,9-44.8c9.1-9.1,21.8-13.4,34.6-11.7
					l52.9-52.9c-1.7-12.7,2.5-25.4,11.7-34.6c11.7-11.8,29.3-15.3,44.8-9c3.1,1.2,4.5,4.7,3.3,7.8s-4.7,4.5-7.8,3.3
					c-11-4.5-23.5-2-31.8,6.4c-7.1,7.1-10.1,17.2-7.9,26.9c0.4,2-0.2,4.1-1.6,5.5l-57.3,57.3c-1.4,1.4-3.5,2-5.5,1.6
					c-9.8-2.1-19.9,0.9-26.9,7.9c-6,6-9,14.1-8.5,22.2l16.9-16.9c1.8-1.8,4.5-2.3,6.8-1.2L208,205c1.3,0.6,2.3,1.6,2.9,2.9L217,221
					c1.1,2.3,0.6,5-1.2,6.8l-16.9,16.8c8.1,0.4,16.2-2.6,22.1-8.5c7.1-7.1,10.1-17.2,7.9-26.9c-0.4-2,0.2-4.1,1.6-5.5l13.1-13.1
					c2.3-2.3,6.1-2.3,8.5,0c2.3,2.3,2.3,6.1,0,8.5L241.3,210c1.7,12.7-2.5,25.4-11.7,34.6C221.7,252.5,211.2,256.7,200.5,256.7z"/>
			</g>
			<g>
				<path class="st0" d="M252.8,173.5c-1.5,0-3.1-0.6-4.2-1.8l-69.9-69.9c-2.3-2.3-2.3-6.1,0-8.5c2.3-2.3,6.1-2.3,8.5,0l69.9,69.9
					c2.3,2.3,2.3,6.1,0,8.5C255.9,172.9,254.3,173.5,252.8,173.5z"/>
			</g>
			<g>
				<path class="st0" d="M312.6,254.1c-4.8,0-9.3-1.9-12.7-5.3l-55.7-55.7c-7-7-7-18.5,0-25.5l8.8-8.8l0,0c7-6.9,18.4-6.9,25.4,0
					l55.7,55.7c7,7,7,18.5,0,25.5l-8.8,8.8C321.9,252.2,317.4,254.1,312.6,254.1z M261.4,167.4l-8.8,8.8c-2.3,2.3-2.3,6.2,0,8.5
					l55.7,55.7c1.1,1.1,2.7,1.8,4.3,1.8s3.1-0.6,4.3-1.8l8.8-8.8c2.3-2.3,2.3-6.2,0-8.5L270,167.3
					C267.6,165.1,263.8,165.1,261.4,167.4z"/>
			</g>
			<g>
				<path class="st0" d="M289.8,236.2c-1.5,0-3.1-0.6-4.2-1.8c-2.3-2.3-2.3-6.1,0-8.5l25.7-25.7c2.3-2.3,6.1-2.3,8.5,0
					c2.3,2.3,2.3,6.1,0,8.5L294,234.4C292.9,235.6,291.3,236.2,289.8,236.2z"/>
			</g>
		</g>
	</g>
	<g>
		<path class="st1" d="M0,500"/>
	</g>
</g>
</svg>
