<?xml version="1.0" encoding="utf-8"?>
<!-- Generator: Adobe Illustrator 27.5.0, SVG Export Plug-In . SVG Version: 6.00 Build 0)  -->
<svg version="1.1" id="Layer_1" xmlns="http://www.w3.org/2000/svg" xmlns:xlink="http://www.w3.org/1999/xlink" x="0px" y="0px"
	 viewBox="0 0 500 500" style="enable-background:new 0 0 500 500;" xml:space="preserve">
<style type="text/css">
	.st0{fill:#F9423A;}
	.st1{fill:none;stroke:#F9423A;stroke-width:12;stroke-linecap:round;stroke-linejoin:round;}
</style>
<g>
	<g>
		<g>
			<g>
				<path class="st0" d="M369.9,415.3l-62.9-0.1c-4.3,0-8.3-2.6-10.1-6.6l-15.7-37c-1.5-3.4-1.1-7.3,1-10.4c2-3.1,5.5-4.9,9.2-4.9
					l78.6,0.1c6.1,0,11,4.9,11,11v36.9C380.9,410.4,376,415.3,369.9,415.3z M307.6,403.2l61.3,0.1v-34.9l-76.1-0.1L307.6,403.2z
					 M307,403.2L307,403.2L307,403.2z"/>
			</g>
			<g>
				<path class="st0" d="M360.5,368.4c-3.3,0-6-2.7-6-6v-22.7c0-1.4,0.5-2.8,1.4-3.9c34.5-40.2,45.4-52.9,49-57
					c0-13.1,0.2-80.3,0.2-88.7c0-5.3-4.3-9.7-9.6-9.7c-5.3,0-9.7,4.3-9.7,9.6c0,0,0,19.4-0.1,38.8c0,9.7,0,19.4-0.1,26.7
					c0,7,0,10.4-0.1,12.2h0.1c0,1,0,1.6-0.6,2.6c0,0,0,0.1-0.1,0.1l0,0c-0.7,1.2-2.3,2.9-5.5,6.7c-2.8,3.2-6.6,7.5-10.3,11.8
					c-7.5,8.6-15,17.2-15,17.2c-2.2,2.5-6,2.7-8.5,0.6c-2.5-2.2-2.7-6-0.6-8.5c9.9-11.3,24.2-27.6,28.5-32.7
					c0.1-9.3,0.1-48.7,0.2-75.6c0-11.9,9.7-21.6,21.7-21.6c11.9,0,21.6,9.7,21.6,21.7c0,0-0.2,90.4-0.2,90.9c0,1.5-0.5,2.9-1.5,4
					c-0.9,1.1-31.5,36.7-48.9,57v20.5C366.5,365.7,363.8,368.4,360.5,368.4z"/>
			</g>
			<g>
				<path class="st0" d="M303.8,368.4c-3.3,0-6-2.7-6-6c0,0,0-13.6,0-27.1c0-6.8,0-13.6,0-18.7c0-4.2,0-6.8,0.1-8.5h-0.1
					c0-0.9,0.1-1.5,0.4-2.1c0.3-1,0.7-1.4,1.4-2.1c0.4-0.5,1-1.2,1.7-1.9c1.2-1.4,2.9-3.3,5-5.7c4.1-4.7,9.6-10.9,15.1-17.2
					c10.5-11.9,21-23.8,21.9-24.8c4.1-4.9,17.8-8.4,27.7-5.5c8.5,2.5,13.6,9,14.6,18.4c0,0.2,0,0.4,0,0.6c0,2.3,0,2.3-6.1,9.4
					c-2.8,3.2-6.5,7.6-10.3,11.9c-7.5,8.6-15,17.2-15,17.2c-2.2,2.5-6,2.8-8.5,0.6c-2.5-2.2-2.8-6-0.6-8.5c9.5-11,23.2-26.8,28-32.3
					c-0.9-3.4-2.9-4.7-4.4-5.3c-5.6-2.4-14.4,0.1-16.5,1.5c-15,17-36.8,41.7-42.5,48.1c0,7.5-0.1,33.9-0.1,52
					C309.8,365.7,307.1,368.4,303.8,368.4z M308.1,312.3L308.1,312.3L308.1,312.3z M308.6,311.9c-0.1,0.2-0.3,0.3-0.4,0.5
					C308.3,312.2,308.5,312,308.6,311.9L308.6,311.9z M352.6,261.9L352.6,261.9L352.6,261.9z"/>
			</g>
		</g>
		<g>
			<g>
				<path class="st0" d="M130.1,415.3c-6.1,0-11-4.9-11-11v-36.9c0-6.1,4.9-11,11-11l78.6-0.1c3.7,0,7.1,1.8,9.2,4.9
					c2.1,3.1,2.4,7,1,10.4l-15.7,36.9c-1.8,4.1-5.8,6.6-10.1,6.7L130.1,415.3z M131.1,368.4v34.9l61.3-0.1l14.8-34.9L131.1,368.4z
					 M193,403.2L193,403.2L193,403.2z"/>
			</g>
			<g>
				<path class="st0" d="M139.5,368.4c-3.3,0-6-2.7-6-6v-20.5c-17.3-20.2-47.9-55.8-48.9-57c-1-1.1-1.5-2.5-1.5-4
					c0-0.5-0.2-90.9-0.2-90.9c0-12,9.7-21.7,21.6-21.7c12,0,21.7,9.7,21.7,21.6c0,26.9,0.1,66.2,0.2,75.5
					c4.4,5.1,18.7,21.4,28.5,32.7c2.2,2.5,1.9,6.3-0.6,8.5s-6.3,1.9-8.5-0.6c0,0-7.5-8.6-15-17.2c-3.8-4.3-7.5-8.6-10.3-11.8
					c-3.3-3.7-4.8-5.5-5.5-6.7l0,0v-0.1c-0.6-1-0.6-1.5-0.6-2.6h0.1c-0.1-1.8-0.1-5.2-0.1-12.2c0-7.3,0-17-0.1-26.7
					c0-19.4-0.1-38.8-0.1-38.8c0-5.3-4.4-9.6-9.7-9.6c-5.3,0-9.6,4.4-9.6,9.7c0,8.4,0.2,75.5,0.2,88.7c3.5,4.1,14.5,16.8,49,57
					c0.9,1.1,1.4,2.5,1.4,3.9v22.7C145.5,365.7,142.8,368.4,139.5,368.4z M126.4,267.4c0,0.1,0,0.2,0,0.3
					C126.4,267.7,126.4,267.6,126.4,267.4L126.4,267.4z"/>
			</g>
			<g>
				<path class="st0" d="M196.2,368.4c-3.3,0-6-2.7-6-6c0-18.1,0-44.5-0.1-52c-5.6-6.4-27.4-31.1-42.5-48.1
					c-2.1-1.5-11-3.9-16.5-1.5c-1.5,0.6-3.5,1.9-4.4,5.3c4.8,5.6,18.5,21.3,28,32.3c2.2,2.5,1.9,6.3-0.6,8.5s-6.3,1.9-8.5-0.6
					c0,0-7.5-8.6-15-17.2c-3.7-4.3-7.5-8.6-10.3-11.9c-6.1-7.1-6.1-7.1-6.1-9.4c0-0.2,0-0.4,0-0.6c0.9-9.4,6.1-16,14.6-18.4
					c9.9-2.9,23.5,0.7,27.7,5.5c0.9,1,11.4,12.9,21.9,24.8c5.5,6.2,11,12.5,15.1,17.2c2.1,2.3,3.8,4.3,5,5.7
					c0.7,0.8,1.2,1.4,1.7,1.9c0.7,0.7,1.1,1.1,1.4,2.1c0.3,0.6,0.4,1.3,0.4,2.1l0,0c0.1,1.7,0.1,4.3,0.1,8.5c0,5.1,0,11.9,0,18.7
					c0,13.6,0,27.1,0,27.1C202.2,365.7,199.5,368.4,196.2,368.4z M191.8,312.3L191.8,312.3L191.8,312.3z M191.4,311.9
					c0.1,0.2,0.3,0.3,0.4,0.5C191.7,312.2,191.6,312,191.4,311.9L191.4,311.9z M147.4,261.9L147.4,261.9L147.4,261.9z"/>
			</g>
		</g>
		<g>
			<path class="st0" d="M262.6,266.3h-25.1c-9.2,0-16.6-7.4-16.6-16.6V242c-3.2-1.5-6.3-3.3-9.2-5.3l-6.6,3.8
				c-3.9,2.2-8.4,2.8-12.6,1.7c-4.3-1.1-7.9-3.9-10.1-7.8l-12.6-21.8c-2.2-3.9-2.8-8.4-1.7-12.6c1.1-4.3,3.9-7.9,7.8-10.1l6.6-3.8
				c-0.1-1.8-0.2-3.6-0.2-5.4c0-1.8,0.1-3.6,0.2-5.4l-6.6-3.8c-8-4.7-10.7-14.6-6.1-22.7l12.5-21.8c4.7-8,14.7-10.7,22.7-6.1
				l6.7,3.9c2.9-2,6-3.8,9.3-5.3v-7.7c0-9.2,7.4-16.6,16.6-16.6h25.1c9.2,0,16.6,7.4,16.6,16.6v7.7c3.2,1.5,6.3,3.3,9.2,5.3l6.6-3.8
				c8-4.6,18.2-1.8,22.7,6.1l12.6,21.8c2.2,3.9,2.8,8.4,1.7,12.6c-1.1,4.3-3.9,7.9-7.8,10.1l-6.6,3.8c0.1,1.8,0.2,3.6,0.2,5.4
				c0,1.8-0.1,3.6-0.2,5.4l6.6,3.8h0.1c7.8,4.7,10.5,14.6,6.2,22.5c0,0,0,0.1-0.1,0.1l-12.6,21.8c-4.7,8-14.6,10.7-22.7,6.1
				l-6.7-3.9c-2.9,2-6,3.8-9.3,5.3v7.7C279.2,258.9,271.8,266.3,262.6,266.3z M212.1,223.5c1.3,0,2.6,0.4,3.7,1.3
				c4.1,3.2,8.6,5.8,13.4,7.8c2.2,0.9,3.7,3.1,3.7,5.5v11.6c0,2.5,2.1,4.6,4.6,4.6h25.1c2.5,0,4.6-2.1,4.6-4.6v-11.6
				c0-2.4,1.5-4.6,3.7-5.5c5.1-2.1,9.5-4.7,13.5-7.8c1.9-1.5,4.6-1.7,6.7-0.5l10,5.8c2.2,1.3,5,0.5,6.3-1.8l12.5-21.7
				c1.2-2.2,0.4-5-1.8-6.4l-10-5.8c-2.1-1.2-3.3-3.6-2.9-6c0.4-2.5,0.5-5.1,0.5-7.8c0-2.6-0.2-5.2-0.5-7.8c-0.3-2.4,0.8-4.8,2.9-6
				l10-5.8c1.1-0.6,1.8-1.6,2.2-2.8c0.3-1.2,0.2-2.5-0.5-3.6L307.3,133c-1.3-2.2-4.1-3-6.3-1.7l-10,5.8c-2.1,1.2-4.8,1-6.7-0.5
				c-4.1-3.2-8.6-5.8-13.4-7.8c-2.2-0.9-3.7-3.1-3.7-5.5v-11.6c0-2.5-2.1-4.6-4.6-4.6h-25.1c-2.5,0-4.6,2.1-4.6,4.6v11.6
				c0,2.4-1.5,4.6-3.7,5.5c-5.1,2.1-9.5,4.7-13.5,7.8c-1.9,1.5-4.6,1.7-6.7,0.5l-10-5.8c-2.2-1.3-5-0.5-6.3,1.8l-12.5,21.7
				c-1.3,2.2-0.5,5,1.7,6.3l10,5.8c2.1,1.2,3.3,3.6,2.9,6c-0.4,2.5-0.5,5.1-0.5,7.8s0.2,5.2,0.5,7.8c0.3,2.4-0.8,4.8-2.9,6l-10,5.8
				c-2.2,1.3-3,4.1-1.7,6.3l12.6,21.8c0.6,1.1,1.6,1.8,2.8,2.2c1.2,0.3,2.5,0.2,3.6-0.5l10-5.8C210,223.8,211.1,223.5,212.1,223.5z
				 M250,218.3c-20.7,0-37.6-16.9-37.6-37.6s16.9-37.6,37.6-37.6s37.6,16.9,37.6,37.6C287.6,201.4,270.7,218.3,250,218.3z
				 M250,155.1c-14.1,0-25.6,11.5-25.6,25.6s11.5,25.6,25.6,25.6s25.6-11.5,25.6-25.6S264.1,155.1,250,155.1z"/>
		</g>
	</g>
	<path class="st1" d="M0,500"/>
</g>
</svg>
