<?xml version="1.0" encoding="iso-8859-1"?>
<!-- Generator: Adobe Illustrator 29.6.1, SVG Export Plug-In . SVG Version: 9.03 Build 0)  -->
<svg version="1.1" id="Layer_1" xmlns="http://www.w3.org/2000/svg" xmlns:xlink="http://www.w3.org/1999/xlink" x="0px" y="0px"
	 viewBox="0 0 500 500" style="enable-background:new 0 0 500 500;" xml:space="preserve">
<g>
	<g>
		<path style="fill:#F9423A;" d="M387.71,416.12H112.29c-15.666,0-28.41-12.745-28.41-28.41V112.29
			c0-15.666,12.745-28.41,28.41-28.41h275.42c15.665,0,28.41,12.745,28.41,28.41v275.42
			C416.12,403.375,403.375,416.12,387.71,416.12z M95.88,147.25v240.46c0,9.049,7.361,16.41,16.41,16.41h275.42
			c9.049,0,16.41-7.361,16.41-16.41V147.25H95.88z M95.88,135.25h308.24v-22.96c0-9.049-7.361-16.41-16.41-16.41H112.29
			c-9.049,0-16.41,7.361-16.41,16.41C95.88,112.29,95.88,135.25,95.88,135.25z"/>
	</g>
	<g>
		<path style="fill:#F9423A;" d="M178,123.07h-0.14c-4.142,0-7.5-3.358-7.5-7.5s3.358-7.5,7.5-7.5H178c4.142,0,7.5,3.358,7.5,7.5
			S182.142,123.07,178,123.07z M149.85,123.07h-0.13c-4.142,0-7.5-3.358-7.5-7.5s3.358-7.5,7.5-7.5h0.13c4.142,0,7.5,3.358,7.5,7.5
			S153.992,123.07,149.85,123.07z M121.7,123.07h-0.13c-4.142,0-7.5-3.358-7.5-7.5s3.358-7.5,7.5-7.5h0.13
			c4.142,0,7.5,3.358,7.5,7.5S125.842,123.07,121.7,123.07z"/>
	</g>
	<g>
		<path style="fill:#F9423A;" d="M262.58,362.6h-25.15c-9.142,0-16.58-7.438-16.58-16.58v-7.658
			c-3.209-1.531-6.298-3.319-9.241-5.348l-6.639,3.833c-3.825,2.216-8.292,2.806-12.569,1.663c-4.282-1.146-7.861-3.891-10.077-7.73
			L169.754,309c-2.215-3.824-2.807-8.291-1.663-12.568c1.145-4.283,3.89-7.861,7.73-10.078l6.639-3.832
			c-0.146-1.806-0.22-3.591-0.22-5.341c0-1.753,0.073-3.539,0.219-5.341l-6.639-3.833c-3.835-2.213-6.579-5.788-7.724-10.067
			c-1.145-4.276-0.556-8.743,1.657-12.578l12.57-21.78c4.568-7.916,14.727-10.637,22.646-6.068l6.639,3.833
			c2.935-2.023,6.025-3.81,9.242-5.346v-7.66c0-9.142,7.438-16.58,16.58-16.58h25.15c9.143,0,16.58,7.438,16.58,16.58V216
			c3.218,1.536,6.308,3.323,9.242,5.346l6.638-3.832c3.835-2.213,8.3-2.802,12.579-1.657c4.278,1.146,7.854,3.889,10.068,7.725
			l12.568,21.78c2.215,3.824,2.808,8.291,1.664,12.568c-1.145,4.282-3.89,7.861-7.73,10.077l-6.64,3.833
			c0.146,1.807,0.22,3.592,0.22,5.341c0,1.753-0.073,3.538-0.219,5.341l6.64,3.833c3.835,2.214,6.578,5.789,7.724,10.067
			c1.145,4.277,0.556,8.744-1.658,12.579l-12.569,21.779c-4.568,7.916-14.727,10.639-22.646,6.067l-6.639-3.832
			c-2.934,2.022-6.024,3.81-9.242,5.346v7.659C279.16,355.162,271.723,362.6,262.58,362.6z M211.999,319.86
			c1.312,0,2.617,0.43,3.696,1.272c4.109,3.212,8.619,5.821,13.403,7.754c2.268,0.917,3.752,3.118,3.752,5.563v11.569
			c0,2.525,2.055,4.58,4.58,4.58h25.15c2.525,0,4.58-2.055,4.58-4.58V334.45c0-2.444,1.482-4.644,3.748-5.562
			c4.812-1.948,9.321-4.557,13.403-7.753c1.926-1.509,4.578-1.695,6.698-0.472l10.03,5.79c1.058,0.611,2.293,0.774,3.476,0.458
			c1.181-0.316,2.167-1.073,2.778-2.131L319.862,303c0.612-1.061,0.774-2.295,0.458-3.478c-0.315-1.18-1.072-2.166-2.13-2.777
			c0,0,0,0-0.001,0l-10.03-5.79c-2.115-1.222-3.279-3.604-2.942-6.023c0.366-2.632,0.552-5.241,0.552-7.753
			c0-2.502-0.186-5.111-0.553-7.756c-0.335-2.419,0.829-4.8,2.943-6.021l10.03-5.79c1.062-0.613,1.82-1.602,2.137-2.783
			c0.314-1.178,0.151-2.408-0.46-3.463l-12.573-21.788c-0.611-1.058-1.598-1.814-2.778-2.131c-1.182-0.317-2.418-0.153-3.477,0.458
			l-10.029,5.79c-2.119,1.224-4.771,1.038-6.698-0.472c-4.084-3.197-8.593-5.805-13.403-7.753c-2.266-0.917-3.748-3.117-3.748-5.562
			v-11.57c0-2.525-2.055-4.58-4.58-4.58h-25.15c-2.525,0-4.58,2.055-4.58,4.58v11.57c0,2.444-1.482,4.644-3.748,5.562
			c-4.81,1.947-9.319,4.556-13.404,7.753c-1.928,1.509-4.578,1.696-6.698,0.472l-10.03-5.79c-2.188-1.263-4.993-0.512-6.254,1.673
			l-12.57,21.78c-0.612,1.061-0.775,2.295-0.458,3.477c0.316,1.18,1.072,2.166,2.13,2.776l10.031,5.791
			c2.116,1.222,3.28,3.604,2.943,6.024c-0.367,2.632-0.553,5.24-0.553,7.752c0,2.504,0.186,5.113,0.553,7.755
			c0.336,2.419-0.828,4.801-2.943,6.021l-10.03,5.79c-1.062,0.613-1.82,1.602-2.136,2.783c-0.315,1.179-0.152,2.408,0.459,3.464
			l12.575,21.788c0.612,1.062,1.601,1.819,2.783,2.136c1.176,0.312,2.408,0.151,3.464-0.459L209,320.664
			C209.933,320.126,210.968,319.86,211.999,319.86z M250,314.78c-20.733,0-37.6-16.867-37.6-37.601c0-20.732,16.867-37.6,37.6-37.6
			c20.732,0,37.6,16.867,37.6,37.6C287.6,297.913,270.732,314.78,250,314.78z M250,251.58c-14.116,0-25.6,11.484-25.6,25.6
			s11.484,25.601,25.6,25.601c14.115,0,25.6-11.484,25.6-25.601C275.6,263.064,264.115,251.58,250,251.58z"/>
	</g>
</g>
</svg>
