<?xml version="1.0" encoding="utf-8"?>
<!-- Generator: Adobe Illustrator 27.5.0, SVG Export Plug-In . SVG Version: 6.00 Build 0)  -->
<svg version="1.1" id="Layer_1" xmlns="http://www.w3.org/2000/svg" xmlns:xlink="http://www.w3.org/1999/xlink" x="0px" y="0px"
	 viewBox="0 0 500 500" style="enable-background:new 0 0 500 500;" xml:space="preserve">
<style type="text/css">
	.st0{clip-path:url(#SVGID_00000139281472077588769710000011637025389640458687_);}
	.st1{fill:#F9423A;}
</style>
<g>
	<g>
		<g>
			<defs>
				<rect id="SVGID_1_" width="500" height="500"/>
			</defs>
			<clipPath id="SVGID_00000014621644938960422040000004066272267994677131_">
				<use xlink:href="#SVGID_1_"  style="overflow:visible;"/>
			</clipPath>
			<g style="clip-path:url(#SVGID_00000014621644938960422040000004066272267994677131_);">
				<g>
					<path class="st1" d="M345.3,389.4H116.6c-3.3,0-6-2.7-6-6V154.6c0-24.3,19.8-44.1,44.1-44.1H250c3.3,0,6,2.7,6,6s-2.7,6-6,6
						h-95.3c-17.7,0-32.1,14.4-32.1,32.1v222.8h222.7c17.7,0,32.1-14.4,32.1-32.1v-96.4c0-3.3,2.7-6,6-6s6,2.7,6,6v96.4
						C389.4,369.6,369.6,389.4,345.3,389.4z M250.1,255.8c-1.5,0-3.1-0.6-4.2-1.8c-2.3-2.3-2.3-6.1,0-8.5L369,122.3h-74
						c-3.3,0-6-2.7-6-6s2.7-6,6-6h88.4l0,0l0,0l0,0l0,0l0,0l0,0c0.8,0,1.6,0.2,2.3,0.5c0.7,0.3,1.4,0.7,2,1.3c0.6,0.6,1,1.2,1.3,2
						c0.3,0.7,0.4,1.4,0.5,2.2l0,0l0,0l0,0l0,0c0,0,0,0,0,0.1v88.2c0,3.3-2.7,6-6,6s-6-2.7-6-6v-73.7L254.3,254
						C253.2,255.2,251.6,255.8,250.1,255.8z"/>
				</g>
			</g>
		</g>
	</g>
</g>
</svg>
