<?xml version="1.0" encoding="iso-8859-1"?>
<!-- Generator: Adobe Illustrator 29.6.1, SVG Export Plug-In . SVG Version: 9.03 Build 0)  -->
<svg version="1.1" id="Layer_1" xmlns="http://www.w3.org/2000/svg" xmlns:xlink="http://www.w3.org/1999/xlink" x="0px" y="0px"
	 viewBox="0 0 500 500" style="enable-background:new 0 0 500 500;" xml:space="preserve">
<defs>
	<filter id="Adobe_OpacityMaskFilter" filterUnits="userSpaceOnUse" x="241.5" y="246.501" width="162" height="62">
		<feColorMatrix  type="matrix" values="1 0 0 0 0  0 1 0 0 0  0 0 1 0 0  0 0 0 1 0"/>
	</filter>
</defs>
<mask maskUnits="userSpaceOnUse" x="241.5" y="246.501" width="162" height="62" id="k1BlFo_-9La_00000132063214210573829380000011618597020279220889_">
	<path style="fill-rule:evenodd;clip-rule:evenodd;fill:#FFFFFF;filter:url(#Adobe_OpacityMaskFilter);" d="M427.5,225.501h-210v170
		h210V225.501z M322.5,277.501l-85,25l15,90h140l15-90L322.5,277.501z"/>
</mask>
<g style="mask:url(#k1BlFo_-9La_00000132063214210573829380000011618597020279220889_);">
	<g>
		<path style="fill:#F9423A;" d="M397.5,308.501c-3.313,0-6-2.687-6-6v-44h-38v44c0,3.313-2.687,6-6,6h-50c-3.313,0-6-2.687-6-6v-44
			h-38v44c0,3.313-2.687,6-6,6s-6-2.687-6-6v-50c0-3.313,2.687-6,6-6h150c3.313,0,6,2.687,6,6v50
			C403.5,305.815,400.813,308.501,397.5,308.501z M303.5,296.501h38v-38h-38V296.501z"/>
	</g>
</g>
<defs>
	
		<filter id="Adobe_OpacityMaskFilter_00000057839613492673430610000003219202551737642165_" filterUnits="userSpaceOnUse" x="76.5" y="71.499" width="337.002" height="332.002">
		<feColorMatrix  type="matrix" values="1 0 0 0 0  0 1 0 0 0  0 0 1 0 0  0 0 0 1 0"/>
	</filter>
</defs>
<mask maskUnits="userSpaceOnUse" x="76.5" y="71.499" width="337.002" height="332.002" id="_x32_eCAlAgFerb_00000072999560552440898460000012527634061557113984_">
	
		<path style="fill-rule:evenodd;clip-rule:evenodd;fill:#FFFFFF;filter:url(#Adobe_OpacityMaskFilter_00000057839613492673430610000003219202551737642165_);" d="
		M440.5,68.501h-372v372h372V68.501z M129.5,336.501c0,18.778-14.327,34-32,34v52h320v-52c-17.673,0-32-15.222-32-34
		c0,18.778-14.327,34-32,34s-32-15.222-32-34c0,18.778-14.327,34-32,34s-32-15.222-32-34c0,18.778-14.327,34-32,34s-32-15.222-32-34
		c0,18.778-14.327,34-32,34S129.5,355.279,129.5,336.501"/>
</mask>
<g style="mask:url(#_x32_eCAlAgFerb_00000072999560552440898460000012527634061557113984_);">
	<g>
		<path style="fill:#F9423A;" d="M193.5,403.501h-96c-3.314,0-6-2.687-6-6v-100c0-3.313,2.686-6,6-6h9v-148h-24
			c-3.314,0-6-2.686-6-6s2.686-6,6-6h24v-54c0-3.314,2.686-6,6-6h39.875c0.24-0.007,0.485,0.005,0.73,0.03
			c0.248,0.025,0.49,0.064,0.728,0.119l169.876,34.974c2.789,0.574,4.79,3.03,4.79,5.877v60c0,3.314-2.687,6-6,6s-6-2.686-6-6v-29
			h-158v148h35c3.314,0,6,2.687,6,6v100C199.5,400.815,196.814,403.501,193.5,403.501z M103.5,391.501h84v-88h-84V391.501z
			 M118.5,291.501h28v-208h-28V291.501z M158.5,131.501h158v-14.109l-158-32.529V131.501z M392.5,398.501h-140
			c-2.933,0-5.436-2.12-5.918-5.014l-15-90c-0.499-2.992,1.315-5.887,4.226-6.742l84.866-24.961c0.568-0.182,1.173-0.28,1.801-0.283
			l0,0c0.005,0,0.01,0,0.015,0c0.008,0,0.016,0,0.023,0c0.004,0,0.01,0,0.015,0l0,0c0.628,0.003,1.232,0.102,1.801,0.283
			l84.866,24.961c2.91,0.855,4.724,3.75,4.225,6.742l-15,90C397.937,396.381,395.433,398.501,392.5,398.501z M257.583,386.501
			h129.834l13.291-79.743L328.5,285.52v26.981c0,3.313-2.687,6-6,6s-6-2.687-6-6V285.52l-72.208,21.238L257.583,386.501z"/>
	</g>
</g>
<g>
	<path style="fill:#F9423A;" d="M417.5,428.501h-320c-3.314,0-6-2.687-6-6v-52c0-3.313,2.686-6,6-6c14.336,0,26-12.561,26-28
		c0-3.313,2.686-6,6-6c3.314,0,6,2.687,6,6c0,15.439,11.664,28,26,28s26-12.561,26-28c0-3.313,2.686-6,6-6s6,2.687,6,6
		c0,15.439,11.664,28,26,28s26-12.561,26-28c0-3.313,2.686-6,6-6c3.313,0,6,2.687,6,6c0,15.439,11.663,28,26,28s26-12.561,26-28
		c0-3.313,2.687-6,6-6s6,2.687,6,6c0,15.439,11.663,28,26,28s26-12.561,26-28c0-3.313,2.687-6,6-6s6,2.687,6,6
		c0,15.439,11.663,28,26,28c3.313,0,6,2.687,6,6v52C423.5,425.815,420.813,428.501,417.5,428.501z M103.5,416.501h308v-40.498
		c-10.897-1.827-20.266-8.55-26-17.949c-6.763,11.086-18.581,18.447-32,18.447s-25.237-7.361-32-18.447
		c-6.763,11.086-18.581,18.447-32,18.447s-25.237-7.361-32-18.447c-6.763,11.086-18.581,18.447-32,18.447s-25.237-7.361-32-18.447
		c-6.763,11.086-18.581,18.447-32,18.447s-25.237-7.361-32-18.447c-5.734,9.399-15.103,16.122-26,17.949V416.501z M347.5,228.501
		h-50c-3.313,0-6-2.686-6-6v-50c0-3.314,2.687-6,6-6h50c3.313,0,6,2.686,6,6v50C353.5,225.815,350.813,228.501,347.5,228.501z
		 M303.5,216.501h38v-38h-38V216.501z"/>
</g>
</svg>
