<?xml version="1.0" encoding="utf-8"?>
<!-- Generator: Adobe Illustrator 27.5.0, SVG Export Plug-In . SVG Version: 6.00 Build 0)  -->
<svg version="1.1" id="Layer_1" xmlns="http://www.w3.org/2000/svg" xmlns:xlink="http://www.w3.org/1999/xlink" x="0px" y="0px"
	 viewBox="0 0 500 500" style="enable-background:new 0 0 500 500;" xml:space="preserve">
<style type="text/css">
	.st0{fill:#F9423A;}
	.st1{display:none;fill:none;stroke:#F9423A;stroke-width:12;stroke-linecap:round;stroke-linejoin:round;}
	.st2{fill:none;stroke:#F9423A;stroke-width:12;stroke-linecap:round;stroke-linejoin:round;}
</style>
<g>
	<g>
		<g>
			<path class="st0" d="M410.1,323H89.9c-3.3,0-6-2.7-6-6s2.7-6,6-6h320.2c3.3,0,6,2.7,6,6S413.4,323,410.1,323z M353.4,274.9
				c-1.5,0-3.1-0.6-4.2-1.8c-2.3-2.3-2.3-6.1,0-8.5l15.7-15.7l-15.7-15.7c-2.3-2.3-2.3-6.1,0-8.5c2.3-2.3,6.1-2.3,8.5,0l19.9,19.9
				c2.3,2.3,2.3,6.1,0,8.5L357.7,273C356.5,274.3,354.9,274.9,353.4,274.9z M308.6,274.9c-1.5,0-3.1-0.6-4.2-1.8
				c-2.3-2.3-2.3-6.1,0-8.5L320,249l-15.7-15.7c-2.3-2.3-2.3-6.1,0-8.5c2.3-2.3,6.1-2.3,8.5,0l19.9,19.9c1.1,1.1,1.8,2.7,1.8,4.2
				s-0.6,3.1-1.8,4.2L312.8,273C311.7,274.3,310.1,274.9,308.6,274.9z"/>
		</g>
		<g>
			<path class="st0" d="M390.1,372.1H109.9c-14.3,0-26-11.7-26-26V153.9c0-14.3,11.7-26,26-26h280.3c14.3,0,26,11.7,26,26v192.2
				C416.1,360.5,404.4,372.1,390.1,372.1z M109.9,139.9c-7.7,0-14,6.3-14,14v192.2c0,7.7,6.3,14,14,14h280.2c7.7,0,14-6.3,14.1-14.1
				V153.9c0-7.7-6.3-14-14-14H109.9z M175,290.7c-6.2,0-12.4-1.2-18.2-3.5c-0.2-0.1-0.5-0.2-0.7-0.3c-1.6-0.7-3.2-1.1-4.9-1.2
				c-0.1,0-0.1,0-0.2,0l-7.5-0.9c-5.2-0.5-9-4.8-9-10.1V267c0-16,13-29.1,29-29.1h23.1c16,0,29.1,13.1,29.1,29.1v7.7
				c0,5.2-3.9,9.6-9.1,10.1l-7.9,0.9c-1.9,0.3-3.5,0.7-4.7,1.2c0,0-0.1,0-0.1,0.1C187.8,289.4,181.4,290.7,175,290.7z M160.2,275.6
				c0.2,0.1,0.4,0.1,0.7,0.2c9,3.8,19.2,3.8,28.2,0c2.3-1,4.9-1.7,8-2.1h0.1l6.5-0.7v-6c0-9.4-7.7-17.1-17.1-17.1h-23.1
				c-9.4,0-17,7.7-17,17.1v6l5.9,0.7C154.9,274,157.6,274.6,160.2,275.6z M205.2,272.8L205.2,272.8L205.2,272.8z M175,230.6
				c-11.8,0-21.3-9.2-21.7-21l-0.5-14.7c-0.2-5.9,2-11.5,6.1-15.8s9.7-6.6,15.6-6.6h1c5.9,0,11.5,2.4,15.6,6.6
				c4.1,4.3,6.3,9.9,6.1,15.8l-0.5,14.7C196.3,221.4,186.8,230.6,175,230.6z M174.5,184.5c-2.7,0-5.1,1.1-7,3
				c-1.8,1.9-2.8,4.4-2.7,7l0.5,14.7c0.2,5.3,4.4,9.4,9.7,9.4s9.5-4.1,9.7-9.4l0.5-14.7c0.1-2.6-0.9-5.1-2.7-7s-4.3-3-7-3H174.5z"/>
		</g>
	</g>
	<g>
		<g>
			<path class="st1" d="M0,500"/>
		</g>
		<g>
			<path class="st2" d="M0,500"/>
		</g>
		<g>
			<path class="st2" d="M0,500"/>
		</g>
		<g>
			<path class="st2" d="M0,500"/>
		</g>
		<g>
			<path class="st2" d="M0,500"/>
		</g>
		<g>
			<path class="st2" d="M0,500"/>
		</g>
		<g>
			<path class="st2" d="M0,500"/>
		</g>
		<g>
			<path class="st2" d="M0,500"/>
		</g>
		<g>
			<path class="st2" d="M0,500"/>
		</g>
		<g>
			<path class="st2" d="M0,500"/>
		</g>
		<g>
			<path class="st2" d="M0,500"/>
		</g>
		<g>
			<path class="st2" d="M0,500"/>
		</g>
	</g>
</g>
</svg>
