<?xml version="1.0" encoding="utf-8"?>
<!-- Generator: Adobe Illustrator 27.5.0, SVG Export Plug-In . SVG Version: 6.00 Build 0)  -->
<svg version="1.1" id="Layer_1" xmlns="http://www.w3.org/2000/svg" xmlns:xlink="http://www.w3.org/1999/xlink" x="0px" y="0px"
	 viewBox="0 0 500 500" style="enable-background:new 0 0 500 500;" xml:space="preserve">
<style type="text/css">
	.st0{fill:#F9423A;}
	.st1{display:none;fill:none;stroke:#F9423A;stroke-width:12;stroke-linecap:round;stroke-linejoin:round;}
	.st2{fill:none;stroke:#F9423A;stroke-width:12;stroke-linecap:round;stroke-linejoin:round;}
</style>
<g>
	<g>
		<g>
			<path class="st0" d="M352.2,315c-3.3,0-6-2.7-6-6v-8.7c0-34.2-27.9-62.1-62.1-62.1h-1.3c-5.1,15.5-27.2,27.5-30,28.9
				c-1.7,0.9-3.8,0.9-5.5,0c-2.8-1.5-24.9-13.4-30-28.9H216c-34.2,0-62.1,27.9-62.1,62.1v8.7c0,3.3-2.7,6-6,6s-6-2.7-6-6v-8.7
				c0-40.9,33.2-74.1,74.1-74.1h0.3v-6.7c-1.5-1.2-3-2.5-4.4-3.8c-10.2-9.9-16.2-23.2-16.7-37.6l-1.6-45.8c0-0.1,0-0.1,0-0.2v-0.9
				c0-3.3,2.7-6,6-6s6,2.7,6,6v0.8l1.6,45.7c0.4,11.2,5.1,21.7,13.1,29.4s18.6,12,29.8,12c8.7,0,16.8-2.6,23.6-7
				c0.5-0.5,1.1-0.9,1.7-1.2c10.3-7.5,17.1-19.5,17.6-33.3l1.5-43.8c0.1-3.3,2.9-5.9,6.2-5.8c3.3,0.1,5.9,2.9,5.8,6.2L305,178
				c-0.6,17-8.7,31.8-21.1,41.5v6.6h0.3c40.9,0,74.1,33.2,74.1,74.1v8.7C358.2,312.3,355.5,315,352.2,315z M228.2,226.6v5.4
				c0,7.9,13.3,17.9,21.8,22.9c8.5-5,21.8-15.1,21.8-22.9v-5.3c-6.7,2.9-14,4.4-21.8,4.4C242.4,231.1,235,229.6,228.2,226.6z"/>
		</g>
		<g>
			<path class="st0" d="M300.4,140.1c-1.5,0-3-0.6-4.2-1.7l-21.5-20.6c-16.6,3.3-33.4,3.3-50-0.1l-21.6,17.9c-1.7,1.4-3.9,1.8-5.9,1
				c-2-0.7-3.5-2.5-3.8-4.6l-1.4-8.4c0-0.2,0-0.3-0.1-0.5c-1.1-12.2,3.7-25.4,12.7-35.3c7.5-8.2,21.4-17.9,45.2-17.9
				s37.7,9.7,45.2,17.8c9,9.8,13.8,23,12.8,35.4c0,0.1,0,0.2,0,0.3l-1.5,11.4c-0.3,2.2-1.8,4.1-4,4.9
				C301.7,140,301.1,140.1,300.4,140.1z M276.6,105.3c1.5,0,3,0.6,4.2,1.7l15.2,14.6c0.5-8.9-3.1-18.4-9.7-25.6
				c-5.8-6.4-16.9-13.9-36.4-13.9c-19.4,0-30.5,7.6-36.4,14.1c-6,6.6-9.6,15.4-9.7,23.5l15.5-12.9c1.4-1.2,3.3-1.7,5.2-1.2
				c16.8,3.8,33.9,3.8,50.7,0C275.7,105.3,276.2,105.3,276.6,105.3z"/>
		</g>
		<g>
			<g>
				<path class="st0" d="M367.4,416.1H132.6c-2.6,0-5-1.7-5.7-4.3l-16-52.7c-1-3.2,0.8-6.5,4-7.5s6.5,0.8,7.5,4l14.7,48.4H363
					l14.7-48.4c1-3.2,4.3-5,7.5-4s5,4.3,4,7.5l-16,52.7C372.4,414.4,370,416.1,367.4,416.1z M410.1,314.8c-3.3,0-6-2.7-6-6v-81
					l-39-15.6c-3.1-1.2-4.6-4.7-3.3-7.8c1.2-3.1,4.7-4.6,7.8-3.3l42.8,17.1c2.3,0.9,3.8,3.1,3.8,5.6v85.1
					C416.1,312.1,413.4,314.8,410.1,314.8z"/>
			</g>
			<g>
				<path class="st0" d="M410.1,363.2H89.9c-3.3,0-6-2.7-6-6V309c0-3.3,2.7-6,6-6h320.2c3.3,0,6,2.7,6,6v48.2
					C416.1,360.5,413.4,363.2,410.1,363.2z M95.9,351.2h308.2V315H95.9V351.2z"/>
			</g>
			<g>
				<path class="st0" d="M89.9,314.8c-3.3,0-6-2.7-6-6v-85.1c0-2.5,1.5-4.7,3.8-5.6l42.8-17.1c3.1-1.2,6.6,0.3,7.8,3.3
					s-0.3,6.6-3.3,7.8l-39,15.6v81C95.9,312.1,93.2,314.8,89.9,314.8z M354.6,221.1c-2.3,0-4.6-0.4-6.8-1.2l-19.1-7.2l0,0
					c-10.1-3.9-15.2-15.2-11.5-25.3c3.8-10.1,15.1-15.3,25.3-11.5l19.1,7.2c10.1,3.8,15.3,15.1,11.5,25.3c-1.8,4.9-5.5,8.8-10.3,11
					C360.2,220.5,357.4,221.1,354.6,221.1z M332.9,201.4l19.1,7.2c1.9,0.7,4,0.6,5.9-0.3c1.9-0.9,3.3-2.4,4-4.2
					c1.5-3.9-0.6-8.4-4.5-9.9l-19.1-7.2c-3.9-1.4-8.4,0.6-9.9,4.5C327,195.4,329,199.9,332.9,201.4z"/>
			</g>
			<g>
				<path class="st0" d="M145.3,221.1c-8,0-15.5-4.9-18.4-12.8c-3.8-10.2,1.4-21.5,11.5-25.3l19.1-7.2c10.2-3.8,21.6,1.4,25.3,11.5
					s-1.4,21.4-11.5,25.3l0,0l-19.1,7.2C149.9,220.7,147.6,221.1,145.3,221.1z M164.3,186.6c-0.9,0-1.8,0.2-2.6,0.5l-19.1,7.2
					c-1.9,0.7-3.4,2.1-4.3,4c-0.9,1.9-0.9,4-0.2,5.9c1.4,3.9,6,5.9,9.9,4.5l19-7.2c4-1.5,6-6,4.5-9.9
					C170.5,188.5,167.4,186.6,164.3,186.6z M169.2,207L169.2,207L169.2,207z"/>
			</g>
		</g>
	</g>
	<g>
		<g>
			<path class="st1" d="M0,500"/>
		</g>
		<g>
			<path class="st2" d="M0,500"/>
		</g>
		<g>
			<path class="st2" d="M0,500"/>
		</g>
		<g>
			<path class="st2" d="M0,500"/>
		</g>
		<g>
			<path class="st2" d="M0,500"/>
		</g>
		<g>
			<path class="st2" d="M0,500"/>
		</g>
		<g>
			<path class="st2" d="M0,500"/>
		</g>
		<g>
			<path class="st2" d="M0,500"/>
		</g>
		<g>
			<path class="st2" d="M0,500"/>
		</g>
		<g>
			<path class="st2" d="M0,500"/>
		</g>
		<g>
			<path class="st2" d="M0,500"/>
		</g>
		<g>
			<path class="st2" d="M0,500"/>
		</g>
	</g>
</g>
</svg>
