<?xml version="1.0" encoding="utf-8"?>
<!-- Generator: Adobe Illustrator 27.5.0, SVG Export Plug-In . SVG Version: 6.00 Build 0)  -->
<svg version="1.1" id="Layer_1" xmlns="http://www.w3.org/2000/svg" xmlns:xlink="http://www.w3.org/1999/xlink" x="0px" y="0px"
	 viewBox="0 0 500 500" style="enable-background:new 0 0 500 500;" xml:space="preserve">
<style type="text/css">
	.st0{clip-path:url(#SVGID_00000072967395012089429070000007333748773808050848_);}
	.st1{fill:#F9423A;}
	.st2{display:none;fill:none;stroke:#F9423A;stroke-width:12;stroke-linecap:round;stroke-linejoin:round;}
	.st3{fill:none;stroke:#F9423A;stroke-width:12;stroke-linecap:round;stroke-linejoin:round;}
</style>
<g>
	<g>
		<g>
			<defs>
				<rect id="SVGID_1_" width="500" height="500"/>
			</defs>
			<clipPath id="SVGID_00000057840063307591596550000016254448543771387800_">
				<use xlink:href="#SVGID_1_"  style="overflow:visible;"/>
			</clipPath>
			<g style="clip-path:url(#SVGID_00000057840063307591596550000016254448543771387800_);">
				<g>
					<g>
						<path class="st1" d="M250,416.1c-61.1,0-114.6-33.2-143.4-82.4c-0.2-0.2-0.3-0.4-0.5-0.7c-0.1-0.2-0.2-0.5-0.3-0.7
							C91.9,308,83.9,279.9,83.9,250s8-58,21.9-82.3c0.1-0.2,0.2-0.5,0.3-0.7c0.1-0.2,0.3-0.5,0.5-0.7
							c14.5-24.7,35.1-45.3,59.8-59.8c0.2-0.2,0.4-0.3,0.7-0.5c0.2-0.1,0.5-0.2,0.7-0.3C192,91.9,220.1,83.9,250,83.9
							s58,8,82.3,21.9c0.2,0.1,0.5,0.2,0.7,0.3c0.2,0.1,0.5,0.3,0.7,0.5c24.7,14.5,45.3,35.1,59.8,59.8c0.2,0.2,0.3,0.4,0.5,0.7
							c0.1,0.2,0.2,0.5,0.3,0.7c13.9,24.3,21.9,52.4,21.9,82.3s-8,58-21.9,82.3c-0.1,0.2-0.2,0.5-0.3,0.7c-0.1,0.2-0.3,0.5-0.5,0.7
							C364.6,382.9,311.1,416.1,250,416.1z M119.6,332.1c27.3,43.2,75.5,72,130.4,72c54.8,0,103-28.8,130.4-72L351,315.2
							c-2.9-1.7-3.9-5.3-2.2-8.2c1.7-2.9,5.3-3.9,8.2-2.2l29.4,16.9c10.4-19.8,16.7-42.1,17.6-65.7h-33.9c-3.3,0-6-2.7-6-6
							s2.7-6,6-6H404c-0.9-23.7-7.2-46-17.6-65.7L357,195.2c-2.9,1.7-6.5,0.7-8.2-2.2s-0.7-6.5,2.2-8.2l29.3-16.9
							c-12.3-19.4-28.8-36-48.2-48.2L315.2,149c-1.7,2.9-5.3,3.9-8.2,2.2c-2.9-1.7-3.9-5.3-2.2-8.2l16.9-29.4
							C302,103.2,279.7,96.9,256,96v33.9c0,3.3-2.7,6-6,6s-6-2.7-6-6V96c-23.7,0.9-46,7.2-65.7,17.6l16.9,29.4
							c1.7,2.9,0.7,6.5-2.2,8.2s-6.5,0.7-8.2-2.2l-16.9-29.3c-19.4,12.3-36,28.8-48.2,48.2l29.3,16.9c2.9,1.7,3.9,5.3,2.2,8.2
							s-5.3,3.9-8.2,2.2l-29.4-16.9C103.2,198,96.9,220.3,96,244h34c3.3,0,6,2.7,6,6s-2.7,6-6,6H96c0.9,23.7,7.2,46,17.6,65.7
							l29.4-16.9c2.9-1.7,6.5-0.7,8.2,2.2c1.7,2.9,0.7,6.5-2.2,8.2L119.6,332.1z"/>
					</g>
					<g>
						<path class="st1" d="M300.2,370.3H199.8c-9.9,0-18-8.1-18-18v-16c0-9.9,8.1-18,18-18h100.5c9.9,0,18,8.1,18,18v16
							C318.2,362.3,310,370.3,300.2,370.3z M199.8,330.3c-3.3,0-6,2.7-6,6v16c0,3.3,2.7,6,6,6h100.4c3.4,0,6-2.7,6.1-6.1v-15.9
							c0-3.3-2.7-6-6-6H199.8z"/>
					</g>
				</g>
				<g>
					<path class="st1" d="M250,281.5c-13.7,0-24.8-11.1-24.8-24.8c0-1.8,0.2-3.6,0.6-5.5l18.3-86.1c0.6-2.8,3-4.8,5.9-4.8
						s5.3,2,5.9,4.8l18.3,85.9c0.6,2.2,0.7,4.3,0.7,5.6C274.8,270.4,263.7,281.5,250,281.5z M250,195.3l-12.4,58.5v0.1
						c-0.2,1-0.3,1.9-0.3,2.8c0,7.1,5.7,12.8,12.8,12.8s12.8-5.7,12.8-12.8c0-1.1-0.1-1.9-0.3-2.6c0-0.1-0.1-0.3-0.1-0.4L250,195.3z
						"/>
				</g>
				<g>
					<g>
						<path class="st2" d="M0,500"/>
					</g>
					<g>
						<path class="st3" d="M0,500"/>
					</g>
					<g>
						<path class="st3" d="M0,500"/>
					</g>
					<g>
						<path class="st3" d="M0,500"/>
					</g>
					<g>
						<path class="st3" d="M0,500"/>
					</g>
					<g>
						<path class="st3" d="M0,500"/>
					</g>
					<g>
						<path class="st3" d="M0,500"/>
					</g>
					<g>
						<path class="st3" d="M0,500"/>
					</g>
					<g>
						<path class="st3" d="M0,500"/>
					</g>
					<g>
						<path class="st3" d="M0,500"/>
					</g>
					<g>
						<path class="st3" d="M0,500"/>
					</g>
					<g>
						<path class="st3" d="M0,500"/>
					</g>
				</g>
			</g>
		</g>
	</g>
</g>
</svg>
