<?xml version="1.0" encoding="iso-8859-1"?>
<!-- Generator: Adobe Illustrator 29.6.1, SVG Export Plug-In . SVG Version: 9.03 Build 0)  -->
<svg version="1.1" id="Layer_1" xmlns="http://www.w3.org/2000/svg" xmlns:xlink="http://www.w3.org/1999/xlink" x="0px" y="0px"
	 viewBox="0 0 500 500" style="enable-background:new 0 0 500 500;" xml:space="preserve">
<g>
	<g>
		<path style="fill:#F9423A;" d="M219.999,341h-75c-33.636,0-61-27.364-61-61s27.364-61,61-61h210c27.019,0,49-21.981,49-49
			s-21.981-49-49-49h-230c-3.314,0-6-2.686-6-6s2.686-6,6-6h230c33.636,0,61,27.364,61,61s-27.364,61-61,61h-210
			c-27.019,0-49,21.981-49,49s21.981,49,49,49h75c3.314,0,6,2.687,6,6S223.313,341,219.999,341z"/>
	</g>
	<g>
		<path style="fill:#F9423A;" d="M287.393,361c-3.313,0-6-2.687-6-6v-6.566l-6.351-12.758c-8.32,0.767-16.703-2.17-22.726-8.194
			c-7.176-7.177-9.983-17.725-7.328-27.526c0.554-2.045,2.145-3.646,4.187-4.212c9.855-2.736,20.468,0.055,27.694,7.281
			c6.605,6.607,9.51,16.071,7.858,25.18l2.746,5.518l3.541-6.903c-2.4-11.676,1.206-23.894,9.7-32.387
			c9.071-9.073,22.392-12.565,34.761-9.125c2.024,0.563,3.607,2.146,4.171,4.171c3.443,12.37-0.054,25.689-9.125,34.761
			c-7.889,7.89-18.99,11.565-29.889,10.121l-7.24,14.116V355C293.393,358.313,290.706,361,287.393,361z M256.015,306.726
			c-0.179,4.525,1.52,9.004,4.787,12.271c3.294,3.295,7.805,4.999,12.369,4.783c0.179-4.524-1.521-9.004-4.787-12.271
			C265.089,308.214,260.583,306.525,256.015,306.726z M302.457,322.495c7.155,0.876,14.407-1.569,19.58-6.741
			c5.172-5.173,7.61-12.429,6.741-19.579c-7.151-0.865-14.406,1.569-19.579,6.741C304.028,308.089,301.588,315.346,302.457,322.495z
			"/>
	</g>
	<g>
		<path style="fill:#F9423A;" d="M94.999,176c-1.304,0-2.608-0.424-3.693-1.271c-1.319-1.03-32.307-25.568-32.307-54.729
			c0-19.851,16.149-36,36-36s36,16.149,36,36c0,29.161-30.988,53.698-32.307,54.729C97.607,175.576,96.304,176,94.999,176z
			 M94.999,96c-13.234,0-24,10.766-24,24c0,18.035,16.455,35.167,24,42.074c7.542-6.904,24-24.037,24-42.074
			C118.999,106.766,108.233,96,94.999,96z"/>
	</g>
	<g>
		<path style="fill:#F9423A;" d="M95.009,127.5c-4.142,0-7.505-3.358-7.505-7.5s3.353-7.5,7.495-7.5h0.01c4.142,0,7.5,3.358,7.5,7.5
			S99.151,127.5,95.009,127.5z"/>
	</g>
	<g>
		<path style="fill:#F9423A;" d="M434.999,396h-15c-3.313,0-6-2.687-6-6s2.687-6,6-6h9v-38h-58v38h9c3.313,0,6,2.687,6,6
			s-2.687,6-6,6h-95c-3.313,0-6-2.687-6-6s2.687-6,6-6h74V266h-133v118h19c3.313,0,6,2.687,6,6s-2.687,6-6,6h-25
			c-3.313,0-6-2.687-6-6V260c0-3.313,2.687-6,6-6h145c3.313,0,6,2.687,6,6v24h28.907c7.866,0,15.006,4.336,18.634,11.316
			l21.729,41.813c0.246,0.45,0.436,0.937,0.56,1.447c0.125,0.51,0.181,1.027,0.17,1.539V390
			C440.999,393.313,438.313,396,434.999,396z M370.999,334h54.12l-17.228-33.15c-1.555-2.991-4.614-4.85-7.985-4.85h-28.907V334z"/>
	</g>
	<g>
		<path style="fill:#F9423A;" d="M399.999,416c-14.337,0-26-11.663-26-26s11.663-26,26-26s26,11.663,26,26S414.336,416,399.999,416z
			 M399.999,376c-7.72,0-14,6.28-14,14s6.28,14,14,14s14-6.28,14-14S407.719,376,399.999,376z M264.999,416
			c-14.336,0-26-11.663-26-26s11.664-26,26-26c14.337,0,26,11.663,26,26S279.336,416,264.999,416z M264.999,376
			c-7.72,0-14,6.28-14,14s6.28,14,14,14s14-6.28,14-14S272.719,376,264.999,376z"/>
	</g>
</g>
</svg>
