<?xml version="1.0" encoding="iso-8859-1"?>
<!-- Generator: Adobe Illustrator 29.6.1, SVG Export Plug-In . SVG Version: 9.03 Build 0)  -->
<svg version="1.1" id="Layer_1" xmlns="http://www.w3.org/2000/svg" xmlns:xlink="http://www.w3.org/1999/xlink" x="0px" y="0px"
	 viewBox="0 0 500 500" style="enable-background:new 0 0 500 500;" xml:space="preserve">
<defs>
	<filter id="Adobe_OpacityMaskFilter" filterUnits="userSpaceOnUse" x="59" y="101.5" width="382" height="282">
		<feColorMatrix  type="matrix" values="1 0 0 0 0  0 1 0 0 0  0 0 1 0 0  0 0 0 1 0"/>
	</filter>
</defs>
<mask maskUnits="userSpaceOnUse" x="59" y="101.5" width="382" height="282" id="_x38_A_x5F_zVbOtLoa_00000160170455580382242550000013123309634281567368_">
	<path style="fill-rule:evenodd;clip-rule:evenodd;fill:#FFFFFF;filter:url(#Adobe_OpacityMaskFilter);" d="M451.516,65.959H45
		V419.04h406.516V65.959z M250,322.5c44.183,0,80-35.817,80-80s-35.817-80-80-80s-80,35.817-80,80S205.817,322.5,250,322.5"/>
</mask>
<g style="mask:url(#_x38_A_x5F_zVbOtLoa_00000160170455580382242550000013123309634281567368_);">
	<g>
		<path style="fill:#F9423A;" d="M375,383.5H132.5C91.972,383.5,59,350.528,59,310s32.972-73.5,73.5-73.5h235
			c33.911,0,61.5-27.589,61.5-61.5s-27.589-61.5-61.5-61.5H125c-3.313,0-6-2.687-6-6s2.687-6,6-6h242.5
			c40.528,0,73.5,32.972,73.5,73.5s-32.972,73.5-73.5,73.5h-235C98.589,248.5,71,276.089,71,310s27.589,61.5,61.5,61.5H375
			c3.313,0,6,2.687,6,6S378.313,383.5,375,383.5z"/>
	</g>
</g>
<g>
	<path style="fill:#F9423A;" d="M250,328.5c-47.42,0-86-38.579-86-86c0-47.42,38.58-86,86-86c47.421,0,86,38.58,86,86
		C336,289.921,297.421,328.5,250,328.5z M250,168.5c-40.804,0-74,33.196-74,74s33.196,74,74,74s74-33.196,74-74
		S290.804,168.5,250,168.5z"/>
</g>
<g>
	<path style="fill:#F9423A;" d="M245.736,293.5c-3.313,0-6-2.687-6-6v-13.419l-7.613-15.294c-9.452,1.057-19.026-2.216-25.867-9.058
		c-7.984-7.983-11.109-19.72-8.155-30.628c0.554-2.045,2.146-3.647,4.188-4.213c10.968-3.042,22.774,0.063,30.814,8.103
		c7.418,7.418,10.641,18.075,8.691,28.296l4.022,8.08l4.959-9.668c-2.807-13.15,1.216-26.954,10.79-36.528
		c10.148-10.149,25.053-14.061,38.892-10.209c2.025,0.563,3.608,2.146,4.172,4.171c3.852,13.839-0.061,28.741-10.209,38.89
		c-8.971,8.972-21.653,13.068-34.037,11.24l-8.646,16.855V287.5C251.735,290.813,249.049,293.5,245.736,293.5z M209.064,225.81
		c-0.448,5.667,1.586,11.345,5.676,15.435c4.124,4.123,9.847,6.142,15.552,5.667c0.448-5.667-1.585-11.344-5.676-15.435
		C220.493,227.353,214.773,225.315,209.064,225.81z M262.188,245.4c8.644,1.262,17.487-1.604,23.744-7.862
		c6.258-6.258,9.123-15.103,7.862-23.744c-8.638-1.261-17.487,1.603-23.745,7.861C263.793,227.915,260.928,236.76,262.188,245.4z"/>
</g>
<g>
	<path style="fill:#F9423A;" d="M405,423.5c-1.304,0-2.608-0.424-3.693-1.271C399.987,421.198,369,396.661,369,367.5
		c0-19.851,16.149-36,36-36s36,16.149,36,36c0,29.161-30.987,53.698-32.307,54.729C407.608,423.076,406.304,423.5,405,423.5z
		 M405,343.5c-13.233,0-24,10.767-24,24c0,18.036,16.455,35.168,24,42.073c7.542-6.903,24-24.036,24-42.073
		C429,354.267,418.233,343.5,405,343.5z"/>
</g>
<g>
	<path style="fill:#F9423A;" d="M405.01,375c-4.143,0-7.505-3.357-7.505-7.5s3.353-7.5,7.495-7.5h0.01c4.143,0,7.5,3.357,7.5,7.5
		S409.152,375,405.01,375z"/>
</g>
<g>
	<path style="fill:#F9423A;" d="M95,168.5c-1.304,0-2.608-0.424-3.693-1.271C89.988,166.198,59,141.661,59,112.5
		c0-19.851,16.149-36,36-36s36,16.149,36,36c0,29.161-30.988,53.698-32.307,54.729C97.608,168.076,96.304,168.5,95,168.5z M95,88.5
		c-13.234,0-24,10.766-24,24c0,18.035,16.455,35.167,24,42.074c7.542-6.904,24-24.037,24-42.074C119,99.266,108.234,88.5,95,88.5z"
		/>
</g>
<g>
	<path style="fill:#F9423A;" d="M95.01,120c-4.142,0-7.505-3.358-7.505-7.5S90.858,105,95,105h0.01c4.142,0,7.5,3.358,7.5,7.5
		S99.152,120,95.01,120z"/>
</g>
</svg>
