<?xml version="1.0" encoding="utf-8"?>
<!-- Generator: Adobe Illustrator 27.5.0, SVG Export Plug-In . SVG Version: 6.00 Build 0)  -->
<svg version="1.1" id="Layer_1" xmlns="http://www.w3.org/2000/svg" xmlns:xlink="http://www.w3.org/1999/xlink" x="0px" y="0px"
	 viewBox="0 0 500 500" style="enable-background:new 0 0 500 500;" xml:space="preserve">
<style type="text/css">
	.st0{clip-path:url(#SVGID_00000179642229360720309250000007142005039877212564_);}
	.st1{opacity:0;clip-path:url(#SVGID_00000046341814093091663150000008417879972473535881_);}
	.st2{fill:#F9423A;}
	.st3{clip-path:url(#SVGID_00000175324705706817154530000013589910750845213355_);}
	.st4{fill:none;stroke:#F9423A;stroke-width:12;stroke-linecap:round;stroke-linejoin:round;}
</style>
<g>
	<g>
		<g>
			<defs>
				<rect id="SVGID_1_" width="500" height="500"/>
			</defs>
			<clipPath id="SVGID_00000147906537807707449100000010792366406392377741_">
				<use xlink:href="#SVGID_1_"  style="overflow:visible;"/>
			</clipPath>
			<g style="clip-path:url(#SVGID_00000147906537807707449100000010792366406392377741_);">
				<g>
					<g>
						<g>
							<defs>
								<rect id="SVGID_00000057131557986140440250000010612483460353052553_" width="500" height="500"/>
							</defs>
							<clipPath id="SVGID_00000060019403709194938980000015226423288286783922_">
								<use xlink:href="#SVGID_00000057131557986140440250000010612483460353052553_"  style="overflow:visible;"/>
							</clipPath>
							<g style="opacity:0;clip-path:url(#SVGID_00000060019403709194938980000015226423288286783922_);">
								<g>
									<path class="st2" d="M234.7,349.4c-0.7,0-1.4-0.1-2.1-0.4c-2.6-0.9-4.2-3.5-3.9-6.2l6-60.6h-37.8c-2.1,0-4-1.1-5.1-2.9
										s-1.2-4-0.2-5.9L254,153.8c1.3-2.5,4.3-3.8,7-3s4.5,3.4,4.3,6.3l-7.3,81.5h45.1c2.2,0,4.3,1.2,5.3,3.2s0.9,4.4-0.4,6.2
										l-68.4,98.8C238.5,348.5,236.6,349.4,234.7,349.4z M206.8,270.2h34.5c1.7,0,3.3,0.7,4.4,2c1.1,1.3,1.7,2.9,1.5,4.6
										l-4.3,44.2l48.7-70.4h-40.2c-1.7,0-3.3-0.7-4.4-2c-1.1-1.2-1.7-2.9-1.5-4.6l5.2-57.9L206.8,270.2z"/>
								</g>
								<g>
									<g>
										<path class="st2" d="M250.4,402.7c-4.3,0-8.7-0.2-13.1-0.6c-69.5-5.8-126.2-57.8-137.9-126.5c-0.6-3.3,1.6-6.4,4.9-6.9
											c3.3-0.6,6.4,1.6,6.9,4.9C122,337,174.3,384.9,238.3,390.2c77.3,6.5,145.5-51.1,152-128.5c0.3-3.3,3.2-5.8,6.5-5.5
											c3.3,0.3,5.8,3.2,5.5,6.5c-3.4,40.7-22.5,77.6-53.6,103.9C320.9,390.1,286.4,402.7,250.4,402.7z M103.7,243.8
											c-0.2,0-0.3,0-0.5,0c-3.3-0.3-5.8-3.2-5.5-6.5c7.1-84,81.1-146.5,165-139.5c69.5,5.8,126.2,57.8,137.9,126.5
											c0.6,3.3-1.6,6.4-4.9,6.9c-3.3,0.6-6.4-1.6-6.9-4.9C378,163,325.7,115.1,261.7,109.8c-77.3-6.5-145.5,51.1-152,128.5
											C109.4,241.4,106.8,243.8,103.7,243.8z"/>
									</g>
									<g>
										<path class="st2" d="M421.1,301.8c-1.8,0-3.7-0.8-4.8-2.4L395,270.7l-28.8,21.2c-2.7,2-6.4,1.4-8.4-1.3
											c-2-2.7-1.4-6.4,1.3-8.4l33.6-24.7c2.7-2,6.4-1.4,8.4,1.3l24.8,33.5c2,2.7,1.4,6.4-1.3,8.4
											C423.6,301.4,422.3,301.8,421.1,301.8z M103.7,243.7c-1.8,0-3.7-0.8-4.8-2.4l-24.8-33.5c-2-2.7-1.4-6.4,1.3-8.4
											c2.7-2,6.4-1.4,8.4,1.3l21.2,28.7l28.7-21.2c2.7-2,6.4-1.4,8.4,1.3s1.4,6.4-1.3,8.4l-33.5,24.8
											C106.2,243.3,104.9,243.7,103.7,243.7z"/>
									</g>
								</g>
							</g>
						</g>
					</g>
				</g>
				<g>
					<g>
						<g>
							<defs>
								<rect id="SVGID_00000014626004937028284680000005207667401792817038_" width="500" height="500"/>
							</defs>
							<clipPath id="SVGID_00000105418179389246440700000000484881455179415693_">
								<use xlink:href="#SVGID_00000014626004937028284680000005207667401792817038_"  style="overflow:visible;"/>
							</clipPath>
							<g style="clip-path:url(#SVGID_00000105418179389246440700000000484881455179415693_);">
								<g>
									<path class="st2" d="M234.7,349.4c-0.7,0-1.4-0.1-2.1-0.4c-2.6-0.9-4.2-3.5-3.9-6.2l6-60.6h-37.8c-2.1,0-4-1.1-5.1-2.9
										s-1.2-4-0.2-5.9L254,153.8c1.3-2.5,4.3-3.8,7-3s4.5,3.4,4.3,6.3l-7.3,81.5h45.1c2.2,0,4.3,1.2,5.3,3.2s0.9,4.4-0.4,6.2
										l-68.4,98.8C238.5,348.5,236.6,349.4,234.7,349.4z M206.8,270.2h34.5c1.7,0,3.3,0.7,4.4,2c1.1,1.3,1.7,2.9,1.5,4.6
										l-4.3,44.2l48.7-70.4h-40.2c-1.7,0-3.3-0.7-4.4-2c-1.1-1.2-1.7-2.9-1.5-4.6l5.2-57.9L206.8,270.2z"/>
								</g>
								<g>
									<g>
										<path class="st2" d="M250.4,402.7c-4.3,0-8.7-0.2-13.1-0.6c-69.5-5.8-126.2-57.8-137.9-126.5c-0.6-3.3,1.6-6.4,4.9-6.9
											c3.3-0.6,6.4,1.6,6.9,4.9C122,337,174.3,384.9,238.3,390.2c77.3,6.5,145.5-51.1,152-128.5c0.3-3.3,3.2-5.8,6.5-5.5
											c3.3,0.3,5.8,3.2,5.5,6.5c-3.4,40.7-22.5,77.6-53.6,103.9C320.9,390.1,286.4,402.7,250.4,402.7z M103.7,243.8
											c-0.2,0-0.3,0-0.5,0c-3.3-0.3-5.8-3.2-5.5-6.5c7.1-84,81.1-146.5,165-139.5c69.5,5.8,126.2,57.8,137.9,126.5
											c0.6,3.3-1.6,6.4-4.9,6.9c-3.3,0.6-6.4-1.6-6.9-4.9C378,163,325.7,115.1,261.7,109.8c-77.3-6.5-145.5,51.1-152,128.5
											C109.4,241.4,106.8,243.8,103.7,243.8z"/>
									</g>
									<g>
										<path class="st2" d="M421.1,301.8c-1.8,0-3.7-0.8-4.8-2.4L395,270.7l-28.8,21.2c-2.7,2-6.4,1.4-8.4-1.3
											c-2-2.7-1.4-6.4,1.3-8.4l33.6-24.7c2.7-2,6.4-1.4,8.4,1.3l24.8,33.5c2,2.7,1.4,6.4-1.3,8.4
											C423.6,301.4,422.3,301.8,421.1,301.8z M103.7,243.7c-1.8,0-3.7-0.8-4.8-2.4l-24.8-33.5c-2-2.7-1.4-6.4,1.3-8.4
											c2.7-2,6.4-1.4,8.4,1.3l21.2,28.7l28.7-21.2c2.7-2,6.4-1.4,8.4,1.3s1.4,6.4-1.3,8.4l-33.5,24.8
											C106.2,243.3,104.9,243.7,103.7,243.7z"/>
									</g>
								</g>
							</g>
						</g>
					</g>
				</g>
				<g>
					<path class="st4" d="M0,500"/>
				</g>
			</g>
		</g>
	</g>
</g>
</svg>
