<?xml version="1.0" encoding="utf-8"?>
<!-- Generator: Adobe Illustrator 27.5.0, SVG Export Plug-In . SVG Version: 6.00 Build 0)  -->
<svg version="1.1" id="Layer_1" xmlns="http://www.w3.org/2000/svg" xmlns:xlink="http://www.w3.org/1999/xlink" x="0px" y="0px"
	 viewBox="0 0 500 500" style="enable-background:new 0 0 500 500;" xml:space="preserve">
<style type="text/css">
	.st0{fill:#F9423A;}
	.st1{fill:none;stroke:#F9423A;stroke-width:12.04;stroke-linecap:round;stroke-linejoin:round;}
</style>
<g>
	<g>
		<g>
			<g>
				<path class="st0" d="M299.4,356.2h-13.7c-3.5,0-6.3-2.8-6.3-6.3s2.8-6.3,6.3-6.3h13.7c1.1,0,2.2,0,3.3-0.1
					c3.5-0.2,6.5,2.3,6.7,5.9c0.2,3.6-2.3,6.5-5.9,6.7C302.1,356.1,300.7,356.2,299.4,356.2z M254.2,356.2h-13.7
					c-3.5,0-6.3-2.8-6.3-6.3s2.8-6.3,6.3-6.3h13.7c3.5,0,6.3,2.8,6.3,6.3S257.6,356.2,254.2,356.2z M209,356.2h-13.7
					c-3.5,0-6.3-2.8-6.3-6.3s2.8-6.3,6.3-6.3H209c3.5,0,6.3,2.8,6.3,6.3S212.4,356.2,209,356.2z M163.8,356.2h-11.9
					c-0.6,0-1.4,0-2,0c-3.5-0.1-6.2-3-6.1-6.5c0.1-3.5,3-6.2,6.5-6.1c0.5,0,1.1,0,1.6,0h11.9c3.5,0,6.3,2.8,6.3,6.3
					S167.2,356.2,163.8,356.2z M120.9,345.6c-1.4,0-2.7-0.4-3.9-1.4c-4.1-3.2-7.7-6.8-10.7-10.9c-2.1-2.8-1.5-6.7,1.3-8.8
					c2.7-2.1,6.7-1.5,8.8,1.3c2.4,3.2,5.3,6.1,8.4,8.5c2.7,2.1,3.3,6.1,1.2,8.8C124.6,344.8,122.8,345.6,120.9,345.6z M101.3,306.6
					c-3.5,0-6.2-2.7-6.3-6.2c0-0.3,0-0.7,0-1.1v-12.7c0-3.5,2.8-6.3,6.3-6.3c3.5,0,6.3,2.8,6.3,6.3v12.7c0,0.3,0,0.5,0,0.8
					C107.7,303.7,104.9,306.5,101.3,306.6L101.3,306.6z M349.9,304.6c-3.5,0-6.3-2.8-6.3-6.3v-13.7c0-3.5,2.8-6.3,6.3-6.3
					s6.3,2.8,6.3,6.3v13.7C356.2,301.8,353.4,304.6,349.9,304.6z M101.3,261.4c-3.5,0-6.3-2.8-6.3-6.3v-13.7c0-3.5,2.8-6.3,6.3-6.3
					c3.5,0,6.3,2.8,6.3,6.3v13.7C107.6,258.6,104.8,261.4,101.3,261.4z M349.9,259.4c-3.5,0-6.3-2.8-6.3-6.3v-13.7
					c0-3.5,2.8-6.3,6.3-6.3s6.3,2.8,6.3,6.3v13.7C356.2,256.6,353.4,259.4,349.9,259.4z M101.3,216.2c-3.5,0-6.3-2.8-6.3-6.3v-13.7
					c0-3.5,2.8-6.3,6.3-6.3c3.5,0,6.3,2.8,6.3,6.3v13.7C107.6,213.4,104.8,216.2,101.3,216.2z M349.9,214.2c-3.5,0-6.3-2.8-6.3-6.3
					v-13.7c0-3.5,2.8-6.3,6.3-6.3s6.3,2.8,6.3,6.3v13.7C356.2,211.4,353.4,214.2,349.9,214.2z M101.3,171c-3.5,0-6.3-2.8-6.3-6.3
					v-12.8c0-0.3,0-0.6,0-0.9c0.1-3.5,2.8-6.2,6.3-6.2h0.1c3.5,0.1,6.3,2.9,6.2,6.4c0,0.2,0,0.5,0,0.7v12.8
					C107.6,168.2,104.8,171,101.3,171z M349.9,169c-3.5,0-6.3-2.8-6.3-6.3v-10.9c0-0.8,0-1.6-0.1-2.4c-0.2-3.5,2.5-6.4,6-6.6
					c3.5-0.2,6.4,2.5,6.6,6c0.1,1.1,0.1,2.1,0.1,3.2v10.8C356.2,166.2,353.4,169,349.9,169z M111.3,127.9c-1.3,0-2.6-0.4-3.8-1.3
					c-2.8-2.1-3.4-6-1.3-8.8c3-4.1,6.6-7.8,10.7-10.9c2.7-2.1,6.7-1.7,8.8,1.2c2.1,2.7,1.7,6.7-1.2,8.8c-3.2,2.4-6,5.4-8.3,8.5
					C115.1,127.1,113.2,127.9,111.3,127.9z M338.7,126.4c-1.9,0-3.7-0.8-4.9-2.3c-2.5-3.2-5.5-5.9-8.6-8.2c-2.8-2-3.5-6-1.5-8.8
					c2-2.8,6-3.5,8.8-1.5c4.2,2.9,7.9,6.5,11.1,10.5c2.2,2.7,1.8,6.7-0.9,8.8C341.5,125.9,340,126.4,338.7,126.4z M150,107.6
					c-3.4,0-6.2-2.6-6.3-6.1c-0.1-3.5,2.6-6.4,6.1-6.5c0.7,0,1.4,0,2.1,0h11.8c3.5,0,6.3,2.8,6.3,6.3c0,3.5-2.8,6.3-6.3,6.3h-11.8
					c-0.5,0-1.1,0-1.6,0C150.1,107.6,150.1,107.6,150,107.6z M299.3,107.6h-13.7c-3.5,0-6.3-2.8-6.3-6.3c0-3.5,2.8-6.3,6.3-6.3h13.7
					c3.5,0,6.3,2.8,6.3,6.3C305.6,104.8,302.7,107.6,299.3,107.6z M254.1,107.6h-13.7c-3.5,0-6.3-2.8-6.3-6.3c0-3.5,2.8-6.3,6.3-6.3
					h13.7c3.5,0,6.3,2.8,6.3,6.3C260.4,104.8,257.5,107.6,254.1,107.6z M208.8,107.6h-13.7c-3.5,0-6.3-2.8-6.3-6.3
					c0-3.5,2.8-6.3,6.3-6.3h13.7c3.5,0,6.3,2.8,6.3,6.3C215.2,104.8,212.3,107.6,208.8,107.6z"/>
			</g>
		</g>
		<g>
			<path class="st0" d="M349.9,415.1c-3.5,0-6.3-2.8-6.3-6.3V290.9c0-3.5,2.8-6.3,6.3-6.3s6.3,2.8,6.3,6.3v117.8
				C356.2,412.3,353.4,415.1,349.9,415.1z"/>
		</g>
		<g>
			<path class="st0" d="M408.8,356.2H290.9c-3.5,0-6.3-2.8-6.3-6.3s2.8-6.3,6.3-6.3h117.8c3.5,0,6.3,2.8,6.3,6.3
				S412.3,356.2,408.8,356.2z"/>
		</g>
	</g>
	<path class="st1" d="M0,500"/>
</g>
</svg>
