<?xml version="1.0" encoding="iso-8859-1"?>
<!-- Generator: Adobe Illustrator 29.6.1, SVG Export Plug-In . SVG Version: 9.03 Build 0)  -->
<svg version="1.1" id="Layer_1" xmlns="http://www.w3.org/2000/svg" xmlns:xlink="http://www.w3.org/1999/xlink" x="0px" y="0px"
	 viewBox="0 0 500 500" style="enable-background:new 0 0 500 500;" xml:space="preserve">
<g>
	<g>
		<path style="fill:#F9423A;" d="M250,436c-102.561,0-186-83.439-186-186S147.439,64,250,64s186,83.439,186,186S352.561,436,250,436
			z M250,390.3c3.313,0,6,2.687,6,6v27.599c91.184-3.106,164.792-76.715,167.898-167.898H396.3c-3.313,0-6-2.687-6-6
			c0-3.314,2.687-6,6-6h27.599C420.792,152.816,347.184,79.208,256,76.102V103.7c0,3.314-2.687,6-6,6c-3.314,0-6-2.686-6-6V76.102
			C152.816,79.208,79.208,152.816,76.102,244H103.7c3.314,0,6,2.686,6,6c0,3.313-2.686,6-6,6H76.102
			C79.208,347.184,152.816,420.792,244,423.898V396.3C244,392.986,246.686,390.3,250,390.3z"/>
	</g>
	<g>
		<path style="fill:#F9423A;" d="M250,303.5c-3.313,0-6-2.687-6-6V256h-41.5c-3.313,0-6-2.687-6-6s2.687-6,6-6H244v-41.5
			c0-3.313,2.687-6,6-6s6,2.687,6,6V244h41.5c3.313,0,6,2.687,6,6s-2.687,6-6,6H256v41.5C256,300.813,253.313,303.5,250,303.5z"/>
	</g>
</g>
</svg>
