<?xml version="1.0" encoding="utf-8"?>
<!-- Generator: Adobe Illustrator 27.5.0, SVG Export Plug-In . SVG Version: 6.00 Build 0)  -->
<svg version="1.1" id="Layer_1" xmlns="http://www.w3.org/2000/svg" xmlns:xlink="http://www.w3.org/1999/xlink" x="0px" y="0px"
	 viewBox="0 0 500 500" style="enable-background:new 0 0 500 500;" xml:space="preserve">
<style type="text/css">
	.st0{clip-path:url(#SVGID_00000156587124940153146880000011909511373699773859_);}
	.st1{fill:#F9423A;}
</style>
<g>
	<g>
		<g>
			<defs>
				<rect id="SVGID_1_" width="500" height="500"/>
			</defs>
			<clipPath id="SVGID_00000096745087531334781810000000784112279962871683_">
				<use xlink:href="#SVGID_1_"  style="overflow:visible;"/>
			</clipPath>
			<g style="clip-path:url(#SVGID_00000096745087531334781810000000784112279962871683_);">
				<g>
					<path class="st1" d="M249.9,443c-5.9,0-11.9-1.1-17.4-3.4c-0.2-0.1-0.4-0.1-0.5-0.2c-1.6-0.6-3.3-1.1-4.9-1.3l-7.2-0.8
						c-5-0.5-8.8-4.7-8.8-9.9v-7.3c0.1-15.4,12.7-27.9,28-27.9h22c15.4,0,27.9,12.5,27.9,27.9v7.3c0,5.1-3.8,9.4-8.9,9.9l-7.6,0.9
						h-0.1c-1.3,0.1-2.8,0.5-4.3,1.2C262.2,441.8,256.1,443,249.9,443z M235.9,428.1c0.2,0.1,0.5,0.1,0.7,0.2
						c8.5,3.6,18.2,3.6,26.7,0c2.6-1.1,5.2-1.8,7.8-2l5.8-0.7v-5.5c0-8.8-7.1-15.9-15.9-15.9h-22c-8.7,0-15.9,7.2-16,16v5.4l5.5,0.6
						c0.1,0,0.1,0,0.2,0C231,426.6,233.6,427.2,235.9,428.1z M278.7,425.4L278.7,425.4L278.7,425.4z M221.1,425.4L221.1,425.4
						L221.1,425.4z M250,387.4c-11.8,0-21.4-9.2-21.8-21l-0.5-14.7c-0.2-5.9,2-11.6,6.1-15.8c4.2-4.3,9.7-6.7,15.7-6.7h1
						c6,0,11.5,2.4,15.7,6.7c4.1,4.3,6.3,9.9,6.1,15.8l-0.5,14.7C271.4,378.2,261.8,387.4,250,387.4z M249.5,341.2
						c-2.7,0-5.2,1.1-7.1,3c-1.9,1.9-2.8,4.4-2.7,7.1l0.5,14.7c0.2,5.3,4.5,9.4,9.8,9.4s9.6-4.1,9.8-9.4l0.5-14.7
						c0.1-2.6-0.9-5.2-2.7-7.1c-1.9-1.9-4.4-3-7.1-3H249.5z M96.1,305.8c-5.9,0-11.8-1.1-17.4-3.4c-0.2-0.1-0.4-0.1-0.6-0.2
						c-1.6-0.6-3.3-1.1-4.9-1.3l-7.2-0.8c-5-0.5-8.8-4.7-8.8-9.9V283c0.1-15.4,12.7-27.9,28.1-27.9h21.9c15.4,0,27.9,12.5,27.9,27.9
						v7.3c0,5.1-3.8,9.4-8.9,9.9l-7.6,0.9h-0.1c-1.3,0.1-2.8,0.5-4.3,1.2C108.4,304.6,102.3,305.8,96.1,305.8z M82,290.9
						c0.3,0.1,0.5,0.2,0.8,0.3c8.5,3.6,18.2,3.6,26.7,0c2.6-1.1,5.2-1.8,7.8-2l5.8-0.7V283c0-8.8-7.1-15.9-15.9-15.9H85.3
						c-8.8,0-16,7.2-16.1,16v5.4l5.5,0.6c0.1,0,0.1,0,0.2,0C77.2,289.4,79.7,290,82,290.9z M124.9,288.2L124.9,288.2L124.9,288.2z
						 M67.3,288.2L67.3,288.2L67.3,288.2z M405,305.8c-5.9,0-11.8-1.1-17.4-3.4c-0.2-0.1-0.4-0.1-0.6-0.2c-1.6-0.6-3.3-1.1-4.9-1.3
						l-7.2-0.8c-5-0.5-8.8-4.7-8.8-9.9V283v-0.1c0.3-15.3,12.9-27.8,28.1-27.8h21.9c15.4,0,27.9,12.5,27.9,27.9v7.3
						c0,5.1-3.8,9.4-8.9,9.9l-7.6,0.9h-0.1c-1.3,0.1-2.8,0.5-4.3,1.2C417.3,304.6,411.2,305.8,405,305.8z M390.9,290.9
						c0.3,0.1,0.5,0.2,0.8,0.3c8.5,3.6,18.2,3.6,26.7,0c2.6-1.1,5.2-1.8,7.8-2l5.8-0.7V283c0-8.8-7.1-15.9-15.9-15.9h-21.9
						c-8.7,0-15.9,7.2-16.1,16v5.4l5.5,0.6c0.1,0,0.1,0,0.2,0C386.1,289.4,388.6,290,390.9,290.9z M433.8,288.2L433.8,288.2
						L433.8,288.2z M376.2,288.2L376.2,288.2L376.2,288.2z M405.2,250.2c-11.8,0-21.4-9.2-21.8-21l-0.5-14.7
						c-0.2-5.9,2-11.6,6.1-15.8c4.2-4.3,9.7-6.7,15.7-6.7h1c6,0,11.5,2.4,15.7,6.7c4.1,4.3,6.3,9.9,6.1,15.8l-0.5,14.7
						C426.6,241,417,250.2,405.2,250.2z M404.7,204c-2.7,0-5.2,1.1-7.1,3s-2.8,4.4-2.7,7.1l0.5,14.7c0.2,5.3,4.5,9.4,9.8,9.4
						s9.6-4.1,9.8-9.4l0.5-14.7c0.1-2.6-0.9-5.2-2.7-7.1c-1.9-1.9-4.4-3-7.1-3H404.7z M96.2,250.2c-11.8,0-21.4-9.2-21.8-21
						L74,214.5c-0.2-5.9,2-11.6,6.1-15.8c4.1-4.3,9.7-6.6,15.6-6.6h1c6,0,11.5,2.4,15.7,6.7c4.1,4.3,6.3,9.9,6.1,15.8l-0.5,14.7
						C117.6,241,108,250.2,96.2,250.2z M95.7,204c-2.6,0-5.1,1-7,3c-1.9,1.9-2.8,4.5-2.7,7.1l0.4,14.7c0.2,5.2,4.5,9.4,9.8,9.4
						s9.6-4.1,9.8-9.4l0.5-14.7c0.1-2.6-0.9-5.2-2.7-7.1c-1.9-1.9-4.4-3-7.1-3H95.7z M250.3,168.7c-5.9,0-11.8-1.1-17.4-3.4
						c-0.2-0.1-0.4-0.1-0.6-0.2c-1.6-0.6-3.3-1.1-4.9-1.3l-7.2-0.8c-5-0.5-8.8-4.7-8.8-9.9v-7.3c0.3-15.4,12.9-27.9,28.1-27.9h21.9
						c15.4,0,27.9,12.5,27.9,27.9v7.3c0,5.1-3.8,9.4-8.9,9.9l-7.6,0.9h-0.1c-1.3,0.1-2.8,0.5-4.3,1.2
						C262.6,167.5,256.5,168.7,250.3,168.7z M236.2,153.8c0.3,0.1,0.5,0.2,0.8,0.3c8.5,3.6,18.2,3.6,26.7,0c2.6-1.1,5.2-1.8,7.8-2
						l5.8-0.7v-5.5c0-8.8-7.1-15.9-15.9-15.9h-21.9c-8.7,0-16,7.2-16.1,16v5.3l5.5,0.6c0.1,0,0.1,0,0.2,0
						C231.4,152.3,233.9,152.9,236.2,153.8z M279.1,151.1L279.1,151.1L279.1,151.1z M221.5,151.1L221.5,151.1L221.5,151.1z
						 M250.5,113.1c-11.8,0-21.4-9.2-21.8-21l-0.5-14.7c-0.2-5.9,2-11.6,6.1-15.8c4.2-4.3,9.7-6.7,15.7-6.7h1c6,0,11.5,2.4,15.7,6.7
						c4.1,4.3,6.3,9.9,6.1,15.8l-0.5,14.7C271.9,103.9,262.3,113.1,250.5,113.1z M250,66.9c-2.7,0-5.2,1.1-7.1,3
						c-1.9,1.9-2.8,4.4-2.7,7.1l0.5,14.7c0.2,5.3,4.5,9.4,9.8,9.4s9.6-4.1,9.8-9.4l0.5-14.7c0.1-2.6-0.9-5.2-2.7-7.1
						c-1.9-1.9-4.4-3-7.1-3H250z"/>
				</g>
				<g>
					<g>
						<path class="st1" d="M267.7,288.6h-35.3c-3.3,0-6-2.7-6-6v-13.4c-9.2-9.2-19-24.3-18.9-39.6c0.1-22.9,19-41.9,42.2-42.3
							c11.2-0.2,22.3,4.4,30.4,12.6c8,8.1,12.3,18.7,12,29.9c-0.3,15.8-9.4,30.4-18.4,39.4v13.4C273.7,285.9,271,288.6,267.7,288.6z
							 M238.4,276.6h23.3v-10c0-1.7,0.7-3.3,1.9-4.4c7.4-6.8,16.2-19.5,16.5-32.7c0.2-7.9-2.8-15.4-8.5-21.2
							c-5.8-5.9-13.7-9.2-21.7-9c-16.7,0.3-30.3,13.9-30.4,30.3c-0.1,13.4,11.1,27.1,17,32.5c1.2,1.1,1.9,2.7,1.9,4.4L238.4,276.6
							L238.4,276.6z"/>
					</g>
					<g>
						<path class="st1" d="M255.6,309.4h-11.1c-10,0-18.1-8.1-18.1-18.1v-8.7c0-3.3,2.7-6,6-6h35.3c3.3,0,6,2.7,6,6v8.7
							C273.7,301.3,265.6,309.4,255.6,309.4z M238.4,288.6v2.7c0,3.4,2.7,6.1,6.1,6.1h11.1c3.4,0,6.1-2.7,6.1-6.1v-2.7H238.4z"/>
					</g>
				</g>
				<g>
					<path class="st1" d="M308,405.9c-2.5,0-4.8-1.5-5.7-4c-1.1-3.1,0.5-6.6,3.7-7.7c33.3-11.7,61.8-34.7,80.4-64.7
						c1.7-2.8,5.4-3.7,8.3-1.9c2.8,1.7,3.7,5.4,1.9,8.3c-20,32.3-50.8,57.1-86.6,69.7C309.3,405.8,308.7,405.9,308,405.9z
						 M192,405.9c-0.7,0-1.3-0.1-2-0.3c-35.8-12.6-66.6-37.4-86.6-69.7c-1.7-2.8-0.9-6.5,1.9-8.3c2.8-1.7,6.5-0.9,8.3,1.9
						c18.6,30,47.1,53,80.4,64.7c3.1,1.1,4.8,4.5,3.7,7.7C196.8,404.4,194.5,405.9,192,405.9z M391.5,173.3c-2,0-4-1-5.1-2.8
						c-18.6-30-47.1-53-80.4-64.7c-3.1-1.1-4.8-4.5-3.7-7.7c1.1-3.1,4.5-4.8,7.7-3.7c35.8,12.6,66.6,37.4,86.6,69.7
						c1.7,2.8,0.9,6.5-1.9,8.3C393.7,173,392.6,173.3,391.5,173.3z M108.5,173.3c-1.1,0-2.2-0.3-3.2-0.9c-2.8-1.7-3.7-5.4-1.9-8.3
						c20-32.3,50.8-57.1,86.6-69.7c3.1-1.1,6.6,0.5,7.7,3.7c1.1,3.1-0.5,6.6-3.7,7.7c-33.3,11.7-61.8,34.7-80.4,64.7
						C112.5,172.3,110.5,173.3,108.5,173.3z"/>
				</g>
			</g>
		</g>
	</g>
</g>
</svg>
