<?xml version="1.0" encoding="utf-8"?>
<!-- Generator: Adobe Illustrator 27.5.0, SVG Export Plug-In . SVG Version: 6.00 Build 0)  -->
<svg version="1.1" id="Layer_1" xmlns="http://www.w3.org/2000/svg" xmlns:xlink="http://www.w3.org/1999/xlink" x="0px" y="0px"
	 viewBox="0 0 500 500" style="enable-background:new 0 0 500 500;" xml:space="preserve">
<style type="text/css">
	.st0{fill:#F9423A;}
	.st1{fill:none;stroke:#F9423A;stroke-width:12;stroke-linecap:round;stroke-linejoin:round;}
</style>
<g>
	<g>
		<path class="st0" d="M150.1,321.2c-1.5,0-2.9-0.5-4.1-1.6c-30.6-28.7-48.2-69.2-48.2-111.2s17.6-82.5,48.2-111.2
			c2.4-2.3,6.2-2.1,8.5,0.3s2.1,6.2-0.3,8.5c-28.2,26.4-44.4,63.8-44.4,102.4s16.2,76,44.4,102.4c2.4,2.3,2.5,6.1,0.3,8.5
			C153.3,320.6,151.7,321.2,150.1,321.2z"/>
		<path class="st0" d="M183.3,285.5c-1.5,0-2.9-0.5-4.1-1.6c-20.8-19.5-32.8-47-32.8-75.5c0-28.6,12-56.1,32.8-75.5
			c2.4-2.3,6.2-2.1,8.5,0.3c2.3,2.4,2.1,6.2-0.3,8.5c-18.4,17.2-29,41.5-29,66.7c0,25.1,10.6,49.5,29,66.7c2.4,2.3,2.5,6.1,0.3,8.5
			C186.5,284.9,184.9,285.5,183.3,285.5z"/>
		<path class="st0" d="M349.9,321.2c-1.6,0-3.2-0.6-4.4-1.9c-2.3-2.4-2.1-6.2,0.3-8.5c28.2-26.4,44.4-63.8,44.4-102.4
			s-16.2-76-44.4-102.4c-2.4-2.3-2.5-6.1-0.3-8.5c2.3-2.4,6.1-2.5,8.5-0.3c30.6,28.7,48.2,69.2,48.2,111.2s-17.6,82.5-48.2,111.2
			C352.8,320.7,351.4,321.2,349.9,321.2z"/>
		<path class="st0" d="M316.7,285.5c-1.6,0-3.2-0.6-4.4-1.9c-2.3-2.4-2.1-6.2,0.3-8.5c18.4-17.3,29-41.6,29-66.7
			c0-25.2-10.6-49.5-29-66.7c-2.4-2.3-2.6-6.1-0.3-8.5c2.3-2.4,6.1-2.6,8.5-0.3c20.9,19.4,32.8,46.9,32.8,75.5
			c0,28.4-12,56-32.8,75.5C319.6,285,318.2,285.5,316.7,285.5z"/>
		<g>
			<path class="st0" d="M249.8,426.6c-3.3,0-6-2.7-6-6V262.7c-27.4-3-48.7-26.2-48.7-54.4c0-30.2,24.5-54.7,54.7-54.7
				s54.7,24.5,54.7,54.7c0,28.1-21.3,51.4-48.7,54.4v157.9C255.8,423.9,253.1,426.6,249.8,426.6z M249.8,165.6
				c-23.5,0-42.7,19.2-42.7,42.7s19.2,42.7,42.7,42.7s42.7-19.2,42.7-42.7S273.3,165.6,249.8,165.6z"/>
		</g>
	</g>
	<path class="st1" d="M0,500"/>
</g>
</svg>
