<?xml version="1.0" encoding="utf-8"?>
<!-- Generator: Adobe Illustrator 27.5.0, SVG Export Plug-In . SVG Version: 6.00 Build 0)  -->
<svg version="1.1" id="Layer_1" xmlns="http://www.w3.org/2000/svg" xmlns:xlink="http://www.w3.org/1999/xlink" x="0px" y="0px"
	 viewBox="0 0 500 500" style="enable-background:new 0 0 500 500;" xml:space="preserve">
<style type="text/css">
	.st0{fill:#F9423A;}
	.st1{fill:none;}
</style>
<g>
	<g>
		<g>
			<path class="st0" d="M318.1,395.5c-9.2,0-19.2-1.6-29.7-4.9c-24.6-7.6-49.5-23.2-70.3-44l-64.7-64.7
				c-20.8-20.8-36.4-45.7-44.1-70.3c-8-25.6-6.4-47.9,4.4-62.8c7.5-10.4,32.9-44.2,46.1-44.2l0,0c2.7,0,5.2,1.2,6.7,3.4l20.4,28.4
				l19.2,26.3c5.9,7.8-1.6,21.6-11,31c-3.5,3.5-6,7.5-7.1,11.1c-0.8,2.8-0.4,4.4,0,4.9l51.8,51.9l50.3,50.3
				c1.7,0.3,7.9-1.6,14.7-8.4c9.8-9.8,22.9-17.1,30.3-11.6l28.1,20.4l29.5,21.4c2,1.4,3.1,3.7,3.1,6.2c0,3.3-1.6,8.3-13.7,20.1
				c-8,7.7-19,16.9-31.2,25.8C342.3,392.3,331,395.5,318.1,395.5z M158.4,117.3c-5.2,3.1-18.4,15.4-35,38.5
				c-8.5,11.8-9.5,30.4-2.6,52.2c7.1,22.8,21.7,46,41.1,65.4l64.7,64.7c19.4,19.4,42.6,34,65.3,41c21.8,6.7,40.2,5.7,52-3
				c22.1-16.2,35.2-29.2,39-34.8L356.2,322l-27.7-20c-2.2,0.2-8.5,3.1-15.3,10c-7.4,7.4-16.1,11.9-22.9,11.9h-0.1
				c-4.4,0-7.1-1.9-8.6-3.4L231.3,270l-51.8-51.9c-3.9-3.9-5-10-3-16.7c1.6-5.6,5.2-11.4,10.1-16.3c7.2-7.2,9.6-13.8,9.6-15.7
				l-19-26L158.4,117.3z M290.2,312L290.2,312C290.2,312.1,290.2,312,290.2,312z M328,301.6L328,301.6L328,301.6z M196.4,169.8
				L196.4,169.8L196.4,169.8z"/>
		</g>
	</g>
	<path class="st1" d="M0,500"/>
</g>
</svg>
