<?xml version="1.0" encoding="utf-8"?>
<!-- Generator: Adobe Illustrator 27.5.0, SVG Export Plug-In . SVG Version: 6.00 Build 0)  -->
<svg version="1.1" id="Layer_1" xmlns="http://www.w3.org/2000/svg" xmlns:xlink="http://www.w3.org/1999/xlink" x="0px" y="0px"
	 viewBox="0 0 500 500" style="enable-background:new 0 0 500 500;" xml:space="preserve">
<style type="text/css">
	.st0{fill:#F9423A;}
	.st1{fill:none;stroke:#F9423A;stroke-width:12.015;stroke-linecap:round;stroke-linejoin:round;}
</style>
<g>
	<g>
		<g>
			<g>
				<path class="st0" d="M150.1,275.7H149c-28.3,0-51.3-23-51.3-51.3v-22.2c0-3.3,2.7-6,6-6s6,2.7,6,6v22.2
					c0,21.7,17.6,39.3,39.3,39.3h1.1c23.1,0,39.3-14.4,39.3-35.1c0-3.3,2.7-6,6-6s6,2.7,6,6C201.4,255.9,179.8,275.7,150.1,275.7z"
					/>
			</g>
			<g>
				<path class="st0" d="M100.8,208.8c-2.5,0-4.8-1.6-5.7-4.1c-0.2-0.6-5.2-15.3-7.1-32c-2.8-24.1,2.2-40,14.7-47.1
					c4.7-2.7,11.6-2.5,16.2,0.5c3,1.9,5.8,4.5,8.1,6.6c0.9,0.8,1.7,1.6,2.4,2.1c0.7,0.6,1.5,0.8,2.4,0.8c1.6-0.1,5.6-0.6,9.6-2.8
					c0.2-0.1,0.4-0.2,0.7-0.3c14.7-5.8,28.3-7.2,39.4-4.1c3.2,0.9,5,4.2,4.1,7.4s-4.2,5-7.4,4.1c-8.5-2.4-19.3-1.2-31.4,3.6
					c-5.8,3.1-11.5,3.9-14.4,4h-0.1c-3.9,0.2-7.6-1.1-10.6-3.6c-0.8-0.7-1.8-1.6-2.8-2.5c-2-1.8-4.4-4-6.6-5.4
					c-0.8-0.5-2.9-0.6-3.7-0.1c-14.9,8.5-8.6,42.7-3.8,59.6c47.8-11.6,56.3-39.2,56.6-40.4c0.5-1.7,1.7-3.2,3.4-3.9
					c1.6-0.7,3.5-0.7,5.1,0.1c3.2,1.6,13.9,7.3,19.2,12.9c2.3,2.4,2.2,6.2-0.2,8.5s-6.2,2.2-8.5-0.2c-1.9-2-5.7-4.7-10.3-7.4
					c-6,11.5-23.2,34.1-68.2,43.3C101.6,208.8,101.2,208.8,100.8,208.8z"/>
			</g>
		</g>
		<g>
			<g>
				<path class="st0" d="M151.9,306.6H150c-16.2,0-29.4-13.2-29.4-29.4v-11.6c0-3.3,2.7-6,6-6c3.3,0,6,2.7,6,6v11.6
					c0,9.6,7.8,17.4,17.4,17.4h1.9c9.6,0,17.4-7.8,17.4-17.4v-11.9c0-3.3,2.7-6,6-6s6,2.7,6,6v11.9
					C181.3,293.4,168.1,306.6,151.9,306.6z"/>
			</g>
			<g>
				<path class="st0" d="M202.9,287.5c-0.7,0-1.4-0.1-2.2-0.4c-6-2.3-12.4-3.5-18.8-3.5c-0.1,0-0.2,0-0.4,0l-6.6-0.4
					c-3.3-0.2-5.8-3-5.6-6.4c0.2-3.3,3.1-5.8,6.4-5.6l6.4,0.4c7.9,0,15.6,1.5,23,4.3c3.1,1.2,4.6,4.7,3.4,7.8
					C207.6,286,205.3,287.5,202.9,287.5z"/>
			</g>
			<g>
				<path class="st0" d="M137.4,388.9c-13.2,0-20-3-26.7-5.9c-6.1-2.7-12.4-5.5-25.5-6.5H71.1c-9.5,0-17.3-7.8-17.3-17.3v-23.3
					c0-35.4,28.7-64.2,64.1-64.3l6.4-0.4c3.3-0.2,6.2,2.3,6.4,5.6s-2.3,6.2-5.6,6.4l-6.6,0.4c-0.1,0-0.2,0-0.4,0
					c-28.8,0-52.3,23.5-52.3,52.3v23.3c0,2.9,2.4,5.3,5.3,5.3h14.4c0.2,0,0.3,0,0.5,0c15.2,1.2,22.9,4.5,29.6,7.5
					c6.2,2.7,11.2,4.9,21.8,4.9c3.3,0,6,2.7,6,6S140.7,388.9,137.4,388.9z"/>
			</g>
		</g>
		<g>
			<g>
				<path class="st0" d="M351.1,275.7H350c-28.3,0-51.3-23-51.3-51.3v-22.2c0-3.3,2.7-6,6-6s6,2.7,6,6v22.2
					c0,21.7,17.6,39.3,39.3,39.3h1.1c21.7,0,39.3-17.6,39.3-39.3v-24.9c0-3.3,2.7-6,6-6s6,2.7,6,6v24.9
					C402.4,252.7,379.4,275.7,351.1,275.7z"/>
			</g>
			<g>
				<path class="st0" d="M304.7,208c-2.8,0-5.3-1.9-5.9-4.8c-0.7-3.2,1.4-6.4,4.7-7.1c52.1-10.8,58.7-39.4,58.9-40.6
					c0.4-1.9,1.6-3.4,3.3-4.3c1.7-0.8,3.7-0.8,5.4,0.1c12.5,6.5,20,15.1,24.5,23.4c0-0.3,0-0.5,0-0.8c0-4.1-0.1-8.3,0-12.8
					c0.2-7.4-2.9-13.7-8.7-17.7c-8.9-6.2-23.2-6.2-39.2,0.1c-5.8,3.1-11.5,3.9-14.4,4h-0.1c-3.9,0.2-7.6-1.1-10.6-3.6
					c-0.8-0.7-1.8-1.6-2.8-2.5c-2-1.8-4.4-4-6.6-5.4c-0.8-0.5-1.3-0.8-1.5-0.9c-2.9,1.6-6.5,0.6-8.1-2.3c-1.6-2.9-0.6-6.5,2.2-8.2
					c6.4-3.7,11.9-0.1,14,1.3c3,1.9,5.8,4.5,8.1,6.6c0.9,0.8,1.7,1.6,2.4,2.1c0.7,0.6,1.5,0.8,2.4,0.8c1.6-0.1,5.6-0.6,9.6-2.8
					c0.2-0.1,0.4-0.2,0.7-0.3c20.2-8,38.3-7.6,50.8,1.1c9,6.3,14.1,16.4,13.8,27.8c-0.1,4.3,0,8.4,0,12.4
					c0.2,15.4,0.3,27.6-7.9,32.9c-1.9,1.2-4.3,1.3-6.3,0.1c-2-1.1-3.1-3.3-2.9-5.6c0.1-0.9,0.9-21.8-19-35.7
					c-5.5,11.6-21.5,33.1-65.5,42.3C305.5,208,305.1,208,304.7,208z"/>
			</g>
		</g>
		<g>
			<g>
				<path class="st0" d="M350.9,306.6h-1.8c-16.2,0-29.4-13.2-29.4-29.4v-14.6c0-3.3,2.7-6,6-6s6,2.7,6,6v14.6
					c0,9.6,7.8,17.4,17.4,17.4h1.8c9.6,0,17.4-7.8,17.4-17.4v-14c0-3.3,2.7-6,6-6s6,2.7,6,6v14C380.3,293.4,367.1,306.6,350.9,306.6
					z"/>
			</g>
			<g>
				<path class="st0" d="M297.8,287.6c-2.4,0-4.7-1.4-5.6-3.8c-1.2-3.1,0.3-6.6,3.4-7.8c7.4-2.9,15.2-4.4,23.3-4.4l6.4-0.4
					c3.3-0.2,6.2,2.3,6.4,5.6c0.2,3.3-2.3,6.2-5.6,6.4l-6.6,0.4c-0.1,0-0.2,0-0.4,0c-6.6,0-13.1,1.2-19.1,3.6
					C299.3,287.5,298.5,287.6,297.8,287.6z"/>
			</g>
			<g>
				<path class="st0" d="M363.6,388.9c-3.3,0-6-2.7-6-6s2.7-6,6-6c10.7,0,15.6-2.2,21.8-4.9c6.7-3,14.4-6.3,29.6-7.5
					c0.2,0,0.3,0,0.5,0h14.4c2.9,0,5.3-2.4,5.3-5.3v-23.3c0-28.8-23.5-52.3-52.3-52.3c-0.1,0-0.2,0-0.4,0l-6.6-0.4
					c-3.3-0.2-5.8-3-5.6-6.4c0.2-3.3,3.1-5.8,6.4-5.6l6.4,0.4c35.4,0.1,64.1,28.9,64.1,64.3v23.3c0,9.5-7.8,17.3-17.3,17.3h-14.2
					c-13,1-19.4,3.8-25.5,6.5C383.6,385.9,376.8,388.9,363.6,388.9z"/>
			</g>
		</g>
		<g>
			<g>
				<path class="st0" d="M250.1,278.4h-1.3c-33.4,0-60.5-27.1-60.5-60.5v-26.7c0-3.3,2.7-6,6-6s6,2.7,6,6v26.7
					c0,26.7,21.8,48.5,48.5,48.5h1.3c26.7,0,48.5-21.8,48.5-48.5V188c0-3.3,2.7-6,6-6s6,2.7,6,6v29.9
					C310.6,251.3,283.5,278.4,250.1,278.4z"/>
			</g>
			<g>
				<path class="st0" d="M190.8,197.9c-2.5,0-4.8-1.6-5.7-4.1c-0.2-0.7-6.1-18.2-8.4-38.2c-3.2-28.5,2.5-47.2,17-55.5
					c5.2-3,13.1-2.8,18.2,0.6c3.5,2.2,6.8,5.3,9.5,7.8c1.1,1,2.1,2,2.9,2.6c1.1,0.9,2.4,1.4,3.7,1.3c1.9-0.1,6.8-0.7,12.1-3.5
					c0.2-0.1,0.4-0.2,0.6-0.3c23.9-9.5,45.1-9.1,59.9,1.1c10.6,7.3,16.5,19.2,16.2,32.5c-0.1,5.3-0.1,10.3,0,15.1
					c0.2,18.2,0.3,32.6-9.1,38.4c-1.9,1.2-4.3,1.2-6.3,0.1c-1.9-1.2-3-3.3-2.9-5.5c0.1-1.3,1.2-27.9-24.9-45.1
					c-6.6,13.2-26.7,41.1-81.7,52.4C191.6,197.9,191.2,197.9,190.8,197.9z M202.2,110.1c-1,0-1.9,0.2-2.5,0.5
					c-18.9,10.9-11,53.3-4.8,74.3c59.9-14.2,70-49.3,70.1-49.7c0.5-1.8,1.7-3.2,3.4-3.9c1.7-0.7,3.6-0.7,5.2,0.2
					c17.1,9,26.4,21.3,31.3,32.4c0-2.1,0-4.1,0-6.2c0-4.9-0.1-10.1,0-15.5c0.2-9.3-3.8-17.3-11.1-22.3c-11.1-7.7-28.7-7.7-48.3,0
					c-7.1,3.7-13.6,4.6-16.9,4.7h-0.1c-4.2,0.1-8.4-1.3-11.8-4.1c-1.1-0.9-2.2-1.9-3.4-3.1c-2.5-2.3-5.3-4.8-7.9-6.5
					C204.6,110.4,203.3,110.1,202.2,110.1z"/>
			</g>
		</g>
		<g>
			<g>
				<path class="st0" d="M297.1,378.1h-3.8c-11.2,0-20.4-9.2-20.4-20.4v-2c0-0.4,0-0.8,0.1-1.2c0.1-3.8,0.3-7.3,0.6-10.1
					c0.4-3,1.3-10,7.5-10h0.2c1.8,0,3.4,0.7,5.7,2.6c5.4-3.2,11.1-3.2,16.5,0c2.6-2.1,4.1-2.6,5.7-2.6h0.2c6.1,0,7,6.8,7.4,10
					c0.4,3.1,0.6,6.9,0.7,11c0,0.1,0,0.2,0,0.3v2C317.5,368.9,308.3,378.1,297.1,378.1z M284.9,357.8c0,4.6,3.8,8.3,8.4,8.3h3.8
					c4.6,0,8.4-3.8,8.4-8.4v-1c0-2.3-0.1-4.3-0.2-6c-0.5,0.1-0.9,0.2-1.4,0.2l0,0c-1.6,0-3.1-0.6-4.2-1.8c-3.3-3.3-5.4-3.3-8.9,0
					c-1.1,1.1-2.7,1.7-4.3,1.7c-0.5,0-0.9-0.1-1.4-0.2c-0.1,1.7-0.1,3.7-0.1,6C285,357.1,285,357.4,284.9,357.8z M311.8,345.7
					L311.8,345.7L311.8,345.7z M250,315.7h-2.2c-18.9,0-34.2-15.3-34.2-34.2v-17.6c0-3.3,2.7-6,6-6s6,2.7,6,6v17.6
					c0,12.2,10,22.2,22.2,22.2h2.2c12.2,0,22.2-10,22.2-22.2v-16.8c0-3.3,2.7-6,6-6s6,2.7,6,6v16.8
					C284.2,300.4,268.9,315.7,250,315.7z"/>
			</g>
			<g>
				<path class="st0" d="M279,356.7c0-9,0.9-16.3,2.1-16.3h0.2c0.5,0,2.1,1.2,5.3,4.5c5.8-5.7,11.6-5.7,17.3,0
					c3.2-3.3,4.9-4.5,5.3-4.5h0.2c1.1,0,2.1,7.3,2.1,16.3v-1v2c0,8-6.5,14.4-14.4,14.4h-3.8c-8,0-14.4-6.5-14.4-14.4v-2"/>
			</g>
			<g>
				<path class="st0" d="M265.2,414.6H235c-15.6,0-23.8-3.6-31.6-7c-7.5-3.3-15.2-6.7-31-8h-17.1c-10.8,0-19.6-8.8-19.6-19.6v-28
					c0-41.9,34.1-76,75.9-76.1l7.9-0.4c3.3-0.2,6.1,2.4,6.3,5.7c0.2,3.3-2.4,6.1-5.7,6.3l-8,0.4c-0.1,0-0.2,0-0.3,0
					c-35.3,0-64.1,28.8-64.1,64.1v28c0,4.2,3.4,7.6,7.6,7.6h17.3c0.2,0,0.3,0,0.5,0c18,1.4,27.1,5.4,35.1,9c7.6,3.4,13.7,6,26.8,6
					h30.2c13.1,0,19.1-2.7,26.7-6c8-3.5,17.1-7.5,35.2-9c0.2,0,0.3,0,0.5,0h17.3c4.2,0,7.6-3.4,7.6-7.6v-28
					c0-35.3-28.8-64.1-64.1-64.1c-0.1,0-0.2,0-0.3,0l-8-0.4c-3.3-0.2-5.9-3-5.7-6.3c0.2-3.3,3-5.9,6.3-5.7l7.9,0.4
					c41.9,0.1,75.9,34.2,75.9,76.1v28c0,10.8-8.8,19.6-19.6,19.6h-17.1c-15.9,1.3-23.6,4.7-31.1,8
					C288.9,411,280.8,414.6,265.2,414.6z"/>
			</g>
		</g>
	</g>
	<g>
		<path class="st1" d="M0,500"/>
	</g>
</g>
</svg>
