<?xml version="1.0" encoding="utf-8"?>
<!-- Generator: Adobe Illustrator 27.5.0, SVG Export Plug-In . SVG Version: 6.00 Build 0)  -->
<svg version="1.1" id="Layer_1" xmlns="http://www.w3.org/2000/svg" xmlns:xlink="http://www.w3.org/1999/xlink" x="0px" y="0px"
	 viewBox="0 0 500 500" style="enable-background:new 0 0 500 500;" xml:space="preserve">
<style type="text/css">
	.st0{fill:#F9423A;}
	.st1{fill:none;stroke:#F9423A;stroke-width:16.465;stroke-linecap:round;stroke-linejoin:round;}
</style>
<g>
	<g>
		<path class="st0" d="M84.6,291.8c-3.2,0-5.8-2.5-6-5.7c-0.1-1.7-0.2-3.6-0.3-5.7c-1.6-32.8-5-101.1,26.6-134.2
			c11.7-12.3,27-18.5,45.5-18.5h0.7c16.2,0,29.9,4.8,40.9,14.3c2.5,2.2,2.8,5.9,0.6,8.5c-2.2,2.5-5.9,2.8-8.5,0.6
			c-8.8-7.5-19.9-11.3-33.1-11.3h-0.7c-15.3,0-27.3,4.8-36.8,14.8c-28,29.4-24.8,94.2-23.3,125.3c0.1,2.1,0.2,4,0.3,5.7
			c0.1,3.3-2.4,6.1-5.7,6.3C84.8,291.8,84.7,291.8,84.6,291.8z"/>
	</g>
	<g>
		<g>
			<path class="st0" d="M152.4,273.5h-1.1c-28.9,0-52.4-23.5-52.4-52.4v-22.7c0-3.3,2.7-6,6-6s6,2.7,6,6v22.7
				c0,22.3,18.1,40.4,40.4,40.4h1.1c5.1,0,10-0.9,14.6-2.7c3.1-1.2,6.6,0.4,7.8,3.4c1.2,3.1-0.4,6.6-3.4,7.8
				C165.3,272.3,158.9,273.5,152.4,273.5z"/>
		</g>
		<g>
			<path class="st0" d="M101.9,205.1c-1.3,0-2.5-0.4-3.6-1.2c-1.4-1-2.2-2.5-2.4-4.2c-0.3-2.9-2.8-28.7,0.4-40.3
				c0.9-3.2,4.2-5.1,7.4-4.2c3.2,0.9,5.1,4.2,4.2,7.4c-1.7,6.2-1.2,19.9-0.6,29.2c48-12.2,56.6-40.1,56.9-41.3
				c0.5-1.8,1.8-3.2,3.5-3.9s3.6-0.6,5.2,0.3c4.7,2.6,9.1,5.9,12.9,9.9c2.3,2.4,2.3,6.2-0.1,8.5c-2.4,2.3-6.2,2.3-8.5-0.1
				c-1.4-1.5-2.9-2.8-4.5-4.1c-6.1,11.5-23.2,33.5-66.4,43.3h-0.1l-3,0.6C102.7,205.1,102.3,205.1,101.9,205.1z"/>
		</g>
	</g>
	<g>
		<g>
			<path class="st0" d="M145.2,389.5c-13.3,0-21.5-2.9-30.3-5.9c-7.9-2.8-16.1-5.6-29.4-6.7H71.1c-9.6,0-17.5-7.9-17.5-17.5v-23.6
				c0-35.8,29.1-64.9,64.8-65l1.1-0.1v-8.5c0-3.3,2.7-6,6-6s6,2.7,6,6v14.2c0,3.2-2.5,5.8-5.7,6l-6.9,0.4c-0.1,0-0.2,0-0.3,0
				c-29.2,0-53,23.8-53,53v23.6c0,3,2.5,5.5,5.5,5.5h14.6c0.2,0,0.3,0,0.5,0c15,1.1,24.4,4.4,32.7,7.3c8.1,2.8,15.1,5.3,26.4,5.3
				c3.3,0,6,2.7,6,6S148.5,389.5,145.2,389.5z"/>
		</g>
		<g>
			<path class="st0" d="M151.3,315.4c-26.3,0-47.5-16.6-48.2-37.9c-0.1-3.3,2.5-6.1,5.8-6.2s6.1,2.5,6.2,5.8
				c0.5,14.5,16.7,26.3,36.2,26.3c3.3,0,6,2.7,6,6S154.6,315.4,151.3,315.4z"/>
		</g>
	</g>
	<g>
		<path class="st0" d="M416.4,291.8c-0.1,0-0.2,0-0.3,0c-3.3-0.1-5.9-2.9-5.7-6.3c0.1-1.7,0.2-3.7,0.3-5.7
			c1.5-31.1,4.7-95.9-23.3-125.3c-9.5-9.9-21.5-14.8-36.8-14.8h-0.7c-13.1,0-23.8,3.6-32.7,11.1c-2.5,2.1-6.3,1.8-8.5-0.7
			c-2.1-2.5-1.8-6.3,0.7-8.5c11-9.2,24.6-13.9,40.5-13.9h0.7c18.5,0,33.8,6.2,45.5,18.5c31.5,33.1,28.2,101.4,26.6,134.2
			c-0.1,2.1-0.2,4-0.3,5.7C422.3,289.3,419.6,291.8,416.4,291.8z"/>
	</g>
	<g>
		<g>
			<path class="st0" d="M350.8,273.6h-1.1c-6.3,0-12.5-1.1-18.3-3.3c-3.1-1.2-4.7-4.6-3.5-7.7s4.6-4.7,7.7-3.5
				c4.5,1.7,9.2,2.5,14.1,2.5h1.1c22.3,0,40.4-18.1,40.4-40.4v-25.4c0-3.3,2.7-6,6-6s6,2.7,6,6v25.4
				C403.2,250.1,379.7,273.6,350.8,273.6z"/>
		</g>
		<g>
			<path class="st0" d="M397.2,204.3c-0.7,0-1.3-0.1-2-0.3c-2.7-0.9-4.3-3.5-4-6.3l0,0c0,0,0-0.5,0-1.3c0-0.1,0-0.3,0-0.4
				c0-9.8-8.5-25.6-20.2-34.8c-4.8,8.9-16,23.9-40.6,34.9c-3,1.3-6.6,0-7.9-3.1s0-6.6,3.1-7.9c30.7-13.6,36.8-33.6,37.1-34.4
				c0.5-1.7,1.8-3.2,3.5-3.9s3.6-0.6,5.2,0.2c9.3,5.1,17.2,13.4,22.8,22.4c-0.1-3.1-0.1-5.9-0.2-7.7c-0.1-3.3,2.5-6.1,5.8-6.2
				c3.3-0.1,6.1,2.5,6.2,5.8c0.7,24.1-0.2,34.6-3.6,40.1C401.2,203.3,399.2,204.3,397.2,204.3z"/>
		</g>
	</g>
	<g>
		<g>
			<path class="st0" d="M356.8,389.5c-3.3,0-6-2.7-6-6s2.7-6,6-6c11.2,0,18.2-2.4,26.4-5.3c8.3-2.9,17.7-6.2,32.7-7.3
				c0.2,0,0.3,0,0.5,0H431c3,0,5.5-2.5,5.5-5.5v-23.6c0-29.2-23.8-53-53-53c-0.1,0-0.2,0-0.3,0l-6.9-0.4c-3.2-0.2-5.7-2.8-5.7-6
				v-14.2c0-3.3,2.7-6,6-6s6,2.7,6,6v8.5l1.1,0.1c35.8,0.1,64.8,29.2,64.8,65v23.6c0,9.6-7.9,17.5-17.5,17.5h-14.4
				c-13.3,1-21.5,3.9-29.4,6.7C378.3,386.6,370.1,389.5,356.8,389.5z"/>
		</g>
		<g>
			<path class="st0" d="M350.7,315.4c-3.3,0-6-2.7-6-6s2.7-6,6-6c19.5,0,35.7-11.8,36.2-26.3c0.1-3.3,2.9-5.9,6.2-5.8
				c3.3,0.1,5.9,2.9,5.8,6.2C398.2,298.8,377,315.4,350.7,315.4z"/>
		</g>
	</g>
	<g>
		<path class="st0" d="M172.5,292.5c-3.2,0-5.8-2.5-6-5.7c0-0.8-0.1-1.9-0.2-3.2c-0.6-11.2-2.2-41,1.3-72.6
			c4.5-40.3,15.5-70,32.7-88.2c13.3-14,30.1-21.1,50.1-21.1h0.9c20,0,36.9,7.1,50.2,21.1c17.2,18.2,28.2,47.8,32.7,88.1
			c3.5,31.6,1.9,61.4,1.3,72.7c-0.1,1.3-0.1,2.4-0.2,3.2c-0.1,3.3-3,5.9-6.3,5.7c-3.3-0.1-5.9-2.9-5.7-6.3c0-0.9,0.1-2,0.2-3.3
			c5-93.5-14-134.2-30.7-151.9c-11.1-11.7-24.6-17.4-41.5-17.4h-0.9c-16.8,0-30.4,5.7-41.4,17.3c-16.7,17.7-35.7,58.3-30.7,151.9
			c0.1,1.3,0.1,2.4,0.2,3.3c0.1,3.3-2.4,6.1-5.7,6.3C172.7,292.5,172.6,292.5,172.5,292.5z"/>
	</g>
	<g>
		<g>
			<path class="st0" d="M251.7,272.6h-1.3c-33.6,0-61-27.4-61-61v-27c0-3.3,2.7-6,6-6s6,2.7,6,6v27c0,27,22,49,49,49h1.3
				c27,0,49-22,49-49v-30.2c0-3.3,2.7-6,6-6s6,2.7,6,6v30.2C312.7,245.2,285.3,272.6,251.7,272.6z"/>
		</g>
		<g>
			<path class="st0" d="M191.8,191.3c-1.3,0-2.7-0.5-3.7-1.3c-1.3-1.1-2.1-2.6-2.3-4.3c-0.1-1.3-1.9-31.2,1.8-44.9
				c0.9-3.2,4.2-5.1,7.4-4.2c3.2,0.9,5.1,4.2,4.2,7.4c-2.1,7.7-2.1,23.5-1.7,34c30.2-7.5,47.3-20.3,56.4-29.9
				c10.2-10.7,12.8-19.9,12.8-20c0.5-1.8,1.8-3.2,3.5-3.9c1.7-0.7,3.6-0.6,5.2,0.2c11.3,6.2,20.8,16.5,27.4,27.4
				c0-0.9-0.1-1.8-0.1-2.7c-0.1-2.1-0.1-4.2-0.2-6.5c-0.1-3.3,2.5-6.1,5.8-6.2c3.4-0.1,6.1,2.5,6.2,5.8c0.1,2.2,0.1,4.4,0.2,6.5
				c0.7,21.3,1,32.1-3,38.6c-1.5,2.4-4.4,3.5-7,2.6c-2.7-0.9-4.3-3.5-4.1-6.3l0,0c0,0,0-0.7,0-1.9c0-0.1,0-0.2,0-0.3
				c0-12.2-10.7-31.9-25.3-42.9c-6.6,13.1-26.1,40-78.5,51.9c-1.1,0.3-2.5,0.6-4,0.9C192.5,191.3,192.1,191.3,191.8,191.3z"/>
		</g>
	</g>
	<g>
		<g>
			<path class="st0" d="M266,410.1h-30.1c-15.6,0-23.7-3.6-31.6-7c-7.5-3.3-15.2-6.7-31.1-8h-17.1c-10.8,0-19.6-8.8-19.6-19.6v-28
				c0-41.9,34.1-76,76-76.1l2.3-0.1v-11.6c0-3.3,2.7-6,6-6s6,2.7,6,6V277c0,3.2-2.5,5.8-5.7,6l-8.2,0.4c-0.1,0-0.2,0-0.3,0
				c-35.3,0-64.1,28.8-64.1,64.1v28c0,4.2,3.4,7.6,7.6,7.6h17.3c0.2,0,0.3,0,0.5,0c18.1,1.4,27.2,5.4,35.2,9c7.6,3.4,13.6,6,26.7,6
				H266c13.1,0,19.1-2.7,26.8-6c8-3.5,17.1-7.5,35.1-9c0.2,0,0.3,0,0.5,0h17.3c4.2,0,7.6-3.4,7.6-7.6v-28
				c0-35.3-28.8-64.1-64.1-64.1c-0.1,0-0.2,0-0.3,0l-8.2-0.4c-3.2-0.2-5.7-2.8-5.7-6v-17c0-3.3,2.7-6,6-6s6,2.7,6,6v11.3l2.3,0.1
				c41.9,0.1,76,34.2,76,76.1v28c0,10.8-8.8,19.6-19.6,19.6h-17.1c-15.8,1.3-23.6,4.7-31,8C289.8,406.5,281.6,410.1,266,410.1z"/>
		</g>
		<g>
			<path class="st0" d="M249.4,322.2c-30.2,0-54.8-19-56.1-43.2c-0.2-3.3,2.4-6.1,5.7-6.3c3.3-0.1,6.1,2.4,6.3,5.7
				c0.9,17.8,20.3,31.8,44.1,31.8c23.6,0,43.4-14.5,44.1-32.2c0.1-3.3,2.9-5.9,6.2-5.8c3.3,0.1,5.9,2.9,5.8,6.2
				C304.6,303,279.9,322.2,249.4,322.2z"/>
		</g>
		<g>
			<path class="st0" d="M250.4,345.9c-1.6,0-3.1-0.6-4.2-1.8c-1.1-1.1-1.8-2.7-1.8-4.2c0-0.4,0-0.8,0.1-1.2c0.1-0.4,0.2-0.8,0.3-1.1
				c0.1-0.4,0.3-0.7,0.5-1s0.5-0.6,0.8-0.9s0.6-0.5,0.9-0.8c0.3-0.2,0.7-0.4,1-0.6c0.4-0.1,0.7-0.3,1.1-0.3c0.8-0.2,1.6-0.2,2.3,0
				c0.4,0.1,0.8,0.2,1.1,0.3c0.4,0.2,0.7,0.3,1,0.6c0.3,0.2,0.6,0.5,0.9,0.8c0.3,0.3,0.5,0.6,0.8,0.9c0.2,0.3,0.4,0.7,0.5,1
				c0.2,0.4,0.3,0.8,0.3,1.1c0.1,0.4,0.1,0.8,0.1,1.2c0,1.6-0.6,3.1-1.8,4.2c-0.3,0.3-0.6,0.5-0.9,0.8c-0.3,0.2-0.7,0.4-1,0.5
				c-0.4,0.2-0.7,0.3-1.1,0.3C251.2,345.9,250.8,345.9,250.4,345.9z"/>
		</g>
		<g>
			<path class="st0" d="M250.4,368.4c-0.4,0-0.8,0-1.2-0.1s-0.8-0.2-1.1-0.3c-0.4-0.1-0.7-0.3-1-0.5s-0.6-0.5-0.9-0.8
				c-1.1-1.1-1.8-2.7-1.8-4.2c0-0.4,0-0.8,0.1-1.2c0.1-0.4,0.2-0.8,0.3-1.1c0.1-0.4,0.3-0.7,0.5-1s0.5-0.6,0.8-0.9s0.6-0.5,0.9-0.8
				c0.3-0.2,0.7-0.4,1-0.6c0.4-0.1,0.8-0.3,1.1-0.3c0.8-0.2,1.6-0.2,2.3,0c0.4,0.1,0.8,0.2,1.1,0.3c0.4,0.2,0.7,0.3,1,0.6
				c0.3,0.2,0.6,0.5,0.9,0.8c0.3,0.3,0.5,0.6,0.8,0.9c0.2,0.3,0.4,0.7,0.5,1c0.2,0.4,0.3,0.7,0.3,1.1c0.1,0.4,0.1,0.8,0.1,1.2
				c0,0.4,0,0.8-0.1,1.2c-0.1,0.4-0.2,0.8-0.3,1.1c-0.1,0.4-0.3,0.7-0.5,1s-0.5,0.6-0.8,0.9s-0.6,0.5-0.9,0.8
				c-0.3,0.2-0.7,0.4-1,0.5c-0.4,0.2-0.7,0.3-1.1,0.3C251.2,368.4,250.8,368.4,250.4,368.4z"/>
		</g>
		<g>
			<path class="st0" d="M250.4,390.9c-0.4,0-0.8,0-1.2-0.1s-0.8-0.2-1.1-0.3c-0.4-0.1-0.7-0.3-1-0.5s-0.6-0.5-0.9-0.8
				c-0.3-0.3-0.5-0.6-0.8-0.9c-0.2-0.3-0.4-0.7-0.5-1c-0.1-0.4-0.3-0.7-0.3-1.1c-0.1-0.4-0.1-0.8-0.1-1.2c0-1.6,0.6-3.1,1.8-4.2
				c1.1-1.1,2.7-1.8,4.2-1.8c1.6,0,3.1,0.6,4.2,1.8c1.1,1.1,1.8,2.7,1.8,4.2c0,0.4,0,0.8-0.1,1.2c-0.1,0.4-0.2,0.8-0.3,1.1
				c-0.1,0.4-0.3,0.7-0.5,1s-0.5,0.6-0.8,0.9s-0.6,0.5-0.9,0.8c-0.3,0.2-0.7,0.4-1,0.5c-0.4,0.2-0.7,0.3-1.1,0.3
				C251.2,390.9,250.8,390.9,250.4,390.9z"/>
		</g>
	</g>
	<g>
		<path class="st1" d="M0,500"/>
	</g>
</g>
</svg>
