<?xml version="1.0" encoding="utf-8"?>
<!-- Generator: Adobe Illustrator 27.5.0, SVG Export Plug-In . SVG Version: 6.00 Build 0)  -->
<svg version="1.1" id="Layer_1" xmlns="http://www.w3.org/2000/svg" xmlns:xlink="http://www.w3.org/1999/xlink" x="0px" y="0px"
	 viewBox="0 0 500 500" style="enable-background:new 0 0 500 500;" xml:space="preserve">
<style type="text/css">
	.st0{fill:#F9423A;}
	.st1{fill:none;stroke:#F9423A;stroke-width:12;stroke-linecap:round;stroke-linejoin:round;}
</style>
<g>
	<g>
		<g>
			<path class="st0" d="M376.4,358.2h-286c-3.3,0-6-2.7-6-6s2.7-6,6-6h286c15.5,0,28.2-12.7,28.2-28.2V183
				c0-15.5-12.7-28.2-28.2-28.2h-286c-3.3,0-6-2.7-6-6s2.7-6,6-6h286c22.2,0,40.2,18,40.2,40.2v135
				C416.6,340.2,398.6,358.2,376.4,358.2z"/>
		</g>
		<g>
			<path class="st0" d="M315.8,334.8c-3.3,0-6-2.7-6-6v-15c0-3.3,2.7-6,6-6s6,2.7,6,6v15C321.8,332.1,319.1,334.8,315.8,334.8z
				 M315.8,279.8c-3.3,0-6-2.7-6-6v-15c0-3.3,2.7-6,6-6s6,2.7,6,6v15C321.8,277.1,319.1,279.8,315.8,279.8z M315.8,224.8
				c-3.3,0-6-2.7-6-6v-15c0-3.3,2.7-6,6-6s6,2.7,6,6v15C321.8,222.1,319.1,224.8,315.8,224.8z M315.8,169.8c-3.3,0-6-2.7-6-6v-15
				c0-3.3,2.7-6,6-6s6,2.7,6,6v15C321.8,167.1,319.1,169.8,315.8,169.8z"/>
		</g>
		<g>
			<path class="st0" d="M90.4,358.2c-1,0-2.1-0.3-3-0.8c-2.9-1.7-3.8-5.4-2.1-8.2l18.2-30.9l-18.2-30.9c-1.1-1.9-1.1-4.2,0-6.1
				l18.2-30.9l-18.2-30.9c-1.1-1.9-1.1-4.2,0-6.1l18.2-30.9l-18.2-30.9c-1.7-2.9-0.7-6.5,2.1-8.2c2.9-1.7,6.5-0.7,8.2,2.1l20,33.9
				c1.1,1.9,1.1,4.2,0,6.1l-18.2,30.9l18.2,30.9c1.1,1.9,1.1,4.2,0,6.1l-18.2,30.9l18.2,30.9c1.1,1.9,1.1,4.2,0,6.1l-20,33.9
				C94.4,357.1,92.4,358.2,90.4,358.2z M260.2,296.7H153.5c-3.3,0-6-2.7-6-6s2.7-6,6-6h106.7c3.3,0,6,2.7,6,6
				S263.5,296.7,260.2,296.7z M260.2,256.5H153.5c-3.3,0-6-2.7-6-6s2.7-6,6-6h106.7c3.3,0,6,2.7,6,6S263.5,256.5,260.2,256.5z
				 M260.2,216.3H153.5c-3.3,0-6-2.7-6-6s2.7-6,6-6h106.7c3.3,0,6,2.7,6,6S263.5,216.3,260.2,216.3z"/>
		</g>
	</g>
	<path class="st1" d="M0,500"/>
</g>
</svg>
