<?xml version="1.0" encoding="utf-8"?>
<!-- Generator: Adobe Illustrator 27.5.0, SVG Export Plug-In . SVG Version: 6.00 Build 0)  -->
<svg version="1.1" id="Layer_1" xmlns="http://www.w3.org/2000/svg" xmlns:xlink="http://www.w3.org/1999/xlink" x="0px" y="0px"
	 viewBox="0 0 500 500" style="enable-background:new 0 0 500 500;" xml:space="preserve">
<style type="text/css">
	.st0{fill:#F9423A;}
	.st1{fill:none;stroke:#F84239;stroke-width:12;stroke-linecap:round;stroke-linejoin:round;}
</style>
<g>
	<path class="st0" d="M383.5,442.3H116.6c-3.3,0-6-2.7-6-6V63.2c0-3.3,2.7-6,6-6h160.1c1.6,0,3.1,0.6,4.2,1.8l106.8,106.7
		c1.1,1.1,1.8,2.7,1.8,4.2v266.4C389.5,439.6,386.8,442.3,383.5,442.3z M122.6,430.3h254.9V172.4L274.2,69.2H122.6V430.3z"/>
	<g>
		<path class="st0" d="M330.7,376.2h-94c-3.3,0-6-2.7-6-6s2.7-6,6-6h94c3.3,0,6,2.7,6,6S334,376.2,330.7,376.2z"/>
	</g>
	<g>
		<path class="st0" d="M183.3,389.5c-1.5,0-3.1-0.6-4.2-1.7l-13.2-13.1c-2.4-2.3-2.4-6.1,0-8.5c2.3-2.4,6.1-2.4,8.5,0l9,8.9
			l22.5-22.5c2.3-2.3,6.1-2.3,8.5,0c2.3,2.3,2.3,6.1,0,8.5l-26.7,26.7C186.4,388.9,184.8,389.5,183.3,389.5z"/>
	</g>
	<g>
		<path class="st0" d="M330.7,309.2h-94c-3.3,0-6-2.7-6-6s2.7-6,6-6h94c3.3,0,6,2.7,6,6S334,309.2,330.7,309.2z"/>
	</g>
	<g>
		<path class="st0" d="M183.3,322.5c-1.5,0-3.1-0.6-4.2-1.7l-13.2-13.1c-2.4-2.3-2.4-6.1,0-8.5c2.3-2.4,6.1-2.4,8.5,0l9,8.9
			l22.5-22.5c2.3-2.3,6.1-2.3,8.5,0c2.3,2.3,2.3,6.1,0,8.5l-26.7,26.7C186.4,321.9,184.8,322.5,183.3,322.5z"/>
	</g>
	<g>
		<path class="st0" d="M330.7,242.7h-94c-3.3,0-6-2.7-6-6s2.7-6,6-6h94c3.3,0,6,2.7,6,6S334,242.7,330.7,242.7z"/>
	</g>
	<g>
		<path class="st0" d="M183.3,256c-1.5,0-3.1-0.6-4.2-1.7l-13.2-13.1c-2.4-2.3-2.4-6.1,0-8.5c2.3-2.4,6.1-2.4,8.5,0l9,8.9l22.5-22.5
			c2.3-2.3,6.1-2.3,8.5,0c2.3,2.3,2.3,6.1,0,8.5l-26.7,26.7C186.4,255.4,184.8,256,183.3,256z"/>
	</g>
	<g>
		<path class="st0" d="M383.4,175.9H276.7c-3.3,0-6-2.7-6-6V63.2c0-3.3,2.7-6,6-6s6,2.7,6,6v100.7h100.7c3.3,0,6,2.7,6,6
			S386.7,175.9,383.4,175.9z"/>
	</g>
	<g>
		<path class="st0" d="M383.4,175.9c-1.4,0-2.8-0.5-3.9-1.4c-0.4-0.3-5-4.5-54.1-54.4c-45.8-46.5-51.9-51.8-52.5-52.2
			c0.2,0.2,0.3,0.2,0.3,0.2l6.9-9.8c2.4,1.6,22.5,21.6,53.8,53.4c47.5,48.2,53.1,53.4,53.4,53.7c2.5,2.2,2.7,5.9,0.6,8.4
			C386.8,175.2,385.1,175.9,383.4,175.9z"/>
	</g>
	<g>
		<path class="st1" d="M0,500"/>
	</g>
</g>
</svg>
