<?xml version="1.0" encoding="utf-8"?>
<!-- Generator: Adobe Illustrator 27.5.0, SVG Export Plug-In . SVG Version: 6.00 Build 0)  -->
<svg version="1.1" id="Layer_1" xmlns="http://www.w3.org/2000/svg" xmlns:xlink="http://www.w3.org/1999/xlink" x="0px" y="0px"
	 viewBox="0 0 500 500" style="enable-background:new 0 0 500 500;" xml:space="preserve">
<style type="text/css">
	.st0{clip-path:url(#SVGID_00000089575372304108744760000004998336676209102266_);}
	.st1{fill:#F9423A;}
	.st2{fill:none;stroke:#F9423A;stroke-width:12;stroke-linecap:round;stroke-linejoin:round;}
</style>
<g>
	<g>
		<g>
			<defs>
				<rect id="SVGID_1_" width="500" height="500"/>
			</defs>
			<clipPath id="SVGID_00000101077680670932252930000010765646190505733518_">
				<use xlink:href="#SVGID_1_"  style="overflow:visible;"/>
			</clipPath>
			<g style="clip-path:url(#SVGID_00000101077680670932252930000010765646190505733518_);">
				<g>
					<g>
						<path class="st1" d="M207.6,265.6h-91.4c-2.6,0-4.9-1.7-5.7-4.2s0.1-5.2,2.3-6.7l75.7-52.7h-72.3c-2.6,0-4.9-1.7-5.7-4.2
							c-0.8-2.5,0.1-5.2,2.3-6.7l91.4-63.6c2.7-1.9,6.5-1.2,8.4,1.5c1.9,2.7,1.2,6.5-1.5,8.4L135.3,190h72.2c0.2,0,0.3,0,0.5,0
							c0.8,0.1,1.6,0.3,2.4,0.7c0.7,0.4,1.4,0.9,1.9,1.6c0.5,0.6,0.8,1.2,1,2c0.2,0.7,0.3,1.4,0.3,2.2c-0.1,0.9-0.3,1.7-0.7,2.4
							s-0.9,1.4-1.6,1.9c-0.1,0.1-0.3,0.2-0.4,0.3l-75.6,52.6h72.3c3.3,0,6,2.7,6,6S210.9,265.6,207.6,265.6z M383.8,202h-91.4
							c-3.3,0-6-2.7-6-6s2.7-6,6-6h72.3L289,137.3c-2.7-1.9-3.4-5.6-1.5-8.4c1.9-2.7,5.6-3.4,8.4-1.5l91.4,63.6
							c2.2,1.5,3.1,4.2,2.3,6.7C388.7,200.3,386.4,202,383.8,202z"/>
					</g>
					<g>
						<path class="st1" d="M383.8,285.6c-3.3,0-6-2.7-6-6v-14h-85.4c-3.3,0-6-2.7-6-6s2.7-6,6-6h72.3L289,200.9
							c-2.7-1.9-3.4-5.6-1.5-8.4c1.9-2.7,5.6-3.4,8.4-1.5l91.3,63.6c0.2,0.1,0.3,0.2,0.5,0.4c0.4,0.3,0.7,0.7,1,1.1
							c0.6,0.9,1,1.9,1.1,3c0,0.2,0,0.4,0,0.6v19.9C389.8,282.9,387.1,285.6,383.8,285.6z M116.2,285.6c-3.3,0-6-2.7-6-6v-20
							c0-3.3,2.7-6,6-6s6,2.7,6,6v20C122.2,282.9,119.5,285.6,116.2,285.6z M383.8,222c-3.3,0-6-2.7-6-6v-20c0-3.3,2.7-6,6-6
							s6,2.7,6,6v20C389.8,219.3,387.1,222,383.8,222z M116.2,222c-3.3,0-6-2.7-6-6v-20c0-3.3,2.7-6,6-6s6,2.7,6,6v20
							C122.2,219.3,119.5,222,116.2,222z"/>
					</g>
				</g>
				<g>
					<g>
						<path class="st1" d="M250,350.5c-1.6,0-3.1-0.6-4.2-1.8l-42.4-42.5c-2.3-2.3-2.3-6.1,0-8.5l42.4-42.4c1.1-1.1,2.7-1.8,4.2-1.8
							c1.6,0,3.1,0.6,4.2,1.8l42.4,42.4c2.3,2.3,2.3,6.1,0,8.5l-42.4,42.5C253.1,349.9,251.6,350.5,250,350.5z M216.1,302l33.9,34
							l33.9-34L250,268.1L216.1,302z"/>
					</g>
					<g>
						<path class="st1" d="M250,265.6c-1.5,0-3.1-0.6-4.2-1.8l-42.4-42.4c-1.1-1.1-1.8-2.7-1.8-4.2s0.6-3.1,1.8-4.2l42.4-42.4
							c1.1-1.1,2.7-1.8,4.2-1.8c1.6,0,3.1,0.6,4.2,1.8l42.4,42.4c1.1,1.1,1.8,2.7,1.8,4.2s-0.6,3.1-1.8,4.2l-42.4,42.4
							C253.1,265,251.5,265.6,250,265.6z M216.1,217.2l33.9,33.9l33.9-33.9L250,183.3L216.1,217.2z"/>
					</g>
					<g>
						<path class="st1" d="M315.6,416.1c-1.5,0-3.1-0.6-4.2-1.8L250,353l-61.4,61.4c-2.3,2.3-6.1,2.3-8.5,0c-2.3-2.3-2.3-6.1,0-8.5
							l65.6-65.6c2.3-2.3,6.1-2.3,8.5,0l65.6,65.6c2.3,2.3,2.3,6.1,0,8.5C318.7,415.5,317.1,416.1,315.6,416.1z M250,180.8
							c-1.6,0-3.1-0.6-4.2-1.8l-42.4-42.4c-2.3-2.3-2.3-6.1,0-8.5l42.4-42.5c1.1-1.1,2.7-1.8,4.2-1.8l0,0c1.6,0,3.1,0.6,4.2,1.8
							l42.4,42.4c2.3,2.3,2.3,6.1,0,8.5L254.2,179C253.1,180.2,251.6,180.8,250,180.8L250,180.8z M216.1,132.4l33.9,33.9l33.9-34
							L250,98.4L216.1,132.4z"/>
					</g>
					<g>
						<path class="st1" d="M315.6,416.1H184.4c-1.8,0-3.5-0.8-4.7-2.2c-1.1-1.4-1.6-3.3-1.2-5l23.1-107.5V132.3c0-3.3,2.7-6,6-6
							h84.9c3.3,0,6,2.7,6,6v169.5l23,107c0.4,1.8-0.1,3.6-1.2,5C319.1,415.3,317.4,416.1,315.6,416.1z M191.8,404.1h116.4
							l-21.6-100.8c-0.2-0.8-0.2-1.6,0-2.4V138.3h-72.9v163.6c0,0.3,0,0.5,0,0.8s-0.1,0.5-0.1,0.7L191.8,404.1z"/>
					</g>
				</g>
				<g>
					<path class="st2" d="M0,500"/>
				</g>
				<g>
					<path class="st2" d="M0,500"/>
				</g>
				<g>
					<path class="st2" d="M0,500"/>
				</g>
				<g>
					<path class="st2" d="M0,500"/>
				</g>
				<g>
					<path class="st2" d="M112,244.6"/>
				</g>
				<g>
					<path class="st2" d="M0,500"/>
				</g>
				<g>
					<path class="st2" d="M0,500"/>
				</g>
				<g>
					<path class="st2" d="M0,500"/>
				</g>
				<g>
					<path class="st2" d="M0,500"/>
				</g>
			</g>
		</g>
	</g>
</g>
</svg>
