<?xml version="1.0" encoding="utf-8"?>
<!-- Generator: Adobe Illustrator 27.5.0, SVG Export Plug-In . SVG Version: 6.00 Build 0)  -->
<svg version="1.1" id="Layer_1" xmlns="http://www.w3.org/2000/svg" xmlns:xlink="http://www.w3.org/1999/xlink" x="0px" y="0px"
	 viewBox="0 0 500 500" style="enable-background:new 0 0 500 500;" xml:space="preserve">
<style type="text/css">
	.st0{clip-path:url(#SVGID_00000133506244573217358090000008397269840006085779_);}
	.st1{fill:#F9423A;}
</style>
<g>
	<g>
		<g>
			<defs>
				<rect id="SVGID_1_" width="500" height="500"/>
			</defs>
			<clipPath id="SVGID_00000103946020195415654040000001465081700957389703_">
				<use xlink:href="#SVGID_1_"  style="overflow:visible;"/>
			</clipPath>
			<g style="clip-path:url(#SVGID_00000103946020195415654040000001465081700957389703_);">
				<g>
					<path class="st1" d="M367.6,406.3H127.5c-25.3,0-45.9-20.6-45.9-46v-6l0.1-40.1c-0.3-1.5,0-3,0.9-4.3l50.3-77.6
						c6.1-9.4,12-18.6,16.8-25.9c4.6-7.1,8-12.4,9.2-14.1c3.4-5.3,10.2-9.2,16.2-9.2h48.8c3.3,0,6,2.7,6,6s-2.7,6-6,6H175
						c-1.7,0-4.9,1.7-6.1,3.7c-1.2,1.8-4.6,7-9.2,14.1c-4.7,7.3-10.7,16.5-16.8,25.9l-44.3,68.3h67.1c2.6,0,5.8,0,25.4,27.5
						c8.7,12.2,32.9,22.5,52.9,22.5h14c19.8,0,42.9-10.2,50.4-22.2c17.3-27.7,20.1-27.7,23.1-27.7h38.7l26.5-0.1l-44-69.3
						c-5.3-8.3-10.4-16.5-14.7-23.2c-5.4-8.4-9.2-14.6-10.4-16.5c-1.1-1.7-3.7-3.1-5.1-3.1h-50.4c-3.3,0-6-2.7-6-6s2.7-6,6-6h50.4
						c5.6,0,12.1,3.6,15.3,8.7c0,0,0,0.1,0.1,0.1c1.1,1.8,5.2,8.2,10.4,16.4c4.3,6.7,9.4,14.9,14.7,23.2l49.9,78.6
						c0.7,1.1,1,2.3,0.9,3.5c0,0.1,0,0.2,0,0.3v46.5C413.6,385.7,392.9,406.3,367.6,406.3z M93.7,319.1l-0.1,41.2
						c0,18.7,15.2,34,33.9,34h240.1c18.7,0,34-15.3,34.1-34v-41.2l-31.5,0.1h-36.5c-2.4,2.8-7.9,10.5-15.1,22.1
						c-9.7,15.6-36.3,27.8-60.6,27.8h-14c-24.2,0-51.7-12.1-62.7-27.5c-8.7-12.3-15.1-19.9-17.6-22.5H93.7z"/>
				</g>
				<g>
					<path class="st1" d="M248.3,307.5c-3.3,0-6-2.7-6-6v-201l-45.8,45.8c-2.3,2.3-6.1,2.3-8.5,0c-2.3-2.3-2.3-6.1,0-8.5l56-56
						c2.3-2.3,6.1-2.3,8.5,0l55.7,55.7c2.3,2.3,2.3,6.1,0,8.5c-2.3,2.3-6.1,2.3-8.5,0l-45.5-45.5v201
						C254.3,304.8,251.6,307.5,248.3,307.5z"/>
				</g>
			</g>
		</g>
	</g>
</g>
</svg>
