<?xml version="1.0" encoding="iso-8859-1"?>
<!-- Generator: Adobe Illustrator 29.6.1, SVG Export Plug-In . SVG Version: 9.03 Build 0)  -->
<svg version="1.1" id="Layer_1" xmlns="http://www.w3.org/2000/svg" xmlns:xlink="http://www.w3.org/1999/xlink" x="0px" y="0px"
	 viewBox="0 0 500 500" style="enable-background:new 0 0 500 500;" xml:space="preserve">
<g>
	<g>
		<path style="fill:#F9423A;" d="M121.046,330.399c-0.424,0-0.854-0.045-1.284-0.139c-3.238-0.706-5.29-3.903-4.584-7.141
			c3.637-16.678,12.967-31.835,26.272-42.679c13.499-11.002,30.539-17.061,47.983-17.061h85c17.264,0,34.166,5.946,47.594,16.744
			c13.224,10.633,22.61,25.542,26.433,41.98l0.131,0.559c0.752,3.227-1.255,6.453-4.482,7.205c-3.232,0.752-6.453-1.256-7.205-4.482
			l-0.131-0.562c-6.77-29.113-32.403-49.444-62.339-49.444h-85c-29.878,0-56.176,21.152-62.531,50.296
			C126.29,328.483,123.806,330.399,121.046,330.399z"/>
	</g>
	<g>
		<path style="fill:#F9423A;" d="M231.433,240.381c-30.878,0-56-25.122-56-56s25.122-56,56-56s56,25.122,56,56
			S262.312,240.381,231.433,240.381z M231.433,140.381c-24.262,0-44,19.738-44,44s19.738,44,44,44c24.261,0,44-19.738,44-44
			S255.694,140.381,231.433,140.381z"/>
	</g>
	<g>
		<path style="fill:#F9423A;" d="M231.75,381.75c-83.262,0-151-67.738-151-151s67.738-151,151-151s151,67.738,151,151
			S315.012,381.75,231.75,381.75z M231.75,91.75c-76.645,0-139,62.355-139,139s62.355,139,139,139s139-62.355,139-139
			S308.395,91.75,231.75,91.75z"/>
	</g>
	<g>
		<path style="fill:#F9423A;" d="M413.25,420.25c-1.535,0-3.071-0.586-4.242-1.758l-80-80c-2.344-2.343-2.344-6.142,0-8.484
			c2.342-2.344,6.143-2.344,8.484,0l80,80c2.344,2.343,2.344,6.142,0,8.484C416.321,419.664,414.785,420.25,413.25,420.25z"/>
	</g>
</g>
</svg>
