<?xml version="1.0" encoding="utf-8"?>
<!-- Generator: Adobe Illustrator 27.5.0, SVG Export Plug-In . SVG Version: 6.00 Build 0)  -->
<svg version="1.1" id="Layer_1" xmlns="http://www.w3.org/2000/svg" xmlns:xlink="http://www.w3.org/1999/xlink" x="0px" y="0px"
	 viewBox="0 0 500 500" style="enable-background:new 0 0 500 500;" xml:space="preserve">
<style type="text/css">
	.st0{clip-path:url(#SVGID_00000087411543734374230380000013402141098827258290_);}
	.st1{fill:#F9423A;}
	.st2{display:none;fill:none;stroke:#F9423A;stroke-width:12;stroke-linecap:round;stroke-linejoin:round;}
	.st3{fill:none;stroke:#F9423A;stroke-width:12;stroke-linecap:round;stroke-linejoin:round;}
</style>
<g>
	<g>
		<g>
			<defs>
				<rect id="SVGID_1_" width="500" height="500"/>
			</defs>
			<clipPath id="SVGID_00000105403608460853639210000015639357331721949110_">
				<use xlink:href="#SVGID_1_"  style="overflow:visible;"/>
			</clipPath>
			<g style="clip-path:url(#SVGID_00000105403608460853639210000015639357331721949110_);">
				<g>
					<path class="st1" d="M213.6,351.2c-3.3,0-6-2.7-6-6V183.4h-44.1c-4.5,0-8.6-1.7-11.8-4.4c-3.2,2.9-7.4,4.4-11.7,4.4h-39
						c-9.8,0-17.8-8-17.8-17.8V154c0-2.7,1.8-5,4.2-5.7c9.6-5.4,74-41,108.7-41h11.5v-5.2c0-3.3,2.7-6,6-6s6,2.7,6,6v5.2h11.7
						c26.7,0,99.8,36.5,108.7,41.1c0.8,0.3,1.6,0.8,2.2,1.4c1.5,1.4,2.1,3.4,1.7,5.4v10.4c0,9.8-8,17.8-17.8,17.8h-39
						c-4.5,0-8.6-1.7-11.8-4.4c-3.2,2.9-7.4,4.4-11.7,4.4h-44.1v161.8C219.6,348.5,216.9,351.2,213.6,351.2z M281.4,165.7
						c0.1,3.1,2.6,5.7,5.8,5.7h39c3.2,0,5.8-2.6,5.8-5.8V160h-50.6L281.4,165.7C281.4,165.6,281.4,165.7,281.4,165.7z M213.6,171.4
						h50.1c1.5,0,3-0.6,4.1-1.7c1-1,1.6-2.4,1.6-3.9c0-0.1,0-0.1,0-0.2V160H157.7v5.6v0.1c0.1,3.1,2.6,5.7,5.8,5.7L213.6,171.4
						L213.6,171.4z M95.2,160v5.6c0,3.2,2.6,5.8,5.8,5.8h39c1.5,0,3-0.6,4.1-1.7c1-1,1.6-2.4,1.6-3.9c0-0.1,0-0.1,0-0.2V160H95.2z
						 M277.7,148h34c-23.7-11.1-55.1-24.4-73.1-27.9C260.1,132.8,273.1,143.8,277.7,148z M168.4,148h90.4
						c-9.6-7.3-24.7-17.6-45.2-28C193.1,130.5,178,140.7,168.4,148z M113.6,148h35.9c4.6-4.2,17.7-15.3,39.6-28.2
						C166.8,122.7,134.6,137.4,113.6,148z"/>
				</g>
				<g>
					<g>
						<path class="st1" d="M109.9,415.5c-1.1,0-2.1-0.3-3.1-0.9c-2.8-1.7-3.8-5.4-2-8.2l20.7-34.4c1.7-2.8,5.4-3.8,8.2-2
							c2.8,1.7,3.8,5.4,2,8.2L115,412.6C113.9,414.5,111.9,415.5,109.9,415.5z M233.8,415.5c-3.3,0-6-2.7-6-6v-34.4c0-3.3,2.7-6,6-6
							s6,2.7,6,6v34.4C239.8,412.8,237.1,415.5,233.8,415.5z M355.7,415.4c-2,0-4-1-5.1-2.9l-20.7-34.4c-1.7-2.8-0.8-6.5,2-8.2
							s6.5-0.8,8.2,2l20.7,34.4c1.7,2.8,0.8,6.5-2,8.2C357.8,415.1,356.8,415.4,355.7,415.4z M318.1,352.8c-2,0-4-1-5.1-2.9
							l-10.3-17.1c-3.4-5.7-9.4-9.1-16.1-9.1h-39.2c-4.2,0-7.6,3.4-7.6,7.6v15.5c0,3.3-2.7,6-6,6s-6-2.7-6-6v-15.5
							c0-10.8,8.8-19.6,19.6-19.6h39.2c10.9,0,20.7,5.6,26.3,14.9l10.3,17.1c1.7,2.8,0.8,6.5-2,8.2
							C320.2,352.5,319.2,352.8,318.1,352.8z"/>
					</g>
					<g>
						<path class="st1" d="M335,381.1H130.6c-3.3,0-6-2.7-6-6c0-18.9,15.4-34.3,34.3-34.3h167.5l57.4-33.1
							c7.8-4.5,16.9-5.7,25.6-3.2s15.8,8.3,20,16.3c1.5,2.9,0.5,6.4-2.3,8L338,380.3C337.1,380.8,336.1,381.1,335,381.1z
							 M137.4,369.1h196l82-47.4c-2.5-2.6-5.7-4.6-9.3-5.6c-5.5-1.6-11.3-0.9-16.2,2L331,352c-0.9,0.5-1.9,0.8-3,0.8H158.9
							C148.7,352.8,140,359.7,137.4,369.1z"/>
					</g>
				</g>
				<g>
					<g>
						<path class="st2" d="M0,500"/>
					</g>
					<g>
						<path class="st3" d="M0,500"/>
					</g>
					<g>
						<path class="st3" d="M0,500"/>
					</g>
					<g>
						<path class="st3" d="M0,500"/>
					</g>
					<g>
						<path class="st3" d="M0,500"/>
					</g>
					<g>
						<path class="st3" d="M0,500"/>
					</g>
					<g>
						<path class="st3" d="M0,500"/>
					</g>
					<g>
						<path class="st3" d="M0,500"/>
					</g>
					<g>
						<path class="st3" d="M0,500"/>
					</g>
					<g>
						<path class="st3" d="M0,500"/>
					</g>
					<g>
						<path class="st3" d="M0,500"/>
					</g>
					<g>
						<path class="st3" d="M0,500"/>
					</g>
				</g>
			</g>
		</g>
	</g>
</g>
</svg>
