<?xml version="1.0" encoding="utf-8"?>
<!-- Generator: Adobe Illustrator 27.5.0, SVG Export Plug-In . SVG Version: 6.00 Build 0)  -->
<svg version="1.1" id="Layer_1" xmlns="http://www.w3.org/2000/svg" xmlns:xlink="http://www.w3.org/1999/xlink" x="0px" y="0px"
	 viewBox="0 0 500 500" style="enable-background:new 0 0 500 500;" xml:space="preserve">
<style type="text/css">
	.st0{fill:none;stroke:#F9423A;stroke-width:12.04;stroke-linecap:round;stroke-linejoin:round;}
	.st1{display:none;fill:none;stroke:#F9423A;stroke-width:12.04;stroke-linecap:round;stroke-linejoin:round;}
	.st2{opacity:0;}
	.st3{fill:#F9423A;}
	.st4{display:none;fill:none;stroke:#F9423A;stroke-width:15.05;stroke-linecap:round;stroke-linejoin:round;}
	.st5{fill:none;stroke:#F9423A;stroke-width:15.05;stroke-linecap:round;stroke-linejoin:round;}
</style>
<g>
	<path class="st0" d="M0,500"/>
	<g>
		<path class="st1" d="M0,500"/>
		<path class="st0" d="M0,500"/>
	</g>
	<path class="st0" d="M0,500"/>
	<g>
		<path class="st1" d="M0,500"/>
		<path class="st0" d="M0,500"/>
	</g>
	<path class="st0" d="M0,500"/>
	<g>
		<path class="st1" d="M0,500"/>
		<path class="st0" d="M0,500"/>
	</g>
	<path class="st0" d="M0,500"/>
	<path class="st0" d="M0,500"/>
	<path class="st0" d="M0,500"/>
	<path class="st0" d="M0,500"/>
	<path class="st0" d="M0,500"/>
	<g>
		<g class="st2">
			<g>
				<path class="st3" d="M248.2,415.7H108.6c-3.3,0-6-2.7-6-6s2.7-6,6-6h139.6c3.3,0,6,2.7,6,6S251.5,415.7,248.2,415.7z"/>
			</g>
		</g>
		<g>
			<path class="st3" d="M330.5,390.8c-5.1,0-10.1-1-15-3c-1-0.4-2.2-0.7-3.5-0.9l-5.9-0.7c-4.6-0.6-8.1-4.5-8.1-9.2v-5.8
				c-0.1-6.3,2.2-12.2,6.6-16.7c4.5-4.6,10.5-7.1,17-7.1h17.7c13.1,0,23.7,10.6,23.7,23.7v5.9c0,4.6-3.5,8.6-8.1,9.2l-6.3,0.7
				c-1.2,0.1-2.3,0.4-3,0.8c-0.1,0-0.1,0.1-0.2,0.1C340.7,389.8,335.6,390.8,330.5,390.8z M310.1,374.5l3.4,0.4
				c2.5,0.3,4.8,0.9,6.8,1.8c6.5,2.7,13.8,2.8,20.5,0c1.9-0.9,4.2-1.5,6.6-1.8l3.7-0.4v-3.4c0-6.5-5.2-11.7-11.7-11.7h-17.7
				c-3.2,0-6.2,1.2-8.4,3.5c-2.1,2.2-3.3,5-3.2,8.1v0.1L310.1,374.5L310.1,374.5z M330.6,344.5c-9.7,0-17.6-7.7-18.1-17.4l-0.4-11.4
				c-0.2-4.9,1.5-9.5,5-13.1c3.4-3.6,8.2-5.6,13.1-5.6h0.8c4.9,0,9.5,2,13,5.5c3.5,3.6,5.3,8.2,5.1,13.2l-0.4,11.3
				C348.4,336.6,340.3,344.5,330.6,344.5z M330.2,309c-1.7,0-3.3,0.7-4.5,1.9c-1.1,1.2-1.7,2.7-1.6,4.3l0.4,11.4
				c0.2,3.3,2.8,5.9,6.1,5.9c3.3,0,6-2.6,6.1-5.9l0.4-11.3c0-1.6-0.6-3.2-1.8-4.4c-1.2-1.2-2.7-1.9-4.4-1.9H330.2z"/>
		</g>
		<g>
			<path class="st3" d="M384,306.9c-3.3,0-6.1-2.7-6.1-6s2.6-6,6-6h0.1c3.3,0,6,2.7,6,6S387.3,306.9,384,306.9z"/>
		</g>
		<g>
			<path class="st3" d="M330.5,255.3c-5.1,0-10.1-1-15-3c-1-0.4-2.2-0.7-3.5-0.9l-5.9-0.7c-4.6-0.6-8.1-4.5-8.1-9.2v-5.8
				c-0.1-6.2,2.3-12.1,6.7-16.6c4.5-4.6,10.5-7.1,16.9-7.1h17.7c13.1,0,23.7,10.6,23.7,23.7v5.9c0,4.6-3.5,8.6-8.1,9.2l-6.3,0.7
				c-1.2,0.1-2.3,0.4-3,0.8c-0.1,0-0.1,0.1-0.2,0.1C340.7,254.3,335.6,255.3,330.5,255.3z M310.1,239l3.4,0.4
				c2.5,0.3,4.8,0.9,6.8,1.8c6.5,2.7,13.8,2.8,20.5,0c1.9-0.9,4.2-1.5,6.6-1.8l3.7-0.4v-3.4c0-6.5-5.2-11.7-11.7-11.7h-17.7
				c-3.2,0-6.1,1.2-8.4,3.5c-2.1,2.2-3.3,5.1-3.2,8.1v0.1L310.1,239L310.1,239z M330.6,209.1c-9.7,0-17.6-7.7-18.1-17.4l-0.4-11.4
				c-0.1-5,1.7-9.7,5.1-13.3c3.4-3.5,8-5.5,13-5.5h0.8c4.9,0,9.5,2,13,5.5c3.5,3.6,5.3,8.2,5.1,13.2l-0.4,11.3
				C348.4,201.2,340.3,209.1,330.6,209.1z M330.2,173.6c-1.7,0-3.2,0.6-4.4,1.8c-1.2,1.2-1.8,2.8-1.7,4.5l0.4,11.3
				c0.2,3.3,2.8,5.9,6.1,5.9c3.3,0,6-2.6,6.1-5.9l0.4-11.3c0-1.6-0.6-3.2-1.8-4.4c-1.2-1.2-2.7-1.9-4.4-1.9L330.2,173.6L330.2,173.6
				z"/>
		</g>
		<g>
			<path class="st3" d="M384,171.9c-3.3,0-6.1-2.7-6.1-6s2.6-6,6-6h0.1c3.3,0,6,2.7,6,6S387.3,171.9,384,171.9z"/>
		</g>
		<g>
			<path class="st3" d="M169.8,348.6c-8.1,0-16.1-1.5-23.7-4.6c-0.2-0.1-0.5-0.2-0.7-0.3c-2.3-1-4.7-1.6-7.1-1.8h-0.1l-10.2-1.2
				c-5.8-0.6-10.2-5.5-10.2-11.5V319c0.2-20.2,16.7-36.6,36.8-36.6h30.6c20.2,0,36.6,16.4,36.6,36.6v10.3c0,5.9-4.4,10.8-10.3,11.5
				l-10.7,1.2c-2.2,0.2-4.6,0.8-6.9,1.8C186.3,347,178.1,348.6,169.8,348.6z M149.6,332.4c0.2,0.1,0.4,0.1,0.7,0.2
				c12.4,5.2,26.7,5.2,39.1,0c3.5-1.4,6.9-2.3,10.2-2.6l10.2-1.1V319c0-13.6-11-24.6-24.6-24.6h-30.6c-13.5,0-24.6,11.1-24.8,24.7
				v9.7l9.7,1.1C143,330.3,146.3,331.1,149.6,332.4z M210.2,328.8L210.2,328.8L210.2,328.8z M129.3,328.7L129.3,328.7L129.3,328.7z
				 M170,275.9c-14.6,0-26.4-11.4-26.9-25.9l-0.7-19.5c-0.2-7.4,2.4-14.3,7.5-19.6s12-8.2,19.4-8.2h1.4c7.4,0,14.2,2.9,19.4,8.2
				c5.1,5.3,7.8,12.2,7.5,19.6l-0.7,19.5C196.4,264.5,184.6,275.9,170,275.9z M169.3,214.7c-4.1,0-7.9,1.6-10.7,4.6
				c-2.8,2.9-4.3,6.8-4.2,10.8l0.7,19.5c0.3,7.9,7,14.3,14.9,14.3c8.1,0,14.6-6.3,14.9-14.3l0.7-19.5c0.1-4-1.3-7.9-4.2-10.8
				c-2.8-2.9-6.6-4.6-10.7-4.6L169.3,214.7L169.3,214.7z"/>
		</g>
		<g>
			<path class="st3" d="M222,171.9h-0.1c-3.3,0-6-2.7-6-6s2.7-6,6-6h0.1c3.3,0,6,2.7,6,6S225.3,171.9,222,171.9z"/>
		</g>
		<g>
			<g>
				<g>
					<path class="st3" d="M387.7,416.1H112.3c-15.7,0-28.4-12.7-28.4-28.4V112.3c0-15.7,12.7-28.4,28.4-28.4h275.4
						c15.7,0,28.4,12.7,28.4,28.4v275.4C416.1,403.4,403.4,416.1,387.7,416.1z M256,404.1h131.7c9,0,16.4-7.4,16.4-16.4v-106H256
						V404.1z M95.9,147.3v240.4c0,9,7.4,16.4,16.4,16.4H244V147.3H95.9z M256,269.7h148.1V147.3H256V269.7z M95.9,135.3h308.2v-23
						c0-9-7.4-16.4-16.4-16.4H112.3c-9,0-16.4,7.4-16.4,16.4V135.3z"/>
				</g>
			</g>
			<g>
				<g>
					<path class="st3" d="M178,123.1h-0.1c-4.2,0-7.5-3.4-7.5-7.5s3.4-7.5,7.5-7.5h0.1c4.2,0,7.5,3.4,7.5,7.5S182.2,123.1,178,123.1
						z M149.8,123.1c-4.2,0-7.6-3.4-7.6-7.5s3.3-7.5,7.5-7.5h0.1c4.2,0,7.5,3.4,7.5,7.5S154,123.1,149.8,123.1z M121.7,123.1
						L121.7,123.1c-4.3,0-7.6-3.4-7.6-7.5s3.4-7.5,7.5-7.5h0.1c4.2,0,7.5,3.4,7.5,7.5S125.9,123.1,121.7,123.1z"/>
				</g>
			</g>
		</g>
	</g>
	<g>
		<g>
			<path class="st4" d="M0,500"/>
		</g>
		<g>
			<path class="st5" d="M0,500"/>
		</g>
		<g>
			<path class="st5" d="M0,500"/>
		</g>
		<g>
			<path class="st5" d="M0,500"/>
		</g>
		<g>
			<path class="st5" d="M0,500"/>
		</g>
		<g>
			<path class="st5" d="M0,500"/>
		</g>
		<g>
			<path class="st5" d="M0,500"/>
		</g>
		<g>
			<path class="st5" d="M0,500"/>
		</g>
		<g>
			<path class="st5" d="M0,500"/>
		</g>
		<g>
			<path class="st5" d="M0,500"/>
		</g>
		<g>
			<path class="st5" d="M0,500"/>
		</g>
		<g>
			<path class="st5" d="M0,500"/>
		</g>
	</g>
</g>
</svg>
