<?xml version="1.0" encoding="utf-8"?>
<!-- Generator: Adobe Illustrator 27.5.0, SVG Export Plug-In . SVG Version: 6.00 Build 0)  -->
<svg version="1.1" id="Layer_1" xmlns="http://www.w3.org/2000/svg" xmlns:xlink="http://www.w3.org/1999/xlink" x="0px" y="0px"
	 viewBox="0 0 500 500" style="enable-background:new 0 0 500 500;" xml:space="preserve">
<style type="text/css">
	.st0{fill:#F9423A;}
	.st1{display:none;fill:none;stroke:#F9423A;stroke-width:3.5;stroke-linecap:round;stroke-linejoin:round;}
	.st2{fill:none;stroke:#F9423A;stroke-width:3.5;stroke-linecap:round;stroke-linejoin:round;}
</style>
<g>
	<g>
		<path class="st0" d="M250,314.8c-36.2,0-65.7-29.5-65.7-65.7s29.5-65.7,65.7-65.7s65.7,29.5,65.7,65.7S286.2,314.8,250,314.8z
			 M250,195.4c-29.6,0-53.7,24.1-53.7,53.7s24.1,53.7,53.7,53.7s53.7-24.1,53.7-53.7S279.6,195.4,250,195.4z"/>
	</g>
	<g>
		<path class="st0" d="M250,336.7c-32.8,0-65.5-8-94.4-23.1c-28-14.6-52.6-35.9-71.1-61.6c-1.5-2.1-1.5-4.9,0-7
			c18.5-25.7,43.1-46.9,71.1-61.6c28.9-15.1,61.6-23.1,94.4-23.1s65.5,8,94.4,23.1c28,14.6,52.5,35.9,71.1,61.6c1.5,2.1,1.5,4.9,0,7
			c-18.5,25.7-43.1,46.9-71.1,61.6C315.5,328.7,282.8,336.7,250,336.7z M96.9,248.5C133,296.3,190,324.7,250,324.7
			c60.1,0,117-28.4,153.1-76.2c-36.2-47.8-93.2-76.2-153.1-76.2C189.9,172.3,133,200.7,96.9,248.5z"/>
	</g>
	<g>
		<g>
			<path class="st1" d="M0,500"/>
		</g>
		<g>
			<path class="st2" d="M0,500"/>
		</g>
		<g>
			<path class="st2" d="M0,500"/>
		</g>
		<g>
			<path class="st2" d="M0,500"/>
		</g>
		<g>
			<path class="st2" d="M0,500"/>
		</g>
		<g>
			<path class="st2" d="M0,500"/>
		</g>
		<g>
			<path class="st2" d="M0,500"/>
		</g>
		<g>
			<path class="st2" d="M0,500"/>
		</g>
		<g>
			<path class="st2" d="M0,500"/>
		</g>
		<g>
			<path class="st2" d="M0,500"/>
		</g>
		<g>
			<path class="st2" d="M0,500"/>
		</g>
		<g>
			<path class="st2" d="M0,500"/>
		</g>
	</g>
</g>
</svg>
