<?xml version="1.0" encoding="utf-8"?>
<!-- Generator: Adobe Illustrator 27.5.0, SVG Export Plug-In . SVG Version: 6.00 Build 0)  -->
<svg version="1.1" id="Layer_1" xmlns="http://www.w3.org/2000/svg" xmlns:xlink="http://www.w3.org/1999/xlink" x="0px" y="0px"
	 viewBox="0 0 500 500" style="enable-background:new 0 0 500 500;" xml:space="preserve">
<style type="text/css">
	.st0{fill:#F9423A;}
	.st1{fill:none;stroke:#F9423A;stroke-width:12;stroke-linecap:round;stroke-linejoin:round;}
</style>
<g>
	<g>
		<g>
			<path class="st0" d="M390.1,416.2H241.2c-3.3,0-6-2.7-6-6v-66.4h-92.5c-2.2,0-4.1-1.2-5.2-2.9c-1,1.7-3,2.9-5.1,2.9h-22.5
				c-3.3,0-6-2.7-6-6V166.6c0-2.1,1.1-4.1,3-5.2l139.5-80.1c1.8-1.1,4.1-1.1,6,0l140.7,80.1c1.9,1.1,3,3.1,3,5.2v243.6
				C396.1,413.5,393.4,416.2,390.1,416.2z M247.2,404.2h136.9V170.1L249.4,93.4l-133.5,76.7v161.7h10.5v-66.5c0-3.3,2.7-6,6-6H205
				c3.3,0,6,2.7,6,6v66.5h30.2c3.3,0,6,2.7,6,6V404.2z M138.4,271.3v62.3c1.1-1.1,2.6-1.9,4.3-1.9H199v-60.4H138.4z"/>
		</g>
		<g>
			<path class="st0" d="M356.2,416.1c-3.3,0-6-2.7-6-6v-30.2h-109c-3.3,0-6-2.7-6-6s2.7-6,6-6h109v-24.2H205c-3.3,0-6-2.7-6-6
				s2.7-6,6-6h145.2v-24.2H205c-3.3,0-6-2.7-6-6s2.7-6,6-6h145.2v-24.3H205c-3.3,0-6-2.7-6-6s2.7-6,6-6h145.2V235H148.7v30.2
				c0,3.3-2.7,6-6,6s-6-2.7-6-6v-72.4c0-3.3,2.7-6,6-6h213.5c3.3,0,6,2.7,6,6v217.3C362.2,413.4,359.5,416.1,356.2,416.1z
				 M148.7,223h201.5v-24.2H148.7V223z"/>
		</g>
		<g>
			<path class="st0" d="M168.7,416.3H96.2c-3.3,0-6-2.7-6-6v-72.5c0-3.3,2.7-6,6-6h72.5c3.3,0,6,2.7,6,6v72.5
				C174.7,413.6,172,416.3,168.7,416.3z M102.2,404.3h60.5v-60.5h-60.5V404.3z"/>
		</g>
		<g>
			<path class="st0" d="M241.2,416.2h-72.5c-3.3,0-6-2.7-6-6v-0.1c0-3.3,2.7-6,6-6h72.5c3.3,0,6,2.7,6,6v0.1
				C247.2,413.5,244.5,416.2,241.2,416.2z"/>
		</g>
	</g>
	<path class="st1" d="M0,500"/>
</g>
</svg>
