<?xml version="1.0" encoding="iso-8859-1"?>
<!-- Generator: Adobe Illustrator 29.6.1, SVG Export Plug-In . SVG Version: 9.03 Build 0)  -->
<svg version="1.1" id="Layer_1" xmlns="http://www.w3.org/2000/svg" xmlns:xlink="http://www.w3.org/1999/xlink" x="0px" y="0px"
	 viewBox="0 0 500 500" style="enable-background:new 0 0 500 500;" xml:space="preserve">
<g>
	<g>
		<path style="fill:#F9423A;" d="M239.426,405.686c-39.707,0-79.414-15.114-109.643-45.344
			c-29.281-29.28-45.408-68.219-45.408-109.642s16.126-80.361,45.408-109.643c60.457-60.456,158.828-60.457,219.285,0
			c29.282,29.282,45.408,68.22,45.408,109.643s-16.126,80.361-45.408,109.643C318.839,390.571,279.132,405.686,239.426,405.686z
			 M239.426,107.709c-36.639,0-73.265,13.941-101.157,41.833c-27.015,27.015-41.893,62.94-41.893,101.158
			s14.878,74.143,41.893,101.157c55.778,55.777,146.536,55.777,202.315,0l0,0c27.015-27.015,41.893-62.939,41.893-101.157
			s-14.878-74.143-41.893-101.158C312.698,121.657,276.055,107.709,239.426,107.709z"/>
	</g>
	<g>
		<path style="fill:#F9423A;" d="M239.426,256.7c-1.536,0-3.071-0.586-4.243-1.758c-1.543-1.543-2.07-3.717-1.581-5.691
			c-0.115-0.464-0.177-0.951-0.177-1.451V145.4c0-3.314,2.686-6,6-6c3.313,0,6,2.686,6,6v90.815l43.058-43.058
			c2.342-2.343,6.143-2.343,8.484,0c2.344,2.343,2.344,6.142,0,8.485l-53.3,53.3C242.497,256.114,240.961,256.7,239.426,256.7z"/>
	</g>
	<g>
		<path style="fill:#F9423A;" d="M331.125,441.8h-185.4c-3.313,0-6-2.687-6-6v-69.1c0-3.313,2.687-6,6-6s6,2.687,6,6v63.1h173.399
			v-61.6c0-3.313,2.687-6,6-6s6,2.687,6,6v67.6C337.125,439.113,334.438,441.8,331.125,441.8z M409.625,272.9h-21.199
			c-3.313,0-6-2.687-6-6s2.687-6,6-6h15.199v-26.6h-15.199c-3.313,0-6-2.687-6-6c0-3.314,2.687-6,6-6h21.199c3.313,0,6,2.686,6,6
			v38.6C415.625,270.214,412.938,272.9,409.625,272.9z M146.025,140.6c-3.314,0-6-2.687-6-6V64.2c0-3.313,2.686-6,6-6h185.3
			c3.313,0,6,2.687,6,6v69.1c0,3.313-2.687,6-6,6s-6-2.687-6-6V70.2h-173.3v64.4C152.025,137.914,149.338,140.6,146.025,140.6z"/>
	</g>
</g>
</svg>
