<?xml version="1.0" encoding="utf-8"?>
<!-- Generator: Adobe Illustrator 27.5.0, SVG Export Plug-In . SVG Version: 6.00 Build 0)  -->
<svg version="1.1" id="Layer_1" xmlns="http://www.w3.org/2000/svg" xmlns:xlink="http://www.w3.org/1999/xlink" x="0px" y="0px"
	 viewBox="0 0 500 500" style="enable-background:new 0 0 500 500;" xml:space="preserve">
<style type="text/css">
	.st0{clip-path:url(#SVGID_00000072259682316953938790000001638489169663882687_);}
	.st1{fill:#F9423A;}
	.st2{fill:none;stroke:#F9423A;stroke-width:12;stroke-linecap:round;stroke-linejoin:round;}
</style>
<g>
	<g>
		<g>
			<defs>
				<rect id="SVGID_1_" width="500" height="500"/>
			</defs>
			<clipPath id="SVGID_00000088127422712824660440000016325152928696055208_">
				<use xlink:href="#SVGID_1_"  style="overflow:visible;"/>
			</clipPath>
			<g style="clip-path:url(#SVGID_00000088127422712824660440000016325152928696055208_);">
				<g>
					<path class="st1" d="M125.7,416.2c-2.2,0-3.9-0.5-5.3-1.2c-2.7-1.3-7.3-5-7.3-14.7v-37.7c0-12.5,7.8-32,20.3-41.9
						c9.7-7.6,20-14.3,30.7-19.8c2.9-1.5,6.6-0.4,8.1,2.6c1.5,2.9,0.4,6.6-2.6,8.1c-10,5.2-19.7,11.5-28.8,18.6
						c-9,7.1-15.7,23-15.7,32.5v37.7c0,2.5,0.5,3.5,0.6,3.9c0.8,0,3.4-0.6,7.6-4c33.3-26.4,75.2-41,118-41s84.7,14.6,118,41
						c4.2,3.3,6.7,4,7.6,4l0,0c0.2-0.4,0.6-1.4,0.6-3.9v-37.7c0-9.4-6.7-25.3-15.7-32.5c-9.5-7.5-19.7-14-30.3-19.3
						c-3-1.5-4.1-5.1-2.7-8.1c1.5-3,5.1-4.1,8.1-2.7c11.3,5.7,22.1,12.6,32.3,20.6c11.2,8.9,20.3,27.7,20.3,41.9v37.7
						c0,9.2-4,13.1-7.3,14.7c-3.9,1.9-10.5,2.5-20.4-5.4c-64.1-50.8-157-50.8-221.1,0C134.5,414.6,129.5,416.2,125.7,416.2z"/>
				</g>
				<g>
					<g>
						<path class="st1" d="M250,294.7c-43.6,0-79-35.4-79-79s35.4-79,79-79s79,35.4,79,79S293.6,294.7,250,294.7z M250,148.7
							c-36.9,0-67,30.1-67,67s30.1,67,67,67s67-30.1,67-67S286.9,148.7,250,148.7z M325.6,283.7c-3.3,0-6-2.7-6-6s2.6-6,6-6h0.1
							c3.3,0,6,2.7,6,6S328.9,283.7,325.6,283.7z"/>
					</g>
					<g>
						<path class="st1" d="M250,263c-26.1,0-47.3-21.2-47.3-47.3s21.2-47.3,47.3-47.3s47.3,21.2,47.3,47.3S276.1,263,250,263z
							 M250,180.4c-19.5,0-35.3,15.8-35.3,35.3S230.5,251,250,251s35.3-15.8,35.3-35.3S269.5,180.4,250,180.4z"/>
					</g>
					<g>
						<path class="st1" d="M250,344.4c-71.7,0-130.1-58.4-130.1-130.1S178.3,84.2,250,84.2s130.1,58.4,130.1,130.1
							S321.7,344.4,250,344.4z M250,96.2c-65.1,0-118.1,53-118.1,118.1s53,118.1,118.1,118.1s118.1-53,118.1-118.1
							S315.1,96.2,250,96.2z"/>
					</g>
				</g>
				<g>
					<path class="st2" d="M0,500"/>
				</g>
			</g>
		</g>
	</g>
</g>
</svg>
