<?xml version="1.0" encoding="utf-8"?>
<!-- Generator: Adobe Illustrator 27.5.0, SVG Export Plug-In . SVG Version: 6.00 Build 0)  -->
<svg version="1.1" id="Layer_1" xmlns="http://www.w3.org/2000/svg" xmlns:xlink="http://www.w3.org/1999/xlink" x="0px" y="0px"
	 viewBox="0 0 500 500" style="enable-background:new 0 0 500 500;" xml:space="preserve">
<style type="text/css">
	.st0{fill:#F9423A;}
	.st1{display:none;fill:none;stroke:#F9423A;stroke-width:12;stroke-linecap:round;stroke-linejoin:round;}
	.st2{fill:none;stroke:#F9423A;stroke-width:12;stroke-linecap:round;stroke-linejoin:round;}
</style>
<g>
	<g>
		<path class="st0" d="M286.2,412c-3.1,0-5.7-2.3-6-5.5c-1.6-18.1-4.4-30.9-8.4-39.2c-0.7-1.6-3.7-6.3-16.3-18.2
			c-6.8-6.4-10-15.3-8.8-24.4l1.4-12c0.2-1.4,0.8-2.8,1.9-3.7l30.1-27.4c2.2-2,5.4-2.1,7.7-0.3c0.3,0.2,30.3,23.4,67.5,37.6
			c2.9,1.1,4.5,4.2,3.7,7.1l-8.7,32.8c-0.2,0.7-0.5,1.3-0.9,1.9l-26.3,37.4c-1.9,2.7-5.6,3.4-8.4,1.5c-2.7-1.9-3.4-5.6-1.5-8.4
			l25.7-36.5l7.1-26.6c-28.9-11.8-52.4-27.7-61.5-34.4l-24.8,22.6l-1.1,9.8c-0.7,5.3,1.2,10.5,5.2,14.2c10.5,9.8,16.7,17,18.9,21.7
			c4.7,9.7,7.8,23.5,9.5,43.3c0.3,3.3-2.1,6.2-5.4,6.5C286.6,412,286.4,412,286.2,412z M236.9,285.5c-1,0-2-0.2-2.9-0.7l-51.5-28.1
			c-1.6-0.9-2.7-2.4-3-4.2l-12.1-68.6c-0.3-1.9,0.3-3.8,1.6-5.2c0.2-0.2,20.7-22.2,11.9-33.7c-6-7.9-7.2-7.7-12.2-5.4
			c-0.8,0.4-1.7,0.6-2.6,0.6l-26.1-0.4c-3.3-0.1-6-2.8-5.9-6.1s2.8-6,6.1-5.9l24.8,0.4c12.8-5.3,19.4,1.5,25.5,9.6
			c12.7,16.8-4.5,39.6-10.8,46.9l11.1,62.9l45.3,24.7l13-11.2l-11.5-23.7l-19-13.8c-1.2-0.9-2.1-2.2-2.4-3.8
			c-1.1-5.9,0.1-11.5,3.4-16.1c7.3-10.3,22.6-12.9,24.3-13.2c1.6-0.2,3.2,0.2,4.5,1.1l21.2,15.8l10.6-20.9c1-1.9,2.9-3.2,5.1-3.3
			l40.3-1.5c2-6.4,4.1-15.3,3.7-20.1c-0.6-1.6-3.4-6.1-6.7-10.6l-23.8,2c-1.5,0.1-2.9-0.3-4.1-1.2l-20.2-15c-1.6-1.2-2.5-3-2.4-5
			s1.1-3.8,2.7-4.8l36.5-23.5c2.8-1.8,6.5-1,8.3,1.8s1,6.5-1.8,8.3l-29.2,18.8l11.4,8.5l24.9-2.1c2.1-0.2,4.1,0.7,5.3,2.4
			c10.2,13.9,10.7,17.5,10.8,18.7c1.2,10.4-4.8,27.7-5.5,29.6c-0.8,2.3-3,3.9-5.4,4l-41,1.6l-12.2,24.1c-0.8,1.6-2.3,2.7-4,3.1
			c-1.7,0.4-3.5,0-5-1l-24.7-18.5c-4.2,1-11,3.5-14,7.8c-1,1.5-1.5,3-1.6,4.8l18,13.1c0.8,0.6,1.4,1.3,1.9,2.2l14.2,29.2
			c1.2,2.4,0.6,5.4-1.5,7.2L240.8,284C239.7,285,238.3,285.5,236.9,285.5z"/>
	</g>
	<g>
		<path class="st0" d="M250,416.1c-91.6,0-166.1-74.5-166.1-166.1S158.4,83.9,250,83.9S416.1,158.4,416.1,250S341.6,416.1,250,416.1
			z M250,95.9C165,95.9,95.9,165,95.9,250S165,404.1,250,404.1S404.1,335,404.1,250S335,95.9,250,95.9z"/>
	</g>
	<g>
		<g>
			<path class="st1" d="M0,500"/>
		</g>
		<g>
			<path class="st2" d="M0,500"/>
		</g>
		<g>
			<path class="st2" d="M0,500"/>
		</g>
		<g>
			<path class="st2" d="M0,500"/>
		</g>
		<g>
			<path class="st2" d="M0,500"/>
		</g>
		<g>
			<path class="st2" d="M0,500"/>
		</g>
		<g>
			<path class="st2" d="M0,500"/>
		</g>
		<g>
			<path class="st2" d="M0,500"/>
		</g>
		<g>
			<path class="st2" d="M0,500"/>
		</g>
		<g>
			<path class="st2" d="M0,500"/>
		</g>
		<g>
			<path class="st2" d="M0,500"/>
		</g>
		<g>
			<path class="st2" d="M0,500"/>
		</g>
	</g>
</g>
</svg>
