<?xml version="1.0" encoding="utf-8"?>
<!-- Generator: Adobe Illustrator 27.5.0, SVG Export Plug-In . SVG Version: 6.00 Build 0)  -->
<svg version="1.1" id="Layer_1" xmlns="http://www.w3.org/2000/svg" xmlns:xlink="http://www.w3.org/1999/xlink" x="0px" y="0px"
	 viewBox="0 0 500 500" style="enable-background:new 0 0 500 500;" xml:space="preserve">
<style type="text/css">
	.st0{display:none;fill:none;}
	.st1{fill:none;}
	.st2{fill:#F84239;}
	.st3{fill:#F9423A;}
	.st4{fill:none;stroke:#F84239;stroke-width:12;stroke-linecap:round;stroke-linejoin:round;}
</style>
<g>
	<g>
		<path class="st0" d="M0,370"/>
		<g>
			<path class="st0" d="M0,370"/>
		</g>
	</g>
	<g>
		<path class="st1" d="M0,370"/>
	</g>
	<g>
		<path class="st1" d="M0,370"/>
	</g>
</g>
<g>
	<path class="st2" d="M167.2,389.5c-1.4,0-2.7-0.5-3.9-1.4c-2.5-2.1-2.9-5.9-0.7-8.5l19.2-22.8L162.5,334c-2.1-2.5-1.8-6.3,0.7-8.5
		s6.3-1.8,8.5,0.7l17.9,21.2l17.8-21.2c2.1-2.5,5.9-2.9,8.5-0.7c2.5,2.1,2.9,5.9,0.7,8.5l-19.2,22.8l19.2,22.7
		c2.1,2.5,1.8,6.3-0.7,8.5c-2.5,2.1-6.3,1.8-8.5-0.7l-17.8-21.1l-17.8,21.2C170.6,388.8,168.9,389.5,167.2,389.5z"/>
</g>
<g>
	<path class="st2" d="M274.4,389.4h-35.5c-3.3,0-6-2.7-6-6v-53.3c0-3.3,2.7-6,6-6s6,2.7,6,6v47.3h29.5c3.3,0,6,2.7,6,6
		S277.7,389.4,274.4,389.4z"/>
</g>
<g>
	<path class="st3" d="M318.7,389.7c-0.1,0-0.2,0-0.3,0h-23.5c-3.3,0-6-2.7-6-6s2.7-6,6-6h23.6c1.9,0,3.7-0.7,5-2.1
		c1.5-1.4,2.3-3.3,2.3-5.3c0-4.1-3.4-7.5-7.5-7.5H308c-10.8,0-19.5-8.7-19.5-19.5s8.7-19.5,19.5-19.5h21c3.3,0,6,2.7,6,6s-2.7,6-6,6
		h-21c-4.2,0-7.5,3.3-7.5,7.5s3.3,7.5,7.5,7.5h10.3c10.8,0,19.5,8.7,19.5,19.5c0,5.2-2.1,10.2-5.8,13.9
		C328.4,387.7,323.6,389.7,318.7,389.7z"/>
</g>
<g>
	<g>
		<path class="st3" d="M383.5,442.3H116.6c-3.3,0-6-2.7-6-6V63.2c0-3.3,2.7-6,6-6h160.1c1.6,0,3.1,0.6,4.2,1.8l106.8,106.7
			c1.1,1.1,1.8,2.7,1.8,4.2v266.4C389.5,439.6,386.8,442.3,383.5,442.3z M122.6,430.3h254.9V172.4L274.2,69.2H122.6V430.3z"/>
	</g>
	<g>
		<path class="st3" d="M383.4,175.9H276.7c-3.3,0-6-2.7-6-6V63.2c0-3.3,2.7-6,6-6s6,2.7,6,6v100.7h100.7c3.3,0,6,2.7,6,6
			S386.7,175.9,383.4,175.9z"/>
	</g>
</g>
<path class="st3" d="M383.4,175.9c-1.4,0-2.8-0.5-3.9-1.4c-0.4-0.3-5-4.5-54.1-54.4c-45.8-46.5-51.9-51.8-52.5-52.2
	c0.2,0.2,0.3,0.2,0.3,0.2l6.9-9.8c2.4,1.6,22.5,21.6,53.8,53.4c47.5,48.2,53.1,53.4,53.4,53.7c2.5,2.2,2.7,5.9,0.6,8.4
	C386.8,175.2,385.1,175.9,383.4,175.9z"/>
<g>
	<path class="st4" d="M0,500"/>
</g>
</svg>
